<?xml version="1.0" encoding="UTF-8"?>
<svg width="92px" height="47px" viewBox="0 0 92 47" version="1.1" xmlns="http://www.w3.org/2000/svg" xmlns:xlink="http://www.w3.org/1999/xlink">
    <!-- Generator: Sketch 59.1 (86144) - https://sketch.com -->
    <title>ser-watch</title>
    <desc>Created with Sketch.</desc>
    <g id="Page-1" stroke="none" stroke-width="1" fill="none" fill-rule="evenodd">
        <path d="M46.9195919,0 C59.9004896,0 70.9723732,4.2454762 80.130977,11.3124365 C83.3344473,13.7842976 86.0721016,16.4329955 88.3495414,19.0853191 C89.0355432,19.884242 89.6381216,20.6359675 90.1576587,21.326968 L90.4105089,21.6673452 C90.67324,22.0254306 90.8729577,22.3109863 91.0098886,22.5149664 L91.6434237,23.5000517 L91.0098287,24.4851047 C90.8957069,24.6550862 90.7379786,24.8817175 90.5365132,25.1597635 L90.1575075,25.6730948 C89.6379161,26.3640922 89.0352787,27.1158146 88.3492141,27.9147345 C86.0715651,30.5670491 83.333703,33.2157383 80.1300407,35.6875915 C70.9708823,42.7545336 59.8986769,47 46.9177919,47 L46.275159,46.9964496 C46.137887,46.9988133 46.000328,47 45.8624919,47 C45.2400566,47 44.6232735,46.9758013 44.0130318,46.9282933 C32.2355104,46.3460968 21.7620442,42.2345377 12.6913861,35.7182284 C9.26255487,33.2549755 6.28123854,30.6157156 3.75857496,27.973288 C2.87251505,27.0451622 2.10591236,26.1812843 1.46025634,25.4031313 L1.07023967,24.92534 C0.920260471,24.7381637 0.801478463,24.5852248 0.714087444,24.4692045 L2.84217094e-14,23.5 L0.714087872,22.530795 L1.07024292,22.0746574 L1.46026317,21.5968647 C2.10592485,20.8187104 2.8725368,19.9548312 3.75861047,19.0267042 C6.28131208,16.3842745 9.26269497,13.7450131 12.6916281,11.2817594 C21.7607829,4.76672153 32.2323909,0.655499949 44.008301,0.0718115435 C44.6199068,0.0243309951 45.2383579,0 45.8624919,0 C46.0013341,0 46.1398951,0.00120405697 46.278165,0.00360229883 L46.9195919,0 L46.9195919,0 Z M45.8624919,3 C34.5406191,3 25.3624919,12.1781271 25.3624919,23.5 C25.3624919,34.8218729 34.5406191,44 45.8624919,44 C57.1843648,44 66.3624919,34.8218729 66.3624919,23.5 C66.3624919,12.1781271 57.1843648,3 45.8624919,3 Z M59.8038828,4.57988566 L60.0312657,4.75011147 C65.7000369,9.04054182 69.3624919,15.842551 69.3624919,23.5 C69.3624919,31.2594887 65.6017781,38.1405872 59.8035825,42.4200636 C66.6828352,40.6666728 72.8434411,37.5205396 78.2974181,33.3124085 C81.3310293,30.9717617 83.9230117,28.4642009 86.0732416,25.9602655 C86.7155407,25.2123104 87.277105,24.5118644 87.7579835,23.8724592 L88.0341336,23.4999504 L87.7580405,23.127478 C87.2772166,22.4880758 86.7157121,21.787633 86.0734768,21.0396809 C83.9234596,18.5357545 81.3316913,16.0282024 78.2982819,13.6875635 C72.8443025,9.47916493 66.6835145,6.33290173 59.8038828,4.57988566 Z M30.8306908,5.43556603 L30.7811373,5.45013519 C24.9041716,7.29395832 19.4528239,10.1185492 14.4419308,13.7182406 C11.1716998,16.0674869 8.32843977,18.5844755 5.92852028,21.0982958 C5.09648089,21.969824 4.37946588,22.777434 3.77939089,23.5 L4.32233097,24.1396813 C4.79857114,24.6892815 5.33419348,25.2791911 5.92849954,25.901712 C8.32838674,28.4155344 11.1715868,30.9325245 14.4417228,33.2817716 C19.4666502,36.8916509 24.9344635,39.7220346 30.8301903,41.5655047 C25.6559885,37.2537454 22.3624919,30.7615038 22.3624919,23.5 C22.3624919,16.2384962 25.6559885,9.74625461 30.8306908,5.43556603 Z M45.7743696,9.00016295 L46.1964653,9.00259159 L46.5191192,9.01094822 C54.7790728,9.30698973 61.3624919,15.862482 61.3624919,24.0008 C61.3624919,32.2882937 54.5563263,38.9992 46.1721213,38.9992 L45.9604257,38.9992 C43.9794748,38.9692897 41.5521958,38.5212302 39.1253951,37.3450728 C35.3399464,35.510442 32.5764736,32.3054853 31.4055185,27.5224909 L31.1109982,26.3194655 L37.019039,23.6066557 L31.383552,20.8659903 L31.6161794,19.7259914 C31.6934226,19.3474587 31.8656577,18.7438917 32.1633414,17.9878997 C32.6520973,16.7466646 33.3283087,15.5071172 34.2264935,14.3454389 C36.7907885,11.0288764 40.6051651,9.0239188 45.7743696,9.00016295 Z" id="ser-watch" fill="#000000" fill-rule="nonzero"></path>
    </g>
</svg>