<?xml version="1.0" encoding="UTF-8"?>
<svg width="25px" height="25px" viewBox="0 0 25 25" version="1.1" xmlns="http://www.w3.org/2000/svg" xmlns:xlink="http://www.w3.org/1999/xlink">
    <!-- Generator: Sketch 59.1 (86144) - https://sketch.com -->
    <title>transport</title>
    <desc>Created with Sketch.</desc>
    <g id="Page-1" stroke="none" stroke-width="1" fill="none" fill-rule="evenodd">
        <path d="M23.8381,6.5772 C23.8,6.57772 23.7621,6.58374 23.7256,6.59509 L23.7256,3.51227 C23.7258,3.36605 23.7099,3.22027 23.6782,3.07771 C23.6801,3.04707 23.6801,3.01633 23.6782,2.98568 C23.6857,1.33947 18.6757,0 12.4938,0 C6.31184,0 1.30185,1.33947 1.30185,2.98824 C1.29993,3.01888 1.29993,3.04962 1.30185,3.08027 C1.26859,3.2218 1.25099,3.36671 1.24938,3.51227 L1.24938,6.59509 C1.2129,6.58374 1.17505,6.57772 1.13693,6.5772 C0.514743,6.5772 0,8.13906 0,10.0639 C0,11.9888 0.514743,13.5532 1.14943,13.5532 C1.18334,13.5515 1.21692,13.5455 1.24938,13.5353 L1.24938,20.5138 C1.25069,21.0381 1.24938,20.5138 1.24938,22.4949 C3.12344,22.4923 2.67088,22.491 3.18341,22.4923 L3.51324,22.4923 C3.51324,22.5077 3.51324,22.523 3.51324,22.5383 L3.51324,23.704 C3.5139,24.0468 3.51324,23.704 3.51324,24.9974 C4.77761,24.9974 4.44248,24.9968 4.77761,24.9974 L5.997,24.9974 C6.32952,24.9927 5.997,24.9974 7.24638,24.9974 C7.24638,23.7781 7.24575,24.0442 7.24638,23.704 L7.24638,22.5383 C7.24638,22.523 7.24638,22.5077 7.24638,22.4923 L17.7411,22.4923 C17.7411,22.5077 17.7411,22.523 17.7411,22.5383 L17.7411,23.704 C17.7411,24.0446 17.7411,23.704 17.7411,25 C18.9905,25 18.6576,24.9953 18.9905,25 L20.1924,25 C20.5275,24.9993 20.1924,25 21.4568,25 C21.4568,23.7065 21.4561,24.0494 21.4568,23.7065 L21.4568,22.5383 C21.4568,22.523 21.4568,22.5077 21.4568,22.4923 L21.7866,22.4923 C22.0419,22.494 21.7866,22.4923 22.6137,22.4949 C23.7381,22.4949 22.6137,22.4949 23.7381,22.4949 C23.7381,21.3446 23.7381,22.4949 23.7381,21.3446 C23.7381,20.7055 23.7375,20.7749 23.7381,20.5138 L23.7381,13.5353 C23.7746,13.5466 23.8125,13.5527 23.8506,13.5532 C24.4853,13.5532 25,11.9913 25,10.0665 C25,8.14162 24.4728,6.5772 23.8381,6.5772 Z M8.21839,1.53374 L16.7691,1.53374 C16.9573,1.53374 16.7691,1.53374 17.4788,1.53374 C17.4788,2.25971 17.4788,2.06717 17.4788,2.25971 C17.4788,2.45225 17.4788,2.25971 17.4788,2.98568 C16.7691,2.98568 16.9573,2.98568 16.7691,2.98568 L8.21839,2.98568 C8.03018,2.98568 8.21839,2.98568 7.50875,2.98568 C7.50875,2.25971 7.50875,2.45225 7.50875,2.25971 C7.50875,2.06717 7.50875,2.25971 7.50875,1.53374 C8.21839,1.53374 8.03018,1.53374 8.21839,1.53374 Z M5.37481,20.4806 C5.10349,20.4806 4.83827,20.3983 4.61267,20.2441 C4.38708,20.0899 4.21125,19.8707 4.10742,19.6142 C4.00359,19.3578 3.97643,19.0756 4.02936,18.8034 C4.08229,18.5312 4.21294,18.2811 4.40479,18.0849 C4.59664,17.8886 4.84108,17.7549 5.10718,17.7008 C5.37329,17.6466 5.64912,17.6744 5.89978,17.7806 C6.15045,17.8869 6.3647,18.0667 6.51543,18.2975 C6.66617,18.5283 6.74663,18.7996 6.74663,19.0772 C6.74663,19.4494 6.6021,19.8064 6.34483,20.0695 C6.08757,20.3327 5.73864,20.4806 5.37481,20.4806 Z M19.6177,20.4806074 C19.3464,20.4806074 19.0811,20.3983 18.8556,20.2441 C18.63,20.0899 18.4541,19.8707 18.3503,19.6142 C18.2465,19.3578 18.2193,19.0756 18.2722,18.8034 C18.3252,18.5312 18.4558,18.2811 18.6477,18.0849 C18.8395,17.8886 19.084,17.7549 19.3501,17.7008 C19.6162,17.6466 19.892,17.6744 20.1427,17.7806 C20.3933,17.8869 20.6076,18.0667 20.7583,18.2975 C20.909,18.5283 20.9895,18.7996 20.9895,19.0772 C20.9895,19.2619 20.9539,19.4448 20.8846,19.6154 C20.8154,19.786 20.7139,19.941 20.5859,20.0713 C20.458,20.2017 20.3062,20.305 20.1392,20.3752 C19.9722,20.4454 19.7933,20.4812 19.6127,20.4806074 L19.6177,20.4806074 Z M21.6817,14.4325 C21.6803,14.8274 21.6792,14.4325 21.6792,15.9228 C20.2249,15.9228 20.6108,15.9215 20.2249,15.9228 L4.76512,15.9228 C4.37916,15.9215 4.76512,15.9228 3.30835,15.9228 C3.30835,14.4325 3.30966,14.8274 3.30835,14.4325 L3.30835,5.69785 C3.30966,5.30302 3.30835,5.69785 3.30835,4.20757 C4.76512,4.20757 4.37916,4.20891 4.76512,4.20757 L20.2224,4.20757 C20.6083,4.20891 20.2224,4.20757 21.6792,4.20757 C21.6792,5.69785 21.6778,5.30302 21.6792,5.69785 L21.6792,14.4325 L21.6817,14.4325 Z" id="transport" fill="#000000" fill-rule="nonzero"></path>
    </g>
</svg>