<svg width="20" height="20" viewBox="0 0 20 20" fill="none" xmlns="http://www.w3.org/2000/svg">
<circle cx="10" cy="10" r="10" fill="#5B7FA1"/>
<path d="M10 5C9.70146 5 9.45946 5.24201 9.45946 5.54054V9.45948H5.54054C5.24201 9.45948 5 9.70148 5 10C5 10.2986 5.24201 10.5406 5.54054 10.5406H9.45946V14.4595C9.45946 14.758 9.70146 15 10 15C10.2985 15 10.5405 14.758 10.5405 14.4595V10.5406H14.4595C14.758 10.5406 15 10.2986 15 10C15 9.70148 14.758 9.45948 14.4595 9.45948H10.5405V5.54054C10.5405 5.24201 10.2985 5 10 5Z" fill="white"/>
</svg>
