<?xml version="1.0" encoding="UTF-8"?>
<svg width="18px" height="15px" viewBox="0 0 18 15" version="1.1" xmlns="http://www.w3.org/2000/svg" xmlns:xlink="http://www.w3.org/1999/xlink">
    <!-- Generator: Sketch 59.1 (86144) - https://sketch.com -->
    <title>camera</title>
    <desc>Created with Sketch.</desc>
    <g id="Page-1" stroke="none" stroke-width="1" fill="none" fill-rule="evenodd">
        <path d="M8.69443,4.33331 C10.7041175,4.33331 12.3333,5.96250033 12.3333,7.9722 C12.3333,9.98190077 10.7041164,11.6111 8.69443,11.6111 C6.68472754,11.6111 5.05554,9.98190467 5.05554,7.9722 C5.05554,5.96249644 6.68472644,4.33331 8.69443,4.33331 Z M8.69443,5.83331 C7.51315356,5.83331 6.55554,6.79092356 6.55554,7.9722 C6.55554,9.15347915 7.51315627,10.1111 8.69443,10.1111 C9.87568602,10.1111 10.8333,9.15347686 10.8333,7.9722 C10.8333,6.79092585 9.87568873,5.83331 8.69443,5.83331 Z M4.68194269,2.16667 L5.90374272,0.333974188 C6.04284212,0.125325571 6.27701539,0 6.52778,0 L10.8611,0 C11.1118604,0 11.3460303,0.125321355 11.4851306,0.333964219 L12.7069796,2.16667 L15.1944,2.16667 C16.4063995,2.16667 17.3889,3.14914234 17.3889,4.36111 L17.3889,12.3056 C17.3889,13.5175371 16.4063901,14.5 15.1944,14.5 L2.19444,14.5 C0.982495834,14.5 0,13.517523 0,12.3056 L0,4.36111 C0,3.14915644 0.982486438,2.16667 2.19444,2.16667 L4.68194269,2.16667 Z M10.4597204,1.5 L6.92916731,1.5 L5.70736728,3.33269581 C5.56826788,3.54134443 5.33409461,3.66667 5.08333,3.66667 L2.19444,3.66667 C1.81091356,3.66667 1.5,3.97758356 1.5,4.36111 L1.5,12.3056 C1.5,12.6890894 1.81091654,13 2.19444,13 L15.1944,13 C15.577979,13 15.8889,12.6890939 15.8889,12.3056 L15.8889,4.36111 C15.8889,3.9775791 15.577982,3.66667 15.1944,3.66667 L12.3056,3.66667 C12.0548396,3.66667 11.8206697,3.54134864 11.6815694,3.33270578 L10.4597204,1.5 Z" id="camera" fill="#000000" fill-rule="nonzero"></path>
    </g>
</svg>