<?xml version="1.0" encoding="UTF-8"?>
<svg width="45px" height="50px" viewBox="0 0 45 50" version="1.1" xmlns="http://www.w3.org/2000/svg" xmlns:xlink="http://www.w3.org/1999/xlink">
    <!-- Generator: Sketch 59.1 (86144) - https://sketch.com -->
    <title>completed-step</title>
    <desc>Created with Sketch.</desc>
    <g id="Page-1" stroke="none" stroke-width="1" fill="none" fill-rule="evenodd">
        <path d="M25.9373779,11.9851 C25.9373779,10.4821 25.6624779,9.01655 25.1202779,7.62755 C23.3104779,2.99313 18.9259779,0 13.9499779,0 C7.34025793,0 1.96270793,5.38063 1.96270793,11.9905 C1.96270793,17.9374 6.22023793,22.9243 12.0861779,23.8396 C12.4060779,23.8897 12.6264779,24.1712 12.5806779,24.4916 L12.1162779,27.738 L12.6654779,27.738 C11.6665779,30.1047 10.2790779,34.3514 12.1626779,38.1189 C14.5104779,42.8147 12.1861779,47.6202 12.1626779,47.6673 C12.0165779,47.9594 12.1349779,48.322 12.4272779,48.4682 C12.5122779,48.5106 12.6025779,48.5344 12.6914779,48.5344 C12.9084779,48.5344 13.1174779,48.4164 13.2210779,48.2091 C13.3292779,47.9928 15.8390779,42.8248 13.2210779,37.5888 C11.4310779,34.0081 13.0858779,29.6313 13.9757779,27.738 L15.7834779,27.738 L15.3192779,24.4918 C15.2734779,24.1712 15.4938779,23.8627 15.8137779,23.8128 C16.2507779,23.7447 16.7056779,23.6529 17.1655779,23.5251 C22.3302779,22.0901 25.9373779,17.3491 25.9373779,11.9851 Z M29.0446779,7.54431 C31.7583779,7.54431 34.3177779,8.4285 36.4460779,10.1015 C39.3604779,12.3923 41.0320779,15.8259 41.0320779,19.5281 C41.0320779,20.2762 40.9617779,21.0244 40.8232779,21.7591 C39.8866779,26.7269 35.9023779,30.581 30.9086779,31.3604 C30.5886779,31.4103 30.3682779,31.6725 30.4139779,31.9931 L30.4139779,31.9931 L30.8783779,35.1931 L29.0274779,35.1931 C28.7478779,35.7848 28.4108779,36.4384 28.1916779,37.2561 C27.6389779,39.318 28.0667779,41.0998 29.4630779,42.4963 C31.5853779,44.6184 31.8370779,46.42 31.6744779,47.5578 C31.4914779,48.8388 30.7523779,49.5901 30.7208779,49.6216 C30.6054779,49.7372 30.4538779,49.794 30.3025779,49.794 C30.1511779,49.794 29.9997779,49.7346 29.8842779,49.619 C29.6531779,49.3878 29.6531779,49.0096 29.8842779,48.7787 C29.9650779,48.6948 31.9080779,46.6003 28.6263779,43.3187 C26.9244779,41.6169 26.3823779,39.392 27.0586779,36.9124 C27.2321779,36.2763 27.4644779,35.7846 27.6948779,35.193 L27.6948779,35.193 L27.2110779,35.193 L27.6753779,31.9929 C27.7210779,31.6723 27.5007779,31.4139 27.1808779,31.3639 C23.1985779,30.7424 19.7821779,28.1287 18.1235779,24.4708 C18.2004779,24.4451 18.2756779,24.419 18.3518779,24.3919 C18.4241779,24.3663 18.4970779,24.3428 18.5687779,24.316 C18.6664779,24.2794 18.7626779,24.2411 18.8589779,24.2023 C18.9274779,24.1747 18.9965779,24.1485 19.0643779,24.1199 C19.1635779,24.078 19.2610779,24.0336 19.3587779,23.9895 C19.4222779,23.9609 19.4863779,23.9336 19.5491779,23.9041 C19.6530779,23.8552 19.7550779,23.8034 19.8573779,23.7519 C19.9122779,23.7242 19.9680779,23.698 20.0225779,23.6696 C20.1429779,23.6068 20.2614779,23.541 20.3795779,23.4747 C20.4140779,23.4553 20.4495779,23.4372 20.4840779,23.4175 C20.6370779,23.3297 20.7881779,23.2391 20.9370779,23.1455 C20.9404779,23.1434 20.9436779,23.141 20.9470779,23.1389 C21.0914779,23.048 21.2336779,22.9545 21.3740779,22.8583 C21.4161779,22.8295 21.4568779,22.7989 21.4986779,22.7696 C21.5992779,22.6988 21.6997779,22.6282 21.7982779,22.5548 C21.8490779,22.5169 21.8983779,22.4773 21.9485779,22.4387 C22.0359779,22.3715 22.1235779,22.3047 22.2092779,22.2354 C22.2628779,22.192 22.3148779,22.1469 22.3678779,22.1027 C22.4478779,22.0358 22.5282779,21.9693 22.6065779,21.9007 C22.6608779,21.8532 22.7134779,21.8041 22.7669779,21.7557 C22.8417779,21.688 22.9167779,21.6205 22.9899779,21.5511 L22.9899779,21.5511 L23.1491779,21.3957 C23.2195779,21.3266 23.2900779,21.2578 23.3589779,21.1872 C23.4115779,21.1332 23.4629779,21.0778 23.5147779,21.0229 C23.5815779,20.9521 23.6480779,20.8815 23.7131779,20.8094 C23.7643779,20.7526 23.8142779,20.6946 23.8645779,20.637 C23.9276779,20.5646 23.9906779,20.4921 24.0521779,20.4183 L24.0521779,20.4183 L24.1984779,20.2384 C24.2580779,20.1642 24.3175779,20.0899 24.3755779,20.0144 C24.4231779,19.9528 24.4695779,19.8903 24.5158779,19.8278 C24.5723779,19.7517 24.6284779,19.6755 24.6833779,19.5983 C24.7285779,19.5344 24.7729779,19.47 24.8170779,19.4054 C24.8701779,19.3276 24.9228779,19.2494 24.9744779,19.1704 C25.0173779,19.1044 25.0595779,19.0381 25.1014779,18.9714 C25.1514779,18.8918 25.2006779,18.8117 25.2489779,18.731 C25.2894779,18.6633 25.3293779,18.5953 25.3686779,18.5269 C25.4153779,18.4453 25.4613779,18.3633 25.5064779,18.2807 C25.5443779,18.2115 25.5816779,18.1419 25.6184779,18.0719 C25.6619779,17.9884 25.7044779,17.9047 25.7463779,17.8204 L25.7463779,17.8204 L25.8504779,17.6066 C25.8908779,17.5217 25.9297779,17.4364 25.9681779,17.3506 L25.9681779,17.3506 L26.0644779,17.1321 C26.1013779,17.0454 26.1368779,16.9582 26.1719779,16.8708 C26.2016779,16.7971 26.2313779,16.7233 26.2596779,16.6489 C26.2932779,16.5606 26.3252779,16.4715 26.3570779,16.3824 C26.3837779,16.3075 26.4106779,16.2327 26.4360779,16.1572 C26.4663779,16.0672 26.4947779,15.9764 26.5230779,15.8855 L26.5230779,15.8855 L26.5931779,15.6579 C26.6199779,15.5658 26.6448779,15.4729 26.6696779,15.3801 C26.6902779,15.3038 26.7113779,15.2277 26.7305779,15.1509 C26.7540779,15.057 26.7751779,14.9621 26.7965779,14.8673 L26.7965779,14.8673 L26.8480779,14.6371 C26.8680779,14.5404 26.8855779,14.4429 26.9032779,14.3457 C26.9173779,14.2696 26.9323779,14.1937 26.9449779,14.1173 C26.9616779,14.0168 26.9752779,13.9155 26.9895779,13.8143 C27.0000779,13.74 27.0118779,13.6661 27.0211779,13.5914 C27.0342779,13.4849 27.0442779,13.3777 27.0547779,13.2706 L27.0547779,13.2706 L27.0760779,13.0603 C27.0857779,12.9415 27.0918779,12.8219 27.0985779,12.7024 C27.1018779,12.643 27.1068779,12.5839 27.1092779,12.5243 C27.1167779,12.3449 27.1206779,12.1648 27.1206779,11.9841 C27.1206779,11.8221 27.1168779,11.6605 27.1110779,11.4993 C27.1102779,11.4738 27.1096779,11.4484 27.1084779,11.4231 C27.1021779,11.2691 27.0928779,11.1157 27.0811779,10.9627 C27.0787779,10.9335 27.0763779,10.9043 27.0740779,10.875 C27.0610779,10.7209 27.0459779,10.5669 27.0277779,10.4135 C27.0255779,10.3937 27.0227779,10.3739 27.0203779,10.3541 C27.0016779,10.2023 26.9804779,10.0507 26.9564779,9.89986 C26.9543779,9.88744 26.9527779,9.87477 26.9506779,9.86235 C26.9256779,9.70804 26.8972779,9.55456 26.8668779,9.40144 L26.8668779,9.40144 L26.8502779,9.31908 C26.8196779,9.1701 26.7864779,9.02194 26.7506779,8.87414 L26.7506779,8.87414 L26.7301779,8.79226 C26.6924779,8.64103 26.6526779,8.49027 26.6095779,8.34034 C26.6057779,8.3278 26.6018779,8.31526 26.5982779,8.30271 C26.5559779,8.15764 26.5108779,8.01327 26.4636779,7.86949 C26.4589779,7.85517 26.4550779,7.84074 26.4502779,7.82642 C27.2992779,7.6391 28.1693779,7.54431 29.0446779,7.54431 Z M3.55021793,42.1046 C4.20270793,42.1046 4.73355793,42.6355 4.73355793,43.288 C4.73355793,43.9404 4.20270793,44.4713 3.55021793,44.4713 C2.89772793,44.4713 2.36687793,43.9404 2.36687793,43.288 C2.36687793,42.6355 2.89772793,42.1046 3.55021793,42.1046 Z M36.6834779,38.5537 C37.3359779,38.5537 37.8667779,39.0846 37.8667779,39.737 C37.8667779,40.3895 37.3359779,40.9204 36.6834779,40.9204 C36.0309779,40.9204 35.5000779,40.3895 35.5000779,39.737 C35.5000779,39.0846 36.0309779,38.5537 36.6834779,38.5537 Z M43.7835779,29.0873 C44.4360779,29.0873 44.9669779,29.6181 44.9669779,30.2706 C44.9669779,30.9231 44.4360779,31.454 43.7835779,31.454 C43.1310779,31.454 42.6002779,30.9231 42.6002779,30.2706 C42.6002779,29.6181 43.1310779,29.0873 43.7835779,29.0873 Z M1.18333793,24.3546 C1.83582793,24.3546 2.36666793,24.8855 2.36666793,25.5379 C2.36666793,26.1904 1.83582793,26.7213 1.18333793,26.7213 C0.53084493,26.7213 0,26.1904 0,25.5379 C0,24.8855 0.53084493,24.3546 1.18333793,24.3546 Z M13.3808779,4.18215 C13.4592779,4.49916 13.2662779,4.82884 12.9497779,4.90789 C12.7388779,4.96102 7.86790793,6.23015 7.90908793,11.1726 C7.91181793,11.4993 7.64910793,11.7628 7.32239793,11.7628 L7.31742793,11.7628 C6.99294793,11.7628 6.72859793,11.5075 6.72587793,11.1824 C6.70551793,8.74202 7.73075793,6.67023 9.69083793,5.20633 C11.1477779,4.11825 12.6028779,3.75615 12.6641779,3.741 C12.9809779,3.66231 13.3022779,3.86489 13.3808779,4.18215 Z M39.6419779,1.87073 C40.6207779,1.87073 41.4169779,2.66699 41.4169779,3.64573 C41.4169779,4.62447 40.6207779,5.42074 39.6419779,5.42074 C38.6632779,5.42074 37.8669779,4.62447 37.8669779,3.64573 C37.8669779,2.66699 38.6632779,1.87073 39.6419779,1.87073 Z" id="completed-step" fill="#000000" fill-rule="nonzero"></path>
    </g>
</svg>