<?xml version="1.0" encoding="UTF-8"?>
<svg viewBox="0 0 10 10" version="1.1" xmlns="http://www.w3.org/2000/svg" xmlns:xlink="http://www.w3.org/1999/xlink">
    <!-- Generator: Sketch 59.1 (86144) - https://sketch.com -->
    <title>error</title>
    <desc>Created with Sketch.</desc>
    <g id="Page-1" stroke="none" stroke-width="1" fill="none" fill-rule="evenodd">
        <path d="M9.79110005,0.208892888 C9.51256005,-0.0696399124 9.06097005,-0.0696220124 8.78245005,0.208892888 L5,3.99134989 L1.21755005,0.208902888 C0.93902705,-0.0696290124 0.48744105,-0.0696290124 0.20890105,0.208902888 C-0.06964005,0.487453888 -0.06962765,0.939035888 0.20890205,1.21756989 L3.99134005,5 L0.20891305,8.78243989 C-0.06961315,9.06096989 -0.06962745,9.51253989 0.20891305,9.79108989 C0.48745205,10.0695999 0.93903705,10.0695999 1.21757005,9.79108989 L5,6.00864989 L8.78244005,9.79108989 C9.06096005,10.0695999 9.51255005,10.0695999 9.79109005,9.79108989 C10.0696001,9.51255989 10.0696001,9.06097989 9.79109005,8.78244989 L6.00864005,5 L9.79110005,1.21754989 C10.0696001,0.939013888 10.0696001,0.487442888 9.79110005,0.208892888 Z" id="error" fill="#000000" fill-rule="nonzero"></path>
    </g>
</svg>