<?xml version="1.0" encoding="UTF-8"?>
<svg width="23px" height="25px" viewBox="0 0 23 25" version="1.1" xmlns="http://www.w3.org/2000/svg" xmlns:xlink="http://www.w3.org/1999/xlink">
    <!-- Generator: Sketch 59.1 (86144) - https://sketch.com -->
    <title>formalities</title>
    <desc>Created with Sketch.</desc>
    <g id="Page-1" stroke="none" stroke-width="1" fill="none" fill-rule="evenodd">
        <path d="M15.6237,4.99853988 L0.624949,4.99853988 C0.542865,4.99853988 0.461577,5.01462 0.385733,5.04601 C0.309888,5.0774 0.240975,5.12343 0.182933,5.18147 C0.124892,5.23951 0.0788601,5.30842 0.047471,5.38427 C0.0160819,5.46011 4.65405492e-13,5.5414 4.65405492e-13,5.62348 L4.65405492e-13,24.3719 C4.65405492e-13,24.454 0.0160887,24.5353 0.0474793,24.6111 C0.0788699,24.687 0.124902,24.7559 0.182942,24.8139 C0.240983,24.872 0.309895,24.918 0.385738,24.9494 C0.46158,24.9808 0.542866,24.9969 0.624949,24.9969 L15.6237,24.9969 C15.7058,24.9969 15.7871,24.9808 15.8629,24.9494 C15.9388,24.918 16.0077,24.872 16.0657,24.8139 C16.1237,24.7559 16.1698,24.687 16.2012,24.6111 C16.2326,24.5353 16.2487,24.454 16.2487,24.3719 L16.2487,5.62348 C16.2487,5.5414 16.2326,5.46012 16.2012,5.38427 C16.1698,5.30843 16.1238,5.23952 16.0657,5.18148 C16.0077,5.12344 15.9388,5.07741 15.8629,5.04601 C15.7871,5.01462 15.7058,4.99853988 15.6237,4.99853988 Z M11.874,18.7474 L4.37464,18.7474 C4.20889,18.7474 4.04993,18.6816 3.93273,18.5644 C3.81553,18.4472 3.74969,18.2882 3.74969,18.1225 C3.74969,17.9567 3.81553,17.7977 3.93273,17.6805 C4.04993,17.5633 4.20889,17.4975 4.37464,17.4975 L11.874,17.4975 C12.0398,17.4975 12.1987,17.5633 12.3159,17.6805 C12.4331,17.7977 12.499,17.9567 12.499,18.1225 C12.499,18.2882 12.4331,18.4472 12.3159,18.5644 C12.1987,18.6816 12.0398,18.7474 11.874,18.7474 Z M11.874,14.9977 L4.37464,14.9977 C4.20889,14.9977 4.04993,14.9319 3.93273,14.8147 C3.81553,14.6975 3.74969,14.5385 3.74969,14.3728 C3.74969,14.207 3.81553,14.0481 3.93273,13.9309 C4.04993,13.8137 4.20889,13.7478 4.37464,13.7478 L11.874,13.7478 C12.0398,13.7478 12.1987,13.8137 12.3159,13.9309 C12.4331,14.0481 12.499,14.207 12.499,14.3728 C12.499,14.5385 12.4331,14.6975 12.3159,14.8147 C12.1987,14.9319 12.0398,14.9977 11.874,14.9977 Z M8.1804,0.00149999 L21.9297,1.2514 C22.0944,1.26638 22.2464,1.34602 22.3525,1.47288 C22.4586,1.59974 22.51,1.76348 22.4956,1.92822 L22.4956,1.92822 L20.8722,20.4875 C20.8587,20.6433 20.7872,20.7883 20.672,20.8939 C20.5567,20.9996 20.4061,21.0581022 20.2497,21.0581022 C20.2133,21.0581022 20.1769,21.0549 20.1411,21.0484 L20.1411,21.0484 L17.4985,20.5825 L17.4985,4.3737 C17.4985,4.20796 17.4326,4.049 17.3154,3.9318 C17.1982,3.8146 17.0393,3.74875 16.8735,3.74875 L16.8735,3.74875 L7.1792,3.74875 L7.50295,0.561141 C7.52274,0.398858 7.60403,0.25035 7.73007,0.146228 C7.85611,0.0421051 8.0173,-0.00969637 8.1804,0.00149999 L8.1804,0.00149999 Z M11.874,9.99812 C12.0398,9.99812 12.1987,10.064 12.3159,10.1812 C12.4331,10.2984 12.499,10.4573 12.499,10.6231 C12.499,10.7888 12.4331,10.9478 12.3159,11.065 C12.1987,11.1822 12.0398,11.248 11.874,11.248 L4.37464,11.248 C4.20889,11.248 4.04993,11.1822 3.93273,11.065 C3.81553,10.9478 3.74969,10.7888 3.74969,10.6231 C3.74969,10.4573 3.81553,10.2984 3.93273,10.1812 C4.04993,10.064 4.20889,9.99812 4.37464,9.99812 L11.874,9.99812 Z" id="formalities" fill="#000000" fill-rule="nonzero"></path>
    </g>
</svg>