<?xml version="1.0" encoding="UTF-8"?>
<svg width="10px" height="10px" viewBox="0 0 10 10" version="1.1" xmlns="http://www.w3.org/2000/svg" xmlns:xlink="http://www.w3.org/1999/xlink">
    <!-- Generator: Sketch 59.1 (86144) - https://sketch.com -->
    <title>hearing-support</title>
    <desc>Created with Sketch.</desc>
    <g id="Page-1" stroke="none" stroke-width="1" fill="none" fill-rule="evenodd">
        <path d="M2.72517,5.599119 C3.05979,5.599119 3.35192,5.816299 3.35206,6.084609 L3.35206,6.084609 L3.35206,9.315909 C3.35206,9.583809 3.07567,9.801209 2.74092,9.801209 C2.43666,9.801209 2.18145,9.620809 2.13854,9.386409 C2.13144,9.396509 2.11096,6.079319 2.11096,6.079319 C2.11444,6.082659 2.09814,6.082519 2.09814,6.085029 L2.09814,6.085029 C2.09814,5.816579 2.39069,5.599119 2.72517,5.599119 Z M7.25956,5.546879 C7.56395,5.546879 7.82418,5.727559 7.86694,5.961599 C7.8734575,5.95214817 7.89132715,8.73908296 7.89426017,9.20363772 L7.89467,9.268909 C7.89118,9.265609 7.90734,9.265709 7.90734,9.263109 L7.90734,9.263109 L7.89881412,9.3424102 C7.8484107,9.572677 7.581342,9.748609 7.28031,9.748609 C6.94556,9.748609 6.65356,9.531709 6.65356,9.263809 L6.65356,9.263809 L6.65356,6.032369 C6.65356,5.764479 6.92508,5.546879 7.25956,5.546879 Z M4.99436,0.000139 C5.09257,0.000139 5.19037,0.0039 5.28705,0.009612 L5.28705,0.009612 L5.38735,0.017274 C5.44265,0.021732 5.49824,0.026608 5.5534,0.032877 C7.12815,0.202279 8.55063,1.059999 9.43468,2.403079 C9.56522,2.601309 9.5974,2.835349 9.54474,3.049049 C9.78324,3.626629 9.91572,4.258809 9.91572,4.921639 C9.91572,5.466889 9.82517,5.998779 9.64825,6.510599 C9.87755,6.815119 10,7.192509 10,7.603329 C10,8.596189 9.17905,9.399909 8.20389,9.424109 L8.20389,9.424109 L8.20389,5.782289 C8.48251,5.788559 8.72491,5.850269 8.94724,5.954059 C9.03598,5.617769 9.09742,5.272699 9.09742,4.921359 C9.09742,4.479889 9.02679,4.054859 8.89709,3.656159 C8.84875,3.664799 8.80069,3.670649 8.75207,3.670649 C8.48599,3.670649 8.22535,3.541229 8.06807,3.302179 C7.38141,2.258889 6.22752,1.636179 4.98001,1.636179 C3.75089,1.636179 2.60661,2.245239 1.91717,3.265539 C1.73244,3.538439 1.4144,3.663819 1.10959,3.614509 C0.971121,4.025189 0.898681,4.464429 0.898681,4.921219 C0.898681,5.317689 0.963459,5.706229 1.0763,6.082779 C1.29223,5.985819 1.51721,5.929119 1.79583,5.922849 L1.79583,5.922849 L1.79583,9.564409 C0.820668,9.540409 0,8.736609 0,7.743899 C0,7.317049 0.132343,6.925739 0.378084,6.615629 C0.176226,6.071629 0.073137,5.504089 0.073137,4.921499 C0.073137,4.252259 0.207849,3.614229 0.450803,3.032059 C0.387,2.807909 0.418762,2.558269 0.559464,2.349999 C1.50593,0.949389 3.04849,0.087764 4.7241,0.00794 C4.77745,0.005015 4.83109,0.00404 4.88486,0.002925 C4.91648,0.002507 4.94769,0 4.97931,0 L4.97931,0 Z" id="hearing-support" fill="#000000" fill-rule="nonzero"></path>
    </g>
</svg>