<svg width="60" height="56" viewBox="0 0 60 56" fill="none" xmlns="http://www.w3.org/2000/svg">
<path d="M20.5776 45.9035C18.6204 45.9035 16.7706 45.5071 15.0777 44.7969C12.5425 43.7233 10.3871 41.9313 8.85936 39.6769C7.33162 37.4224 6.448 34.7055 6.448 31.7739V29.8911C6.448 26.6374 7.10865 23.5406 8.29781 20.7246C10.0816 16.4965 13.071 12.9042 16.8284 10.3607C20.5858 7.81726 25.1112 6.33907 30 6.33907C33.2537 6.33907 36.3505 6.99971 39.1665 8.18887C43.3946 9.97262 46.9869 12.962 49.5303 16.7195C52.0738 20.4769 53.552 25.0023 53.552 29.8911V31.7739C53.552 34.2513 53.0483 36.5966 52.1481 38.7437C50.7938 41.9561 48.5229 44.6895 45.6656 46.6219C42.8083 48.5543 39.3647 49.6774 35.6568 49.6774C35.2604 49.6774 34.897 49.5948 34.5585 49.4544C34.0547 49.2397 33.617 48.8846 33.3115 48.4304C33.0059 47.9762 32.8325 47.4395 32.8325 46.8531C32.8325 46.4567 32.9151 46.0934 33.0555 45.7548C33.2702 45.2511 33.6253 44.8134 34.0795 44.5078C34.5337 44.2023 35.0705 44.0289 35.6568 44.0289C37.3414 44.0289 38.96 43.6903 40.4217 43.0627C42.6183 42.1295 44.4929 40.577 45.8059 38.6281C47.1272 36.6709 47.8952 34.3091 47.8952 31.7822V29.8993C47.8952 27.4302 47.3915 25.0766 46.4914 22.9295C45.1288 19.7171 42.8661 16.9837 40.0088 15.0513C37.1515 13.1189 33.7079 11.9958 30 11.9958C27.5308 11.9958 25.1773 12.4996 23.0302 13.3997C19.8178 14.7623 17.0844 17.025 15.152 19.8823C13.2196 22.7396 12.0965 26.1832 12.0965 29.8911V31.7739C12.0965 32.9383 12.336 34.0614 12.7654 35.0771C13.4096 36.5966 14.4831 37.8931 15.8374 38.8098C17.1917 39.7264 18.8268 40.2549 20.5776 40.2549H35.6568C36.8212 40.2549 37.9443 40.0155 38.96 39.586C40.4795 38.9419 41.776 37.8684 42.6927 36.514C43.6093 35.1597 44.1378 33.5246 44.1378 31.7739V29.8911C44.1378 27.9422 43.7414 26.0841 43.023 24.3912C41.9494 21.856 40.1574 19.7006 37.903 18.1729C35.6485 16.6451 32.9234 15.7615 30 15.7615C28.0511 15.7615 26.193 16.1579 24.5001 16.8764C21.9649 17.9499 19.8096 19.7419 18.2818 21.9964C16.7623 24.2508 15.8705 26.976 15.8705 29.8993V31.7822C15.8705 32.4263 16.0026 33.0539 16.2421 33.6155C16.5972 34.466 17.2 35.1762 17.9515 35.6882C18.703 36.192 19.6114 36.4975 20.5858 36.4893C21.2299 36.4893 21.8576 36.3571 22.4191 36.1176C23.2697 35.7626 23.9799 35.1597 24.4919 34.4082C24.9956 33.6567 25.3012 32.7484 25.2929 31.7739V29.8911C25.2929 29.2387 25.425 28.6193 25.6645 28.0578C26.0196 27.2155 26.6225 26.4887 27.3739 25.985C28.1254 25.473 29.0256 25.184 30.0083 25.184C30.6607 25.184 31.28 25.3161 31.8416 25.5556C32.6839 25.9107 33.4106 26.5135 33.9143 27.265C34.4263 28.0165 34.7154 28.9166 34.7154 29.8993V31.7822C34.7154 32.3024 35.1365 32.7236 35.6568 32.7236C36.177 32.7236 36.5982 32.3024 36.5982 31.7822V29.8993C36.5982 28.9909 36.4165 28.1238 36.0779 27.3311C35.5742 26.1502 34.7401 25.1427 33.6914 24.4325C32.6426 23.7223 31.3626 23.3094 30 23.3094C29.0916 23.3094 28.2245 23.4911 27.4317 23.8297C26.2508 24.3334 25.2434 25.1675 24.5332 26.2162C23.823 27.265 23.4018 28.545 23.4101 29.9076V31.7904C23.4101 32.1868 23.3275 32.5502 23.1871 32.8887C22.9724 33.3925 22.6173 33.8302 22.1631 34.1357C21.7089 34.4413 21.1721 34.6147 20.5858 34.6147C20.1894 34.6147 19.8261 34.5321 19.4875 34.3917C18.9837 34.177 18.5461 33.8219 18.2405 33.3677C17.935 32.9135 17.7616 32.3767 17.7616 31.7904V29.9076C17.7616 28.2147 18.1001 26.6044 18.7277 25.1427C19.6527 22.946 21.2134 21.0715 23.1623 19.7502C25.1195 18.4289 27.473 17.6609 30.0083 17.6609C31.7012 17.6609 33.3115 18.0077 34.7732 18.6271C36.9698 19.552 38.8444 21.1127 40.1657 23.0617C41.487 25.0188 42.255 27.3724 42.255 29.9076V31.7904C42.255 32.7071 42.0733 33.5659 41.7347 34.3587C41.231 35.5396 40.3969 36.5471 39.3481 37.2573C38.2828 37.9509 37.0194 38.3638 35.6568 38.3638H20.5776C19.6609 38.3638 18.8021 38.1822 18.0093 37.8436C16.8284 37.3398 15.8209 36.5058 15.1107 35.457C14.4005 34.4 13.9876 33.1365 13.9876 31.7739V29.8911C13.9876 27.6779 14.4336 25.5721 15.2428 23.6562C16.4568 20.7824 18.4883 18.338 21.0483 16.6121C23.6083 14.8862 26.6803 13.8787 30 13.8787C32.2132 13.8787 34.319 14.3246 36.2348 15.1339C39.1087 16.3478 41.553 18.3793 43.279 20.9393C45.0049 23.4993 46.0124 26.5713 46.0124 29.8911V31.7739C46.0124 33.2108 45.7234 34.5651 45.1948 35.8038C44.4103 37.6619 43.0973 39.2475 41.4374 40.3623C39.7858 41.4771 37.7956 42.1295 35.6403 42.1295C34.9961 42.1295 34.3685 42.2617 33.807 42.5011C32.9564 42.8562 32.2462 43.4591 31.7342 44.2106C31.2305 44.962 30.9249 45.8704 30.9332 46.8449C30.9332 47.489 31.0653 48.1166 31.3048 48.6782C31.6599 49.5288 32.2627 50.2389 33.0142 50.7509C33.7657 51.2547 34.6741 51.5602 35.6485 51.552C38.3737 51.552 40.9832 50.9987 43.3533 49.9995C46.9043 48.4965 49.9267 45.986 52.0573 42.8315C54.1879 39.6769 55.4348 35.8617 55.4348 31.7657V29.8828C55.4348 26.3731 54.7247 23.0286 53.4364 19.9814C51.504 15.4147 48.2834 11.5334 44.2204 8.79171C40.1657 6.05003 35.2604 4.44797 30 4.44797C26.4903 4.44797 23.1458 5.15816 20.0986 6.44642C15.5319 8.37881 11.6506 11.5995 8.90891 15.6624C6.16723 19.7171 4.56517 24.6224 4.56517 29.8828V31.7657C4.56517 33.9706 5.0111 36.0846 5.82039 38.0005C7.03433 40.8743 9.06581 43.3187 11.6258 45.0446C14.1776 46.7706 17.2661 47.778 20.5776 47.778C21.0978 47.778 21.519 47.3569 21.519 46.8366C21.519 46.3164 21.0978 45.9035 20.5776 45.9035ZM35.6568 47.7863C37.8617 47.7863 39.9757 47.3404 41.8916 46.5311C44.7654 45.3171 47.2098 43.2856 48.9358 40.7257C50.6617 38.1739 51.6692 35.0854 51.6692 31.7739V29.8911C51.6692 26.9016 51.0663 24.0526 49.968 21.4596C48.3247 17.57 45.5747 14.2668 42.1146 11.9298C38.6545 9.59274 34.4841 8.23017 30 8.23017C27.0106 8.23017 24.1616 8.833 21.5685 9.93133C17.679 11.5747 14.3757 14.3246 12.0387 17.7847C9.70168 21.2449 8.3391 25.4152 8.3391 29.8993V31.7822C8.3391 33.4668 8.67768 35.0854 9.30529 36.5471C10.2385 38.7437 11.791 40.6183 13.7399 41.9313C15.697 43.2526 18.0588 44.0206 20.5858 44.0206C20.9822 44.0206 21.3456 44.1032 21.6841 44.2436C22.1879 44.4583 22.6256 44.8134 22.9311 45.2676C23.2367 45.7218 23.4101 46.2586 23.4101 46.8449C23.4101 47.2413 23.3275 47.6046 23.1871 47.9432C22.9724 48.4469 22.6173 48.8846 22.1631 49.1902C21.7089 49.4957 21.1721 49.6691 20.5858 49.6691C18.1084 49.6691 15.7631 49.1654 13.616 48.2653C10.4036 46.9109 7.6702 44.64 5.73781 41.7827C3.80542 38.9254 2.68233 35.4818 2.68233 31.7739V29.8911C2.68233 26.1171 3.45033 22.5249 4.82942 19.2547C6.9022 14.3494 10.3706 10.1791 14.7308 7.23094C19.0911 4.28281 24.3432 2.56513 30.0083 2.56513C33.7822 2.56513 37.3745 3.33313 40.6447 4.71223C45.5499 6.785 49.7203 10.2534 52.6684 14.6136C55.6165 18.9739 57.3342 24.226 57.3342 29.8911V31.7739C57.3342 34.7716 56.7314 37.6124 55.633 40.2054C53.9897 44.0949 51.2398 47.4064 47.7796 49.7435C44.3195 52.0805 40.1574 53.4431 35.665 53.4431C34.7484 53.4431 33.8896 53.2614 33.0968 52.9228C31.9159 52.4191 30.9084 51.585 30.1982 50.5362C29.488 49.4792 29.0751 48.2157 29.0751 46.8531V29.8828C29.0751 29.7507 29.0999 29.6268 29.1494 29.5195C29.2238 29.3543 29.3394 29.2057 29.488 29.1066C29.6367 29.0075 29.8183 28.9496 30.0165 28.9496C30.1487 28.9496 30.2725 28.9744 30.3799 29.024C30.545 29.0983 30.6937 29.2139 30.7928 29.3626C30.8919 29.5112 30.9497 29.6929 30.9497 29.8911V31.7739C30.9497 32.418 31.0818 33.0457 31.3213 33.6072C31.6764 34.4578 32.2792 35.168 33.0307 35.68C33.7822 36.1837 34.6906 36.4893 35.665 36.481C36.3092 36.481 36.9368 36.3489 37.4983 36.1094C38.3489 35.7543 39.0591 35.1515 39.5711 34.4C40.0748 33.6485 40.3804 32.7401 40.3721 31.7657V29.8828C40.3721 28.4542 40.0831 27.0916 39.5546 25.8446C38.7701 23.9866 37.457 22.401 35.7972 21.2862C34.1456 20.1713 32.1471 19.5189 30 19.5189C28.5714 19.5189 27.2088 19.808 25.9618 20.3365C24.1038 21.121 22.5182 22.434 21.4034 24.0939C20.2885 25.7455 19.6361 27.744 19.6361 29.8911V31.7739C19.6361 32.2942 20.0573 32.7153 20.5776 32.7153C21.0978 32.7153 21.519 32.2942 21.519 31.7739V29.8911C21.519 28.7184 21.7585 27.6036 22.1879 26.5878C22.832 25.0684 23.9056 23.7718 25.2599 22.8552C26.6142 21.9386 28.241 21.41 30 21.41C31.1727 21.41 32.2875 21.6495 33.3032 22.0789C34.8227 22.7231 36.1192 23.7966 37.0359 25.1509C37.9525 26.5053 38.481 28.1321 38.481 29.8911V31.7739C38.481 32.1703 38.3985 32.5337 38.2581 32.8722C38.0434 33.376 37.6883 33.8137 37.2341 34.1192C36.7799 34.4247 36.2431 34.5982 35.6568 34.5982C35.2604 34.5982 34.897 34.5156 34.5585 34.3752C34.0547 34.1605 33.617 33.8054 33.3115 33.3512C33.0059 32.897 32.8325 32.3602 32.8325 31.7739V29.8911C32.8325 29.5029 32.7499 29.1313 32.6096 28.7927C32.3948 28.2807 32.0398 27.8513 31.5856 27.554C31.1396 27.2485 30.5863 27.0668 30.0083 27.0668C29.6201 27.0668 29.2485 27.1494 28.9099 27.2898C28.3979 27.5045 27.9685 27.8596 27.6712 28.3138C27.3657 28.7597 27.184 29.313 27.184 29.8911V46.8531C27.184 48.0175 27.4235 49.1406 27.8529 50.1564C28.497 51.6758 29.5706 52.9724 30.9249 53.889C32.2792 54.8057 33.9143 55.3342 35.665 55.3342C38.9105 55.3342 42.0155 54.6735 44.8315 53.4844C49.0596 51.6924 52.6519 48.7112 55.1954 44.9538C57.7388 41.1964 59.217 36.6627 59.217 31.7822V29.8993C59.217 25.8694 58.3995 22.0294 56.9213 18.528C54.6999 13.2841 51.0003 8.82475 46.3427 5.67842C41.6852 2.5321 36.0614 0.690552 30.0165 0.690552C25.9866 0.690552 22.1466 1.5081 18.6452 2.98629C13.4013 5.20771 8.94194 8.90733 5.79562 13.5649C2.63278 18.2142 0.791229 23.8379 0.791229 29.8828V31.7657C0.791229 34.4908 1.34452 37.1004 2.34375 39.4704C3.84671 43.0214 6.35716 46.0438 9.51175 48.1744C12.6663 50.305 16.4816 51.552 20.5776 51.552C21.2217 51.552 21.8493 51.4198 22.4108 51.1804C23.2614 50.8253 23.9716 50.2224 24.4836 49.4709C24.9874 48.7195 25.2929 47.8111 25.2847 46.8366C25.2847 46.1925 25.1525 45.5649 24.913 45.0033C24.5579 44.1527 23.9551 43.4426 23.2036 42.9306C22.4521 42.4268 21.5437 42.1213 20.5693 42.1295C19.1324 42.1295 17.7781 41.8405 16.5394 41.312C14.6813 40.5275 13.0957 39.2144 11.9809 37.5546C10.8661 35.9029 10.2137 33.9127 10.2137 31.7574V29.8746C10.2137 27.1411 10.767 24.5398 11.7662 22.178C13.2692 18.6271 15.7796 15.6046 18.9342 13.474C22.097 11.3435 25.8958 10.0965 29.9917 10.0965C32.7252 10.0965 35.3265 10.6498 37.6965 11.649C41.2475 13.152 44.2699 15.6624 46.4005 18.817C48.5311 21.9798 49.7781 25.7786 49.7781 29.8746V31.7574C49.7781 33.7146 49.3817 35.5644 48.6715 37.2573C47.5979 39.7925 45.8059 41.9478 43.5515 43.4756C41.297 45.0033 38.5801 45.8869 35.6485 45.8869C35.1283 45.8869 34.7071 46.3081 34.7071 46.8284C34.7071 47.3486 35.1283 47.7863 35.6568 47.7863Z" fill="#FF7B00"/>
</svg>
