<svg viewBox="0 0 141 45" fill="none" xmlns="http://www.w3.org/2000/svg">
<g clip-path="url(#clip0_586_102)">
<path d="M16.1833 37.2414C14.5898 37.2414 13.0616 36.9126 11.6901 36.3209C9.61334 35.4398 7.83696 33.967 6.59611 32.0996C5.35526 30.2455 4.62381 28.0099 4.62381 25.6034V24.0517C4.62381 21.3691 5.15933 18.8179 6.13895 16.5035C7.60185 13.0187 10.0444 10.0599 13.1138 7.96902C16.1833 5.87814 19.8928 4.65517 23.8897 4.65517C26.5542 4.65517 29.0882 5.19433 31.387 6.1806C34.8484 7.65342 37.7872 10.1125 39.864 13.2028C41.9408 16.2931 43.1555 20.0278 43.1555 24.0517V25.6034C43.1555 27.6417 42.7506 29.5748 42.0061 31.3369C40.8959 33.9801 39.0411 36.2288 36.7031 37.82C34.3651 39.4112 31.5568 40.3317 28.5135 40.3317C28.1869 40.3317 27.8865 40.2659 27.6122 40.1476C27.1943 39.9766 26.8416 39.6742 26.5934 39.306C26.3453 38.9378 26.2016 38.4906 26.2016 38.0041C26.2016 37.6753 26.2669 37.3729 26.3844 37.0967C26.5542 36.6759 26.8547 36.3209 27.2204 36.071C27.5861 35.8212 28.0302 35.6765 28.5135 35.6765C29.898 35.6765 31.2172 35.4004 32.4189 34.8875C34.2214 34.1248 35.7496 32.8492 36.8207 31.2317C37.9048 29.6274 38.5317 27.6812 38.5317 25.5903V24.0386C38.5317 22.0003 38.1268 20.0672 37.3823 18.3051C36.2721 15.6619 34.4173 13.4132 32.0793 11.822C29.7413 10.2309 26.92 9.31034 23.8897 9.31034C21.8651 9.31034 19.9451 9.718 18.1948 10.4676C15.5694 11.5853 13.3359 13.4527 11.7554 15.8065C10.175 18.1604 9.26068 21.0009 9.26068 24.0517V25.6034C9.26068 26.5634 9.4566 27.4839 9.80926 28.3255C10.3317 29.5748 11.2199 30.64 12.3171 31.4027C13.4273 32.1522 14.7596 32.5994 16.1964 32.5994H28.5265C29.48 32.5994 30.3944 32.4021 31.2303 32.0471C32.4711 31.521 33.5291 30.6268 34.2867 29.5222C35.0312 28.4044 35.4753 27.0631 35.4753 25.6166V24.0649C35.4753 22.4605 35.1488 20.922 34.561 19.5412C33.6859 17.4503 32.223 15.675 30.3682 14.4258C28.5265 13.1765 26.293 12.4401 23.9027 12.4401C22.3092 12.4401 20.781 12.7688 19.4095 13.3606C17.3327 14.2417 15.5694 15.7145 14.3286 17.5818C13.0877 19.436 12.3563 21.6847 12.3563 24.0912V25.6429C12.3563 26.1821 12.4608 26.6949 12.6567 27.1552C12.944 27.8521 13.4404 28.4439 14.0543 28.8647C14.6682 29.2855 15.4127 29.5222 16.2094 29.5222C16.745 29.5222 17.2544 29.417 17.7115 29.2198C18.4038 28.9304 18.9916 28.4307 19.4095 27.8127C19.8275 27.1946 20.0626 26.4451 20.0626 25.6429V24.0912C20.0626 23.552 20.1671 23.0392 20.363 22.5789C20.6504 21.8819 21.1467 21.2902 21.7606 20.8694C22.3745 20.4486 23.119 20.2119 23.9158 20.2119C24.4513 20.2119 24.9607 20.3171 25.4179 20.5143C26.1101 20.8036 26.6979 21.3033 27.1159 21.9214C27.5339 22.5394 27.769 23.289 27.769 24.0912V25.6429C27.769 26.0769 28.1086 26.4188 28.5396 26.4188C28.9706 26.4188 29.3102 26.0769 29.3102 25.6429V24.0912C29.3102 23.3416 29.1535 22.6315 28.8923 21.974C28.4874 21.0009 27.7951 20.1724 26.933 19.5807C26.071 18.9889 25.026 18.647 23.9158 18.647C23.1713 18.647 22.466 18.8048 21.8129 19.0678C20.8463 19.4755 20.0234 20.1724 19.4357 21.0403C18.8479 21.9082 18.5083 22.9603 18.5083 24.078V25.6297C18.5083 25.9585 18.443 26.261 18.3254 26.5371C18.1556 26.9579 17.8552 27.313 17.4895 27.5628C17.1238 27.8127 16.6797 27.9573 16.1964 27.9573C15.8698 27.9573 15.5694 27.8916 15.2951 27.7732C14.8772 27.6023 14.5245 27.2998 14.2763 26.9316C14.0282 26.5634 13.8845 26.1163 13.8845 25.6297V24.078C13.8845 22.6841 14.1588 21.3559 14.6682 20.1593C15.4258 18.3445 16.6927 16.806 18.2993 15.7276C19.8928 14.6362 21.8259 14.005 23.9027 14.005C25.2873 14.005 26.6065 14.2811 27.7951 14.794C29.5976 15.5567 31.1258 16.8323 32.1968 18.4497C33.281 20.0541 33.9079 22.0003 33.9079 24.0912V25.6429C33.9079 26.3925 33.7512 27.1026 33.4899 27.7601C33.085 28.7332 32.3928 29.5617 31.5307 30.1534C30.6686 30.7452 29.6368 31.0739 28.5135 31.0739H16.1833C15.4388 31.0739 14.7335 30.9161 14.0804 30.6531C13.1138 30.2455 12.291 29.5485 11.7032 28.6806C11.1154 27.8127 10.7889 26.7738 10.7889 25.6429V24.0912C10.7889 22.2633 11.1546 20.5406 11.8208 18.9626C12.8134 16.5956 14.4723 14.5836 16.5621 13.1634C18.652 11.7431 21.1729 10.9147 23.8897 10.9147C25.7052 10.9147 27.4163 11.2829 28.9837 11.9535C31.3348 12.953 33.3332 14.623 34.7439 16.7271C36.1545 18.8311 36.9774 21.3691 36.9774 24.1043V25.656C36.9774 26.8396 36.7423 27.9573 36.3113 28.9831C35.6712 30.5085 34.5871 31.8235 33.2418 32.744C31.8834 33.6645 30.2637 34.2037 28.5004 34.2037C27.9649 34.2037 27.4555 34.3089 26.9983 34.5061C26.3061 34.7954 25.7183 35.2951 25.3003 35.9132C24.8824 36.5313 24.6472 37.2808 24.6472 38.083C24.6472 38.6222 24.7517 39.135 24.9477 39.5953C25.235 40.2922 25.7314 40.884 26.3453 41.3048C26.9591 41.7256 27.7037 41.9623 28.5004 41.9623C30.734 41.9623 32.863 41.502 34.7961 40.6867C37.6958 39.4506 40.1644 37.386 41.9147 34.7823C43.6649 32.1786 44.6837 29.0488 44.6837 25.6692V24.1175C44.6837 21.2244 44.096 18.476 43.051 15.9643C41.4706 12.2034 38.8321 9.00789 35.5145 6.74606C32.1969 4.48422 28.1869 3.1692 23.8766 3.1692C21.0031 3.1692 18.2732 3.76096 15.7784 4.81297C12.0559 6.3384 8.88189 8.99474 6.63529 12.3349C4.3887 15.675 3.08254 19.7122 3.08254 24.0517V25.6034C3.08254 27.4182 3.44826 29.154 4.11441 30.732C5.10709 33.0991 6.76591 35.111 8.85577 36.5313C10.9456 37.9515 13.4665 38.78 16.1833 38.78C16.6144 38.78 16.954 38.438 16.954 38.0041C16.954 37.5833 16.6013 37.2414 16.1833 37.2414ZM28.5135 38.7931C30.316 38.7931 32.0401 38.4249 33.6075 37.7542C35.9586 36.7548 37.957 35.0847 39.3677 32.9807C40.7783 30.8767 41.6012 28.3387 41.6012 25.6034V24.0517C41.6012 21.5926 41.1049 19.2387 40.2036 17.1084C38.8583 13.8998 36.6117 11.1777 33.7773 9.25774C30.956 7.33781 27.5339 6.2069 23.8636 6.2069C21.421 6.2069 19.083 6.7066 16.967 7.61397C13.8061 8.96844 11.1024 11.2303 9.19537 14.0707C7.28837 16.9112 6.16508 20.3565 6.16508 24.0517V25.6034C6.16508 26.9974 6.43937 28.3255 6.94877 29.5354C7.70635 31.3369 8.98638 32.8755 10.5799 33.967C12.1734 35.0584 14.1065 35.6897 16.1833 35.6897C16.5099 35.6897 16.8103 35.7554 17.0846 35.8738C17.5025 36.0447 17.8552 36.3472 18.1034 36.7154C18.3516 37.0836 18.4952 37.5307 18.4952 38.0172C18.4952 38.346 18.4299 38.6485 18.3124 38.9246C18.1426 39.3454 17.8421 39.7005 17.4764 39.9503C17.1107 40.2002 16.6666 40.3448 16.1833 40.3448C14.1588 40.3448 12.2387 39.9372 10.4885 39.1876C7.86308 38.0698 5.62955 36.2025 4.0491 33.8486C2.46864 31.4947 1.55433 28.6674 1.55433 25.6034V24.0517C1.55433 20.9483 2.18129 17.9895 3.30459 15.2937C5.00259 11.2566 7.83696 7.82437 11.4028 5.39158C14.9686 2.97195 19.2659 1.55172 23.8897 1.55172C26.9722 1.55172 29.9111 2.18293 32.5887 3.31385C36.5986 5.02338 40.0077 7.87697 42.4241 11.467C44.8274 15.057 46.2381 19.3834 46.2381 24.0386V25.5903C46.2381 28.0494 45.7417 30.4033 44.8405 32.5336C43.4951 35.7291 41.2485 38.4643 38.4142 40.3843C35.5798 42.3042 32.1838 43.4351 28.5004 43.4351C27.7559 43.4351 27.0506 43.2773 26.3975 43.0143C25.4309 42.6067 24.6081 41.9097 24.0203 41.0418C23.4325 40.1739 23.106 39.135 23.106 38.0041V24.0517C23.106 23.9465 23.1321 23.8413 23.1713 23.7493C23.2235 23.6046 23.328 23.4863 23.4456 23.4074C23.5631 23.3285 23.7199 23.2759 23.8766 23.2759C23.9811 23.2759 24.0856 23.3022 24.177 23.3416C24.3207 23.3942 24.4383 23.4994 24.5166 23.6178C24.595 23.7361 24.6472 23.8939 24.6472 24.0517V25.6034C24.6472 26.1426 24.7517 26.6555 24.9477 27.1157C25.235 27.8127 25.7314 28.4044 26.3453 28.8252C26.9591 29.2461 27.7037 29.4828 28.5004 29.4828C29.0359 29.4828 29.5453 29.3776 30.0025 29.1803C30.6948 28.891 31.2825 28.3913 31.7005 27.7732C32.1185 27.1552 32.3536 26.4056 32.3536 25.6034V24.0517C32.3536 22.8814 32.1185 21.7504 31.6875 20.7247C31.0474 19.1861 29.9633 17.8974 28.618 16.9769C27.2726 16.0564 25.6269 15.5172 23.8766 15.5172C22.7141 15.5172 21.5908 15.7539 20.572 16.1879C19.0438 16.8323 17.7638 17.9237 16.8495 19.2782C15.9352 20.6327 15.3996 22.2896 15.3996 24.0517V25.6034C15.3996 26.0374 15.7392 26.3793 16.1703 26.3793C16.6013 26.3793 16.9409 26.0374 16.9409 25.6034V24.0517C16.9409 23.0918 17.1368 22.1712 17.4895 21.3296C18.012 20.0804 18.9001 19.0152 19.9973 18.2525C21.1076 17.5029 22.4398 17.0558 23.8766 17.0558C24.8301 17.0558 25.7444 17.2531 26.5804 17.6081C27.8212 18.1341 28.8792 19.0283 29.6368 20.133C30.3813 21.2507 30.8254 22.5921 30.8254 24.0386V25.5903C30.8254 25.9191 30.7601 26.2215 30.6425 26.4977C30.4727 26.9185 30.1723 27.2735 29.8066 27.5234C29.4409 27.7732 28.9968 27.9179 28.5135 27.9179C28.1869 27.9179 27.8865 27.8521 27.6122 27.7338C27.1943 27.5628 26.8416 27.2604 26.5934 26.8922C26.3453 26.524 26.2016 26.0769 26.2016 25.5903V24.0386C26.2016 23.723 26.1363 23.4074 26.0187 23.1312C25.8489 22.7104 25.5485 22.3553 25.1828 22.1055C24.817 21.8556 24.3599 21.711 23.8897 21.711C23.5762 21.711 23.2627 21.7767 22.9884 21.8951C22.5705 22.066 22.2178 22.3685 21.9696 22.7367C21.7214 23.1049 21.5778 23.5652 21.5778 24.0386V38.0041C21.5778 38.9641 21.7737 39.8846 22.1264 40.7262C22.6488 41.9755 23.537 43.0406 24.6342 43.8033C25.7444 44.5529 27.0767 45 28.5135 45C31.165 45 33.712 44.4608 36.0108 43.4746C39.4722 42.0018 42.411 39.5427 44.4878 36.4524C46.5646 33.3621 47.7793 29.6274 47.7793 25.6034V24.0517C47.7793 20.7379 47.1132 17.5687 45.8985 14.6888C44.0829 10.3755 41.0526 6.7066 37.2517 4.10286C33.4246 1.51227 28.827 0 23.8897 0C20.5982 0 17.4503 0.67066 14.5898 1.89363C10.3056 3.72151 6.66142 6.75921 4.07522 10.5991C1.50208 14.4389 0 19.0678 0 24.0517V25.6034C0 27.8521 0.457156 29.9956 1.26698 31.9418C2.49477 34.8612 4.54544 37.3466 7.13164 39.1087C9.71783 40.8708 12.8265 41.8966 16.1833 41.8966C16.7189 41.8966 17.2283 41.7913 17.6854 41.5941C18.3777 41.3048 18.9654 40.8051 19.3834 40.187C19.8014 39.569 20.0365 38.8194 20.0365 38.0172C20.0365 37.4781 19.932 36.9652 19.7361 36.505C19.4487 35.808 18.9524 35.2162 18.3385 34.7954C17.7246 34.3746 16.9801 34.1379 16.1833 34.1379C15.0078 34.1379 13.8975 33.9012 12.8787 33.4673C11.3636 32.8229 10.0574 31.7314 9.14312 30.377C8.22881 29.0094 7.69328 27.3787 7.69328 25.6034V24.0517C7.69328 21.803 8.15044 19.6596 8.96026 17.7133C10.1881 14.794 12.2387 12.2954 14.8249 10.5465C17.4111 8.78434 20.5198 7.75862 23.8766 7.75862C26.1101 7.75862 28.2392 8.21888 30.1723 9.03419C33.072 10.2703 35.5537 12.3349 37.2909 14.9386C39.0411 17.5424 40.0599 20.6721 40.0599 24.0517V25.6034C40.0599 27.2078 39.7334 28.7463 39.1456 30.1271C38.2705 32.218 36.8076 33.9933 34.9529 35.2425C33.1112 36.4918 30.8907 37.2282 28.4874 37.2282C28.0563 37.2282 27.7167 37.5701 27.7167 38.0041C27.7428 38.438 28.0824 38.7931 28.5135 38.7931Z" fill="white"/>
<path d="M55.9028 6.55026C55.929 6.56341 55.9551 6.58971 55.9812 6.62916L58.2409 9.60111C58.2409 9.54851 58.2278 9.50906 58.2278 9.45645C58.2278 9.417 58.2278 9.3644 58.2278 9.32495V6.53711H58.698V10.469H58.4368C58.3976 10.469 58.3584 10.4559 58.3323 10.4427C58.3062 10.4296 58.28 10.4033 58.2539 10.3638L55.9943 7.40502C55.9943 7.44447 55.9943 7.49707 56.0073 7.53653C56.0073 7.57598 56.0073 7.61543 56.0073 7.65488V10.4559H55.5371V6.53711H55.8114C55.8506 6.53711 55.8767 6.53711 55.9028 6.55026Z" fill="white"/>
<path d="M61.5713 10.0472C61.728 10.0472 61.8717 10.0209 62.0023 9.96834C62.133 9.91574 62.2374 9.83684 62.3289 9.73164C62.4203 9.62644 62.4856 9.52123 62.5248 9.37658C62.577 9.24508 62.5901 9.08728 62.5901 8.92947V6.53614H63.1126V8.92947C63.1126 9.15303 63.0734 9.36343 63.0081 9.56068C62.9297 9.75794 62.8383 9.92889 62.6946 10.0604C62.564 10.205 62.3942 10.3102 62.2113 10.3891C62.0285 10.468 61.8195 10.5206 61.5713 10.5206C61.3231 10.5206 61.1141 10.4812 60.9182 10.4023C60.7223 10.3234 60.5656 10.205 60.4219 10.0735C60.2913 9.92889 60.1868 9.75794 60.1084 9.57383C60.03 9.37658 60.0039 9.16618 60.0039 8.94262V6.53614H60.5264V8.92947C60.5264 9.10043 60.5525 9.24508 60.5917 9.37658C60.6439 9.50808 60.7092 9.62644 60.7876 9.73164C60.879 9.83684 60.9835 9.90259 61.1141 9.96834C61.2709 10.0209 61.4146 10.0472 61.5713 10.0472ZM62.4987 5.57617L61.7019 6.16793C61.6758 6.19423 61.6497 6.20738 61.6235 6.20738C61.5974 6.22053 61.5713 6.22053 61.5321 6.22053H61.1533L61.728 5.66822C61.7411 5.65507 61.7672 5.62877 61.7803 5.62877C61.7933 5.61562 61.8064 5.60247 61.8325 5.60247C61.8456 5.58932 61.8717 5.58932 61.8848 5.58932C61.9109 5.58932 61.924 5.58932 61.9631 5.58932H62.4987V5.57617Z" fill="white"/>
<path d="M67.202 9.65266C67.2282 9.65266 67.2543 9.66581 67.2804 9.69212L67.4894 9.91567C67.3327 10.0998 67.1367 10.2444 66.9016 10.3496C66.6796 10.4548 66.3922 10.5074 66.0787 10.5074C65.7914 10.5074 65.5432 10.4548 65.3081 10.3628C65.073 10.2707 64.8771 10.1261 64.7203 9.95512C64.5636 9.78417 64.433 9.56061 64.3416 9.32391C64.2501 9.07406 64.2109 8.81105 64.2109 8.5086C64.2109 8.20614 64.2632 7.94314 64.3546 7.69328C64.446 7.44343 64.5897 7.23303 64.7595 7.06207C64.9293 6.87797 65.1383 6.74647 65.3865 6.65442C65.6216 6.56237 65.8959 6.50977 66.1832 6.50977C66.4706 6.50977 66.7188 6.54922 66.9278 6.64127C67.1367 6.73332 67.3196 6.85167 67.4894 7.00947L67.3065 7.23303C67.2935 7.24618 67.2804 7.27248 67.2674 7.27248C67.2543 7.28563 67.2282 7.28563 67.202 7.28563C67.1759 7.28563 67.1498 7.27248 67.1237 7.25933C67.0976 7.24618 67.0714 7.21988 67.0322 7.19358C66.9931 7.16728 66.9539 7.14098 66.9016 7.11468C66.8494 7.08837 66.7971 7.06207 66.7318 7.03577C66.6665 7.00947 66.5881 6.98317 66.4967 6.97002C66.4053 6.95687 66.3008 6.94372 66.1832 6.94372C65.9743 6.94372 65.7783 6.98317 65.6085 7.04892C65.4387 7.12783 65.282 7.21988 65.1644 7.35138C65.0338 7.48288 64.9424 7.65383 64.8771 7.83794C64.8118 8.03519 64.7726 8.24559 64.7726 8.4823C64.7726 8.73215 64.8118 8.94255 64.8771 9.13981C64.9424 9.33706 65.0469 9.49486 65.1644 9.62636C65.282 9.75787 65.4257 9.86307 65.5955 9.92882C65.7653 9.99457 65.9351 10.034 66.131 10.034C66.2485 10.034 66.353 10.0209 66.4445 10.0077C66.5359 9.99457 66.6273 9.96827 66.7057 9.94197C66.7841 9.91567 66.8624 9.87622 66.9278 9.83677C66.9931 9.79732 67.0584 9.74472 67.1367 9.67897C67.1367 9.66582 67.1629 9.65266 67.202 9.65266Z" fill="white"/>
<path d="M69.0297 10.0219H70.7146V10.469H68.4941V6.53711H69.0297V10.0219Z" fill="white"/>
<path d="M74.085 6.53711V6.97107H72.2041V8.27294H73.7192V8.69374H72.2041V10.0351H74.085V10.469H71.6816V6.53711H74.085Z" fill="white"/>
<path d="M78.669 8.49636C78.669 8.78566 78.6167 9.06182 78.5253 9.31167C78.4339 9.56152 78.3032 9.77193 78.1334 9.94288C77.9636 10.127 77.7547 10.2585 77.5195 10.3505C77.2844 10.4426 77.0232 10.4952 76.7359 10.4952C76.4485 10.4952 76.1873 10.4426 75.9522 10.3505C75.717 10.2585 75.5081 10.1138 75.3383 9.94288C75.1685 9.75878 75.0378 9.54837 74.9464 9.31167C74.855 9.06182 74.8027 8.79881 74.8027 8.49636C74.8027 8.20705 74.855 7.9309 74.9464 7.68104C75.0378 7.43119 75.1685 7.22079 75.3383 7.04983C75.5081 6.86573 75.704 6.73423 75.9522 6.62903C76.1873 6.52383 76.4485 6.48438 76.7359 6.48438C77.0232 6.48438 77.2844 6.53698 77.5195 6.62903C77.7547 6.73423 77.9636 6.86573 78.1334 7.04983C78.3032 7.23394 78.4339 7.44434 78.5253 7.68104C78.6298 7.9309 78.669 8.20705 78.669 8.49636ZM78.1334 8.49636C78.1334 8.25965 78.0943 8.0361 78.029 7.83885C77.9636 7.64159 77.8722 7.48379 77.7547 7.35229C77.6371 7.22079 77.4934 7.11559 77.3236 7.04983C77.1538 6.98408 76.9579 6.94463 76.7489 6.94463C76.5399 6.94463 76.344 6.98408 76.1742 7.04983C76.0044 7.11559 75.8607 7.22079 75.7301 7.35229C75.6126 7.48379 75.5211 7.64159 75.4558 7.83885C75.3905 8.0361 75.3513 8.2465 75.3513 8.49636C75.3513 8.73306 75.3905 8.95661 75.4558 9.14072C75.5211 9.33797 75.6126 9.49577 75.7301 9.62727C75.8477 9.75878 75.9913 9.86398 76.1742 9.92973C76.344 9.99548 76.5399 10.0349 76.7489 10.0349C76.9579 10.0349 77.1538 9.99548 77.3236 9.92973C77.4934 9.86398 77.6371 9.75878 77.7547 9.62727C77.8722 9.49577 77.9636 9.33797 78.029 9.14072C78.0943 8.95661 78.1334 8.74621 78.1334 8.49636Z" fill="white"/>
<path d="M84.8472 8.49649C84.8472 8.78579 84.7949 9.06195 84.7035 9.29865C84.6121 9.53536 84.4815 9.74576 84.3117 9.91671C84.1419 10.0877 83.9459 10.2192 83.6978 10.3112C83.4627 10.4033 83.2014 10.4559 82.9141 10.4559H81.4512V6.53711H82.9141C83.2014 6.53711 83.4627 6.58971 83.6978 6.68176C83.9329 6.77381 84.1419 6.90532 84.3117 7.07627C84.4815 7.24722 84.6121 7.45762 84.7035 7.69433C84.808 7.94418 84.8472 8.20719 84.8472 8.49649ZM84.3117 8.49649C84.3117 8.25979 84.2725 8.03623 84.2072 7.85213C84.1419 7.66803 84.0504 7.49707 83.9329 7.36557C83.8153 7.23407 83.6716 7.12887 83.5018 7.06312C83.332 6.99737 83.1361 6.95792 82.9271 6.95792H81.9998V10.0351H82.9271C83.1361 10.0351 83.332 9.99561 83.5018 9.92986C83.6716 9.86411 83.8153 9.75891 83.9329 9.62741C84.0504 9.49591 84.1419 9.3381 84.2072 9.14085C84.2725 8.9436 84.3117 8.74634 84.3117 8.49649Z" fill="white"/>
<path d="M88.3877 6.53711V6.97107H86.5068V8.27294H88.022V8.69374H86.5068V10.0351H88.3877V10.469H85.9844V6.53711H88.3877Z" fill="white"/>
<path d="M91.8343 10.469H91.2988V6.53711H91.8343V10.469Z" fill="white"/>
<path d="M93.6118 6.55026C93.6379 6.56341 93.6641 6.58971 93.6902 6.62916L95.9498 9.60111C95.9498 9.54851 95.9368 9.50906 95.9368 9.45645C95.9368 9.417 95.9368 9.3644 95.9368 9.32495V6.53711H96.407V10.469H96.1458C96.1066 10.469 96.0674 10.4559 96.0413 10.4427C96.0152 10.4296 95.989 10.4033 95.9629 10.3638L93.7032 7.40502C93.7032 7.44447 93.7033 7.49707 93.7163 7.53653C93.7163 7.57598 93.7163 7.61543 93.7163 7.65488V10.4559H93.2461V6.53711H93.5204C93.5465 6.53711 93.5857 6.53711 93.6118 6.55026Z" fill="white"/>
<path d="M97.3086 6.53711H97.7266C97.7788 6.53711 97.818 6.55026 97.8441 6.57656C97.8702 6.60286 97.8964 6.62916 97.9094 6.66861L99.0197 9.4433C99.0458 9.50906 99.0719 9.57481 99.085 9.64056C99.098 9.70631 99.1242 9.78521 99.1503 9.86411C99.1633 9.78521 99.1895 9.70631 99.2025 9.64056C99.2156 9.56166 99.2417 9.49591 99.2678 9.4433L100.365 6.66861C100.391 6.62916 100.404 6.60286 100.443 6.57656C100.47 6.55026 100.509 6.53711 100.561 6.53711H100.992L99.3984 10.469H98.9152L97.3086 6.53711Z" fill="white"/>
<path d="M104.296 6.53711V6.97107H102.415V8.27294H103.93V8.69374H102.415V10.0351H104.296V10.469H101.893V6.53711H104.296Z" fill="white"/>
<path d="M107.497 7.14189C107.484 7.16819 107.458 7.19449 107.445 7.20764C107.432 7.22079 107.406 7.23394 107.379 7.23394C107.353 7.23394 107.314 7.22079 107.275 7.18134C107.236 7.14189 107.183 7.11559 107.118 7.07613C107.053 7.03668 106.974 7.01038 106.896 6.97093C106.805 6.94463 106.7 6.91833 106.57 6.91833C106.452 6.91833 106.348 6.93148 106.256 6.97093C106.165 6.99723 106.086 7.04983 106.034 7.10243C105.969 7.15504 105.93 7.22079 105.89 7.29969C105.864 7.37859 105.838 7.45749 105.838 7.53639C105.838 7.64159 105.864 7.73364 105.917 7.81255C105.969 7.89145 106.047 7.94405 106.125 7.99665C106.217 8.04925 106.308 8.0887 106.426 8.12815C106.543 8.1676 106.648 8.20705 106.766 8.2465C106.883 8.28595 107.001 8.33855 107.105 8.378C107.223 8.43061 107.314 8.49636 107.406 8.57526C107.497 8.65416 107.562 8.74621 107.615 8.86456C107.667 8.96976 107.693 9.11442 107.693 9.27222C107.693 9.44317 107.667 9.60097 107.601 9.75878C107.549 9.90343 107.458 10.0349 107.34 10.1533C107.223 10.2585 107.092 10.3505 106.922 10.4163C106.766 10.482 106.57 10.5083 106.361 10.5083C106.112 10.5083 105.877 10.4557 105.668 10.3637C105.459 10.2716 105.276 10.1401 105.133 9.98233L105.29 9.73248C105.303 9.70618 105.316 9.69302 105.342 9.67987C105.368 9.66672 105.381 9.65357 105.407 9.65357C105.446 9.65357 105.485 9.67987 105.538 9.71933C105.59 9.75878 105.642 9.81138 105.721 9.85083C105.799 9.90343 105.877 9.94288 105.982 9.98233C106.086 10.0218 106.217 10.0481 106.361 10.0481C106.491 10.0481 106.596 10.0349 106.7 9.99548C106.805 9.95603 106.883 9.91658 106.948 9.85083C107.014 9.78508 107.066 9.70618 107.105 9.62727C107.144 9.53522 107.157 9.44317 107.157 9.33797C107.157 9.21962 107.131 9.12757 107.079 9.04867C107.027 8.96976 106.948 8.90401 106.87 8.85141C106.779 8.79881 106.687 8.75936 106.57 8.71991C106.452 8.68046 106.348 8.65416 106.23 8.61471C106.112 8.57526 105.995 8.53581 105.89 8.48321C105.773 8.43061 105.681 8.36485 105.59 8.28595C105.499 8.20705 105.433 8.115 105.381 7.99665C105.329 7.8783 105.303 7.73364 105.303 7.56269C105.303 7.41804 105.329 7.28654 105.381 7.15504C105.433 7.02353 105.512 6.90518 105.616 6.81313C105.721 6.70793 105.838 6.62903 105.995 6.57643C106.139 6.51068 106.321 6.48438 106.517 6.48438C106.739 6.48438 106.935 6.52383 107.118 6.58958C107.301 6.65533 107.458 6.76053 107.588 6.89203L107.497 7.14189Z" fill="white"/>
<path d="M111.546 6.53711V6.98422H110.279V10.469H109.744V6.98422H108.477V6.53711H111.546Z" fill="white"/>
<path d="M113.047 10.469H112.512V6.53711H113.047V10.469Z" fill="white"/>
<path d="M116.195 10.0866C116.299 10.0866 116.391 10.0866 116.482 10.0735C116.574 10.0603 116.652 10.0472 116.73 10.034C116.809 10.0077 116.887 9.99457 116.953 9.95512C117.018 9.92882 117.096 9.88937 117.162 9.86307V8.982H116.561C116.521 8.982 116.495 8.96885 116.482 8.9557C116.456 8.9294 116.456 8.91625 116.456 8.8768V8.57435H117.658V10.0866C117.553 10.1524 117.462 10.2181 117.357 10.2707C117.253 10.3233 117.135 10.3628 117.018 10.4022C116.9 10.4417 116.77 10.468 116.626 10.4811C116.482 10.4943 116.339 10.5074 116.182 10.5074C115.895 10.5074 115.633 10.4548 115.398 10.3628C115.15 10.2707 114.941 10.1261 114.771 9.95512C114.601 9.78417 114.471 9.56061 114.366 9.32391C114.275 9.07406 114.223 8.81105 114.223 8.5086C114.223 8.20614 114.275 7.92999 114.366 7.69328C114.458 7.44343 114.588 7.23303 114.771 7.06207C114.941 6.89112 115.15 6.74647 115.398 6.65442C115.646 6.56237 115.921 6.50977 116.221 6.50977C116.378 6.50977 116.521 6.52292 116.652 6.54922C116.783 6.57552 116.913 6.60182 117.018 6.65442C117.135 6.69387 117.24 6.74647 117.331 6.81222C117.423 6.87797 117.514 6.94372 117.606 7.02262L117.462 7.23303C117.436 7.28563 117.397 7.31193 117.344 7.31193C117.318 7.31193 117.279 7.29878 117.253 7.28563C117.214 7.25933 117.162 7.23303 117.096 7.19358C117.044 7.15413 116.966 7.12783 116.887 7.08837C116.809 7.04892 116.704 7.02262 116.6 6.99632C116.495 6.97002 116.365 6.95687 116.208 6.95687C115.986 6.95687 115.79 6.99632 115.607 7.06207C115.424 7.14098 115.281 7.23303 115.15 7.37768C115.019 7.50918 114.928 7.68013 114.863 7.86424C114.797 8.06149 114.758 8.27189 114.758 8.5086C114.758 8.75845 114.797 8.982 114.863 9.17926C114.928 9.37651 115.032 9.53431 115.163 9.67897C115.294 9.81047 115.437 9.91567 115.62 9.99457C115.803 10.0735 115.986 10.0866 116.195 10.0866Z" fill="white"/>
<path d="M122.112 10.469H121.707C121.655 10.469 121.616 10.4559 121.59 10.4296C121.564 10.4033 121.538 10.377 121.525 10.3375L121.159 9.3907H119.409L119.043 10.3375C119.03 10.377 119.004 10.4033 118.978 10.4296C118.938 10.4559 118.899 10.469 118.86 10.469H118.455L120.022 6.53711H120.558L122.112 10.469ZM119.552 9.00935H121.015L120.401 7.40502C120.362 7.29982 120.323 7.18147 120.284 7.03682C120.258 7.11572 120.245 7.18147 120.231 7.24722C120.192 7.29982 120.179 7.36557 120.166 7.40502L119.552 9.00935Z" fill="white"/>
<path d="M125.6 9.65266C125.627 9.65266 125.653 9.66581 125.679 9.69212L125.888 9.91567C125.731 10.0998 125.535 10.2444 125.3 10.3496C125.078 10.4548 124.791 10.5074 124.477 10.5074C124.19 10.5074 123.942 10.4548 123.707 10.3628C123.471 10.2707 123.276 10.1261 123.119 9.95512C122.962 9.78417 122.831 9.56061 122.74 9.32391C122.649 9.07406 122.609 8.81105 122.609 8.5086C122.609 8.20614 122.662 7.94314 122.753 7.69328C122.844 7.44343 122.988 7.23303 123.158 7.06207C123.328 6.87797 123.537 6.74647 123.785 6.65442C124.02 6.56237 124.294 6.50977 124.582 6.50977C124.869 6.50977 125.117 6.54922 125.326 6.64127C125.535 6.73332 125.718 6.85167 125.888 7.00947L125.718 7.23303C125.705 7.24618 125.692 7.27248 125.679 7.27248C125.666 7.28563 125.64 7.28563 125.614 7.28563C125.587 7.28563 125.561 7.27248 125.535 7.25933C125.509 7.24618 125.483 7.21988 125.444 7.19358C125.405 7.16728 125.365 7.14098 125.313 7.11468C125.261 7.08837 125.209 7.06207 125.143 7.03577C125.078 7.00947 125 6.98317 124.908 6.97002C124.817 6.95687 124.712 6.94372 124.595 6.94372C124.386 6.94372 124.19 6.98317 124.02 7.04892C123.837 7.12783 123.68 7.23303 123.563 7.36453C123.432 7.49603 123.341 7.66698 123.276 7.85109C123.21 8.04834 123.171 8.25874 123.171 8.49545C123.171 8.7453 123.21 8.9557 123.276 9.15296C123.341 9.35021 123.445 9.50801 123.563 9.63951C123.68 9.77102 123.824 9.87622 123.994 9.94197C124.164 10.0077 124.333 10.0472 124.529 10.0472C124.647 10.0472 124.751 10.034 124.843 10.0209C124.934 10.0077 125.026 9.98142 125.104 9.95512C125.183 9.92882 125.261 9.88937 125.326 9.84992C125.391 9.81047 125.457 9.75787 125.535 9.69212C125.548 9.66581 125.574 9.65266 125.6 9.65266Z" fill="white"/>
<path d="M127.481 10.469H126.945V6.53711H127.481V10.469Z" fill="white"/>
<path d="M132.509 8.49552C132.509 8.78482 132.457 9.06098 132.365 9.31083C132.274 9.56068 132.143 9.77109 131.973 9.94204C131.803 10.1261 131.595 10.2576 131.359 10.3497C131.124 10.4417 130.863 10.4943 130.576 10.4943C130.288 10.4943 130.027 10.4417 129.792 10.3497C129.557 10.2576 129.348 10.113 129.178 9.94204C129.008 9.75794 128.878 9.54753 128.786 9.31083C128.695 9.06098 128.643 8.79797 128.643 8.49552C128.643 8.20621 128.695 7.93006 128.786 7.68021C128.878 7.43035 129.008 7.21995 129.178 7.049C129.348 6.86489 129.544 6.73339 129.792 6.62819C130.027 6.52299 130.288 6.48354 130.576 6.48354C130.863 6.48354 131.124 6.53614 131.359 6.62819C131.595 6.72024 131.803 6.86489 131.973 7.049C132.143 7.2331 132.274 7.4435 132.365 7.68021C132.47 7.93006 132.509 8.20621 132.509 8.49552ZM131.973 8.49552C131.973 8.25881 131.934 8.03526 131.869 7.83801C131.803 7.64075 131.712 7.48295 131.595 7.35145C131.477 7.21995 131.333 7.11475 131.163 7.049C130.994 6.98324 130.798 6.94379 130.589 6.94379C130.38 6.94379 130.184 6.98324 130.014 7.049C129.844 7.1279 129.701 7.2331 129.57 7.3646C129.452 7.4961 129.361 7.6539 129.296 7.85116C129.23 8.04841 129.191 8.25881 129.191 8.50867C129.191 8.74537 129.23 8.96892 129.296 9.15303C129.361 9.35028 129.452 9.50808 129.57 9.63959C129.688 9.77109 129.831 9.87629 130.014 9.94204C130.184 10.0078 130.38 10.0472 130.589 10.0472C130.798 10.0472 130.994 10.0078 131.163 9.94204C131.333 9.87629 131.477 9.77109 131.595 9.63959C131.712 9.50808 131.803 9.35028 131.869 9.15303C131.934 8.95577 131.973 8.74537 131.973 8.49552ZM131.516 5.57617L130.719 6.16793C130.693 6.19423 130.667 6.20738 130.641 6.20738C130.615 6.20738 130.589 6.22053 130.55 6.22053H130.171L130.745 5.66822C130.759 5.65507 130.785 5.62877 130.798 5.62877C130.811 5.61562 130.824 5.60247 130.85 5.60247C130.863 5.58932 130.889 5.58932 130.902 5.58932C130.928 5.58932 130.941 5.58932 130.981 5.58932H131.516V5.57617Z" fill="white"/>
<path d="M134.01 6.55026C134.036 6.56341 134.063 6.58971 134.089 6.62916L136.348 9.60111C136.348 9.54851 136.335 9.50906 136.335 9.45645C136.335 9.417 136.335 9.3644 136.335 9.32495V6.53711H136.805V10.469H136.544C136.505 10.469 136.466 10.4559 136.44 10.4427C136.414 10.4296 136.387 10.4033 136.361 10.3638L134.102 7.40502C134.102 7.44447 134.102 7.49707 134.115 7.53653C134.115 7.57598 134.115 7.61543 134.115 7.65488V10.4559H133.645V6.53711H133.919C133.958 6.53711 133.997 6.53711 134.01 6.55026Z" fill="white"/>
<path d="M64.7075 26.1544H62.8266C62.6176 26.1544 62.4478 26.1018 62.3041 26.0098C62.1735 25.9046 62.069 25.7862 62.0168 25.6284L61.4029 23.7874H57.4321L56.8183 25.6284C56.766 25.7599 56.6746 25.8914 56.544 25.9966C56.4003 26.1018 56.2305 26.1544 56.0346 26.1544H54.1406L58.1897 15.6211H60.6714L64.7075 26.1544ZM57.9938 22.1304H60.8543L59.8877 19.2506C59.8224 19.0664 59.7571 18.856 59.6657 18.6062C59.5873 18.3563 59.4959 18.0933 59.4175 17.804C59.3391 18.0933 59.2608 18.3695 59.1824 18.6193C59.104 18.8692 59.0257 19.0927 58.9473 19.2637L57.9938 22.1304Z" fill="white"/>
<path d="M70.9252 20.4478C70.8599 20.5267 70.7946 20.5924 70.7293 20.645C70.664 20.6976 70.5725 20.7108 70.468 20.7108C70.3636 20.7108 70.2591 20.6845 70.1676 20.6319C70.0762 20.5793 69.9848 20.5135 69.8672 20.4609C69.7627 20.3952 69.6321 20.3426 69.4754 20.29C69.3317 20.2374 69.1488 20.2111 68.9268 20.2111C68.6525 20.2111 68.4174 20.2637 68.2215 20.3689C68.0255 20.4741 67.8557 20.6187 67.7251 20.8028C67.5945 20.987 67.5031 21.2237 67.4378 21.4867C67.3725 21.7628 67.3463 22.0653 67.3463 22.4072C67.3463 23.1304 67.49 23.6827 67.7643 24.0641C68.0386 24.4455 68.4174 24.6427 68.9007 24.6427C69.1619 24.6427 69.3578 24.6164 69.5146 24.5507C69.6713 24.4849 69.7888 24.4192 69.8933 24.3403C69.9978 24.2614 70.0893 24.1825 70.1807 24.1167C70.2721 24.051 70.3766 24.0115 70.5203 24.0115C70.7032 24.0115 70.8338 24.0773 70.9252 24.2088L71.5783 24.9846C71.3432 25.2476 71.1081 25.4712 70.8468 25.629C70.5987 25.7999 70.3374 25.9314 70.0631 26.0235C69.7888 26.1155 69.5276 26.1813 69.2664 26.2207C68.9921 26.2602 68.7439 26.2733 68.4827 26.2733C68.0255 26.2733 67.5945 26.1813 67.1765 26.0103C66.7586 25.8394 66.3928 25.5895 66.0794 25.2608C65.7659 24.932 65.5177 24.5244 65.3348 24.0378C65.152 23.5512 65.0605 23.0121 65.0605 22.394C65.0605 21.8549 65.1389 21.3552 65.2957 20.8818C65.4524 20.4083 65.6875 20.0007 66.001 19.6588C66.3145 19.3169 66.7063 19.0407 67.1635 18.8435C67.6206 18.6462 68.1561 18.541 68.77 18.541C69.3578 18.541 69.8672 18.6331 70.3113 18.8172C70.7554 19.0013 71.1473 19.2774 71.4999 19.6456L70.9252 20.4478Z" fill="white"/>
<path d="M77.8998 20.4478C77.8345 20.5267 77.7692 20.5924 77.7039 20.645C77.6386 20.6976 77.5472 20.7108 77.4427 20.7108C77.3382 20.7108 77.2337 20.6845 77.1422 20.6319C77.0508 20.5793 76.9594 20.5135 76.8418 20.4609C76.7373 20.3952 76.6067 20.3426 76.45 20.29C76.3063 20.2374 76.1234 20.2111 75.9014 20.2111C75.6271 20.2111 75.392 20.2637 75.1961 20.3689C75.0001 20.4741 74.8303 20.6187 74.6997 20.8028C74.5691 20.987 74.4777 21.2237 74.4124 21.4867C74.3471 21.7628 74.3209 22.0653 74.3209 22.4072C74.3209 23.1304 74.4646 23.6827 74.7389 24.0641C75.0132 24.4455 75.392 24.6427 75.8753 24.6427C76.1365 24.6427 76.3324 24.6164 76.4892 24.5507C76.6459 24.4849 76.7635 24.4192 76.8679 24.3403C76.9724 24.2614 77.0639 24.1825 77.1553 24.1167C77.2467 24.051 77.3512 24.0115 77.4949 24.0115C77.6778 24.0115 77.8084 24.0773 77.8998 24.2088L78.5529 24.9846C78.3178 25.2476 78.0827 25.4712 77.8214 25.629C77.5733 25.7999 77.312 25.9314 77.0377 26.0235C76.7765 26.1155 76.5022 26.1813 76.241 26.2207C75.9667 26.2602 75.7185 26.2733 75.4573 26.2733C75.0001 26.2733 74.5691 26.1813 74.1511 26.0103C73.7332 25.8394 73.3674 25.5895 73.054 25.2608C72.7405 24.932 72.4923 24.5244 72.3094 24.0378C72.1266 23.5512 72.0352 23.0121 72.0352 22.394C72.0352 21.8549 72.1135 21.3552 72.2703 20.8818C72.427 20.4083 72.6621 20.0007 72.9756 19.6588C73.2891 19.3169 73.6809 19.0407 74.1381 18.8435C74.5952 18.6462 75.1308 18.541 75.7447 18.541C76.3324 18.541 76.8418 18.6331 77.2859 18.8172C77.73 19.0013 78.1219 19.2774 78.4745 19.6456L77.8998 20.4478Z" fill="white"/>
<path d="M82.7068 18.5547C83.2032 18.5547 83.6472 18.6336 84.0652 18.7914C84.4701 18.9492 84.8228 19.1727 85.1232 19.4621C85.4236 19.7514 85.6457 20.1196 85.8155 20.5404C85.9853 20.9612 86.0636 21.4477 86.0636 21.9869C86.0636 22.1578 86.0506 22.2893 86.0375 22.3945C86.0245 22.4998 85.9983 22.5786 85.9591 22.6444C85.92 22.7102 85.8677 22.7496 85.8024 22.7759C85.7371 22.8022 85.6587 22.8154 85.5542 22.8154H81.257C81.3223 23.4466 81.5182 23.8937 81.8186 24.183C82.119 24.4591 82.5239 24.6038 83.0072 24.6038C83.2685 24.6038 83.4905 24.5775 83.6734 24.5117C83.8562 24.446 84.026 24.3802 84.1697 24.3013C84.3134 24.2224 84.444 24.1567 84.5746 24.0909C84.6922 24.0252 84.8228 23.9989 84.9534 23.9989C85.1363 23.9989 85.2669 24.0646 85.3583 24.1961L85.9983 24.9851C85.7632 25.2481 85.515 25.4717 85.2538 25.6295C84.9926 25.8005 84.7183 25.932 84.4309 26.024C84.1436 26.1161 83.8693 26.1818 83.595 26.2213C83.3207 26.2607 83.0464 26.2739 82.7982 26.2739C82.2758 26.2739 81.7925 26.1818 81.3353 26.0109C80.8782 25.8399 80.4733 25.59 80.1337 25.2481C79.7941 24.9062 79.5198 24.4854 79.3239 23.9857C79.1279 23.486 79.0234 22.9074 79.0234 22.2367C79.0234 21.737 79.1149 21.2636 79.2847 20.8165C79.4545 20.3694 79.7026 19.9749 80.0161 19.633C80.3296 19.2911 80.7214 19.0281 81.1655 18.8308C81.6227 18.6467 82.1321 18.5547 82.7068 18.5547ZM82.746 20.0933C82.315 20.0933 81.9884 20.2116 81.7533 20.4615C81.5182 20.7113 81.3615 21.0532 81.2831 21.5135H84.0652C84.0652 21.3294 84.0391 21.1584 83.9999 20.9875C83.9607 20.8165 83.8824 20.6719 83.7779 20.5404C83.6734 20.4089 83.5428 20.3037 83.373 20.2248C83.1901 20.1327 82.9811 20.0933 82.746 20.0933Z" fill="white"/>
<path d="M91.8752 20.3037C91.8229 20.3957 91.7576 20.4615 91.6923 20.5009C91.627 20.5404 91.5486 20.5535 91.4441 20.5535C91.3396 20.5535 91.2351 20.5272 91.1306 20.4878C91.0261 20.4483 90.9086 20.3957 90.791 20.3431C90.6735 20.2905 90.5298 20.2379 90.3731 20.1985C90.2163 20.159 90.0465 20.1327 89.8506 20.1327C89.5633 20.1327 89.3543 20.1853 89.1975 20.2905C89.0408 20.3957 88.9755 20.5535 88.9755 20.7376C88.9755 20.8823 89.0277 20.9875 89.1192 21.0795C89.2237 21.1716 89.3412 21.2505 89.511 21.3162C89.6677 21.382 89.8637 21.4477 90.0596 21.5135C90.2686 21.5792 90.4776 21.645 90.6866 21.7239C90.8955 21.8028 91.1176 21.8948 91.3135 22C91.5225 22.1052 91.7054 22.2367 91.8621 22.3814C92.0188 22.5392 92.1494 22.7233 92.2539 22.9337C92.3584 23.1441 92.3976 23.4071 92.3976 23.7096C92.3976 24.0778 92.3323 24.4197 92.2017 24.7353C92.0711 25.0509 91.8621 25.3139 91.6009 25.5506C91.3396 25.7742 91.0131 25.9583 90.6212 26.0766C90.2294 26.2081 89.7853 26.2607 89.2759 26.2607C89.0277 26.2607 88.7665 26.2344 88.5183 26.195C88.2702 26.1424 88.022 26.0766 87.7869 25.9977C87.5518 25.9188 87.3297 25.8136 87.1338 25.7084C86.9379 25.59 86.755 25.4717 86.6113 25.3402L87.1338 24.5117C87.1991 24.4197 87.2644 24.3408 87.3558 24.2882C87.4473 24.2356 87.5518 24.2093 87.6954 24.2093C87.8261 24.2093 87.9436 24.2356 88.0481 24.3013C88.1526 24.3539 88.2571 24.4197 88.3877 24.4854C88.5053 24.5512 88.6489 24.6169 88.8057 24.6695C88.9624 24.7221 89.1714 24.7616 89.4065 24.7616C89.5763 24.7616 89.72 24.7484 89.8506 24.709C89.9682 24.6695 90.0596 24.6169 90.138 24.5643C90.2033 24.4986 90.2686 24.4328 90.2947 24.3539C90.3339 24.275 90.3469 24.1961 90.3469 24.1172C90.3469 23.9726 90.2947 23.8411 90.1902 23.749C90.0857 23.657 89.9551 23.5649 89.7984 23.4992C89.6416 23.4334 89.4457 23.3677 89.2367 23.3019C89.0277 23.2362 88.8187 23.1704 88.5967 23.0915C88.3877 23.0126 88.1657 22.9206 87.9567 22.8154C87.7477 22.7102 87.5648 22.5655 87.395 22.4077C87.2383 22.2367 87.0946 22.0395 87.0032 21.8028C86.8987 21.5661 86.8464 21.2768 86.8464 20.9217C86.8464 20.6061 86.9117 20.3037 87.0293 20.0144C87.1469 19.7251 87.3297 19.4752 87.5779 19.2648C87.8261 19.0544 88.1265 18.8703 88.4922 18.7519C88.8579 18.6204 89.289 18.5547 89.7853 18.5547C90.0596 18.5547 90.3078 18.581 90.569 18.6204C90.8172 18.673 91.0523 18.7388 91.2743 18.8177C91.4964 18.9097 91.6923 19.0018 91.8752 19.1201C92.058 19.2385 92.2148 19.37 92.3584 19.5015L91.8752 20.3037Z" fill="white"/>
<path d="M96.1991 16.608C96.1991 16.7921 96.1599 16.9499 96.0946 17.1077C96.0293 17.2655 95.9248 17.397 95.7942 17.5154C95.6636 17.6337 95.5199 17.7258 95.3632 17.7915C95.1934 17.8573 95.0236 17.8967 94.8407 17.8967C94.6578 17.8967 94.488 17.8573 94.3313 17.7915C94.1746 17.7258 94.0309 17.6337 93.9133 17.5154C93.7958 17.397 93.6913 17.2655 93.626 17.1077C93.5607 16.9499 93.5215 16.7789 93.5215 16.608C93.5215 16.4239 93.5607 16.2529 93.626 16.0951C93.6913 15.9373 93.7958 15.7927 93.9133 15.6743C94.0309 15.556 94.1746 15.4639 94.3313 15.3982C94.488 15.3324 94.6578 15.293 94.8407 15.293C95.0236 15.293 95.2064 15.3324 95.3632 15.3982C95.533 15.4639 95.6766 15.556 95.7942 15.6743C95.9248 15.7927 96.0163 15.9373 96.0946 16.0951C96.1599 16.2529 96.1991 16.4239 96.1991 16.608ZM95.9379 18.6594V26.155H93.7174V18.6594H95.9379Z" fill="white"/>
<path d="M97.7266 26.1546V15.332H99.947V19.448C100.221 19.1719 100.535 18.9483 100.887 18.7905C101.24 18.6196 101.658 18.5407 102.128 18.5407C102.52 18.5407 102.873 18.6196 103.199 18.7905C103.526 18.9615 103.813 19.2113 104.048 19.5269C104.283 19.8557 104.479 20.2502 104.61 20.7236C104.741 21.197 104.819 21.7362 104.819 22.3411C104.819 22.9065 104.741 23.4194 104.584 23.906C104.427 24.3794 104.205 24.8002 103.931 25.1552C103.657 25.5103 103.317 25.7864 102.925 25.9837C102.533 26.1809 102.102 26.2861 101.632 26.2861C101.41 26.2861 101.214 26.2599 101.044 26.2204C100.874 26.181 100.705 26.1152 100.561 26.0363C100.417 25.9574 100.287 25.8653 100.156 25.747C100.038 25.6418 99.9209 25.5103 99.8034 25.3919L99.725 25.7733C99.6858 25.9311 99.6336 26.0363 99.5421 26.0889C99.4507 26.1415 99.3331 26.1809 99.1895 26.1809H97.7266V26.1546ZM101.371 20.2371C101.214 20.2371 101.057 20.2502 100.927 20.2897C100.796 20.316 100.678 20.3686 100.561 20.4212C100.443 20.4738 100.339 20.5527 100.247 20.6447C100.156 20.7368 100.052 20.842 99.9601 20.9472V24.1295C100.13 24.3136 100.313 24.4451 100.509 24.524C100.705 24.6029 100.914 24.6424 101.123 24.6424C101.332 24.6424 101.514 24.6029 101.684 24.524C101.854 24.4451 102.011 24.3136 102.128 24.1295C102.259 23.9454 102.35 23.7087 102.429 23.4194C102.494 23.1301 102.533 22.775 102.533 22.3674C102.533 21.9729 102.507 21.6441 102.442 21.368C102.39 21.0918 102.298 20.8814 102.207 20.7105C102.102 20.5395 101.985 20.4212 101.841 20.3554C101.697 20.2634 101.541 20.2371 101.371 20.2371Z" fill="white"/>
<path d="M108.621 16.608C108.621 16.7921 108.582 16.9499 108.516 17.1077C108.451 17.2655 108.347 17.397 108.216 17.5154C108.085 17.6337 107.942 17.7258 107.785 17.7915C107.615 17.8573 107.445 17.8967 107.263 17.8967C107.08 17.8967 106.91 17.8573 106.753 17.7915C106.596 17.7258 106.453 17.6337 106.335 17.5154C106.218 17.397 106.113 17.2655 106.048 17.1077C105.983 16.9499 105.943 16.7789 105.943 16.608C105.943 16.4239 105.983 16.2529 106.048 16.0951C106.113 15.9373 106.218 15.7927 106.335 15.6743C106.453 15.556 106.596 15.4639 106.753 15.3982C106.91 15.3324 107.08 15.293 107.263 15.293C107.445 15.293 107.628 15.3324 107.785 15.3982C107.955 15.4639 108.099 15.556 108.216 15.6743C108.347 15.7927 108.438 15.9373 108.516 16.0951C108.582 16.2529 108.621 16.4239 108.621 16.608ZM108.36 18.6594V26.155H106.139V18.6594H108.36Z" fill="white"/>
<path d="M112.447 15.3457V26.1683H110.227V15.3457H112.447Z" fill="white"/>
<path d="M116.797 16.608C116.797 16.7921 116.758 16.9499 116.692 17.1077C116.627 17.2655 116.522 17.397 116.392 17.5154C116.261 17.6337 116.118 17.7258 115.961 17.7915C115.791 17.8573 115.621 17.8967 115.438 17.8967C115.255 17.8967 115.086 17.8573 114.929 17.7915C114.772 17.7258 114.629 17.6337 114.511 17.5154C114.393 17.397 114.289 17.2655 114.224 17.1077C114.158 16.9499 114.119 16.7789 114.119 16.608C114.119 16.4239 114.158 16.2529 114.224 16.0951C114.289 15.9373 114.393 15.7927 114.511 15.6743C114.629 15.556 114.772 15.4639 114.929 15.3982C115.086 15.3324 115.255 15.293 115.438 15.293C115.621 15.293 115.804 15.3324 115.961 15.3982C116.131 15.4639 116.274 15.556 116.392 15.6743C116.522 15.7927 116.614 15.9373 116.692 16.0951C116.758 16.2529 116.797 16.4239 116.797 16.608ZM116.536 18.6594V26.155H114.315V18.6594H116.536Z" fill="white"/>
<path d="M123.563 26.1552C123.419 26.1552 123.302 26.1289 123.21 26.0631C123.119 25.9974 123.053 25.9053 123.014 25.787L122.844 25.2215C122.701 25.3793 122.544 25.524 122.374 25.6555C122.217 25.787 122.035 25.8922 121.852 25.9974C121.669 26.0894 121.46 26.1683 121.238 26.2078C121.016 26.2604 120.781 26.2867 120.532 26.2867C120.141 26.2867 119.788 26.1946 119.461 26.0237C119.135 25.8527 118.848 25.6029 118.612 25.2741C118.377 24.9454 118.181 24.5508 118.051 24.0643C117.92 23.5909 117.842 23.0517 117.842 22.4468C117.842 21.8945 117.92 21.3685 118.077 20.8951C118.234 20.4217 118.443 20.0009 118.73 19.6458C119.004 19.2908 119.344 19.0278 119.736 18.8305C120.128 18.6333 120.559 18.5281 121.029 18.5281C121.408 18.5281 121.734 18.5807 121.995 18.699C122.257 18.8174 122.505 18.962 122.714 19.1461V15.3457H124.934V26.1683H123.563V26.1552ZM121.303 24.5508C121.46 24.5508 121.617 24.5377 121.747 24.4982C121.878 24.4719 121.995 24.4193 122.113 24.3667C122.217 24.3141 122.322 24.2352 122.426 24.1563C122.531 24.0643 122.622 23.9722 122.714 23.8539V20.6715C122.544 20.4874 122.361 20.3559 122.165 20.277C121.969 20.1981 121.76 20.1587 121.551 20.1587C121.342 20.1587 121.159 20.1981 120.99 20.277C120.82 20.3559 120.663 20.4874 120.546 20.6715C120.415 20.8556 120.323 21.0923 120.245 21.3816C120.18 21.671 120.141 22.026 120.141 22.4337C120.141 22.8282 120.167 23.1569 120.232 23.4331C120.284 23.7092 120.376 23.9196 120.467 24.0906C120.572 24.2615 120.689 24.3799 120.833 24.4456C120.964 24.5245 121.133 24.5508 121.303 24.5508Z" fill="white"/>
<path d="M131.806 26.1555C131.597 26.1555 131.44 26.1292 131.322 26.0635C131.218 26.0109 131.126 25.8794 131.048 25.7084L130.891 25.3007C130.708 25.4585 130.526 25.6032 130.356 25.7215C130.186 25.8399 130.003 25.9451 129.82 26.024C129.637 26.1029 129.441 26.1687 129.232 26.2081C129.023 26.2476 128.788 26.2739 128.54 26.2739C128.201 26.2739 127.887 26.2344 127.613 26.1424C127.339 26.0503 127.103 25.9188 126.907 25.7478C126.712 25.5769 126.568 25.3533 126.463 25.1035C126.359 24.8405 126.307 24.5512 126.307 24.2093C126.307 23.9463 126.372 23.6701 126.503 23.394C126.633 23.1178 126.868 22.8548 127.195 22.6312C127.521 22.4077 127.965 22.2104 128.527 22.0526C129.089 21.8948 129.794 21.8159 130.643 21.8159V21.5003C130.643 21.0532 130.552 20.7376 130.369 20.5404C130.186 20.3431 129.938 20.2511 129.598 20.2511C129.337 20.2511 129.115 20.2774 128.958 20.3431C128.788 20.3957 128.645 20.4615 128.514 20.5404C128.383 20.6061 128.253 20.6719 128.135 20.7376C128.005 20.7902 127.861 20.8297 127.691 20.8297C127.534 20.8297 127.404 20.7902 127.299 20.7113C127.195 20.6324 127.103 20.5404 127.038 20.4352L126.633 19.7382C127.077 19.3437 127.587 19.0412 128.135 18.844C128.684 18.6467 129.272 18.5547 129.899 18.5547C130.343 18.5547 130.748 18.6336 131.113 18.7782C131.479 18.9229 131.779 19.1333 132.028 19.3963C132.276 19.6593 132.472 19.9749 132.602 20.33C132.733 20.685 132.798 21.0927 132.798 21.5135V26.195H131.806V26.1555ZM129.246 24.7879C129.533 24.7879 129.781 24.7353 130.003 24.6301C130.212 24.5249 130.434 24.3671 130.656 24.1435V23.1178C130.212 23.1178 129.846 23.1441 129.559 23.2099C129.272 23.2625 129.05 23.3414 128.88 23.4334C128.71 23.5255 128.592 23.6175 128.527 23.7359C128.462 23.8542 128.436 23.9726 128.436 24.1041C128.436 24.3671 128.501 24.538 128.645 24.6432C128.775 24.7353 128.984 24.7879 129.246 24.7879Z" fill="white"/>
<path d="M139.629 26.1552C139.486 26.1552 139.368 26.1289 139.277 26.0631C139.185 25.9974 139.12 25.9053 139.081 25.787L138.911 25.2215C138.767 25.3793 138.61 25.524 138.441 25.6555C138.284 25.787 138.101 25.8922 137.918 25.9974C137.735 26.0894 137.526 26.1683 137.304 26.2078C137.082 26.2604 136.847 26.2867 136.599 26.2867C136.207 26.2867 135.854 26.1946 135.528 26.0237C135.201 25.8527 134.914 25.6029 134.679 25.2741C134.444 24.9454 134.248 24.5508 134.117 24.0643C133.987 23.5909 133.908 23.0517 133.908 22.4468C133.908 21.8945 133.987 21.3685 134.143 20.8951C134.3 20.4217 134.509 20.0009 134.796 19.6458C135.071 19.2908 135.41 19.0278 135.802 18.8305C136.194 18.6333 136.625 18.5281 137.095 18.5281C137.474 18.5281 137.801 18.5807 138.062 18.699C138.323 18.8174 138.571 18.962 138.78 19.1461V15.3457H141.001V26.1683H139.629V26.1552ZM137.37 24.5508C137.526 24.5508 137.683 24.5377 137.814 24.4982C137.944 24.4719 138.062 24.4193 138.179 24.3667C138.284 24.3141 138.388 24.2352 138.493 24.1563C138.597 24.0774 138.689 23.9722 138.78 23.8539V20.6715C138.61 20.4874 138.428 20.3559 138.232 20.277C138.036 20.1981 137.827 20.1587 137.618 20.1587C137.409 20.1587 137.226 20.1981 137.056 20.277C136.886 20.3559 136.73 20.4874 136.612 20.6715C136.481 20.8556 136.39 21.0923 136.312 21.3816C136.246 21.671 136.207 22.026 136.207 22.4337C136.207 22.8282 136.233 23.1569 136.298 23.4331C136.351 23.7092 136.442 23.9196 136.534 24.0906C136.638 24.2615 136.756 24.3799 136.899 24.4456C137.03 24.5245 137.2 24.5508 137.37 24.5508Z" fill="white"/>
<path d="M58.8824 29.2461C59.3526 29.2461 59.7575 29.3118 60.1101 29.4565C60.4628 29.6011 60.7632 29.7721 61.0114 29.9957C61.2596 30.2192 61.4424 30.4822 61.5861 30.7715C61.7298 31.0608 61.8081 31.3633 61.8473 31.6789L60.4106 31.9682C60.3844 31.9682 60.3714 31.9813 60.3453 31.9813C60.3322 31.9813 60.3061 31.9813 60.293 31.9813C60.0971 31.9813 59.9403 31.8761 59.8489 31.6657C59.7444 31.4159 59.6138 31.2186 59.4701 31.1003C59.3264 30.9688 59.1305 30.903 58.8954 30.903C58.7256 30.903 58.5819 30.9293 58.4513 30.9951C58.3207 31.0608 58.2162 31.1397 58.1378 31.2449C58.0595 31.3501 57.9942 31.4685 57.9419 31.6C57.9027 31.7315 57.8766 31.8761 57.8766 32.0208C57.8766 32.1523 57.8897 32.2706 57.9027 32.3758C57.9289 32.4942 57.955 32.6125 58.0072 32.7309C58.0595 32.8492 58.1248 32.9676 58.2162 33.0991C58.3076 33.2306 58.4121 33.3621 58.5558 33.5068L61.142 36.2552C61.2726 35.9658 61.3771 35.6634 61.4555 35.3478C61.5339 35.0322 61.5861 34.7034 61.6253 34.3747C61.6383 34.2432 61.6775 34.138 61.7559 34.0591C61.8343 33.9802 61.9388 33.9407 62.0694 33.9407H63.48C63.48 34.6508 63.3886 35.2952 63.2057 35.9132C63.0229 36.5182 62.7486 37.0836 62.409 37.5833L64.6033 39.9109H62.409C62.3045 39.9109 62.2 39.9109 62.1086 39.8978C62.0171 39.8846 61.9388 39.8715 61.8735 39.832C61.7951 39.8057 61.7298 39.7663 61.6645 39.7137C61.5992 39.6611 61.5208 39.5953 61.4555 39.5164L60.9983 39.043C60.5412 39.3586 60.0448 39.6085 59.5093 39.7794C58.9738 39.9504 58.3991 40.0424 57.7852 40.0424C57.3672 40.0424 56.9623 39.9767 56.5574 39.832C56.1525 39.6874 55.7998 39.477 55.4863 39.2139C55.1729 38.9509 54.9247 38.6222 54.7288 38.2408C54.5328 37.8595 54.4414 37.4387 54.4414 36.9653C54.4414 36.6497 54.4937 36.3472 54.5851 36.0579C54.6896 35.7686 54.8202 35.5056 55.0031 35.2689C55.1859 35.0322 55.3949 34.8086 55.6431 34.5982C55.8912 34.401 56.1525 34.23 56.4529 34.0722C56.2308 33.7172 56.061 33.3753 55.9696 33.0334C55.8651 32.6914 55.8129 32.3627 55.8129 32.0471C55.8129 31.6657 55.8782 31.3107 56.0219 30.9819C56.1525 30.6532 56.3615 30.3507 56.6227 30.1009C56.8839 29.851 57.2105 29.6406 57.5893 29.4959C57.955 29.325 58.386 29.2461 58.8824 29.2461ZM56.7141 36.7417C56.7141 36.9784 56.7533 37.1888 56.8186 37.3729C56.8839 37.557 56.9884 37.728 57.119 37.8595C57.2497 37.991 57.4064 38.0962 57.5762 38.1751C57.7591 38.254 57.955 38.2934 58.177 38.2934C58.5036 38.2934 58.7909 38.254 59.0652 38.1619C59.3395 38.083 59.6007 37.9647 59.8358 37.8069L57.4325 35.2426C57.1713 35.453 56.9884 35.6897 56.8709 35.9527C56.7664 36.1894 56.7141 36.4656 56.7141 36.7417Z" fill="white"/>
<path d="M70.7804 39.8966H68.3379V29.3633H70.7804V39.8966Z" fill="white"/>
<path d="M72.7266 39.8972V32.4016H74.1111C74.2548 32.4016 74.3723 32.4279 74.4638 32.4936C74.5552 32.5594 74.6205 32.6514 74.6597 32.7698L74.7903 33.2037C74.934 33.0722 75.0776 32.9407 75.2344 32.8224C75.3911 32.704 75.5479 32.612 75.7307 32.5331C75.9005 32.4542 76.0965 32.3884 76.2924 32.349C76.5014 32.3095 76.7234 32.2832 76.9585 32.2832C77.3634 32.2832 77.7292 32.349 78.0426 32.4936C78.3561 32.6383 78.6173 32.8355 78.8394 33.0854C79.0484 33.3352 79.2182 33.6377 79.3227 33.9927C79.4272 34.3478 79.4925 34.716 79.4925 35.1368V39.8972H77.272V35.1368C77.272 34.7686 77.1936 34.4793 77.0238 34.282C76.854 34.0716 76.6059 33.9796 76.2793 33.9796C76.0311 33.9796 75.8091 34.0322 75.5871 34.1374C75.3781 34.2426 75.1691 34.3872 74.9732 34.5582V39.8972H72.7266Z" fill="white"/>
<path d="M86.4168 34.1774C86.3515 34.2563 86.2862 34.322 86.2209 34.3746C86.1556 34.4272 86.0641 34.4404 85.9596 34.4404C85.8551 34.4404 85.7506 34.4141 85.6592 34.3615C85.5678 34.3089 85.4763 34.2431 85.3588 34.1905C85.2543 34.1248 85.1237 34.0722 84.967 34.0196C84.8233 33.967 84.6404 33.9407 84.4184 33.9407C84.1441 33.9407 83.909 33.9933 83.713 34.0985C83.5171 34.2037 83.3473 34.3483 83.2167 34.5324C83.0861 34.7165 82.9946 34.9532 82.9293 35.2162C82.864 35.4924 82.8379 35.7948 82.8379 36.1367C82.8379 36.86 82.9816 37.4123 83.2559 37.7937C83.5302 38.175 83.909 38.3723 84.3922 38.3723C84.6535 38.3723 84.8494 38.346 85.0061 38.2802C85.1629 38.2145 85.2804 38.1487 85.3849 38.0698C85.4894 37.9909 85.5808 37.912 85.6723 37.8463C85.7637 37.7805 85.8682 37.7411 86.0119 37.7411C86.1947 37.7411 86.3254 37.8068 86.4168 37.9383L87.0568 38.7405C86.8217 39.0035 86.5866 39.227 86.3253 39.3848C86.0772 39.5558 85.8159 39.6873 85.5417 39.7793C85.2804 39.8714 85.0061 39.9371 84.7449 39.9766C84.4706 40.016 84.2224 40.0292 83.9612 40.0292C83.504 40.0292 83.073 39.9371 82.655 39.7662C82.2371 39.5952 81.8713 39.3454 81.5579 39.0166C81.2444 38.6879 80.9962 38.2802 80.8134 37.7937C80.6305 37.3071 80.5391 36.7679 80.5391 36.1499C80.5391 35.6107 80.6174 35.111 80.7742 34.6376C80.9309 34.1642 81.166 33.7565 81.4795 33.4146C81.793 33.0727 82.1848 32.7966 82.642 32.5993C83.0991 32.4021 83.6347 32.2969 84.2486 32.2969C84.8363 32.2969 85.3457 32.3889 85.7898 32.573C86.2339 32.7571 86.6258 33.0333 86.9784 33.4015L86.4168 34.1774Z" fill="white"/>
<path d="M90.322 29.0742V39.8968H88.1016V29.0742H90.322Z" fill="white"/>
<path d="M94.1997 32.4018V37.1622C94.1997 37.5304 94.2781 37.8197 94.4479 38.017C94.6177 38.2142 94.8659 38.3194 95.1924 38.3194C95.4406 38.3194 95.6626 38.2668 95.8716 38.1616C96.0806 38.0564 96.2896 37.9249 96.4986 37.7408V32.4018H98.719V39.8974H97.3345C97.0602 39.8974 96.8773 39.7659 96.7859 39.5161L96.6553 39.0821C96.5116 39.2268 96.3679 39.3451 96.2112 39.4635C96.0545 39.5818 95.8977 39.6739 95.7149 39.7528C95.5451 39.8317 95.3491 39.8974 95.1532 39.9369C94.9573 39.9763 94.7352 40.0026 94.4871 40.0026C94.0822 40.0026 93.7164 39.9369 93.403 39.7922C93.0895 39.6476 92.8283 39.4503 92.6062 39.2005C92.3972 38.9506 92.2274 38.6482 92.1229 38.2931C92.0184 37.9512 91.9531 37.5699 91.9531 37.149V32.3887H94.1997V32.4018Z" fill="white"/>
<path d="M105.002 34.0322C104.95 34.1242 104.885 34.19 104.819 34.2294C104.754 34.2689 104.676 34.282 104.571 34.282C104.467 34.282 104.362 34.2557 104.258 34.2163C104.153 34.1768 104.036 34.1242 103.918 34.0716C103.8 34.019 103.657 33.9664 103.5 33.927C103.343 33.8875 103.173 33.8612 102.978 33.8612C102.69 33.8612 102.481 33.9138 102.324 34.019C102.168 34.1242 102.102 34.282 102.102 34.4661C102.102 34.6108 102.155 34.716 102.246 34.808C102.351 34.9001 102.468 34.979 102.638 35.0447C102.795 35.1105 102.991 35.1762 103.187 35.242C103.396 35.3078 103.605 35.3735 103.814 35.4524C104.022 35.5313 104.245 35.6234 104.44 35.7286C104.649 35.8338 104.832 35.9653 104.989 36.1099C105.146 36.2677 105.276 36.4518 105.381 36.6622C105.485 36.8726 105.525 37.1356 105.525 37.4381C105.525 37.8063 105.459 38.1482 105.329 38.4638C105.198 38.7794 104.989 39.0424 104.728 39.2791C104.467 39.5027 104.14 39.6868 103.748 39.8051C103.356 39.9366 102.912 39.9892 102.403 39.9892C102.155 39.9892 101.893 39.9629 101.645 39.9235C101.397 39.8709 101.149 39.8051 100.914 39.7262C100.679 39.6473 100.457 39.5421 100.261 39.4369C100.065 39.3186 99.882 39.2002 99.7383 39.0687L100.261 38.2402C100.326 38.1482 100.391 38.0693 100.483 38.0167C100.574 37.9641 100.679 37.9378 100.822 37.9378C100.953 37.9378 101.071 37.9641 101.175 38.0298C101.28 38.0824 101.384 38.1482 101.515 38.2139C101.632 38.2797 101.776 38.3454 101.933 38.3981C102.089 38.4507 102.298 38.4901 102.533 38.4901C102.703 38.4901 102.847 38.4769 102.978 38.4375C103.095 38.398 103.187 38.3454 103.265 38.2928C103.33 38.2271 103.396 38.1613 103.422 38.0824C103.461 38.0035 103.474 37.9246 103.474 37.8457C103.474 37.7011 103.422 37.5696 103.317 37.4775C103.213 37.3855 103.082 37.2934 102.925 37.2277C102.769 37.1619 102.573 37.0962 102.364 37.0304C102.155 36.9647 101.946 36.8989 101.724 36.82C101.515 36.7411 101.293 36.6491 101.084 36.5439C100.875 36.4387 100.692 36.294 100.522 36.1362C100.365 35.9653 100.222 35.768 100.13 35.5313C100.026 35.2946 99.9734 35.0053 99.9734 34.6502C99.9734 34.3346 100.039 34.0322 100.156 33.7429C100.274 33.4536 100.457 33.2037 100.705 32.9933C100.953 32.7829 101.253 32.5988 101.619 32.4805C101.985 32.349 102.416 32.2832 102.912 32.2832C103.187 32.2832 103.435 32.3095 103.696 32.349C103.944 32.4016 104.179 32.4673 104.401 32.5462C104.623 32.6383 104.819 32.7303 105.002 32.8487C105.185 32.967 105.342 33.0985 105.485 33.23L105.002 34.0322Z" fill="white"/>
<path d="M109.312 30.3502C109.312 30.5343 109.273 30.6921 109.208 30.8499C109.143 31.0077 109.038 31.1392 108.907 31.2575C108.777 31.3759 108.633 31.4679 108.476 31.5337C108.307 31.5994 108.137 31.6389 107.954 31.6389C107.771 31.6389 107.601 31.5994 107.445 31.5337C107.288 31.4679 107.144 31.3759 107.027 31.2575C106.909 31.1392 106.805 31.0077 106.739 30.8499C106.674 30.6921 106.635 30.5211 106.635 30.3502C106.635 30.1661 106.674 29.9951 106.739 29.8373C106.805 29.6795 106.909 29.5349 107.027 29.4165C107.144 29.2982 107.288 29.2061 107.445 29.1404C107.601 29.0746 107.771 29.0352 107.954 29.0352C108.137 29.0352 108.32 29.0746 108.476 29.1404C108.646 29.2061 108.79 29.2982 108.907 29.4165C109.038 29.5349 109.13 29.6795 109.208 29.8373C109.286 29.9951 109.312 30.1661 109.312 30.3502ZM109.064 32.4016V39.8972H106.844V32.4016H109.064Z" fill="white"/>
<path d="M114.171 32.2838C114.733 32.2838 115.256 32.3758 115.713 32.5468C116.183 32.7309 116.575 32.9808 116.914 33.3095C117.241 33.6383 117.502 34.0459 117.685 34.5193C117.868 34.9927 117.959 35.5319 117.959 36.1236C117.959 36.7154 117.868 37.2546 117.685 37.7411C117.502 38.2145 117.241 38.6222 116.914 38.9641C116.588 39.2928 116.183 39.5559 115.713 39.74C115.242 39.9241 114.733 40.0161 114.171 40.0161C113.597 40.0161 113.087 39.9241 112.617 39.74C112.147 39.5559 111.742 39.306 111.415 38.9641C111.076 38.6353 110.815 38.2277 110.632 37.7411C110.449 37.2677 110.357 36.7286 110.357 36.1236C110.357 35.5319 110.449 34.9927 110.632 34.5193C110.815 34.0459 111.076 33.6383 111.415 33.3095C111.755 32.9808 112.16 32.7177 112.617 32.5468C113.087 32.3758 113.597 32.2838 114.171 32.2838ZM114.171 38.346C114.681 38.346 115.06 38.1619 115.308 37.8069C115.543 37.4387 115.673 36.8864 115.673 36.15C115.673 35.4135 115.556 34.8612 115.308 34.493C115.06 34.138 114.694 33.9539 114.171 33.9539C113.649 33.9539 113.257 34.138 113.022 34.493C112.774 34.8481 112.656 35.4004 112.656 36.15C112.656 36.8864 112.774 37.4387 113.022 37.8069C113.257 38.1619 113.649 38.346 114.171 38.346ZM117.019 29.2461L115.151 31.1529C115.047 31.2581 114.942 31.337 114.838 31.3896C114.733 31.429 114.602 31.4553 114.433 31.4553H113.1L114.08 29.6801C114.158 29.5354 114.263 29.4302 114.367 29.3644C114.472 29.2855 114.642 29.2461 114.864 29.2461H117.019Z" fill="white"/>
<path d="M119.188 39.8972V32.4016H120.572C120.716 32.4016 120.833 32.4279 120.925 32.4936C121.016 32.5594 121.081 32.6514 121.121 32.7698L121.251 33.2037C121.395 33.0722 121.539 32.9407 121.695 32.8224C121.852 32.704 122.009 32.612 122.192 32.5331C122.361 32.4542 122.557 32.3884 122.753 32.349C122.962 32.3095 123.184 32.2832 123.419 32.2832C123.824 32.2832 124.19 32.349 124.504 32.4936C124.817 32.6383 125.078 32.8355 125.3 33.0854C125.509 33.3352 125.679 33.6377 125.784 33.9927C125.888 34.3478 125.953 34.716 125.953 35.1368V39.8972H123.733V35.1368C123.733 34.7686 123.655 34.4793 123.485 34.282C123.315 34.0716 123.067 33.9796 122.74 33.9796C122.492 33.9796 122.27 34.0322 122.048 34.1374C121.839 34.2426 121.63 34.3872 121.434 34.5582V39.8972H119.188Z" fill="white"/>
</g>
<defs>
<clipPath id="clip0_586_102">
<rect width="141" height="45" fill="white"/>
</clipPath>
</defs>
</svg>
