<?xml version="1.0" encoding="UTF-8"?>
<svg version="1.1" viewBox="0 0 168 34" xmlns="http://www.w3.org/2000/svg">
  <g fill="#041C42">
    <path d="M29.7394 0H36.3481V33.0437H29.7394V0Z"/>
    <path d="m85.914 6.6088h6.6087v26.435h-6.6087v-26.435z"/>
    <path d="m76 0h26.436v6.6088h-26.436v-6.6088z"/>
    <path d="M0 0H6.60874V33.0437H0V0Z"/>
  </g>
  <path d="m11.565 0h-10.957v23.131h10.957c6.3873 0 11.565-5.178 11.565-11.565 0-6.3873-5.1781-11.565-11.565-11.565z" fill="#041c42"/>
  <g fill="#041C42">
    <path d="m73.381 25.453c-2.9396 4.5666-8.0679 7.591-13.902 7.591-9.1247 0-16.522-7.3971-16.522-16.522 0-9.1248 7.3971-16.522 16.522-16.522 5.8346 0 10.963 3.0244 13.902 7.591l-6.4335 2.4126c-1.8172-2.0805-4.4896-3.3948-7.469-3.3948-5.4748 0-9.9131 4.4382-9.9131 9.9132 0 5.4748 4.4383 9.9131 9.9131 9.9131 2.9794 0 5.6518-1.3144 7.469-3.3949l6.4335 2.4126z"/>
    <path d="m138.78 16.522c0 9.1247-7.397 16.522-16.522 16.522s-16.522-7.3971-16.522-16.522c0-9.1248 7.397-16.522 16.522-16.522s16.522 7.3971 16.522 16.522z"/>
    <path d="m164.88 8.0523 2.305-5.4052c-6.176-3.612-11.637-2.7964-14.652-1.7916-3.016 1.0048-5.26 4.717-5.647 8.3349-0.617 5.762 3.741 8.2778 6.784 9.3327 3.043 1.055 7.913 1.7142 7.437 5.3349-0.369 2.7989-2.799 3.1858-5.655 3.2291-3.172 0.0481-6.787-3.3983-6.787-3.3983l-3.275 4.2727c4.472 6.0308 14.316 6.7675 19.421 1.8173 2.38-2.3086 3.31-4.2073 3.174-7.5205-0.219-5.3168-6.572-8.0628-9.218-8.4733-2.646-0.4106-5.95-2.5042-5.097-5.224 0.676-2.1573 2.334-2.8028 5.097-2.7448 2.763 0.058 6.113 2.236 6.113 2.236z"/>
  </g>
</svg>
