<svg viewBox="0 0 977 386" fill="none" xmlns="http://www.w3.org/2000/svg">
<mask id="mask0_362_408" style="mask-type:luminance" maskUnits="userSpaceOnUse" x="0" y="0" width="977" height="386">
<path d="M0 -0.000261832H976.667V385.858H0V-0.000261832Z" fill="white"/>
</mask>
<g mask="url(#mask0_362_408)">
<path d="M82.5337 129.375C76.2004 149.742 73.0004 170.954 73.0404 192.282V192.935C73.0404 283.922 127.214 355.415 191.707 355.415C256.2 355.415 310.374 283.909 310.374 192.935V192.282C310.431 170.843 307.211 149.522 300.827 129.055C282.454 70.3888 240.027 30.3888 191.707 30.3888C143.387 30.3888 100.854 70.5354 82.5337 129.375ZM69.0404 192.282C68.9804 170.545 72.227 148.925 78.667 128.162C97.267 68.3621 140.894 26.3888 191.707 26.3888C242.52 26.3888 286 68.2021 304.694 127.815C311.18 148.686 314.446 170.426 314.374 192.282V192.935C314.374 284.935 259.44 359.469 191.707 359.469C123.974 359.469 69.0404 284.909 69.0404 192.935V192.282Z" fill="white"/>
<path d="M183.413 48.6014C181.893 42.5481 177.333 39.9881 170.547 41.6814C165.107 43.0148 163.573 43.8281 163.093 44.3481C162.847 44.6108 162.847 45.0188 163.093 45.2814L165.6 44.9614L169.6 60.8414L168.013 61.6814C167.347 62.0414 167.147 62.5614 167.507 63.1348C168.133 62.9481 170.173 62.4014 171.667 62.0281C173.16 61.6548 175.267 61.2414 176.147 61.0414C182.653 59.4014 184.893 54.3748 183.467 48.5881M176.027 59.3748C174.784 59.7254 173.504 59.9281 172.213 59.9748L168.213 43.8148C175.347 42.0281 179.307 44.2548 180.8 50.3214C181.973 55.0414 179.467 58.4814 176.013 59.3748" fill="white"/>
<path d="M219.787 53.4694C221.654 47.7361 219.787 43.8161 214.6 42.1627C208.627 40.2161 203.507 43.4961 201.414 49.8827C199.694 55.2161 201.174 59.5227 206.294 61.2027C212.307 63.1361 217.56 60.3361 219.787 53.4694ZM216.6 53.8161C214.907 59.0161 211.587 60.8027 207.987 59.6161C204.387 58.4294 202.76 55.0961 204.654 49.3361C206.107 44.8161 209.187 42.4961 213.014 43.7227C217.454 45.1761 218.107 49.2561 216.6 53.8161Z" fill="white"/>
<path d="M234.214 74.469C233.318 73.125 232.8 71.5623 232.72 69.949L231.92 62.2556C234.443 62.7396 237.004 61.6276 238.374 59.4556C240.12 56.6956 239.04 53.5356 235.414 51.2956C230.987 48.509 229.08 47.629 228.56 48.469C228.494 48.589 228.454 48.709 228.4 48.829L230.374 50.389L221.654 64.309L219.827 63.7756C219.366 63.545 218.806 63.7316 218.575 64.1916C218.538 64.2676 218.51 64.3463 218.494 64.429C219.627 65.069 220.4 65.549 221.467 66.189C222.534 66.829 223.52 67.5223 224.6 68.229C225.174 68.565 225.907 68.429 226.32 67.909L223.894 65.8556L227.36 60.3356L229.187 61.4823L229.707 69.5623C229.947 72.6023 230.627 73.4423 232.134 74.3756C232.72 74.861 233.559 74.8996 234.187 74.469M235.534 58.4823C234.49 60.569 231.95 61.4143 229.862 60.369C229.599 60.237 229.351 60.0783 229.12 59.8956C228.8 59.6956 228.454 59.4423 228.094 59.1756L232.854 51.5356C233.275 51.753 233.684 51.9943 234.08 52.2556C236.138 53.2956 236.962 55.8063 235.922 57.8623C235.815 58.0756 235.688 58.277 235.547 58.469" fill="white"/>
<path d="M131.373 84.2419C128.84 82.0953 126.72 82.6953 123.48 84.6019C121.013 86.0686 119.187 86.5353 117.707 85.3353C116.475 84.0339 116.475 81.9966 117.707 80.6953C118.456 79.7486 119.356 78.9326 120.373 78.2819L122.533 80.2019C123.197 79.8059 123.415 78.9459 123.019 78.2819C122.933 78.1393 122.823 78.0139 122.693 77.9086L120.373 75.6419C119.044 76.6646 117.828 77.8259 116.747 79.1086C114.52 81.7753 114.08 85.7753 116.867 88.1753C118.493 89.5086 120.68 89.5086 123.533 87.8819C127.453 85.6553 129.04 85.8419 130.387 87.0019C131.685 88.4273 131.727 90.5966 130.48 92.0686C128.533 94.3753 126.773 94.7353 124.56 92.8553C123.679 93.7553 123.696 95.1993 124.596 96.0793C124.611 96.0939 124.625 96.1086 124.64 96.1219C126.613 97.7886 129.12 96.5753 131.307 93.9886C133.893 90.9353 133.973 86.4553 131.307 84.2419" fill="white"/>
<path d="M140.12 64.1227L135.894 60.4027C134.191 62.4547 132.346 64.3827 130.374 66.176C128.56 67.9227 126.574 69.6027 124.267 71.8427L127.6 76.2827C128.427 75.7627 128.587 75.296 127.8 73.4693L126.987 71.7227C127.92 70.7493 129.147 69.616 130.24 68.5627L141.64 80.376L140.467 82.2027C140.106 82.56 140.102 83.1427 140.458 83.504C140.555 83.6013 140.671 83.676 140.8 83.7227C141.387 83.0293 142.574 81.8827 143.734 80.7893C144.894 79.696 145.68 78.936 146.28 78.3893C146.791 78.0147 146.902 77.2973 146.527 76.7867C146.482 76.7253 146.43 76.668 146.374 76.616L143.707 78.3893L132.334 66.616C133.511 65.5867 134.616 64.4773 135.64 63.296L137.96 64.6293C138.495 65.136 139.339 65.1133 139.844 64.5787C139.974 64.444 140.071 64.284 140.134 64.1093" fill="white"/>
<path d="M156.467 46.7893L151.467 49.6826C150.533 50.1893 150.453 51.0159 150.893 51.4693L153.16 50.6293L156.52 65.2959L144.933 55.3493L146.267 54.3759C146.995 53.9479 147.239 53.0119 146.813 52.2826L141.147 55.5493C140.293 56.0426 139.933 56.8826 140.52 57.5893L142.373 56.9493L157.307 69.9893C158.557 69.0746 159.092 67.4706 158.64 65.9893L155.173 49.7093C156.933 48.9226 157.28 47.9626 156.507 46.7493" fill="white"/>
<path d="M195.707 57.482L192.827 56.9087L193.04 40.322L194.52 40.1887C195.493 40.1087 195.853 39.8287 195.747 38.8553L189.48 38.722C188.333 38.722 187.733 39.1487 187.907 40.0553L190.267 40.3087L189.973 56.8953L188.147 57.2687C187.187 57.4553 186.987 57.9753 187.173 58.602H190.853C192.213 58.602 193.387 58.602 194.227 58.7087C194.852 58.8807 195.497 58.5127 195.669 57.8873C195.705 57.7567 195.717 57.6193 195.707 57.482Z" fill="white"/>
<path d="M259.534 71.3094L255.387 67.3094C254.6 66.576 253.854 66.696 253.507 67.3094L254.947 69.2427L241.694 76.5094L248.054 62.6294L249.387 63.6827C249.995 64.288 250.978 64.288 251.587 63.6827L246.867 59.136C246.134 58.456 245.174 58.3494 244.734 59.136L245.907 60.6694L237.507 78.6827C238.704 79.6027 240.351 79.6774 241.627 78.8694L256.374 71.0827C257.587 72.5094 258.6 72.616 259.56 71.4427" fill="white"/>
<path d="M260.054 104.389L259.227 102.162L271.854 91.6154C273.427 93.3621 274.16 93.5887 274.827 92.8554L271.707 88.2554L255.534 92.2554L265.147 78.5754L263.014 75.4021C262.347 74.3754 261.494 74.4021 261.054 74.9887L261.96 77.4287L247.707 84.9621L246.227 83.7221C245.882 83.3594 245.307 83.3461 244.944 83.6914C244.9 83.7327 244.862 83.7781 244.827 83.8287C245.374 84.5354 246.014 85.5221 246.68 86.4954C247.347 87.4687 247.907 88.3487 248.347 89.0554C248.587 89.6167 249.238 89.8767 249.8 89.6367C249.886 89.5994 249.967 89.5527 250.04 89.4954L248.854 86.8287L260.454 80.2954L251.12 93.7087C251.967 94.3954 253.084 94.6527 254.147 94.4021L268.387 90.7621L257.72 99.8554L256.24 98.5221C255.86 98.1514 255.252 98.1594 254.883 98.5394C254.863 98.5594 254.844 98.5807 254.827 98.6021C255.4 99.3221 256.054 100.322 256.72 101.269C257.387 102.215 257.92 103.109 258.374 103.815C258.618 104.407 259.296 104.69 259.888 104.445C259.96 104.415 260.028 104.379 260.094 104.335" fill="white"/>
<path d="M99.5603 279.269L102.547 284.216C103.08 285.136 103.88 285.216 104.32 284.736L103.454 282.469L118.12 278.882L108.347 290.642L107.374 289.309C106.958 288.588 106.036 288.341 105.316 288.756C105.29 288.77 105.264 288.786 105.24 288.802L108.64 294.402C109.134 295.269 110.054 295.576 110.68 294.989L109.947 293.256L122.707 278.002C121.786 276.762 120.168 276.261 118.707 276.762L102.48 280.469C101.667 278.776 100.707 278.429 99.4937 279.296" fill="white"/>
<path d="M90.9603 255.629L92.8136 260.695C93.2003 261.762 93.9469 262.162 94.7603 261.655L94.1603 259.282L107.12 254.562L96.5603 270.949L97.5336 273.615C97.9736 274.842 98.8669 274.949 99.4003 274.469L98.9336 272.015L114.24 266.429L115.32 267.935C115.555 268.362 116.09 268.518 116.516 268.283C116.564 268.257 116.611 268.225 116.654 268.189C116.222 267.226 115.839 266.243 115.507 265.242C115.054 264.055 114.707 262.975 114.44 262.149C114.263 261.541 113.627 261.191 113.019 261.369C112.986 261.378 112.952 261.39 112.92 261.402L113.44 264.349L101.294 268.775L110.534 254.615C111.36 253.349 111.48 252.695 111.227 252.082C111.094 251.638 110.872 251.225 110.574 250.869L93.3603 257.149L92.7869 256.095C92.3336 255.269 91.8403 255.109 90.9336 255.575" fill="white"/>
<path d="M104.614 238.762L104.894 241.695L88.8937 245.975L88.3737 244.642C88.027 243.735 87.627 243.469 86.707 243.829C88.2004 249.482 88.3204 249.895 88.3204 249.895C88.6137 251.029 89.1737 251.469 90.0137 251.055L89.587 248.695L105.587 244.415L106.414 246.095C106.867 246.935 107.427 246.989 107.92 246.629C107.64 245.802 107.28 244.442 106.907 243.095C106.534 241.749 106.254 240.655 106.094 239.855C106.05 239.209 105.49 238.721 104.843 238.765C104.751 238.771 104.662 238.789 104.574 238.815" fill="white"/>
<path d="M83.1201 222.309L84.1335 228.016C84.3201 229.082 85.0135 229.349 85.6268 229.122V226.736L100.627 228.629L87.2935 236.109L86.8401 234.482C86.6868 233.649 85.8868 233.098 85.0535 233.253C85.0495 233.253 85.0441 233.254 85.0401 233.256L86.1735 239.696C86.3601 240.669 87.0935 241.322 87.8935 241.029V239.122L105.227 229.469C104.807 228.01 103.515 226.976 102 226.882L85.4935 224.549C85.3735 222.642 84.6001 221.989 83.1468 222.349" fill="white"/>
<path d="M96.2666 202.989C95.9599 203.816 96.2666 204.562 97.5332 204.869L99.8399 205.509L100.24 212.869L93.0266 213.616L92.4666 208.176L94.4666 208.056C94.6546 207.344 94.2306 206.614 93.5172 206.426C93.3626 206.385 93.1999 206.373 93.0399 206.389C91.7066 206.549 90.5199 206.616 88.6666 206.736C88.4826 207.196 88.5932 207.722 88.9466 208.069C89.3999 208.456 89.7599 208.456 90.7466 208.322L91.3066 213.802L84.1199 214.562L83.6532 207.896L86.4932 207.136C86.6266 206.322 86.1866 205.576 85.2799 205.802L81.5732 206.389L82.6799 216.829C82.9866 219.816 83.4932 219.962 84.3999 219.669V217.442L100.827 215.709L101.427 217.296C101.593 217.798 102.137 218.072 102.64 217.905C102.681 217.892 102.721 217.876 102.76 217.856L101.267 203.669L96.2666 202.989Z" fill="white"/>
<path d="M101.04 183.002C100.443 184.506 99.4242 185.807 98.1069 186.749L92.0803 191.602C91.1016 189.238 88.7709 187.718 86.2136 187.775C82.9469 187.775 80.8803 190.442 80.9602 194.695C81.0669 199.935 81.3203 202.002 82.2936 201.975C82.4136 201.985 82.5336 201.985 82.6536 201.975L82.9203 199.469L99.3736 199.175L99.9203 201.029C100.019 201.542 100.515 201.878 101.028 201.779C101.068 201.771 101.108 201.761 101.147 201.749C101.067 200.415 101.067 199.509 101.027 198.269C100.987 197.029 101.027 195.829 101.027 194.562C101.031 193.874 100.511 193.297 99.8269 193.229L99.4002 196.389L92.8936 196.482V194.335L99.3603 189.469C101.787 187.629 102.134 186.602 102.107 184.815C102.179 184.051 101.747 183.327 101.04 183.029M86.8803 190.615C89.2163 190.363 91.3136 192.051 91.5669 194.386C91.5963 194.666 91.5989 194.947 91.5736 195.229V196.495L82.5736 196.642V195.309C82.3109 193.018 83.9549 190.949 86.2442 190.687C86.4909 190.659 86.7389 190.653 86.9869 190.669" fill="white"/>
<path d="M96.7334 168.722C93.4134 168.642 92.16 170.442 90.8134 173.976C89.8267 176.642 88.72 178.202 86.8134 178.149C85.056 177.906 83.7947 176.33 83.9467 174.562C83.9454 173.349 84.1334 172.142 84.5067 170.989L87.3867 171.136C87.6374 170.389 87.2347 169.58 86.4867 169.329C86.3467 169.282 86.2014 169.257 86.0534 169.256L82.84 168.936C82.4627 170.568 82.252 172.234 82.2134 173.909C82.2134 177.389 84.3067 180.816 87.96 180.896C90.1334 180.896 91.8 179.562 93.04 176.429C94.6534 172.229 96.0134 171.416 97.8 171.416C99.7174 171.712 101.111 173.396 101.04 175.336C101.04 178.362 99.84 179.709 96.9734 179.669C96.824 180.897 97.7 182.013 98.928 182.162C98.9787 182.168 99.0294 182.173 99.08 182.176C101.667 182.176 102.853 179.696 102.92 176.349C102.92 172.349 100.253 168.789 96.8 168.736" fill="white"/>
<path d="M103.16 159.282L102.173 162.042L85.8 159.149L85.92 157.682C85.92 156.736 85.76 156.349 84.7467 156.256C83.7067 161.976 83.7067 162.389 83.7067 162.389C83.4933 163.522 83.8267 164.176 84.7467 164.162L85.3467 161.856L101.707 164.722V166.629C101.787 167.576 102.253 167.869 102.853 167.776C102.96 166.896 103.2 165.469 103.427 164.122C103.653 162.776 103.867 161.629 104.04 160.829C104.288 160.246 104.017 159.573 103.435 159.325C103.339 159.284 103.237 159.256 103.133 159.242" fill="white"/>
<path d="M94.2134 137.163L88.6668 136.256C88.2814 138.904 87.7201 141.523 86.9868 144.096C86.3601 146.536 85.5601 149.016 84.7734 152.096L90.0001 154.069C90.4401 153.216 90.3201 152.736 88.6668 151.589L87.1468 150.563C87.4134 149.229 87.8801 147.643 88.2401 146.189L104.133 150.189V152.363C104.077 152.875 104.449 153.335 104.961 153.391C105.032 153.397 105.103 153.397 105.173 153.389C105.333 152.483 105.733 150.896 106.133 149.389C106.533 147.883 106.827 146.723 107.027 146.016C107.267 145.429 106.987 144.76 106.401 144.52C106.332 144.492 106.26 144.469 106.187 144.456L104.853 147.469L88.9601 143.469C89.4161 141.967 89.7694 140.433 90.0134 138.883L92.6801 138.776C93.8001 138.776 94.2668 138.349 94.2668 137.176" fill="white"/>
<path d="M114.174 122.389L112.84 124.376L93.0403 124.162C92.827 124.602 92.667 124.882 92.4803 125.309C92.1176 126.137 92.4043 127.106 93.1603 127.602L106.974 139.496L106.827 141.122C106.812 141.622 107.204 142.041 107.706 142.056C107.728 142.056 107.751 142.056 107.774 142.056C108.055 141.148 108.388 140.257 108.774 139.389C109.187 138.269 109.654 137.136 110 136.336C110.302 135.746 110.068 135.025 109.48 134.722L107.88 137.389L102.987 133.389L105.414 127.136L111.64 127.349L111.32 129.696C111.238 130.137 111.53 130.561 111.971 130.644C112.038 130.656 112.106 130.66 112.174 130.656C112.4 129.869 112.867 128.629 113.347 127.402C113.827 126.176 114.374 124.802 114.68 124.002C114.995 123.444 114.796 122.737 114.238 122.422C114.216 122.41 114.195 122.4 114.174 122.389ZM103.614 127.069L101.6 132.282L94.8003 126.709L103.614 127.069Z" fill="white"/>
<path d="M116.28 107.389C113.36 105.855 111.427 106.855 108.653 109.402C106.52 111.362 104.84 112.202 103.133 111.295C101.665 110.274 101.255 108.281 102.2 106.762C102.741 105.681 103.447 104.691 104.293 103.829L106.787 105.269C107.364 104.811 107.463 103.974 107.007 103.395C106.864 103.217 106.679 103.075 106.467 102.989L103.8 101.242C102.708 102.517 101.752 103.902 100.947 105.375C99.3068 108.442 99.6135 112.509 102.907 114.242C104.84 115.255 106.907 114.762 109.467 112.562C112.827 109.562 114.387 109.402 115.973 110.269C117.559 111.383 118.029 113.526 117.053 115.202C115.72 117.869 114.027 118.535 111.493 117.202C110.805 118.239 111.088 119.638 112.125 120.325C112.159 120.347 112.192 120.369 112.227 120.389C114.507 121.602 116.747 119.909 118.293 116.962C120.187 113.415 119.333 108.962 116.307 107.375" fill="white"/>
<path d="M273.68 134.389L273.2 132.015L287.573 118.455C287.497 118.03 287.363 117.617 287.173 117.229C286.879 116.377 286.007 115.867 285.12 116.029L266.893 117.095L265.893 115.762C265.543 115.394 264.96 115.379 264.593 115.729C264.581 115.739 264.571 115.75 264.56 115.762C264.947 116.482 265.373 117.482 265.787 118.429C266.2 119.375 266.693 120.669 266.987 121.469C267.156 122.086 267.793 122.45 268.412 122.281C268.427 122.277 268.44 122.273 268.453 122.269L267.787 119.269L274.08 118.735L276.667 124.895L272.04 129.055L270.627 127.149C270.373 126.751 269.845 126.635 269.448 126.889C269.392 126.925 269.34 126.967 269.293 127.015C269.693 127.802 270.2 128.975 270.627 130.202C271.053 131.429 271.707 132.789 272.053 133.615C272.219 134.25 272.868 134.629 273.501 134.463C273.525 134.457 273.549 134.45 273.573 134.442M277.947 123.722L275.707 118.562L284.507 117.842L277.947 123.722Z" fill="white"/>
<path d="M297.481 150.856L296.147 145.642C295.827 144.536 295.147 144.082 294.321 144.509L294.694 146.922L281.361 150.482L293.361 135.081L292.641 132.269C292.267 130.936 291.401 130.869 290.854 131.242L291.081 133.762L275.267 137.989L274.374 136.376C274.149 135.92 273.598 135.732 273.142 135.957C273.107 135.974 273.073 135.994 273.041 136.016C273.321 136.802 273.614 137.922 273.921 139.056C274.227 140.189 274.521 141.389 274.721 142.256C274.861 142.888 275.486 143.288 276.119 143.149C276.138 143.145 276.155 143.14 276.174 143.136L275.934 140.136L288.427 136.789L277.987 150.122C277.054 151.322 276.907 151.949 277.054 152.602C277.163 153.045 277.358 153.461 277.627 153.829L295.214 149.056L295.707 150.162C296.107 151.029 296.561 151.229 297.494 150.842" fill="white"/>
<path d="M291.721 174.576C297.947 173.669 300.974 169.416 299.974 162.576C299.201 157.016 298.641 155.416 298.134 154.856C297.922 154.581 297.529 154.53 297.255 154.741C297.241 154.752 297.227 154.764 297.214 154.776V157.282L281.041 159.536L280.361 157.869C280.094 157.176 279.587 156.896 279.027 157.216C279.161 157.829 279.494 159.962 279.694 161.442C279.894 162.922 280.107 165.109 280.214 165.989C281.134 172.656 285.921 175.416 291.787 174.589M281.827 166.136C281.609 164.854 281.531 163.553 281.601 162.256L298.107 159.949C299.147 167.242 296.507 170.936 290.347 171.816C285.534 172.469 282.347 169.696 281.827 166.122" fill="white"/>
<path d="M283.267 188.109L283.64 185.203L300.187 184.323L300.413 185.776C300.547 186.749 300.893 187.109 301.88 186.923C301.573 181.136 301.533 180.643 301.533 180.643C301.44 179.496 301 178.936 300.107 179.176V181.563L283.507 182.403L283.04 180.589C282.773 179.696 282.227 179.509 281.707 179.736C281.813 180.629 281.907 182.043 281.973 183.429C282.04 184.816 282.093 185.949 282.08 186.776C282.001 187.433 282.472 188.031 283.129 188.109C283.224 188.12 283.32 188.12 283.413 188.109" fill="white"/>
<path d="M301.147 213.055L301.44 207.722C301.507 206.562 301 205.935 300.107 206.069L299.707 208.389L285.867 207.722L302.014 196.735L302.174 193.855C302.174 192.522 301.427 192.095 300.84 192.309L300.267 194.789L284 193.922L283.6 192.109C283.56 191.625 283.135 191.265 282.65 191.305C282.579 191.31 282.508 191.326 282.44 191.349C282.44 192.175 282.44 193.322 282.334 194.522L282.107 197.762C282.004 198.387 282.426 198.977 283.051 199.081C283.106 199.089 283.159 199.094 283.214 199.095L283.88 196.175L296.8 196.869L282.787 206.309C281.534 207.135 281.174 207.642 281.107 208.375C281.064 208.827 281.124 209.282 281.28 209.709L299.56 210.669L299.694 211.855C299.774 212.802 300.16 213.122 301.147 213.069" fill="white"/>
<path d="M283.334 229.602C283.827 228.856 283.734 228.082 282.601 227.442L280.547 226.242L282.041 219.029L289.214 220.162L288.374 225.589L286.347 225.162C286.011 225.818 286.27 226.621 286.926 226.957C287.07 227.032 287.226 227.078 287.387 227.096C288.721 227.322 289.867 227.536 291.707 227.922C291.966 227.522 291.991 227.014 291.774 226.589C291.414 226.109 291.067 226.002 290.121 225.842L290.961 220.402L298.121 221.549L296.787 228.216H293.841C293.521 228.962 293.734 229.789 294.614 229.896L298.387 230.242L300.054 219.882C300.507 216.922 300.054 216.669 299.094 216.709L298.521 218.856L282.214 216.269L282.067 214.589C282.034 214.053 281.573 213.644 281.037 213.677C280.989 213.68 280.941 213.685 280.894 213.696L278.721 227.722L283.334 229.602Z" fill="white"/>
<path d="M292.2 256.616L293.534 251.429C293.814 250.296 293.467 249.563 292.494 249.523L291.64 251.803L278.307 248.216L296.36 240.869L297.134 238.096C297.48 236.763 296.774 236.216 296.107 236.309L295.054 238.589L279.36 234.389V232.536C279.416 232.045 279.064 231.603 278.575 231.547C278.499 231.537 278.423 231.539 278.347 231.549C278.2 232.349 277.92 233.483 277.6 234.616C277.28 235.749 276.934 236.923 276.694 237.789C276.5 238.384 276.824 239.024 277.42 239.219C277.448 239.227 277.478 239.236 277.507 239.243L278.84 236.576L291.334 239.896L275.654 246.216C274.254 246.776 273.76 247.243 273.587 247.896C273.462 248.329 273.426 248.783 273.48 249.229L291.174 253.976L291.027 255.149C290.934 256.109 291.227 256.483 292.254 256.643" fill="white"/>
<path d="M273.147 266.629C276.2 267.856 278.014 266.629 280.547 263.829C282.414 261.656 284.04 260.656 285.88 261.349C287.412 262.244 287.994 264.169 287.214 265.762C286.774 266.886 286.163 267.934 285.4 268.869L282.734 267.722C282.214 268.244 282.216 269.089 282.738 269.608C282.89 269.76 283.075 269.872 283.28 269.936L286.187 271.402C287.139 270.021 287.939 268.542 288.574 266.989C289.907 263.776 289.08 259.776 285.68 258.376C283.667 257.576 281.68 258.282 279.4 260.736C276.36 264.069 274.787 264.362 273.12 263.682C271.451 262.722 270.764 260.666 271.52 258.896C272.654 256.096 274.187 255.242 276.854 256.322C277.427 255.242 277.018 253.904 275.939 253.329C275.888 253.302 275.839 253.278 275.787 253.256C273.374 252.282 271.4 254.189 270.12 257.256C268.6 260.989 269.894 265.256 273.094 266.589" fill="white"/>
<path d="M264.867 273.549L266.64 271.229L281.307 279.055L280.774 280.389C280.374 281.282 280.48 281.722 281.414 282.122C284.16 277.002 284.36 276.589 284.36 276.589C284.907 275.549 284.814 274.842 283.907 274.575L282.574 276.575L267.907 268.775L268.4 266.975C268.654 266.055 268.307 265.642 267.707 265.562C267.32 266.349 266.667 267.615 266.027 268.815C265.387 270.015 264.84 271.055 264.414 271.762C264.006 272.246 264.068 272.97 264.554 273.378C264.636 273.447 264.728 273.505 264.827 273.549" fill="white"/>
<path d="M261.347 288.749C264.187 290.523 266.147 289.629 269.12 287.283C271.36 285.483 273.12 284.749 274.747 285.776C276.134 286.901 276.403 288.912 275.36 290.363C274.72 291.367 273.939 292.275 273.04 293.056L270.614 291.469C270.015 291.897 269.876 292.731 270.306 293.329C270.434 293.508 270.603 293.652 270.8 293.749L273.387 295.683C274.556 294.479 275.602 293.161 276.507 291.749C278.334 288.816 278.254 284.749 275.174 282.789C273.347 281.616 271.174 281.976 268.507 284.016C264.96 286.763 263.374 286.789 261.84 285.816C260.368 284.583 260.038 282.449 261.067 280.829C262.694 278.269 264.347 277.723 266.787 279.229C267.547 278.252 267.371 276.845 266.395 276.085C266.358 276.056 266.319 276.029 266.28 276.003C264.094 274.669 261.787 276.149 259.987 279.003C257.854 282.416 258.4 286.856 261.32 288.683" fill="white"/>
<path d="M159.347 334.576C158.963 334.008 158.192 333.86 157.624 334.243C157.531 334.307 157.447 334.381 157.374 334.469L155.707 336.069C154.296 335.901 152.935 335.447 151.707 334.736C148.2 332.856 146.747 329.136 149.854 323.269C152.254 318.723 156.174 317.936 160.094 320.043C161.155 320.581 162.123 321.288 162.96 322.136L161.4 324.616C162.04 325.309 162.814 325.296 163.64 324.256L165.52 321.763C164.388 320.484 163.034 319.421 161.52 318.629C155.84 315.629 149.84 317.161 146.72 323.029C143.6 328.895 145.08 333.376 150.067 336.001C152.118 337.115 154.402 337.732 156.734 337.803L159.347 334.576Z" fill="white"/>
<path d="M183.227 346.456L180.56 345.256L184.56 329.108L185.894 329.296C186.84 329.388 187.36 329.296 187.52 328.296L181.52 326.776C180.4 326.509 179.76 326.776 179.707 327.668L181.894 328.428L180.134 335.403L169.64 332.736L171.387 325.761L172.947 326.003C173.894 326.123 174.44 326.003 174.587 324.988C168.92 323.655 168.28 323.401 168.28 323.401C167.147 323.136 166.48 323.401 166.454 324.309L168.707 325.083L164.707 341.243H162.627C162.127 341.221 161.704 341.611 161.684 342.111C161.682 342.168 161.686 342.225 161.694 342.281C162.534 342.469 164.054 342.803 165.494 343.149C166.934 343.495 167.76 343.749 168.454 343.948C169.147 344.149 170.067 343.948 170.294 343.189L167.374 341.935L169.24 334.469L179.734 337.136L177.894 344.576H175.814C175.08 344.576 174.747 345.068 174.84 345.576C175.787 345.788 177.28 346.149 178.747 346.508C179.867 346.788 180.92 347.083 181.694 347.268C182.294 347.491 182.962 347.185 183.184 346.584C183.202 346.539 183.216 346.489 183.227 346.441" fill="white"/>
<path d="M199.707 346.389L196.773 346.042L195.92 329.457L197.36 329.215C198.347 329.095 198.693 328.75 198.507 327.762L192.227 328.095C191.08 328.095 190.52 328.615 190.773 329.51L193.133 329.63L194.013 346.202L192.187 346.683C191.28 346.949 191.107 347.482 191.347 348.017C192.213 347.895 193.653 347.843 195.027 347.762C196.4 347.683 197.533 347.642 198.36 347.655C199.027 347.726 199.624 347.242 199.693 346.577C199.703 346.491 199.703 346.407 199.693 346.322" fill="white"/>
<path d="M221.16 336.669C220.436 336.537 219.741 337.017 219.608 337.741C219.593 337.827 219.585 337.915 219.587 338.002L219.373 340.669L212.24 342.523L207.453 326.882L209.12 326.202C210.013 325.83 210.373 325.39 209.987 324.443L203.707 326.39C202.6 326.735 202.2 327.335 202.627 328.137L204.84 327.697L209.72 343.535L208.187 344.482C207.779 344.746 207.66 345.29 207.924 345.698C207.951 345.741 207.98 345.779 208.013 345.815L221.667 341.63L221.16 336.669Z" fill="white"/>
<path d="M237.481 327.561C236.614 327.643 236.041 328.215 236.281 329.523L236.667 331.868L230.107 335.228L226.481 328.948L231.241 326.201L232.174 328.029C232.898 327.893 233.375 327.197 233.239 326.473C233.209 326.305 233.146 326.145 233.054 326.003C232.361 324.828 231.827 323.803 230.961 322.148C230.485 322.177 230.069 322.479 229.894 322.923C229.734 323.481 229.894 323.803 230.387 324.655L225.601 327.416L221.947 321.056L227.894 317.935L229.774 320.228C230.547 320.003 231.107 319.295 230.547 318.535L228.507 315.401L219.441 320.643C216.774 322.161 216.894 322.655 217.521 323.389L219.561 322.468L227.814 336.761L226.587 337.976C226.19 338.304 226.133 338.892 226.461 339.289C226.499 339.335 226.541 339.377 226.587 339.416L238.947 332.296L237.481 327.561Z" fill="white"/>
<path d="M125.387 305.976C125.379 303.693 127.223 301.837 129.507 301.829C131.79 301.821 133.646 303.666 133.654 305.949C133.661 308.232 131.817 310.088 129.534 310.096H129.521C127.243 310.096 125.394 308.253 125.387 305.976Z" fill="white"/>
<path d="M249.8 305.976C249.8 303.7 251.645 301.856 253.92 301.856C256.196 301.856 258.04 303.7 258.04 305.976C258.04 308.252 256.196 310.096 253.92 310.096C251.648 310.088 249.808 308.248 249.8 305.976Z" fill="white"/>
<path d="M273.787 192.283C273.849 174.572 271.205 156.955 265.947 140.043C250.28 89.9892 218.04 67.0292 191.707 67.0292C165.373 67.0292 133.04 90.0958 117.427 140.363C112.208 157.416 109.583 175.156 109.64 192.989C109.64 274.803 156.947 318.909 191.707 318.909C226.467 318.909 273.76 274.149 273.76 192.349M190.307 191.509H112.507C112.595 174.444 115.173 157.483 120.16 141.163C135.253 92.5892 165.84 70.7092 190.307 69.8958V191.509ZM190.307 315.989C158.053 314.789 113.04 273.256 112.507 194.389H190.307V315.989ZM193.16 194.389H270.933C270.16 272.883 225.307 314.803 193.16 316.003V194.389ZM270.933 191.496H193.16V69.8958C217.573 70.7092 248.067 92.5625 263.24 140.883C268.347 157.287 270.94 174.368 270.933 191.549" fill="white"/>
<path d="M227.227 246.655H248.947C249.693 246.606 250.275 245.99 250.28 245.242V221.242C250.28 220.602 250.28 220.082 251.507 220.082C252.733 220.082 252.653 220.669 252.653 221.242V246.829C252.803 247.857 252.092 248.81 251.064 248.961C250.888 248.986 250.709 248.987 250.533 248.962H203.947C202.919 249.106 201.968 248.389 201.825 247.359C201.8 247.183 201.801 247.005 201.827 246.829V221.282C201.827 220.709 201.827 220.122 202.987 220.122C204.147 220.122 204.2 220.642 204.2 221.282V245.282C204.212 246.027 204.789 246.641 205.533 246.695L227.227 246.655Z" fill="white"/>
<path d="M227.24 242.536H244.027C246.587 242.536 246.427 241.349 245.44 240.869C240.667 239.069 233.44 238.723 229.347 240.869C227.68 241.776 228.014 240.109 228.014 239.443V218.029C228.014 216.843 229.347 213.509 241.454 214.029C247.96 214.296 248.027 215.496 248.027 216.363V242.776C248.096 243.812 247.311 244.707 246.275 244.776C246.192 244.781 246.11 244.781 246.027 244.776H208.467C207.438 244.845 206.548 244.067 206.479 243.039C206.474 242.952 206.474 242.864 206.48 242.776V216.296C206.48 215.429 206.48 214.189 213.054 213.963C225.134 213.576 226.48 216.843 226.48 217.963V239.376C226.48 240.056 226.76 241.709 225.147 240.803C221.04 238.656 213.827 239.003 209.147 240.803C208.16 241.269 207.987 242.469 210.56 242.469L227.24 242.536Z" fill="white"/>
<path d="M252.707 146.082C252.28 145.495 251.2 146.162 250.227 146.082C247.334 145.922 245.614 144.562 242.747 144.148C242.024 143.979 241.314 143.77 240.614 143.523C244.254 142.19 246.454 137.722 244.507 136.722C243.854 136.402 243.4 137.642 242.614 138.055C240.48 139.388 238.614 137.842 236.507 139.175C237.399 138.114 238.068 136.886 238.48 135.562C239.68 132.895 241.6 128.11 239.574 128.028C238.88 128.028 238.72 129.268 238.094 129.988C236.16 132.162 234.094 132.655 232.08 134.562C231.494 135.122 230.854 135.628 230.467 135.962C231.52 132.215 229.134 127.802 227.187 128.788C226.547 129.122 227.267 130.201 227.187 131.109C226.987 133.548 224.774 134.148 224.52 136.443C224.223 135.09 223.631 133.819 222.787 132.722C221.307 130.135 218.6 125.788 217.36 127.388C216.907 127.948 217.84 128.829 218.027 129.748C218.68 132.561 217.84 134.615 218.2 137.148C218.2 137.682 218.334 138.282 218.427 138.842C216.187 135.842 211.534 134.908 211.067 136.962C210.934 137.682 212.2 137.828 212.867 138.482C214.574 140.188 213.654 142.255 215.267 144.002C214.02 143.38 212.658 143.023 211.267 142.948C208.347 142.415 203.267 141.708 203.694 143.682C203.84 144.402 205.027 144.228 205.947 144.668C208.507 146.002 209.547 147.935 211.707 149.308C212.174 149.628 212.654 149.948 213.134 150.255C209.4 150.188 205.774 153.268 207.107 154.882C207.587 155.455 208.44 154.523 209.4 154.415C211.827 154.122 212.88 156.148 215.227 155.908C213.967 156.515 212.84 157.362 211.907 158.402C209.72 160.428 206.027 163.948 207.907 164.856C208.547 165.19 209.24 164.081 210.054 163.668C212.72 162.468 214.867 162.842 217.254 161.988C217.774 161.802 218.36 161.628 218.88 161.415C216.387 164.215 216.44 168.948 218.587 168.961C219.307 168.961 219.187 167.628 219.667 166.921C221 164.868 223.2 165.375 224.574 163.428C224.224 164.774 224.16 166.178 224.387 167.548C224.48 170.508 224.827 175.628 226.694 174.802C227.347 174.523 226.907 173.308 227.16 172.388C227.934 169.615 229.6 168.201 230.494 165.721C230.74 165.183 230.932 164.619 231.067 164.042C231.6 167.882 235.534 170.961 236.88 169.268C237.32 168.721 236.214 167.935 235.934 167.148C235.12 164.856 236.894 163.388 236.187 161.11C237.047 162.199 238.118 163.107 239.334 163.776C241.747 165.535 246 168.388 246.467 166.443C246.654 165.721 245.44 165.322 244.88 164.548C243.16 162.268 243.054 160.042 241.734 157.882C241.398 157.356 241.124 156.792 240.92 156.202C244.294 158.295 249.347 157.242 248.92 155.055C248.787 154.308 247.494 154.722 246.614 154.375C244.36 153.535 244.307 151.308 242.28 150.375C243.643 150.384 244.996 150.154 246.28 149.695C249.147 148.962 254.054 147.561 252.947 145.908M240.414 150.228C240.414 157.025 234.903 162.535 228.107 162.535C221.311 162.535 215.8 157.025 215.8 150.228C215.8 143.432 221.311 137.922 228.107 137.922C234.903 137.922 240.414 143.432 240.414 150.228Z" fill="white"/>
<path d="M218.187 150.229C218.164 144.751 222.588 140.291 228.067 140.269C233.545 140.248 238.004 144.671 238.027 150.149C238.048 155.628 233.625 160.087 228.147 160.109C228.129 160.109 228.111 160.109 228.093 160.109C222.629 160.117 218.195 155.693 218.187 150.229Z" fill="white"/>
<path d="M146.027 217.415L148.894 214.629H146.721C145.906 214.643 145.254 215.307 145.254 216.122C145.258 216.669 145.546 217.173 146.014 217.455M162.254 217.415C162.727 217.134 163.027 216.633 163.054 216.082C163.039 215.253 162.362 214.589 161.534 214.589H159.401L162.254 217.415ZM154.094 211.002C154.903 210.946 155.71 211.133 156.414 211.535C157.039 211.857 157.585 212.311 158.014 212.869H162.454C163.693 212.974 164.746 213.817 165.121 215.002C165.827 217.229 163.627 219.163 163.627 219.163C164.561 219.989 172.801 228.082 173.774 229.029C175.347 230.69 175.907 233.067 175.241 235.255C174.854 236.709 173.907 237.215 173.014 236.589C172.121 235.962 161.547 222.389 161.547 222.389C161.547 222.389 161.214 221.935 160.934 222.137C160.654 222.335 160.814 222.549 160.934 222.869C161.054 223.19 172.161 238.095 172.161 238.095C172.891 239.149 173.187 240.443 172.987 241.709C172.614 243.042 170.574 246.229 168.867 246.642C167.59 246.943 166.283 246.27 165.787 245.055C163.801 239.857 158.601 224.175 158.601 224.175C158.601 224.175 158.241 223.095 157.734 223.242C157.227 223.389 157.534 224.402 157.534 224.402L164.454 246.602C164.927 247.871 164.638 249.299 163.707 250.282C162.841 251.202 161.694 252.042 158.041 252.762C157.654 252.762 155.374 252.655 155.161 250.615C154.961 247.842 154.734 224.655 154.734 224.655C154.734 224.655 154.734 223.642 154.121 223.642C153.507 223.642 153.507 224.669 153.507 224.669C153.507 224.669 153.267 247.842 153.054 250.615C152.907 252.642 150.587 252.775 150.187 252.775C146.521 252.042 145.387 251.242 144.494 250.295C143.583 249.311 143.305 247.898 143.774 246.642C144.441 244.402 150.681 224.402 150.681 224.402C150.681 224.402 151.014 223.375 150.481 223.242C149.947 223.11 149.614 224.215 149.614 224.215C149.614 224.215 144.414 239.895 142.454 245.055C141.949 246.29 140.611 246.962 139.321 246.629C137.614 246.175 135.547 243.042 135.187 241.655C134.998 240.395 135.303 239.11 136.041 238.069C136.041 238.069 147.094 223.149 147.267 222.829C147.441 222.509 147.587 222.269 147.267 222.082C146.947 221.895 146.627 222.335 146.627 222.335C146.627 222.335 135.827 235.949 135.147 236.47C134.467 236.989 133.281 236.629 132.921 235.137C132.285 232.966 132.837 230.621 134.374 228.962C135.361 228.015 143.574 219.935 144.507 219.11C144.507 219.11 142.307 217.175 143.014 214.935C143.406 213.735 144.487 212.891 145.747 212.802H150.241C150.682 212.263 151.221 211.811 151.827 211.469C152.521 211.078 153.311 210.893 154.107 210.935" fill="white"/>
<path d="M164.2 137.256C163.316 138.844 162.31 140.36 161.187 141.789C159.854 143.123 163.174 143.509 164.027 142.416C164.88 141.323 166.374 138.603 166.374 138.603C166.374 138.603 166.454 136.429 165.707 135.936C164.96 135.443 164.174 137.269 164.174 137.269M173.974 167.309C174.342 167.779 174.26 168.457 173.791 168.825L173.787 168.829C173.395 169.208 172.771 169.199 172.392 168.808C172.351 168.764 172.312 168.719 172.28 168.669L169.614 165.323C166.947 165.989 162.187 161.443 160.667 160.696C159.147 159.949 156.347 164.696 154.907 161.403C151.894 154.443 143.627 165.909 140.814 165.669C138 165.429 141.307 162.003 140.694 159.723C140.08 157.443 137.36 159.723 135.067 160.349C134.111 160.588 133.139 160.767 132.16 160.883L125.627 168.976C125.33 169.415 124.732 169.529 124.294 169.232C124.246 169.2 124.2 169.163 124.16 169.123C123.691 168.804 123.568 168.167 123.886 167.697C123.904 167.669 123.926 167.643 123.947 167.616L145.574 139.349C145.972 138.767 146.419 138.219 146.907 137.709C148.734 135.776 150.52 135.189 153.04 137.963C154.462 139.672 155.798 141.452 157.04 143.296C158.654 140.629 162.654 135.643 163.707 133.963C164.43 132.679 166.055 132.225 167.339 132.947C167.547 133.064 167.738 133.208 167.907 133.376C169.72 134.843 174.494 141.723 177.36 144.376C177.539 144.492 177.688 144.647 177.8 144.829L180.827 147.883C181.236 148.307 181.226 148.981 180.802 149.391C180.788 149.404 180.775 149.417 180.76 149.429C180.418 149.835 179.812 149.885 179.407 149.543C179.367 149.508 179.328 149.471 179.294 149.429L176.254 146.349C175.267 146.539 174.254 146.539 173.267 146.349C171.934 146.003 169.64 143.936 170.494 147.989C170.76 149.323 171.147 149.976 169.387 150.123C167.627 150.269 162.214 145.349 161.04 146.976C160.774 147.384 160.46 147.759 160.107 148.096C161.787 150.856 174 167.283 174 167.283M146.974 150.643C146.974 148.336 146.76 148.509 148.014 146.643C148.96 145.123 149.054 142.909 149.347 141.109C149.534 140.083 148.36 139.776 148.014 140.976C147.6 141.803 146.68 142.709 146.147 143.643C144.244 146.059 142.463 148.568 140.814 151.163C140.187 152.123 137.16 154.309 137.627 155.843C137.894 156.696 139.454 156.629 141.187 154.829C142.134 153.723 142.387 153.496 143.16 153.389C144.494 153.549 143.16 154.723 144.694 155.163C146.227 155.603 146.974 152.083 146.947 150.669" fill="white"/>
<path d="M368.853 280.002L368.867 186.975H351.08V280.002H368.853Z" fill="white"/>
<path d="M446.787 247.162C446.787 227.589 432.56 212.629 413.8 212.629C395.04 212.629 380.813 227.576 380.813 247.162C380.813 266.748 395.04 281.829 413.8 281.829C432.56 281.829 446.787 266.869 446.787 247.162ZM429.307 247.162C429.307 258.896 422.253 268.496 413.8 268.496C405.347 268.496 398.32 258.949 398.32 247.162C398.32 235.642 405.32 226.042 413.8 226.042C422.28 226.042 429.307 235.629 429.307 247.162Z" fill="white"/>
<path d="M508.04 218.976C503.668 216.207 498.785 214.343 493.68 213.496C490.108 212.683 486.463 212.236 482.8 212.163C466.88 212.163 456.133 220.496 456.133 232.763C456.133 241.496 461.467 247.696 473.093 252.069L484.36 256.416C488.853 258.123 491.027 260.416 491.027 263.309C491.027 266.856 487.253 268.989 480.733 268.989C478.241 268.955 475.772 268.527 473.413 267.723C468.6 266.149 465.947 264.896 459.333 260.816L454 274.469C461.227 278.136 464.173 279.269 470.213 280.549C473.717 281.325 477.291 281.745 480.88 281.803C496.68 281.803 507.107 273.909 507.107 261.909C507.107 256.149 504.44 250.216 500.333 247.403C497.373 245.149 487.92 240.936 480.587 238.363C474.68 236.283 472.413 234.443 472.413 231.469C472.413 227.789 476.627 225.243 483.08 225.243C488.417 225.42 493.615 226.987 498.16 229.789C499.493 230.496 500.933 231.469 502.64 232.616L508.04 218.976Z" fill="white"/>
<path d="M631.827 280.002L598.16 186.975H582.293L548.613 280.002H567.28L574.8 257.055H605.973L613.32 280.042L631.827 280.002ZM601.16 241.949H579.6L590.267 208.295L601.16 241.949Z" fill="white"/>
<path d="M699.506 280.002V231.802C699.506 219.415 693.613 213.135 681.786 213.135C673.413 213.135 666.933 216.655 659.04 225.242V214.402H642.16V279.949H659.054V240.575L661.32 238.149C668.626 230.269 673.013 229.949 676.546 230.149C680.081 230.349 682.6 229.749 682.6 237.909V280.042L699.506 280.002Z" fill="white"/>
<path d="M774.946 280.002V182.082L758.12 186.922V217.136C755.6 215.076 752.592 213.698 749.386 213.136C747.508 212.64 745.57 212.405 743.628 212.442C726.294 212.442 712.348 228.776 712.348 249.096C712.348 267.976 723.733 281.789 739.253 281.789C743.617 281.778 747.884 280.5 751.533 278.109C754.628 276.149 755.733 274.869 758.2 271.069V279.936L774.946 280.002ZM758.12 258.162C754.053 264.509 748.786 268.042 743.628 268.042C735.628 268.042 730.093 259.749 730.093 247.882C730.093 235.482 736.986 226.322 746.294 226.322C751.506 226.322 756.16 228.856 757.294 232.389C757.897 235.156 758.17 237.984 758.106 240.816L758.12 258.162Z" fill="white"/>
<path d="M847.32 273.669L841.107 260.869C835.08 264.682 832.507 265.922 828.56 267.069C826.051 267.842 823.439 268.229 820.813 268.216C814.88 268.318 809.323 265.322 806.147 260.309C804.587 257.642 804.16 255.376 803.893 249.869H847.307V242.682C847.307 224.949 836.04 212.656 819.84 212.656C801.053 212.656 786.987 228.296 786.987 249.029C786.987 269.029 799.253 281.869 818.72 281.869C826.156 281.889 833.509 280.292 840.267 277.189C841.827 276.496 844.267 275.389 847.307 273.682M830.373 239.282H804.76C806.093 230.416 811.2 225.296 818.733 225.296C826.587 225.296 829.973 229.296 830.413 239.282" fill="white"/>
<path d="M907.628 218.976C903.25 216.208 898.362 214.345 893.254 213.496C889.681 212.684 886.037 212.237 882.374 212.163C866.374 212.163 855.708 220.496 855.708 232.763C855.708 241.496 861.041 247.696 872.654 252.069L883.908 256.416C888.44 258.123 890.574 260.416 890.574 263.309C890.574 266.856 886.748 268.989 880.294 268.989C877.798 268.956 875.322 268.528 872.961 267.723C868.173 266.149 865.481 264.896 858.868 260.816L853.534 274.469C860.733 278.136 863.694 279.269 869.748 280.549C873.273 281.329 876.87 281.749 880.481 281.803C896.266 281.803 906.654 273.909 906.654 261.909C906.654 256.149 903.988 250.216 899.921 247.403C896.946 245.149 887.521 240.936 880.173 238.363C874.266 236.283 871.988 234.443 871.988 231.469C871.988 227.789 876.213 225.243 882.654 225.243C887.996 225.409 893.201 226.977 897.748 229.789C899.014 230.496 900.574 231.469 902.241 232.616L907.628 218.976Z" fill="white"/>
<path d="M386.374 137.309V106.642H380.707V135.549C380.707 141.242 380.307 142.829 378.04 145.269C375.57 147.935 372.06 149.395 368.427 149.269C364.827 149.385 361.355 147.923 358.92 145.269C356.68 142.829 356.254 141.269 356.254 135.549V106.709H350.587V137.375C350.587 143.322 352.094 146.989 355.92 150.122C359.499 152.966 363.963 154.462 368.534 154.349C373.088 154.469 377.538 152.971 381.094 150.122C384.907 146.989 386.347 143.455 386.347 137.375" fill="white"/>
<path d="M424.88 152.962V129.455C424.88 123.589 422.213 120.709 416.64 120.709C413.564 120.739 410.596 121.849 408.253 123.842C406.665 125.113 405.225 126.557 403.96 128.149V121.482H398.733V152.962H403.96V133.762C409.427 127.709 412.827 125.362 415.96 125.362C417.256 125.25 418.501 125.894 419.16 127.015C419.584 128.198 419.752 129.457 419.653 130.709V152.962H424.88Z" fill="white"/>
<path d="M442.573 110.575C442.567 108.698 441.039 107.182 439.16 107.189C437.283 107.197 435.767 108.725 435.773 110.602C435.781 112.475 437.301 113.989 439.173 113.989C441.051 113.989 442.573 112.466 442.573 110.589V110.575ZM441.72 121.535H436.52V152.962H441.72V121.535Z" fill="white"/>
<path d="M477.654 121.535H471.987L463.44 147.069L463.334 148.282L463.227 147.002L454.56 121.535H448.854L460.64 153.882H465.454L477.654 121.535Z" fill="white"/>
<path d="M508.653 136.829V133.762C508.653 125.922 503.867 120.696 496.493 120.696C487.547 120.696 481.64 127.282 481.64 137.296C481.64 147.309 487.547 153.869 496.307 153.869C500.307 153.869 502.973 152.949 507.667 150.042L505.573 145.949C502.147 148.309 500.24 149.056 497.4 149.056C491.013 149.056 487.12 144.414 487.12 136.816L508.653 136.829ZM502.933 132.909H487.547C488.72 128.029 491.787 125.429 496.16 125.429C500.533 125.429 502.827 128.029 502.947 132.909" fill="white"/>
<path d="M534.547 122.869C533.537 121.665 532.107 120.893 530.547 120.709C528.187 120.709 526.24 122.229 522.387 127.242V121.522H517.16V152.962H522.373V134.295C525.333 128.855 527.827 126.029 529.8 126.029C530.427 126.029 530.96 126.362 532.027 127.282L534.547 122.869Z" fill="white"/>
<path d="M561.374 144.829C561.374 139.923 559.52 137.763 552.84 134.976C547.16 132.629 546.32 132.163 545.067 130.909C544.571 130.384 544.298 129.685 544.307 128.963C544.307 126.616 546.614 124.963 550.16 124.963C553.058 125.081 555.864 126.005 558.267 127.629L560.854 123.389C558.974 122.244 556.899 121.453 554.734 121.056C553.41 120.845 552.074 120.729 550.734 120.709C543.4 120.709 538.734 124.109 538.734 129.603C538.734 133.403 540.827 135.563 546.947 138.123C552.56 140.443 554.014 141.309 555.28 143.109C555.683 143.759 555.903 144.504 555.92 145.269C555.92 147.709 553.56 149.429 550.387 149.429C547.883 149.352 545.422 148.772 543.147 147.723C542.574 147.456 541.814 147.016 540.774 146.456L538.627 150.856C540.926 152.177 543.44 153.079 546.054 153.523C547.492 153.789 548.951 153.932 550.414 153.949C557.254 153.949 561.36 150.536 561.36 144.909" fill="white"/>
<path d="M577.52 110.575C577.52 108.69 575.992 107.162 574.107 107.162C572.221 107.162 570.693 108.69 570.693 110.575C570.693 112.461 572.221 113.989 574.107 113.989C575.985 113.997 577.513 112.481 577.52 110.602V110.575ZM576.693 121.535H571.467V152.962H576.693V121.535Z" fill="white"/>
<path d="M614.467 152.962V106.709H609.133V122.869C606.975 121.286 604.324 120.521 601.653 120.709C592.32 120.709 585.653 127.975 585.653 138.109C585.653 147.442 591.067 153.882 598.773 153.882C602.787 153.838 606.581 152.051 609.173 148.989V152.989L614.467 152.962ZM609.133 143.389C608.167 144.678 607.023 145.822 605.733 146.789C603.939 148.067 601.815 148.807 599.613 148.922C594.76 148.922 591.213 144.349 591.213 138.042C591.213 130.469 595.533 125.695 602.173 125.695C605.36 125.695 607.507 126.615 608.467 128.362C609.065 129.657 609.292 131.093 609.12 132.509L609.133 143.389Z" fill="white"/>
<path d="M649.493 149.442C647.907 149.136 647.027 148.589 646.827 147.762V128.549C646.827 123.696 642.827 120.696 636.6 120.696C629.933 120.696 625.253 123.576 625.253 127.696C625.224 128.4 625.441 129.093 625.867 129.656L631.133 128.536C630.964 128.165 630.859 127.768 630.827 127.362C630.827 125.549 632.387 124.696 635.627 124.696C639.627 124.696 641.587 126.029 641.587 128.576V134.256L630.707 136.842C626.479 137.508 623.449 141.276 623.707 145.549C623.461 149.88 626.772 153.589 631.103 153.834C631.428 153.853 631.755 153.85 632.08 153.829C634.419 153.789 636.711 153.166 638.747 152.016C639.959 151.321 641.081 150.484 642.093 149.522C642.373 152.482 643.867 153.602 648.2 153.896L649.493 149.442ZM641.64 145.056C637.12 148.349 635.52 149.056 633.213 149.056C631.011 149.218 629.093 147.562 628.931 145.36C628.924 145.258 628.92 145.157 628.92 145.056C628.891 143.86 629.2 142.681 629.813 141.656L641.627 138.589L641.64 145.056Z" fill="white"/>
<path d="M684.801 152.962V106.709H679.467V122.869C677.31 121.282 674.658 120.517 671.987 120.709C662.654 120.709 655.987 127.975 655.987 138.109C655.987 147.442 661.401 153.882 669.094 153.882C673.11 153.855 676.913 152.066 679.494 148.989V152.989L684.801 152.962ZM679.467 143.389C678.509 144.671 677.378 145.815 676.106 146.789C674.302 148.059 672.177 148.798 669.974 148.922C665.134 148.922 661.614 144.349 661.614 138.042C661.614 130.469 665.907 125.695 672.547 125.695C675.746 125.695 677.881 126.615 678.827 128.362C679.406 129.663 679.626 131.094 679.467 132.509V143.389Z" fill="white"/>
<path d="M739.493 152.962V106.709H734.16V122.869C732.012 121.285 729.369 120.518 726.707 120.709C717.373 120.709 710.707 127.975 710.707 138.109C710.707 147.442 716.12 153.882 723.827 153.882C727.808 153.849 731.579 152.087 734.16 149.055V153.055L739.493 152.962ZM734.16 143.389C733.212 144.689 732.071 145.835 730.773 146.789C728.979 148.061 726.863 148.799 724.667 148.922C719.84 148.922 716.28 144.349 716.28 138.042C716.28 130.469 720.575 125.695 727.227 125.695C730.413 125.695 732.56 126.615 733.56 128.362C734.107 129.671 734.312 131.098 734.16 132.509V143.389Z" fill="white"/>
<path d="M774.987 136.829V133.762C774.987 125.922 770.2 120.696 762.88 120.696C753.907 120.696 747.987 127.282 747.987 137.296C747.987 147.309 753.92 153.869 762.653 153.869C766.76 153.869 769.387 152.949 774 150.042L771.933 145.949C768.573 148.309 766.6 149.056 763.773 149.056C757.348 149.056 753.493 144.414 753.493 136.816L774.987 136.829ZM769.333 132.909H753.933C755.107 128.029 758.12 125.429 762.533 125.429C766.947 125.429 769.2 128.029 769.32 132.909" fill="white"/>
</g>
</svg>
