<svg viewBox="0 0 320 63" fill="none" xmlns="http://www.w3.org/2000/svg">
<path d="M56.6464 0H69.2345V62.9404H56.6464V0Z" fill="white"/>
<path d="M163.645 12.5881H176.233V62.9404H163.645V12.5881Z" fill="white"/>
<path d="M144.763 0H195.115V12.5881H144.763V0Z" fill="white"/>
<path d="M0 0H12.5881V62.9404H0V0Z" fill="white"/>
<path d="M22.0292 0H12.5881V44.0583H22.0292C22.0292 44.0583 22.0291 44.0583 22.0292 44.0583C34.1955 44.0583 44.0585 34.1955 44.0585 22.0292C44.0585 9.86279 34.1955 0 22.0292 0C22.0292 0 22.0291 0 22.0292 0Z" fill="white"/>
<path d="M139.774 48.4813C134.174 57.1797 124.406 62.9404 113.293 62.9404C95.9123 62.9404 81.8227 48.8507 81.8227 31.4702C81.8227 14.0897 95.9123 0 113.293 0C124.406 0 134.174 5.76077 139.774 14.4591L127.519 19.0545C124.058 15.0916 118.968 12.5881 113.293 12.5881C102.865 12.5881 94.4107 21.0419 94.4107 31.4702C94.4107 41.8985 102.865 50.3523 113.293 50.3523C118.968 50.3523 124.058 47.8488 127.519 43.886L139.774 48.4813Z" fill="white"/>
<path d="M264.35 31.4702C264.35 48.8507 250.26 62.9404 232.88 62.9404C215.499 62.9404 201.409 48.8507 201.409 31.4702C201.409 14.0897 215.499 0 232.88 0C250.26 0 264.35 14.0897 264.35 31.4702Z" fill="white"/>
<path d="M314.06 15.3378L318.452 5.04217C306.688 -1.83786 296.285 -0.284375 290.542 1.6296C284.799 3.54357 280.523 10.6144 279.786 17.5057C278.611 28.481 286.913 33.273 292.708 35.2823C298.504 37.2917 307.781 38.5474 306.874 45.4439C306.172 50.7753 301.542 51.5122 296.103 51.5947C290.061 51.6864 283.175 45.1218 283.175 45.1218L276.938 53.2602C285.456 64.7474 304.206 66.1507 313.929 56.7216C318.463 52.3243 320.235 48.7078 319.975 42.397C319.559 32.2697 307.457 27.0392 302.417 26.2573C297.377 25.4753 291.085 21.4875 292.708 16.3069C293.996 12.1977 297.154 10.9682 302.417 11.0787C307.68 11.1892 314.06 15.3378 314.06 15.3378Z" fill="white"/>
</svg>
