<?xml version="1.0" encoding="UTF-8"?>
<svg width="71px" height="87px" viewBox="0 0 71 87" version="1.1" xmlns="http://www.w3.org/2000/svg" xmlns:xlink="http://www.w3.org/1999/xlink">
    <!-- Generator: Sketch 59.1 (86144) - https://sketch.com -->
    <title>ser-evaluate</title>
    <desc>Created with Sketch.</desc>
    <g id="Page-1" stroke="none" stroke-width="1" fill="none" fill-rule="evenodd">
        <path d="M10.562332,14.0000609 L10.5804583,17.0000048 L4.19188112,17.0386058 C3.53117971,17.042523 3,17.5751546 3,18.2295316 L3,18.2295316 L3,82.8091019 C3,83.4653926 3.5365285,84.0000014 4.20061807,84.0000014 L4.20061807,84.0000014 L52.7993757,84.0000014 C53.4634353,84.0000014 53.9999752,83.4653827 53.9999752,82.8091019 L53.9999752,82.8091019 L53.9999752,18.2611316 C53.9999752,17.6022021 53.4592247,17.0662894 52.7923353,17.070206 L52.7923353,17.070206 L46.5449381,17.107106 L46.5272191,14.1071597 L52.7746665,14.0702594 C55.1032239,14.0565839 56.9999738,15.936365 56.9999738,18.2611316 L56.9999738,18.2611316 L56.9999738,82.8091019 C56.9999738,85.1246499 55.1178846,87 52.7993757,87 L52.7993757,87 L4.20061807,87 C1.8820792,87 0,85.1246599 0,82.8091019 L0,82.8091019 L0,18.2295316 C0,15.9230934 1.86565254,14.0523462 4.17392496,14.0386609 L4.17392496,14.0386609 L10.562332,14.0000609 Z M67.2611691,40.0000216 C69.3046686,40.0000216 70.9999724,41.5843651 70.9999724,43.59232 L70.9999724,79.812106 L67.7383294,85.6587094 C66.7254205,87.4703841 64.0331577,87.4413069 63.0629565,85.603499 L59.9999724,79.7931669 L59.9999724,43.59232 C59.9999724,41.5843651 61.6952712,40.0000216 63.7387707,40.0000216 L67.2611691,40.0000216 Z M67.2611691,43.0000202 L63.7387707,43.0000202 C63.3084426,43.0000202 62.999971,43.2883027 62.999971,43.59232 L62.999971,79.0508402 L65.4240848,83.6492667 L67.999971,79.031901 L67.999971,43.59232 C67.999971,43.2883027 67.6914972,43.0000202 67.2611691,43.0000202 Z M35.2104838,0 C36.9392211,0 38.3468824,1.38972226 38.3468824,3.11551857 L38.3468824,6.88447683 C38.3468824,6.94469296 38.4029046,7 38.4833823,7 L44.8652794,7 C46.5923821,7 47.9999779,8.39164077 47.9999779,10.1155353 L47.9999779,20.8844304 C47.9999779,22.610263 46.5922611,24.000029 44.8635794,24.000029 L12.1363944,24.000029 C10.4077127,24.000029 8.99999586,22.610263 8.99999586,20.8844304 L8.99999586,10.1155353 C8.99999586,8.38977678 10.407739,7 12.1363944,7 L18.8459913,7 C18.9264691,7 18.9824913,6.94469296 18.9824913,6.88447683 L18.9824913,3.11551857 C18.9824913,1.38972226 20.3901526,0 22.1188898,0 L35.2104838,0 Z M35.2104838,2.99999862 L22.1188898,2.99999862 C22.0384542,2.99999862 21.9824899,3.05524974 21.9824899,3.11551857 L21.9824899,6.88447683 C21.9824899,8.61027504 20.5747177,9.99999862 18.8459913,9.99999862 L12.1363944,9.99999862 C12.0560296,9.99999862 11.9999945,10.0553155 11.9999945,10.1155353 L11.9999945,20.8844304 C11.9999945,20.94473 12.0560091,21.0000303 12.1363944,21.0000303 L44.8635794,21.0000303 C44.9439647,21.0000303 44.9999793,20.94473 44.9999793,20.8844304 L44.9999793,10.1155353 C44.9999793,10.0561963 44.9431342,9.99999862 44.8652794,9.99999862 L38.4833823,9.99999862 C36.754656,9.99999862 35.3468837,8.61027504 35.3468837,6.88447683 L35.3468837,3.11551857 C35.3468837,3.05524974 35.2909194,2.99999862 35.2104838,2.99999862 Z M23.7335898,39.8444231 L46.4017787,39.8444231 C47.2302054,39.8444231 47.901778,39.1728491 47.901778,38.3444231 C47.901778,37.5159956 47.2302054,36.8444231 46.4017787,36.8444231 L23.7335898,36.8444231 C22.9051623,36.8444231 22.2335898,37.5159956 22.2335898,38.3444231 C22.2335898,39.1728491 22.9051623,39.8444231 23.7335898,39.8444231 Z M23.7335898,54.8561162 L46.4017787,54.8561162 C47.2302054,54.8561162 47.901778,54.1845422 47.901778,53.3561162 C47.901778,52.5276887 47.2302054,51.8561162 46.4017787,51.8561162 L23.7335898,51.8561162 C22.9051623,51.8561162 22.2335898,52.5276887 22.2335898,53.3561162 C22.2335898,54.1845422 22.9051623,54.8561162 23.7335898,54.8561162 Z M23.7335898,69.9780092 L46.4017787,69.9780092 C47.2302054,69.9780092 47.901778,69.3064353 47.901778,68.4780092 C47.901778,67.6495818 47.2302054,66.9780092 46.4017787,66.9780092 L23.7335898,66.9780092 C22.9051623,66.9780092 22.2335898,67.6495818 22.2335898,68.4780092 C22.2335898,69.3064353 22.9051623,69.9780092 23.7335898,69.9780092 Z M8.80628146,35.5930632 L15.7626783,42.6603599 C16.3438138,43.25076 17.2935312,43.2582704 17.8839313,42.6771349 C18.4743314,42.0959993 18.4818418,41.146282 17.9007063,40.5558818 L10.9443095,33.4885851 C10.3631739,32.8981849 9.41345655,32.8906745 8.82305642,33.4718101 C8.23265629,34.0529457 8.22514588,35.002663 8.80628146,35.5930632 Z M10.9723094,42.6567599 L17.9287062,35.5894632 C18.5098418,34.999063 18.5023314,34.0493457 17.9119313,33.4682101 C17.3215312,32.8870745 16.3718138,32.8945849 15.7906782,33.4849851 L8.83428145,40.5522818 C8.25314587,41.142682 8.26065628,42.0923993 8.8510564,42.6735349 C9.44145653,43.2546704 10.3911739,43.24716 10.9723094,42.6567599 Z M9.12888131,66.378349 L16.0852781,73.4456458 C16.6664137,74.0360459 17.616131,74.0435563 18.2065312,73.4624207 C18.7969313,72.8812851 18.8044417,71.9315678 18.2233061,71.3411677 L11.2669093,64.2738709 C10.6857737,63.6834708 9.7360564,63.6759604 9.14565627,64.257096 C8.55525614,64.8382315 8.54774574,65.7879489 9.12888131,66.378349 Z M11.2951454,73.4420074 L18.2497422,66.3747107 C18.8308014,65.7842354 18.8231681,64.834519 18.2326928,64.2534598 C17.6422175,63.6724007 16.6925012,63.6800339 16.111442,64.2705092 L9.15684517,71.337806 C8.57578599,71.9282813 8.58341926,72.8779977 9.17389457,73.4590568 C9.76436988,74.040116 10.7140862,74.0324828 11.2951454,73.4420074 Z M10.7728844,52.0463111 C10.2897431,51.3733583 9.35254376,51.2194857 8.679591,51.7026269 C8.00663825,52.1857682 7.85276561,53.1229675 8.33590686,53.7959203 L10.9136057,57.3863186 C11.4642245,58.1532589 12.5779737,58.2269056 13.2247846,57.5391453 L19.6708817,50.6849484 C20.2384267,50.0814723 20.2092989,49.132172 19.6058227,48.564627 C19.0023466,47.9970819 18.0530463,48.0262098 17.4855013,48.6296859 L12.2878246,54.1564253 L10.7728844,52.0463111 Z" id="ser-evaluate" fill="#000000" fill-rule="nonzero"></path>
    </g>
</svg>