<?xml version="1.0" encoding="UTF-8"?>
<svg width="86px" height="89px" viewBox="0 0 86 89" version="1.1" xmlns="http://www.w3.org/2000/svg" xmlns:xlink="http://www.w3.org/1999/xlink">
    <!-- Generator: Sketch 59.1 (86144) - https://sketch.com -->
    <title>ser-talk</title>
    <desc>Created with Sketch.</desc>
    <g id="Page-1" stroke="none" stroke-width="1" fill="none" fill-rule="evenodd">
        <path d="M69.9905,0 C78.8324974,0 86,7.1708431 86,16.01629 L86,45.68629 C86,54.8576503 78.567894,62.29319 69.3987435,62.2931894 L46.1700781,62.2721834 L22.7515599,87.6012575 C20.0758318,90.4928589 15.2415681,88.6135378 15.2223203,84.6742936 L15.1055389,62.2269642 L14.7765501,62.1943393 C6.46616762,61.2868231 0,54.2420812 0,45.68629 L0,16.01629 C0,7.17083322 7.16748245,0 16.0095,0 L69.9905,0 Z M69.9905,3 L16.0095,3 C8.82465067,3 3,8.82737366 3,16.01629 L3,45.68629 C3,53.2015158 9.08784997,59.29319 16.5981,59.29319 L18.0903166,59.29319 L18.2222821,84.6591608 C18.2282313,85.8767197 19.7224849,86.4576111 20.5492151,85.5641819 L44.8591219,59.2709966 L69.4001,59.29319 C76.9107295,59.29319 83,53.2011062 83,45.68629 L83,16.01629 C83,8.82738451 77.1753302,3 69.9905,3 Z M22.5,29.49999 C24.7085,29.49999 26.5,31.28969 26.5,33.49999 C26.5,35.70849 24.7085,37.49999 22.5,37.49999 C20.2915,37.49999 18.5,35.70849 18.5,33.49999 C18.5,31.29149 20.2915,29.49999 22.5,29.49999 Z M62.5,29.49999 C64.7085,29.49999 66.5,31.28969 66.5,33.49999 C66.5,35.70849 64.7103,37.49999 62.5,37.49999 C60.2915,37.49999 58.5,35.70849 58.5,33.49999 C58.5,31.29149 60.2915,29.49999 62.5,29.49999 Z M42.5,28.49999 C44.7085,28.49999 46.5,30.29149 46.5,32.49999 C46.5,34.70849 44.7085,36.49999 42.5,36.49999 C40.2915,36.49999 38.5,34.70849 38.5,32.49999 C38.5,30.29149 40.2897,28.49999 42.5,28.49999 Z" id="ser-talk" fill="#000000" fill-rule="nonzero"></path>
    </g>
</svg>