<?xml version="1.0" encoding="UTF-8"?>
<svg width="12px" height="10px" viewBox="0 0 12 10" version="1.1" xmlns="http://www.w3.org/2000/svg" xmlns:xlink="http://www.w3.org/1999/xlink">
    <!-- Generator: Sketch 59.1 (86144) - https://sketch.com -->
    <title>written-support</title>
    <desc>Created with Sketch.</desc>
    <g id="Page-1" stroke="none" stroke-width="1" fill="none" fill-rule="evenodd">
        <path d="M0.358344605,0.000543 C0.259639605,0.010889 0.168303605,0.057556 0.102081605,0.131478 C0.035859905,0.2054 -0.000519440031,0.301298 5.60497283e-06,0.400543 L5.60497283e-06,7.86721 C5.60497283e-06,7.97329 0.042168105,8.07502 0.117180605,8.15004 C0.192192605,8.22505 0.293927605,8.2672 0.400011605,8.26721 C1.7867256,8.26721 2.8347356,8.33938 3.6666756,8.55887 C4.4986156,8.77837 5.1188756,9.12862 5.7125056,9.74218 C5.7498056,9.78078 5.7944856,9.81138 5.8438756,9.83238 C5.8932656,9.85328 5.9463656,9.86408 6.0000056,9.86408 C6.0536556,9.86408 6.1067456,9.85328 6.1561456,9.83238 C6.2055356,9.81138 6.2502056,9.78078 6.2875056,9.74218 C6.8811456,9.12862 7.5014056,8.77837 8.3333356,8.55887 C9.1652756,8.33938 10.2133056,8.26721 11.6000056,8.26721 C11.7061056,8.2672 11.8078056,8.22505 11.8828056,8.15004 C11.9578056,8.07502 12.0000056,7.97329 12.0000056,7.86721 L12.0000056,0.400543 C12.0000056,0.29446 11.9578056,0.192724 11.8828056,0.117712 C11.8078056,0.0427 11.7061056,0.000554 11.6000056,0.000543 C10.1867056,0.000543 9.0777256,0.066952 8.1291756,0.31721 C7.3088856,0.533627 6.6157356,0.90715 6.0000056,1.45888 C5.3842856,0.90715 4.6911256,0.533627 3.8708456,0.31721 C2.9222956,0.066952 1.8132956,0.000543 0.400011605,0.000543 C0.386131605,-0.000181 0.372223605,-0.000181 0.358344605,0.000543 Z M0.800010605,0.81304 C1.9722156,0.82776 2.9250756,0.89655 3.6666756,1.09221 C4.4466156,1.29798 5.0396756,1.62234 5.6000056,2.16721 L5.6000056,8.60471 C5.0861156,8.22717 4.5189356,7.95486 3.8708456,7.78387 C3.0214856,7.55978 2.0102556,7.49348 0.800010605,7.47971 L0.800010605,0.81304 Z M11.2000056,0.81304 L11.2000056,7.47971 C9.9897556,7.49348 8.9785356,7.55978 8.1291756,7.78387 C7.4810856,7.95486 6.9138956,8.22717 6.4000056,8.60471 L6.4000056,2.16721 C6.9603356,1.62234 7.5533956,1.29798 8.3333356,1.09221 C9.0749456,0.89655 10.0278056,0.82776 11.2000056,0.81304 Z M1.7000056,1.60054 C1.6474756,1.60218 1.5957856,1.61415 1.5478756,1.63576 C1.4999656,1.65738 1.4567856,1.68822 1.4208056,1.72653 C1.3848156,1.76483 1.3567256,1.80985 1.3381356,1.85901 C1.3195556,1.90817 1.3108356,1.96051 1.3124756,2.01304 C1.3141156,2.06558 1.3260856,2.11727 1.3477056,2.16517 C1.3693256,2.21308 1.4001756,2.25625 1.4384856,2.29224 C1.4767956,2.32822 1.5218156,2.35631 1.5709756,2.37489 C1.6201356,2.39347 1.6724756,2.40219 1.7250056,2.40054 C2.6520456,2.42015 3.3897156,2.5434 3.9916756,2.77138 C4.0415356,2.79472 4.0956756,2.80753 4.1507156,2.80899 C4.2057556,2.81045 4.2604956,2.80053 4.3115256,2.77986 C4.3625556,2.75919 4.4087656,2.7282 4.4472656,2.68885 C4.4857656,2.6495 4.5157356,2.60262 4.5352856,2.55115 C4.5548356,2.49968 4.5635556,2.44474 4.5608956,2.38974 C4.5582256,2.33475 4.5442456,2.2809 4.5198156,2.23157 C4.4953856,2.18223 4.4610256,2.13846 4.4189056,2.10301 C4.3767856,2.06756 4.3277956,2.04119 4.2750056,2.02554 C3.5627956,1.75581 2.7322456,1.62149 1.7416756,1.60054 C1.7277956,1.59982 1.7138856,1.59982 1.7000056,1.60054 Z M10.2583056,1.60054 C9.2677656,1.62149 8.4372156,1.75581 7.7250056,2.02554 C7.6722256,2.04119 7.6232356,2.06756 7.5811056,2.10301 C7.5389856,2.13846 7.5046356,2.18223 7.4802056,2.23157 C7.4557756,2.2809 7.4417856,2.33475 7.4391256,2.38974 C7.4364656,2.44474 7.4451756,2.49968 7.4647356,2.55115 C7.4842856,2.60262 7.5142456,2.6495 7.5527556,2.68885 C7.5912556,2.7282 7.6374656,2.75919 7.6884956,2.77986 C7.7395156,2.80053 7.7942656,2.81045 7.8493056,2.80899 C7.9043356,2.80753 7.9584756,2.79472 8.0083456,2.77138 C8.6103056,2.5434 9.3479656,2.42015 10.2750056,2.40054 C10.3275056,2.39945 10.3793056,2.38803 10.4275056,2.36692 C10.4756056,2.34581 10.5191056,2.31543 10.5554056,2.27751 C10.5918056,2.23959 10.6204056,2.19488 10.6395056,2.14593 C10.6586056,2.09698 10.6678056,2.04474 10.6667056,1.99221 C10.6656056,1.93967 10.6542056,1.88787 10.6331056,1.83976 C10.6120056,1.79164 10.5816056,1.74816 10.5437056,1.71179 C10.5057056,1.67542 10.4610056,1.64687 10.4121056,1.62779 C10.3631056,1.6087 10.3109056,1.59944 10.2583056,1.60054 Z M1.7041756,3.06721 C1.6516456,3.06857 1.5998956,3.08027 1.5518856,3.10163 C1.5038656,3.12299 1.4605356,3.1536 1.4243556,3.19172 C1.3881756,3.22983 1.3598556,3.27469 1.3410156,3.32375 C1.3221756,3.37281 1.3131756,3.42509 1.3145456,3.47763 C1.3159156,3.53016 1.3276156,3.58191 1.3489856,3.62992 C1.3703556,3.67793 1.4009756,3.72126 1.4390856,3.75743 C1.4772056,3.79361 1.5220756,3.82192 1.5711256,3.84076 C1.6201856,3.85959 1.6724756,3.86858 1.7250056,3.86721 C2.9056256,3.89719 3.7798156,4.1203 4.4791756,4.48804 C4.5256856,4.51267 4.5765956,4.5279 4.6289956,4.53286 C4.6813856,4.53782 4.7342456,4.5324 4.7845556,4.51693 C4.8348556,4.50146 4.8816256,4.47622 4.9221756,4.44268 C4.9627256,4.40913 4.9962756,4.36792 5.0208956,4.3214 C5.0455256,4.27489 5.0607456,4.22398 5.0656956,4.17158 C5.0706456,4.11918 5.0652256,4.06633 5.0497356,4.01602 C5.0342556,3.96572 5.0090156,3.91896 4.9754656,3.87841 C4.9419056,3.83787 4.9006956,3.80433 4.8541756,3.77971 C4.0277856,3.34517 3.0137156,3.09951 1.7416756,3.06721 C1.7291856,3.06662 1.7166656,3.06662 1.7041756,3.06721 Z M10.2583056,3.06721 C8.9863056,3.09951 7.9722356,3.34517 7.1458456,3.77971 C7.0993256,3.80433 7.0581056,3.83787 7.0245556,3.87841 C6.9909956,3.91896 6.9657556,3.96572 6.9502756,4.01602 C6.9347956,4.06633 6.9293756,4.11918 6.9343256,4.17158 C6.9392656,4.22398 6.9544956,4.27489 6.9791156,4.3214 C7.0037456,4.36792 7.0372856,4.40913 7.0778456,4.44268 C7.1183956,4.47622 7.1651556,4.50146 7.2154656,4.51693 C7.2657656,4.5324 7.3186256,4.53782 7.3710256,4.53286 C7.4234256,4.5279 7.4743256,4.51267 7.5208356,4.48804 C8.2202056,4.1203 9.0943956,3.89719 10.2750056,3.86721 C10.3275056,3.86612 10.3793056,3.8547 10.4275056,3.83359 C10.4756056,3.81248 10.5191056,3.7821 10.5554056,3.74418 C10.5918056,3.70626 10.6204056,3.66155 10.6395056,3.61259 C10.6586056,3.56364 10.6678056,3.51141 10.6667056,3.45887 C10.6656056,3.40634 10.6542056,3.35454 10.6331056,3.30642 C10.6120056,3.25831 10.5816056,3.21482 10.5437056,3.17845 C10.5057056,3.14208 10.4610056,3.11354 10.4121056,3.09445 C10.3631056,3.07536 10.3109056,3.06611 10.2583056,3.06721 Z M1.7041756,4.53387 C1.6516456,4.53524 1.5998956,4.54693 1.5518856,4.5683 C1.5038656,4.58966 1.4605356,4.62027 1.4243556,4.65838 C1.3881756,4.69649 1.3598556,4.74136 1.3410156,4.79041 C1.3221756,4.83947 1.3131756,4.89176 1.3145456,4.94429 C1.3159156,4.99682 1.3276156,5.04857 1.3489856,5.09658 C1.3703556,5.14459 1.4009756,5.18792 1.4390856,5.2241 C1.4772056,5.26028 1.5220756,5.28859 1.5711256,5.30742 C1.6201856,5.32626 1.6724756,5.33525 1.7250056,5.33387 C2.9095956,5.36213 3.7788456,5.58848 4.4833456,5.95471 C4.5778256,6.00333 4.6877556,6.01243 4.7889456,5.98 C4.8901356,5.94757 4.9743056,5.87627 5.0229256,5.78179 C5.0715456,5.68731 5.0806456,5.57738 5.0482156,5.47619 C5.0157856,5.37499 4.9444956,5.29083 4.8500056,5.24221 C4.0250156,4.81333 3.0203156,4.56437 1.7416756,4.53387 C1.7291856,4.53329 1.7166656,4.53329 1.7041756,4.53387 Z M10.2583056,4.53387 C8.9796956,4.56437 7.9749956,4.81333 7.1500056,5.24221 C7.0555256,5.29083 6.9842256,5.37499 6.9517956,5.47619 C6.9193656,5.57738 6.9284656,5.68731 6.9770956,5.78179 C7.0257156,5.87627 7.1098756,5.94757 7.2110656,5.98 C7.3122656,6.01243 7.4221856,6.00333 7.5166756,5.95471 C8.2211656,5.58848 9.0904256,5.36213 10.2750056,5.33387 C10.3275056,5.33279 10.3793056,5.32136 10.4275056,5.30025 C10.4756056,5.27914 10.5191056,5.24876 10.5554056,5.21084 C10.5918056,5.17292 10.6204056,5.12821 10.6395056,5.07926 C10.6586056,5.03031 10.6678056,4.97807 10.6667056,4.92554 C10.6656056,4.87301 10.6542056,4.8212 10.6331056,4.77309 C10.6120056,4.72497 10.5816056,4.68149 10.5437056,4.64512 C10.5057056,4.60875 10.4610056,4.5802 10.4121056,4.56112 C10.3631056,4.54203 10.3109056,4.53277 10.2583056,4.53387 Z M1.7041756,6.00054 C1.6516456,6.0019 1.5998956,6.0136 1.5518856,6.03496 C1.5038656,6.05632 1.4605356,6.08694 1.4243556,6.12505 C1.3881756,6.16316 1.3598556,6.20802 1.3410156,6.25708 C1.3221756,6.30614 1.3131756,6.35842 1.3145456,6.41096 C1.3159156,6.46349 1.3276156,6.51524 1.3489856,6.56325 C1.3703556,6.61126 1.4009756,6.65459 1.4390856,6.69076 C1.4772056,6.72694 1.5220756,6.75526 1.5711256,6.77409 C1.6201856,6.79293 1.6724756,6.80191 1.7250056,6.80054 C2.9033356,6.83043 3.7838456,7.05616 4.4833456,7.42137 C4.5778256,7.47 4.6877556,7.47909 4.7889456,7.44667 C4.8901356,7.41424 4.9743056,7.34294 5.0229256,7.24846 C5.0715456,7.15397 5.0806456,7.04404 5.0482156,6.94285 C5.0157856,6.84166 4.9444956,6.7575 4.8500056,6.70887 C4.0254856,6.27837 3.0129756,6.03278 1.7416756,6.00054 C1.7291856,5.99995 1.7166656,5.99995 1.7041756,6.00054 Z M10.2583056,6.00054 C8.9870356,6.03278 7.9745356,6.27837 7.1500056,6.70887 C7.0555256,6.7575 6.9842256,6.84166 6.9517956,6.94285 C6.9193656,7.04404 6.9284656,7.15397 6.9770956,7.24846 C7.0257156,7.34294 7.1098756,7.41424 7.2110656,7.44667 C7.3122656,7.47909 7.4221856,7.47 7.5166756,7.42137 C8.2161656,7.05616 9.0966756,6.83043 10.2750056,6.80054 C10.3275056,6.79945 10.3793056,6.78803 10.4275056,6.76692 C10.4756056,6.74581 10.5191056,6.71543 10.5554056,6.67751 C10.5918056,6.63959 10.6204056,6.59488 10.6395056,6.54593 C10.6586056,6.49697 10.6678056,6.44474 10.6667056,6.39221 C10.6656056,6.33967 10.6542056,6.28787 10.6331056,6.23975 C10.6120056,6.19164 10.5816056,6.14815 10.5437056,6.11178 C10.5057056,6.07541 10.4610056,6.04687 10.4121056,6.02778 C10.3631056,6.0087 10.3109056,5.99944 10.2583056,6.00054 Z" id="written-support" fill="#000000" fill-rule="nonzero"></path>
    </g>
</svg>