<svg width="14" height="14" viewBox="0 0 14 14" fill="none" xmlns="http://www.w3.org/2000/svg">
<path d="M12.9792 14L9.91667 10.9375C8.8776 11.7578 7.5651 12.25 6.125 12.25C2.7526 12.2682 0 9.51562 0 6.125C0 2.7526 2.7526 0 6.125 0C9.4974 0 12.2682 2.7526 12.2682 6.125C12.2682 7.54687 11.776 8.85938 10.9557 9.91667L14 12.9792L12.9792 14ZM6.125 1.45833C3.55469 1.45833 1.45833 3.55469 1.45833 6.125C1.45833 8.69531 3.55469 10.7917 6.125 10.7917C8.69531 10.7917 10.8099 8.71354 10.8099 6.125C10.8099 3.55469 8.71354 1.45833 6.125 1.45833Z" fill="#041C42"/>
</svg>
