<svg viewBox="0 0 14 14" fill="none" xmlns="http://www.w3.org/2000/svg">
<path d="M13.7075 0.29245C13.3176 -0.0974959 12.6854 -0.0974708 12.2954 0.29245L7 5.58789L1.70457 0.292464C1.31464 -0.0974806 0.682417 -0.0974806 0.292461 0.292464C-0.0974961 0.682435 -0.0974787 1.31465 0.292463 1.7046L5.58788 7L0.292478 12.2954C-0.0974584 12.6854 -0.0974784 13.3176 0.292478 13.7075C0.682433 14.0974 1.31465 14.0974 1.7046 13.7075L7 8.41211L12.2954 13.7075C12.6853 14.0974 13.3176 14.0974 13.7075 13.7075C14.0974 13.3176 14.0974 12.6854 13.7075 12.2954L8.4121 7L13.7075 1.70457C14.0974 1.31462 14.0974 0.68242 13.7075 0.29245Z" fill="#041C42"/>
</svg>
