<svg width="14" height="14" viewBox="0 0 14 14" fill="none" xmlns="http://www.w3.org/2000/svg">
<path d="M5.00313 10.5495C3.59875 10.4762 2.41379 9.93407 1.44828 8.92308C0.482759 7.91209 0 6.69597 0 5.27473C0 3.80952 0.512017 2.5641 1.53605 1.53846C2.56008 0.51282 3.80355 0 5.26646 0C6.68548 0 7.89969 0.483516 8.90909 1.45055C9.9185 2.41758 10.4598 3.61172 10.5329 5.03297L9.15047 4.59341C8.98955 3.65568 8.55068 2.87546 7.83386 2.25275C7.11703 1.63004 6.26123 1.31868 5.26646 1.31868C4.16928 1.31868 3.23668 1.7033 2.46865 2.47253C1.70063 3.24176 1.31661 4.17582 1.31661 5.27473C1.31661 6.25641 1.62748 7.10989 2.24922 7.83517C2.87095 8.56044 3.64995 9.00366 4.58621 9.16483L5.00313 10.5495ZM8.99687 10.7473L8.22884 13.0769C8.17032 13.2381 8.06061 13.315 7.89969 13.3077C7.73877 13.3004 7.63636 13.2161 7.59248 13.0549L5.44201 5.86813C5.41275 5.75092 5.44566 5.64469 5.54075 5.54945C5.63584 5.45421 5.7419 5.42125 5.85893 5.45055L13.0345 7.6044C13.1954 7.64835 13.2795 7.75092 13.2868 7.91209C13.2941 8.07326 13.2173 8.18315 13.0564 8.24176L10.7304 9.01099L13.627 11.9121C13.8757 12.1612 14 12.4469 14 12.7692C14 13.0916 13.8757 13.3773 13.627 13.6264C13.3783 13.8755 13.0893 14 12.7602 14C12.431 14 12.1421 13.8755 11.8934 13.6264L8.99687 10.7473Z" fill="#041C42"/>
</svg>
