<svg width="9" height="14" viewBox="0 0 9 14" fill="none" xmlns="http://www.w3.org/2000/svg">
<path fill-rule="evenodd" clip-rule="evenodd" d="M5.29453 5.35342C5.07422 5.57619 4.80937 5.68757 4.5 5.68757C4.19062 5.68757 3.92578 5.57619 3.70547 5.35342C3.48516 5.13066 3.375 4.86287 3.375 4.55006C3.375 4.23724 3.48516 3.96945 3.70547 3.74669C3.92578 3.52392 4.19062 3.41254 4.5 3.41254C4.80937 3.41254 5.07422 3.52392 5.29453 3.74669C5.51484 3.96945 5.625 4.23724 5.625 4.55006C5.625 4.86287 5.51484 5.13066 5.29453 5.35342ZM1.11797 7.75642C1.86328 8.87024 2.99062 10.0765 4.5 11.3751C6.00938 10.0765 7.13672 8.87024 7.88203 7.75642C8.62734 6.64261 9 5.61173 9 4.66381C9 3.24191 8.54766 2.10914 7.64297 1.26548C6.73828 0.421828 5.69062 0 4.5 0C3.30938 0 2.26172 0.421828 1.35703 1.26548C0.452344 2.10914 0 3.24191 0 4.66381C0 5.61173 0.372656 6.64261 1.11797 7.75642ZM0.14375 13.8482C0.239583 13.9494 0.358333 14 0.5 14H8.5C8.64167 14 8.76042 13.9504 8.85625 13.8512C8.95208 13.7521 9 13.6277 9 13.4781C9 13.3284 8.95208 13.203 8.85625 13.1018C8.76042 13.0006 8.64167 12.95 8.5 12.95H0.5C0.358333 12.95 0.239583 12.9996 0.14375 13.0987C0.0479167 13.1979 0 13.3223 0 13.4719C0 13.6215 0.0479167 13.747 0.14375 13.8482Z" fill="#041C42"/>
</svg>
