<svg width="27" height="28" viewBox="0 0 27 28" fill="none" xmlns="http://www.w3.org/2000/svg">
<ellipse cx="19.4684" cy="21.1766" rx="1.65196" ry="5.92313" transform="rotate(-30 19.4684 21.1766)" fill="#CAE0FF"/>
<circle cx="12.5" cy="9.5" r="8.5" fill="#CAE0FF"/>
<path fill-rule="evenodd" clip-rule="evenodd" d="M2.69995 9.55385C2.69995 14.8303 6.97735 19.1077 12.2538 19.1077C13.3323 19.1077 14.369 18.929 15.336 18.5996L19.5749 25.9416C20.1485 26.935 21.4187 27.2754 22.4121 26.7018L22.5919 26.598C23.5853 26.0245 23.9257 24.7542 23.3522 23.7609L19.0351 16.2836C20.7489 14.5568 21.8076 12.1789 21.8076 9.55385C21.8076 4.2774 17.5302 0 12.2538 0C6.97735 0 2.69995 4.2774 2.69995 9.55385ZM4.1538 9.55385C4.1538 14.0274 7.78029 17.6538 12.2538 17.6538C16.7273 17.6538 20.3538 14.0274 20.3538 9.55385C20.3538 5.08034 16.7273 1.45385 12.2538 1.45385C7.78029 1.45385 4.1538 5.08034 4.1538 9.55385ZM16.836 18.2898L18.0951 17.5629L22.0412 24.3978C22.242 24.7455 22.1228 25.1901 21.7752 25.3908C21.4275 25.5915 20.9829 25.4724 20.7822 25.1247L16.836 18.2898Z" fill="#004079"/>
</svg>
