<svg width="27" height="27" viewBox="0 0 27 27" fill="none" xmlns="http://www.w3.org/2000/svg">
<rect x="1" y="7" width="25" height="16" fill="#CAE0FF"/>
<circle cx="6" cy="6" r="2" fill="#CAE0FF"/>
<path fill-rule="evenodd" clip-rule="evenodd" d="M9.03462 6.33461H24.9231C26.0701 6.33461 27 7.26448 27 8.41153V21.3923C27 22.5394 26.0701 23.4692 24.9231 23.4692H2.07692C0.92987 23.4692 0 22.5394 0 21.3923V8.41153C0 7.26448 0.92987 6.33461 2.07692 6.33461H3.42692C3.42692 4.78609 4.68225 3.53076 6.23077 3.53076C7.77929 3.53076 9.03462 4.78609 9.03462 6.33461ZM7.58077 6.33461C7.58077 5.58902 6.97635 4.98461 6.23077 4.98461C5.48518 4.98461 4.88077 5.58902 4.88077 6.33461H7.58077ZM1.45385 20.4577V13.6038H7.47732C7.34156 14.1176 7.26923 14.6571 7.26923 15.2135C7.26923 18.6833 10.0821 21.4961 13.5519 21.4961C17.0218 21.4961 19.8346 18.6833 19.8346 15.2135C19.8346 14.6571 19.7623 14.1176 19.6265 13.6038H25.5462V20.4577C25.5462 21.318 24.8488 22.0154 23.9885 22.0154H3.01154C2.15125 22.0154 1.45385 21.318 1.45385 20.4577ZM25.5462 12.15V9.34615C25.5462 8.48586 24.8488 7.78845 23.9885 7.78845H3.01154C2.15125 7.78845 1.45385 8.48586 1.45385 9.34615V12.15H8.06543C9.14022 10.2292 11.1944 8.93076 13.5519 8.93076C15.9094 8.93076 17.9636 10.2292 19.0384 12.15H25.5462ZM13.5519 20.0423C10.885 20.0423 8.72308 17.8804 8.72308 15.2135C8.72308 12.5466 10.885 10.3846 13.5519 10.3846C16.2188 10.3846 18.3808 12.5466 18.3808 15.2135C18.3808 17.8804 16.2188 20.0423 13.5519 20.0423Z" fill="#004079"/>
</svg>
