<svg width="27" height="27" viewBox="0 0 27 27" fill="none" xmlns="http://www.w3.org/2000/svg">
<path d="M12.7102 17.8462L7.75101 16.8365L1.79999 16.8365L1.79999 4.71941L7.75101 4.71941L21.6367 2.6999L23.1245 3.70966L22.6286 5.72917L24.1163 6.73892L24.1163 8.25356L25.1081 9.26332L25.6041 10.7779L24.6122 12.2926L26.1 13.8072L24.6122 15.3219L17.6694 15.8267L17.6694 22.3901L15.6857 23.3999L12.7102 17.8462Z" fill="#CAE0FF"/>
<path fill-rule="evenodd" clip-rule="evenodd" d="M22.5944 2.88705C22.3553 2.77114 22.0847 2.70847 21.7984 2.69904L21.7981 2.69904C21.7798 2.69736 21.7353 2.69657 21.6889 2.69574C21.6475 2.69501 21.6046 2.69425 21.5779 2.6928C21.4744 2.69465 21.3572 2.68993 21.2075 2.68391C20.8608 2.66996 20.3395 2.64898 19.41 2.68617C19.1565 2.7099 18.7012 2.73691 18.2021 2.76652C17.5121 2.80746 16.7383 2.85336 16.2983 2.90244C14.7819 3.07478 13.0768 3.29105 11.683 3.49154C10.7517 3.6263 9.96212 3.75163 9.44301 3.85505C9.07187 3.9302 8.73207 4.01797 8.41746 4.14954C8.22847 4.22947 8.04523 4.32896 7.87762 4.45436C7.70665 4.33055 7.49646 4.25757 7.26923 4.25757L1.66154 4.25757C1.08801 4.25757 0.623076 4.72251 0.623076 5.29603L0.623077 16.6153C0.623077 17.1888 1.08801 17.6537 1.66154 17.6537L7.26923 17.6537C7.45233 17.6537 7.62435 17.6063 7.77372 17.5232L9.58616 17.869C11.7119 18.2745 13.3966 19.8987 13.8797 22.0081L13.9908 22.4932C14.3245 23.9505 15.9251 24.7206 17.272 24.0719C18.1176 23.6647 18.6362 22.7897 18.5875 21.8524L18.2929 16.1817C19.7465 16.1817 21.5401 16.2635 22.8183 16.3218C23.526 16.3541 24.0757 16.3791 24.3223 16.3791C24.6433 16.3791 24.9515 16.3102 25.2159 16.1817C25.4802 16.0532 25.7035 15.8684 25.8735 15.6553C26.2133 15.2259 26.3643 14.6995 26.3643 14.1857C26.3643 13.7971 26.2795 13.4086 26.0938 13.0545C26.0568 13.0072 26.0298 12.9701 26.0078 12.9399C25.9128 12.8093 25.9098 12.8051 25.5855 12.6474C25.5855 12.6474 26.0371 12.129 26.0929 11.9922C26.2155 11.6914 26.2754 11.3686 26.2754 11.0522C26.2754 10.6636 26.1904 10.2751 26.0049 9.92102C25.8224 9.57011 25.5267 9.25053 25.1272 9.05629C25.0201 9.00305 24.9007 8.96229 24.7811 8.93096C24.9288 8.60514 25.0044 8.2541 25.0044 7.90638C25.0044 7.52413 24.9195 7.13552 24.737 6.78461C24.5545 6.4337 24.2619 6.114 23.8623 5.92294C23.746 5.86333 23.6169 5.81951 23.4848 5.78818C23.6357 5.45612 23.7113 5.09885 23.7113 4.74169C23.7081 4.36251 23.6326 3.98333 23.4533 3.6356C23.2771 3.28775 22.9877 3.07505 22.5944 2.88705ZM21.6066 3.84563L21.6947 3.84563L21.6948 3.84575L21.7043 3.84575C21.8522 3.84575 21.9528 3.87391 22.0346 3.91148C22.1164 3.95224 22.1824 4.00548 22.2422 4.08063C22.3618 4.22469 22.4435 4.47536 22.4435 4.74169C22.4467 4.94842 22.3964 5.15845 22.3146 5.32136C22.2328 5.48427 22.1258 5.59394 22.0063 5.65661C21.957 5.68303 21.4075 5.74036 20.9508 5.7817C20.6129 5.81229 20.3386 6.10425 20.3386 6.44352C20.3386 6.79229 20.6286 7.0711 20.9771 7.05735L22.9658 6.97886C23.1138 6.97886 23.2175 7.00701 23.3056 7.04777C23.3905 7.08852 23.4629 7.14801 23.5258 7.22634C23.6517 7.38301 23.7366 7.63674 23.7366 7.90626C23.7366 8.10686 23.6894 8.31041 23.6077 8.46402C23.526 8.61762 23.4221 8.72411 23.2963 8.78678C23.2114 8.83059 23.1075 8.85887 22.9659 8.85887L20.7156 8.85887C20.3695 8.85887 20.3638 9.13944 20.3638 9.48554C20.3638 9.83164 20.6443 10.1122 20.9904 10.1122L24.2244 10.1122C24.3722 10.1122 24.4791 10.1405 24.5673 10.1843C24.6554 10.2251 24.7278 10.2845 24.7938 10.3661C24.9259 10.5259 25.0108 10.7828 25.0108 11.0523C25.0139 11.2529 24.9636 11.4502 24.8849 11.6007C24.8031 11.7542 24.7024 11.8576 24.5703 11.9202C24.4822 11.9641 24.3753 11.9923 24.2275 11.9923L21.0108 11.9923C20.6647 11.9923 20.3851 12.2729 20.3851 12.619C20.3851 12.9651 20.6672 13.2457 21.0133 13.2457L24.3165 13.2457C24.4645 13.2457 24.5714 13.2738 24.6595 13.3178C24.7475 13.3585 24.82 13.4181 24.886 13.4995C25.0182 13.6593 25.1032 13.9163 25.1032 14.1857C25.1062 14.3863 25.056 14.5836 24.9773 14.734C24.8956 14.8875 24.7948 14.9909 24.6627 15.0536C24.5746 15.0974 24.4675 15.1257 24.3197 15.1257C24.0522 15.1257 23.4654 15.1177 22.6816 15.1071C21.3186 15.0886 19.5676 15.0621 17.6575 15.0552C17.1802 15.0535 16.8049 15.4613 16.8442 15.9369L17.3332 21.8488C17.3687 22.278 16.8893 22.8804 16.4758 23.0005C15.9843 23.1431 15.2647 22.6426 15.1385 22.1466L14.7177 20.4924C13.6038 18.3287 12.825 17.5232 10.6356 16.6842L8.48852 16.4028C8.38514 16.3893 8.30784 16.3013 8.30784 16.197L8.30784 6.35231C8.30784 6.06089 8.35184 5.86652 8.40849 5.73812C8.46822 5.61279 8.53114 5.53446 8.65071 5.4467C8.72937 5.39027 8.83641 5.33385 8.97479 5.28061C9.16036 5.20864 9.39951 5.14597 9.68893 5.08955C10.4031 4.94536 11.7968 4.73864 13.3289 4.53497C14.3228 4.4032 15.3774 4.31618 16.3551 4.2355C16.8877 4.19155 17.3976 4.14948 17.8624 4.10308C18.7369 4.0152 21.226 3.85505 21.6066 3.84563ZM1.92115 16.0441C1.92115 16.2162 2.06063 16.3557 2.23269 16.3557L6.69808 16.3557C6.87014 16.3557 7.00962 16.2162 7.00962 16.0441L7.00961 5.81528C7.00961 5.64322 6.87013 5.50374 6.69808 5.50374L2.23269 5.50374C2.06063 5.50374 1.92115 5.64322 1.92115 5.81528L1.92115 16.0441Z" fill="#004079"/>
</svg>
