<svg width="27" height="27" viewBox="0 0 27 27" fill="none" xmlns="http://www.w3.org/2000/svg">
<rect x="1" y="5" width="25" height="11" rx="5.5" fill="#CAE0FF"/>
<path d="M13 20L14 15L17 14L21 17L18.5 18.5L20 22L18 23.5L15.5 19L13 20Z" fill="#CAE0FF"/>
<g opacity="0.9">
<path fill-rule="evenodd" clip-rule="evenodd" d="M13.1235 16.6153H6.23077C2.78961 16.6153 0 13.8257 0 10.3846C0 6.94342 2.78961 4.15381 6.23077 4.15381H20.7692C24.2104 4.15381 27 6.94342 27 10.3846C27 13.6029 24.56 16.2513 21.429 16.5808L21.6485 16.7633C21.717 16.8054 21.7787 16.859 21.8305 16.9225C22.0206 17.1288 22.0709 17.4322 21.9496 17.6916C21.8502 17.904 21.6617 18.0391 21.4538 18.0815L19.5653 18.7667L20.3696 20.9695C20.7811 22.0966 20.1982 23.3428 19.0675 23.753C17.9369 24.1632 16.6868 23.5821 16.2753 22.455L15.471 20.2523L13.5213 20.9597C13.5141 20.9623 13.5069 20.9648 13.4996 20.9672C13.3128 21.0686 13.0806 21.0863 12.8669 20.987C12.5782 20.8528 12.4163 20.5416 12.4726 20.229L13.1235 16.6153ZM13.3854 15.1615H6.23077C3.59255 15.1615 1.45385 13.0228 1.45385 10.3846C1.45385 7.74636 3.59255 5.60765 6.23077 5.60765H20.7692C23.4075 5.60765 25.5462 7.74636 25.5462 10.3846C25.5462 13.0228 23.4075 15.1615 20.7692 15.1615H19.7214L15.1691 11.3778C14.9612 11.205 14.6898 11.1751 14.4619 11.2643C14.2282 11.3412 14.038 11.5386 13.9899 11.8056L13.3854 15.1615ZM15.1657 13.1973L19.8767 17.113L17.7038 17.9014L19.0048 21.4647C19.142 21.8403 18.9477 22.2558 18.5708 22.3925C18.1939 22.5292 17.7772 22.3355 17.64 21.9598L16.339 18.3966L14.0817 19.2156L15.1657 13.1973Z" fill="#004079"/>
</g>
</svg>
