<svg width="27" height="27" viewBox="0 0 27 27" fill="none" xmlns="http://www.w3.org/2000/svg">
<path d="M12.7103 9.15376L7.75107 10.1635H1.80005V22.2806H7.75107L21.6368 24.3001L23.1245 23.2903L22.6286 21.2708L24.1164 20.2611V18.7464L25.1082 17.7367L25.6041 16.222L24.6123 14.7074L26.1 13.1928L24.6123 11.6781L17.6694 11.1733V4.60985L15.6858 3.6001L12.7103 9.15376Z" fill="#CAE0FF"/>
<path fill-rule="evenodd" clip-rule="evenodd" d="M22.5944 24.1127C22.3553 24.2286 22.0846 24.2913 21.7984 24.3007H21.798C21.7798 24.3024 21.7352 24.3032 21.6889 24.304C21.6474 24.3047 21.6046 24.3055 21.5778 24.307C21.4744 24.3051 21.3572 24.3098 21.2074 24.3158C20.8607 24.3298 20.3395 24.3508 19.41 24.3136C19.1565 24.2899 18.7012 24.2628 18.2021 24.2332C17.512 24.1923 16.7382 24.1464 16.2983 24.0973C14.7819 23.925 13.0767 23.7087 11.683 23.5082C10.7517 23.3735 9.96209 23.2481 9.44299 23.1447C9.07185 23.0696 8.73204 22.9818 8.41743 22.8502C8.22844 22.7703 8.0452 22.6708 7.87759 22.5454C7.70662 22.6692 7.49643 22.7422 7.2692 22.7422H1.66151C1.08798 22.7422 0.623047 22.2772 0.623047 21.7037V10.3845C0.623047 9.81096 1.08798 9.34603 1.66151 9.34603H7.2692C7.4523 9.34603 7.62432 9.39341 7.77369 9.47659L9.58613 9.1308C11.7118 8.72524 13.3966 7.10107 13.8796 4.99165L13.9907 4.50653C14.3244 3.04927 15.9251 2.27918 17.272 2.92785C18.1176 3.3351 18.6362 4.21007 18.5875 5.14738L18.2928 10.818C19.7465 10.818 21.5401 10.7362 22.8183 10.6779C23.5259 10.6457 24.0756 10.6206 24.3223 10.6206C24.6433 10.6206 24.9515 10.6895 25.2158 10.818C25.4802 10.9465 25.7035 11.1314 25.8734 11.3445C26.2132 11.7738 26.3643 12.3003 26.3643 12.8141C26.3643 13.2027 26.2795 13.5912 26.0938 13.9453C26.0568 13.9926 26.0298 14.0296 26.0078 14.0599C25.9128 14.1905 25.9098 14.1946 25.5854 14.3523C25.5854 14.3523 26.0371 14.8708 26.0928 15.0075C26.2155 15.3084 26.2753 15.6311 26.2753 15.9475C26.2753 16.3362 26.1904 16.7246 26.0048 17.0787C25.8223 17.4296 25.5267 17.7492 25.1271 17.9435C25.0201 17.9967 24.9006 18.0375 24.7811 18.0688C24.9288 18.3946 25.0044 18.7456 25.0044 19.0934C25.0044 19.4756 24.9194 19.8642 24.7369 20.2151C24.5544 20.566 24.2618 20.8858 23.8623 21.0768C23.7459 21.1364 23.6169 21.1802 23.4848 21.2116C23.6357 21.5436 23.7113 21.9009 23.7113 22.2581C23.7081 22.6372 23.6326 23.0164 23.4533 23.3642C23.2771 23.712 22.9877 23.9247 22.5944 24.1127ZM21.6066 23.1541H21.6947L21.6948 23.154H21.7043C21.8521 23.154 21.9528 23.1258 22.0346 23.0883C22.1163 23.0475 22.1823 22.9943 22.2422 22.9191C22.3618 22.7751 22.4435 22.5244 22.4435 22.2581C22.4467 22.0513 22.3964 21.8413 22.3146 21.6784C22.2327 21.5155 22.1258 21.4058 22.0062 21.3431C21.9569 21.3167 21.4075 21.2594 20.9508 21.2181C20.6129 21.1875 20.3386 20.8955 20.3386 20.5562C20.3386 20.2075 20.6286 19.9286 20.9771 19.9424L22.9658 20.0209C23.1138 20.0209 23.2175 19.9927 23.3056 19.952C23.3905 19.9112 23.4629 19.8517 23.5258 19.7734C23.6517 19.6167 23.7366 19.363 23.7366 19.0935C23.7366 18.8929 23.6894 18.6893 23.6077 18.5357C23.5259 18.3821 23.4221 18.2756 23.2963 18.213C23.2113 18.1692 23.1075 18.1409 22.9659 18.1409H20.7155C20.3694 18.1409 20.3637 17.8603 20.3637 17.5142C20.3637 17.1681 20.6443 16.8875 20.9904 16.8875H24.2244C24.3722 16.8875 24.4791 16.8593 24.5672 16.8155C24.6553 16.7747 24.7277 16.7152 24.7937 16.6337C24.9258 16.4738 25.0107 16.2169 25.0107 15.9474C25.0138 15.7468 24.9636 15.5495 24.8849 15.3991C24.8031 15.2456 24.7024 15.1422 24.5703 15.0795C24.4822 15.0357 24.3753 15.0074 24.2274 15.0074H21.0108C20.6647 15.0074 20.3851 14.7268 20.3851 14.3807C20.3851 14.0346 20.6672 13.7541 21.0133 13.7541H24.3165C24.4644 13.7541 24.5714 13.7259 24.6595 13.682C24.7475 13.6412 24.82 13.5816 24.886 13.5002C25.0182 13.3405 25.1031 13.0835 25.1031 12.8141C25.1062 12.6135 25.0559 12.4162 24.9773 12.2657C24.8956 12.1123 24.7948 12.0088 24.6627 11.9462C24.5746 11.9023 24.4675 11.8741 24.3197 11.8741C24.0522 11.8741 23.4654 11.882 22.6816 11.8927C21.3185 11.9111 19.5676 11.9377 17.6574 11.9445C17.1802 11.9462 16.8048 11.5384 16.8442 11.0628L17.3332 5.15091C17.3687 4.72178 16.8893 4.11935 16.4758 3.9993C15.9843 3.85661 15.2646 4.35713 15.1384 4.85313L14.7176 6.50731C13.6038 8.67101 12.825 9.47659 10.6356 10.3155L8.48849 10.5969C8.38511 10.6105 8.30781 10.6985 8.30781 10.8028V20.6474C8.30781 20.9389 8.35181 21.1332 8.40846 21.2616C8.46819 21.387 8.53111 21.4653 8.65068 21.5531C8.72934 21.6095 8.83638 21.6659 8.97476 21.7192C9.16033 21.7911 9.39948 21.8538 9.6889 21.9102C10.403 22.0544 11.7968 22.2611 13.3289 22.4648C14.3228 22.5966 15.3773 22.6836 16.3551 22.7643C16.8877 22.8082 17.3975 22.8503 17.8624 22.8967C18.7369 22.9846 21.226 23.1447 21.6066 23.1541ZM1.92112 10.9556C1.92112 10.7836 2.0606 10.6441 2.23266 10.6441H6.69805C6.87011 10.6441 7.00959 10.7836 7.00959 10.9556V21.1845C7.00959 21.3565 6.8701 21.496 6.69805 21.496H2.23266C2.0606 21.496 1.92112 21.3565 1.92112 21.1845V10.9556Z" fill="#004079"/>
</svg>
