<svg width="27" height="27" viewBox="0 0 27 27" fill="none" xmlns="http://www.w3.org/2000/svg">
<ellipse cx="6.5" cy="11.5" rx="5.5" ry="3.5" fill="#CAE0FF"/>
<ellipse cx="21.5" cy="11.5" rx="5.5" ry="3.5" fill="#CAE0FF"/>
<path fill-rule="evenodd" clip-rule="evenodd" d="M4.15385 7.26904C1.85974 7.26904 0 9.12878 0 11.4229C0 13.717 1.85974 15.5767 4.15385 15.5767H8.30769C9.33849 15.5767 10.2816 15.2013 11.0077 14.5796V19.7306C11.0077 21.2791 12.263 22.5344 13.8115 22.5344H13.9673C15.4298 22.5344 16.6154 21.3488 16.6154 19.8863V19.7306C16.6154 19.3291 16.2899 19.0037 15.8885 19.0037H15.8538C15.4715 19.0037 15.1615 19.3136 15.1615 19.696V19.7306C15.1615 20.4762 14.5571 21.0806 13.8115 21.0806C13.066 21.0806 12.4615 20.4762 12.4615 19.7306V11.319H12.4603C12.4052 9.07292 10.5671 7.26904 8.30769 7.26904H4.15385ZM11.0077 11.4229C11.0077 9.93172 9.79886 8.72289 8.30769 8.72289H7.30888C7.61265 9.20378 7.78846 9.77357 7.78846 10.3844C7.78846 12.105 6.39366 13.4998 4.67308 13.4998C3.0395 13.4998 1.69958 12.2425 1.56825 10.6428C1.49384 10.8898 1.45385 11.1517 1.45385 11.4229C1.45385 12.9141 2.66268 14.1229 4.15385 14.1229H8.30769C9.79886 14.1229 11.0077 12.9141 11.0077 11.4229ZM4.67308 8.72289C3.75543 8.72289 3.01154 9.46679 3.01154 10.3844C3.01154 11.3021 3.75543 12.046 4.67308 12.046C5.59072 12.046 6.33462 11.3021 6.33462 10.3844C6.33462 9.46679 5.59072 8.72289 4.67308 8.72289Z" fill="#004079"/>
<path fill-rule="evenodd" clip-rule="evenodd" d="M18.6923 7.26904C16.3982 7.26904 14.5385 9.12878 14.5385 11.4229C14.5385 13.717 16.3982 15.5767 18.6923 15.5767H22.8462C25.1403 15.5767 27 13.717 27 11.4229C27 9.12878 25.1403 7.26904 22.8462 7.26904H18.6923ZM19.2115 13.4998C17.578 13.4998 16.238 12.2425 16.1067 10.6428C16.0323 10.8898 15.9923 11.1517 15.9923 11.4229C15.9923 12.9141 17.2011 14.1229 18.6923 14.1229H22.8462C24.3373 14.1229 25.5462 12.9141 25.5462 11.4229C25.5462 9.93172 24.3373 8.72289 22.8462 8.72289H21.8473C22.1511 9.20378 22.3269 9.77357 22.3269 10.3844C22.3269 12.105 20.9321 13.4998 19.2115 13.4998ZM17.55 10.3844C17.55 9.46679 18.2939 8.72289 19.2115 8.72289C20.1292 8.72289 20.8731 9.46679 20.8731 10.3844C20.8731 11.3021 20.1292 12.046 19.2115 12.046C18.2939 12.046 17.55 11.3021 17.55 10.3844Z" fill="#004079"/>
</svg>
