<svg width="27" height="27" viewBox="0 0 27 27" fill="none" xmlns="http://www.w3.org/2000/svg">
<rect x="1" y="15" width="25" height="11" rx="1" fill="#CAE0FF"/>
<path d="M6.49902 9.5L10.499 16H16.999L18.999 13L20.499 9.5V5.5L17.999 2L13.999 0.5L9.49902 1.5L6.49902 5.5V9.5Z" fill="#CAE0FF"/>
<g opacity="0.9">
<path fill-rule="evenodd" clip-rule="evenodd" d="M8.00004 2.24952C9.40892 0.860341 11.3573 0 13.4981 0H13.4984C15.6392 0 17.5876 0.856832 19 2.25289C20.4088 3.63856 21.2885 5.56657 21.2885 7.68827C21.2885 8.08577 21.2266 8.48989 21.1442 8.88389C21.0617 9.27789 20.9517 9.65798 20.8452 9.99313C20.6287 10.6634 20.4191 11.1542 20.4122 11.168C20.1682 11.7347 19.742 12.5536 19.419 13.0823L18.5267 14.5385H24.9231C26.0701 14.5385 27 15.4683 27 16.6154V24.9231C27 26.0701 26.0701 27 24.9231 27H2.07692C0.92987 27 0 26.0701 0 24.9231V16.6154C0 15.4683 0.92987 14.5385 2.07692 14.5385H8.49392L7.59815 13.0684C7.29224 12.5674 6.82834 11.7589 6.54659 11.244C6.54526 11.2411 6.54214 11.2351 6.5374 11.2258C6.44357 11.0433 5.71473 9.62554 5.71154 7.68489C5.71154 5.56319 6.59115 3.63519 8.00004 2.24952ZM9.37983 15.9923H3.01154C2.15125 15.9923 1.45385 16.6897 1.45385 17.55V23.9885C1.45385 24.8488 2.15125 25.5462 3.01154 25.5462H23.9885C24.8488 25.5462 25.5462 24.8488 25.5462 23.9885V17.55C25.5462 16.6897 24.8488 15.9923 23.9885 15.9923H17.6358L16.2026 18.331C16.0613 18.5613 15.8786 18.8595 15.6936 19.1614C15.4871 19.4983 15.2778 19.8399 15.1202 20.0968L14.6219 20.9088C14.5051 21.0987 14.354 21.2681 14.1615 21.3959C13.9725 21.5239 13.7388 21.5999 13.4983 21.5999C13.2576 21.6033 13.0205 21.5238 12.8315 21.3959C12.6392 21.2681 12.488 21.0989 12.3711 20.9053L11.8763 20.0933C11.7341 19.8588 11.548 19.553 11.3603 19.2446C11.1581 18.9122 10.954 18.5768 10.8008 18.3242L9.37983 15.9923ZM19.3879 9.98611C19.5253 9.6025 19.6904 9.09108 19.7969 8.59355H19.7972C19.8692 8.26192 19.9104 7.94054 19.9036 7.68138C19.9036 5.94666 19.189 4.37459 18.0275 3.2308C16.866 2.08714 15.2647 1.37879 13.4915 1.37879C11.7184 1.37879 10.1171 2.08701 8.95562 3.2308C7.79426 4.37796 7.07948 5.9468 7.07948 7.68138C7.07599 9.28463 7.72205 10.5391 7.74607 10.577C8.01077 11.0608 8.47468 11.8693 8.76327 12.3393L11.9659 17.595C12.1082 17.8295 12.2943 18.1354 12.482 18.4439C12.6842 18.7762 12.8883 19.1115 13.0415 19.3641L13.4915 20.1002L13.9416 19.3641C14.0829 19.1338 14.2657 18.8356 14.4507 18.5337C14.6571 18.1968 14.8664 17.8553 15.0241 17.5984L18.237 12.3566C18.5084 11.9142 18.938 11.0885 19.1441 10.6116L19.1475 10.6047L19.1612 10.5735C19.1664 10.5579 19.1741 10.5397 19.1832 10.5184C19.1922 10.4973 19.2024 10.4732 19.2127 10.4457C19.2573 10.3385 19.3192 10.1762 19.3879 9.98611Z" fill="#004079"/>
<path fill-rule="evenodd" clip-rule="evenodd" d="M13.5 11.7346C11.3206 11.7346 9.55385 9.96786 9.55385 7.78846C9.55385 5.60906 11.3206 3.84231 13.5 3.84231C15.6794 3.84231 17.4462 5.60906 17.4462 7.78846C17.4462 9.96786 15.6794 11.7346 13.5 11.7346ZM13.5 10.2808C12.1235 10.2808 11.0077 9.16493 11.0077 7.78846C11.0077 6.412 12.1235 5.29615 13.5 5.29615C14.8765 5.29615 15.9923 6.412 15.9923 7.78846C15.9923 9.16493 14.8765 10.2808 13.5 10.2808Z" fill="#004079"/>
</g>
</svg>
