<svg width="27" height="27" viewBox="0 0 27 27" fill="none" xmlns="http://www.w3.org/2000/svg">
<circle cx="13.5" cy="13.5" r="12.5" fill="#CAE0FF"/>
<path d="M12.6692 14.1645C12.6692 14.1575 12.6693 14.1506 12.6695 14.1438C12.6693 14.1369 12.6692 14.13 12.6692 14.1231V7.26923C12.6692 6.86776 12.9947 6.54231 13.3962 6.54231C13.7976 6.54231 14.1231 6.86776 14.1231 7.26923V13.4375H20.25C20.6515 13.4375 20.9769 13.763 20.9769 14.1645C20.9769 14.5659 20.6515 14.8914 20.25 14.8914H13.3962C12.9947 14.8914 12.6692 14.5659 12.6692 14.1645Z" fill="#004079"/>
<path fill-rule="evenodd" clip-rule="evenodd" d="M0 13.5C0 20.9558 6.04416 27 13.5 27C20.9558 27 27 20.9558 27 13.5C27 6.04416 20.9558 0 13.5 0C6.04416 0 0 6.04416 0 13.5ZM1.45385 13.5C1.45385 20.1529 6.84709 25.5462 13.5 25.5462C20.1529 25.5462 25.5462 20.1529 25.5462 13.5C25.5462 6.84709 20.1529 1.45385 13.5 1.45385C6.84709 1.45385 1.45385 6.84709 1.45385 13.5Z" fill="#004079"/>
</svg>
