<svg width="27" height="27" viewBox="0 0 27 27" fill="none" xmlns="http://www.w3.org/2000/svg">
<path d="M1 5H26V22.5H1V5Z" fill="#CAE0FF"/>
<g opacity="0.9">
<path d="M3.32308 7.16553C3.72455 7.16553 4.05 6.84008 4.05 6.43861C4.05 6.03714 3.72455 5.71169 3.32308 5.71169C2.92161 5.71169 2.59615 6.03714 2.59615 6.43861C2.59615 6.84008 2.92161 7.16553 3.32308 7.16553Z" fill="#004079"/>
<path d="M6.54231 6.43861C6.54231 6.84008 6.21685 7.16553 5.81538 7.16553C5.41392 7.16553 5.08846 6.84008 5.08846 6.43861C5.08846 6.03714 5.41392 5.71169 5.81538 5.71169C6.21685 5.71169 6.54231 6.03714 6.54231 6.43861Z" fill="#004079"/>
<path d="M8.30769 7.16553C8.70916 7.16553 9.03462 6.84008 9.03462 6.43861C9.03462 6.03714 8.70916 5.71169 8.30769 5.71169C7.90622 5.71169 7.58077 6.03714 7.58077 6.43861C7.58077 6.84008 7.90622 7.16553 8.30769 7.16553Z" fill="#004079"/>
<path d="M6.43846 11.7348C6.03699 11.7348 5.71154 12.0602 5.71154 12.4617C5.71154 12.8632 6.03699 13.1886 6.43846 13.1886H20.5615C20.963 13.1886 21.2885 12.8632 21.2885 12.4617C21.2885 12.0602 20.963 11.7348 20.5615 11.7348H6.43846Z" fill="#004079"/>
<path d="M5.71154 15.7848C5.71154 15.3833 6.03699 15.0578 6.43846 15.0578H16.4077C16.8092 15.0578 17.1346 15.3833 17.1346 15.7848C17.1346 16.1862 16.8092 16.5117 16.4077 16.5117H6.43846C6.03699 16.5117 5.71154 16.1862 5.71154 15.7848Z" fill="#004079"/>
<path d="M6.43846 18.3809C6.03699 18.3809 5.71154 18.7064 5.71154 19.1078C5.71154 19.5093 6.03699 19.8348 6.43846 19.8348H20.5615C20.963 19.8348 21.2885 19.5093 21.2885 19.1078C21.2885 18.7064 20.963 18.3809 20.5615 18.3809H6.43846Z" fill="#004079"/>
<path fill-rule="evenodd" clip-rule="evenodd" d="M0 4.67323C0 4.0997 0.464935 3.63477 1.03846 3.63477H25.9615C26.5351 3.63477 27 4.0997 27 4.67323V22.3271C27 22.9006 26.5351 23.3655 25.9615 23.3655H1.03846C0.464936 23.3655 0 22.9006 0 22.3271V4.67323ZM25.5462 5.60784V7.78861H1.45385V5.60784C1.45385 5.32108 1.68631 5.08861 1.97308 5.08861H25.0269C25.3137 5.08861 25.5462 5.32108 25.5462 5.60784ZM1.45385 21.3925V9.24246H25.5462V21.3925C25.5462 21.6792 25.3137 21.9117 25.0269 21.9117H1.97308C1.68631 21.9117 1.45385 21.6792 1.45385 21.3925Z" fill="#004079"/>
</g>
</svg>
