<svg width="27" height="27" viewBox="0 0 27 27" fill="none" xmlns="http://www.w3.org/2000/svg">
<rect x="1" y="7" width="25" height="16" fill="#CAE0FF"/>
<g opacity="0.9">
<path d="M11.0077 9.87832C10.7178 9.61871 10.3414 9.45425 9.91731 9.45425H8.82692V10.5446H9.91731C10.2116 10.5446 10.4626 10.7956 10.4626 11.0897V18.7181C10.4626 19.0124 10.2116 19.2634 9.91731 19.2634H8.82692V20.3537H9.91731C10.337 20.3537 10.7178 20.1892 11.0077 19.9296C11.2976 20.1892 11.6784 20.3537 12.0981 20.3537H13.1885V19.2634H12.0981C11.8038 19.2634 11.5528 19.0124 11.5528 18.7181V11.0853C11.5528 10.791 11.7994 10.5402 12.0981 10.5402H13.1885V9.44986H12.0981C11.6784 9.45408 11.2976 9.61431 11.0077 9.87816V9.87832Z" fill="#004079"/>
<path d="M5.08945 10.3847H6.26292L6.26936 10.3845V12.2638H7.37308V13.188H6.26936V17.5866C6.26936 17.8215 6.34865 17.9791 6.51354 18.0595C6.60237 18.1027 6.75463 18.1275 6.96387 18.1275C7.02084 18.1275 7.08123 18.1275 7.14463 18.1245C7.20806 18.1214 7.28412 18.1152 7.36973 18.1028V19.0024C7.23655 19.0396 7.09705 19.0673 6.95434 19.0828C6.8084 19.0983 6.65304 19.1075 6.48492 19.1075C5.94254 19.1075 5.57459 18.9747 5.3812 18.7027C5.18459 18.4307 5.08945 18.0814 5.08945 17.6486V13.1882H4.15385V12.2641H5.08945V10.3847Z" fill="#004079"/>
<path fill-rule="evenodd" clip-rule="evenodd" d="M2.07692 6.33447C0.92987 6.33447 0 7.26434 0 8.4114V21.3922C0 22.5392 0.92987 23.4691 2.07692 23.4691H24.9231C26.0701 23.4691 27 22.5392 27 21.3922V8.4114C27 7.26434 26.0701 6.33447 24.9231 6.33447H2.07692ZM3.01154 7.78832C2.15125 7.78832 1.45385 8.48572 1.45385 9.34601V20.4575C1.45385 21.3178 2.15125 22.0152 3.01154 22.0152H23.9885C24.8488 22.0152 25.5462 21.3178 25.5462 20.4575V9.34601C25.5462 8.48572 24.8488 7.78832 23.9885 7.78832H3.01154Z" fill="#004079"/>
</g>
</svg>
