<svg width="27" height="27" viewBox="0 0 27 27" fill="none" xmlns="http://www.w3.org/2000/svg">
<circle cx="13.5" cy="13.5" r="12.5" fill="#CAE0FF"/>
<path d="M8.30769 10.3846C8.30769 9.81109 8.77263 9.34615 9.34615 9.34615C9.91968 9.34615 10.3846 9.81109 10.3846 10.3846C10.3846 10.9581 9.91968 11.4231 9.34615 11.4231C8.77263 11.4231 8.30769 10.9581 8.30769 10.3846Z" fill="#004079"/>
<path d="M17.6538 9.34615C17.0803 9.34615 16.6154 9.81109 16.6154 10.3846C16.6154 10.9581 17.0803 11.4231 17.6538 11.4231C18.2274 11.4231 18.6923 10.9581 18.6923 10.3846C18.6923 9.81109 18.2274 9.34615 17.6538 9.34615Z" fill="#004079"/>
<path d="M13.1885 18.7962C10.8944 18.7962 9.03462 16.9364 9.03462 14.6423H7.58077V15.0577C7.58077 17.9253 9.90545 20.25 12.7731 20.25H14.2269C17.0946 20.25 19.4192 17.9253 19.4192 15.0577V14.6423H17.9654C17.9654 16.9364 16.1056 18.7962 13.8115 18.7962H13.1885Z" fill="#004079"/>
<path fill-rule="evenodd" clip-rule="evenodd" d="M0 13.5C0 20.9558 6.04416 27 13.5 27C20.9558 27 27 20.9558 27 13.5C27 6.04416 20.9558 0 13.5 0C6.04416 0 0 6.04416 0 13.5ZM1.45385 13.5C1.45385 20.1529 6.84709 25.5462 13.5 25.5462C20.1529 25.5462 25.5462 20.1529 25.5462 13.5C25.5462 6.84709 20.1529 1.45385 13.5 1.45385C6.84709 1.45385 1.45385 6.84709 1.45385 13.5Z" fill="#004079"/>
</svg>
