<svg width="27" height="27" viewBox="0 0 27 27" fill="none" xmlns="http://www.w3.org/2000/svg">
<circle cx="13.5" cy="13.5" r="12.5" fill="#CAE0FF"/>
<path fill-rule="evenodd" clip-rule="evenodd" d="M11.4231 7.06154C11.4231 6.66007 11.7485 6.33462 12.15 6.33462H15.0577C15.4592 6.33462 15.7846 6.66007 15.7846 7.06154V11.3192H19.8346C20.2361 11.3192 20.5615 11.6447 20.5615 12.0462V14.9538C20.5615 15.3553 20.2361 15.6808 19.8346 15.6808H15.7846V19.9385C15.7846 20.3399 15.4592 20.6654 15.0577 20.6654H12.15C11.7485 20.6654 11.4231 20.3399 11.4231 19.9385V15.6808H7.47692C6.9034 15.6808 6.43846 15.2158 6.43846 14.6423V12.0462C6.43846 11.6447 6.76392 11.3192 7.16538 11.3192H11.4231V7.06154ZM12.8769 7.78846H14.3308V12.4615C14.3308 12.6336 14.4702 12.7731 14.6423 12.7731H19.1077V14.2269H14.6423C14.4702 14.2269 14.3308 14.3664 14.3308 14.5385V19.2115H12.8769V14.5385C12.8769 14.3664 12.7374 14.2269 12.5654 14.2269H7.89231V12.7731H12.5654C12.7374 12.7731 12.8769 12.6336 12.8769 12.4615V7.78846Z" fill="#004079"/>
<path fill-rule="evenodd" clip-rule="evenodd" d="M0 13.5C0 20.9558 6.04416 27 13.5 27C20.9558 27 27 20.9558 27 13.5C27 6.04416 20.9558 0 13.5 0C6.04416 0 0 6.04416 0 13.5ZM1.45385 13.5C1.45385 20.1529 6.84709 25.5462 13.5 25.5462C20.1529 25.5462 25.5462 20.1529 25.5462 13.5C25.5462 6.84709 20.1529 1.45385 13.5 1.45385C6.84709 1.45385 1.45385 6.84709 1.45385 13.5Z" fill="#004079"/>
</svg>
