<svg width="27" height="27" viewBox="0 0 27 27" fill="none" xmlns="http://www.w3.org/2000/svg">
<path d="M24 1H8V4L2 9V26H19V22H24V1Z" fill="#CAE0FF"/>
<path d="M6.54239 13.0846C6.14092 13.0846 5.81547 13.4101 5.81547 13.8115C5.81547 14.213 6.14092 14.5385 6.54239 14.5385H15.4732C15.8746 14.5385 16.2001 14.213 16.2001 13.8115C16.2001 13.4101 15.8746 13.0846 15.4732 13.0846H6.54239Z" fill="#004079"/>
<path d="M5.81547 17.2385C5.81547 16.837 6.14092 16.5115 6.54239 16.5115H15.4732C15.8746 16.5115 16.2001 16.837 16.2001 17.2385C16.2001 17.6399 15.8746 17.9654 15.4732 17.9654H6.54239C6.14092 17.9654 5.81547 17.6399 5.81547 17.2385Z" fill="#004079"/>
<path d="M6.54239 19.8346C6.14092 19.8346 5.81547 20.1601 5.81547 20.5615C5.81547 20.963 6.14092 21.2885 6.54239 21.2885H15.4732C15.8746 21.2885 16.2001 20.963 16.2001 20.5615C16.2001 20.1601 15.8746 19.8346 15.4732 19.8346H6.54239Z" fill="#004079"/>
<path fill-rule="evenodd" clip-rule="evenodd" d="M6.85393 4.15384V0.311538C6.85393 0.13948 6.99341 0 7.16547 0H24.6116C24.7837 0 24.9232 0.13948 24.9232 0.311538V22.5346C24.9232 22.7067 24.7837 22.8462 24.6116 22.8462H19.7309V26.6885C19.7309 26.8605 19.5914 27 19.4193 27H1.97316C1.8011 27 1.66162 26.8605 1.66162 26.6885V8.61429L5.91931 4.15384H6.85393ZM8.30777 4.15384H19.4193C19.5914 4.15384 19.7309 4.29333 19.7309 4.46538V21.3923H23.4693V1.45385H8.30777V4.15384ZM3.11547 25.5462V10.8H7.58085C7.98232 10.8 8.30777 10.4745 8.30777 10.0731V5.60769H13.2924H18.277V25.5462H3.11547ZM6.85393 9.34615H3.31018L6.85393 5.60769V9.34615Z" fill="#004079"/>
</svg>
