<svg width="27" height="27" viewBox="0 0 27 27" fill="none" xmlns="http://www.w3.org/2000/svg">
<path d="M4 1H22.5L23 4H26V8.5H23V22.5H21V26H18V23H9.5L8.5 26H6V23L4 22.5L3.5 8.5H1V4.5H4V1Z" fill="#CAE0FF"/>
<path d="M6.74983 19.5231C6.74983 19.1216 7.07528 18.7962 7.47675 18.7962H9.13829C9.53976 18.7962 9.86521 19.1216 9.86521 19.5231C9.86521 19.9245 9.53976 20.25 9.13829 20.25H7.47675C7.07528 20.25 6.74983 19.9245 6.74983 19.5231Z" fill="#004079"/>
<path d="M17.8614 18.7962C17.4599 18.7962 17.1344 19.1216 17.1344 19.5231C17.1344 19.9245 17.4599 20.25 17.8614 20.25H19.5229C19.9244 20.25 20.2498 19.9245 20.2498 19.5231C20.2498 19.1216 19.9244 18.7962 19.5229 18.7962H17.8614Z" fill="#004079"/>
<path fill-rule="evenodd" clip-rule="evenodd" d="M4.6729 0C3.81261 0 3.11521 0.697403 3.11521 1.55769V3.63462H1.76521C0.904922 3.63462 0.20752 4.33202 0.20752 5.19231V7.68462C0.20752 8.54491 0.904922 9.24231 1.76521 9.24231H3.11521V21.9115C3.11521 22.7718 3.81261 23.4692 4.6729 23.4692H5.19213V24.7154C5.19213 25.9771 6.21499 27 7.47675 27C8.73851 27 9.76136 25.9771 9.76136 24.7154V23.4692H17.2383V24.7154C17.2383 25.9771 18.2611 27 19.5229 27C20.7847 27 21.8075 25.9771 21.8075 24.7154V23.4692H22.3267C23.187 23.4692 23.8844 22.7718 23.8844 21.9115V9.24231H25.2344C26.0947 9.24231 26.7921 8.54491 26.7921 7.68462V5.19231C26.7921 4.33202 26.0947 3.63462 25.2344 3.63462H23.8844V1.55769C23.8844 0.697403 23.187 0 22.3267 0H4.6729ZM3.11521 7.78846V5.08846H1.9729C1.80085 5.08846 1.66137 5.22794 1.66137 5.4V7.47692C1.66137 7.64898 1.80085 7.78846 1.9729 7.78846H3.11521ZM25.0267 7.78846H23.8844V5.08846H25.0267C25.1988 5.08846 25.3383 5.22794 25.3383 5.4V7.47692C25.3383 7.64898 25.1988 7.78846 25.0267 7.78846ZM18.6921 23.4692V24.7154C18.6921 25.1742 19.0641 25.5462 19.5229 25.5462C19.9817 25.5462 20.3537 25.1742 20.3537 24.7154V23.4692H18.6921ZM6.64598 24.7154V23.4692H8.30752V24.7154C8.30752 25.1742 7.93557 25.5462 7.47675 25.5462C7.01793 25.5462 6.64598 25.1742 6.64598 24.7154ZM22.4306 3.63462V1.97308C22.4306 1.68631 22.1981 1.45385 21.9114 1.45385H5.08829C4.80153 1.45385 4.56906 1.68631 4.56906 1.97308V3.63462H22.4306ZM4.56906 5.08846V16.3038H22.4306V5.08846H4.56906ZM4.56906 21.4962V17.7577H22.4306V21.4962C22.4306 21.7829 22.1981 22.0154 21.9114 22.0154H5.08829C4.80153 22.0154 4.56906 21.7829 4.56906 21.4962Z" fill="#004079"/>
</svg>
