<?xml version="1.0" encoding="UTF-8"?>
<svg fill="none" version="1.1" viewBox="0 0 320 298" xmlns="http://www.w3.org/2000/svg">
  <g clip-path="url(#clip0_707_5589)">
    <rect width="320" height="298" fill="#F6C254"/>
    <path d="m0 297v-297h320c0 98.348-0.079 198.36-0.079 296.71-0.08 0.609-0.58 0.639-1.02 0.699-0.49 0.07-1.001 0.04-1.501 0.04h-206.45c-2.701 0-2.931-0.16-2.761-2.846 0.35-5.424 0.66-10.847 1-16.28 0.22-3.436 0.341-6.882 0.571-10.317 0.32-4.724 0.6-9.439 0.89-14.163 0.21-3.316 0.42-6.631 0.58-9.947 0.18-3.566 0.47-7.121 0.67-10.687 0.17-2.946 0.391-5.883 0.521-8.819 0.2-4.684 0.78-9.358 0.56-14.063-0.2-4.184-0.48-8.369-0.65-12.554-0.12-2.946-0.431-5.883-0.331-8.839 0.06-1.878 0.831-2.437 2.681-1.888 1.881 0.56 3.612 1.509 5.362 2.358 4.382 2.097 8.914 3.725 13.776 4.224 5.392 0.56 10.414-0.649 15.085-3.366 4.992-2.906 8.814-7.041 12.175-11.645 1.421-1.948 2.761-3.955 3.922-6.073 0.74-1.348 1.91-2.297 2.991-3.325 0.94-0.899 1.62-0.67 1.9 0.649 0.471 2.277 0.831 4.574 1.241 6.861 0.49 2.737 0.97 5.483 1.46 8.22 0.14 0.769 0.391 1.059 1.241 0.899 2.161-0.41 4.332-0.799 6.512-1.139 0.921-0.139 1.341-0.479 1.141-1.568-1.071-5.922-2.111-11.855-3.151-17.788-0.471-2.696-0.931-5.403-1.431-8.099-0.16-0.859-0.03-1.628 0.39-2.398 1.251-2.297 2.421-4.644 3.512-7.031 0.56-1.218 0.93-1.418 2.26-1.128 4.532 0.968 9.114 1.498 13.746 1.458 3.571-0.03 7.152 0 10.694-0.689-3.292 0.559-6.623 0.569-9.934 0.639-2.781 0.06-5.572-0.11-8.333-0.47-1.731-0.219-3.462-0.479-5.172-0.848-2.061-0.45-2.331-0.909-1.511-2.807 0.941-2.177 1.831-4.375 2.671-6.592 0.66-1.758 1.151-3.555 1.561-5.383 0.03-0.12 0.09-0.24 0.08-0.36-0.04-0.589 0.3-1.388-0.47-1.648-0.691-0.229-0.961 0.51-1.271 0.969-0.49 0.719-0.81 1.548-1.23 2.307-0.29 0.52-0.521 1.439-1.181 1.229-0.69-0.22-0.36-1.089-0.24-1.668 0.3-1.378 0.58-2.767 0.85-4.155 0.351-1.798 0.661-3.595 0.571-5.433-0.02-0.53 0.08-1.179-0.631-1.329-0.74-0.159-0.98 0.48-1.24 0.999-0.36 0.709-0.5 1.498-0.84 2.217-0.15 0.32-0.31 0.799-0.751 0.69-0.4-0.1-0.44-0.58-0.44-0.949 0-0.829 0.28-1.658 0.1-2.477-0.11-0.529-0.09-1.299-0.81-1.388-0.62-0.08-0.89 0.539-1.15 0.998-0.491 0.869-0.771 1.838-1.151 2.757-0.15 0.369-0.31 0.919-0.8 0.799-0.44-0.1-0.49-0.649-0.47-1.059 0.03-0.749 0.07-1.488-0.09-2.237-0.06-0.3-0.171-0.579-0.501-0.649s-0.54 0.15-0.72 0.389c-0.28 0.36-0.48 0.769-0.68 1.189-0.35 0.709-0.63 1.448-0.971 2.157-0.16 0.33-0.32 0.759-0.75 0.729-0.49-0.03-0.64-0.499-0.73-0.899-0.49-2.277-0.89-4.564-1.221-6.871-0.16-1.119 0.311-1.578 1.711-1.818 2.911-0.489 5.812-1.039 8.723-1.548 10.564-1.858 21.138-3.715 31.702-5.583 14.496-2.557 29.001-5.114 43.497-7.67 11.424-2.0179 22.859-4.0254 34.283-6.0629 5.322-0.9488 10.654-1.8676 15.976-2.8164 1.891-0.3396 1.901-0.3696 1.581-2.2273-1.791-10.397-3.542-20.804-5.302-31.201-0.551-3.2359-1.121-6.4719-1.661-9.7079-0.27-1.628-0.32-1.6679-1.891-1.3783-12.194 2.2273-24.379 4.4745-36.574 6.7117-18.127 3.3158-36.243 6.6517-54.37 9.9676-14.446 2.6467-28.881 5.3034-43.327 7.9501-2.01 0.3695-2.391 0.0799-2.751-1.9576-0.22-1.2684-0.47-2.5368-0.68-3.8053-0.12-0.749-0.42-1.1186-1.23-0.9987-2.301 0.3595-4.592 0.809-6.883 1.1985-0.92 0.1598-0.94 0.6792-0.8 1.4582 1.39 7.8502 2.801 15.7 4.171 23.561 2.451 14.033 4.982 28.055 7.413 42.088 0.16 0.899 0.38 1.788 0.48 2.696 0.06 0.52 0.26 1.139-0.32 1.479-0.49 0.289-0.97-0.03-1.4-0.27-1.911-1.109-3.752-2.327-5.533-3.626-8.943-6.551-16.386-14.561-22.678-23.66-0.52-0.749-0.78-1.498-0.58-2.447 0.34-1.558-0.14-3.046-0.561-4.524-0.13-0.47-0.44-0.999-0.07-1.429 0.431-0.489 1.001-0.169 1.521-0.04 1.32 0.34 2.631 0.799 4.031 0.27 1.321-0.499 1.531-1.318 0.561-2.337-0.641-0.6692-1.441-1.1186-2.241-1.5581-0.77-0.4195-1.581-0.7391-2.341-1.1885-0.75-0.4395-0.79-0.9988-0.23-1.638 0.25-0.2796 0.55-0.5093 0.84-0.739 7.333-6.0725 10.914-13.923 10.264-23.371-0.94-13.763-11.494-23.87-24.079-25.348-8.453-0.9888-15.836 1.4482-22.068 7.1311-4.8919 4.4644-7.7729 10.097-8.5732 16.729-1.0104 8.3895 1.4105 15.74 7.0226 21.953 4.452 4.9139 10.074 7.81 16.696 8.669 2.451 0.32 4.882 0.33 7.333 0 1.561-0.21 1.881 0.14 1.621 1.718-0.27 1.578-0.21 3.146-0.16 4.724 0.05 1.219 0.64 2.098 1.46 2.217 1.101 0.16 1.801-0.459 2.341-1.328 0.04-0.07 0.07-0.15 0.11-0.22 0.86-1.578 1.151-1.598 2.141-0.11 0.68 1.029 1.541 1.748 2.851 1.698 1.01-0.04 1.591 0.57 2.111 1.319 2.671 3.825 5.522 7.5 8.653 10.956 5.702 6.282 12.075 11.785 19.367 16.17 1.991 1.198 2.011 1.428 1.531 3.715-1.01 4.874-4.071 8.48-7.213 12.045-1.59 1.808-3.361 3.456-5.292 4.914-6.432 4.864-13.465 5.434-20.958 3.076-4.211-1.328-8.283-3.026-12.414-4.594-4.112-1.548-8.313-2.686-12.715-2.946-3.241-0.19-6.3826 0.379-9.4337 1.468-2.9912 1.069-2.8911 1.039-4.2917-1.858-1.4605-3.016-1.9807-6.182-2.2608-9.488-0.5902-6.801-1.7007-13.523-4.0015-19.985-1.1605-3.256-2.521-6.432-5.072-8.919-0.4201-0.409-0.8603-0.779-1.3405-1.119-2.2108-1.538-4.5017-1.398-6.4724 0.45-2.3109 2.157-3.6714 4.924-4.7818 7.8-0.7203 1.858-1.0804 2.088-2.7711 1.968-1.4705-0.11-2.681 1.078-2.9711 2.816-0.2701 1.668-0.03 3.256 1.3605 4.435 0.8703 0.739 1.0804 1.608 0.8203 2.676-1.2004 4.934-1.9607 9.938-2.611 14.972-0.2901 2.247-1.1804 4.324-1.9507 6.432-0.3801 1.029-0.8303 1.158-2.0008 0.679-2.0407-0.819-4.0615-1.708-6.2223-2.207-10.464-2.417-19.477 0.389-27.3 7.49-6.9426 6.303-10.174 14.392-11.384 23.491-0.8603 6.482-1.2204 12.994-0.9703 19.516 0.2601 6.881 0.7602 13.753 1.6106 20.594 0.3301 2.717 0.3501 5.463 0.6102 8.2 0.4302 4.544 0.7503 9.099 1.1404 13.643 0.3602 4.175 0.6703 8.36 1.1205 12.524 0.18 1.608 0.3201 3.226 0.7102 4.805 0.1001 0.409 0.2101 0.809 0.4002 1.178 0.17 0.33 0.2901 0.749 0.7303 0.769 0.4801 0.02 0.7202-0.369 0.9203-0.739 0.5102-0.959 0.7603-2.017 1.0304-3.066 0.13-0.52 0.2201-1.059 0.5002-1.538 0.14-0.24 0.3101-0.55 0.6502-0.45 0.2701 0.08 0.2901 0.38 0.3302 0.62 0.03 0.209-0.0101 0.419-0.0201 0.619-0.07 2.826-0.02 5.653-0.03 8.479 0 0.759 0.1301 1.488 0.2901 2.217 0.1101 0.53 0.2201 1.139 0.9004 1.189 0.8103 0.06 0.8703-0.669 1.0204-1.199 0.19-0.639 0.2201-1.308 0.3901-1.947 0.08-0.31 0.1501-0.729 0.5402-0.759 0.4602-0.04 0.6103 0.379 0.7103 0.739 0.2201 0.839 0.1701 1.748 0.5402 2.547 0.1701 0.359 0.2701 0.849 0.8003 0.839 0.5002-0.01 0.6803-0.44 0.8403-0.819 0.4202-0.999 0.6103-2.068 0.8003-3.136 0.06-0.36 0.1101-0.859 0.5202-0.909 0.5302-0.06 0.5802 0.499 0.7203 0.869 0.2001 0.549 0.15 1.158 0.3801 1.698 0.1601 0.379 0.2401 0.848 0.7603 0.878 0.5302 0.03 0.6603-0.419 0.8203-0.799 0.7503-1.827 0.9504-3.785 1.2705-5.702 0.3502-2.088 0.6102-4.195 0.8403-6.303 0.0501-0.449 0.1401-0.908 0.2801-1.338 0.0801-0.24 0.1901-0.539 0.4402-0.559 0.3401-0.03 0.4802 0.299 0.5702 0.569 0.3902 1.189 0.5102 2.437 0.9504 3.616 0.2801 0.749 0.5602 1.428 1.4305 1.737 0.7703 0.27 0.9104 1.029 0.9104 1.768 0.01 1.748 0.19 3.486 0.2201 5.224 0.08 4.654 0.3601 9.298 0.6202 13.932 0.2101 3.676-0.2801 3.226-2.9011 4.125-3.8415 1.329-7.1327 3.406-9.3235 6.922-0.6203 0.988-1.4906 1.218-2.551 1.208h-11.614-10.494-1.8807v-0.44z" fill="#A1C9FF"/>
    <path d="m0 297c8.0731 0 16.226-0.029 24.299 0.01 0.9704 0 1.4906-0.229 2.0208-1.128 2.0307-3.456 5.272-5.443 8.9234-6.842 0.4301-0.159 0.8603-0.299 1.3004-0.439 2.0208-0.629 1.9808-0.629 1.8708-2.817-0.3302-6.601-0.6203-13.203-0.9304-19.805-0.03-0.699 0.1701-1.488-1.0504-1.448-0.6102 0.02-0.8403-0.729-1.0504-1.269-0.6202-1.538-0.8003-3.186-1.2405-5.083-0.5702 4.334-0.9503 8.389-1.8407 12.364-0.18 0.809-0.4501 1.598-0.7402 2.367-0.1701 0.46-0.4502 0.909-1.0604 0.909-0.6803 0-0.9604-0.519-1.1105-1.018-0.2701-0.949-0.4201-1.938-0.6802-3.186-0.2901 1.598-0.4302 2.966-0.9704 4.234-0.2601 0.609-0.5302 1.279-1.3905 1.189-0.7603-0.08-1.0204-0.699-1.1705-1.289-0.2601-1.068-0.4301-2.157-0.6802-3.485-0.2601 1.278-0.4602 2.287-0.6603 3.296-0.14 0.739-0.5202 1.228-1.3105 1.258-0.8403 0.04-1.1604-0.569-1.3505-1.228-0.4101-1.409-0.4001-2.877-0.4201-4.325-0.03-2.617 0-5.234 0-7.621-0.3302 0.53-0.3202 1.459-0.6403 2.298-0.3201 0.849-0.5802 1.727-0.9403 2.566-0.2301 0.54-0.6403 1.039-1.3105 0.969-0.6503-0.06-1.0004-0.559-1.2005-1.138-0.6802-2.028-0.8903-4.135-1.0804-6.243-0.8203-9.308-1.6706-18.616-2.3809-27.935-0.8203-10.806-2.3209-21.573-2.1308-32.45 0.14-7.53 0.4702-15.081 2.7911-22.292 3.6513-11.336 10.934-19.346 22.558-22.891 7.3328-2.238 14.476-1.249 21.318 2.077 0.8903 0.44 1.0504 0.23 1.4005-0.589 1.8407-4.355 2.0608-9.029 2.8711-13.593 0.5002-2.777 1.0004-5.553 1.7006-8.29 0.1601-0.639 0.0701-1.009-0.5402-1.428-2.3909-1.628-2.5609-5.803-0.3601-7.671 0.7703-0.659 1.7106-1.028 2.661-0.629 0.9604 0.4 1.0904-0.11 1.3405-0.789 0.8003-2.137 1.7507-4.215 2.9811-6.142 0.5803-0.909 1.2505-1.758 2.0408-2.507 2.3209-2.217 4.8318-2.427 7.4328-0.559 2.661 1.917 4.2016 4.674 5.4521 7.59 2.3009 5.343 3.4313 10.986 4.2916 16.699 0.5002 3.326 0.8403 6.672 1.0804 10.028 0.1201 1.768 1.1605 3.266 1.7607 4.884 0.3601 0.969 0.5802 2.277 1.3105 2.736 0.6702 0.42 1.7707-0.529 2.691-0.849 6.1228-2.107 12.195-1.598 18.257 0.24 4.812 1.458 9.394 3.566 14.135 5.204 2.361 0.809 4.752 1.478 7.233 1.837 6.643 0.979 12.275-1.188 17.237-5.473 3.461-2.986 6.322-6.492 8.793-10.307 1.291-1.997 1.671-4.394 2.241-6.692 0.16-0.649-0.33-0.769-0.71-0.988-4.842-2.797-9.304-6.113-13.455-9.848-5.933-5.334-11.105-11.336-15.606-17.918-0.521-0.769-0.941-1.378-2.121-1.218-1.301 0.179-2.231-0.729-2.901-1.818-0.26-0.42-0.47-0.849-0.771-1.388-0.36 0.829-0.59 1.568-1.07 2.177-0.65 0.809-1.471 1.228-2.511 1.029-0.98-0.18-1.45-0.909-1.681-1.808-0.51-2.028-0.24-4.055 0.121-6.053 0.14-0.799 0.21-1.048-0.811-0.898-14.835 2.147-28.38-7.2315-31.622-21.853-3.2212-14.542 6.2424-29.503 20.848-32.929 16.036-3.7653 31.852 6.7516 34.193 23.011 1.531 10.677-2.181 19.496-10.584 26.307-0.32 0.2597-0.65 0.5094-0.98 0.7691-0.03 0.02-0.04 0.0699-0.07 0.1498 1.34 0.6891 2.701 1.3583 4.031 2.0774 0.51 0.2697 0.971 0.6392 1.411 1.0184 0.58 0.5 1.09 1.079 0.83 1.938-0.25 0.809-0.96 1.109-1.681 1.328-1.47 0.45-2.881 0.05-4.281-0.369-0.34-0.1-0.68-0.24-1.131-0.39 0.33 1.279 0.681 2.407 0.921 3.576 0.13 0.639 0.33 1.428 0.09 1.957-0.61 1.379 0.17 2.248 0.85 3.216 7.433 10.597 16.306 19.696 27.45 26.457 0.421 0.26 0.861 0.49 1.501 0.859-0.4-2.287-0.75-4.374-1.12-6.462-2.461-13.972-4.922-27.955-7.393-41.927-1.291-7.3109-2.591-14.632-3.922-21.943-0.17-0.9589 0.04-1.2785 1.041-1.4283 2.551-0.3595 5.092-0.8289 7.613-1.3483 0.85-0.1798 1.1 0.0999 1.21 0.849 0.29 1.8477 0.64 3.6754 0.93 5.5231 0.11 0.6891 0.381 0.8589 1.071 0.7291 12.825-2.3871 25.66-4.7541 38.494-7.1112 12.835-2.357 25.67-4.6941 38.505-7.0512 13.895-2.5468 27.791-5.1136 41.686-7.6705 5.882-1.0786 11.774-2.1473 17.657-3.2559 0.85-0.1598 1.02 0.1198 1.16 0.9089 2.431 14.452 4.902 28.894 7.373 43.336 0.13 0.7791-0.01 1.0388-0.861 1.1886-11.714 2.0274-23.408 4.0949-35.113 6.1723-11.544 2.0475-23.079 4.1145-34.623 6.1525-13.425 2.367-26.85 4.714-40.275 7.071-8.554 1.508-17.107 3.036-25.66 4.504-1.16 0.2-1.451 0.59-1.18 1.758 0.48 2.098 0.77 4.245 1.14 6.372 0.06 0.33 0.07 0.669 0.33 0.929 0.6-1.318 1.171-2.637 1.811-3.925 0.29-0.579 0.66-1.298 1.46-1.149 0.881 0.16 0.921 0.989 0.961 1.688 0.05 0.869 0.01 1.738 0.01 2.787 0.49-1.189 0.87-2.277 1.37-3.306 0.39-0.799 0.771-1.888 1.901-1.648 1.12 0.24 1.03 1.398 1.07 2.277 0.04 0.949-0.07 1.898-0.14 3.186 0.49-1.338 0.861-2.387 1.261-3.405 0.29-0.75 0.76-1.339 1.68-1.139 0.861 0.18 1.021 0.879 1.041 1.628 0.08 3.236-0.75 6.332-1.361 9.468-0.13 0.679-0.28 1.348-0.26 2.078 0.55-1.109 1.091-2.208 1.641-3.306 0.11-0.22 0.24-0.44 0.39-0.64 0.46-0.639 0.9-1.488 1.841-1.148 0.95 0.339 0.81 1.288 0.69 2.057-0.49 3.176-1.681 6.153-2.861 9.119-0.6 1.498-1.201 3.006-1.901 4.464-0.37 0.779-0.15 0.949 0.61 1.109 6.683 1.458 13.425 1.798 20.228 1.278 1.491-0.109 2.971-0.329 4.462-0.469 0.34-0.03 0.85-0.439 0.98 0.29 0.13 0.769-0.54 0.629-0.9 0.679-1.771 0.23-3.552 0.469-5.332 0.569-6.633 0.39-13.225 0.09-19.718-1.428-0.88-0.21-1.28 0.01-1.67 0.849-1.151 2.487-2.411 4.914-3.662 7.351-0.28 0.539-0.39 1.008-0.28 1.638 1.611 8.988 3.181 17.977 4.792 26.966 0.14 0.759-0.05 0.989-0.83 1.109-2.591 0.399-5.162 0.859-7.733 1.378-0.921 0.19-1.211-0.05-1.371-0.959-0.89-5.323-1.841-10.627-2.781-15.94-0.04-0.24-0.05-0.499-0.36-0.709-1.361 1.628-3.061 2.916-4.172 4.854-3.351 5.843-7.432 11.126-12.905 15.191-7.752 5.753-16.236 6.712-25.299 3.765-3.732-1.208-7.203-2.996-10.754-4.604-0.6-0.27-1.221-0.529-1.861-0.709-1.26-0.35-1.62-0.09-1.58 1.208 0.09 3.236 0.14 6.482 0.37 9.718 0.63 9.049 0.72 18.088 0 27.147-0.711 8.859-1.091 17.747-1.631 26.626-0.55 9.089-1.1 18.168-1.661 27.257-0.34 5.643-0.68 11.286-1.05 16.918-0.04 0.65 0.13 0.919 0.8 0.839 0.33-0.039 0.671 0 1.001 0h207.96c0.5 0 1.169-0.01 1.669 0v1h-320v-1z" fill="#041C42"/>
    <path d="m244.76 192.72c-1.051 0.24-1.921 0.46-2.811 0.62-0.921 0.169-1.821 0.069-2.671-0.34-1.471-0.709-1.671-1.798-0.481-2.926 1.381-1.309 3.142-2.008 4.832-2.797 0.47-0.22 0.951-0.419 1.461-0.639-13.185-9.718-14.706-26.737-7.133-38.203 7.433-11.256 21.948-15.65 34.423-10.337 12.235 5.204 19.147 18.847 16.396 31.551-2.741 12.624-15.806 25.019-33.602 21.543 0.32 1.978 0.71 3.925 0.51 5.923-0.19 1.907-0.83 2.886-2.001 3.076-1.29 0.2-2.391-0.629-3.121-2.357-0.11-0.25-0.21-0.509-0.37-0.879-0.991 1.908-2.041 3.695-4.532 3.136-1.34-0.299-1.581-1.288-1.38-4.774-1.541 2.028-2.972 4.005-4.492 5.903-9.004 11.286-19.568 20.794-32.232 27.865-7.733 4.315-15.896 7.491-24.58 9.299-0.36 0.079-0.92 0.579-1.06-0.26-0.13-0.759 0.55-0.619 0.92-0.699 17.587-3.855 32.453-12.645 45.367-24.959 5.913-5.643 11.155-11.856 15.776-18.587 0.23-0.34 0.451-0.679 0.771-1.149l0.01-0.01z" fill="#041C42"/>
    <path d="m161.92 148.23c0.44 3.026 0.851 5.833 1.261 8.649 0.64 4.435 1.27 8.869 1.911 13.314 0.07 0.499 0.16 0.959-0.121 1.448-3.621 6.262-7.762 12.105-13.675 16.469-7.483 5.524-15.656 6.393-24.369 3.526-3.641-1.198-7.043-2.926-10.514-4.514-0.83-0.38-1.661-0.779-2.571-0.909-1.621-0.22-2.381 0.389-2.341 2.057 0.08 3.406 0.21 6.812 0.36 10.218 0.23 4.854 0.571 9.707 0.661 14.571 0.02 0.959-0.281 1.159-1.181 1.169-15.726 0.17-31.462 0.38-47.188 0.579-8.9834 0.12-17.977 0.23-26.96 0.38-0.8504 0.01-1.2505-0.11-1.3205-1.069-0.6003-8.33-1.3506-16.659-0.3302-25.009 0.1401-1.148 0.4202-2.287 0.6903-3.406 0.11-0.459 0.1901-0.858-0.3401-1.008-0.5703-0.16-0.5102 0.399-0.6103 0.689-0.9203 2.966-1.0804 6.042-1.1804 9.109-0.2301 6.741 0.3301 13.443 0.8203 20.164 0.4402 5.963 0.6002 11.956 0.9303 17.928 0.0501 0.949-0.4001 0.899-1.0303 0.799-4.0216-0.619-8.0531-1.228-12.075-1.848-2.551-0.389-5.0919-0.769-7.6429-1.148-0.5302-0.08-1.0104-0.05-1.0904-0.859-0.7503-8.27-1.7407-16.529-1.9208-24.839-0.19-8.53-0.02-17.079 2.2609-25.359 3.3413-12.135 10.784-20.634 23.209-24.07 7.1827-1.987 14.105-0.729 20.628 2.707 1.0104 0.529 1.2805 0.29 1.5506-0.659 0.4702-1.628 1.0804-3.226 1.5606-4.854 0.2201-0.749 0.5602-0.949 1.3305-0.819 6.0223 0.989 12.065 1.298 18.147 0.719 2.661-0.25 5.272-0.729 7.7629-1.718 0.6603-0.26 0.9304-0.12 1.1705 0.499 0.7902 2.008 1.6506 3.985 2.4409 5.983 0.2401 0.619 0.4702 0.839 1.1604 0.509 6.9727-3.375 14.096-3.086 21.228-0.649 5.022 1.718 9.944 3.726 14.976 5.433 5.182 1.758 10.454 2.377 15.776 0.49 4.842-1.718 8.593-4.954 11.965-8.709 1.63-1.818 3.081-3.786 4.661-5.953v-0.01z" fill="#A1C9FF"/>
    <path d="m299.39 48.74c0.67-0.0999 0.57 0.4494 0.64 0.799 0.77 4.4544 1.52 8.9189 2.281 13.373 1.55 9.1186 3.091 18.247 4.651 27.366 0.291 1.7079 0.321 1.7379-1.32 2.0275-11.614 2.0574-23.239 4.0949-34.863 6.1424-11.495 2.0373-22.989 4.0853-34.493 6.1223-12.025 2.127-24.059 4.225-36.094 6.342-9.614 1.698-19.227 3.386-28.841 5.124-0.96 0.17-1.28 0-1.451-0.979-2.27-13.044-4.591-26.078-6.902-39.101-0.38-2.1373-0.39-2.1273 1.801-2.5268 19.247-3.5356 38.484-7.0912 57.731-10.627 22.639-4.1648 45.268-8.3097 67.906-12.464 2.741-0.4994 5.472-1.0088 8.213-1.5081 0.24-0.04 0.49-0.06 0.741-0.0899z" fill="#fff"/>
    <path d="m74.358 215.68c12.275-0.16 24.549-0.32 36.824-0.509 1.001-0.02 1.301 0.129 1.231 1.258-0.611 9.039-1.141 18.077-1.681 27.116-0.72 11.905-1.441 23.811-2.161 35.706-0.16 2.567-0.31 5.143-0.44 7.72-0.04 0.699-0.16 1.059-1.04 1.109-6.733 0.409-13.455 0.869-20.178 1.368-0.9303 0.07-0.8703-0.329-0.8403-0.999 0.6603-13.433-0.2401-26.726-3.3513-39.84-0.7803-3.306-1.7506-6.572-3.5013-9.528-2.2008-3.706-5.5921-3.955-8.3632-0.599-2.2808 2.766-3.2412 6.132-4.0615 9.538-1.4005 5.782-2.0308 11.685-2.521 17.608-0.5802 6.961-0.9003 13.932-1.0303 20.914-0.01 0.709-0.1401 1.009-0.9504 1.018-7.1927 0.12-14.396 0.27-21.588 0.47-0.9703 0.03-1.2104-0.26-1.2605-1.199-0.5302-11.835-1.1104-23.66-1.6806-35.485-0.5502-11.286-1.1004-22.582-1.6706-33.868-0.04-0.819-0.0801-1.329 1.0704-1.339 12.405-0.12 24.799-0.299 37.204-0.459v0.02l-0.01-0.02z" fill="#CAE0FF"/>
    <path d="m144.94 73.968c0 14.872-12.065 26.947-26.96 26.956-14.886 0.01-26.981-12.054-26.991-26.926 0-14.872 12.065-26.946 26.961-26.956 14.895 0 26.99 12.055 26.99 26.926z" fill="#F6C254"/>
    <path d="m64.034 283.89c0.6302-9.748 1.0204-19.506 2.5009-29.174 0.7103-4.674 1.5606-9.328 3.7615-13.603 0.7002-1.348 1.5806-2.547 2.9011-3.346 1.8507-1.118 3.2712-0.829 4.5517 0.899 1.3005 1.758 2.0808 3.765 2.761 5.813 1.9608 5.892 2.9612 11.995 3.7114 18.127 0.9504 7.761 1.2505 15.561 1.0104 23.381-0.03 1.119 0.1701 2.397-0.3001 3.316-0.4902 0.959-1.9607 0.799-2.9811 1.189-2.461 0.918-4.8719 1.927-6.8326 3.745-0.4502 0.419-1.0104 0.849-1.2205 1.398-0.5302 1.368-1.5306 1.448-2.761 1.398-2.0808-0.079-4.1616-0.05-6.2424 0-0.7203 0.02-0.8903-0.209-0.8803-0.918 0.04-4.075 0.02-8.14 0.02-12.215v-0.01z" fill="#A1C9FF"/>
    <path d="m173.81 185.32c-0.9 0.19-0.68-0.599-0.75-0.968-0.811-4.455-1.581-8.909-2.371-13.364-1.951-11.036-3.902-22.072-5.853-33.109-2.13-12.095-4.261-24.19-6.402-36.294-1.881-10.627-3.751-21.254-5.642-31.881-0.31-1.7278-0.33-1.7079 1.45-2.0175 1.601-0.2796 3.202-0.5193 4.782-0.8889 1.041-0.2497 1.431 0.02 1.611 1.0987 1.14 6.7915 2.351 13.573 3.541 20.365 1.941 10.996 3.882 21.993 5.822 32.989 2.131 12.055 4.272 24.11 6.403 36.165 1.47 8.3 2.921 16.589 4.392 24.889 0.29 1.668 0.32 1.678-1.361 1.988-1.881 0.349-3.761 0.679-5.642 1.018l0.02 0.01z" fill="#F6C254"/>
    <g fill="#CAE0FF">
      <path d="m26.36 274.09c-0.6702-1.718-0.7403-3.375-0.8003-5.023-0.1701-4.735 0.09-9.469 0.2501-14.203 0-0.289 0.03-0.579 0-0.869-0.03-0.369 0.1901-0.929-0.5002-0.919-0.5202 0.01-0.4902 0.46-0.5202 0.839-0.2501 3.356-0.4802 6.712-0.7503 10.068-0.2401 2.936-0.4901 5.873-1.0404 8.769-0.07 0.36 0 1.009-0.5202 0.979-0.4601-0.02-0.4301-0.629-0.4801-1.029-0.5102-3.605-0.2301-7.221-0.0901-10.826 0.1101-2.777 0.3302-5.554 0.4902-8.33 0.02-0.4 0.1601-0.949-0.4001-1.029-0.6303-0.09-0.6303 0.5-0.7203 0.949-0.6903 3.496-1.2205 7.031-2.2309 10.457-0.25 0.869-0.4401 1.768-1.1204 2.547-0.6502-0.809-0.7403-1.758-0.8803-2.667-1.0104-6.861-1.3805-13.793-1.9908-20.704-0.3201-3.596-0.5502-7.201-0.8803-10.807-0.07-0.759 0-1.068 0.8503-0.939 6.7326 1.039 13.465 2.048 20.208 3.047 0.6702 0.1 0.7403 0.489 0.7703 1.048 0.2401 5.394 0.5002 10.787 0.7603 16.18 0.15 3.196 0.3101 6.392 0.4801 9.588 0.0401 0.799 0.01 1.578-0.5702 2.317-0.7603-1.068-0.9203-2.297-1.1304-3.475-0.3401-1.878-0.5502-3.776-0.8503-5.663-0.0701-0.43 0.11-1.169-0.6303-1.129-0.5802 0.03-0.5002 0.659-0.5502 1.109-0.5502 4.534-0.9403 9.079-1.7406 13.583-0.2801 1.558-0.4502 3.166-1.3105 4.804-0.5402-1.318-0.6103-2.497-0.6703-3.675-0.2101-4.525 0.06-9.059 0.02-13.584 0-0.289 0-0.579-0.03-0.868-0.04-0.43 0.09-1.069-0.5302-1.099-0.7403-0.03-0.5902 0.689-0.6202 1.128-0.1301 2.318-0.2101 4.645-0.3201 6.972-0.1601 3.406-0.3702 6.801-1.0304 10.147-0.1501 0.759-0.2401 1.558-0.9204 2.307z"/>
      <path d="m86.383 130.38c1.4005 5.973 2.1808 11.885 2.651 17.848 0.07 0.939-0.2301 1.308-1.0704 1.598-4.6418 1.578-9.4336 1.848-14.275 1.788-3.6614-0.05-7.3028-0.39-10.924-0.959-0.7302-0.11-0.9203-0.32-0.8203-1.109 1.0304-7.95 2.501-15.8 5.0019-23.441 0.2201-0.669 0.5302-1.038 1.1905-1.238 2.611-0.779 4.6817-2.247 5.8722-4.934 1.3805 1.368 2.711 2.667 4.3616 3.556 1.6006 0.869 3.2913 1.488 5.112 1.338 1.2304-0.1 1.6306 0.38 1.6806 1.568-1.3205-0.529-2.631-0.729-3.9915-0.29-0.8403 0.27-1.6206 0.65-2.2108 1.319-1.2905 1.448-0.9804 3.196 0.8003 3.945 2.3008 0.959 4.5317 0.879 6.6225-0.989z"/>
      <path d="m26.79 296.99c1.6706-3.007 4.0915-4.824 6.8826-6.203 2.771-1.378 5.6921-1.847 8.7933-1.857 6.5325-0.02 13.055-0.23 19.587-0.42 0.9604-0.03 1.1705 0.22 1.1105 1.159-0.1201 2.157-0.1201 4.314-0.1301 6.482 0 0.599-0.12 0.859-0.8203 0.859-11.734-0.02-23.469-0.02-35.433-0.02h0.01z"/>
      <path d="m74.228 296.99c0.6503-1.319 1.5406-2.177 2.571-2.857 3.0511-2.017 6.3624-3.415 10.044-3.685 6.7125-0.499 13.435-0.909 20.147-1.408 0.871-0.06 1.041 0.189 0.971 0.998-0.18 1.938-0.34 3.886-0.38 5.833-0.02 0.939-0.31 1.149-1.221 1.139-8.483-0.04-16.966-0.02-25.45-0.02h-6.6925 0.01z"/>
      <path d="m186.4 130.59c-1.601 8.439-5.543 15.96-9.354 23.76-0.56-1.248-0.59-2.397-0.79-3.496-0.711-3.795-1.341-7.6-2.031-11.395-0.21-1.159 0.2-2.218 0.44-3.306 0.971-4.365 1.891-8.749 3.541-12.934 0.401-1.019 0.471-1.089 1.171-1.738 0.53 1.718 0.13 3.406-0.08 5.064-0.61 4.774-1.781 9.448-2.751 14.162-0.11 0.519-0.55 1.348 0.15 1.528 0.91 0.24 0.75-0.809 0.88-1.308 1.441-5.583 2.711-11.206 4.552-16.669 0.22-0.66 0.3-1.878 1.01-1.748 0.651 0.12 0.33 1.308 0.27 2.007-0.35 4.155-1.43 8.17-2.34 12.215-0.391 1.738-0.841 3.466-1.241 5.204-0.11 0.489-0.53 1.178 0.14 1.428 0.74 0.269 0.78-0.579 0.951-1.019 1.19-3.096 2.3-6.212 3.701-9.228 0.43-0.929 0.84-1.878 1.801-2.527h-0.02z"/>
    </g>
    <path d="m130.89 100.28c0.94 2.078 1.81 3.895 2.151 5.903 0.09 0.529 0.14 1.069 0.16 1.608 0.02 0.599-0.05 1.208-0.661 1.498-0.66 0.31-1.3 0.11-1.87-0.29-0.901-0.629-1.301-1.608-1.611-2.596-0.34-1.069-0.55-2.168-0.57-3.306 0-0.32 0.05-0.669-0.47-0.679-0.581-0.01-0.551 0.349-0.541 0.739 0.05 1.458-0.05 2.906-0.53 4.294-0.2 0.59-0.45 1.169-0.96 1.578-0.86 0.68-1.751 0.5-2.061-0.549-0.68-2.357-0.17-4.684 0.32-7.001 0.09-0.42 0.52-0.37 0.811-0.45 2.51-0.649 4.871-1.6476 7.102-2.946 0.28-0.1698 0.53-0.3496 0.911-0.1898 1.93 0.7691 3.841 1.5881 5.512 2.8468 0.32 0.239 0.74 0.509 0.66 0.988-0.09 0.53-0.59 0.64-1.041 0.75-1.73 0.439-3.281-0.2-4.811-0.849-0.781-0.33-1.511-0.789-2.511-1.329l0.01-0.02z" fill="#F6C254"/>
    <g fill="#CAE0FF">
      <path d="m73.428 117.63c-0.4001 3.556-2.5309 5.274-5.7121 6.342 1.3005-3.246 2.5509-6.282 5.0619-8.559 1.7607-1.588 3.4913-1.738 5.4621-0.46 3.0911 1.998 4.5717 5.164 5.9222 8.4 0.2701 0.659-0.3501 0.499-0.6502 0.509-1.7507 0.04-3.3613-0.479-4.8519-1.338-1.6306-0.949-3.0011-2.207-4.2016-3.665-0.2801-0.34-0.5602-0.68-1.0304-1.229z"/>
      <path d="m164.56 142.17c0.681 3.816 1.371 7.631 2.051 11.446 0.71 4.005 1.321 8.02 2.131 12.005 0.26 1.269 0 2.147-0.88 2.976-0.541 0.51-1.021 1.069-1.721 1.818-0.32-2.157-0.61-4.025-0.87-5.902-0.791-5.544-1.561-11.097-2.371-16.64-0.1-0.689-0.02-1.278 0.22-1.927 0.46-1.239 0.82-2.507 1.23-3.766 0.08 0 0.15 0 0.23-0.01h-0.02z"/>
      <path d="m175.24 121.89c0.21 4.524-0.9 8.589-1.63 12.754-1.731-4.435-1.361-8.58 1.63-12.754z"/>
      <path d="m64.144 132.09c-2.1508-1.308-2.531-4.554-0.8203-6.172 0.3701-0.35 0.8003-0.6 1.3205-0.63 1.0604-0.06 1.3905 0.36 1.0804 1.359-0.2801 0.909-0.5602 1.817-0.8303 2.736-0.2501 0.869-0.4902 1.748-0.7603 2.707h0.01z"/>
      <path d="m83.242 130.86c-1.1204 0.13-2.0608 0.09-2.9511-0.299-1.2605-0.55-1.4806-1.568-0.5002-2.537 0.8904-0.879 2.0008-1.239 3.3013-1.119-1.4706 1.598-1.4506 2.517 0.16 3.945l-0.01 0.01z"/>
    </g>
    <path d="m261.44 136.85c14.776 0.05 27.03 12.125 26.89 27.266-0.14 14.392-11.964 26.827-27.39 26.617-14.486-0.2-26.78-11.995-26.55-27.426 0.23-14.662 12.215-26.417 27.05-26.447v-0.01z" fill="#004079"/>
    <path d="m247.23 190.36c-1.771 0.859-3.462 1.728-5.372 1.998-0.25 0.03-0.5 0.12-0.741 0.1-0.75-0.07-1.64-0.1-1.9-0.909-0.25-0.789 0.59-1.089 1.12-1.438 1.611-1.049 3.361-1.798 5.152-2.467 0.52-0.19 0.97-0.15 1.431 0.12 2.05 1.198 4.211 2.137 6.472 2.856 0.44 0.14 0.64 0.39 0.76 0.849 0.541 2.078 0.511 4.185 0.411 6.302-0.03 0.639-0.341 1.259-1.051 1.389-0.73 0.139-1.27-0.3-1.641-0.899-0.76-1.239-0.88-2.657-1.02-4.055-0.03-0.29 0.02-0.58-0.01-0.869-0.05-0.41 0.21-1.049-0.52-1.039-0.63 0-0.42 0.589-0.47 0.969-0.18 1.398-0.36 2.796-1.041 4.065-0.06 0.11-0.11 0.22-0.17 0.329-0.68 1.159-1.83 1.848-2.611 1.479-1.22-0.59-1.02-1.718-0.83-2.727 0.39-2.077 1.1-4.065 2.031-6.043v-0.01z" fill="#004079"/>
    <g fill="#041C42">
      <path d="m250.5 78.762c0.39-6.8914 5.982-12.135 12.485-11.715 6.752 0.4394 11.884 6.2023 11.484 12.894-0.4 6.6717-6.012 11.825-12.485 11.456-6.602-0.3795-11.844-6.1524-11.484-12.644v0.01z"/>
      <path d="m190.95 88.19c0.03 4.2447-2.881 7.6705-7.143 8.4495-1.13 0.1997-2.721-0.1199-3.241 0.769-0.44 0.7491 0.19 2.1374 0.35 3.2361 0.1 0.699 0.19 1.398 0.31 2.097 0.291 1.658 0.301 1.668-1.31 1.898-1.02 0.15-2.311 0.699-3.001 0.27-0.72-0.44-0.49-1.898-0.65-2.917-1.091-6.7114-2.111-13.433-3.212-20.155-0.12-0.7291 0.12-0.809 0.721-0.8989 2.461-0.3595 4.912-0.819 7.382-1.1685 5.262-0.7591 9.734 3.1161 9.774 8.4195h0.02z"/>
      <path d="m218.37 98.508c-7.603 0.03-13.275-5.8727-12.895-12.624 0.41-7.241 6.352-12.415 13.405-11.606 2.591 0.2897 4.812 1.4283 6.762 3.1761 0.811 0.7391 0.621 1.0687-0.24 1.4182-0.23 0.0899-0.45 0.2197-0.65 0.3696-1.491 1.0487-2.751 1.4781-4.712 0.4194-3.131-1.6978-7.132-0.0299-8.833 3.1261-1.771 3.286-0.83 7.4108 2.191 9.5382 3.041 2.1473 7.032 1.7478 9.443-1.1186 0.701-0.829 1.301-0.9289 2.211-0.6692 0.84 0.2297 1.691 0.4494 2.551 0.5493 0.951 0.0999 0.82 0.4994 0.47 1.1086-2.321 4.035-5.782 6.1624-9.683 6.3222l-0.02-0.01z"/>
      <path d="m287.07 87.531c-2.201 0.0199-4.172-0.6392-5.942-1.9176-0.58-0.4195-0.781-0.829-0.31-1.5182 0.51-0.749 0.69-1.9176 1.36-2.3071 0.73-0.4195 1.541 0.5993 2.351 0.9189 1.641 0.6492 3.241 0.6092 4.852-0.03 1.09-0.4295 1.791-1.1486 1.771-2.427-0.02-1.2185-0.681-1.8876-1.741-2.3071-1.141-0.4494-2.341-0.5393-3.531-0.7091-1.241-0.1798-2.461-0.4794-3.552-1.0987-2.251-1.2883-3.191-3.3158-3.021-5.8527 0.17-2.5568 0.93-4.824 3.441-6.0524 3.122-1.5281 6.323-1.5481 9.574-0.4794 0.55 0.1797 0.8 0.3895 0.57 1.0486-0.29 0.819-0.46 1.678-0.61 2.5369-0.14 0.789-0.46 0.8389-1.16 0.5593-1.571-0.6192-3.202-0.8989-4.872-0.3795-1.201 0.3795-2.081 1.0487-2.191 2.407-0.11 1.3283 0.69 2.0374 1.761 2.5868 0.84 0.4294 1.74 0.5293 2.651 0.5892 1.6 0.0999 3.091 0.5394 4.481 1.3583 3.021 1.7778 4.022 5.1836 2.361 8.2697-1.771 3.286-4.652 4.7042-8.283 4.7941l0.04 0.01z"/>
      <path d="m227.54 73.179c-0.37-0.6792 0.2-0.7891 0.85-0.8889 5.703-0.8889 11.415-1.7778 17.117-2.7167 0.73-0.1198 0.97 0.1099 1.03 0.7591 0.03 0.3695 0.08 0.7391 0.13 1.1086 0.307 1.9243-0.527 3.0229-2.501 3.2959-0.99 0.1398-1.96 0.4095-2.951 0.4495-1.09 0.0399-1.15 0.5193-1 1.4282 0.93 5.6929 1.801 11.396 2.741 17.089 0.13 0.809-0.06 1.0487-0.81 1.0687-0.411 0.01-0.821 0.1198-1.231 0.1798-2.621 0.3495-2.601 0.3396-3.011-2.3371-0.8-5.1636-1.671-10.327-2.431-15.501-0.13-0.8989-0.48-0.9688-1.2-0.839-1.721 0.3096-3.452 0.5393-5.162 0.8689-0.671 0.1299-0.981 0.0699-1.041-0.6991-0.09-1.0287-0.32-2.0475-0.52-3.2659h-0.01z"/>
      <path d="m202.71 100.3c0.22 0.58-0.12 0.789-0.66 0.849-0.04 0-0.08 0.01-0.12 0.02-1.231 0.16-2.711 0.799-3.622 0.33-0.89-0.459-0.58-2.1774-0.78-3.3459-1.06-6.462-2.061-12.944-3.111-19.406-0.12-0.759 0.01-1.1485 0.85-1.2284 0.991-0.0999 1.971-0.2697 2.951-0.4495 0.53-0.0999 0.831-0.0799 0.931 0.5893 1.15 7.4607 2.341 14.911 3.511 22.362 0.01 0.08 0.02 0.16 0.04 0.289l0.01-0.01z"/>
      <path d="m71.417 131.93c-0.9203 0-1.8207-0.14-2.661-0.559-1.5906-0.799-1.9507-2.317-0.9003-3.716 1.3105-1.747 4.4817-2.357 6.3424-1.188 0.9603 0.599 1.6206 1.448 1.5506 2.657-0.0701 1.218-0.8404 1.927-1.9008 2.397-0.7702 0.339-1.5906 0.429-2.4309 0.419v-0.01z"/>
      <path d="m76.899 143.89c-2.7811-0.06-4.6918-1.737-6.2924-3.945-0.2001-0.279-0.2201-0.499 0.11-0.719 0.3201-0.21 0.5202-0.12 0.7203 0.16 0.2901 0.399 0.5902 0.799 0.9303 1.169 2.2509 2.486 4.9919 2.996 7.9831 1.478 1.1604-0.59 2.1808-1.369 3.1011-2.277 0.2601-0.26 0.4802-0.42 0.8003-0.06 0.2401 0.269 0.3002 0.459 0 0.719-2.0707 1.867-4.2716 3.455-7.3627 3.465l0.01 0.01z"/>
      <path d="m77.249 138.73h-1.5005c-0.3602 0-0.5202-0.16-0.5102-0.529 0-0.39 0.2201-0.489 0.5502-0.489 0.8303 0 1.6606-0.03 2.4909 0 0.9704 0.039 1.1405-0.35 0.8203-1.219-0.8903-2.447-1.7506-4.914-2.5809-7.381-0.1101-0.329-0.6803-0.799 0.15-1.078 0.8103-0.26 0.6703 0.459 0.7803 0.769 0.8703 2.367 1.7007 4.754 2.531 7.141 0.7102 2.037 0.18 2.766-1.9908 2.776h-0.7503l0.01 0.01z"/>
    </g>
    <path d="m72.308 130.82c-1.1304 0.21-2.0308 0.09-2.8911-0.249-1.2905-0.52-1.5206-1.518-0.5502-2.527 0.8503-0.889 1.9507-1.209 3.3213-1.149-0.6503 0.6-1.2005 1.149-1.1805 1.998 0.02 0.819 0.4802 1.368 1.3005 1.927z" fill="#CAE0FF"/>
  </g>
  <defs>
    <clipPath id="clip0_707_5589">
      <rect width="320" height="298" fill="#fff"/>
    </clipPath>
  </defs>
</svg>
