<svg width="320" height="298" viewBox="0 0 320 298" fill="none" xmlns="http://www.w3.org/2000/svg">
<g clip-path="url(#clip0_707_5173)">
<rect width="320" height="298" fill="#F6C254"/>
<path d="M320 0V297.461C320 297.461 319.07 297.451 318.56 297.461C318.059 297.471 317.559 297.461 317.059 297.461C271.709 297.461 226.369 297.461 181.019 297.461C178.705 297.461 177.548 296.309 177.548 294.005C177.548 285.484 177.548 276.964 177.548 268.433C177.548 267.974 177.548 267.514 177.548 267.065C177.608 265.476 177.978 265.127 179.599 265.067C180.179 265.047 180.769 265.067 181.349 265.067C215.074 265.067 248.809 265.067 282.534 265.067C286.345 265.067 289.277 263.499 291.228 260.222C292.228 258.534 292.488 256.676 292.488 254.718C292.468 194.645 292.468 134.571 292.468 74.4878C292.468 67.7952 292.468 61.1026 292.468 54.41C292.468 49.3955 289.547 45.7795 284.685 44.6608C284.184 44.5409 283.694 44.5309 283.204 44.5309C242.476 44.5309 201.758 44.5309 161.031 44.5309C155.238 44.5309 151.506 49.5354 151.516 54.0704C151.546 74.1082 151.516 94.146 151.566 114.184C151.566 116.282 150.836 118.07 150.106 119.917C149.976 120.247 149.786 120.697 149.345 120.587C148.945 120.487 148.895 120.017 148.855 119.648C148.755 118.779 148.825 117.9 148.795 117.031C148.775 116.611 148.785 116.152 148.275 116.012C147.775 115.872 147.505 116.262 147.275 116.601C146.694 117.47 146.394 118.479 145.974 119.428C145.804 119.828 145.654 120.437 145.114 120.327C144.613 120.227 144.633 119.618 144.583 119.168C144.533 118.629 144.563 118.09 144.543 117.55C144.523 117.161 144.463 116.771 143.993 116.691C143.603 116.621 143.383 116.921 143.213 117.21C142.552 118.319 142.032 119.498 141.572 120.707C139.761 125.481 138.181 130.346 136.68 135.231C136.5 135.83 136.34 136.439 136.06 136.989C135.91 137.278 135.719 137.668 135.349 137.578C135.009 137.498 134.939 137.088 134.889 136.749C134.829 136.289 134.919 135.84 134.969 135.38C135.079 134.222 135.189 133.063 134.849 131.924C134.729 131.525 134.719 131.055 134.189 130.985C133.699 130.925 133.448 131.305 133.218 131.655C132.608 132.554 132.198 133.562 131.778 134.551C128.967 141.214 126.345 147.956 123.824 154.729C123.244 156.297 122.374 157.616 121.273 158.814C116.131 164.418 111.039 170.072 105.816 175.606C99.3936 182.408 92.9208 189.161 86.7181 196.163C81.0056 202.606 75.4331 209.159 70.1808 215.981C69.6906 216.62 69.2804 217.589 68.34 217.5C67.3396 217.41 67.2795 216.341 66.9894 215.592C65.1686 210.817 63.6079 205.942 61.407 201.317C60.9468 200.338 60.4566 199.38 60.0064 198.391C59.3861 197.042 59.4761 196.613 60.5766 195.694C62.7176 193.896 62.7075 193.736 60.3765 192.178C59.7563 191.768 59.156 191.308 58.5057 190.939C55.6545 189.291 53.3435 187.133 51.3326 184.506C49.3517 181.929 46.8806 179.781 43.5592 178.942C41.4683 178.423 39.6675 179.102 38.4469 180.84C36.6862 183.347 36.266 186.284 35.8558 189.201C35.5257 191.548 35.5457 193.926 35.5757 196.293C35.6557 202.446 36.236 208.549 37.2164 214.623C37.4565 216.101 37.1564 217.23 36.1759 218.389C33.1446 221.975 30.4634 225.83 27.7923 229.696C22.0498 238.017 16.8475 246.657 11.7553 255.378C11.205 256.327 10.8749 257.295 10.7548 258.414C9.64433 268.943 10.4047 279.301 13.546 289.44C14.1763 291.468 14.9967 293.415 15.8971 295.333C16.6274 296.872 16.2972 297.451 14.6265 297.461C10.2546 297.511 5.88268 297.491 1.51077 297.461C0.950523 297.461 5.92694e-05 297 5.92694e-05 297C5.92694e-05 199.138 5.92694e-05 99.8617 5.92694e-05 1.99997C5.92694e-05 1.67033 0 0.000134617 0 0.000134617C105.546 0.000134617 214.444 0 320 0Z" fill="#A1C9FF"/>
<path d="M0 297L16.1871 297.011C14.9066 294.424 13.8261 291.887 13.0358 289.23C10.0245 279.191 9.19409 268.972 10.2846 258.554C10.5647 255.877 12.1054 253.979 13.3259 251.871C19.6186 241.013 26.2916 230.415 33.9249 220.426C33.9549 220.396 33.9749 220.356 33.9949 220.326C34.9354 218.928 36.6661 217.899 36.9262 216.271C37.1763 214.712 36.526 213.004 36.316 211.356C35.3555 204.134 34.7253 196.892 35.3956 189.61C35.6557 186.833 36.1159 184.096 37.4264 181.579C38.9871 178.592 41.4282 177.613 44.6096 178.732C47.5309 179.761 49.9019 181.669 51.6527 184.106C53.8536 187.173 56.7549 189.27 59.8663 191.208C60.4665 191.578 61.0468 191.977 61.627 192.387C63.0777 193.386 63.1077 194.375 61.7471 195.424C60.4665 196.409 60.1831 197.618 60.8967 199.05C63.6079 204.514 65.5588 210.287 67.6497 216.011C67.8197 216.48 68.0098 216.94 68.1899 217.409C68.6801 217.439 68.7902 216.99 68.9902 216.73C79.3848 203.255 90.8498 190.719 102.565 178.393C109.238 171.37 115.791 164.238 122.244 157.016C122.674 156.527 122.854 155.947 123.074 155.368C126.055 147.627 128.896 139.835 132.328 132.274C132.728 131.395 133.068 130.176 134.329 130.436C135.569 130.695 135.449 131.964 135.489 132.923C135.559 134.411 135.509 135.9 135.509 137.348C136.34 134.731 137.19 132.024 138.07 129.327C139.281 125.621 140.502 121.915 142.072 118.349C142.352 117.71 142.713 117.09 143.103 116.511C143.323 116.181 143.633 115.822 144.123 115.932C144.693 116.062 144.963 116.531 144.993 117.03C145.064 118.059 145.014 119.098 145.174 120.167C145.604 119.118 145.984 118.039 146.484 117.03C146.854 116.271 147.234 115.262 148.315 115.462C149.425 115.672 149.335 116.741 149.385 117.59C149.435 118.519 149.395 119.458 149.395 120.686C150.156 118.209 151.126 116.181 151.106 113.694C150.996 93.946 151.046 74.1979 151.046 54.4498C151.046 48.3165 155.338 44.0513 161.501 44.0513C201.888 44.0513 242.276 44.0513 282.664 44.0513C288.636 44.0513 292.948 48.3765 292.948 54.3698C292.948 121.346 292.948 188.312 292.948 255.287C292.948 261.241 288.616 265.556 282.614 265.556C248.259 265.556 213.914 265.556 179.559 265.536C178.368 265.536 177.968 265.726 177.978 267.044C178.048 276.564 178.038 286.083 177.988 295.603C177.988 296.731 178.258 297.021 179.399 297.021C226.239 296.991 273.16 297 320 297V298C213.774 298 106.226 298 0 298V297Z" fill="#041C42"/>
<path d="M164.782 247.826C159.009 250.193 155.878 254.748 153.347 260.052C152.447 258.913 152.227 257.595 152.066 256.266C152.006 255.777 152.046 255.267 152.046 254.768C152.046 217.439 152.046 180.111 152.016 142.782C152.016 141.074 152.417 139.506 152.877 137.917C154.017 133.972 155.028 129.996 155.668 125.931C155.788 125.192 155.818 124.442 155.828 123.693C155.838 123.204 155.888 122.614 155.278 122.425C154.638 122.225 154.297 122.724 153.967 123.154C153.267 124.073 152.947 125.192 152.247 126.44C152.587 124.193 152.897 122.235 153.157 120.267C153.297 119.238 153.717 117.93 153.037 117.24C151.366 115.532 152.066 113.554 152.056 111.706C151.996 92.7075 152.026 73.7085 152.026 54.7096C152.026 48.7761 155.748 45.0303 161.651 45.0303C201.868 45.0303 242.086 45.0303 282.313 45.0303C288.166 45.0303 291.938 48.7761 291.938 54.5797C291.938 121.386 291.938 188.182 291.938 254.988C291.938 260.791 288.166 264.547 282.313 264.547C248.008 264.547 213.703 264.547 179.388 264.577C178.268 264.577 177.918 264.317 177.978 263.179C178.078 261.151 177.938 259.103 178.028 257.075C178.088 255.837 177.628 255.917 176.787 256.326C174.656 257.375 172.906 258.883 171.365 260.652C170.715 261.401 170.164 262.24 169.534 263.009C169.124 263.508 169.034 264.407 168.354 264.507C167.293 264.657 166.193 264.607 165.112 264.527C164.472 264.477 164.782 263.868 164.782 263.518C164.762 258.784 164.772 254.039 164.772 249.304C164.772 248.895 164.772 248.475 164.772 247.826H164.782Z" fill="white"/>
<path d="M11.8953 256.246C19.6186 242.931 27.5421 229.935 37.3164 217.739C37.2364 219.397 38.0167 219.357 39.0271 219.207C47.1307 218.018 55.0141 216.16 62.1473 211.905C62.9276 211.446 63.6479 210.896 64.4783 210.327C65.6388 213.463 66.7693 216.51 67.9298 219.627C70.9511 215.861 73.8924 212.155 76.8837 208.489C84.7772 198.83 93.2509 189.69 101.825 180.63C108.828 173.238 115.761 165.776 122.524 158.155C123.064 157.545 123.524 157.366 124.324 157.495C130.027 158.384 135.749 159.233 141.462 160.043C142.402 160.172 142.162 160.532 141.902 161.081C138.901 167.424 135.559 173.588 132.098 179.681C123.864 194.145 114.83 208.139 106.146 222.334C102.385 228.497 98.5532 234.62 95.5319 241.203C93.571 245.468 92.9207 250.103 91.8603 254.618C90.3696 260.921 89.5092 267.344 88.4187 273.717C88.2387 274.756 87.9686 274.885 86.9981 274.646C64.3682 269.092 41.7283 263.558 19.0984 258.024C16.7574 257.455 14.4264 256.865 11.9153 256.236L11.8953 256.246Z" fill="#A1C9FF"/>
<path d="M90.8197 296.991C66.7592 296.991 42.6987 296.991 18.6382 297.021C17.6477 297.021 17.1575 296.691 16.7373 295.852C14.0262 290.408 12.5655 284.595 11.6651 278.631C10.7547 272.608 10.5746 266.565 11.1149 260.491C11.415 257.135 11.365 257.145 14.5764 257.934C39.0171 263.918 63.4578 269.891 87.8885 275.884C88.4687 276.024 89.039 276.044 89.6192 276.044C114.14 276.044 138.661 276.054 163.181 276.014C164.332 276.014 164.592 276.314 164.582 277.433C164.522 283.546 164.522 289.649 164.582 295.762C164.592 296.841 164.272 297.021 163.271 297.021C139.131 296.991 114.98 297.001 90.8398 297.001L90.8197 296.991Z" fill="#CAE0FF"/>
<path d="M151.606 259.033C150.006 257.435 147.855 257.255 145.824 256.866C138.781 255.517 131.678 254.508 124.234 253.46C125.785 252.93 127.035 252.551 128.246 252.081C129.106 251.741 130.357 251.472 130.227 250.333C130.087 249.094 128.776 249.164 127.816 249.074C123.164 248.605 118.502 248.845 113.85 249.004C107.607 249.214 101.364 249.264 95.1215 249.254C94.1711 249.254 94.2011 248.915 94.3412 248.165C95.2816 243.231 97.6326 238.886 100.074 234.58C106.517 223.193 113.67 212.245 120.503 201.098C128.056 188.781 135.589 176.455 141.872 163.429C143.693 159.653 146.354 156.357 147.885 152.421C148.895 149.814 149.936 147.207 151.066 144.6V146.019C151.066 181.769 151.066 217.519 151.066 253.27C151.066 255.228 151.066 257.175 151.606 259.073L151.636 259.053L151.606 259.033Z" fill="#A1C9FF"/>
<path d="M154.588 124.063C154.588 127.369 153.837 130.466 153.027 133.552C151.016 141.264 148.705 148.875 144.993 155.987C143.283 159.274 143.253 159.304 139.671 158.794C134.609 158.085 129.567 157.286 124.504 156.547C123.844 156.447 123.804 156.247 124.024 155.668C126.995 147.886 129.887 140.075 133.308 132.473C133.488 132.074 133.618 131.604 134.219 131.454C134.869 133.562 134.359 135.66 134.239 137.738C134.139 139.386 133.828 141.034 133.628 142.682C133.568 143.152 133.298 143.821 133.929 143.991C134.589 144.16 134.649 143.441 134.789 142.992C136.47 137.747 138.12 132.483 139.821 127.239C140.711 124.482 141.692 121.745 142.842 119.078C143.113 118.439 143.353 117.77 143.973 117.14C144.323 119.158 143.943 121.006 143.683 122.864C143.113 126.929 141.972 130.895 141.502 134.991C141.452 135.42 141.182 136.019 141.792 136.159C142.512 136.329 142.482 135.62 142.582 135.17C143.793 129.916 144.803 124.622 146.554 119.508C146.914 118.459 147.234 117.38 148.145 116.411C148.475 117.3 148.445 118.109 148.395 118.908C148.045 124.063 146.774 129.057 145.724 134.092C145.574 134.821 145.424 135.55 145.283 136.289C145.213 136.679 144.973 137.188 145.554 137.328C146.134 137.468 146.184 136.918 146.284 136.539C146.884 134.171 147.464 131.794 148.075 129.427C148.965 125.981 149.835 122.514 151.016 119.148C151.116 118.878 151.196 118.599 151.316 118.329C151.476 117.979 151.496 117.35 152.016 117.47C152.497 117.59 152.307 118.179 152.307 118.579C152.307 120.287 152.016 121.975 151.716 123.643C150.976 127.809 150.146 131.954 149.115 136.059C149.075 136.219 149.065 136.389 149.025 136.549C148.945 136.878 148.835 137.248 149.275 137.378C149.775 137.528 149.916 137.138 150.026 136.759C150.526 135.13 151.026 133.512 151.536 131.884C152.207 129.746 152.947 127.639 153.837 125.581C154.057 125.062 154.347 124.572 154.598 124.073L154.588 124.063Z" fill="#CAE0FF"/>
<path d="M147.514 267.064H126.795C119.432 267.064 112.059 267.044 104.696 267.084C103.815 267.084 103.495 266.924 103.475 265.965C103.385 261.061 103.215 256.166 103.075 251.272C103.065 250.762 102.905 250.223 103.815 250.223C111.139 250.193 118.452 249.673 125.775 249.873C126.885 249.903 127.996 250.003 129.236 250.383C127.946 251.382 126.525 251.591 125.225 252.061C124.484 252.331 123.724 252.52 122.974 252.78C122.544 252.93 122.023 253.09 122.103 253.669C122.173 254.208 122.674 254.288 123.154 254.358C125.545 254.678 127.936 254.968 130.317 255.347C136.47 256.336 142.662 257.035 148.715 258.574C149.335 258.733 150.006 258.843 150.426 259.483C149.715 260.002 148.945 259.832 148.225 259.812C142.862 259.622 137.53 259.013 132.188 258.474C131.527 258.404 130.867 258.354 130.197 258.304C129.857 258.274 129.447 258.284 129.417 258.703C129.387 259.173 129.817 259.273 130.197 259.323C131.467 259.503 132.748 259.672 134.029 259.862C138.631 260.511 143.253 261.051 147.745 262.339C148.875 262.659 149.075 262.769 149.875 263.438C149.205 263.788 148.535 263.838 147.845 263.848C143.293 263.938 138.801 263.278 134.309 262.719C132.948 262.549 131.597 262.339 130.237 262.17C129.827 262.12 129.327 262.03 129.226 262.599C129.126 263.199 129.707 263.228 130.067 263.298C134.039 263.998 138.01 264.637 141.972 265.336C143.873 265.676 145.774 266.045 147.504 267.094L147.514 267.064Z" fill="#CAE0FF"/>
<path d="M36.446 202.536C40.0576 204.793 43.269 203.954 46.3504 201.267C44.8797 200.498 43.339 199.839 43.0789 197.981C42.9189 196.832 43.3691 195.853 44.0093 194.964C45.1999 193.336 46.3904 193.496 49.2116 195.664C49.2516 195.614 49.3217 195.554 49.3217 195.494C49.4017 194.435 49.7118 194.095 50.9324 194.445C52.9933 195.024 54.8541 194.285 56.4948 192.847C57.6453 194.625 58.5157 196.543 59.4861 198.401C59.7962 199 59.3861 199.11 58.9859 199.26C57.4152 199.849 55.9646 199.439 54.5539 198.74C54.2538 198.59 53.9737 198.421 53.6836 198.251C53.4235 198.101 53.2134 197.941 52.9833 198.331C52.7532 198.7 52.8232 198.9 53.1833 199.12C55.1342 200.308 57.1651 201.038 59.4461 200.159C59.9563 199.959 60.2464 199.889 60.4965 200.488C61.607 203.165 62.7175 205.842 63.898 208.499C64.2082 209.199 63.868 209.458 63.4178 209.808C60.1164 212.355 56.3147 213.903 52.393 215.192C48.2412 216.56 43.9793 217.479 39.6574 218.139C38.9471 218.249 38.3469 218.378 38.1768 217.31C37.4265 212.555 36.7962 207.78 36.406 202.975C36.406 202.866 36.436 202.746 36.456 202.556L36.446 202.536Z" fill="#CAE0FF"/>
<path d="M120.073 275.046C110.208 275.046 100.354 275.026 90.4896 275.076C89.4192 275.076 89.129 274.846 89.3591 273.787C89.7093 272.169 89.9694 270.531 90.2095 268.882C90.3095 268.203 90.5797 268.033 91.2399 268.043C94.8215 268.073 98.3931 268.063 101.975 268.063C117.912 268.063 133.849 268.073 149.776 268.043C150.796 268.043 151.136 268.253 151.066 269.312C150.966 270.84 150.976 272.389 151.066 273.917C151.116 274.866 150.826 275.076 149.906 275.066C141.212 275.026 132.518 275.046 123.824 275.046H120.083H120.073Z" fill="#CAE0FF"/>
<path d="M177.027 257.325V258.594C177.027 270.98 177.017 283.356 177.057 295.743C177.057 296.782 176.817 297.051 175.777 297.031C172.696 296.951 169.614 296.971 166.543 297.031C165.703 297.041 165.522 296.782 165.532 295.992C165.562 289.39 165.322 282.767 165.632 276.174C165.833 271.869 167.743 267.943 169.984 264.268C171.385 261.98 173.126 259.982 175.317 258.404C175.807 258.054 176.347 257.765 177.037 257.335L177.027 257.325Z" fill="#CAE0FF"/>
<path d="M163.792 249.374C163.792 257.825 163.792 266.076 163.802 274.336C163.802 274.996 163.521 275.066 162.981 275.056C159.61 275.036 156.248 275.046 152.877 275.056C152.387 275.056 152.066 275.076 152.016 274.376C151.386 266.425 153.647 259.403 158.769 253.31C160.11 251.721 161.701 250.413 163.782 249.374H163.792Z" fill="#CAE0FF"/>
<path d="M48.5813 193.746C45.9802 192.397 44.3795 192.637 43.1389 194.495C41.4982 196.952 41.6883 199.229 43.7792 200.908C44.4095 201.417 44.4195 201.577 43.7192 201.976C41.4682 203.235 38.827 203.095 36.9262 201.577C36.556 201.277 36.2759 200.977 36.2559 200.458C36.0058 195.054 35.8958 189.66 37.3764 184.376C37.5565 183.737 37.8066 183.117 38.0767 182.518C38.8771 180.77 39.9976 179.292 42.1085 179.292C44.3495 179.292 46.2303 180.141 47.3608 182.248C48.7514 184.825 48.9715 187.632 48.9215 190.469C48.9015 191.538 48.9915 192.627 48.5813 193.746Z" fill="#CAE0FF"/>
<path d="M102.515 258.744C102.515 261.191 102.475 263.648 102.535 266.096C102.555 266.885 102.335 267.084 101.574 267.074C98.2029 267.034 94.8314 267.044 91.46 267.074C90.7797 267.074 90.4995 266.985 90.6396 266.195C91.5 261.201 92.4504 256.236 93.5809 251.292C93.771 250.483 94.1011 250.233 94.9115 250.253C96.9924 250.303 99.0733 250.273 101.154 250.243C101.824 250.233 102.105 250.403 102.095 251.142C102.055 253.679 102.075 256.206 102.075 258.744C102.225 258.744 102.365 258.744 102.515 258.744Z" fill="#A1C9FF"/>
<path d="M151.576 259.053C151.886 259.633 152.167 260.232 152.517 260.781C152.797 261.211 152.777 261.58 152.617 262.06C152.157 263.388 151.766 264.737 151.366 266.085C151.116 266.934 149.625 267.574 149.125 266.914C148.145 265.626 146.664 265.516 145.013 264.817C146.204 264.817 147.034 264.847 147.865 264.807C148.525 264.777 149.185 264.677 149.836 264.547C150.386 264.437 150.866 264.138 150.976 263.538C151.096 262.909 150.646 262.559 150.186 262.25C149.175 261.58 147.975 261.371 146.864 260.801C147.655 260.801 148.435 260.791 149.225 260.801C150.486 260.831 151.436 260.462 151.606 259.033L151.586 259.053H151.576Z" fill="#A1C9FF"/>
<path d="M48.9114 182.828C50.8222 184.376 52.2528 186.274 53.7635 188.362C52.3729 188.661 51.1724 189.111 49.9618 190.03C49.9218 187.482 49.6817 185.125 48.9114 182.828Z" fill="#CAE0FF"/>
<path d="M168.023 265.566C166.693 268.203 165.712 270.82 164.792 273.527C164.792 271.05 164.792 268.563 164.792 266.085C164.792 265.606 165.062 265.566 165.432 265.566C166.253 265.566 167.073 265.566 168.033 265.566H168.023Z" fill="#A1C9FF"/>
<path d="M55.9746 189.84C57.9155 191.118 59.5462 192.217 61.1869 193.296C61.7872 193.696 61.8272 194.045 61.2669 194.545C59.5062 196.113 59.5162 196.123 58.3657 194.065C57.6353 192.777 56.905 191.488 55.9746 189.85V189.84Z" fill="#CAE0FF"/>
<path d="M52.613 189.72C52.1328 191.108 52.1628 192.327 53.1132 193.396C51.5926 193.825 50.192 193.506 49.9118 192.716C49.5917 191.807 50.7822 190.429 52.613 189.72Z" fill="#CAE0FF"/>
<path d="M221.877 168.773C203.519 168.773 185.151 168.773 166.793 168.773C162.981 168.773 161.051 166.845 161.051 163.03C161.051 158.415 161.051 153.8 161.051 149.185C161.051 145.899 163.131 143.821 166.423 143.821C203.479 143.821 240.535 143.821 277.592 143.821C280.893 143.821 282.954 145.889 282.964 149.185C282.964 153.92 282.964 158.664 282.964 163.399C282.964 166.685 280.883 168.763 277.592 168.763C259.023 168.763 240.455 168.763 221.877 168.763V168.773Z" fill="#041C42"/>
<path d="M221.997 108.909C203.589 108.909 185.191 108.909 166.783 108.909C162.971 108.909 161.031 106.981 161.031 103.176C161.031 98.5606 161.031 93.9457 161.031 89.3309C161.031 86.0445 163.111 83.9668 166.403 83.9668C203.459 83.9668 240.515 83.9668 277.572 83.9668C280.873 83.9668 282.944 86.0345 282.944 89.3309C282.944 94.0656 282.944 98.8104 282.944 103.545C282.944 106.841 280.863 108.909 277.572 108.909C259.043 108.909 240.515 108.909 221.987 108.909H221.997Z" fill="#041C42"/>
<path d="M221.997 198.71C203.589 198.71 185.191 198.71 166.783 198.71C162.971 198.71 161.031 196.782 161.031 192.976C161.031 188.361 161.031 183.747 161.031 179.132C161.031 175.845 163.111 173.768 166.403 173.768C203.459 173.768 240.515 173.768 277.572 173.768C280.873 173.768 282.944 175.835 282.944 179.132C282.944 183.866 282.944 188.611 282.944 193.346C282.944 196.642 280.863 198.71 277.572 198.71C259.043 198.71 240.515 198.71 221.987 198.71H221.997Z" fill="#041C42"/>
<path d="M222.127 203.705C240.485 203.705 258.853 203.705 277.211 203.705C281.023 203.705 282.964 205.632 282.964 209.438C282.964 214.053 282.964 218.668 282.964 223.283C282.964 226.579 280.883 228.647 277.592 228.647C240.535 228.647 203.479 228.647 166.423 228.647C163.121 228.647 161.051 226.579 161.051 223.283C161.051 218.548 161.051 213.803 161.051 209.069C161.051 205.782 163.131 203.705 166.423 203.705C184.991 203.705 203.559 203.705 222.137 203.705H222.127Z" fill="#041C42"/>
<path d="M222.127 113.894C240.485 113.894 258.853 113.894 277.211 113.894C281.023 113.894 282.964 115.822 282.964 119.628C282.964 124.243 282.964 128.857 282.964 133.472C282.964 136.769 280.883 138.836 277.592 138.836C240.535 138.836 203.479 138.836 166.423 138.836C163.121 138.836 161.051 136.769 161.051 133.472C161.051 128.738 161.051 123.993 161.051 119.258C161.051 115.972 163.131 113.894 166.423 113.894C184.991 113.894 203.559 113.894 222.137 113.894H222.127Z" fill="#041C42"/>
<path d="M221.987 250.603C216.785 250.603 211.583 250.603 206.39 250.603C203.849 250.603 202.038 248.964 202.018 246.667C201.988 244.309 203.819 242.631 206.42 242.631C216.825 242.631 227.219 242.631 237.624 242.631C240.165 242.631 241.976 244.27 241.996 246.567C242.026 248.924 240.195 250.603 237.594 250.603C232.392 250.603 227.189 250.603 221.997 250.603H221.987Z" fill="#041C42"/>
<path d="M234.012 59.0244C236.984 59.0244 239.445 61.2819 239.445 64.0389C239.445 66.7059 236.994 68.9834 234.092 69.0034C231.091 69.0233 228.64 66.8058 228.62 64.0489C228.6 61.2619 231.001 59.0244 234.012 59.0244Z" fill="#041C42"/>
<path d="M194.015 63.9692C194.015 62.6007 194.045 61.2323 194.005 59.8638C193.985 59.2445 194.105 58.9648 194.805 59.0047C195.846 59.0647 196.886 58.9947 197.927 59.0247C200.008 59.0946 201.558 60.6029 201.558 62.5208C201.558 64.4287 199.998 65.9171 197.907 65.997C197.737 65.997 197.566 66.0269 197.406 65.997C196.456 65.8471 196.016 66.1768 196.186 67.1757C196.226 67.4154 196.156 67.6751 196.196 67.9248C196.336 68.8139 195.966 69.0236 195.105 69.0236C194.265 69.0236 193.935 68.8638 193.995 67.9448C194.085 66.6263 194.015 65.2878 194.015 63.9592V63.9692Z" fill="#041C42"/>
<path d="M213.954 68.9936C210.982 69.0135 208.781 67.4053 208.231 65.1179C207.691 62.9103 208.761 60.7027 210.892 59.6439C213.143 58.5152 216.085 58.9946 217.555 60.7127C217.885 61.1023 218.075 61.342 217.375 61.5418C216.595 61.7616 215.965 62.0912 215.104 61.4619C213.824 60.5329 211.933 60.9724 210.942 62.1711C210.062 63.2399 210.012 64.6684 210.842 65.7272C211.803 66.9758 213.533 67.3254 215.014 66.6462C215.414 66.4564 215.694 65.897 216.185 66.0668C216.755 66.2666 217.645 66.2266 217.795 66.786C217.945 67.3154 217.165 67.665 216.705 67.9947C215.764 68.6739 214.694 68.9536 213.964 68.9836L213.954 68.9936Z" fill="#041C42"/>
<path d="M245.597 59.0345C246.278 58.9546 246.918 59.0645 247.468 59.3142C247.868 59.504 248.799 59.3042 248.499 60.2632C248.259 61.0223 247.918 61.6516 246.948 61.0123C246.718 60.8625 246.398 60.8125 246.118 60.7826C245.327 60.7027 244.487 60.8026 244.297 61.6916C244.117 62.5606 244.897 62.8803 245.587 63.08C246.388 63.3098 247.188 63.4796 247.878 63.999C249.199 64.9879 249.379 66.4163 248.299 67.665C246.868 69.3231 243.647 69.463 242.056 67.9746C241.676 67.615 241.606 67.3453 242.006 66.9557C242.336 66.6361 242.506 66.0268 243.156 66.5362C243.947 67.1555 244.847 67.3953 245.848 67.0956C246.318 66.9557 246.668 66.686 246.718 66.1566C246.758 65.6672 246.438 65.3775 246.038 65.2177C245.497 64.9979 244.947 64.8481 244.397 64.6583C242.746 64.1089 241.916 63.13 242.046 61.8614C242.216 60.2232 243.367 59.1644 245.137 59.0345C245.307 59.0245 245.467 59.0345 245.587 59.0345H245.597Z" fill="#041C42"/>
<path d="M222.127 64.938C222.127 63.9391 222.067 62.9402 222.147 61.9513C222.207 61.1522 221.907 60.9224 221.157 61.0123C220.787 61.0623 220.406 60.9924 220.036 61.0223C219.276 61.0923 218.836 61.0223 218.836 60.0135C218.836 59.0146 219.286 58.9946 220.036 59.0046C222.237 59.0445 224.448 59.0645 226.649 58.9946C227.56 58.9646 227.499 59.4141 227.529 60.0334C227.559 60.7426 227.439 61.0423 226.609 61.0323C224.268 61.0123 224.268 61.0623 224.268 63.4297C224.268 65.0079 224.198 66.5962 224.288 68.1644C224.348 69.1433 223.778 68.9935 223.208 68.9935C222.637 68.9935 222.037 69.1333 222.107 68.1644C222.187 67.0856 222.127 66.0068 222.127 64.928V64.938Z" fill="#041C42"/>
<path d="M203.739 63.9792C203.739 62.5708 203.789 61.1623 203.719 59.7539C203.669 58.8349 204.259 59.0047 204.759 59.0347C205.259 59.0646 205.959 58.715 205.949 59.7639C205.909 62.5807 205.899 65.3976 205.949 68.2145C205.969 69.3333 205.229 68.9437 204.689 69.0036C204.099 69.0736 203.669 69.0436 203.709 68.2045C203.779 66.7961 203.729 65.3876 203.729 63.9792H203.739Z" fill="#041C42"/>
<path d="M222.067 144.83C240.465 144.83 258.863 144.83 277.261 144.83C280.473 144.83 281.963 146.328 281.963 149.574C281.963 154.189 281.963 158.804 281.963 163.419C281.963 166.136 280.333 167.784 277.641 167.784C240.555 167.784 203.459 167.784 166.373 167.784C163.671 167.784 162.051 166.146 162.051 163.419C162.051 158.804 162.051 154.189 162.051 149.574C162.051 146.338 163.541 144.83 166.753 144.83C185.191 144.83 203.639 144.83 222.077 144.83H222.067Z" fill="white"/>
<path d="M221.997 84.9658C240.435 84.9658 258.883 84.9658 277.321 84.9658C280.443 84.9658 281.963 86.4941 281.963 89.6406C281.963 94.2955 281.963 98.9503 281.963 103.605C281.963 106.242 280.323 107.91 277.702 107.91C240.565 107.91 203.439 107.91 166.303 107.91C163.682 107.91 162.041 106.252 162.041 103.615C162.041 98.8305 162.041 94.0558 162.041 89.2711C162.041 86.574 163.692 84.9658 166.423 84.9658C184.951 84.9658 203.469 84.9658 221.997 84.9658Z" fill="white"/>
<path d="M221.987 174.767C240.425 174.767 258.873 174.767 277.311 174.767C280.443 174.767 281.963 176.295 281.963 179.431C281.963 184.086 281.963 188.741 281.963 193.396C281.963 196.093 280.323 197.711 277.592 197.711C240.545 197.711 203.489 197.711 166.443 197.711C163.652 197.711 162.041 196.093 162.041 193.296C162.041 188.561 162.041 183.817 162.041 179.082C162.041 176.385 163.682 174.767 166.413 174.767C184.941 174.767 203.459 174.767 221.987 174.767Z" fill="white"/>
<path d="M221.987 204.703C240.425 204.703 258.873 204.703 277.311 204.703C280.443 204.703 281.963 206.231 281.963 209.368C281.963 213.983 281.963 218.598 281.963 223.213C281.963 226.02 280.363 227.648 277.592 227.648C240.545 227.648 203.489 227.648 166.443 227.648C163.652 227.648 162.051 226.03 162.041 223.233C162.041 218.538 162.041 213.843 162.041 209.138C162.041 206.271 163.642 204.703 166.543 204.703C185.021 204.703 203.509 204.703 221.987 204.703Z" fill="white"/>
<path d="M222.007 137.847C203.569 137.847 185.121 137.847 166.683 137.847C163.552 137.847 162.031 136.319 162.031 133.183C162.031 128.568 162.031 123.953 162.031 119.338C162.031 116.521 163.632 114.903 166.403 114.903C203.449 114.903 240.505 114.903 277.552 114.903C280.343 114.903 281.943 116.521 281.953 119.318C281.953 124.053 281.953 128.797 281.953 133.532C281.953 136.229 280.313 137.847 277.582 137.847C259.053 137.847 240.535 137.847 222.007 137.847Z" fill="white"/>
<path d="M221.857 249.603C216.745 249.603 211.623 249.603 206.51 249.603C204.349 249.603 203.009 248.445 203.009 246.597C203.009 244.769 204.369 243.62 206.54 243.62C216.855 243.62 227.169 243.62 237.484 243.62C239.645 243.62 240.985 244.779 240.985 246.627C240.985 248.455 239.635 249.603 237.454 249.603C232.252 249.603 227.059 249.603 221.857 249.603Z" fill="white"/>
<path d="M183.02 156.277C183.02 158.065 183.04 159.843 183.02 161.631C183 163.529 181.81 164.767 179.919 164.777C176.297 164.807 172.686 164.807 169.064 164.777C167.253 164.767 166.053 163.519 166.033 161.691C166.003 158.075 166.003 154.469 166.033 150.853C166.043 149.055 167.293 147.846 169.124 147.826C172.746 147.796 176.357 147.796 179.979 147.826C181.79 147.836 182.98 149.085 183.01 150.913C183.04 152.701 183.01 154.479 183.01 156.267L183.02 156.277Z" fill="#041C42"/>
<path d="M191.134 158.075C190.643 158.075 190.143 158.075 189.653 158.075C189.313 158.075 189.113 157.955 189.133 157.576C189.143 157.216 189.173 156.906 189.643 156.906C190.633 156.906 191.624 156.906 192.604 156.906C193.114 156.906 193.014 157.296 193.034 157.615C193.064 158.025 192.814 158.075 192.494 158.075C192.044 158.075 191.584 158.075 191.134 158.075Z" fill="#041C42"/>
<path d="M211.703 158.085C211.252 158.085 210.792 158.075 210.342 158.085C209.962 158.095 209.712 158.035 209.742 157.556C209.762 157.196 209.772 156.897 210.252 156.906C211.202 156.916 212.143 156.906 213.093 156.906C213.523 156.906 213.643 157.136 213.663 157.526C213.683 157.975 213.463 158.095 213.063 158.085C212.613 158.075 212.153 158.085 211.703 158.085Z" fill="#041C42"/>
<path d="M232.302 158.075C231.811 158.075 231.311 158.075 230.821 158.075C230.431 158.075 230.341 157.855 230.351 157.516C230.361 157.206 230.401 156.916 230.791 156.906C231.821 156.896 232.852 156.896 233.882 156.906C234.313 156.906 234.233 157.266 234.263 157.546C234.293 157.895 234.183 158.085 233.792 158.075C233.302 158.055 232.802 158.075 232.312 158.075H232.302Z" fill="#041C42"/>
<path d="M252.941 158.085C252.45 158.085 251.95 158.075 251.46 158.085C251.08 158.095 250.95 157.935 250.97 157.566C250.99 157.216 250.98 156.896 251.46 156.906C252.41 156.906 253.351 156.906 254.301 156.906C254.731 156.906 254.861 157.116 254.881 157.516C254.901 157.945 254.711 158.105 254.301 158.085C253.851 158.065 253.391 158.085 252.941 158.085Z" fill="#041C42"/>
<path d="M247.788 158.085C247.338 158.085 246.878 158.085 246.428 158.085C246.068 158.085 245.788 158.055 245.788 157.566C245.788 157.086 245.988 156.906 246.458 156.906C247.368 156.916 248.279 156.916 249.189 156.906C249.629 156.906 249.729 157.126 249.749 157.526C249.759 157.975 249.569 158.095 249.159 158.085C248.709 158.065 248.249 158.085 247.798 158.085H247.788Z" fill="#041C42"/>
<path d="M263.215 158.075C262.715 158.075 262.225 158.075 261.724 158.075C261.344 158.075 261.234 157.885 261.254 157.525C261.274 157.216 261.284 156.926 261.684 156.916C262.715 156.916 263.755 156.916 264.786 156.916C265.196 156.916 265.176 157.246 265.196 157.545C265.226 157.915 265.066 158.075 264.706 158.065C264.205 158.065 263.715 158.065 263.215 158.065V158.075Z" fill="#041C42"/>
<path d="M221.967 158.075C221.507 158.075 221.057 158.065 220.607 158.075C220.196 158.085 220.026 157.935 220.026 157.496C220.026 157.066 220.206 156.896 220.617 156.906C221.527 156.906 222.437 156.916 223.348 156.906C223.838 156.906 223.978 157.116 223.978 157.585C223.978 158.095 223.668 158.075 223.328 158.085C222.868 158.085 222.417 158.085 221.957 158.085L221.967 158.075Z" fill="#041C42"/>
<path d="M237.444 158.075C236.944 158.075 236.453 158.075 235.953 158.075C235.553 158.075 235.473 157.865 235.493 157.525C235.513 157.226 235.493 156.916 235.913 156.916C236.944 156.916 237.984 156.906 239.015 156.916C239.415 156.916 239.415 157.236 239.435 157.545C239.465 157.925 239.295 158.075 238.935 158.075C238.434 158.075 237.944 158.075 237.444 158.075Z" fill="#041C42"/>
<path d="M206.53 158.075C206.03 158.075 205.54 158.075 205.04 158.075C204.66 158.075 204.55 157.875 204.57 157.526C204.58 157.206 204.63 156.926 205.02 156.916C206.05 156.906 207.091 156.906 208.121 156.916C208.541 156.916 208.491 157.266 208.511 157.545C208.541 157.915 208.391 158.075 208.021 158.065C207.521 158.055 207.031 158.065 206.53 158.065V158.075Z" fill="#041C42"/>
<path d="M196.166 158.075C195.716 158.075 195.255 158.075 194.805 158.075C194.475 158.075 194.245 158.005 194.265 157.596C194.285 157.256 194.245 156.906 194.735 156.906C195.726 156.906 196.716 156.896 197.716 156.906C198.177 156.906 198.197 157.236 198.207 157.596C198.207 158.005 197.977 158.075 197.656 158.075C197.156 158.075 196.666 158.075 196.166 158.075Z" fill="#041C42"/>
<path d="M242.616 158.075C242.166 158.075 241.706 158.055 241.256 158.075C240.835 158.095 240.655 157.945 240.685 157.506C240.705 157.196 240.715 156.916 241.126 156.906C242.116 156.906 243.106 156.906 244.097 156.906C244.497 156.906 244.527 157.186 244.547 157.496C244.577 157.915 244.407 158.085 243.987 158.065C243.537 158.045 243.076 158.065 242.626 158.065L242.616 158.075Z" fill="#041C42"/>
<path d="M258.063 158.085C257.603 158.085 257.152 158.065 256.692 158.085C256.262 158.105 256.122 157.915 256.122 157.496C256.122 157.076 256.302 156.896 256.722 156.896C257.633 156.896 258.543 156.906 259.454 156.896C259.904 156.896 259.994 157.126 260.004 157.516C260.014 157.955 259.834 158.095 259.424 158.075C258.973 158.055 258.513 158.075 258.053 158.075L258.063 158.085Z" fill="#041C42"/>
<path d="M268.267 158.085C267.807 158.085 267.357 158.075 266.897 158.085C266.497 158.095 266.417 157.865 266.437 157.535C266.447 157.236 266.437 156.926 266.847 156.916C267.837 156.916 268.838 156.916 269.828 156.916C270.308 156.916 270.298 157.266 270.308 157.615C270.308 158.015 270.088 158.085 269.758 158.085C269.258 158.085 268.768 158.085 268.267 158.085Z" fill="#041C42"/>
<path d="M201.368 158.075C200.958 158.075 200.538 158.055 200.128 158.075C199.697 158.095 199.427 158.015 199.457 157.486C199.477 157.066 199.647 156.906 200.058 156.906C200.968 156.916 201.868 156.916 202.779 156.906C203.229 156.906 203.309 157.146 203.329 157.536C203.349 157.985 203.129 158.095 202.729 158.075C202.279 158.055 201.818 158.075 201.368 158.075Z" fill="#041C42"/>
<path d="M216.935 156.906C217.395 156.906 217.845 156.906 218.306 156.906C218.796 156.906 218.776 157.246 218.786 157.586C218.806 157.975 218.616 158.085 218.266 158.075C217.315 158.065 216.365 158.065 215.404 158.075C215.024 158.075 214.904 157.905 214.904 157.546C214.904 157.166 214.984 156.896 215.434 156.896C215.935 156.896 216.425 156.896 216.925 156.896L216.935 156.906Z" fill="#041C42"/>
<path d="M227.159 158.085C226.659 158.085 226.169 158.075 225.669 158.085C225.258 158.095 225.198 157.855 225.218 157.536C225.228 157.236 225.218 156.926 225.639 156.926C226.629 156.926 227.629 156.926 228.62 156.926C229.1 156.926 229.08 157.286 229.09 157.625C229.09 158.035 228.86 158.095 228.53 158.085C228.07 158.085 227.619 158.085 227.159 158.085Z" fill="#041C42"/>
<path d="M183.03 96.563C183.03 98.3111 183.05 100.049 183.03 101.797C183.01 103.685 181.8 104.904 179.899 104.914C176.327 104.934 172.746 104.934 169.174 104.914C167.283 104.904 166.063 103.685 166.053 101.797C166.033 98.2311 166.033 94.6551 166.053 91.0891C166.063 89.2011 167.283 87.9825 169.174 87.9725C172.746 87.9525 176.327 87.9525 179.899 87.9725C181.79 87.9825 183 89.2011 183.02 91.0891C183.05 92.917 183.02 94.745 183.02 96.573L183.03 96.563Z" fill="#041C42"/>
<path d="M240.795 96.6628C241.216 96.9425 242.276 96.1334 242.296 97.1323C242.316 98.231 241.236 97.5118 240.665 97.6717C240.325 97.7715 239.935 97.6717 239.565 97.6916C239.185 97.7116 238.955 97.6417 238.955 97.1622C238.955 96.6728 239.235 96.6528 239.585 96.6628C239.955 96.6628 240.325 96.6628 240.795 96.6628Z" fill="#041C42"/>
<path d="M244.937 97.6817C244.557 97.4021 243.577 98.1912 243.537 97.2322C243.497 96.1335 244.517 96.8327 245.047 96.6828C245.427 96.573 245.878 96.6828 246.288 96.6629C246.708 96.6429 246.888 96.8027 246.868 97.2422C246.848 97.6618 246.598 97.6917 246.288 97.6817C245.868 97.6817 245.457 97.6817 244.947 97.6817H244.937Z" fill="#041C42"/>
<path d="M249.709 97.6817C249.299 97.6817 248.879 97.6717 248.469 97.6817C248.089 97.7016 247.979 97.5318 247.979 97.1622C247.979 96.7926 248.109 96.6428 248.479 96.6528C249.219 96.6628 249.969 96.6628 250.71 96.6528C251.12 96.6528 251.44 96.6828 251.41 97.2322C251.38 97.7616 251.01 97.6517 250.7 97.6717C250.37 97.6817 250.039 97.6717 249.709 97.6717V97.6817Z" fill="#041C42"/>
<path d="M253.901 97.6818C253.531 97.3821 252.541 98.2212 252.531 97.2123C252.521 96.1634 253.521 96.8127 254.051 96.6829C254.481 96.573 254.962 96.6629 255.412 96.6629C255.772 96.6629 255.912 96.8327 255.912 97.1923C255.912 97.5919 255.702 97.6818 255.372 97.6718C254.912 97.6718 254.461 97.6718 253.911 97.6718L253.901 97.6818Z" fill="#041C42"/>
<path d="M258.573 97.6816C258.163 97.342 257.032 98.271 257.053 97.1322C257.073 96.1433 258.093 96.8425 258.643 96.6827C259.023 96.5728 259.464 96.6627 259.874 96.6627C260.214 96.6627 260.404 96.7726 260.404 97.1622C260.404 97.5318 260.264 97.6916 259.904 97.6816C259.494 97.6816 259.083 97.6816 258.573 97.6816Z" fill="#041C42"/>
<path d="M263.215 97.6819C262.845 97.6819 262.465 97.6819 262.095 97.6819C261.715 97.6919 261.474 97.632 261.484 97.1425C261.494 96.6331 261.815 96.6531 262.145 96.6531C262.855 96.6531 263.555 96.6531 264.266 96.6531C264.596 96.6531 264.926 96.6131 264.946 97.1226C264.976 97.7219 264.586 97.662 264.216 97.662C263.885 97.662 263.555 97.662 263.215 97.662V97.6819Z" fill="#041C42"/>
<path d="M204.73 96.6628C205.14 96.9725 206.2 96.0934 206.21 97.1323C206.23 98.251 205.15 97.5019 204.589 97.6717C204.249 97.7716 203.859 97.6817 203.489 97.6917C203.119 97.7017 202.859 97.6417 202.869 97.1722C202.869 96.6828 203.169 96.6628 203.519 96.6728C203.889 96.6728 204.259 96.6728 204.73 96.6728V96.6628Z" fill="#041C42"/>
<path d="M200.248 96.6729C200.648 96.9726 201.708 96.0936 201.698 97.1824C201.698 98.1913 200.678 97.532 200.137 97.6718C199.747 97.7717 199.307 97.6718 198.897 97.6918C198.537 97.6918 198.377 97.552 198.377 97.1824C198.377 96.8028 198.537 96.663 198.897 96.6729C199.317 96.6729 199.727 96.6729 200.248 96.6729Z" fill="#041C42"/>
<path d="M195.435 97.6817C195.025 97.372 193.955 98.271 193.945 97.1822C193.945 96.1234 194.975 96.8426 195.526 96.6828C195.906 96.5729 196.356 96.6828 196.766 96.6628C197.136 96.6528 197.276 96.7927 197.276 97.1722C197.276 97.5418 197.166 97.7016 196.786 97.6917C196.376 97.6717 195.956 97.6917 195.445 97.6917L195.435 97.6817Z" fill="#041C42"/>
<path d="M267.727 97.6818C267.397 97.6818 267.067 97.6818 266.737 97.6818C266.367 97.6818 265.986 97.7417 266.006 97.1424C266.026 96.633 266.336 96.6629 266.667 96.6629C267.367 96.6629 268.067 96.6629 268.768 96.6629C269.098 96.6629 269.418 96.633 269.438 97.1424C269.458 97.7317 269.078 97.6818 268.708 97.6818C268.377 97.6818 268.047 97.6818 267.717 97.6818H267.727Z" fill="#041C42"/>
<path d="M191.094 97.6819C190.683 97.6819 190.263 97.6819 189.853 97.6819C189.503 97.6819 189.333 97.552 189.333 97.1724C189.333 96.7928 189.513 96.663 189.853 96.663C190.593 96.663 191.344 96.663 192.084 96.663C192.404 96.663 192.744 96.5831 192.764 97.1125C192.794 97.6719 192.484 97.7018 192.074 97.6819C191.744 97.6719 191.414 97.6819 191.084 97.6819H191.094Z" fill="#041C42"/>
<path d="M236.133 96.5933C236.634 97.0128 237.774 96.0738 237.754 97.2226C237.734 98.2115 236.694 97.6421 236.163 97.6321C235.623 97.6321 234.523 98.2514 234.543 97.1327C234.563 96.0938 235.623 96.9728 236.133 96.5933Z" fill="#041C42"/>
<path d="M231.491 97.6818C231.091 97.3721 230.041 98.2612 230.031 97.1824C230.031 96.1735 231.031 96.8228 231.571 96.6829C231.962 96.583 232.392 96.6829 232.802 96.6629C233.162 96.6529 233.312 96.7928 233.312 97.1624C233.312 97.522 233.192 97.6918 232.822 97.6818C232.412 97.6618 232.002 97.6818 231.491 97.6818Z" fill="#041C42"/>
<path d="M226.909 97.6817C226.529 97.412 225.549 98.1811 225.509 97.2322C225.469 96.1434 226.489 96.8326 227.019 96.6828C227.4 96.5729 227.84 96.6828 228.26 96.6628C228.69 96.6428 228.84 96.8126 228.83 97.2421C228.82 97.6617 228.57 97.6917 228.26 97.6817C227.85 97.6817 227.43 97.6817 226.919 97.6817H226.909Z" fill="#041C42"/>
<path d="M222.828 96.673C223.218 96.9527 224.258 96.1236 224.228 97.2324C224.198 98.2013 223.258 97.5121 222.748 97.6719C222.367 97.7818 221.927 97.6719 221.517 97.7019C221.107 97.7219 220.927 97.582 220.947 97.1425C220.957 96.743 221.167 96.673 221.497 96.683C221.907 96.683 222.317 96.683 222.828 96.683V96.673Z" fill="#041C42"/>
<path d="M218.095 97.7618C217.585 97.3723 216.505 98.2613 216.495 97.2124C216.495 96.1137 217.585 96.723 218.135 96.713C218.666 96.713 219.716 96.1336 219.726 97.1325C219.736 98.2713 218.606 97.3323 218.095 97.7518V97.7618Z" fill="#041C42"/>
<path d="M213.483 97.682C213.073 97.3724 212.023 98.2714 211.993 97.2025C211.963 96.1837 212.993 96.833 213.523 96.6831C213.834 96.5932 214.184 96.6532 214.514 96.6731C214.854 96.6931 215.274 96.5233 215.294 97.1526C215.314 97.7519 214.944 97.692 214.564 97.692C214.234 97.692 213.904 97.692 213.473 97.692L213.483 97.682Z" fill="#041C42"/>
<path d="M209.271 96.6728C209.672 96.9625 210.722 96.1134 210.712 97.1823C210.702 98.1812 209.692 97.5119 209.151 97.6617C208.811 97.7616 208.411 97.6617 208.041 97.6817C207.671 97.6917 207.411 97.6617 207.421 97.1723C207.421 96.6728 207.701 96.6628 208.061 96.6628C208.431 96.6628 208.801 96.6628 209.271 96.6628V96.6728Z" fill="#041C42"/>
<path d="M174.476 194.725C172.726 194.725 170.985 194.735 169.234 194.725C167.263 194.705 166.053 193.516 166.043 191.548C166.023 188.022 166.023 184.496 166.043 180.96C166.043 178.992 167.253 177.783 169.224 177.773C172.756 177.753 176.287 177.753 179.829 177.773C181.799 177.773 183.01 178.982 183.02 180.95C183.04 184.476 183.04 188.002 183.02 191.538C183.02 193.506 181.809 194.705 179.839 194.725C178.048 194.744 176.267 194.725 174.476 194.725Z" fill="#041C42"/>
<path d="M191.084 188.012C190.633 188.012 190.173 188.012 189.723 188.012C189.343 188.012 189.093 187.932 189.113 187.472C189.133 187.093 189.223 186.833 189.663 186.843C190.613 186.843 191.554 186.853 192.504 186.843C192.974 186.843 193.004 187.113 193.024 187.482C193.054 187.942 192.834 188.042 192.434 188.022C191.984 188.002 191.524 188.022 191.074 188.022L191.084 188.012Z" fill="#041C42"/>
<path d="M211.643 188.012C211.192 188.012 210.732 188.012 210.282 188.012C209.962 188.012 209.712 187.972 209.742 187.552C209.762 187.233 209.662 186.843 210.172 186.843C211.162 186.843 212.153 186.843 213.133 186.843C213.603 186.843 213.633 187.153 213.643 187.513C213.653 187.892 213.463 188.022 213.123 188.012C212.633 188.012 212.133 188.012 211.643 188.012Z" fill="#041C42"/>
<path d="M232.302 188.012C231.811 188.012 231.311 188.012 230.821 188.012C230.431 188.012 230.341 187.802 230.351 187.463C230.361 187.153 230.401 186.863 230.791 186.853C231.821 186.843 232.852 186.843 233.882 186.853C234.313 186.853 234.243 187.203 234.263 187.483C234.293 187.832 234.183 188.022 233.792 188.012C233.302 187.992 232.802 188.012 232.312 188.012H232.302Z" fill="#041C42"/>
<path d="M252.941 188.012C252.45 188.012 251.95 188.002 251.46 188.012C251.08 188.022 250.95 187.862 250.97 187.493C250.99 187.143 250.98 186.823 251.46 186.833C252.41 186.833 253.351 186.833 254.301 186.833C254.731 186.833 254.861 187.043 254.881 187.443C254.901 187.872 254.711 188.032 254.301 188.012C253.851 187.992 253.391 188.012 252.941 188.012Z" fill="#041C42"/>
<path d="M196.196 188.012C195.746 188.012 195.285 187.992 194.835 188.012C194.415 188.032 194.265 187.862 194.265 187.432C194.265 187.013 194.425 186.833 194.845 186.833C195.756 186.833 196.666 186.843 197.576 186.833C198.057 186.833 198.217 187.043 198.217 187.512C198.217 188.012 197.896 188.012 197.556 188.012C197.106 188.012 196.646 188.012 196.196 188.012Z" fill="#041C42"/>
<path d="M206.58 188.012C206.08 188.012 205.59 188.012 205.09 188.012C204.76 188.012 204.549 187.902 204.559 187.513C204.569 187.143 204.619 186.843 205.08 186.843C206.03 186.843 206.98 186.843 207.931 186.843C208.351 186.843 208.501 187.023 208.511 187.443C208.511 187.872 208.371 188.042 207.941 188.022C207.491 188.002 207.031 188.022 206.58 188.022V188.012Z" fill="#041C42"/>
<path d="M263.235 188.012C262.775 188.012 262.325 188.012 261.865 188.012C261.505 188.012 261.224 187.972 261.244 187.483C261.264 187.093 261.344 186.843 261.785 186.843C262.735 186.843 263.685 186.843 264.636 186.843C265.076 186.843 265.176 187.073 265.196 187.473C265.216 187.942 264.976 188.032 264.596 188.022C264.146 188.012 263.685 188.022 263.235 188.022V188.012Z" fill="#041C42"/>
<path d="M221.957 188.012C221.507 188.012 221.047 188.012 220.596 188.012C220.296 188.012 220.016 187.982 220.026 187.563C220.036 187.223 220.006 186.863 220.486 186.863C221.477 186.853 222.467 186.863 223.468 186.863C223.928 186.863 223.958 187.173 223.968 187.533C223.978 187.932 223.778 188.032 223.438 188.022C222.937 188.022 222.447 188.022 221.947 188.022L221.957 188.012Z" fill="#041C42"/>
<path d="M247.708 188.012C247.258 188.012 246.798 188.012 246.348 188.012C246.028 188.012 245.778 187.952 245.788 187.543C245.788 187.183 245.808 186.853 246.278 186.843C247.268 186.833 248.259 186.843 249.259 186.843C249.739 186.843 249.719 187.183 249.739 187.533C249.759 187.932 249.539 188.022 249.209 188.012C248.709 188.012 248.219 188.012 247.718 188.012H247.708Z" fill="#041C42"/>
<path d="M237.424 188.012C236.974 188.012 236.514 187.992 236.063 188.012C235.643 188.032 235.483 187.862 235.493 187.432C235.493 187.013 235.643 186.823 236.063 186.833C236.974 186.833 237.884 186.843 238.795 186.833C239.275 186.833 239.435 187.043 239.445 187.512C239.445 188.012 239.135 188.012 238.795 188.012C238.344 188.012 237.884 188.012 237.434 188.012H237.424Z" fill="#041C42"/>
<path d="M242.566 188.012C242.116 188.012 241.656 188.012 241.205 188.012C240.865 188.012 240.665 187.922 240.685 187.523C240.695 187.173 240.685 186.843 241.175 186.843C242.126 186.843 243.076 186.843 244.017 186.843C244.477 186.843 244.527 187.113 244.547 187.483C244.567 187.962 244.307 188.022 243.937 188.012C243.486 187.992 243.026 188.012 242.576 188.012H242.566Z" fill="#041C42"/>
<path d="M227.179 188.012C226.719 188.012 226.269 188.002 225.809 188.012C225.419 188.032 225.188 187.932 225.208 187.473C225.228 187.103 225.279 186.823 225.739 186.833C226.649 186.843 227.56 186.843 228.47 186.833C228.98 186.833 229.09 187.093 229.09 187.533C229.09 188.042 228.76 188.012 228.42 188.012C228.01 188.012 227.59 188.012 227.179 188.012Z" fill="#041C42"/>
<path d="M258.143 186.843C258.553 186.843 258.973 186.863 259.383 186.843C259.884 186.813 260.004 187.053 260.014 187.513C260.014 188.012 259.744 188.032 259.383 188.022C258.513 188.022 257.643 188.022 256.772 188.022C256.412 188.022 256.122 188.002 256.122 187.513C256.122 187.043 256.282 186.823 256.762 186.843C257.213 186.863 257.673 186.843 258.133 186.843H258.143Z" fill="#041C42"/>
<path d="M216.855 188.012C216.395 188.012 215.945 187.992 215.484 188.012C215.064 188.032 214.884 187.862 214.904 187.433C214.924 187.113 214.964 186.843 215.364 186.843C216.355 186.843 217.355 186.843 218.346 186.843C218.766 186.843 218.756 187.143 218.786 187.443C218.816 187.872 218.646 188.032 218.216 188.012C217.765 187.992 217.305 188.012 216.845 188.012H216.855Z" fill="#041C42"/>
<path d="M268.297 188.012C267.887 188.012 267.467 188.002 267.057 188.012C266.687 188.022 266.427 187.982 266.437 187.492C266.437 187.023 266.587 186.813 267.077 186.823C267.947 186.843 268.818 186.843 269.688 186.823C270.178 186.823 270.318 187.043 270.328 187.502C270.328 188.002 270.028 188.002 269.678 188.002C269.218 188.002 268.768 188.002 268.307 188.002L268.297 188.012Z" fill="#041C42"/>
<path d="M201.278 188.012C200.828 188.012 200.368 188.002 199.917 188.012C199.517 188.022 199.447 187.792 199.457 187.462C199.467 187.163 199.467 186.863 199.877 186.853C200.868 186.853 201.858 186.853 202.849 186.853C203.339 186.853 203.289 187.223 203.309 187.552C203.329 187.962 203.079 188.012 202.759 188.012C202.268 188.012 201.768 188.012 201.278 188.012Z" fill="#041C42"/>
<path d="M166.033 216.11C166.033 214.362 166.023 212.624 166.033 210.876C166.053 208.908 167.243 207.7 169.214 207.69C172.746 207.67 176.277 207.67 179.819 207.69C181.789 207.69 183 208.898 183.01 210.866C183.03 214.392 183.03 217.918 183.01 221.455C183.01 223.422 181.799 224.631 179.829 224.641C176.297 224.661 172.766 224.661 169.224 224.641C167.253 224.641 166.053 223.432 166.033 221.465C166.013 219.677 166.033 217.898 166.033 216.11Z" fill="#041C42"/>
<path d="M191.224 216.78C191.634 216.78 192.044 216.79 192.454 216.78C192.874 216.76 193.034 216.94 193.034 217.359C193.034 217.749 192.954 217.968 192.504 217.959C191.554 217.939 190.613 217.949 189.663 217.959C189.323 217.959 189.113 217.859 189.123 217.469C189.133 217.119 189.143 216.79 189.613 216.79C190.153 216.79 190.683 216.79 191.224 216.79V216.78Z" fill="#041C42"/>
<path d="M211.663 217.948C211.172 217.948 210.672 217.939 210.182 217.948C209.762 217.958 209.732 217.709 209.742 217.389C209.752 217.089 209.732 216.79 210.152 216.78C211.142 216.78 212.133 216.78 213.113 216.78C213.573 216.78 213.633 217.059 213.643 217.429C213.663 217.909 213.373 217.958 213.013 217.948C212.563 217.948 212.103 217.948 211.653 217.948H211.663Z" fill="#041C42"/>
<path d="M232.312 217.949C231.861 217.949 231.401 217.949 230.951 217.949C230.571 217.949 230.311 217.879 230.341 217.409C230.361 217.03 230.451 216.77 230.891 216.77C231.841 216.77 232.782 216.78 233.732 216.77C234.202 216.77 234.242 217.04 234.262 217.409C234.282 217.859 234.082 217.969 233.672 217.959C233.222 217.939 232.762 217.959 232.312 217.959V217.949Z" fill="#041C42"/>
<path d="M252.771 217.949C252.32 217.949 251.86 217.939 251.41 217.949C251 217.959 250.95 217.719 250.96 217.399C250.97 217.11 250.94 216.79 251.37 216.79C252.4 216.79 253.431 216.78 254.461 216.79C254.862 216.79 254.862 217.12 254.872 217.419C254.892 217.779 254.741 217.949 254.371 217.949C253.831 217.949 253.301 217.949 252.761 217.949H252.771Z" fill="#041C42"/>
<path d="M263.165 217.949C262.715 217.949 262.255 217.949 261.805 217.949C261.495 217.949 261.244 217.889 261.254 217.479C261.264 217.13 261.254 216.79 261.735 216.79C262.725 216.79 263.726 216.79 264.716 216.79C265.186 216.79 265.186 217.12 265.206 217.479C265.216 217.889 264.986 217.959 264.666 217.959C264.166 217.959 263.675 217.959 263.175 217.959L263.165 217.949Z" fill="#041C42"/>
<path d="M247.708 217.949C247.258 217.949 246.798 217.949 246.348 217.949C246.028 217.949 245.778 217.889 245.788 217.479C245.788 217.119 245.808 216.79 246.278 216.78C247.268 216.77 248.259 216.78 249.259 216.78C249.739 216.78 249.719 217.119 249.739 217.469C249.759 217.869 249.539 217.959 249.209 217.949C248.709 217.949 248.219 217.949 247.718 217.949H247.708Z" fill="#041C42"/>
<path d="M237.444 217.948C236.944 217.948 236.453 217.948 235.953 217.948C235.553 217.948 235.483 217.729 235.493 217.399C235.503 217.099 235.493 216.8 235.913 216.79C236.904 216.79 237.894 216.79 238.895 216.78C239.345 216.78 239.415 217.049 239.435 217.429C239.455 217.919 239.155 217.948 238.805 217.948C238.354 217.948 237.894 217.948 237.444 217.948Z" fill="#041C42"/>
<path d="M222.017 217.949C221.567 217.949 221.107 217.949 220.657 217.949C220.296 217.949 220.006 217.919 220.036 217.419C220.056 217.04 220.126 216.77 220.577 216.78C221.527 216.78 222.477 216.78 223.428 216.78C223.858 216.78 223.978 217 223.988 217.399C223.998 217.859 223.778 217.959 223.388 217.949C222.938 217.939 222.477 217.949 222.027 217.949H222.017Z" fill="#041C42"/>
<path d="M206.6 217.948C206.1 217.948 205.61 217.948 205.11 217.948C204.789 217.948 204.549 217.879 204.559 217.469C204.559 217.109 204.599 216.79 205.06 216.78C206.05 216.78 207.04 216.78 208.041 216.78C208.531 216.78 208.491 217.129 208.511 217.469C208.531 217.879 208.301 217.948 207.971 217.938C207.521 217.938 207.06 217.938 206.61 217.938L206.6 217.948Z" fill="#041C42"/>
<path d="M196.276 217.949C195.776 217.949 195.285 217.949 194.785 217.949C194.445 217.949 194.245 217.849 194.265 217.449C194.285 217.1 194.275 216.77 194.755 216.77C195.746 216.77 196.736 216.77 197.737 216.77C198.207 216.77 198.207 217.13 198.207 217.479C198.207 217.899 197.947 217.929 197.637 217.929C197.186 217.929 196.726 217.929 196.276 217.929V217.949Z" fill="#041C42"/>
<path d="M268.358 217.948C267.897 217.948 267.447 217.948 266.987 217.948C266.667 217.948 266.407 217.909 266.437 217.489C266.457 217.159 266.377 216.78 266.877 216.78C267.867 216.78 268.868 216.78 269.858 216.78C270.258 216.78 270.288 217.069 270.308 217.379C270.338 217.819 270.128 217.958 269.718 217.938C269.268 217.919 268.808 217.938 268.348 217.938L268.358 217.948Z" fill="#041C42"/>
<path d="M257.983 217.949C257.523 217.949 257.072 217.939 256.612 217.949C256.222 217.959 256.132 217.739 256.142 217.399C256.142 217.09 256.172 216.79 256.572 216.78C257.563 216.77 258.563 216.77 259.554 216.78C260.054 216.78 259.994 217.15 260.014 217.479C260.034 217.889 259.804 217.959 259.474 217.949C258.973 217.949 258.483 217.949 257.983 217.949Z" fill="#041C42"/>
<path d="M201.378 217.949C200.928 217.949 200.468 217.929 200.018 217.949C199.587 217.969 199.447 217.779 199.457 217.37C199.457 216.95 199.617 216.77 200.038 216.78C200.948 216.79 201.848 216.79 202.759 216.78C203.199 216.78 203.309 217 203.319 217.399C203.329 217.839 203.149 217.979 202.739 217.959C202.289 217.939 201.828 217.959 201.378 217.959V217.949Z" fill="#041C42"/>
<path d="M242.576 217.948C242.126 217.948 241.666 217.948 241.216 217.948C240.875 217.948 240.665 217.869 240.685 217.469C240.695 217.129 240.685 216.79 241.166 216.78C242.116 216.78 243.066 216.78 244.007 216.78C244.457 216.78 244.527 217.039 244.547 217.419C244.567 217.879 244.327 217.968 243.947 217.948C243.497 217.929 243.036 217.948 242.586 217.948H242.576Z" fill="#041C42"/>
<path d="M216.815 217.948C216.355 217.948 215.904 217.948 215.444 217.948C215.094 217.948 214.904 217.849 214.914 217.459C214.914 217.099 214.944 216.78 215.414 216.78C216.365 216.78 217.315 216.78 218.275 216.78C218.746 216.78 218.776 217.069 218.796 217.429C218.826 217.909 218.566 217.968 218.185 217.958C217.735 217.938 217.275 217.958 216.815 217.958V217.948Z" fill="#041C42"/>
<path d="M227.129 217.949C226.719 217.949 226.299 217.929 225.889 217.949C225.459 217.969 225.178 217.889 225.208 217.359C225.229 216.94 225.379 216.76 225.799 216.77C226.709 216.78 227.62 216.77 228.53 216.77C228.97 216.77 229.08 217 229.09 217.399C229.1 217.849 228.89 217.969 228.49 217.959C228.04 217.939 227.58 217.959 227.119 217.959L227.129 217.949Z" fill="#041C42"/>
<path d="M174.406 134.85C172.655 134.85 170.915 134.87 169.164 134.85C167.273 134.831 166.053 133.622 166.043 131.724C166.023 128.158 166.023 124.582 166.043 121.016C166.053 119.128 167.273 117.909 169.174 117.899C172.746 117.879 176.327 117.879 179.899 117.899C181.789 117.909 183.01 119.128 183.02 121.026C183.04 124.592 183.04 128.168 183.02 131.734C183.01 133.622 181.789 134.831 179.889 134.85C178.058 134.88 176.227 134.85 174.396 134.85H174.406Z" fill="#041C42"/>
<path d="M252.961 128.148C252.471 128.148 251.97 128.148 251.48 128.148C251.12 128.148 250.95 128.038 250.97 127.648C250.99 127.309 250.95 126.969 251.44 126.969C252.43 126.969 253.421 126.969 254.401 126.969C254.872 126.969 254.862 127.329 254.872 127.668C254.872 128.068 254.631 128.138 254.311 128.128C253.861 128.128 253.401 128.128 252.951 128.128L252.961 128.148Z" fill="#041C42"/>
<path d="M232.452 126.98C232.862 126.98 233.272 126.99 233.682 126.98C234.102 126.96 234.262 127.139 234.262 127.559C234.262 127.948 234.182 128.168 233.732 128.158C232.782 128.138 231.841 128.148 230.891 128.158C230.551 128.158 230.341 128.058 230.351 127.669C230.361 127.319 230.371 126.99 230.841 126.99C231.381 126.99 231.911 126.99 232.452 126.99V126.98Z" fill="#041C42"/>
<path d="M211.663 128.148C211.172 128.148 210.672 128.138 210.182 128.148C209.762 128.158 209.732 127.898 209.742 127.589C209.742 127.289 209.732 126.989 210.162 126.979C211.152 126.979 212.143 126.979 213.123 126.979C213.583 126.979 213.633 127.269 213.653 127.629C213.673 128.108 213.383 128.158 213.023 128.148C212.573 128.148 212.113 128.148 211.663 128.148Z" fill="#041C42"/>
<path d="M191.104 128.148C190.653 128.148 190.193 128.148 189.743 128.148C189.373 128.148 189.093 128.098 189.123 127.619C189.143 127.249 189.203 126.969 189.663 126.969C190.613 126.969 191.554 126.979 192.504 126.969C192.964 126.969 193.025 127.209 193.045 127.589C193.065 128.028 192.884 128.168 192.474 128.148C192.024 128.128 191.564 128.148 191.114 128.148H191.104Z" fill="#041C42"/>
<path d="M263.185 128.148C262.735 128.148 262.275 128.148 261.825 128.148C261.525 128.148 261.244 128.118 261.254 127.699C261.264 127.359 261.234 127 261.715 127C262.705 126.99 263.705 127 264.696 127C265.156 127 265.186 127.309 265.196 127.669C265.206 128.068 265.006 128.168 264.666 128.158C264.166 128.158 263.675 128.158 263.175 128.158L263.185 128.148Z" fill="#041C42"/>
<path d="M196.196 128.148C195.746 128.148 195.285 128.128 194.835 128.148C194.405 128.168 194.265 127.988 194.265 127.569C194.265 127.149 194.425 126.969 194.845 126.969C195.756 126.969 196.666 126.979 197.576 126.969C198.067 126.969 198.217 127.179 198.217 127.648C198.217 128.148 197.896 128.148 197.556 128.148C197.106 128.148 196.646 128.148 196.196 128.148Z" fill="#041C42"/>
<path d="M247.638 128.148C247.188 128.148 246.728 128.148 246.278 128.148C245.908 128.148 245.778 127.958 245.798 127.599C245.808 127.289 245.848 126.989 246.238 126.989C247.268 126.979 248.309 126.979 249.339 126.989C249.759 126.989 249.719 127.329 249.739 127.619C249.769 127.978 249.639 128.158 249.259 128.148C248.719 128.138 248.189 128.148 247.648 128.148H247.638Z" fill="#041C42"/>
<path d="M206.5 128.148C206.05 128.148 205.59 128.148 205.14 128.148C204.83 128.148 204.57 128.108 204.57 127.689C204.57 127.339 204.57 126.99 205.04 126.98C206.03 126.97 207.021 126.98 208.021 126.98C208.501 126.98 208.491 127.299 208.511 127.659C208.531 128.048 208.331 128.158 207.991 128.148C207.491 128.148 207.001 128.148 206.5 128.148Z" fill="#041C42"/>
<path d="M221.887 128.148C221.477 128.148 221.057 128.148 220.646 128.148C220.286 128.148 220.006 128.108 220.026 127.619C220.046 127.229 220.126 126.979 220.566 126.979C221.517 126.979 222.467 126.979 223.418 126.979C223.858 126.979 223.958 127.209 223.978 127.609C223.998 128.078 223.758 128.158 223.368 128.148C222.867 128.138 222.377 128.148 221.877 128.148H221.887Z" fill="#041C42"/>
<path d="M237.454 128.148C237.004 128.148 236.543 128.138 236.093 128.148C235.703 128.158 235.463 128.078 235.493 127.609C235.513 127.229 235.573 126.969 236.033 126.969C236.984 126.969 237.934 126.969 238.884 126.969C239.325 126.969 239.425 127.209 239.445 127.599C239.465 128.078 239.205 128.148 238.824 128.138C238.374 128.138 237.914 128.138 237.464 128.138L237.454 128.148Z" fill="#041C42"/>
<path d="M227.059 128.148C226.649 128.148 226.229 128.138 225.819 128.148C225.429 128.168 225.208 128.088 225.208 127.618C225.208 127.139 225.379 126.949 225.859 126.969C226.729 126.989 227.6 126.989 228.47 126.969C228.97 126.969 229.09 127.219 229.09 127.668C229.09 128.178 228.77 128.158 228.42 128.158C227.96 128.158 227.509 128.158 227.049 128.158L227.059 128.148Z" fill="#041C42"/>
<path d="M242.576 128.138C242.126 128.138 241.666 128.138 241.216 128.138C240.875 128.138 240.665 128.058 240.685 127.658C240.695 127.319 240.685 126.979 241.166 126.969C242.116 126.969 243.066 126.969 244.007 126.969C244.457 126.969 244.527 127.229 244.547 127.609C244.567 128.068 244.327 128.158 243.947 128.138C243.497 128.118 243.036 128.138 242.586 128.138H242.576Z" fill="#041C42"/>
<path d="M216.795 128.148C216.335 128.148 215.884 128.138 215.424 128.148C215.064 128.158 214.894 128.018 214.904 127.638C214.904 127.269 214.954 126.969 215.414 126.969C216.365 126.969 217.315 126.969 218.275 126.969C218.756 126.969 218.766 127.279 218.776 127.629C218.786 127.998 218.646 128.158 218.275 128.138C217.775 128.118 217.285 128.138 216.785 128.138L216.795 128.148Z" fill="#041C42"/>
<path d="M201.338 128.138C200.888 128.138 200.428 128.128 199.978 128.138C199.617 128.148 199.447 128.028 199.467 127.638C199.477 127.289 199.497 126.969 199.968 126.969C200.918 126.969 201.868 126.969 202.809 126.969C203.279 126.969 203.309 127.259 203.329 127.619C203.359 128.108 203.069 128.138 202.709 128.128C202.259 128.118 201.798 128.128 201.348 128.128L201.338 128.138Z" fill="#041C42"/>
<path d="M258.143 126.969C258.553 126.969 258.973 126.989 259.383 126.969C259.884 126.939 260.004 127.179 260.014 127.639C260.014 128.138 259.744 128.158 259.383 128.148C258.513 128.148 257.643 128.148 256.772 128.148C256.412 128.148 256.122 128.128 256.122 127.639C256.122 127.169 256.282 126.949 256.762 126.969C257.213 126.989 257.673 126.969 258.133 126.969H258.143Z" fill="#041C42"/>
<path d="M268.337 128.148C267.877 128.148 267.427 128.148 266.967 128.148C266.627 128.148 266.407 128.078 266.437 127.668C266.457 127.339 266.407 126.979 266.897 126.969C267.847 126.969 268.798 126.969 269.758 126.969C270.198 126.969 270.298 127.219 270.308 127.609C270.318 128.068 270.088 128.168 269.698 128.148C269.248 128.128 268.788 128.148 268.327 128.148H268.337Z" fill="#041C42"/>
<path d="M182.03 156.317C182.03 158.065 182.05 159.803 182.03 161.551C182.01 163.019 181.259 163.778 179.799 163.788C176.307 163.808 172.816 163.808 169.324 163.788C167.803 163.788 167.053 163.019 167.043 161.471C167.033 158.025 167.033 154.579 167.043 151.132C167.043 149.594 167.803 148.835 169.334 148.825C172.786 148.805 176.237 148.815 179.689 148.825C181.289 148.825 182.02 149.584 182.03 151.202C182.04 152.9 182.03 154.609 182.03 156.307V156.317Z" fill="#F6C254"/>
<path d="M167.033 96.3131C167.033 94.615 167.013 92.9069 167.033 91.2088C167.053 89.7404 167.803 88.9713 169.254 88.9613C172.746 88.9413 176.237 88.9413 179.729 88.9613C181.259 88.9613 182.01 89.7304 182.01 91.2687C182.02 94.7149 182.02 98.1611 182.01 101.607C182.01 103.156 181.259 103.905 179.729 103.915C176.237 103.935 172.746 103.935 169.254 103.915C167.803 103.915 167.053 103.136 167.033 101.667C167.013 99.8792 167.033 98.1012 167.033 96.3131Z" fill="#F6C254"/>
<path d="M174.656 178.752C176.357 178.752 178.068 178.732 179.769 178.752C181.239 178.772 182.01 179.511 182.02 180.96C182.04 184.486 182.04 188.022 182.02 191.548C182.02 192.936 181.239 193.696 179.839 193.706C176.307 193.726 172.766 193.726 169.234 193.706C167.823 193.706 167.053 192.946 167.043 191.558C167.023 187.982 167.013 184.416 167.043 180.84C167.043 179.521 167.833 178.772 169.154 178.752C170.985 178.722 172.816 178.752 174.646 178.752H174.656Z" fill="white"/>
<path d="M174.586 223.652C172.836 223.652 171.095 223.662 169.344 223.652C167.793 223.642 167.043 222.903 167.043 221.365C167.033 217.919 167.033 214.473 167.043 211.026C167.043 209.418 167.793 208.699 169.424 208.689C172.836 208.689 176.247 208.679 179.659 208.689C181.279 208.689 182.02 209.428 182.03 211.036C182.04 214.443 182.04 217.849 182.03 221.255C182.03 222.933 181.289 223.642 179.589 223.652C177.928 223.652 176.257 223.652 174.596 223.652H174.586Z" fill="white"/>
<path d="M182.03 126.5C182.03 128.198 182.05 129.906 182.03 131.604C182.01 133.073 181.259 133.842 179.809 133.852C176.317 133.872 172.826 133.872 169.334 133.852C167.803 133.852 167.053 133.083 167.053 131.544C167.043 128.098 167.043 124.652 167.053 121.206C167.053 119.657 167.803 118.898 169.334 118.898C172.826 118.878 176.317 118.878 179.809 118.898C181.269 118.898 182.01 119.677 182.03 121.146C182.05 122.934 182.03 124.712 182.03 126.5Z" fill="#F6C254"/>
<path d="M171.785 154.539C172.325 155.238 172.655 155.658 172.976 156.097C173.526 156.856 173.966 156.976 174.656 156.147C175.577 155.038 176.697 154.079 177.688 153.02C178.138 152.541 178.418 152.441 178.948 152.991C180.439 154.529 180.469 154.489 178.948 156.017C177.428 157.545 175.907 159.074 174.426 160.642C173.976 161.122 173.696 161.141 173.246 160.662C172.285 159.633 171.305 158.614 170.264 157.655C169.684 157.116 169.724 156.776 170.284 156.277C170.765 155.847 171.135 155.298 171.775 154.549L171.785 154.539Z" fill="#041C42"/>
<path d="M180.579 94.4255C180.179 94.875 180.029 95.0548 179.859 95.2346C178.058 97.0625 176.227 98.8805 174.456 100.738C173.946 101.278 173.656 101.218 173.186 100.718C172.225 99.6896 171.225 98.6907 170.214 97.7118C169.774 97.2823 169.624 96.9427 170.184 96.5231C170.315 96.4232 170.425 96.2934 170.535 96.1735C171.745 94.9649 171.795 94.9149 172.926 96.2035C173.616 96.9826 174.006 97.0526 174.706 96.2035C175.597 95.1147 176.697 94.2057 177.648 93.1669C178.168 92.5975 178.488 92.5675 179.008 93.1669C179.428 93.6563 180.029 93.9959 180.579 94.4255Z" fill="#041C42"/>
<path d="M180.379 184.416C180.199 184.626 180.059 184.826 179.889 184.995C178.058 186.853 176.207 188.691 174.406 190.589C173.936 191.089 173.676 191.049 173.246 190.589C172.285 189.56 171.305 188.551 170.264 187.593C169.694 187.063 169.654 186.684 170.284 186.234C170.415 186.134 170.545 186.014 170.635 185.884C171.395 184.746 172.145 184.896 172.856 185.924C173.506 186.853 174.056 186.883 174.786 185.934C175.387 185.145 176.167 184.506 176.857 183.797C177.858 182.785 178.852 182.804 179.839 183.857C180.009 184.036 180.169 184.206 180.379 184.426V184.416Z" fill="#041C42"/>
<path d="M169.624 216.76C170.255 216.161 170.835 215.521 171.505 214.992C172.005 214.592 172.205 215.222 172.466 215.461C173.846 216.77 173.836 216.78 175.167 215.441C176.017 214.592 176.877 213.753 177.698 212.874C178.148 212.395 178.408 212.275 178.948 212.844C180.429 214.402 180.459 214.363 178.978 215.861C177.458 217.389 175.947 218.917 174.456 220.476C174.046 220.905 173.786 221.095 173.296 220.566C172.285 219.477 171.205 218.438 170.154 217.379C170.014 217.239 169.894 217.07 169.634 216.76H169.624Z" fill="#041C42"/>
<path d="M180.509 124.442C180.169 124.822 180.009 125.012 179.839 125.181C178.038 127.009 176.207 128.817 174.436 130.685C173.906 131.245 173.616 131.115 173.166 130.635C172.235 129.636 171.275 128.648 170.274 127.719C169.714 127.199 169.634 126.81 170.274 126.35C170.404 126.25 170.505 126.12 170.625 126C171.915 124.772 171.565 124.662 172.836 126.06C173.626 126.939 174.066 126.899 174.796 126.02C175.697 124.942 176.777 124.013 177.738 122.984C178.198 122.494 178.478 122.524 178.918 123.014C179.378 123.523 179.949 123.943 180.499 124.422L180.509 124.442Z" fill="#041C42"/>
<path d="M178.968 154.519C178.778 154.749 178.628 154.949 178.458 155.118C177.097 156.507 175.707 157.865 174.366 159.274C173.956 159.703 173.696 159.753 173.296 159.294C172.695 158.615 172.035 157.975 171.405 157.326C171.205 157.116 170.975 156.956 171.295 156.637C171.585 156.357 171.815 156.237 172.095 156.607C172.125 156.637 172.155 156.667 172.185 156.697C172.786 157.186 173.256 158.265 173.896 158.145C174.576 158.015 175.107 157.096 175.687 156.507C176.447 155.738 177.187 154.959 177.938 154.199C178.108 154.03 178.278 153.79 178.548 154.05C178.688 154.189 178.818 154.339 178.968 154.519Z" fill="white"/>
<path d="M179.058 94.5052C178.808 94.8349 178.668 95.0446 178.498 95.2144C177.108 96.6329 175.687 98.0213 174.316 99.4597C173.936 99.8593 173.696 99.8693 173.336 99.4597C172.726 98.7905 172.085 98.1412 171.435 97.4919C171.195 97.2422 170.985 97.0724 171.345 96.7128C171.695 96.3632 171.905 96.513 172.145 96.7927C172.175 96.8227 172.205 96.8526 172.235 96.8826C173.376 97.9081 174.486 97.8682 175.567 96.7627C176.347 95.9636 177.118 95.1545 177.898 94.3554C178.058 94.1856 178.208 93.9458 178.508 94.1356C178.688 94.2455 178.858 94.3654 179.048 94.4952L179.058 94.5052Z" fill="white"/>
<path d="M178.978 184.446C178.768 184.696 178.588 184.935 178.388 185.135C177.047 186.494 175.697 187.822 174.376 189.201C173.986 189.61 173.716 189.72 173.306 189.241C172.706 188.561 172.065 187.912 171.405 187.283C171.115 187.003 171.035 186.823 171.375 186.504C171.675 186.224 171.865 186.294 172.085 186.544C172.115 186.574 172.145 186.604 172.175 186.634C172.766 187.133 173.256 188.212 173.886 188.092C174.566 187.962 175.097 187.043 175.677 186.454C176.437 185.685 177.178 184.905 177.928 184.136C178.088 183.966 178.268 183.727 178.538 183.976C178.688 184.106 178.808 184.266 178.968 184.446H178.978Z" fill="white"/>
<path d="M171.875 216.021C172.326 216.56 172.776 217.05 173.176 217.579C173.626 218.178 173.976 218.188 174.506 217.599C175.557 216.43 176.687 215.331 177.788 214.213C178.028 213.963 178.228 213.583 178.678 214.023C179.118 214.452 178.758 214.682 178.518 214.922C177.098 216.37 175.657 217.789 174.246 219.257C173.876 219.647 173.656 219.537 173.356 219.217C172.706 218.528 172.035 217.849 171.375 217.159C171.215 217 170.955 216.84 171.255 216.57C171.405 216.44 171.545 216.31 171.875 216.011V216.021Z" fill="white"/>
<path d="M173.826 129.796C173.636 129.636 173.476 129.527 173.336 129.377C172.696 128.728 172.075 128.068 171.435 127.419C171.185 127.169 171.005 126.989 171.355 126.64C171.715 126.28 171.895 126.49 172.155 126.73C172.736 127.249 173.266 128.338 173.856 128.208C174.576 128.048 175.127 127.119 175.737 126.5C176.467 125.771 177.188 125.022 177.898 124.272C178.168 123.983 178.388 123.903 178.708 124.232C178.998 124.532 178.888 124.722 178.658 124.952C177.178 126.45 175.697 127.958 174.206 129.457C174.096 129.567 173.966 129.656 173.826 129.786V129.796Z" fill="white"/>
</g>
<defs>
<clipPath id="clip0_707_5173">
<rect width="320" height="298" fill="white"/>
</clipPath>
</defs>
</svg>
