<svg width="320" height="298" viewBox="0 0 320 298" fill="none" xmlns="http://www.w3.org/2000/svg">
<g clip-path="url(#clip0_707_6174)">
<rect width="320" height="298" fill="#F6C254"/>
<path d="M320 0.000117175V297C255.886 297 189.061 297.471 124.947 297.471C124.447 297.471 123.946 297.471 123.446 297.451C122.636 297.411 122.016 297.061 121.596 296.362C119.255 292.386 115.643 290.099 111.352 288.72C109.121 288.001 109.051 287.792 109.281 285.394C109.471 283.416 109.451 281.409 109.521 279.431C109.681 274.786 109.921 270.141 110.131 265.496C110.321 261.191 110.371 256.876 110.792 252.58C110.972 250.723 110.972 248.845 111.022 246.987C111.142 242.252 111.492 237.537 111.622 232.802C111.732 228.907 111.962 225.011 112.122 221.115C112.252 217.839 112.412 214.573 112.612 211.296C112.862 207.241 113.903 203.345 115.893 199.769C118.775 194.595 123.336 191.908 129.098 190.989C133.24 190.329 137.391 190.489 141.543 190.509C142.914 190.509 143.404 191.059 143.504 192.407C143.544 192.947 143.524 193.486 143.524 194.025C143.524 213.394 143.554 232.772 143.504 252.141C143.494 256.696 146.445 260.971 151.397 261.96C151.857 262.05 152.307 262.06 152.757 262.06C193.513 262.06 234.278 262.07 275.033 262.06C280.165 262.06 284.437 257.785 284.437 252.69C284.437 185.515 284.437 118.329 284.447 51.1535C284.447 45.4099 279.605 41.5042 274.783 41.5142C234.318 41.5541 193.843 41.5342 153.377 41.5441C148.376 41.5441 144.664 44.5808 143.614 49.4754C143.444 50.2545 143.524 51.0536 143.524 51.8328C143.524 86.5044 143.524 121.176 143.524 155.848C143.524 156.427 143.544 157.016 143.514 157.596C143.444 159.134 142.974 159.544 141.463 159.234C139.432 158.814 137.402 158.365 135.371 157.915C129.248 156.567 123.086 155.378 116.864 154.599C112.172 154.01 107.44 153.55 102.688 153.82C99.8774 153.98 97.0564 154.249 94.2953 154.859C92.3746 155.288 91.9945 155.108 91.2842 153.26C89.9237 149.734 88.7833 146.128 87.3527 142.622C86.4424 140.395 85.442 138.197 84.4016 136.02C83.4813 134.102 83.6413 133.622 85.2819 132.314C86.6925 131.195 86.6725 130.745 85.2019 129.707C85.0318 129.587 84.8718 129.447 84.6917 129.347C80.4001 127 76.9888 123.663 73.8777 119.927C72.3071 118.039 70.2363 116.661 67.7454 116.072C65.3245 115.492 63.4037 116.341 62.1833 118.519C60.9328 120.736 60.3326 123.154 60.1025 125.641C59.5523 131.445 59.7424 137.248 60.2626 143.042C60.4526 145.109 60.7127 147.157 60.9828 149.215C61.1329 150.324 60.6727 151.133 59.8824 151.842C55.4908 155.838 51.8794 160.502 48.6482 165.447C43.1061 173.948 38.8245 183.067 35.3632 192.587C34.693 194.425 34.653 196.413 34.3628 198.341C33.4325 204.484 32.5722 210.647 31.6918 216.8C30.9116 222.254 30.1213 227.718 29.351 233.172C28.5707 238.626 27.7504 244.08 26.9801 249.544C26.1998 255.048 25.4095 260.542 24.6092 266.036C23.7889 271.609 23.0186 277.193 22.1783 282.767C21.538 286.992 20.9778 291.228 20.3476 295.443C20.1175 297.011 19.6573 297.441 18.0467 297.451C12.5947 297.481 5.46205 297.02 0 297C0 199.098 -0.0100413 99.6998 -0.0100413 1.79816C-0.0100413 1.54843 0.01997 1.29871 -0.0100413 1.04899C-0.100075 0.249872 0.230049 -0.0897522 1.06036 0.0201262C1.30045 0.050093 1.56055 0.0201262 1.81064 0.0201262C107.31 0.0201262 214.49 0.000117175 320 0.000117175Z" fill="#A1C9FF"/>
<path d="M0 297C6.1223 297 12.4247 296.981 18.537 297.021C19.5074 297.021 19.7775 296.722 19.9075 295.803C21.3281 285.654 22.7886 275.505 24.2492 265.366C25.6197 255.837 27.0002 246.307 28.3707 236.778C29.6712 227.738 30.9817 218.708 32.2822 209.668C33.0425 204.414 33.7427 199.14 34.563 193.895C34.9232 191.588 36.0136 189.5 36.8839 187.363C41.2655 176.585 46.6376 166.366 54.0503 157.316C55.821 155.158 57.7017 153.101 59.8225 151.293C60.5328 150.683 60.6628 150.094 60.5428 149.245C59.5124 142.363 59.0222 135.45 59.3723 128.498C59.5224 125.471 59.9025 122.455 61.103 119.618C62.8336 115.522 65.8447 114.394 69.8663 116.331C71.4168 117.081 72.7774 118.109 73.9878 119.318C74.9882 120.317 76.0086 121.326 76.8089 122.475C78.0193 124.223 79.5499 125.531 81.3506 126.62C82.9112 127.569 84.4117 128.608 85.9223 129.647C87.1627 130.496 87.1628 131.535 85.9723 132.464C84.0016 134.012 83.9515 134.032 85.072 136.299C87.853 141.963 89.8137 147.956 92.0046 153.86C92.2947 154.639 92.5248 154.829 93.3951 154.629C99.6574 153.161 106.01 153.131 112.382 153.69C122.266 154.559 131.92 156.687 141.583 158.804C142.557 159.017 143.044 158.638 143.044 157.666C143.044 122.365 143.044 87.0738 143.044 51.7729C143.044 45.2101 147.205 41.0747 153.818 41.0747C193.993 41.0747 234.178 41.0747 274.353 41.0747C280.695 41.0747 284.937 45.29 284.937 51.5931C284.937 118.439 284.937 185.295 284.937 252.141C284.937 258.294 280.665 262.579 274.523 262.579C234.138 262.579 193.753 262.579 153.358 262.579C147.375 262.579 143.044 258.264 143.034 252.291C143.034 232.423 143.024 212.545 143.064 192.677C143.064 191.478 142.834 191.019 141.543 191.009C137.252 190.959 132.97 190.809 128.718 191.548C120.745 192.937 116.254 197.941 114.093 205.443C113.032 209.129 113.022 212.914 112.842 216.68C112.162 230.835 111.522 244.989 110.872 259.143C110.451 268.313 110.031 277.493 109.581 286.663C109.541 287.442 109.711 287.802 110.542 288.031C115.503 289.36 119.635 291.867 122.166 296.522C122.386 296.921 122.646 297.041 123.056 297.011C123.306 296.991 123.556 297.011 123.806 297.011C189.171 297.011 254.635 297 320 297V298C213.78 298 106.22 298 1.33291e-05 298C1.33291e-05 298 0 297.5 0 297Z" fill="#041C42"/>
<path d="M180.538 141.304C180.538 140.355 180.558 139.406 180.538 138.457C180.518 137.857 180.358 137.268 179.687 137.078C178.987 136.878 178.617 137.378 178.307 137.887C176.866 140.245 176.146 142.902 175.266 145.479C174.875 146.618 174.585 147.786 174.185 148.915C174.065 149.245 174.185 149.884 173.545 149.794C172.975 149.714 173.285 149.185 173.235 148.865C173.115 148.176 173.135 147.447 172.985 146.768C172.835 146.058 172.775 145.169 171.844 145.029C170.914 144.89 170.614 145.709 170.254 146.358C169.814 147.167 169.574 148.056 169.433 148.955C169.323 149.664 169.013 149.864 168.293 149.854C164.962 149.814 161.631 149.824 158.299 149.834C155.168 149.844 153.067 151.942 153.057 155.068C153.047 156.816 153.017 158.564 153.077 160.303C153.097 161.022 152.837 161.142 152.217 161.012C149.736 160.492 147.255 159.983 144.774 159.483C144.244 159.374 143.964 159.154 144.054 158.574C144.084 158.375 144.054 158.155 144.054 157.955C144.054 122.534 144.054 87.1136 144.054 51.7028C144.054 45.7993 147.795 42.0635 153.718 42.0635C193.893 42.0635 234.068 42.0635 274.243 42.0635C280.235 42.0635 283.946 45.7794 283.946 51.7827C283.946 118.459 283.946 185.145 283.946 251.821C283.946 257.904 280.255 261.58 274.153 261.58C234.018 261.58 193.883 261.58 153.748 261.58C147.755 261.58 144.044 257.865 144.044 251.851C144.044 232.103 144.044 212.355 144.024 192.617C144.024 191.508 144.224 191.108 145.424 191.258C147.815 191.558 150.226 191.738 152.627 191.918C153.267 191.967 153.658 192.157 154.038 192.687C155.108 194.185 156.649 194.734 158.479 194.734C176.046 194.714 193.623 194.724 211.189 194.724C230.546 194.724 249.904 194.724 269.271 194.724C272.992 194.724 274.963 192.767 274.963 189.051C274.963 177.823 274.963 166.606 274.963 155.378C274.963 151.832 272.952 149.824 269.411 149.824C243.891 149.824 218.372 149.824 192.852 149.824H191.472C191.562 148.755 191.692 147.776 191.702 146.798C191.702 146.278 191.572 145.699 190.922 145.529C190.301 145.369 189.911 145.719 189.551 146.158C188.911 146.937 188.511 147.846 188.05 148.725C187.85 149.105 187.65 149.475 187.17 149.744C187.49 148.106 187.83 146.478 188.14 144.84C188.491 143.002 188.821 141.164 188.781 139.286C188.771 138.467 188.631 137.628 187.66 137.438C186.67 137.238 186.28 137.987 185.99 138.766C185.63 139.715 185.279 140.664 184.829 141.863C184.779 140.355 185.059 139.106 184.819 137.867C184.699 137.278 184.559 136.709 183.879 136.549C183.189 136.389 182.798 136.819 182.458 137.328C181.638 138.537 181.248 139.945 180.568 141.314L180.538 141.304Z" fill="white"/>
<path d="M60.843 151.742C61.1031 153.18 61.3732 154.459 61.5732 155.758C61.6633 156.337 61.8333 156.517 62.4436 156.437C70.1464 155.388 77.6393 153.65 84.5819 150.014C85.7223 149.415 86.7927 148.695 87.8331 147.946C88.4433 147.507 88.6634 147.537 88.9235 148.276C89.7238 150.583 90.6241 152.861 91.4344 155.168C91.6745 155.848 91.9346 156.037 92.6749 155.838C100.038 153.9 107.5 154.119 114.983 154.939C126.117 156.157 136.972 158.894 147.916 161.142C153.658 162.32 159.41 163.479 165.312 163.479C166.122 163.479 166.172 163.919 166.232 164.478C166.833 169.512 167.433 174.537 168.023 179.571C168.463 183.327 168.863 187.083 169.354 190.829C169.464 191.708 169.224 191.878 168.413 191.868C162.961 191.778 157.529 191.308 152.097 190.859C145.175 190.279 138.262 189.55 131.289 190.199C121.166 191.148 115.083 196.493 112.832 206.491C112.462 208.15 112.272 209.848 112.032 211.686C109.311 211.016 106.64 210.357 103.969 209.708C81.5807 204.224 59.1923 198.74 36.7939 193.276C36.1237 193.116 35.7636 193.016 36.0837 192.177C40.6254 180.071 46.3075 168.573 54.4506 158.425C56.3413 156.057 58.412 153.85 60.843 151.752V151.742Z" fill="#A1C9FF"/>
<path d="M110.351 250.043C109.771 262.25 109.191 274.446 108.641 286.653C108.601 287.502 108.321 287.661 107.54 287.651C100.428 287.492 93.3149 287.352 86.1923 287.252C85.1819 287.242 84.8118 287.042 84.7617 285.903C84.0915 271.24 82.741 256.656 79.5898 242.292C78.3193 236.498 76.8088 230.774 74.1077 225.43C73.3375 223.902 72.4471 222.454 71.1966 221.265C69.0658 219.237 67.0651 219.357 65.3044 221.695C63.0036 224.751 61.6831 228.297 60.3726 231.833C56.031 243.55 52.7597 255.597 49.1284 267.534C47.0476 274.356 44.9768 281.179 42.696 287.941C42.4259 288.74 42.1458 289.01 41.2254 288.92C35.3532 288.321 29.471 287.781 23.5788 287.282C22.5484 287.192 22.1082 287.122 22.3083 285.794C24.4491 271.389 26.5099 256.965 28.5807 242.551C30.5314 228.956 32.4721 215.362 34.4229 201.757C34.743 199.539 35.1431 197.331 35.3632 195.104C35.4632 194.065 35.8434 194.045 36.6837 194.245C47.6078 196.942 58.5419 199.599 69.466 202.276C83.2212 205.652 96.9563 209.058 110.731 212.355C112.162 212.694 112.072 213.404 112.022 214.433C111.452 226.299 110.892 238.176 110.331 250.043C110.331 250.043 110.351 250.043 110.361 250.043H110.351Z" fill="#CAE0FF"/>
<path d="M155.018 192.187C157.379 192.317 159.45 192.327 161.491 192.567C162.701 192.707 163.892 192.677 165.092 192.727C166.132 192.767 167.163 192.717 168.193 192.917C169.384 193.146 170.354 192.817 171.314 191.898C174.396 188.931 176.456 185.275 178.437 181.589C183.139 172.829 187.1 163.739 190.141 154.269C190.202 154.07 190.262 153.87 190.332 153.68C190.918 151.776 192.236 150.823 194.283 150.823C219.262 150.823 244.232 150.823 269.211 150.823C272.502 150.823 273.953 152.252 273.953 155.508C273.953 166.726 273.953 177.953 273.953 189.171C273.953 192.207 272.452 193.726 269.451 193.726C232.487 193.726 195.523 193.726 158.56 193.726C157.279 193.726 156.079 193.576 155.008 192.187H155.018Z" fill="#004079"/>
<path d="M69.5562 297.001C65.0245 297.001 60.4828 296.991 55.9511 297.021C55.2909 297.021 54.9508 296.841 54.6306 296.232C53.2401 293.645 50.8392 292.236 48.2983 291.028C46.9478 290.388 45.5372 289.879 44.0767 289.539C43.3964 289.38 43.3464 289.13 43.5565 288.511C49.2586 271.709 53.7303 254.518 59.3524 237.697C60.953 232.902 62.6036 228.117 65.1346 223.702C65.4447 223.163 65.8048 222.653 66.195 222.164C67.5255 220.506 68.7959 220.416 70.4066 221.904C72.1572 223.523 73.1876 225.62 74.1079 227.758C77.019 234.55 78.5896 241.712 79.9001 248.944C82.6912 264.437 83.7616 280.08 84.1117 295.782C84.1417 296.901 83.7716 297.041 82.8012 297.031C78.3895 296.981 73.9779 297.011 69.5662 297.011L69.5562 297.001Z" fill="#A1C9FF"/>
<path d="M190.571 146.678C190.691 149.115 190.011 151.373 189.291 153.61C185.579 164.998 180.908 175.955 174.595 186.174C173.655 187.692 172.574 189.121 171.404 190.469C171.164 190.749 170.874 190.979 170.444 191.388C170.224 189.63 170.014 188.052 169.823 186.474C168.923 178.882 168.023 171.301 167.122 163.709C167.082 163.379 167.022 163.06 167.162 162.73C168.843 158.495 169.583 154.03 170.314 149.565C170.514 148.356 170.744 147.127 171.684 146.039C172.204 147.257 172.234 148.456 172.224 149.625C172.224 151.622 172.104 153.61 172.044 155.608C172.034 156.008 171.864 156.557 172.394 156.677C173.025 156.817 173.085 156.167 173.205 155.778C174.525 151.333 175.756 146.848 177.346 142.482C177.876 141.024 178.337 139.516 179.457 138.057C179.777 140.185 179.437 142.043 179.177 143.901C178.607 148.006 177.456 152.012 176.976 156.137C176.926 156.567 176.666 157.156 177.316 157.266C177.936 157.376 177.956 156.747 178.057 156.327C179.147 151.552 180.087 146.748 181.548 142.073C182.038 140.525 182.428 138.906 183.699 137.368C184.129 139.795 183.739 141.903 183.419 144.001C182.768 148.306 181.738 152.541 180.858 156.807C180.758 157.296 180.227 158.135 180.998 158.335C181.878 158.555 181.738 157.546 181.878 157.026C183.288 151.572 184.569 146.079 186.31 140.704C186.5 140.115 186.77 139.546 186.98 138.966C187.07 138.717 187.2 138.447 187.47 138.497C187.73 138.547 187.77 138.867 187.78 139.116C187.85 140.575 187.63 142.023 187.38 143.451C186.53 148.316 185.329 153.101 184.169 157.895C184.119 158.095 184.069 158.295 184.039 158.505C183.979 158.894 183.759 159.394 184.359 159.524C184.829 159.624 184.949 159.184 185.089 158.834C186.12 156.167 187.14 153.5 188.21 150.843C188.811 149.365 189.471 147.897 190.591 146.668L190.571 146.678Z" fill="#CAE0FF"/>
<path d="M60.6328 139.835C65.1545 141.484 68.0356 141.044 70.3165 138.367C66.9652 136.409 66.335 134.681 68.0756 132.214C69.3661 130.386 70.5666 130.516 73.2676 132.803C73.8278 132.454 73.3176 131.495 73.9478 131.355C74.408 131.245 74.9582 131.634 75.4884 131.694C77.119 131.894 78.6496 131.545 79.9401 130.516C80.6003 129.986 80.8204 130.106 81.1605 130.805C81.9008 132.334 82.7111 133.832 83.5414 135.31C83.9316 136 83.6415 136.249 83.0412 136.449C81.7508 136.869 80.5003 136.699 79.2798 136.149C78.7896 135.93 78.2995 135.69 77.8593 135.39C77.4992 135.151 77.2991 135.19 77.069 135.54C76.8389 135.89 77.019 136.06 77.2891 136.229C79.2298 137.418 81.2806 138.187 83.5414 137.298C84.2917 137.008 84.4818 137.278 84.7119 137.838C85.7723 140.355 86.8026 142.892 87.9131 145.389C88.2532 146.158 88.0631 146.588 87.4329 147.047C83.9116 149.644 79.9201 151.263 75.7885 152.561C71.9371 153.77 68.0056 154.599 64.0241 155.248C62.9637 155.418 62.4535 155.348 62.2534 154.05C61.6032 149.864 61.063 145.669 60.6428 141.454C60.5928 140.924 60.6428 140.385 60.6428 139.845L60.6328 139.835Z" fill="#CAE0FF"/>
<path d="M121.166 297.001H91.3744C89.5838 297.001 87.7931 296.971 86.0024 297.011C85.3222 297.031 85.0721 296.871 85.0621 296.142C85.0421 293.775 84.972 291.407 84.862 289.04C84.832 288.391 85.0121 288.171 85.6823 288.181C93.2952 288.351 100.928 288.211 108.511 288.74C113.733 289.1 118.024 291.777 120.956 296.292C121.026 296.392 121.076 296.512 121.116 296.632C121.146 296.702 121.136 296.781 121.166 297.001Z" fill="#CAE0FF"/>
<path d="M20.7275 296.922C21.1177 294.215 21.5178 291.547 21.868 288.88C21.948 288.301 22.1081 288.111 22.7283 288.171C28.9406 288.771 35.183 289.14 41.3553 289.969C45.5368 290.529 49.4983 292.017 52.6095 295.124C53.1097 295.623 53.5298 296.172 53.83 296.922H20.7275Z" fill="#CAE0FF"/>
<path d="M72.687 130.895C71.3965 130.136 70.096 129.557 68.6055 130.356C66.0045 131.744 65.4043 135.65 67.495 137.708C68.2353 138.433 68.1253 139.006 67.1649 139.426C65.8244 140.015 64.4339 140.135 63.0334 139.725C60.9626 139.126 60.3924 138.357 60.3424 136.229C60.2323 131.454 60.1223 126.69 61.3527 122.005C61.6228 120.996 61.963 120.027 62.4531 119.108C64.1138 116.002 67.7251 115.422 70.3161 117.86C70.9963 118.489 71.4965 119.248 71.8567 120.097C73.1071 123.054 73.4673 127.589 72.677 130.895H72.687Z" fill="#CAE0FF"/>
<path d="M163.041 150.823C164.742 150.823 166.452 150.823 168.153 150.823C168.763 150.823 169.083 150.973 168.963 151.692C168.433 154.799 167.733 157.855 166.823 160.872C166.442 162.121 165.812 162.69 164.412 162.58C161.28 162.32 158.149 162.031 155.038 161.511C154.328 161.392 154.008 161.022 154.028 160.233C154.088 158.405 154.028 156.577 154.058 154.749C154.098 152.501 155.778 150.863 158.059 150.833C159.72 150.813 161.391 150.833 163.051 150.833L163.041 150.823Z" fill="#004079"/>
<path d="M72.9375 119.788C74.8482 121.446 76.4088 123.364 77.8593 125.531C76.4688 125.781 75.2584 126.24 74.1179 127.139C74.0279 124.542 73.7978 122.125 72.9375 119.788Z" fill="#CAE0FF"/>
<path d="M80.4303 127.179C82.101 128.288 83.7716 129.397 85.4422 130.516C85.9424 130.855 85.9324 131.175 85.4822 131.594C83.7716 133.233 83.6115 133.213 82.4711 131.125C81.7709 129.836 81.0206 128.578 80.3003 127.299C80.3403 127.259 80.3903 127.219 80.4303 127.179Z" fill="#CAE0FF"/>
<path d="M77.239 130.626C75.9185 130.785 74.7881 130.995 74.1178 129.896C73.6576 129.137 74.618 127.889 76.2186 127.08C75.9985 128.368 76.0485 129.557 77.249 130.626H77.239Z" fill="#CAE0FF"/>
<path d="M213.95 134.851C197.134 134.851 180.308 134.851 163.491 134.851C157.329 134.851 153.047 130.586 153.047 124.452C153.047 113.395 153.047 102.337 153.047 91.2791C153.047 85.3057 157.369 80.9805 163.341 80.9805C197.144 80.9805 230.957 80.9805 264.759 80.9805C270.571 80.9805 274.943 85.3257 274.953 91.1292C274.963 102.317 274.953 113.494 274.953 124.682C274.953 130.486 270.591 134.851 264.779 134.861C247.833 134.871 230.887 134.861 213.94 134.861L213.95 134.851Z" fill="#041C42"/>
<path d="M213.92 247.606C208.758 247.606 203.606 247.606 198.444 247.606C195.833 247.606 194.003 245.948 194.013 243.601C194.013 241.263 195.843 239.625 198.474 239.625C208.828 239.625 219.192 239.625 229.546 239.625C232.157 239.625 233.988 241.283 233.978 243.631C233.978 245.968 232.147 247.596 229.506 247.606C224.304 247.606 219.102 247.606 213.91 247.606H213.92Z" fill="#041C42"/>
<path d="M226.005 66.0071C223.013 66.0071 220.583 63.7296 220.623 60.9727C220.663 58.1857 223.083 55.9982 226.095 56.0281C229.006 56.0581 231.407 58.2856 231.447 60.9926C231.477 63.6996 228.976 66.0071 226.005 65.9971V66.0071Z" fill="#041C42"/>
<path d="M186.019 60.9126C186.019 59.5841 186.05 58.2555 186.01 56.927C185.989 56.2577 186.14 55.9681 186.88 56.008C187.92 56.0779 188.961 55.988 190.001 56.038C192.072 56.1279 193.592 57.6662 193.562 59.604C193.532 61.452 191.992 62.9104 189.971 63.0103C189.931 63.0103 189.891 63.0103 189.851 63.0103C188.51 62.7506 187.93 63.25 188.21 64.6285C188.44 65.7872 187.92 66.1068 186.81 66.0369C186.09 65.997 186.02 65.7173 186.03 65.1479C186.06 63.7395 186.03 62.321 186.03 60.9126H186.019Z" fill="#041C42"/>
<path d="M205.457 66.0072C202.966 66.0072 200.795 64.409 200.235 62.1715C199.695 60.0139 200.705 57.8063 202.736 56.7275C205.047 55.5089 207.938 55.9284 209.518 57.6765C209.939 58.136 210.009 58.3657 209.288 58.5655C208.538 58.7753 207.948 59.0749 207.127 58.4856C205.837 57.5466 203.966 57.9462 202.956 59.1349C202.026 60.2336 201.996 61.702 202.876 62.7908C203.876 64.0194 205.617 64.419 207.037 63.5699C207.748 63.1504 208.308 63.1005 209.068 63.3502C209.999 63.6598 209.989 63.9295 209.318 64.5289C208.298 65.4379 206.897 65.9973 205.447 65.9973L205.457 66.0072Z" fill="#041C42"/>
<path d="M237.549 56.0482C238.349 55.9683 239.03 56.0982 239.62 56.3679C239.97 56.5277 240.9 56.3579 240.51 57.2969C240.24 57.9561 240.02 58.6853 239.07 58.036C238.9 57.9262 238.679 57.8862 238.479 57.8363C237.409 57.5865 236.329 57.9861 236.299 58.7053C236.249 59.7342 237.109 59.9539 237.869 60.1537C238.439 60.3035 238.99 60.4434 239.5 60.7331C241.371 61.8019 241.521 63.7697 239.84 65.0982C238.289 66.3269 235.638 66.2869 234.158 65.0183C233.838 64.7386 233.478 64.4689 233.958 64.0194C234.308 63.6998 234.458 62.9606 235.188 63.5399C235.908 64.1093 236.729 64.3391 237.649 64.1493C238.159 64.0394 238.609 63.8296 238.72 63.2503C238.83 62.621 238.389 62.3413 237.919 62.1415C237.429 61.9317 236.899 61.8019 236.389 61.6321C234.738 61.0827 233.918 60.0938 234.058 58.8352C234.238 57.2369 235.338 56.1981 237.049 56.0383C237.259 56.0183 237.469 56.0383 237.549 56.0383V56.0482Z" fill="#041C42"/>
<path d="M215.201 56.028C216.411 56.028 217.622 56.078 218.822 56.008C219.793 55.9581 219.482 56.6174 219.512 57.0869C219.542 57.5763 219.652 58.0758 218.822 58.0458C218.012 58.0158 216.921 57.6462 216.431 58.2056C215.911 58.795 216.291 59.8738 216.281 60.7328C216.251 62.1413 216.231 63.5597 216.281 64.9681C216.311 65.7373 216.161 66.0869 215.291 66.027C214.561 65.977 214.05 66.027 214.1 65.0081C214.19 63.0203 214.09 61.0225 214.15 59.0247C214.17 58.2056 213.94 57.886 213.12 58.0058C212.79 58.0558 212.45 57.9659 212.12 58.0258C211.039 58.2156 210.749 57.7261 210.859 56.7273C210.909 56.2078 211.029 55.9981 211.579 56.018C212.79 56.048 213.99 56.028 215.201 56.028Z" fill="#041C42"/>
<path d="M195.763 60.9528C195.763 59.5444 195.813 58.1359 195.743 56.7275C195.703 55.9084 196.193 55.9584 196.683 56.0383C197.153 56.1182 197.943 55.6087 197.943 56.6676C197.943 59.5644 197.943 62.4612 197.943 65.3579C197.943 66.4268 197.143 65.9073 196.673 65.9773C196.193 66.0572 195.693 66.1271 195.743 65.278C195.823 63.8296 195.763 62.3812 195.763 60.9328V60.9528Z" fill="#041C42"/>
<path d="M232.237 161.781C232.107 161.971 232.007 162.151 231.877 162.3C231.477 162.78 231.097 163.279 230.667 163.719C223.524 170.871 216.361 178.003 209.239 185.185C208.468 185.964 208.058 185.984 207.278 185.185C203.406 181.23 199.485 177.324 195.533 173.458C194.743 172.689 194.733 172.15 195.503 171.43C196.444 170.551 197.374 169.652 198.234 168.693C198.835 168.024 199.235 168.104 199.825 168.713C202.326 171.271 204.897 173.758 207.388 176.325C208.018 176.974 208.398 177.034 209.079 176.355C215.041 170.312 221.043 164.318 227.015 158.295C227.645 157.656 228.136 157.456 228.826 158.265C229.696 159.274 230.697 160.163 231.627 161.102C231.827 161.302 231.997 161.531 232.217 161.801L232.237 161.781Z" fill="#041C42"/>
<path d="M213.86 133.852C197.124 133.852 180.397 133.852 163.661 133.852C157.809 133.852 154.038 130.106 154.038 124.292C154.038 113.364 154.038 102.427 154.038 91.4987C154.038 85.755 157.819 81.9692 163.561 81.9692C197.194 81.9692 230.826 81.9692 264.459 81.9692C270.131 81.9692 273.953 85.765 273.953 91.4088C273.953 102.427 273.953 113.434 273.953 124.452C273.953 130.026 270.121 133.862 264.559 133.862C247.663 133.862 230.756 133.862 213.86 133.862V133.852Z" fill="#F6C254"/>
<path d="M214.14 240.624C219.252 240.624 224.374 240.624 229.486 240.624C231.647 240.624 232.997 241.782 232.997 243.62C232.997 245.448 231.647 246.607 229.476 246.607C219.122 246.607 208.768 246.607 198.414 246.607C196.364 246.607 195.033 245.418 195.033 243.61C195.033 241.822 196.374 240.634 198.434 240.624C203.676 240.624 208.918 240.624 214.15 240.624H214.14Z" fill="white"/>
<path d="M230.946 161.901C230.776 162.081 230.626 162.261 230.456 162.431C223.274 169.653 216.091 176.865 208.928 184.107C208.358 184.676 208.078 184.606 207.558 184.077C203.916 180.371 200.255 176.685 196.584 173.009C196.153 172.579 196.033 172.31 196.554 171.87C197.214 171.301 197.854 170.691 198.404 170.022C198.924 169.393 199.235 169.503 199.755 170.042C202.276 172.629 204.887 175.146 207.368 177.774C208.138 178.583 208.478 178.433 209.168 177.734C215.06 171.75 221.013 165.837 226.885 159.823C227.805 158.884 228.285 158.944 229.016 159.883C229.466 160.473 230.056 160.952 230.586 161.482C230.706 161.601 230.806 161.731 230.946 161.901Z" fill="white"/>
</g>
<defs>
<clipPath id="clip0_707_6174">
<rect width="320" height="298" fill="white"/>
</clipPath>
</defs>
</svg>
