<svg width="320" height="298" viewBox="0 0 320 298" fill="none" xmlns="http://www.w3.org/2000/svg">
<g clip-path="url(#clip0_707_5350)">
<rect width="320" height="298" fill="#F6C254"/>
<path d="M0 297.001V-0.00585938C105.617 -0.00585938 214.373 0 320 0C320 97.9746 320 198.025 320 296V297C307.353 297.01 293.089 297.52 280.442 297.5C278.802 297.5 278.411 297.041 278.401 295.243C278.391 286.683 278.401 278.123 278.401 269.573C278.401 264.259 278.401 258.936 278.401 253.622C278.401 251.494 278.762 251.135 280.853 251.135C284.935 251.125 289.017 250.985 293.079 251.165C298.222 251.395 302.715 247.879 303.445 242.585C303.695 241.826 303.755 241.057 303.755 240.258C303.745 232.916 303.745 225.575 303.755 218.244C303.755 217.494 303.695 216.755 303.475 216.036C302.925 210.852 298.742 207.157 293.219 207.187C276.53 207.276 259.831 207.217 243.142 207.217C238.229 207.217 234.547 210.203 233.527 214.967C233.427 215.427 233.417 215.876 233.417 216.326C233.417 224.926 233.397 233.536 233.417 242.135C233.417 246.8 237.689 251.085 242.372 251.125C247.244 251.165 252.117 251.125 256.98 251.135C259.031 251.135 259.381 251.494 259.391 253.532C259.391 267.376 259.391 281.219 259.391 295.053C259.391 297.161 259.031 297.51 256.91 297.51C235.928 297.51 214.947 297.51 193.965 297.51C191.774 297.51 191.464 297.191 191.454 294.963C191.454 286.693 191.454 278.423 191.454 270.152C191.454 267.905 191.764 267.605 194.085 267.595C198.168 267.595 202.25 267.426 206.322 267.635C210.965 267.875 215.907 264.569 216.528 259.036C216.758 258.276 216.818 257.497 216.818 256.698C216.808 249.357 216.818 242.016 216.818 234.674C216.818 234.005 216.798 233.346 216.618 232.707C216.238 228.951 214.477 226.124 211.005 224.456C209.704 223.837 208.313 223.607 206.882 223.607C202.22 223.607 197.557 223.577 192.895 223.627C191.454 223.647 190.494 223.198 189.723 221.929C187.902 218.923 185.041 217.165 181.869 215.836C181.489 215.677 181.078 215.587 180.708 215.387C180.628 215.357 180.548 215.327 180.468 215.317C178.417 215.117 177.266 213.989 176.306 212.131C172.164 204.08 167.981 196.05 163.789 188.019C163.559 187.58 163.349 187.13 163.139 186.671C160.647 181.996 158.176 177.302 155.815 172.567C155.685 172.308 155.525 172.068 155.354 171.838C152.273 165.845 149.061 159.932 146.069 153.899C145.769 153.3 145.579 152.661 145.569 151.982C145.449 145.789 146.089 139.716 148.07 133.803C150.072 127.82 153.864 123.655 159.917 121.557C165.59 119.6 171.393 118.091 177.236 116.763C187.672 114.386 198.188 112.438 208.763 110.85C216.127 109.741 223.501 108.663 230.936 108.183C232.546 108.083 233.747 107.364 234.798 106.186C237.919 102.69 240.391 98.7343 242.662 94.6691C246.444 87.8671 249.876 80.8953 252.517 73.5539C253.108 71.9159 253.648 70.2478 253.928 68.5199C253.988 68.1503 253.998 67.7708 253.938 67.4012C253.808 66.5921 253.368 66.4123 252.747 66.9417C252.137 67.4711 251.807 68.2002 251.447 68.8994C251.146 69.4887 250.896 70.108 250.526 70.6673C250.366 70.9071 250.156 71.1568 249.816 71.0269C249.476 70.9071 249.476 70.5874 249.486 70.2878C249.486 69.8283 249.626 69.3888 249.716 68.9394C250.306 66.0927 251.076 63.2761 250.976 60.3295C250.956 59.6903 251.297 58.7314 250.316 58.5516C249.305 58.3718 249.215 59.3607 248.925 60.0099C248.685 60.5393 248.545 61.1086 248.265 61.628C248.115 61.8877 247.925 62.1474 247.585 62.0375C247.314 61.9476 247.284 61.658 247.264 61.4082C247.204 60.6192 247.284 59.8301 247.204 59.041C247.154 58.5017 247.104 57.8524 246.524 57.6826C245.814 57.4829 245.553 58.1521 245.253 58.6415C244.763 59.4206 244.543 60.3195 244.163 61.1585C244.013 61.4981 243.813 61.9077 243.352 61.7778C242.962 61.6779 243.012 61.2484 243.002 60.9188C242.972 60.2596 243.032 59.5804 242.812 58.9412C242.712 58.6315 242.652 58.262 242.262 58.1721C241.861 58.0822 241.671 58.4018 241.471 58.6615C240.981 59.2907 240.651 60.0099 240.361 60.749C239.21 63.7355 238.239 66.7819 237.279 69.8383C237.089 70.4576 237.049 71.1767 236.348 71.5163C235.788 71.3166 235.828 70.8271 235.838 70.3877C235.838 69.8483 235.758 69.3289 235.608 68.8195C235.468 68.2102 235.358 67.6009 235.208 66.9917C235.118 66.6121 234.968 66.2425 234.557 66.1626C234.067 66.0628 233.797 66.4323 233.587 66.7919C232.887 68.0005 232.636 69.3589 232.406 70.7073C231.816 74.1932 231.256 77.6791 230.125 81.0451C229.445 83.0627 228.924 83.5022 226.823 83.6021C221.34 83.8818 215.877 84.3712 210.404 84.8007C205.472 85.1902 200.549 85.6197 195.616 86.0592C187.332 86.7983 179.057 87.6573 170.793 88.5563C161.738 89.5351 152.703 90.6937 143.698 92.0821C138.105 92.9411 132.532 93.9399 127.029 95.2784C125.268 95.7078 124.908 95.3982 124.348 93.6503C122.697 88.5363 122.467 83.2126 121.796 77.9388C120.946 71.2467 119.715 64.6245 116.904 58.4218C115.973 56.3642 114.802 54.4564 113.142 52.8783C112.531 52.299 111.871 51.7996 111.14 51.4C109.199 50.3413 107.398 50.5011 105.687 51.8895C103.456 53.7073 102.216 56.2044 101.045 58.7414C100.905 59.041 100.765 59.3507 100.675 59.6703C100.235 61.2884 99.4641 62.2672 97.503 61.9876C96.2123 61.7978 95.0117 63.2261 94.7915 64.8941C94.5614 66.5821 94.8816 68.1503 96.2323 69.3189C97.0228 70.0081 97.2129 70.7972 96.9827 71.776C95.8921 76.6003 95.0417 81.4746 94.4213 86.3888C94.3113 87.2778 93.8811 87.937 93.0806 88.3565C92.1201 88.8559 91.1896 89.4053 90.2391 89.9247C89.0984 90.5539 88.1579 90.3841 87.1574 89.5851C83.3253 86.5087 79.5333 83.4023 75.7512 80.266C69.6079 75.162 63.6346 69.8583 57.9015 64.2948C53.1989 59.7302 49.1267 54.6362 45.4948 49.1826C42.7733 45.1008 40.9023 40.6427 39.8817 35.8084C38.9212 31.2937 37.7505 26.829 36.8501 22.3043C36.6399 21.2455 36.3498 20.1968 35.7595 19.2679C35.5694 18.9682 35.3492 18.7185 34.969 18.7685C34.5888 18.8084 34.4287 19.0881 34.2987 19.4177C33.9685 20.2567 34.0685 21.1357 33.9985 22.0047C33.9385 22.7438 34.0185 23.8425 33.2681 23.9524C32.3776 24.0922 32.3476 22.9635 32.1275 22.2843C31.0569 18.9682 30.1964 15.5722 28.6256 12.4259C28.3054 11.7867 28.0653 10.7479 27.2348 10.8678C26.3043 11.0076 26.6145 12.0664 26.5144 12.7655C26.4844 13.0152 26.4844 13.2649 26.4044 13.5047C26.3243 13.7344 26.2543 14.0141 25.9541 14.044C25.674 14.074 25.5039 13.8542 25.3738 13.6445C24.9136 12.9453 24.7535 12.0963 24.2932 11.3971C23.9631 10.8977 23.7229 10.1186 22.9625 10.2785C22.1721 10.4483 22.3222 11.2373 22.2721 11.8366C22.2421 12.2062 22.2721 12.5857 22.2421 12.9553C22.2021 13.4447 22.2821 14.1239 21.7418 14.2538C21.1615 14.3836 21.0114 13.7044 20.8113 13.2649C20.6012 12.8155 20.4611 12.336 20.211 11.8966C19.9609 11.4571 19.7308 10.9577 19.1004 11.1175C18.5201 11.2673 18.39 11.7867 18.33 12.2861C18.1899 13.5446 18.4801 14.7732 18.6502 16.0017C18.9003 17.8096 19.3005 19.5975 19.6907 21.3854C19.7308 21.5851 19.7908 21.7849 19.8208 21.9947C19.9109 22.524 20.101 23.2532 19.5306 23.4529C18.9203 23.6627 18.6802 22.9236 18.4501 22.4541C18.0098 21.5652 17.5896 20.6463 16.9993 19.8472C16.7591 19.5176 16.439 19.148 15.9687 19.3378C15.5585 19.4976 15.5685 19.9371 15.5585 20.3067C15.5085 22.1045 15.8887 23.8625 16.0988 25.6304C16.9092 32.3924 17.6896 39.1545 17.8197 45.9764C17.8497 47.9241 18.0999 49.8718 17.9998 51.8195C17.9098 52.7185 17.9498 53.6274 17.9798 54.5264C17.8597 56.4741 18.6602 58.1121 19.5607 59.8001C25.0837 70.088 32.1175 79.2772 39.8617 87.967C45.1145 93.86 50.6876 99.4734 55.6103 105.666C59.5924 110.67 63.0843 115.954 65.2455 122.027C66.9464 126.801 67.8769 131.705 68.007 136.779C68.1171 141.174 68.3772 145.569 68.6774 149.954C68.8074 151.942 68.8875 153.939 68.9375 155.927C69.0876 162.07 69.6479 168.192 69.7779 174.335C69.808 175.614 69.948 176.892 70.0281 178.181C70.2782 183.974 70.5884 189.767 70.8385 195.57C70.9886 198.916 71.1387 202.272 71.3288 205.618C71.5689 209.714 71.6089 213.819 71.9892 217.904C72.1492 219.632 72.1592 221.38 72.2193 223.118C72.3093 225.895 72.6195 228.661 72.5695 231.448C72.5495 232.766 72.8596 234.075 72.7996 235.413C72.7196 237.141 72.3694 237.591 70.6384 237.541C67.9369 237.461 65.5757 238.25 63.5346 240.008C62.6941 240.727 62.1638 241.666 61.5135 242.525C60.8631 243.724 60.5729 245.022 60.3928 246.36C60.2127 247.01 60.1927 247.669 60.1927 248.338C60.1927 255.689 60.1927 263.041 60.1927 270.382C60.1927 271.181 60.2528 271.95 60.4829 272.719C60.9732 277.244 63.7347 280.34 68.1971 281.369C68.6573 281.479 69.1076 281.479 69.5578 281.479C74.0503 281.479 78.5527 281.479 83.0452 281.479C85.1863 281.479 85.5465 281.829 85.5565 283.916C85.5565 287.662 85.5665 291.397 85.5565 295.143C85.5565 297.041 85.1663 297.43 83.2953 297.43C56.1505 297.43 29.0158 297.43 1.87105 297.43C1.2407 297.43 0 297.001 0 297.001Z" fill="#A1C9FF"/>
<path d="M180.698 214.957C184.921 216.366 188.502 218.633 190.714 222.638C191.054 223.247 191.504 223.128 191.974 223.128C197.087 223.128 202.2 223.098 207.313 223.138C212.385 223.178 216.668 227.283 216.998 232.357C217.098 239.418 217.018 246.48 217.038 253.542C217.038 255.41 217.108 257.277 216.988 259.145C216.508 264.169 212.235 268.095 207.173 268.115C202.47 268.135 197.757 268.145 193.055 268.095C192.164 268.095 191.954 268.344 191.954 269.203C191.984 278.103 191.984 287.002 191.954 295.892C191.954 296.791 192.214 296.981 193.075 296.981C214.647 296.961 236.208 296.961 257.78 296.981C258.691 296.981 258.861 296.701 258.861 295.862C258.831 281.479 258.831 267.086 258.861 252.703C258.861 251.784 258.561 251.624 257.73 251.634C252.857 251.674 247.985 251.544 243.112 251.684C237.529 251.844 232.746 247.079 232.827 241.486C232.947 233.256 232.847 225.025 232.857 216.785C232.857 210.992 237.149 206.667 242.922 206.657C259.951 206.647 276.981 206.647 294.01 206.657C299.223 206.657 303.565 210.732 303.925 215.876C304.025 222.938 303.945 229.999 303.965 237.061C303.965 238.929 304.035 240.797 303.915 242.665C303.335 247.819 299.093 251.634 293.9 251.644C289.287 251.654 284.665 251.674 280.052 251.624C279.112 251.614 278.892 251.864 278.892 252.793C278.922 267.126 278.922 281.449 278.892 295.782C278.892 296.811 279.222 296.981 280.152 296.981C292.879 296.951 306.773 297 319.5 297C319.5 297 319.5 296.99 320 297V298C213.772 298 106.228 298 0 298V297C27.2948 297 56.2706 296.951 83.5654 296.971C84.6961 296.971 85.0162 296.701 84.9962 295.552C84.9262 291.437 84.9362 287.322 84.9962 283.217C85.0062 282.298 84.7861 282.028 83.8356 282.038C79.093 282.088 74.3504 282.068 69.6079 282.058C64.5251 282.048 60.2227 277.883 59.9526 272.839C59.8425 266.107 59.9226 259.385 59.9126 252.653C59.9126 250.455 59.8425 248.248 59.9626 246.051C60.0026 244.812 60.3928 243.663 60.9632 242.575C61.4934 242.415 61.7536 242.725 61.9437 243.144C61.9237 244.423 61.3834 245.621 61.3534 246.9C61.1733 247.549 61.1533 248.208 61.1533 248.867C61.1533 255.989 61.1533 263.101 61.1533 270.222C61.1533 270.971 61.2033 271.71 61.4134 272.43C61.7736 277.064 65.0454 279.781 68.4372 280.41C69.0976 280.53 69.7579 280.52 70.4283 280.52C87.0673 280.52 103.716 280.52 120.355 280.52C125.698 280.52 129.39 277.034 129.46 271.71C129.57 263.53 129.57 255.34 129.46 247.159C129.39 242.095 125.628 238.649 120.325 238.619C110.67 238.569 101.015 238.619 91.3697 238.599C90.5492 238.599 89.6988 238.739 88.9184 238.33C88.3781 237.571 89.0584 237.291 89.4686 236.901C90.139 236.602 90.8494 236.662 91.5598 236.662C95.712 236.662 99.8743 236.662 104.027 236.662C104.507 236.662 105.027 236.782 105.547 236.432C105.177 235.643 104.507 235.163 103.856 234.674C101.995 233.296 99.8543 232.497 97.6731 231.797C97.0828 231.608 96.4424 231.528 96.0122 231.008C95.8221 230.249 96.3024 229.95 96.8927 229.72C101.025 230.559 104.797 232.077 107.418 235.573C108.019 236.372 108.649 236.672 109.61 236.672C113.192 236.642 116.773 236.652 120.355 236.672C126.979 236.692 131.471 241.176 131.481 247.819C131.491 255.719 131.501 263.62 131.481 271.511C131.471 277.973 126.929 282.508 120.476 282.518C116.023 282.518 111.571 282.518 107.108 282.518C105.557 282.518 105.507 282.568 105.507 284.146C105.497 287.761 105.497 291.377 105.507 294.993C105.507 296.461 105.577 296.521 107.088 296.521C128.03 296.521 148.971 296.521 169.912 296.521C171.463 296.521 171.503 296.471 171.513 294.883C171.513 286.653 171.513 278.422 171.513 270.192C171.513 268.584 171.463 268.544 169.792 268.544C165.3 268.534 160.797 268.544 156.305 268.544C151.112 268.524 147.33 265.687 145.849 260.733C145.599 259.884 145.529 259.025 145.529 258.146C145.529 249.876 145.529 241.606 145.529 233.326C145.529 229.34 147.27 226.274 150.622 224.176C151.572 223.577 151.813 223.058 151.382 221.979C146.27 209.064 140.256 196.629 132.372 185.152C127.759 178.44 122.627 172.178 116.213 167.084C113.472 164.906 110.58 162.928 107.098 162.069C105.297 161.63 104.747 161.84 103.876 163.508C102.516 166.105 101.725 168.911 101.055 171.748C99.274 179.329 98.2434 187.02 97.473 194.761C96.7826 201.663 96.1923 208.575 96.2523 215.517C96.2523 215.936 96.2223 216.346 96.1523 216.755C95.7421 219.102 95.8421 221.44 96.0922 223.787C96.2123 225.285 96.4925 226.783 96.0122 228.262C95.4119 228.761 94.9716 228.421 94.5514 227.972C94.1912 227.053 94.3313 226.104 94.3413 225.155C94.4714 223.917 94.5314 222.678 94.1812 221.45C94.0611 220.78 94.0611 220.111 94.1812 219.442C94.5514 218.113 94.4914 216.775 94.3113 215.427C94.0411 212.98 94.3213 210.532 94.4413 208.095C94.6314 204.03 94.9416 199.975 95.3618 195.92C96.3024 186.82 97.403 177.741 99.7642 168.871C100.224 167.144 100.795 165.446 101.485 163.797C103.136 159.872 104.777 159.163 108.829 160.561C112.231 161.73 115.163 163.718 117.914 165.955C123.797 170.739 128.69 176.443 133.052 182.615C139.616 191.894 144.919 201.863 149.451 212.25C149.952 213.389 150.622 213.769 151.823 213.759C157.856 213.719 163.899 213.739 169.932 213.739C170.633 213.739 171.353 213.679 172.034 213.958C172.464 214.318 173.084 214.598 172.674 215.347C172.034 215.756 171.313 215.656 170.613 215.656C164.539 215.656 158.466 215.656 152.393 215.656C151.042 215.656 151.032 215.656 151.542 216.925C152.163 218.463 152.783 220.011 153.393 221.549C153.714 222.349 154.214 222.688 155.094 222.688C165.95 222.688 176.816 222.688 187.672 222.678C187.992 222.678 188.412 222.798 188.582 222.448C188.743 222.109 188.392 221.839 188.192 221.589C186.401 219.342 184 217.974 181.409 216.865C180.838 216.625 180.208 216.495 179.768 216.006C179.558 215.157 180.508 215.387 180.748 214.957H180.698Z" fill="#041C42"/>
<path d="M236.379 71.4362C237.659 67.0214 238.8 62.5666 240.991 58.4814C241.291 57.9221 241.611 57.3527 242.392 57.5225C243.092 57.6724 243.092 58.2517 243.272 58.841C243.553 59.7599 243.322 60.6489 243.442 61.6777C244.043 60.2993 244.363 58.9109 245.213 57.7423C245.574 57.2429 245.964 56.9832 246.534 57.0231C247.184 57.0731 247.365 57.5625 247.535 58.1218C247.905 59.3504 247.595 60.579 247.705 61.8974C248.085 60.8886 248.455 59.9597 248.795 59.0108C249.096 58.1718 249.676 57.8522 250.536 58.012C251.397 58.1718 251.447 58.7911 251.467 59.5102C251.597 63.2858 250.686 66.9015 249.806 70.5272C249.776 70.6271 249.806 70.747 249.806 71.2164C250.446 69.908 250.876 68.8692 251.447 67.9103C251.977 67.0214 252.487 65.663 253.758 66.1024C255.099 66.5719 254.548 68.0002 254.328 68.9591C252.918 75.1218 250.246 80.8051 247.505 86.4485C244.603 92.4214 241.481 98.2746 237.519 103.638C236.299 105.296 234.998 106.864 233.397 108.183C232.797 108.682 232.016 108.642 231.396 108.662C228.464 108.752 225.563 109.192 222.661 109.491C219.359 109.821 216.058 110.27 212.776 110.76C208.263 111.439 203.761 112.198 199.258 112.957C192.185 114.146 185.151 115.524 178.157 117.102C172.404 118.401 166.711 119.929 161.078 121.677C154.104 123.844 150.002 128.549 148.051 135.391C147.11 138.687 146.51 142.023 146.28 145.439C146.22 146.298 146.16 147.187 146.02 148.006C145.359 151.931 147.07 155.138 148.811 158.394C151.092 162.669 153.303 166.984 155.545 171.289C155.625 171.428 155.705 171.568 155.785 171.718C155.945 172.188 155.835 172.527 155.325 172.687C154.414 172.587 154.174 171.808 153.844 171.159C151.152 165.855 148.311 160.641 145.669 155.317C145.099 154.169 144.369 153.529 143.098 153.26C137.725 152.131 132.462 150.513 127.079 149.404C125.288 149.035 123.537 148.465 121.766 148.026C121.356 147.926 120.966 147.776 120.716 147.407C120.606 146.907 120.876 146.628 121.266 146.398C121.936 146.138 122.577 146.368 123.227 146.518C129.561 147.966 135.834 149.644 142.157 151.112C142.518 151.202 142.888 151.302 143.248 151.372C144.419 151.612 144.559 151.532 144.539 150.293C144.509 148.505 144.649 146.717 144.819 144.94C145.269 140.285 146.05 135.71 147.951 131.386C150.052 126.601 153.353 123.095 158.306 121.168C163.759 119.04 169.402 117.602 175.075 116.273C189.113 112.987 203.311 110.56 217.588 108.622C221.841 108.043 226.093 107.544 230.375 107.244C231.366 107.174 231.676 106.824 231.536 105.856C230.565 99.1535 229.605 92.4414 228.664 85.7293C228.544 84.8803 228.224 84.5507 227.284 84.6106C220.72 84.9902 214.177 85.5695 207.623 86.0789C201.48 86.5583 195.356 87.1277 189.223 87.697C182.88 88.2863 176.546 88.9356 170.223 89.6547C159.297 90.9032 148.401 92.2716 137.565 94.1494C133.793 94.7987 130.041 95.5877 126.319 96.5066C124.508 96.9561 124.148 96.7264 123.667 94.9085C123.187 93.1006 122.687 91.2928 122.227 89.4849C121.916 88.2563 121.736 88.1465 120.586 88.566C117.374 89.7346 114.022 90.0542 110.64 90.1441C105.518 90.274 100.405 90.1242 95.332 89.2152C94.6016 89.0854 93.9412 89.2152 93.2809 89.5448C92.2803 90.0542 91.2898 90.5936 90.3292 91.1729C89.0886 91.922 88.028 91.7822 86.9074 90.8633C83.0153 87.667 79.0731 84.5307 75.211 81.3045C69.688 76.69 64.2551 71.9655 59.0422 67.0014C52.7788 61.0284 47.4359 54.3063 42.7934 47.0049C41.1925 44.4979 41.5527 44.6677 39.0013 46.136C33.0081 49.5719 27.0048 52.9879 21.0216 56.4538C19.3307 57.4327 19.3707 57.4127 20.2612 59.0907C24.9237 67.9303 30.7569 75.9608 37.2204 83.5519C40.4621 87.3474 43.864 91.0031 47.2358 94.6788C52.5387 100.482 57.8716 106.265 61.9538 113.047C65.3657 118.72 67.6469 124.773 68.5174 131.346C68.7575 133.133 68.8075 133.193 70.5985 133.623C81.5345 136.24 92.4304 138.987 103.356 141.633C104.017 141.793 104.807 141.783 105.137 142.592C105.137 143.102 104.847 143.401 104.397 143.571C103.086 143.651 101.835 143.302 100.605 142.972C92.7606 140.894 84.8563 139.106 76.992 137.129C74.7808 136.569 72.5496 136.05 70.3284 135.521C69.1777 135.251 69.0077 135.341 69.0377 136.569C69.0977 139.226 69.2278 141.873 69.4379 144.52C69.598 146.548 69.628 148.585 69.708 150.613C69.8781 155.088 70.1283 159.562 70.3284 164.037C70.5085 167.972 70.6285 171.908 70.9487 175.843C70.9787 176.263 70.9987 176.672 70.8687 177.082C70.5985 177.621 70.3084 178.131 69.568 178.021C69.2978 174.225 69.1878 170.42 68.9876 166.624C68.7975 162.998 68.6475 159.363 68.4674 155.737C68.3073 152.311 68.1372 148.885 67.9871 145.459C67.797 141.124 67.6569 136.789 67.2267 132.474C66.7965 128.179 65.6558 124.024 63.9349 120.039C61.4235 114.216 57.8216 109.112 53.7594 104.277C51.258 101.301 48.6566 98.4244 46.0252 95.5677C38.1509 86.9779 30.3466 78.328 24.0732 68.4297C22.0321 65.2035 20.1711 61.8774 18.2801 58.5713C17.5897 57.3627 17.4596 56.1242 17.5897 54.7958C17.7898 53.7969 17.7398 52.8081 17.6197 51.8093C17.6798 49.1125 17.3596 46.4356 17.2695 43.7488C17.1395 39.9233 16.7793 36.1078 16.359 32.3022C16.0189 29.1659 15.5686 26.0296 15.2785 22.8833C15.1984 21.9844 15.0483 21.0954 15.0583 20.1765C15.0583 19.5573 15.1284 18.928 15.7187 18.6883C16.3791 18.4186 16.9394 18.908 17.2795 19.4074C17.8298 20.2165 18.2401 21.1154 18.7103 21.9744C18.9605 22.4339 19.0405 22.9832 19.6108 23.4327C19.2006 21.445 18.7804 19.5772 18.4402 17.7094C18.13 16.0214 17.7998 14.3234 17.8098 12.5955C17.8098 11.7664 17.9499 10.8675 18.9404 10.6278C19.961 10.3781 20.4112 11.1072 20.7414 11.9063C21.0516 12.6454 21.3217 13.3945 21.802 14.1037C21.802 13.2147 21.802 12.3258 21.802 11.4268C21.802 10.6178 22.0321 9.89863 22.8526 9.66891C23.633 9.44916 23.9832 10.1284 24.3934 10.6577C25.1438 11.6166 25.3039 12.8352 26.0643 13.864C26.0643 13.2447 26.0843 12.6154 26.0643 11.9962C26.0343 11.1871 26.2444 10.408 27.0549 10.1983C27.8853 9.97854 28.2655 10.7876 28.5857 11.3669C29.9564 13.814 30.7869 16.4809 31.6073 19.1477C32.0976 20.7359 32.6079 22.324 33.1482 24.022C33.7285 22.4139 33.3483 20.8557 33.7685 19.3775C33.9486 18.7582 34.2388 18.2588 34.8391 18.1689C35.4494 18.079 35.8496 18.4885 36.1798 19.0379C37.4305 21.1554 37.5406 23.5825 38.1009 25.8798C39.0514 29.7353 39.9018 33.6107 40.7823 37.4762C41.1625 39.1142 41.5527 40.7623 41.8729 42.4103C42.113 43.6289 42.9235 44.4979 43.5538 45.4867C46.1752 49.5919 48.9367 53.5872 52.0284 57.3428C55.7505 61.8574 59.9928 65.8927 64.3151 69.8281C71.8392 76.69 79.7135 83.1324 87.6478 89.5049C88.3782 90.0942 88.9785 90.4038 89.809 89.7346C90.1291 89.4749 90.5093 89.2552 90.8996 89.1353C93.4309 88.3762 94.0913 86.5683 94.3214 84.1012C94.7216 79.8063 95.6321 75.5813 96.6427 71.3862C96.8128 70.697 96.7027 70.3075 96.0724 69.858C93.9412 68.3198 93.601 64.6142 95.2819 62.5966C96.1924 61.5079 97.3531 61.1982 98.6037 61.5977C99.3341 61.8275 99.4342 61.5678 99.6243 61.0484C100.615 58.3915 101.725 55.7746 103.486 53.5173C104.447 52.2887 105.507 51.0801 107.058 50.5607C109.56 49.7117 111.551 50.8005 113.302 52.4485C116.533 55.4949 118.064 59.4802 119.335 63.5854C120.666 67.8604 121.506 72.2352 122.066 76.68C122.477 79.9361 122.787 83.1923 123.097 86.4585C123.317 88.7757 124.188 91.0231 124.768 93.3104C125.278 95.308 125.268 95.2681 127.269 94.7887C132.602 93.5102 137.995 92.5513 143.408 91.7023C147.82 91.0131 152.223 90.3239 156.655 89.7446C160.637 89.2252 164.65 88.8856 168.642 88.4361C172.024 88.0566 175.395 87.5971 178.777 87.2276C181.639 86.9179 184.51 86.6982 187.382 86.4185C190.444 86.1189 193.505 85.7693 196.577 85.4896C198.998 85.2699 201.43 85.14 203.851 84.9403C206.312 84.7305 208.764 84.5008 211.215 84.2411C212.406 84.1212 213.596 84.1312 214.797 84.0014C217.668 83.7017 220.57 83.6817 223.442 83.422C224.762 83.3022 226.073 83.1524 227.404 83.1923C228.764 83.2423 229.275 82.3333 229.615 81.2246C230.696 77.7288 231.376 74.153 231.926 70.5472C232.146 69.1289 232.476 67.7205 233.187 66.452C233.457 65.9626 233.817 65.4133 234.518 65.4932C235.258 65.5731 235.508 66.2123 235.678 66.7916C235.858 67.4109 235.888 68.0801 235.978 68.7194C236.138 69.4885 235.998 70.2675 236.058 71.0366C236.068 71.2264 235.948 71.586 236.389 71.4462L236.379 71.4362Z" fill="#041C42"/>
<path d="M69.5378 178.011C69.868 177.761 70.1982 177.511 70.5283 177.262C70.8985 177.541 70.9586 177.961 70.9986 178.37C71.2687 181.467 71.3388 184.583 71.4989 187.689C71.739 192.494 71.9291 197.298 72.2293 202.102C72.3493 204.05 72.4194 205.998 72.4794 207.946C72.6195 212.34 72.9496 216.725 73.0797 221.13C73.1297 222.828 73.2598 224.526 73.2998 226.224C73.3299 227.393 73.7001 227.812 74.8807 227.872C77.5421 227.992 80.1836 228.232 82.835 228.392C86.1968 228.591 89.5587 228.781 92.9105 229.081C93.851 229.161 94.2512 228.641 94.7815 228.162C95.2318 227.812 95.4819 228.262 95.8221 228.401C96.2023 228.871 96.4124 229.45 96.7626 229.94C96.5125 230.259 96.2623 230.579 96.0222 230.899C94.8115 231.398 93.5608 231.158 92.3302 231.068C89.0584 230.819 85.7766 230.639 82.5048 230.399C79.9334 230.209 77.362 230.129 74.8007 229.82C73.3999 229.6 73.2398 229.82 73.54 231.678C73.7101 232.876 73.8601 234.075 73.7801 235.273C73.7101 236.302 74.1803 236.662 75.1809 236.662C79.3031 236.642 83.4153 236.642 87.5376 236.662C88.2279 236.662 88.9684 236.542 89.5287 237.141C89.2785 237.481 89.0284 237.81 88.7783 238.15C88.228 238.759 87.4775 238.619 86.7972 238.619C81.4343 238.639 76.0814 238.659 70.7184 238.619C67.4667 238.589 64.7852 239.628 62.8742 242.355C62.614 242.725 62.3139 243.084 61.8036 243.144C61.5234 242.964 61.2433 242.785 60.9631 242.605C62.8842 238.969 65.9258 237.161 70.0181 237.111C72.3093 237.081 72.3393 237.101 72.2493 234.804C72.0892 230.879 71.9391 226.953 71.699 223.038C71.5089 219.862 71.3888 216.685 71.2087 213.519C70.9986 209.813 70.8785 206.098 70.6984 202.392C70.5383 199.096 70.4083 195.79 70.2082 192.494C69.988 188.908 69.868 185.322 69.6879 181.736C69.6278 180.498 69.4377 179.269 69.5378 178.031V178.011Z" fill="#041C42"/>
<path d="M180.698 214.957C180.638 215.626 180.148 215.696 179.628 215.726C179.598 215.746 179.558 215.796 179.528 215.796C177.337 215.766 175.145 215.796 172.974 215.436C172.854 215.416 172.784 215.287 172.694 215.197C172.444 214.857 172.194 214.517 171.944 214.178C172.824 213.469 173.865 213.828 174.825 213.798C175.696 213.768 175.986 213.599 175.516 212.73C172.874 207.875 170.433 202.921 167.841 198.047C166.15 194.851 164.53 191.624 162.849 188.428C162.619 187.989 162.398 187.529 162.539 187C162.729 186.61 162.999 186.351 163.479 186.49C165.15 189.697 166.811 192.903 168.482 196.109C171.513 201.952 174.555 207.785 177.577 213.628C177.827 214.108 178.087 214.358 178.687 214.408C179.368 214.458 180.028 214.757 180.698 214.947V214.957Z" fill="#041C42"/>
<path d="M163.479 186.5C163.189 186.68 162.899 186.87 162.608 187.05C162.028 186.94 161.868 186.43 161.638 186.001C159.497 182.066 157.446 178.09 155.435 174.095C155.194 173.625 154.854 173.156 155.124 172.577C155.555 172.437 155.725 172.117 155.755 171.698C157.746 175.503 159.727 179.319 161.718 183.124C162.308 184.253 162.889 185.372 163.479 186.5Z" fill="#041C42"/>
<path d="M303.945 242.675C303.945 233.745 303.945 224.816 303.945 215.886C304.175 216.306 304.115 216.775 304.115 217.225C304.115 225.175 304.115 233.136 304.115 241.087C304.115 241.616 304.195 242.165 303.945 242.675Z" fill="#041C42"/>
<path d="M216.998 259.145C216.998 250.215 216.998 241.286 216.998 232.356C217.228 232.776 217.168 233.245 217.168 233.695C217.168 241.646 217.168 249.606 217.168 257.557C217.168 258.086 217.248 258.636 216.998 259.145Z" fill="#041C42"/>
<path d="M59.9524 246.081C59.9524 255.01 59.9524 263.94 59.9524 272.869C59.7124 272.45 59.7825 271.98 59.7825 271.531C59.7825 263.54 59.7825 255.539 59.7825 247.549C59.7825 247.059 59.7124 246.55 59.9524 246.081Z" fill="#041C42"/>
<path d="M236.378 71.4358C236.218 71.8553 236.008 71.9252 235.978 71.4158C235.928 70.5169 235.968 69.6079 235.968 68.709C236.408 69.578 235.878 70.5868 236.378 71.4358Z" fill="#041C42"/>
<path d="M17.5996 51.7891C17.8796 52.7879 17.9296 53.7867 17.5696 54.7755C17.5696 53.7767 17.5896 52.7779 17.5996 51.7891Z" fill="#041C42"/>
<path d="M96.7525 229.939C95.5619 229.969 95.832 229.09 95.812 228.401C95.792 226.903 95.782 225.415 95.762 223.916C95.5319 221.509 95.6219 219.102 95.712 216.685C95.742 215.436 95.822 214.188 95.792 212.949C95.712 209.094 96.0521 205.258 96.3623 201.433C96.9626 193.882 97.7931 186.341 99.1238 178.879C99.9843 174.055 100.945 169.231 102.776 164.646C104.117 161.28 105.177 160.731 108.489 161.989C112.211 163.408 115.373 165.685 118.314 168.302C130.511 179.149 138.495 192.933 145.519 207.376C147.95 212.38 150.062 217.524 152.133 222.678C152.433 223.417 152.353 223.757 151.582 224.156C147.89 226.054 145.959 229.11 145.939 233.275C145.909 241.466 146.039 249.656 145.899 257.846C145.799 263.57 150.642 268.324 156.205 268.164C161.067 268.015 165.95 268.154 170.823 268.114C171.663 268.114 171.953 268.284 171.953 269.193C171.913 278.093 171.923 286.982 171.953 295.882C171.953 296.731 171.763 297 170.873 297C149.301 296.97 127.739 296.97 106.168 297C105.317 297 105.037 296.811 105.047 295.912C105.097 291.667 105.097 287.432 105.047 283.187C105.047 282.318 105.257 282.068 106.148 282.078C110.94 282.128 115.723 282.028 120.515 282.118C125.778 282.218 130.131 278.612 130.961 273.488C131.051 272.919 131.051 272.329 131.051 271.75C131.051 263.64 131.051 255.539 131.051 247.429C131.051 241.496 126.649 237.121 120.716 237.111C116.883 237.111 113.051 237.091 109.219 237.121C108.279 237.121 107.759 236.921 107.208 235.992C105.717 233.455 103.096 232.267 100.505 231.168C99.3039 230.659 98.0132 230.339 96.7725 229.939H96.7525Z" fill="#A1C9FF"/>
<path d="M155.124 172.577C157.456 177.481 160.027 182.266 162.608 187.05C164.359 190.476 166.09 193.902 167.851 197.318C169.862 201.213 171.894 205.099 173.915 208.994C174.785 210.662 175.676 212.32 176.666 214.188H171.954C165.04 214.188 158.136 214.128 151.222 214.188C150.062 214.198 149.581 213.809 149.161 212.8C145.819 204.979 141.947 197.418 137.465 190.176C133.533 183.834 129.21 177.791 124.048 172.347C120.195 168.292 116.073 164.646 111.13 161.99C109.57 161.151 107.899 160.641 106.168 160.302C104.797 160.032 103.756 160.561 102.996 161.71C101.445 164.087 100.725 166.784 99.9644 169.471C98.8738 173.336 98.1635 177.282 97.5231 181.227C97.0829 183.954 96.6526 186.69 96.4425 189.457C96.2424 192.134 95.7822 194.791 95.472 197.468C95.3419 198.566 95.3119 199.685 95.2619 200.784C95.0818 204.45 94.5915 208.095 94.6916 211.771C94.7216 212.71 94.5215 213.649 94.4614 214.588C94.4514 214.767 94.6115 214.957 94.6916 215.137C94.4214 216.555 94.8216 218.014 94.4815 219.432V221.42C94.7916 222.688 94.4714 223.987 94.6515 225.265C94.6816 226.234 94.7116 227.193 94.7416 228.162C94.6716 229.75 94.5915 229.93 93.1607 229.59C91.5298 229.21 89.879 229.37 88.2381 229.19C84.9963 228.831 81.7145 228.871 78.4728 228.591C77.152 228.471 75.8413 228.421 74.5206 228.371C73.4 228.331 72.6996 227.852 72.7897 226.603C72.9798 223.867 72.6196 221.15 72.4995 218.423C72.3394 214.757 72.2093 211.082 71.9992 207.416C71.8291 204.45 71.6891 201.493 71.559 198.526C71.3889 194.611 71.0887 190.696 71.0087 186.77C70.9387 183.604 70.6885 180.438 70.5084 177.272C70.1682 173.166 70.2583 169.041 69.818 164.946C69.6179 163.068 69.6379 161.151 69.6079 159.263C69.5479 156.366 69.3178 153.49 69.2277 150.593C69.1177 147.097 68.9776 143.581 68.7275 140.095C68.5974 138.277 68.6074 136.49 68.5273 134.592C75.1609 136.24 81.6545 137.978 88.198 139.446C93.641 140.675 98.9839 142.313 104.477 143.332C105.047 143.122 105.618 143.162 106.188 143.312C110.56 144.48 114.973 145.449 119.355 146.538C119.875 146.668 120.416 146.787 120.716 147.317C124.338 148.406 128.05 149.165 131.722 150.064C135.904 151.092 140.096 152.091 144.279 153.1C144.849 153.24 145.159 153.589 145.429 154.109C148.281 159.682 151.152 165.246 154.034 170.799C154.354 171.408 154.734 171.988 155.094 172.577H155.124Z" fill="#CAE0FF"/>
<path d="M61.7937 243.134C62.7443 241.586 63.8249 240.187 65.4758 239.299C66.8365 238.569 68.2773 238.18 69.7981 238.17C76.1215 238.14 82.435 238.14 88.7584 238.13C99.2841 238.14 109.82 238.16 120.346 238.16C124.828 238.16 128.53 240.657 129.511 244.792C129.721 245.671 129.941 246.53 129.941 247.439C129.941 255.499 129.981 263.56 129.921 271.62C129.881 277.264 125.789 281.029 120.486 281.019C103.757 280.979 87.0275 280.939 70.2984 281.049C65.7159 281.079 61.2234 277.743 60.9833 272.569C60.8532 272.29 60.8933 272 60.8933 271.71C60.8933 263.63 60.8933 255.549 60.8933 247.469C60.8933 247.179 60.8532 246.89 60.9833 246.61C60.9733 245.391 61.3135 244.243 61.7837 243.134H61.7937Z" fill="white"/>
<path d="M215.977 258.346C215.687 263.69 211.145 267.096 206.432 267.066C189.363 266.976 172.294 267.066 155.224 266.986C150.942 266.966 147.13 263.111 147.07 258.926C146.95 250.156 147 241.386 147.04 232.617C147.06 228.332 151.132 224.226 155.394 224.216C172.584 224.187 189.783 224.137 206.972 224.216C211.635 224.236 215.367 227.153 215.977 232.627C216.087 232.866 216.067 233.116 216.067 233.356C216.067 241.436 216.067 249.517 216.067 257.587C216.067 257.837 216.087 258.087 215.987 258.326L215.977 258.346Z" fill="white"/>
<path d="M302.915 241.885C302.514 247.469 297.852 250.635 293.389 250.605C276.33 250.525 259.271 250.595 242.212 250.535C237.899 250.515 234.057 246.62 234.007 242.395C233.907 233.505 233.857 224.605 234.017 215.726C234.087 212 237.079 208.734 240.991 207.975C242.132 207.755 243.282 207.735 244.433 207.735C260.702 207.735 276.971 207.735 293.239 207.735C298.452 207.735 302.204 210.832 302.905 216.175C303.015 216.415 302.995 216.665 302.995 216.905C302.995 224.985 302.995 233.066 302.995 241.136C302.995 241.386 303.015 241.635 302.915 241.875V241.885Z" fill="white"/>
<path d="M259.931 274.347C259.931 267.195 259.951 260.044 259.901 252.892C259.901 251.833 260.192 251.604 261.212 251.614C266.415 251.664 271.618 251.654 276.821 251.614C277.611 251.614 277.871 251.793 277.871 252.632C277.841 267.095 277.841 281.568 277.871 296.031C277.871 296.82 277.621 296.99 276.881 296.99C271.548 296.96 266.225 296.95 260.892 296.99C259.991 296.99 259.901 296.641 259.901 295.901C259.921 288.71 259.911 281.518 259.911 274.327L259.931 274.347Z" fill="#F6C254"/>
<path d="M190.914 282.557C190.914 287.002 190.894 291.457 190.934 295.902C190.934 296.781 190.704 297.01 189.833 297C184.59 296.96 179.338 296.95 174.095 297C173.104 297.01 172.964 296.681 172.964 295.802C172.994 286.952 172.994 278.093 172.964 269.243C172.964 268.314 173.194 268.065 174.135 268.075C179.338 268.124 184.54 268.134 189.743 268.075C190.794 268.065 190.944 268.424 190.934 269.343C190.894 273.748 190.914 278.153 190.914 282.557Z" fill="#F6C254"/>
<path d="M94.8815 296.99C92.26 296.99 89.6386 296.96 87.0172 297.01C86.2768 297.02 86.0166 296.85 86.0266 296.051C86.0667 291.686 86.0667 287.322 86.0266 282.957C86.0266 282.228 86.2668 282.058 86.9571 282.068C92.3301 282.088 97.693 282.088 103.066 282.068C103.756 282.068 103.996 282.228 103.996 282.957C103.966 287.322 103.956 291.686 103.996 296.051C103.996 296.85 103.746 297.02 103.006 297.01C100.304 296.97 97.5929 296.99 94.8915 296.99H94.8815Z" fill="#F6C254"/>
<path d="M172.704 215.197C175.015 215.306 177.366 214.987 179.628 215.716C183.15 216.875 186.361 218.533 188.703 221.529C189.053 221.979 189.433 222.418 189.593 222.997C189.273 223.227 188.933 223.117 188.623 223.117C177.296 223.117 165.97 223.117 154.654 223.147C153.704 223.147 153.293 222.838 152.983 221.979C152.163 219.751 151.232 217.554 150.282 215.187H172.704V215.197Z" fill="#CAE0FF"/>
<path d="M89.5088 237.131C84.476 237.131 79.4433 237.091 74.4006 237.131C73.5701 237.131 73.2499 236.981 73.27 236.062C73.31 234.504 73.1799 232.936 73.1199 231.378C73.1499 231.058 73.1299 230.728 73.1399 230.409C73.1466 229.596 73.5901 229.264 74.4706 229.41C77.9525 229.66 81.4444 229.879 84.9263 230.119C86.6872 230.239 88.4582 230.419 90.2392 230.449C92.1602 230.479 94.0813 230.738 96.0023 230.888C98.9139 231.717 101.785 232.646 104.267 234.464C105.167 235.123 105.998 235.852 106.528 237.131H89.5088Z" fill="#CAE0FF"/>
<path d="M60.9928 246.619C60.9928 255.269 60.9928 263.919 60.9928 272.579C60.7128 272.209 60.8028 271.78 60.8028 271.37C60.8028 263.519 60.8028 255.669 60.8028 247.818C60.8028 247.408 60.7128 246.979 60.9928 246.609V246.619Z" fill="#041C42"/>
<path d="M302.915 241.885C302.915 233.315 302.915 224.745 302.915 216.186C303.165 216.515 303.105 216.895 303.105 217.264C303.105 225.115 303.105 232.956 303.105 240.807C303.105 241.176 303.175 241.556 302.925 241.885H302.915Z" fill="#041C42"/>
<path d="M215.978 258.346C215.978 249.776 215.978 241.206 215.978 232.646C216.228 232.976 216.168 233.355 216.168 233.725C216.168 241.575 216.168 249.416 216.168 257.267C216.168 257.637 216.238 258.016 215.988 258.346H215.978Z" fill="#041C42"/>
<path d="M95.712 216.695C95.732 219.102 95.742 221.51 95.762 223.927C95.282 222.898 95.552 221.809 95.552 220.761C95.552 219.412 95.332 218.044 95.712 216.705V216.695Z" fill="#041C42"/>
<path d="M94.5012 219.432C94.5812 218.003 94.3212 216.555 94.7112 215.137C94.6312 216.565 94.9512 218.023 94.5012 219.432Z" fill="#041C42"/>
<path d="M94.6813 225.265C94.3813 223.996 94.5513 222.708 94.5113 221.419C94.9213 222.688 94.6813 223.976 94.6813 225.265Z" fill="#041C42"/>
<path d="M105.027 142.532C100.725 141.224 96.3122 140.375 91.9498 139.296C85.8265 137.778 79.7031 136.23 73.5698 134.711C72.4592 134.432 71.3386 134.222 70.238 133.932C68.2569 133.413 68.2569 133.403 68.0468 131.405C67.3464 124.653 64.8551 118.53 61.3432 112.807C58.8318 108.712 55.8302 104.966 52.6585 101.361C49.4967 97.7649 46.225 94.2591 42.9932 90.7232C35.9094 82.9624 29.2257 74.8819 23.6827 65.9224C22.0718 63.3155 20.6511 60.5887 19.1302 57.9219C18.8401 57.4125 18.8701 57.1528 19.4504 56.8232C25.3536 53.4571 31.2468 50.0611 37.13 46.6751C38.3407 45.9859 39.5613 45.3167 40.752 44.5976C41.4123 44.208 41.6625 44.5776 41.9826 45.067C44.1038 48.2433 46.1549 51.4695 48.4662 54.5159C50.2271 56.8431 52.0881 59.1005 54.0792 61.2479C64.3348 72.265 76.1512 81.5241 87.7675 90.9929C88.3278 91.4524 88.7881 91.6521 89.3984 91.1627C92.4901 88.6457 95.932 88.7855 99.684 89.3049C105.957 90.1739 112.301 90.1739 118.544 88.7456C119.425 88.5458 120.305 88.2861 121.136 87.9265C121.956 87.5669 122.246 87.8866 122.426 88.6157C123.017 90.953 123.627 93.2902 124.207 95.6274C124.367 96.2767 124.507 96.5464 125.378 96.3366C131.541 94.8184 137.775 93.6398 144.058 92.7109C149.471 91.9118 154.884 91.1427 160.317 90.4735C165.39 89.8443 170.462 89.255 175.545 88.7256C180.518 88.2062 185.481 87.6868 190.453 87.2373C195.126 86.8078 199.798 86.3584 204.471 85.9788C208.623 85.6492 212.785 85.3396 216.928 84.97C220.71 84.6304 224.502 84.5205 228.274 84.0711C228.704 84.0211 228.824 84.2009 228.874 84.6204C229.435 88.8354 230.005 93.0405 230.615 97.2455C231.065 100.352 231.536 103.458 232.056 106.555C232.196 107.394 231.786 107.633 231.145 107.633C228.084 107.613 225.082 108.163 222.05 108.452C218.759 108.762 215.507 109.431 212.225 109.841C208.853 110.26 205.512 110.86 202.15 111.369C196.857 112.178 191.604 113.177 186.361 114.206C180.548 115.354 174.755 116.613 169.042 118.161C164.789 119.32 160.537 120.478 156.525 122.406C152.633 124.274 150.181 127.41 148.441 131.186C146.349 135.72 145.569 140.575 145.129 145.509C144.969 147.327 144.939 149.144 144.909 150.962C144.899 151.891 144.678 152.201 143.678 151.941C137.605 150.393 131.511 148.895 125.418 147.396C124.037 147.057 122.626 146.807 121.236 146.508C120.665 146.767 120.105 146.637 119.535 146.508C115.192 145.439 110.86 144.31 106.498 143.311C105.937 143.181 105.337 143.102 104.997 142.542L105.027 142.532Z" fill="#A1C9FF"/>
<path d="M27.3049 11.7067C28.3554 12.5357 28.6156 13.8242 29.0058 14.9629C30.5766 19.5375 32.0875 24.1421 33.3081 28.8265C33.4282 29.266 33.5583 29.9053 34.1986 29.8254C34.919 29.7455 34.5588 29.0962 34.5588 28.7167C34.5488 27.1885 34.4688 25.6603 34.3987 24.1421C34.3287 22.5839 34.3587 20.9258 34.939 19.2278C36.0696 20.6662 36.1497 22.2443 36.4999 23.7026C37.4204 27.558 38.2308 31.4335 39.1113 35.2889C39.6316 37.5762 40.2419 39.8336 40.7222 42.1309C40.8322 42.6503 41.0523 43.2595 40.2119 43.729C34.2586 47.085 28.3454 50.531 22.4222 53.937C21.5117 54.4663 20.6112 55.0257 19.6507 55.4352C19.3605 55.5551 19.1404 56.0944 18.7502 55.7848C18.41 55.5251 18.5701 55.1056 18.6502 54.746C18.6602 52.9282 18.7302 51.1103 18.6101 49.3024C18.43 45.7966 18.37 42.2807 18.0398 38.7948C17.6196 34.4399 17.2594 30.0751 16.6391 25.7302C16.3789 23.9123 15.8987 22.0645 16.1388 19.9969C16.9692 20.6462 17.3194 21.4352 17.6596 22.1844C18.9903 25.1708 20.171 28.2173 21.2716 31.3036C21.3716 31.5733 21.5217 31.823 21.6218 32.0927C21.7719 32.5122 22.052 32.712 22.4822 32.5621C23.0526 32.3724 22.7124 32.0228 22.6323 31.6732C21.5317 26.9288 20.4111 22.1844 19.3906 17.43C19.0604 15.8718 19.0003 14.2637 18.8303 12.6756C18.7902 12.306 18.7402 11.8066 19.1604 11.7067C19.6507 11.5868 19.6407 12.1562 19.7508 12.4558C21.4517 17.0504 22.5523 21.8048 23.7529 26.5392C24.1231 27.9875 24.4233 29.4558 24.8035 30.8941C24.8936 31.2437 25.0436 31.7831 25.6139 31.5533C26.0642 31.3735 26.0442 31.0339 25.9341 30.5345C24.9436 25.88 23.963 21.2255 23.0926 16.551C22.7524 14.7132 22.6523 12.8154 22.9025 10.6479C24.1231 12.0063 24.5634 13.4846 24.9636 14.9129C25.8441 18.0193 26.5745 21.1656 27.3249 24.3019C27.7451 26.0698 28.0953 27.8577 28.4955 29.6256C28.5856 30.0151 28.5856 30.5945 29.2159 30.4746C29.8562 30.3547 29.8562 29.8154 29.7562 29.306C28.9357 25.031 28.1053 20.766 27.3049 16.4911C27.1748 15.7819 27.1748 15.0428 27.1148 14.3136C27.2248 13.4347 26.9747 12.5457 27.2648 11.6767L27.3049 11.7067Z" fill="#CAE0FF"/>
<path d="M106.928 57.1924C108.289 58.401 109.439 59.6795 110.95 60.5584C112.731 61.5972 114.602 62.1066 116.643 62.0367C116.853 62.0367 117.064 62.0067 117.264 62.0367C117.944 62.1166 118.004 62.6559 117.924 63.1354C117.794 63.9344 117.294 63.2552 117.114 63.1953C115.563 62.7359 114.132 63.0455 112.751 63.7447C111.571 64.334 111.08 65.4227 111.02 66.6313C110.97 67.5402 112.431 68.7887 113.552 69.0284C115.683 69.4879 117.614 69.0784 119.315 67.5602C120.055 70.6965 120.525 73.8128 120.986 76.9491C121.376 79.616 121.576 82.3028 121.936 84.9697C122.056 85.8486 121.996 86.5278 120.856 86.9274C117.974 87.9462 115.002 88.4656 112.001 88.6254C106.608 88.915 101.215 88.7053 95.8721 87.7864C95.0416 87.6465 94.8916 87.3469 94.9716 86.5978C95.4519 82.3328 96.2023 78.1177 97.1028 73.9327C97.8332 70.5267 98.6836 67.1606 99.6942 63.8146C100.004 62.7958 100.475 62.2265 101.435 61.9168C103.876 61.1278 105.807 59.6994 106.898 57.2024L106.928 57.1924Z" fill="#CAE0FF"/>
<path d="M234.958 73.2436C234.828 74.0926 234.978 74.9615 234.678 75.8205C234.528 76.27 234.407 77.0191 235.088 77.2089C235.878 77.4386 235.858 76.6695 236.008 76.1901C237.329 71.9551 238.43 67.6501 239.94 63.4751C240.491 61.9568 241.011 60.4286 241.882 59.0003C242.352 59.4698 242.422 59.9592 242.372 60.4986C241.902 65.4228 240.681 70.2271 239.85 75.0914C239.73 75.7906 239.67 76.4698 239.65 77.1589C239.65 77.4886 239.65 77.8881 240.071 77.8881C240.351 77.8881 240.631 77.7083 240.711 77.2788C241.081 75.441 241.491 73.6231 241.942 71.8052C243.002 67.5103 243.763 63.1255 245.674 59.0802C245.804 58.8106 245.844 58.3311 246.214 58.3811C246.684 58.441 246.644 58.9104 246.634 59.28C246.514 62.1366 246.044 64.9333 245.514 67.74C244.893 71.0362 244.173 74.3023 243.392 77.5685C243.342 77.7682 243.372 77.988 243.392 78.1877C243.432 78.4774 243.192 78.9169 243.703 78.9868C244.153 79.0567 244.333 78.777 244.443 78.3475C244.923 76.3699 245.413 74.3922 245.934 72.4345C247.074 68.1495 248.075 63.8246 249.666 59.6695C249.776 59.3799 249.846 59.1302 250.296 59.1002C250.616 61.2277 250.236 63.3152 249.816 65.3628C248.875 69.8975 247.865 74.4322 246.684 78.9069C246.564 79.3464 246.444 80.0256 247.054 80.2054C247.645 80.3752 247.755 79.676 247.895 79.3164C249.226 75.7706 250.426 72.1848 252.177 68.8188C252.447 68.2894 252.787 67.8 253.208 67.0908C253.688 68.579 253.028 69.6877 252.697 70.7964C251.387 75.2212 249.506 79.4163 247.605 83.6113C245.423 88.4457 242.862 93.0602 240.171 97.6149C238.42 100.581 236.419 103.348 234.197 105.975C233.977 106.245 233.737 106.734 233.357 106.584C232.977 106.444 232.987 105.935 232.927 105.526C232.466 102.209 231.966 98.8933 231.496 95.5773C231.126 92.9903 230.796 90.3934 230.445 87.7964C230.375 87.267 230.335 86.7277 230.185 86.2283C229.465 83.8411 230.535 81.7535 231.186 79.5761C232.166 76.29 232.556 72.884 233.217 69.5279C233.407 68.5691 233.557 67.5303 234.528 66.6713C234.688 67.6402 234.818 68.4492 234.958 69.2682C235.108 70.5967 235.098 71.9351 234.958 73.2635V73.2436Z" fill="#CAE0FF"/>
<path d="M106.368 54.7553C105.867 58.2012 103.826 59.9691 100.715 61.0279C102.065 57.8516 103.266 54.8152 105.787 52.5479C108.099 50.4604 110.32 51.3493 112.131 52.8675C114.642 54.965 116.063 57.8217 117.284 60.938C112.271 61.3176 109.329 58.2012 106.368 54.7453V54.7553Z" fill="#CAE0FF"/>
<path d="M105.027 142.532C108.369 143.301 111.721 144.05 115.063 144.859C117.144 145.359 119.195 145.958 121.266 146.518C121.096 146.787 120.916 147.057 120.746 147.327C115.833 146.148 110.92 144.979 106.018 143.751C105.517 143.621 104.917 143.791 104.507 143.331L105.037 142.532H105.027Z" fill="#041C42"/>
<path d="M95.2917 65.6427C95.2917 63.7749 96.4823 62.4065 97.9331 62.5263C98.6135 62.5763 98.8436 62.9359 98.7035 63.4952C98.2533 65.2332 97.733 66.9611 97.2327 68.6891C97.0426 69.3583 96.6924 68.9987 96.4323 68.759C95.5118 67.92 95.2317 66.8413 95.2817 65.6327L95.2917 65.6427Z" fill="#CAE0FF"/>
<path d="M116.073 67.8901C115.103 68.3695 113.001 67.91 112.471 67.051C111.921 66.1721 112.371 65.403 113.061 64.9235C113.852 64.3742 114.762 63.9347 115.883 64.0745C115.453 64.7138 114.802 65.1832 114.962 66.0922C115.103 66.8812 115.393 67.4805 116.073 67.8901Z" fill="#CAE0FF"/>
<path d="M18.6201 49.312C18.9201 51.1299 18.9301 52.9377 18.6601 54.7556C18.6501 52.9377 18.6401 51.1199 18.6201 49.312Z" fill="#A1C9FF"/>
<path d="M234.958 73.2438C234.958 71.9154 234.958 70.577 234.958 69.2485C235.268 70.577 235.258 71.9154 234.958 73.2438Z" fill="#041C42"/>
<path d="M27.3046 11.7065C27.2046 12.5855 27.4946 13.4844 27.1546 14.3434C27.2146 13.4645 26.8446 12.5655 27.3046 11.7065Z" fill="#A1C9FF"/>
<path d="M74.4798 229.41C73.6298 229.31 73.1098 229.55 73.2798 230.549C73.3298 230.828 73.3298 231.128 73.1298 231.378C73.1198 231.058 73.1098 230.729 73.0998 230.409C73.0598 229.49 73.5198 229.157 74.4798 229.41Z" fill="#A1C9FF"/>
<path d="M94.9614 256.877C94.181 257.496 93.5407 257.996 92.9003 258.505C92.8303 258.455 92.7602 258.415 92.7102 258.355C91.9965 257.556 92.0499 256.831 92.8703 256.178C93.5507 255.639 94.2811 255.139 94.9114 254.55C95.5618 253.941 96.3522 254.051 97.0226 254.22C97.6729 254.38 97.3227 255.149 97.3227 255.639C97.3527 258.625 97.2727 261.612 97.3727 264.588C97.4128 265.747 96.7824 265.557 96.082 265.607C95.2716 265.667 94.9214 265.507 94.9514 264.568C95.0215 262.081 94.9714 259.594 94.9714 256.887L94.9614 256.877Z" fill="#041C42"/>
<path d="M180.388 250.095C181.939 250.095 183.26 250.155 184.57 250.075C185.531 250.015 185.371 250.595 185.411 251.174C185.451 251.823 185.341 252.153 184.56 252.133C182.609 252.083 180.648 252.133 178.697 252.103C178.287 252.103 177.627 252.383 177.487 251.873C177.326 251.284 177.226 250.565 177.797 250.006C178.747 249.077 179.698 248.148 180.608 247.179C181.229 246.52 181.859 245.83 182.349 245.071C182.769 244.432 182.92 243.633 182.339 242.984C181.789 242.374 181.048 242.534 180.358 242.724C180.048 242.814 179.708 242.954 179.478 243.174C178.477 244.112 178.137 243.104 177.717 242.554C177.136 241.805 178.037 241.675 178.357 241.436C179.688 240.457 181.229 240.347 182.759 240.726C184.891 241.256 185.701 243.583 184.53 245.631C183.54 247.359 181.839 248.437 180.378 250.095H180.388Z" fill="#041C42"/>
<path d="M269.736 229.59C271.948 230.578 272.398 231.238 272.158 232.956C271.948 234.444 270.807 235.393 268.906 235.702C268.036 235.842 267.175 235.832 266.305 235.702C264.273 235.403 264.273 235.413 264.434 233.305C265.364 233.445 266.215 233.905 267.165 233.905C267.755 233.905 268.336 233.885 268.876 233.635C269.526 233.325 269.716 232.766 269.686 232.097C269.656 231.457 269.306 231.078 268.736 230.948C268.176 230.818 267.585 230.708 267.015 230.728C266.335 230.758 266.084 230.578 266.084 229.849C266.084 229.13 266.215 228.731 267.035 228.871C267.235 228.91 267.455 228.871 267.655 228.861C268.996 228.731 269.626 228.151 269.506 227.173C269.396 226.284 268.646 225.894 267.355 226.104C267.035 226.154 266.715 226.264 266.405 226.383C265.574 226.713 264.794 226.314 264.534 225.465C264.394 225.015 264.734 224.985 264.954 224.865C266.705 223.916 268.536 223.846 270.367 224.526C271.317 224.885 271.898 225.654 271.908 226.733C271.918 228.171 271.127 229.03 269.756 229.6L269.736 229.59Z" fill="#041C42"/>
<path d="M104.447 69.0688C103.476 69.0788 102.546 68.909 101.685 68.4495C100.194 67.6604 99.8742 66.312 100.825 64.9137C102.135 62.9859 105.497 62.3866 107.418 63.735C109.409 65.1334 109.199 67.5306 106.998 68.5893C106.188 68.9789 105.327 69.0488 104.457 69.0688H104.447Z" fill="#041C42"/>
<path d="M110.49 81.0345C107.218 81.0345 105.287 79.3765 103.686 77.179C103.466 76.8894 103.346 76.6397 103.756 76.37C104.187 76.0903 104.337 76.37 104.537 76.6397C105.017 77.3189 105.537 77.9581 106.178 78.4975C108.279 80.2654 110.56 80.4752 113.021 79.3365C114.312 78.7372 115.453 77.9082 116.453 76.9094C116.733 76.6297 116.934 76.5298 117.244 76.8694C117.494 77.1491 117.514 77.3289 117.234 77.5886C115.203 79.4264 113.031 80.9746 110.48 81.0345H110.49Z" fill="#041C42"/>
<path d="M110.27 75.8708C109.81 75.8708 109.359 75.8708 108.899 75.8708C108.559 75.8708 108.239 75.8708 108.229 75.3813C108.229 74.9019 108.499 74.852 108.869 74.8619C109.7 74.8619 110.53 74.842 111.36 74.8619C112.281 74.8919 112.421 74.4924 112.141 73.7033C111.31 71.3761 110.5 69.0288 109.68 66.6916C109.579 66.4219 109.509 66.1422 109.379 65.8825C109.189 65.483 109.289 65.3032 109.71 65.1634C110.13 65.0135 110.21 65.2233 110.32 65.5229C111.29 68.2897 112.311 71.0365 113.211 73.8232C113.612 75.0417 112.951 75.8008 111.631 75.8608C111.18 75.8807 110.72 75.8608 110.26 75.8608L110.27 75.8708Z" fill="#041C42"/>
<path d="M105.167 67.9904C104.117 68.1802 103.156 68.0503 102.256 67.6208C101.145 67.0914 100.975 66.2724 101.785 65.3235C102.646 64.3047 103.796 63.9851 105.157 64.045C103.656 65.6032 103.656 66.4222 105.177 67.9904H105.167Z" fill="#CAE0FF"/>
</g>
<defs>
<clipPath id="clip0_707_5350">
<rect width="320" height="298" fill="white"/>
</clipPath>
</defs>
</svg>
