<?xml version="1.0" encoding="UTF-8"?>
<svg fill="none" version="1.1" viewBox="0 0 320 298" xmlns="http://www.w3.org/2000/svg">
  <g clip-path="url(#clip0_707_5173)">
    <rect width="320" height="298" fill="#F6C254"/>
    <path d="m320 0v297.46s-0.93-0.01-1.44 0c-0.501 0.01-1.001 0-1.501 0h-136.04c-2.314 0-3.471-1.152-3.471-3.456v-25.572-1.368c0.06-1.589 0.43-1.938 2.051-1.998 0.58-0.02 1.17 0 1.75 0h101.18c3.811 0 6.743-1.568 8.694-4.845 1-1.688 1.26-3.546 1.26-5.504-0.02-60.073-0.02-120.15-0.02-180.23v-20.078c0-5.0145-2.921-8.6305-7.783-9.7492-0.501-0.1199-0.991-0.1299-1.481-0.1299h-122.17c-5.793 0-9.525 5.0045-9.515 9.5395 0.03 20.038 0 40.076 0.05 60.114 0 2.098-0.73 3.886-1.46 5.733-0.13 0.33-0.32 0.78-0.761 0.67-0.4-0.1-0.45-0.57-0.49-0.939-0.1-0.869-0.03-1.748-0.06-2.617-0.02-0.42-0.01-0.879-0.52-1.019-0.5-0.14-0.77 0.25-1 0.589-0.581 0.869-0.881 1.878-1.301 2.827-0.17 0.4-0.32 1.009-0.86 0.899-0.501-0.1-0.481-0.709-0.531-1.159-0.05-0.539-0.02-1.078-0.04-1.618-0.02-0.389-0.08-0.779-0.55-0.859-0.39-0.07-0.61 0.23-0.78 0.519-0.661 1.109-1.181 2.288-1.641 3.497-1.811 4.774-3.391 9.639-4.892 14.524-0.18 0.599-0.34 1.208-0.62 1.758-0.15 0.289-0.341 0.679-0.711 0.589-0.34-0.08-0.41-0.49-0.46-0.829-0.06-0.46 0.03-0.909 0.08-1.369 0.11-1.158 0.22-2.317-0.12-3.456-0.12-0.399-0.13-0.869-0.66-0.939-0.49-0.06-0.741 0.32-0.971 0.67-0.61 0.899-1.02 1.907-1.44 2.896-2.811 6.663-5.433 13.405-7.954 20.178-0.58 1.568-1.45 2.887-2.551 4.085-5.142 5.604-10.234 11.258-15.457 16.792-6.4224 6.802-12.895 13.555-19.098 20.557-5.7125 6.443-11.285 12.996-16.537 19.818-0.4902 0.639-0.9004 1.608-1.8408 1.519-1.0004-0.09-1.0605-1.159-1.3506-1.908-1.8208-4.775-3.3815-9.65-5.5824-14.275-0.4602-0.979-0.9504-1.937-1.4006-2.926-0.6203-1.349-0.5303-1.778 0.5702-2.697 2.141-1.798 2.1309-1.958-0.2001-3.516-0.6202-0.41-1.2205-0.87-1.8708-1.239-2.8512-1.648-5.1622-3.806-7.1731-6.433-1.9809-2.577-4.452-4.725-7.7734-5.564-2.0909-0.519-3.8917 0.16-5.1123 1.898-1.7607 2.507-2.1809 5.444-2.5911 8.361-0.3301 2.347-0.3101 4.725-0.2801 7.092 0.08 6.153 0.6603 12.256 1.6407 18.33 0.2401 1.478-0.06 2.607-1.0405 3.766-3.0313 3.586-5.7125 7.441-8.3836 11.307-5.7425 8.321-10.945 16.961-16.037 25.682-0.5503 0.949-0.8804 1.917-1.0005 3.036-1.1105 10.529-0.3501 20.887 2.7912 31.026 0.6303 2.028 1.4507 3.975 2.3511 5.893 0.7303 1.539 0.4001 2.118-1.2706 2.128-4.3719 0.05-8.7438 0.03-13.116 0-0.56025 0-1.5107-0.461-1.5107-0.461v-295c0-0.32964-5.9269e-5 -1.9998-5.9269e-5 -1.9998 105.55 0 214.44-1.3462e-4 320-1.3462e-4z" fill="#A1C9FF"/>
    <path d="m0 297 16.187 0.011c-1.2805-2.587-2.361-5.124-3.1513-7.781-3.0113-10.039-3.8417-20.258-2.7512-30.676 0.2801-2.677 1.8208-4.575 3.0413-6.683 6.2927-10.858 12.966-21.456 20.599-31.445 0.03-0.03 0.05-0.07 0.07-0.1 0.9405-1.398 2.6712-2.427 2.9313-4.055 0.2501-1.559-0.4002-3.267-0.6102-4.915-0.9605-7.222-1.5907-14.464-0.9204-21.746 0.2601-2.777 0.7203-5.514 2.0308-8.031 1.5607-2.987 4.0018-3.966 7.1832-2.847 2.9213 1.029 5.2923 2.937 7.0431 5.374 2.2009 3.067 5.1022 5.164 8.2136 7.102 0.6002 0.37 1.1805 0.769 1.7607 1.179 1.4507 0.999 1.4807 1.988 0.1201 3.037-1.2806 0.985-1.564 2.194-0.8504 3.626 2.7112 5.464 4.6621 11.237 6.753 16.961 0.17 0.469 0.3601 0.929 0.5402 1.398 0.4902 0.03 0.6003-0.419 0.8003-0.679 10.395-13.475 21.86-26.011 33.575-38.337 6.673-7.023 13.226-14.155 19.679-21.377 0.43-0.489 0.61-1.069 0.83-1.648 2.981-7.741 5.822-15.533 9.254-23.094 0.4-0.879 0.74-2.098 2.001-1.838 1.24 0.259 1.12 1.528 1.16 2.487 0.07 1.488 0.02 2.977 0.02 4.425 0.831-2.617 1.681-5.324 2.561-8.021 1.211-3.706 2.432-7.412 4.002-10.978 0.28-0.639 0.641-1.259 1.031-1.838 0.22-0.33 0.53-0.689 1.02-0.579 0.57 0.13 0.84 0.599 0.87 1.098 0.071 1.029 0.021 2.068 0.181 3.137 0.43-1.049 0.81-2.128 1.31-3.137 0.37-0.759 0.75-1.768 1.831-1.568 1.11 0.21 1.02 1.279 1.07 2.128 0.05 0.929 0.01 1.868 0.01 3.096 0.761-2.477 1.731-4.505 1.711-6.992-0.11-19.748-0.06-39.496-0.06-59.244 0-6.1333 4.292-10.398 10.455-10.398h121.16c5.972 0 10.284 4.3252 10.284 10.318v200.92c0 5.954-4.332 10.269-10.334 10.269-34.355 0-68.7 0-103.06-0.02-1.191 0-1.591 0.19-1.581 1.508 0.07 9.52 0.06 19.039 0.01 28.559 0 1.128 0.27 1.418 1.411 1.418 46.84-0.03 93.761-0.021 140.6-0.021v1h-320v-1z" fill="#041C42"/>
    <path d="m164.78 247.83c-5.773 2.367-8.904 6.922-11.435 12.226-0.9-1.139-1.12-2.457-1.281-3.786-0.06-0.489-0.02-0.999-0.02-1.498 0-37.329 0-74.657-0.03-111.99 0-1.708 0.401-3.276 0.861-4.865 1.14-3.945 2.151-7.921 2.791-11.986 0.12-0.739 0.15-1.489 0.16-2.238 0.01-0.489 0.06-1.079-0.55-1.268-0.64-0.2-0.981 0.299-1.311 0.729-0.7 0.919-1.02 2.038-1.72 3.286 0.34-2.247 0.65-4.205 0.91-6.173 0.14-1.029 0.56-2.337-0.12-3.027-1.671-1.708-0.971-3.686-0.981-5.534-0.06-18.998-0.03-37.998-0.03-56.996 0-5.9335 3.722-9.6793 9.625-9.6793h120.66c5.853 0 9.625 3.7458 9.625 9.5494v200.41c0 5.803-3.772 9.559-9.625 9.559-34.305 0-68.61 0-102.92 0.03-1.12 0-1.47-0.26-1.41-1.398 0.1-2.028-0.04-4.076 0.05-6.104 0.06-1.238-0.4-1.158-1.241-0.749-2.131 1.049-3.881 2.557-5.422 4.326-0.65 0.749-1.201 1.588-1.831 2.357-0.41 0.499-0.5 1.398-1.18 1.498-1.061 0.15-2.161 0.1-3.242 0.02-0.64-0.05-0.33-0.659-0.33-1.009-0.02-4.734-0.01-9.479-0.01-14.214v-1.478h0.01z" fill="#fff"/>
    <path d="m11.895 256.25c7.7233-13.315 15.647-26.311 25.421-38.507-0.08 1.658 0.7003 1.618 1.7107 1.468 8.1036-1.189 15.987-3.047 23.12-7.302 0.7803-0.459 1.5006-1.009 2.331-1.578 1.1605 3.136 2.291 6.183 3.4515 9.3 3.0213-3.766 5.9626-7.472 8.9539-11.138 7.8935-9.659 16.367-18.799 24.941-27.859 7.003-7.392 13.936-14.854 20.699-22.475 0.54-0.61 1-0.789 1.8-0.66 5.703 0.889 11.425 1.738 17.138 2.548 0.94 0.129 0.7 0.489 0.44 1.038-3.001 6.343-6.343 12.507-9.804 18.6-8.234 14.464-17.268 28.458-25.952 42.653-3.761 6.163-7.5928 12.286-10.614 18.869-1.9609 4.265-2.6112 8.9-3.6716 13.415-1.4907 6.303-2.3511 12.726-3.4416 19.099-0.18 1.039-0.4501 1.168-1.4206 0.929-22.63-5.554-45.27-11.088-67.9-16.622-2.341-0.569-4.672-1.159-7.1831-1.788l-0.02 0.01z" fill="#A1C9FF"/>
    <path d="m90.82 296.99c-24.06 0-48.121 0-72.182 0.03-0.9905 0-1.4807-0.33-1.9009-1.169-2.7111-5.444-4.1718-11.257-5.0722-17.221-0.9104-6.023-1.0905-12.066-0.5502-18.14 0.3001-3.356 0.2501-3.346 3.4615-2.557 24.441 5.984 48.881 11.957 73.312 17.95 0.5802 0.14 1.1505 0.16 1.7307 0.16 24.521 0 49.042 0.01 73.562-0.03 1.151 0 1.411 0.3 1.401 1.419-0.06 6.113-0.06 12.216 0 18.329 0.01 1.079-0.31 1.259-1.311 1.259-24.14-0.03-48.291-0.02-72.431-0.02l-0.0201-0.01z" fill="#CAE0FF"/>
    <path d="m151.61 259.03c-1.6-1.598-3.751-1.778-5.782-2.167-7.043-1.349-14.146-2.358-21.59-3.406 1.551-0.53 2.801-0.909 4.012-1.379 0.86-0.34 2.111-0.609 1.981-1.748-0.14-1.239-1.451-1.169-2.411-1.259-4.652-0.469-9.314-0.229-13.966-0.07-6.243 0.21-12.486 0.26-18.728 0.25-0.9504 0-0.9204-0.339-0.7803-1.089 0.9404-4.934 3.2914-9.279 5.7328-13.585 6.443-11.387 13.596-22.335 20.429-33.482 7.553-12.317 15.086-24.643 21.369-37.669 1.821-3.776 4.482-7.072 6.013-11.008 1.01-2.607 2.051-5.214 3.181-7.821v1.419 107.25c0 1.958 0 3.905 0.54 5.803l0.03-0.02-0.03-0.02z" fill="#A1C9FF"/>
    <g fill="#CAE0FF">
      <path d="m154.59 124.06c0 3.306-0.751 6.403-1.561 9.489-2.011 7.712-4.322 15.323-8.034 22.435-1.71 3.287-1.74 3.317-5.322 2.807-5.062-0.709-10.104-1.508-15.167-2.247-0.66-0.1-0.7-0.3-0.48-0.879 2.971-7.782 5.863-15.593 9.284-23.195 0.18-0.399 0.31-0.869 0.911-1.019 0.65 2.108 0.14 4.206 0.02 6.284-0.1 1.648-0.411 3.296-0.611 4.944-0.06 0.47-0.33 1.139 0.301 1.309 0.66 0.169 0.72-0.55 0.86-0.999 1.681-5.245 3.331-10.509 5.032-15.753 0.89-2.757 1.871-5.494 3.021-8.161 0.271-0.639 0.511-1.308 1.131-1.938 0.35 2.018-0.03 3.866-0.29 5.724-0.57 4.065-1.711 8.031-2.181 12.127-0.05 0.429-0.32 1.028 0.29 1.168 0.72 0.17 0.69-0.539 0.79-0.989 1.211-5.254 2.221-10.548 3.972-15.662 0.36-1.049 0.68-2.128 1.591-3.097 0.33 0.889 0.3 1.698 0.25 2.497-0.35 5.155-1.621 10.149-2.671 15.184-0.15 0.729-0.3 1.458-0.441 2.197-0.07 0.39-0.31 0.899 0.271 1.039 0.58 0.14 0.63-0.41 0.73-0.789 0.6-2.368 1.18-4.745 1.791-7.112 0.89-3.446 1.76-6.913 2.941-10.279 0.1-0.27 0.18-0.549 0.3-0.819 0.16-0.35 0.18-0.979 0.7-0.859 0.481 0.12 0.291 0.709 0.291 1.109 0 1.708-0.291 3.396-0.591 5.064-0.74 4.166-1.57 8.311-2.601 12.416-0.04 0.16-0.05 0.33-0.09 0.49-0.08 0.329-0.19 0.699 0.25 0.829 0.5 0.15 0.641-0.24 0.751-0.619 0.5-1.629 1-3.247 1.51-4.875 0.671-2.138 1.411-4.245 2.301-6.303 0.22-0.519 0.51-1.009 0.761-1.508l-0.01-0.01z"/>
      <path d="m147.51 267.06h-20.719c-7.363 0-14.736-0.02-22.099 0.02-0.881 0-1.201-0.16-1.221-1.119-0.09-4.904-0.26-9.799-0.4-14.693-0.01-0.51-0.17-1.049 0.74-1.049 7.324-0.03 14.637-0.55 21.96-0.35 1.11 0.03 2.221 0.13 3.461 0.51-1.29 0.999-2.711 1.208-4.011 1.678-0.741 0.27-1.501 0.459-2.251 0.719-0.43 0.15-0.951 0.31-0.871 0.889 0.07 0.539 0.571 0.619 1.051 0.689 2.391 0.32 4.782 0.61 7.163 0.989 6.153 0.989 12.345 1.688 18.398 3.227 0.62 0.159 1.291 0.269 1.711 0.909-0.711 0.519-1.481 0.349-2.201 0.329-5.363-0.19-10.695-0.799-16.037-1.338-0.661-0.07-1.321-0.12-1.991-0.17-0.34-0.03-0.75-0.02-0.78 0.399-0.03 0.47 0.4 0.57 0.78 0.62 1.27 0.18 2.551 0.349 3.832 0.539 4.602 0.649 9.224 1.189 13.716 2.477 1.13 0.32 1.33 0.43 2.13 1.099-0.67 0.35-1.34 0.4-2.03 0.41-4.552 0.09-9.044-0.57-13.536-1.129-1.361-0.17-2.712-0.38-4.072-0.549-0.41-0.05-0.91-0.14-1.011 0.429-0.1 0.6 0.481 0.629 0.841 0.699 3.972 0.7 7.943 1.339 11.905 2.038 1.901 0.34 3.802 0.709 5.532 1.758l0.01-0.03z"/>
      <path d="m36.446 202.54c3.6116 2.257 6.823 1.418 9.9044-1.269-1.4707-0.769-3.0114-1.428-3.2715-3.286-0.16-1.149 0.2902-2.128 0.9304-3.017 1.1906-1.628 2.3811-1.468 5.2023 0.7 0.04-0.05 0.1101-0.11 0.1101-0.17 0.08-1.059 0.3901-1.399 1.6107-1.049 2.0609 0.579 3.9217-0.16 5.5624-1.598 1.1505 1.778 2.0209 3.696 2.9913 5.554 0.3101 0.599-0.1 0.709-0.5002 0.859-1.5707 0.589-3.0213 0.179-4.432-0.52-0.3001-0.15-0.5802-0.319-0.8703-0.489-0.2601-0.15-0.4702-0.31-0.7003 0.08-0.2301 0.369-0.1601 0.569 0.2 0.789 1.9509 1.188 3.9818 1.918 6.2628 1.039 0.5102-0.2 0.8003-0.27 1.0504 0.329 1.1105 2.677 2.221 5.354 3.4015 8.011 0.3102 0.7-0.03 0.959-0.4802 1.309-3.3014 2.547-7.1031 4.095-11.025 5.384-4.1518 1.368-8.4137 2.287-12.736 2.947-0.7103 0.11-1.3105 0.239-1.4806-0.829-0.7503-4.755-1.3806-9.53-1.7708-14.335 0-0.109 0.03-0.229 0.05-0.419l-0.01-0.02z"/>
      <path d="m120.07 275.05c-9.865 0-19.719-0.02-29.583 0.03-1.0704 0-1.3606-0.23-1.1305-1.289 0.3502-1.618 0.6103-3.256 0.8504-4.905 0.1-0.679 0.3702-0.849 1.0304-0.839 3.5816 0.03 7.1532 0.02 10.735 0.02 15.937 0 31.874 0.01 47.801-0.02 1.02 0 1.36 0.21 1.29 1.269-0.1 1.528-0.09 3.077 0 4.605 0.05 0.949-0.24 1.159-1.16 1.149-8.694-0.04-17.388-0.02-26.082-0.02h-3.751z"/>
      <path d="m177.03 257.32v1.269c0 12.386-0.01 24.762 0.03 37.149 0 1.039-0.24 1.308-1.28 1.288-3.081-0.08-6.163-0.06-9.234 0-0.84 0.01-1.021-0.249-1.011-1.039 0.03-6.602-0.21-13.225 0.1-19.818 0.201-4.305 2.111-8.231 4.352-11.906 1.401-2.288 3.142-4.286 5.333-5.864 0.49-0.35 1.03-0.639 1.72-1.069l-0.01-0.01z"/>
      <path d="m163.79 249.37c0 8.451 0 16.702 0.01 24.962 0 0.66-0.281 0.73-0.821 0.72-3.371-0.02-6.733-0.01-10.104 0-0.49 0-0.811 0.02-0.861-0.68-0.63-7.951 1.631-14.973 6.753-21.066 1.341-1.589 2.932-2.897 5.013-3.936h0.01z"/>
      <path d="m48.581 193.75c-2.6011-1.349-4.2018-1.109-5.4424 0.749-1.6407 2.457-1.4506 4.734 0.6403 6.413 0.6303 0.509 0.6403 0.669-0.06 1.068-2.251 1.259-4.8922 1.119-6.793-0.399-0.3702-0.3-0.6503-0.6-0.6703-1.119-0.2501-5.404-0.3601-10.798 1.1205-16.082 0.1801-0.639 0.4302-1.259 0.7003-1.858 0.8004-1.748 1.9209-3.226 4.0318-3.226 2.241 0 4.1218 0.849 5.2523 2.956 1.3906 2.577 1.6107 5.384 1.5607 8.221-0.02 1.069 0.07 2.158-0.3402 3.277z"/>
    </g>
    <path d="m102.52 258.74c0 2.447-0.04 4.904 0.02 7.352 0.02 0.789-0.2 0.988-0.961 0.978-3.3711-0.04-6.7426-0.03-10.114 0-0.6803 0-0.9605-0.089-0.8204-0.879 0.8604-4.994 1.8108-9.959 2.9413-14.903 0.1901-0.809 0.5202-1.059 1.3306-1.039 2.0809 0.05 4.1618 0.02 6.2425-0.01 0.67-0.01 0.951 0.16 0.941 0.899-0.04 2.537-0.02 5.064-0.02 7.602h0.44z" fill="#A1C9FF"/>
    <path d="m151.58 259.05c0.31 0.58 0.591 1.179 0.941 1.728 0.28 0.43 0.26 0.799 0.1 1.279-0.46 1.328-0.851 2.677-1.251 4.025-0.25 0.849-1.741 1.489-2.241 0.829-0.98-1.288-2.461-1.398-4.112-2.097 1.191 0 2.021 0.03 2.852-0.01 0.66-0.03 1.32-0.13 1.971-0.26 0.55-0.11 1.03-0.409 1.14-1.009 0.12-0.629-0.33-0.979-0.79-1.288-1.011-0.67-2.211-0.879-3.322-1.449 0.791 0 1.571-0.01 2.361 0 1.261 0.03 2.211-0.339 2.381-1.768l-0.02 0.02h-0.01z" fill="#A1C9FF"/>
    <path d="m48.911 182.83c1.9108 1.548 3.3414 3.446 4.8521 5.534-1.3906 0.299-2.5911 0.749-3.8017 1.668-0.04-2.548-0.2801-4.905-1.0504-7.202z" fill="#CAE0FF"/>
    <path d="m168.02 265.57c-1.33 2.637-2.311 5.254-3.231 7.961v-7.442c0-0.479 0.27-0.519 0.64-0.519h2.601-0.01z" fill="#A1C9FF"/>
    <path d="m55.975 189.84c1.9409 1.278 3.5716 2.377 5.2123 3.456 0.6003 0.4 0.6403 0.749 0.08 1.249-1.7607 1.568-1.7507 1.578-2.9012-0.48-0.7304-1.288-1.4607-2.577-2.3911-4.215v-0.01z" fill="#CAE0FF"/>
    <path d="m52.613 189.72c-0.4802 1.388-0.4502 2.607 0.5002 3.676-1.5206 0.429-2.9212 0.11-3.2014-0.68-0.3201-0.909 0.8704-2.287 2.7012-2.996z" fill="#CAE0FF"/>
    <g fill="#041C42">
      <path d="m221.88 168.77h-55.084c-3.812 0-5.742-1.928-5.742-5.743v-13.845c0-3.286 2.08-5.364 5.372-5.364h111.17c3.301 0 5.362 2.068 5.372 5.364v14.214c0 3.286-2.081 5.364-5.372 5.364h-55.715v0.01z"/>
      <path d="m222 108.91h-55.214c-3.812 0-5.752-1.928-5.752-5.733v-13.845c0-3.2864 2.08-5.3641 5.372-5.3641h111.17c3.301 0 5.372 2.0677 5.372 5.3641v14.214c0 3.296-2.081 5.364-5.372 5.364h-55.585 0.01z"/>
      <path d="m222 198.71h-55.214c-3.812 0-5.752-1.928-5.752-5.734v-13.844c0-3.287 2.08-5.364 5.372-5.364h111.17c3.301 0 5.372 2.067 5.372 5.364v14.214c0 3.296-2.081 5.364-5.372 5.364h-55.585 0.01z"/>
      <path d="m222.13 203.7h55.084c3.812 0 5.753 1.927 5.753 5.733v13.845c0 3.296-2.081 5.364-5.372 5.364h-111.17c-3.302 0-5.372-2.068-5.372-5.364v-14.214c0-3.287 2.08-5.364 5.372-5.364h55.714-0.01z"/>
      <path d="m222.13 113.89h55.084c3.812 0 5.753 1.928 5.753 5.734v13.844c0 3.297-2.081 5.364-5.372 5.364h-111.17c-3.302 0-5.372-2.067-5.372-5.364v-14.214c0-3.286 2.08-5.364 5.372-5.364h55.714-0.01z"/>
      <path d="m221.99 250.6h-15.597c-2.541 0-4.352-1.639-4.372-3.936-0.03-2.358 1.801-4.036 4.402-4.036h31.204c2.541 0 4.352 1.639 4.372 3.936 0.03 2.357-1.801 4.036-4.402 4.036h-15.597-0.01z"/>
      <path d="m234.01 59.024c2.972 0 5.433 2.2575 5.433 5.0145 0 2.667-2.451 4.9445-5.353 4.9645-3.001 0.0199-5.452-2.1976-5.472-4.9545-0.02-2.787 2.381-5.0245 5.392-5.0245z"/>
      <path d="m194.02 63.969c0-1.3685 0.03-2.7369-0.01-4.1054-0.02-0.6193 0.1-0.899 0.8-0.8591 1.041 0.06 2.081-0.01 3.122 0.02 2.081 0.0699 3.631 1.5782 3.631 3.4961 0 1.9079-1.56 3.3963-3.651 3.4762-0.17 0-0.341 0.0299-0.501 0-0.95-0.1499-1.39 0.1798-1.22 1.1787 0.04 0.2397-0.03 0.4994 0.01 0.7491 0.14 0.8891-0.23 1.0988-1.091 1.0988-0.84 0-1.17-0.1598-1.11-1.0788 0.09-1.3185 0.02-2.657 0.02-3.9856v0.01z"/>
      <path d="m213.95 68.994c-2.972 0.0199-5.173-1.5883-5.723-3.8757-0.54-2.2076 0.53-4.4152 2.661-5.474 2.251-1.1287 5.193-0.6493 6.663 1.0688 0.33 0.3896 0.52 0.6293-0.18 0.8291-0.78 0.2198-1.41 0.5494-2.271-0.0799-1.28-0.929-3.171-0.4895-4.162 0.7092-0.88 1.0688-0.93 2.4973-0.1 3.5561 0.961 1.2486 2.691 1.5982 4.172 0.919 0.4-0.1898 0.68-0.7492 1.171-0.5794 0.57 0.1998 1.46 0.1598 1.61 0.7192 0.15 0.5294-0.63 0.879-1.09 1.2087-0.941 0.6792-2.011 0.9589-2.741 0.9889l-0.01 0.01z"/>
      <path d="m245.6 59.034c0.681-0.0799 1.321 0.03 1.871 0.2797 0.4 0.1898 1.331-0.01 1.031 0.949-0.24 0.7591-0.581 1.3884-1.551 0.7491-0.23-0.1498-0.55-0.1998-0.83-0.2297-0.791-0.0799-1.631 0.02-1.821 0.909-0.18 0.869 0.6 1.1887 1.29 1.3884 0.801 0.2298 1.601 0.3996 2.291 0.919 1.321 0.9889 1.501 2.4173 0.421 3.666-1.431 1.6581-4.652 1.798-6.243 0.3096-0.38-0.3596-0.45-0.6293-0.05-1.0189 0.33-0.3196 0.5-0.9289 1.15-0.4195 0.791 0.6193 1.691 0.8591 2.692 0.5594 0.47-0.1399 0.82-0.4096 0.87-0.939 0.04-0.4894-0.28-0.7791-0.68-0.9389-0.541-0.2198-1.091-0.3696-1.641-0.5594-1.651-0.5494-2.481-1.5283-2.351-2.7969 0.17-1.6382 1.321-2.697 3.091-2.8269 0.17-0.01 0.33 0 0.45 0h0.01z"/>
      <path d="m222.13 64.938c0-0.9989-0.06-1.9978 0.02-2.9867 0.06-0.7991-0.24-1.0289-0.99-0.939-0.37 0.05-0.751-0.0199-1.121 0.01-0.76 0.07-1.2 0-1.2-1.0088 0-0.9989 0.45-1.0189 1.2-1.0089 2.201 0.0399 4.412 0.0599 6.613-0.01 0.911-0.03 0.85 0.4195 0.88 1.0388 0.03 0.7092-0.09 1.0089-0.92 0.9989-2.341-0.02-2.341 0.03-2.341 2.3974 0 1.5782-0.07 3.1665 0.02 4.7347 0.06 0.9789-0.51 0.8291-1.08 0.8291-0.571 0-1.171 0.1398-1.101-0.8291 0.08-1.0788 0.02-2.1576 0.02-3.2364v0.01z"/>
      <path d="m203.74 63.979c0-1.4084 0.05-2.8169-0.02-4.2253-0.05-0.919 0.54-0.7492 1.04-0.7192 0.5 0.0299 1.2-0.3197 1.19 0.7292-0.04 2.8168-0.05 5.6337 0 8.4506 0.02 1.1188-0.72 0.7292-1.26 0.7891-0.59 0.07-1.02 0.04-0.98-0.7991 0.07-1.4084 0.02-2.8169 0.02-4.2253h0.01z"/>
    </g>
    <g fill="#fff">
      <path d="m222.07 144.83h55.194c3.212 0 4.702 1.498 4.702 4.744v13.845c0 2.717-1.63 4.365-4.322 4.365h-111.27c-2.702 0-4.322-1.638-4.322-4.365v-13.845c0-3.236 1.49-4.744 4.702-4.744h55.324-0.01z"/>
      <path d="m222 84.966h55.324c3.122 0 4.642 1.5283 4.642 4.6748v13.964c0 2.637-1.64 4.305-4.261 4.305h-111.4c-2.621 0-4.262-1.658-4.262-4.295v-14.344c0-2.6971 1.651-4.3053 4.382-4.3053h55.574z"/>
      <path d="m221.99 174.77h55.324c3.132 0 4.652 1.528 4.652 4.664v13.965c0 2.697-1.64 4.315-4.371 4.315h-111.15c-2.791 0-4.402-1.618-4.402-4.415v-14.214c0-2.697 1.641-4.315 4.372-4.315h55.574z"/>
      <path d="m221.99 204.7h55.324c3.132 0 4.652 1.528 4.652 4.665v13.845c0 2.807-1.6 4.435-4.371 4.435h-111.15c-2.791 0-4.392-1.618-4.402-4.415v-14.095c0-2.867 1.601-4.435 4.502-4.435h55.444z"/>
      <path d="m222.01 137.85h-55.324c-3.131 0-4.652-1.528-4.652-4.664v-13.845c0-2.817 1.601-4.435 4.372-4.435h111.15c2.791 0 4.391 1.618 4.401 4.415v14.214c0 2.697-1.64 4.315-4.371 4.315h-55.575z"/>
      <path d="m221.86 249.6h-15.347c-2.161 0-3.501-1.158-3.501-3.006 0-1.828 1.36-2.977 3.531-2.977h30.944c2.161 0 3.501 1.159 3.501 3.007 0 1.828-1.35 2.976-3.531 2.976h-15.597z"/>
    </g>
    <g fill="#041C42">
      <path d="m183.02 156.28c0 1.788 0.02 3.566 0 5.354-0.02 1.898-1.21 3.136-3.101 3.146-3.622 0.03-7.233 0.03-10.855 0-1.811-0.01-3.011-1.258-3.031-3.086-0.03-3.616-0.03-7.222 0-10.838 0.01-1.798 1.26-3.007 3.091-3.027 3.622-0.03 7.233-0.03 10.855 0 1.811 0.01 3.001 1.259 3.031 3.087 0.03 1.788 0 3.566 0 5.354l0.01 0.01z"/>
      <path d="m191.13 158.08h-1.481c-0.34 0-0.54-0.12-0.52-0.499 0.01-0.36 0.04-0.67 0.51-0.67h2.961c0.51 0 0.41 0.39 0.43 0.709 0.03 0.41-0.22 0.46-0.54 0.46h-1.36z"/>
      <path d="m211.7 158.08c-0.451 0-0.911-0.01-1.361 0-0.38 0.01-0.63-0.05-0.6-0.529 0.02-0.36 0.03-0.659 0.51-0.65 0.95 0.01 1.891 0 2.841 0 0.43 0 0.55 0.23 0.57 0.62 0.02 0.449-0.2 0.569-0.6 0.559-0.45-0.01-0.91 0-1.36 0z"/>
      <path d="m232.3 158.08h-1.481c-0.39 0-0.48-0.22-0.47-0.559 0.01-0.31 0.05-0.6 0.44-0.61 1.03-0.01 2.061-0.01 3.091 0 0.431 0 0.351 0.36 0.381 0.64 0.03 0.349-0.08 0.539-0.471 0.529-0.49-0.02-0.99 0-1.48 0h-0.01z"/>
      <path d="m252.94 158.08c-0.491 0-0.991-0.01-1.481 0-0.38 0.01-0.51-0.15-0.49-0.519 0.02-0.35 0.01-0.67 0.49-0.66h2.841c0.43 0 0.56 0.21 0.58 0.61 0.02 0.429-0.17 0.589-0.58 0.569-0.45-0.02-0.91 0-1.36 0z"/>
      <path d="m247.79 158.08h-1.36c-0.36 0-0.64-0.03-0.64-0.519 0-0.48 0.2-0.66 0.67-0.66 0.91 0.01 1.821 0.01 2.731 0 0.44 0 0.54 0.22 0.56 0.62 0.01 0.449-0.18 0.569-0.59 0.559-0.45-0.02-0.91 0-1.361 0h-0.01z"/>
      <path d="m263.22 158.08h-1.491c-0.38 0-0.49-0.19-0.47-0.55 0.02-0.309 0.03-0.599 0.43-0.609h3.102c0.41 0 0.39 0.33 0.41 0.629 0.03 0.37-0.13 0.53-0.49 0.52h-1.491v0.01z"/>
      <path d="m221.97 158.08c-0.46 0-0.91-0.01-1.36 0-0.411 0.01-0.581-0.14-0.581-0.579 0-0.43 0.18-0.6 0.591-0.59 0.91 0 1.82 0.01 2.731 0 0.49 0 0.63 0.21 0.63 0.679 0 0.51-0.31 0.49-0.65 0.5h-1.371l0.01-0.01z"/>
      <path d="m237.44 158.08h-1.491c-0.4 0-0.48-0.21-0.46-0.55 0.02-0.299 0-0.609 0.42-0.609 1.031 0 2.071-0.01 3.102 0 0.4 0 0.4 0.32 0.42 0.629 0.03 0.38-0.14 0.53-0.5 0.53h-1.491z"/>
      <path d="m206.53 158.08h-1.49c-0.38 0-0.49-0.2-0.47-0.549 0.01-0.32 0.06-0.6 0.45-0.61 1.03-0.01 2.071-0.01 3.101 0 0.42 0 0.37 0.35 0.39 0.629 0.03 0.37-0.12 0.53-0.49 0.52-0.5-0.01-0.99 0-1.491 0v0.01z"/>
      <path d="m196.17 158.08h-1.361c-0.33 0-0.56-0.07-0.54-0.479 0.02-0.34-0.02-0.69 0.47-0.69 0.991 0 1.981-0.01 2.981 0 0.461 0 0.481 0.33 0.491 0.69 0 0.409-0.23 0.479-0.551 0.479h-1.49z"/>
      <path d="m242.62 158.08c-0.45 0-0.91-0.02-1.36 0-0.421 0.02-0.601-0.13-0.571-0.569 0.02-0.31 0.03-0.59 0.441-0.6h2.971c0.4 0 0.43 0.28 0.45 0.59 0.03 0.419-0.14 0.589-0.56 0.569-0.45-0.02-0.911 0-1.361 0l-0.01 0.01z"/>
      <path d="m258.06 158.08c-0.46 0-0.911-0.02-1.371 0-0.43 0.02-0.57-0.17-0.57-0.589 0-0.42 0.18-0.6 0.6-0.6 0.911 0 1.821 0.01 2.732 0 0.45 0 0.54 0.23 0.55 0.62 0.01 0.439-0.17 0.579-0.58 0.559-0.451-0.02-0.911 0-1.371 0l0.01 0.01z"/>
      <path d="m268.27 158.08c-0.46 0-0.91-0.01-1.37 0-0.4 0.01-0.48-0.22-0.46-0.55 0.01-0.299 0-0.609 0.41-0.619h2.981c0.48 0 0.47 0.35 0.48 0.699 0 0.4-0.22 0.47-0.55 0.47h-1.491z"/>
      <path d="m201.37 158.08c-0.41 0-0.83-0.02-1.24 0-0.431 0.02-0.701-0.06-0.671-0.589 0.02-0.42 0.19-0.58 0.601-0.58 0.91 0.01 1.81 0.01 2.721 0 0.45 0 0.53 0.24 0.55 0.63 0.02 0.449-0.2 0.559-0.6 0.539-0.45-0.02-0.911 0-1.361 0z"/>
      <path d="m216.94 156.91h1.371c0.49 0 0.47 0.34 0.48 0.68 0.02 0.389-0.17 0.499-0.52 0.489-0.951-0.01-1.901-0.01-2.862 0-0.38 0-0.5-0.17-0.5-0.529 0-0.38 0.08-0.65 0.53-0.65h1.491l0.01 0.01z"/>
      <path d="m227.16 158.08c-0.5 0-0.99-0.01-1.49 0-0.411 0.01-0.471-0.23-0.451-0.549 0.01-0.3 0-0.61 0.421-0.61h2.981c0.48 0 0.46 0.36 0.47 0.699 0 0.41-0.23 0.47-0.56 0.46h-1.371z"/>
      <path d="m183.03 96.563c0 1.7481 0.02 3.486 0 5.234-0.02 1.888-1.23 3.107-3.131 3.117-3.572 0.02-7.153 0.02-10.725 0-1.891-0.01-3.111-1.229-3.121-3.117-0.02-3.5659-0.02-7.1419 0-10.708 0.01-1.888 1.23-3.1066 3.121-3.1166 3.572-0.02 7.153-0.02 10.725 0 1.891 0.01 3.101 1.2286 3.121 3.1166 0.03 1.8279 0 3.6559 0 5.4839l0.01-0.01z"/>
      <path d="m240.8 96.663c0.421 0.2797 1.481-0.5294 1.501 0.4695 0.02 1.0987-1.06 0.3795-1.631 0.5394-0.34 0.0998-0.73 0-1.1 0.0199-0.38 0.02-0.61-0.0499-0.61-0.5294 0-0.4894 0.28-0.5094 0.63-0.4994h1.21z"/>
      <path d="m244.94 97.682c-0.38-0.2796-1.36 0.5095-1.4-0.4495-0.04-1.0987 0.98-0.3995 1.51-0.5494 0.38-0.1098 0.831 0 1.241-0.0199 0.42-0.02 0.6 0.1398 0.58 0.5793-0.02 0.4196-0.27 0.4495-0.58 0.4395h-1.341-0.01z"/>
      <path d="m249.71 97.682c-0.41 0-0.83-0.01-1.24 0-0.38 0.0199-0.49-0.1499-0.49-0.5195s0.13-0.5194 0.5-0.5094c0.74 0.01 1.49 0.01 2.231 0 0.41 0 0.73 0.03 0.7 0.5794-0.03 0.5294-0.4 0.4195-0.71 0.4395-0.33 0.01-0.661 0-0.991 0v0.01z"/>
      <path d="m253.9 97.682c-0.37-0.2997-1.36 0.5394-1.37-0.4695-0.01-1.0489 0.99-0.3996 1.52-0.5294 0.43-0.1099 0.911-0.02 1.361-0.02 0.36 0 0.5 0.1698 0.5 0.5294 0 0.3996-0.21 0.4895-0.54 0.4795h-1.461l-0.01 0.01z"/>
      <path d="m258.57 97.682c-0.41-0.3396-1.541 0.5894-1.52-0.5494 0.02-0.9889 1.04-0.2897 1.59-0.4495 0.38-0.1099 0.821-0.02 1.231-0.02 0.34 0 0.53 0.1099 0.53 0.4995 0 0.3696-0.14 0.5294-0.5 0.5194h-1.331z"/>
      <path d="m263.22 97.682h-1.12c-0.38 0.01-0.621-0.0499-0.611-0.5394 0.01-0.5094 0.331-0.4894 0.661-0.4894h2.121c0.33 0 0.66-0.04 0.68 0.4695 0.03 0.5993-0.36 0.5394-0.73 0.5394h-1.001v0.0199z"/>
      <path d="m204.73 96.663c0.41 0.3097 1.47-0.5694 1.48 0.4695 0.02 1.1187-1.06 0.3696-1.621 0.5394-0.34 0.0999-0.73 0.01-1.1 0.02s-0.63-0.05-0.62-0.5195c0-0.4894 0.3-0.5094 0.65-0.4994h1.211v-0.01z"/>
      <path d="m200.25 96.673c0.4 0.2997 1.46-0.5793 1.45 0.5095 0 1.0089-1.02 0.3496-1.561 0.4894-0.39 0.0999-0.83 0-1.24 0.02-0.36 0-0.52-0.1398-0.52-0.5094 0-0.3796 0.16-0.5194 0.52-0.5095h1.351z"/>
      <path d="m195.44 97.682c-0.41-0.3097-1.48 0.5893-1.49-0.4995 0-1.0588 1.03-0.3396 1.581-0.4994 0.38-0.1099 0.83 0 1.24-0.02 0.37-0.01 0.51 0.1299 0.51 0.5094 0 0.3696-0.11 0.5294-0.49 0.5195-0.41-0.02-0.83 0-1.341 0l-0.01-0.01z"/>
      <path d="m267.73 97.682h-0.99c-0.37 0-0.751 0.0599-0.731-0.5394 0.02-0.5094 0.33-0.4795 0.661-0.4795h2.101c0.33 0 0.65-0.0299 0.67 0.4795 0.02 0.5893-0.36 0.5394-0.73 0.5394h-0.991 0.01z"/>
      <path d="m191.09 97.682h-1.241c-0.35 0-0.52-0.1299-0.52-0.5095s0.18-0.5094 0.52-0.5094h2.231c0.32 0 0.66-0.0799 0.68 0.4495 0.03 0.5594-0.28 0.5893-0.69 0.5694-0.33-0.01-0.66 0-0.99 0h0.01z"/>
      <path d="m236.13 96.593c0.501 0.4195 1.641-0.5195 1.621 0.6293-0.02 0.9889-1.06 0.4195-1.591 0.4095-0.54 0-1.64 0.6193-1.62-0.4994 0.02-1.0389 1.08-0.1599 1.59-0.5394z"/>
      <path d="m231.49 97.682c-0.4-0.3097-1.45 0.5794-1.46-0.4994 0-1.0089 1-0.3596 1.54-0.4995 0.391-0.0999 0.821 0 1.231-0.02 0.36-0.01 0.51 0.1299 0.51 0.4995 0 0.3596-0.12 0.5294-0.49 0.5194-0.41-0.02-0.82 0-1.331 0z"/>
      <path d="m226.91 97.682c-0.38-0.2697-1.36 0.4994-1.4-0.4495-0.04-1.0888 0.98-0.3996 1.51-0.5494 0.381-0.1099 0.821 0 1.241-0.02 0.43-0.02 0.58 0.1498 0.57 0.5793-0.01 0.4196-0.26 0.4496-0.57 0.4396h-1.341-0.01z"/>
      <path d="m222.83 96.673c0.39 0.2797 1.43-0.5494 1.4 0.5594-0.03 0.9689-0.97 0.2797-1.48 0.4395-0.381 0.1099-0.821 0-1.231 0.03-0.41 0.02-0.59-0.1199-0.57-0.5594 0.01-0.3995 0.22-0.4695 0.55-0.4595h1.331v-0.01z"/>
      <path d="m218.1 97.762c-0.51-0.3895-1.59 0.4995-1.6-0.5494 0-1.0987 1.09-0.4894 1.64-0.4994 0.531 0 1.581-0.5794 1.591 0.4195 0.01 1.1388-1.12 0.1998-1.631 0.6193v0.01z"/>
      <path d="m213.48 97.682c-0.41-0.3096-1.46 0.5894-1.49-0.4795-0.03-1.0188 1-0.3695 1.53-0.5194 0.311-0.0899 0.661-0.0299 0.991-0.01 0.34 0.02 0.76-0.1498 0.78 0.4795 0.02 0.5993-0.35 0.5394-0.73 0.5394h-1.091l0.01-0.01z"/>
      <path d="m209.27 96.673c0.401 0.2897 1.451-0.5594 1.441 0.5095-0.01 0.9989-1.02 0.3296-1.561 0.4794-0.34 0.0999-0.74 0-1.11 0.02-0.37 0.01-0.63-0.02-0.62-0.5094 0-0.4995 0.28-0.5095 0.64-0.5095h1.21v0.01z"/>
      <path d="m174.48 194.72c-1.75 0-3.491 0.01-5.242 0-1.971-0.02-3.181-1.209-3.191-3.177-0.02-3.526-0.02-7.052 0-10.588 0-1.968 1.21-3.177 3.181-3.187 3.532-0.02 7.063-0.02 10.605 0 1.97 0 3.181 1.209 3.191 3.177 0.02 3.526 0.02 7.052 0 10.588 0 1.968-1.211 3.167-3.181 3.187-1.791 0.019-3.572 0-5.363 0z"/>
      <path d="m191.08 188.01h-1.361c-0.38 0-0.63-0.08-0.61-0.54 0.02-0.379 0.11-0.639 0.55-0.629 0.95 0 1.891 0.01 2.841 0 0.47 0 0.5 0.27 0.52 0.639 0.03 0.46-0.19 0.56-0.59 0.54-0.45-0.02-0.91 0-1.36 0l0.01-0.01z"/>
      <path d="m211.64 188.01h-1.361c-0.32 0-0.57-0.04-0.54-0.46 0.02-0.319-0.08-0.709 0.43-0.709h2.961c0.47 0 0.5 0.31 0.51 0.67 0.01 0.379-0.18 0.509-0.52 0.499h-1.48z"/>
      <path d="m232.3 188.01h-1.481c-0.39 0-0.48-0.21-0.47-0.549 0.01-0.31 0.05-0.6 0.44-0.61 1.03-0.01 2.061-0.01 3.091 0 0.431 0 0.361 0.35 0.381 0.63 0.03 0.349-0.08 0.539-0.471 0.529-0.49-0.02-0.99 0-1.48 0h-0.01z"/>
      <path d="m252.94 188.01c-0.491 0-0.991-0.01-1.481 0-0.38 0.01-0.51-0.15-0.49-0.519 0.02-0.35 0.01-0.67 0.49-0.66h2.841c0.43 0 0.56 0.21 0.58 0.61 0.02 0.429-0.17 0.589-0.58 0.569-0.45-0.02-0.91 0-1.36 0z"/>
      <path d="m196.2 188.01c-0.45 0-0.911-0.02-1.361 0-0.42 0.02-0.57-0.15-0.57-0.58 0-0.419 0.16-0.599 0.58-0.599 0.911 0 1.821 0.01 2.731 0 0.481 0 0.641 0.21 0.641 0.679 0 0.5-0.321 0.5-0.661 0.5h-1.36z"/>
      <path d="m206.58 188.01h-1.49c-0.33 0-0.541-0.11-0.531-0.499 0.01-0.37 0.06-0.67 0.521-0.67h2.851c0.42 0 0.57 0.18 0.58 0.6 0 0.429-0.14 0.599-0.57 0.579-0.45-0.02-0.91 0-1.361 0v-0.01z"/>
      <path d="m263.24 188.01h-1.37c-0.36 0-0.641-0.04-0.621-0.529 0.02-0.39 0.1-0.64 0.541-0.64h2.851c0.44 0 0.54 0.23 0.56 0.63 0.02 0.469-0.22 0.559-0.6 0.549-0.45-0.01-0.911 0-1.361 0v-0.01z"/>
      <path d="m221.96 188.01h-1.361c-0.3 0-0.58-0.03-0.57-0.449 0.01-0.34-0.02-0.7 0.46-0.7 0.991-0.01 1.981 0 2.982 0 0.46 0 0.49 0.31 0.5 0.67 0.01 0.399-0.19 0.499-0.53 0.489h-1.491l0.01-0.01z"/>
      <path d="m247.71 188.01h-1.36c-0.32 0-0.57-0.06-0.56-0.469 0-0.36 0.02-0.69 0.49-0.7 0.99-0.01 1.981 0 2.981 0 0.48 0 0.46 0.34 0.48 0.69 0.02 0.399-0.2 0.489-0.53 0.479h-1.491-0.01z"/>
      <path d="m237.42 188.01c-0.45 0-0.91-0.02-1.361 0-0.42 0.02-0.58-0.15-0.57-0.58 0-0.419 0.15-0.609 0.57-0.599 0.911 0 1.821 0.01 2.732 0 0.48 0 0.64 0.21 0.65 0.679 0 0.5-0.31 0.5-0.65 0.5h-1.361-0.01z"/>
      <path d="m242.57 188.01h-1.361c-0.34 0-0.54-0.09-0.52-0.489 0.01-0.35 0-0.68 0.49-0.68h2.842c0.46 0 0.51 0.27 0.53 0.64 0.02 0.479-0.24 0.539-0.61 0.529-0.451-0.02-0.911 0-1.361 0h-0.01z"/>
      <path d="m227.18 188.01c-0.46 0-0.91-0.01-1.37 0-0.39 0.02-0.621-0.08-0.601-0.539 0.02-0.37 0.071-0.65 0.531-0.64 0.91 0.01 1.821 0.01 2.731 0 0.51 0 0.62 0.26 0.62 0.7 0 0.509-0.33 0.479-0.67 0.479h-1.241z"/>
      <path d="m258.14 186.84c0.41 0 0.83 0.02 1.24 0 0.501-0.03 0.621 0.21 0.631 0.67 0 0.499-0.27 0.519-0.631 0.509h-2.611c-0.36 0-0.65-0.02-0.65-0.509 0-0.47 0.16-0.69 0.64-0.67 0.451 0.02 0.911 0 1.371 0h0.01z"/>
      <path d="m216.86 188.01c-0.46 0-0.91-0.02-1.371 0-0.42 0.02-0.6-0.15-0.58-0.579 0.02-0.32 0.06-0.59 0.46-0.59h2.982c0.42 0 0.41 0.3 0.44 0.6 0.03 0.429-0.14 0.589-0.57 0.569-0.451-0.02-0.911 0-1.371 0h0.01z"/>
      <path d="m268.3 188.01c-0.41 0-0.83-0.01-1.24 0-0.37 0.01-0.63-0.03-0.62-0.52 0-0.469 0.15-0.679 0.64-0.669 0.87 0.02 1.741 0.02 2.611 0 0.49 0 0.63 0.22 0.64 0.679 0 0.5-0.3 0.5-0.65 0.5h-1.371l-0.01 0.01z"/>
      <path d="m201.28 188.01c-0.45 0-0.91-0.01-1.361 0-0.4 0.01-0.47-0.22-0.46-0.55 0.01-0.299 0.01-0.599 0.42-0.609h2.972c0.49 0 0.44 0.37 0.46 0.699 0.02 0.41-0.23 0.46-0.55 0.46h-1.481z"/>
      <path d="m166.03 216.11c0-1.748-0.01-3.486 0-5.234 0.02-1.968 1.21-3.176 3.181-3.186 3.532-0.02 7.063-0.02 10.605 0 1.97 0 3.181 1.208 3.191 3.176 0.02 3.526 0.02 7.052 0 10.589 0 1.967-1.211 3.176-3.181 3.186-3.532 0.02-7.063 0.02-10.605 0-1.971 0-3.171-1.209-3.191-3.176-0.02-1.788 0-3.567 0-5.355z"/>
      <path d="m191.22 216.78c0.41 0 0.82 0.01 1.23 0 0.42-0.02 0.58 0.16 0.58 0.579 0 0.39-0.08 0.609-0.53 0.6-0.95-0.02-1.891-0.01-2.841 0-0.34 0-0.55-0.1-0.54-0.49 0.01-0.35 0.02-0.679 0.49-0.679h1.611v-0.01z"/>
      <path d="m211.66 217.95c-0.491 0-0.991-9e-3 -1.481 0-0.42 0.01-0.45-0.239-0.44-0.559 0.01-0.3-0.01-0.599 0.41-0.609h2.961c0.46 0 0.52 0.279 0.53 0.649 0.02 0.48-0.27 0.529-0.63 0.519h-1.36 0.01z"/>
      <path d="m232.31 217.95h-1.361c-0.38 0-0.64-0.07-0.61-0.54 0.02-0.379 0.11-0.639 0.55-0.639 0.95 0 1.891 0.01 2.841 0 0.47 0 0.51 0.27 0.53 0.639 0.02 0.45-0.18 0.56-0.59 0.55-0.45-0.02-0.91 0-1.36 0v-0.01z"/>
      <path d="m252.77 217.95c-0.451 0-0.911-0.01-1.361 0-0.41 0.01-0.46-0.23-0.45-0.55 0.01-0.289-0.02-0.609 0.41-0.609 1.03 0 2.061-0.01 3.091 0 0.401 0 0.401 0.33 0.411 0.629 0.02 0.36-0.131 0.53-0.501 0.53h-1.61 0.01z"/>
      <path d="m263.16 217.95h-1.36c-0.31 0-0.561-0.06-0.551-0.47 0.01-0.349 0-0.689 0.481-0.689h2.981c0.47 0 0.47 0.33 0.49 0.689 0.01 0.41-0.22 0.48-0.54 0.48h-1.491l-0.01-0.01z"/>
      <path d="m247.71 217.95h-1.36c-0.32 0-0.57-0.06-0.56-0.47 0-0.36 0.02-0.689 0.49-0.699 0.99-0.01 1.981 0 2.981 0 0.48 0 0.46 0.339 0.48 0.689 0.02 0.4-0.2 0.49-0.53 0.48h-1.491-0.01z"/>
      <path d="m237.44 217.95h-1.491c-0.4 0-0.47-0.219-0.46-0.549 0.01-0.3 0-0.599 0.42-0.609 0.991 0 1.981 0 2.982-0.01 0.45 0 0.52 0.269 0.54 0.649 0.02 0.49-0.28 0.519-0.63 0.519h-1.361z"/>
      <path d="m222.02 217.95h-1.36c-0.361 0-0.651-0.03-0.621-0.53 0.02-0.379 0.09-0.649 0.541-0.639h2.851c0.43 0 0.55 0.22 0.56 0.619 0.01 0.46-0.21 0.56-0.6 0.55-0.45-0.01-0.911 0-1.361 0h-0.01z"/>
      <path d="m206.6 217.95h-1.49c-0.321 0-0.561-0.069-0.551-0.479 0-0.36 0.04-0.679 0.501-0.689h2.981c0.49 0 0.45 0.349 0.47 0.689 0.02 0.41-0.21 0.479-0.54 0.469h-1.361l-0.01 0.01z"/>
      <path d="m196.28 217.95h-1.491c-0.34 0-0.54-0.1-0.52-0.5 0.02-0.349 0.01-0.679 0.49-0.679h2.982c0.47 0 0.47 0.36 0.47 0.709 0 0.42-0.26 0.45-0.57 0.45h-1.361v0.02z"/>
      <path d="m268.36 217.95h-1.371c-0.32 0-0.58-0.039-0.55-0.459 0.02-0.33-0.06-0.709 0.44-0.709h2.981c0.4 0 0.43 0.289 0.45 0.599 0.03 0.44-0.18 0.579-0.59 0.559-0.45-0.019-0.91 0-1.37 0l0.01 0.01z"/>
      <path d="m257.98 217.95c-0.46 0-0.911-0.01-1.371 0-0.39 0.01-0.48-0.21-0.47-0.55 0-0.309 0.03-0.609 0.43-0.619 0.991-0.01 1.991-0.01 2.982 0 0.5 0 0.44 0.37 0.46 0.699 0.02 0.41-0.21 0.48-0.54 0.47h-1.491z"/>
      <path d="m201.38 217.95c-0.45 0-0.91-0.02-1.36 0-0.431 0.02-0.571-0.17-0.561-0.579 0-0.42 0.16-0.6 0.581-0.59 0.91 0.01 1.81 0.01 2.721 0 0.44 0 0.55 0.22 0.56 0.619 0.01 0.44-0.17 0.58-0.58 0.56-0.45-0.02-0.911 0-1.361 0v-0.01z"/>
      <path d="m242.58 217.95h-1.36c-0.341 0-0.551-0.079-0.531-0.479 0.01-0.34 0-0.679 0.481-0.689h2.841c0.45 0 0.52 0.259 0.54 0.639 0.02 0.46-0.22 0.549-0.6 0.529-0.45-0.019-0.911 0-1.361 0h-0.01z"/>
      <path d="m216.82 217.95h-1.371c-0.35 0-0.54-0.099-0.53-0.489 0-0.36 0.03-0.679 0.5-0.679h2.861c0.471 0 0.501 0.289 0.521 0.649 0.03 0.48-0.23 0.539-0.611 0.529-0.45-0.02-0.91 0-1.37 0v-0.01z"/>
      <path d="m227.13 217.95c-0.41 0-0.83-0.02-1.24 0-0.43 0.02-0.711-0.06-0.681-0.59 0.021-0.419 0.171-0.599 0.591-0.589 0.91 0.01 1.821 0 2.731 0 0.44 0 0.55 0.23 0.56 0.629 0.01 0.45-0.2 0.57-0.6 0.56-0.45-0.02-0.91 0-1.371 0l0.01-0.01z"/>
      <path d="m174.41 134.85c-1.751 0-3.491 0.02-5.242 0-1.891-0.019-3.111-1.228-3.121-3.126-0.02-3.566-0.02-7.142 0-10.708 0.01-1.888 1.23-3.107 3.131-3.117 3.572-0.02 7.153-0.02 10.725 0 1.89 0.01 3.111 1.229 3.121 3.127 0.02 3.566 0.02 7.142 0 10.708-0.01 1.888-1.231 3.097-3.131 3.116-1.831 0.03-3.662 0-5.493 0h0.01z"/>
      <path d="m252.96 128.15h-1.481c-0.36 0-0.53-0.11-0.51-0.5 0.02-0.339-0.02-0.679 0.47-0.679h2.961c0.471 0 0.461 0.36 0.471 0.699 0 0.4-0.241 0.47-0.561 0.46h-1.36l0.01 0.02z"/>
      <path d="m232.45 126.98c0.41 0 0.82 0.01 1.23 0 0.42-0.02 0.58 0.159 0.58 0.579 0 0.389-0.08 0.609-0.53 0.599-0.95-0.02-1.891-0.01-2.841 0-0.34 0-0.55-0.1-0.54-0.489 0.01-0.35 0.02-0.679 0.49-0.679h1.611v-0.01z"/>
      <path d="m211.66 128.15c-0.491 0-0.991-0.01-1.481 0-0.42 0.01-0.45-0.25-0.44-0.559 0-0.3-0.01-0.6 0.42-0.61h2.961c0.46 0 0.51 0.29 0.53 0.65 0.02 0.479-0.27 0.529-0.63 0.519h-1.36z"/>
      <path d="m191.1 128.15h-1.361c-0.37 0-0.65-0.05-0.62-0.529 0.02-0.37 0.08-0.65 0.54-0.65 0.95 0 1.891 0.01 2.841 0 0.46 0 0.521 0.24 0.541 0.62 0.02 0.439-0.161 0.579-0.571 0.559-0.45-0.02-0.91 0-1.36 0h-0.01z"/>
      <path d="m263.18 128.15h-1.36c-0.3 0-0.581-0.03-0.571-0.449 0.01-0.34-0.02-0.699 0.461-0.699 0.99-0.01 1.99 0 2.981 0 0.46 0 0.49 0.309 0.5 0.669 0.01 0.399-0.19 0.499-0.53 0.489h-1.491l0.01-0.01z"/>
      <path d="m196.2 128.15c-0.45 0-0.911-0.02-1.361 0-0.43 0.02-0.57-0.16-0.57-0.579 0-0.42 0.16-0.6 0.58-0.6 0.911 0 1.821 0.01 2.731 0 0.491 0 0.641 0.21 0.641 0.679 0 0.5-0.321 0.5-0.661 0.5h-1.36z"/>
      <path d="m247.64 128.15h-1.36c-0.37 0-0.5-0.19-0.48-0.549 0.01-0.31 0.05-0.61 0.44-0.61 1.03-0.01 2.071-0.01 3.101 0 0.42 0 0.38 0.34 0.4 0.63 0.03 0.359-0.1 0.539-0.48 0.529-0.54-0.01-1.07 0-1.611 0h-0.01z"/>
      <path d="m206.5 128.15h-1.36c-0.31 0-0.57-0.04-0.57-0.459 0-0.35 0-0.699 0.47-0.709 0.99-0.01 1.981 0 2.981 0 0.48 0 0.47 0.319 0.49 0.679 0.02 0.389-0.18 0.499-0.52 0.489h-1.491z"/>
      <path d="m221.89 128.15h-1.241c-0.36 0-0.64-0.04-0.62-0.529 0.02-0.39 0.1-0.64 0.54-0.64h2.852c0.44 0 0.54 0.23 0.56 0.63 0.02 0.469-0.22 0.549-0.61 0.539-0.501-0.01-0.991 0-1.491 0h0.01z"/>
      <path d="m237.45 128.15c-0.45 0-0.911-0.01-1.361 0-0.39 0.01-0.63-0.07-0.6-0.539 0.02-0.38 0.08-0.64 0.54-0.64h2.851c0.441 0 0.541 0.24 0.561 0.63 0.02 0.479-0.24 0.549-0.621 0.539h-1.36l-0.01 0.01z"/>
      <path d="m227.06 128.15c-0.41 0-0.83-0.01-1.24 0-0.39 0.02-0.611-0.06-0.611-0.53 0-0.479 0.171-0.669 0.651-0.649 0.87 0.02 1.741 0.02 2.611 0 0.5 0 0.62 0.25 0.62 0.699 0 0.51-0.32 0.49-0.67 0.49h-1.371l0.01-0.01z"/>
      <path d="m242.58 128.14h-1.36c-0.341 0-0.551-0.08-0.531-0.48 0.01-0.339 0-0.679 0.481-0.689h2.841c0.45 0 0.52 0.26 0.54 0.64 0.02 0.459-0.22 0.549-0.6 0.529-0.45-0.02-0.911 0-1.361 0h-0.01z"/>
      <path d="m216.8 128.15c-0.46 0-0.911-0.01-1.371 0-0.36 0.01-0.53-0.13-0.52-0.51 0-0.369 0.05-0.669 0.51-0.669h2.861c0.481 0 0.491 0.31 0.501 0.66 0.01 0.369-0.13 0.529-0.501 0.509-0.5-0.02-0.99 0-1.49 0l0.01 0.01z"/>
      <path d="m201.34 128.14c-0.45 0-0.91-0.01-1.36 0-0.361 0.01-0.531-0.11-0.511-0.5 0.01-0.349 0.03-0.669 0.501-0.669h2.841c0.47 0 0.5 0.29 0.52 0.65 0.03 0.489-0.26 0.519-0.62 0.509-0.45-0.01-0.911 0-1.361 0l-0.01 0.01z"/>
      <path d="m258.14 126.97c0.41 0 0.83 0.02 1.24 0 0.501-0.03 0.621 0.21 0.631 0.67 0 0.499-0.27 0.519-0.631 0.509h-2.611c-0.36 0-0.65-0.02-0.65-0.509 0-0.47 0.16-0.69 0.64-0.67 0.451 0.02 0.911 0 1.371 0h0.01z"/>
      <path d="m268.34 128.15h-1.37c-0.34 0-0.56-0.07-0.53-0.48 0.02-0.329-0.03-0.689 0.46-0.699h2.861c0.44 0 0.54 0.25 0.55 0.64 0.01 0.459-0.22 0.559-0.61 0.539-0.45-0.02-0.91 0-1.371 0h0.01z"/>
    </g>
    <path d="m182.03 156.32c0 1.748 0.02 3.486 0 5.234-0.02 1.468-0.771 2.227-2.231 2.237-3.492 0.02-6.983 0.02-10.475 0-1.521 0-2.271-0.769-2.281-2.317-0.01-3.446-0.01-6.892 0-10.339 0-1.538 0.76-2.297 2.291-2.307 3.452-0.02 6.903-0.01 10.355 0 1.6 0 2.331 0.759 2.341 2.377 0.01 1.698 0 3.407 0 5.105v0.01z" fill="#F6C254"/>
    <path d="m167.03 96.313c0-1.6981-0.02-3.4062 0-5.1043 0.02-1.4684 0.77-2.2375 2.221-2.2475 3.492-0.02 6.983-0.02 10.475 0 1.53 0 2.281 0.7691 2.281 2.3074 0.01 3.4462 0.01 6.8924 0 10.338 0 1.549-0.751 2.298-2.281 2.308-3.492 0.02-6.983 0.02-10.475 0-1.451 0-2.201-0.779-2.221-2.248-0.02-1.7878 0-3.5658 0-5.3539z" fill="#F6C254"/>
    <path d="m174.66 178.75c1.701 0 3.412-0.02 5.113 0 1.47 0.02 2.241 0.759 2.251 2.208 0.02 3.526 0.02 7.062 0 10.588 0 1.388-0.781 2.148-2.181 2.158-3.532 0.02-7.073 0.02-10.605 0-1.411 0-2.181-0.76-2.191-2.148-0.02-3.576-0.03-7.142 0-10.718 0-1.319 0.79-2.068 2.111-2.088 1.831-0.03 3.662 0 5.492 0h0.01z" fill="#fff"/>
    <path d="m174.59 223.65c-1.75 0-3.491 0.01-5.242 0-1.551-0.01-2.301-0.749-2.301-2.287-0.01-3.446-0.01-6.892 0-10.339 0-1.608 0.75-2.327 2.381-2.337 3.412 0 6.823-0.01 10.235 0 1.62 0 2.361 0.739 2.371 2.347 0.01 3.407 0.01 6.813 0 10.219 0 1.678-0.741 2.387-2.441 2.397h-4.993-0.01z" fill="#fff"/>
    <path d="m182.03 126.5c0 1.698 0.02 3.406 0 5.104-0.02 1.469-0.771 2.238-2.221 2.248-3.492 0.02-6.983 0.02-10.475 0-1.531 0-2.281-0.769-2.281-2.308-0.01-3.446-0.01-6.892 0-10.338 0-1.549 0.75-2.308 2.281-2.308 3.492-0.02 6.983-0.02 10.475 0 1.46 0 2.201 0.779 2.221 2.248 0.02 1.788 0 3.566 0 5.354z" fill="#F6C254"/>
    <g fill="#041C42">
      <path d="m171.78 154.54c0.54 0.699 0.87 1.119 1.191 1.558 0.55 0.759 0.99 0.879 1.68 0.05 0.921-1.109 2.041-2.068 3.032-3.127 0.45-0.479 0.73-0.579 1.26-0.029 1.491 1.538 1.521 1.498 0 3.026-1.52 1.528-3.041 3.057-4.522 4.625-0.45 0.48-0.73 0.499-1.18 0.02-0.961-1.029-1.941-2.048-2.982-3.007-0.58-0.539-0.54-0.879 0.02-1.378 0.481-0.43 0.851-0.979 1.491-1.728l0.01-0.01z"/>
      <path d="m180.58 94.426c-0.4 0.4495-0.55 0.6293-0.72 0.8091-1.801 1.8279-3.632 3.6459-5.403 5.5034-0.51 0.54-0.8 0.48-1.27-0.02-0.961-1.0284-1.961-2.0273-2.972-3.0062-0.44-0.4295-0.59-0.7691-0.03-1.1887 0.131-0.0999 0.241-0.2297 0.351-0.3496 1.21-1.2086 1.26-1.2586 2.391 0.03 0.69 0.7791 1.08 0.8491 1.78 0 0.891-1.0888 1.991-1.9978 2.942-3.0366 0.52-0.5694 0.84-0.5994 1.36 0 0.42 0.4894 1.021 0.829 1.571 1.2586z"/>
      <path d="m180.38 184.42c-0.18 0.21-0.32 0.41-0.49 0.579-1.831 1.858-3.682 3.696-5.483 5.594-0.47 0.5-0.73 0.46-1.16 0-0.961-1.029-1.941-2.038-2.982-2.996-0.57-0.53-0.61-0.909 0.02-1.359 0.131-0.1 0.261-0.22 0.351-0.35 0.76-1.138 1.51-0.988 2.221 0.04 0.65 0.929 1.2 0.959 1.93 0.01 0.601-0.789 1.381-1.428 2.071-2.137 1.001-1.012 1.995-0.993 2.982 0.06 0.17 0.179 0.33 0.349 0.54 0.569v-0.01z"/>
      <path d="m169.62 216.76c0.631-0.599 1.211-1.239 1.881-1.768 0.5-0.4 0.7 0.23 0.961 0.469 1.38 1.309 1.37 1.319 2.701-0.02 0.85-0.849 1.71-1.688 2.531-2.567 0.45-0.479 0.71-0.599 1.25-0.03 1.481 1.558 1.511 1.519 0.03 3.017-1.52 1.528-3.031 3.056-4.522 4.615-0.41 0.429-0.67 0.619-1.16 0.09-1.011-1.089-2.091-2.128-3.142-3.187-0.14-0.14-0.26-0.309-0.52-0.619h-0.01z"/>
      <path d="m180.51 124.44c-0.34 0.38-0.5 0.57-0.67 0.739-1.801 1.828-3.632 3.636-5.403 5.504-0.53 0.56-0.82 0.43-1.27-0.05-0.931-0.999-1.891-1.987-2.892-2.916-0.56-0.52-0.64-0.909 0-1.369 0.13-0.1 0.231-0.23 0.351-0.35 1.29-1.228 0.94-1.338 2.211 0.06 0.79 0.879 1.23 0.839 1.96-0.04 0.901-1.078 1.981-2.007 2.942-3.036 0.46-0.49 0.74-0.46 1.18 0.03 0.46 0.509 1.031 0.929 1.581 1.408l0.01 0.02z"/>
    </g>
    <g fill="#fff">
      <path d="m178.97 154.52c-0.19 0.23-0.34 0.43-0.51 0.599-1.361 1.389-2.751 2.747-4.092 4.156-0.41 0.429-0.67 0.479-1.07 0.02-0.601-0.679-1.261-1.319-1.891-1.968-0.2-0.21-0.43-0.37-0.11-0.689 0.29-0.28 0.52-0.4 0.8-0.03l0.09 0.09c0.601 0.489 1.071 1.568 1.711 1.448 0.68-0.13 1.211-1.049 1.791-1.638 0.76-0.769 1.5-1.548 2.251-2.308 0.17-0.169 0.34-0.409 0.61-0.149 0.14 0.139 0.27 0.289 0.42 0.469z"/>
      <path d="m179.06 94.505c-0.25 0.3297-0.39 0.5394-0.56 0.7092-1.39 1.4185-2.811 2.8069-4.182 4.2453-0.38 0.3996-0.62 0.4096-0.98 0-0.61-0.6692-1.251-1.3185-1.901-1.9678-0.24-0.2497-0.45-0.4195-0.09-0.7791 0.35-0.3496 0.56-0.1998 0.8 0.0799 0.03 0.03 0.06 0.0599 0.09 0.0899 1.141 1.0255 2.251 0.9856 3.332-0.1199 0.78-0.7991 1.551-1.6082 2.331-2.4073 0.16-0.1698 0.31-0.4096 0.61-0.2198 0.18 0.1099 0.35 0.2298 0.54 0.3596l0.01 0.01z"/>
      <path d="m178.98 184.45c-0.21 0.25-0.39 0.489-0.59 0.689-1.341 1.359-2.691 2.687-4.012 4.066-0.39 0.409-0.66 0.519-1.07 0.04-0.6-0.68-1.241-1.329-1.901-1.958-0.29-0.28-0.37-0.46-0.03-0.779 0.3-0.28 0.49-0.21 0.71 0.04l0.09 0.09c0.591 0.499 1.081 1.578 1.711 1.458 0.68-0.13 1.211-1.049 1.791-1.638 0.76-0.769 1.501-1.549 2.251-2.318 0.16-0.17 0.34-0.409 0.61-0.16 0.15 0.13 0.27 0.29 0.43 0.47h0.01z"/>
      <path d="m171.88 216.02c0.451 0.539 0.901 1.029 1.301 1.558 0.45 0.599 0.8 0.609 1.33 0.02 1.051-1.169 2.181-2.268 3.282-3.386 0.24-0.25 0.44-0.63 0.89-0.19 0.44 0.429 0.08 0.659-0.16 0.899-1.42 1.448-2.861 2.867-4.272 4.335-0.37 0.39-0.59 0.28-0.89-0.04-0.65-0.689-1.321-1.368-1.981-2.058-0.16-0.159-0.42-0.319-0.12-0.589 0.15-0.13 0.29-0.26 0.62-0.559v0.01z"/>
      <path d="m173.83 129.8c-0.19-0.16-0.35-0.269-0.49-0.419-0.64-0.649-1.261-1.309-1.901-1.958-0.25-0.25-0.43-0.43-0.08-0.779 0.36-0.36 0.54-0.15 0.8 0.09 0.581 0.519 1.111 1.608 1.701 1.478 0.72-0.16 1.271-1.089 1.881-1.708 0.73-0.729 1.451-1.478 2.161-2.228 0.27-0.289 0.49-0.369 0.81-0.04 0.29 0.3 0.18 0.49-0.05 0.72-1.48 1.498-2.961 3.006-4.452 4.505-0.11 0.11-0.24 0.199-0.38 0.329v0.01z"/>
    </g>
  </g>
  <defs>
    <clipPath id="clip0_707_5173">
      <rect width="320" height="298" fill="#fff"/>
    </clipPath>
  </defs>
</svg>
