<?xml version="1.0" encoding="UTF-8"?>
<svg fill="none" version="1.1" viewBox="0 0 320 298" xmlns="http://www.w3.org/2000/svg">
  <g clip-path="url(#clip0_707_5350)">
    <rect width="320" height="298" fill="#F6C254"/>
    <path d="m0 297v-297.01c105.62 0 214.37 0.0058594 320 0.0058594v296 1c-12.647 0.01-26.911 0.52-39.558 0.5-1.64 0-2.031-0.459-2.041-2.257-0.01-8.56 0-17.12 0-25.67v-15.951c0-2.128 0.361-2.487 2.452-2.487 4.082-0.01 8.164-0.15 12.226 0.03 5.143 0.23 9.636-3.286 10.366-8.58 0.25-0.759 0.31-1.528 0.31-2.327-0.01-7.342-0.01-14.683 0-22.014 0-0.75-0.06-1.489-0.28-2.208-0.55-5.184-4.733-8.879-10.256-8.849-16.689 0.089-33.388 0.03-50.077 0.03-4.913 0-8.595 2.986-9.615 7.75-0.1 0.46-0.11 0.909-0.11 1.359 0 8.6-0.02 17.21 0 25.809 0 4.665 4.272 8.95 8.955 8.99 4.872 0.04 9.745 0 14.608 0.01 2.051 0 2.401 0.359 2.411 2.397v41.521c0 2.108-0.36 2.457-2.481 2.457h-62.945c-2.191 0-2.501-0.319-2.511-2.547v-24.811c0-2.247 0.31-2.547 2.631-2.557 4.083 0 8.165-0.169 12.237 0.04 4.643 0.24 9.585-3.066 10.206-8.599 0.23-0.76 0.29-1.539 0.29-2.338-0.01-7.341 0-14.682 0-22.024 0-0.669-0.02-1.328-0.2-1.967-0.38-3.756-2.141-6.583-5.613-8.251-1.301-0.619-2.692-0.849-4.123-0.849-4.662 0-9.325-0.03-13.987 0.02-1.441 0.02-2.401-0.429-3.172-1.698-1.821-3.006-4.682-4.764-7.854-6.093-0.38-0.159-0.791-0.249-1.161-0.449-0.08-0.03-0.16-0.06-0.24-0.07-2.051-0.2-3.202-1.328-4.162-3.186-4.142-8.051-8.325-16.081-12.517-24.112-0.23-0.439-0.44-0.889-0.65-1.348-2.492-4.675-4.963-9.369-7.324-14.104-0.13-0.259-0.29-0.499-0.461-0.729-3.081-5.993-6.293-11.906-9.285-17.939-0.3-0.599-0.49-1.238-0.5-1.917-0.12-6.193 0.52-12.266 2.501-18.179 2.002-5.983 5.794-10.148 11.847-12.246 5.673-1.957 11.476-3.466 17.319-4.794 10.436-2.377 20.952-4.325 31.527-5.913 7.364-1.109 14.738-2.187 22.173-2.667 1.61-0.1 2.811-0.819 3.862-1.997 3.121-3.496 5.593-7.4517 7.864-11.517 3.782-6.802 7.214-13.774 9.855-21.115 0.591-1.638 1.131-3.3061 1.411-5.034 0.06-0.3696 0.07-0.7491 0.01-1.1187-0.13-0.8091-0.57-0.9889-1.191-0.4595-0.61 0.5294-0.94 1.2585-1.3 1.9577-0.301 0.5893-0.551 1.2086-0.921 1.7679-0.16 0.2398-0.37 0.4895-0.71 0.3596-0.34-0.1198-0.34-0.4395-0.33-0.7391 0-0.4595 0.14-0.899 0.23-1.3484 0.59-2.8467 1.36-5.6633 1.26-8.6099-0.02-0.6392 0.321-1.5981-0.66-1.7779-1.011-0.1798-1.101 0.8091-1.391 1.4583-0.24 0.5294-0.38 1.0987-0.66 1.6181-0.15 0.2597-0.34 0.5194-0.68 0.4095-0.271-0.0899-0.301-0.3795-0.321-0.6293-0.06-0.789 0.02-1.5781-0.06-2.3672-0.05-0.5393-0.1-1.1886-0.68-1.3584-0.71-0.1997-0.971 0.4695-1.271 0.9589-0.49 0.7791-0.71 1.678-1.09 2.517-0.15 0.3396-0.35 0.7492-0.811 0.6193-0.39-0.0999-0.34-0.5294-0.35-0.859-0.03-0.6592 0.03-1.3384-0.19-1.9776-0.1-0.3097-0.16-0.6792-0.55-0.7691-0.401-0.0899-0.591 0.2297-0.791 0.4894-0.49 0.6292-0.82 1.3484-1.11 2.0875-1.151 2.9865-2.122 6.0329-3.082 9.0893-0.19 0.6193-0.23 1.3384-0.931 1.678-0.56-0.1997-0.52-0.6892-0.51-1.1286 0-0.5394-0.08-1.0588-0.23-1.5682-0.14-0.6093-0.25-1.2186-0.4-1.8278-0.09-0.3796-0.24-0.7492-0.651-0.8291-0.49-0.0998-0.76 0.2697-0.97 0.6293-0.7 1.2086-0.951 2.567-1.181 3.9154-0.59 3.4859-1.15 6.9718-2.281 10.338-0.68 2.0176-1.201 2.4571-3.302 2.557-5.483 0.2797-10.946 0.7691-16.419 1.1986-4.932 0.3895-9.855 0.819-14.788 1.2585-8.284 0.7391-16.559 1.5981-24.823 2.4971-9.055 0.9788-18.09 2.1374-27.095 3.5258-5.593 0.859-11.166 1.8578-16.669 3.1963-1.761 0.4294-2.121 0.1198-2.681-1.6281-1.651-5.114-1.881-10.438-2.552-15.712-0.85-6.6921-2.081-13.314-4.892-19.517-0.931-2.0576-2.102-3.9654-3.762-5.5435-0.611-0.5793-1.271-1.0787-2.002-1.4783-1.941-1.0587-3.742-0.8989-5.453 0.4895-2.231 1.8178-3.471 4.3149-4.642 6.8519-0.14 0.2996-0.28 0.6093-0.37 0.9289-0.44 1.6181-1.2109 2.5969-3.172 2.3173-1.2907-0.1898-2.4913 1.2385-2.7115 2.9065-0.2301 1.688 0.0901 3.2562 1.4408 4.4248 0.7905 0.6892 0.9806 1.4783 0.7504 2.4571-1.0906 4.8243-1.941 9.6986-2.5614 14.613-0.11 0.889-0.5402 1.5482-1.3407 1.9677-0.9605 0.4994-1.891 1.0488-2.8415 1.5682-1.1407 0.6292-2.0812 0.4594-3.0817-0.3396-3.8321-3.0764-7.6241-6.1828-11.406-9.3191-6.1433-5.104-12.117-10.408-17.85-15.971-4.7026-4.5646-8.7748-9.6586-12.407-15.112-2.7215-4.0818-4.5925-8.5399-5.6131-13.374-0.9605-4.5147-2.1312-8.9794-3.0316-13.504-0.2102-1.0588-0.5003-2.1075-1.0906-3.0364-0.1901-0.2997-0.4103-0.5494-0.7905-0.4994-0.3802 0.0399-0.5403 0.3196-0.6703 0.6492-0.3302 0.839-0.2302 1.718-0.3002 2.587-0.06 0.7391 0.02 1.8378-0.7304 1.9477-0.8905 0.1398-0.9205-0.9889-1.1406-1.6681-1.0706-3.3161-1.9311-6.7121-3.5019-9.8584-0.3202-0.6392-0.5603-1.678-1.3908-1.5581-0.9305 0.1398-0.6203 1.1986-0.7204 1.8977-0.03 0.2497-0.03 0.4994-0.11 0.7392-0.0801 0.2297-0.1501 0.5094-0.4503 0.5393-0.2801 0.03-0.4502-0.1898-0.5803-0.3995-0.4602-0.6992-0.6203-1.5482-1.0806-2.2474-0.3301-0.4994-0.5703-1.2785-1.3307-1.1186-0.7904 0.1698-0.6403 0.9588-0.6904 1.5581-0.03 0.3696 0 0.7491-0.03 1.1187-0.04 0.4894 0.04 1.1686-0.5003 1.2985-0.5803 0.1298-0.7304-0.5494-0.9305-0.9889-0.2101-0.4494-0.3502-0.9289-0.6003-1.3683-0.2501-0.4395-0.4802-0.9389-1.1106-0.7791-0.5803 0.1498-0.7104 0.6692-0.7704 1.1686-0.1401 1.2585 0.1501 2.4871 0.3202 3.7156 0.2501 1.8079 0.6503 3.5958 1.0405 5.3837 0.0401 0.1997 0.1001 0.3995 0.1301 0.6093 0.0901 0.5293 0.2802 1.2585-0.2902 1.4582-0.6103 0.2098-0.8504-0.5293-1.0805-0.9988-0.4403-0.8889-0.8605-1.8078-1.4508-2.6069-0.2402-0.3296-0.5603-0.6992-1.0306-0.5094-0.4102 0.1598-0.4002 0.5993-0.4102 0.9689-0.05 1.7978 0.3302 3.5558 0.5403 5.3237 0.8104 6.762 1.5908 13.524 1.7209 20.346 0.03 1.9477 0.2802 3.8954 0.1801 5.8431-0.09 0.899-0.05 1.8079-0.02 2.7069-0.1201 1.9477 0.6804 3.5857 1.5809 5.2737 5.523 10.288 12.557 19.477 20.301 28.167 5.2528 5.893 10.826 11.506 15.749 17.699 3.9821 5.004 7.474 10.288 9.6352 16.361 1.7009 4.774 2.6314 9.678 2.7615 14.752 0.1101 4.395 0.3702 8.79 0.6704 13.175 0.13 1.988 0.2101 3.985 0.2601 5.973 0.1501 6.143 0.7104 12.265 0.8404 18.408 0.0301 1.279 0.1701 2.557 0.2502 3.846 0.2501 5.793 0.5603 11.586 0.8104 17.389 0.1501 3.346 0.3002 6.702 0.4903 10.048 0.2401 4.096 0.2801 8.201 0.6604 12.286 0.16 1.728 0.17 3.476 0.2301 5.214 0.09 2.777 0.4002 5.543 0.3502 8.33-0.02 1.318 0.2901 2.627 0.2301 3.965-0.08 1.728-0.4302 2.178-2.1612 2.128-2.7015-0.08-5.0627 0.709-7.1038 2.467-0.8405 0.719-1.3708 1.658-2.0211 2.517-0.6504 1.199-0.9406 2.497-1.1207 3.835-0.1801 0.65-0.2001 1.309-0.2001 1.978v22.044c0 0.799 0.0601 1.568 0.2902 2.337 0.4903 4.525 3.2518 7.621 7.7142 8.65 0.4602 0.11 0.9105 0.11 1.3607 0.11h13.487c2.1411 0 2.5013 0.35 2.5113 2.437 0 3.746 0.01 7.481 0 11.227 0 1.898-0.3902 2.287-2.2612 2.287h-81.424c-0.63035 0-1.871-0.429-1.871-0.429z" fill="#A1C9FF"/>
    <g fill="#041C42">
      <path d="m180.7 214.96c4.223 1.409 7.804 3.676 10.016 7.681 0.34 0.609 0.79 0.49 1.26 0.49 5.113 0 10.226-0.03 15.339 0.01 5.072 0.04 9.355 4.145 9.685 9.219 0.1 7.061 0.02 14.123 0.04 21.185 0 1.868 0.07 3.735-0.05 5.603-0.48 5.024-4.753 8.95-9.815 8.97-4.703 0.02-9.416 0.03-14.118-0.02-0.891 0-1.101 0.249-1.101 1.108 0.03 8.9 0.03 17.799 0 26.689 0 0.899 0.26 1.089 1.121 1.089 21.572-0.02 43.133-0.02 64.705 0 0.911 0 1.081-0.28 1.081-1.119-0.03-14.383-0.03-28.776 0-43.159 0-0.919-0.3-1.079-1.131-1.069-4.873 0.04-9.745-0.09-14.618 0.05-5.583 0.16-10.366-4.605-10.285-10.198 0.12-8.23 0.02-16.461 0.03-24.701 0-5.793 4.292-10.118 10.065-10.128 17.029-0.01 34.059-0.01 51.088 0 5.213 0 9.555 4.075 9.915 9.219 0.1 7.062 0.02 14.123 0.04 21.185 0 1.868 0.07 3.736-0.05 5.604-0.58 5.154-4.822 8.969-10.015 8.979-4.613 0.01-9.235 0.03-13.848-0.02-0.94-0.01-1.16 0.24-1.16 1.169 0.03 14.333 0.03 28.656 0 42.989 0 1.029 0.33 1.199 1.26 1.199 12.727-0.03 26.621 0.019 39.348 0.019 0 0 0-0.01 0.5 0v1h-320v-1c27.295 0 56.271-0.049 83.565-0.029 1.1307 0 1.4508-0.27 1.4308-1.419-0.07-4.115-0.06-8.23 0-12.335 0.01-0.919-0.2101-1.189-1.1606-1.179-4.7426 0.05-9.4852 0.03-14.228 0.02-5.0828-0.01-9.3852-4.175-9.6553-9.219-0.1101-6.732-0.03-13.454-0.04-20.186 0-2.198-0.0701-4.405 0.05-6.602 0.04-1.239 0.4302-2.388 1.0006-3.476 0.5302-0.16 0.7904 0.15 0.9805 0.569-0.02 1.279-0.5603 2.477-0.5903 3.756-0.1801 0.649-0.2001 1.308-0.2001 1.967v21.355c0 0.749 0.05 1.488 0.2601 2.208 0.3602 4.634 3.632 7.351 7.0238 7.98 0.6604 0.12 1.3207 0.11 1.9911 0.11h49.927c5.343 0 9.035-3.486 9.105-8.81 0.11-8.18 0.11-16.37 0-24.551-0.07-5.064-3.832-8.51-9.135-8.54-9.655-0.05-19.31 0-28.955-0.02-0.8205 0-1.6709 0.14-2.4513-0.269-0.5403-0.759 0.14-1.039 0.5502-1.429 0.6704-0.299 1.3808-0.239 2.0912-0.239h12.467c0.48 0 1 0.12 1.52-0.23-0.37-0.789-1.04-1.269-1.691-1.758-1.861-1.378-4.0017-2.177-6.1829-2.877-0.5903-0.189-1.2307-0.269-1.6609-0.789-0.1901-0.759 0.2902-1.058 0.8805-1.288 4.1323 0.839 7.9043 2.357 10.525 5.853 0.601 0.799 1.231 1.099 2.192 1.099 3.582-0.03 7.163-0.02 10.745 0 6.624 0.02 11.116 4.504 11.126 11.147 0.01 7.9 0.02 15.801 0 23.692-0.01 6.462-4.552 10.997-11.005 11.007h-13.368c-1.551 0-1.601 0.05-1.601 1.628-0.01 3.615-0.01 7.231 0 10.847 0 1.468 0.07 1.528 1.581 1.528h62.824c1.551 0 1.591-0.05 1.601-1.638v-24.691c0-1.608-0.05-1.648-1.721-1.648-4.492-0.01-8.995 0-13.487 0-5.193-0.02-8.975-2.857-10.456-7.811-0.25-0.849-0.32-1.708-0.32-2.587v-24.82c0-3.986 1.741-7.052 5.093-9.15 0.95-0.599 1.191-1.118 0.76-2.197-5.112-12.915-11.126-25.35-19.01-36.827-4.613-6.712-9.745-12.974-16.159-18.068-2.741-2.178-5.633-4.156-9.115-5.015-1.801-0.439-2.351-0.229-3.222 1.439-1.36 2.597-2.151 5.403-2.821 8.24-1.781 7.581-2.8116 15.272-3.582 23.013-0.6904 6.902-1.2807 13.814-1.2207 20.756 0 0.419-0.03 0.829-0.1 1.238-0.4102 2.347-0.3102 4.685-0.0601 7.032 0.1201 1.498 0.4003 2.996-0.08 4.475-0.6003 0.499-1.0406 0.159-1.4608-0.29-0.3602-0.919-0.2201-1.868-0.2101-2.817 0.1301-1.238 0.1901-2.477-0.1601-3.705-0.1201-0.67-0.1201-1.339 0-2.008 0.3702-1.329 0.3102-2.667 0.1301-4.015-0.2702-2.447 0.01-4.895 0.13-7.332 0.1901-4.065 0.5003-8.12 0.9205-12.175 0.9406-9.1 2.0412-18.179 4.4024-27.049 0.4598-1.727 1.0308-3.425 1.7208-5.074 1.651-3.925 3.292-4.634 7.344-3.236 3.402 1.169 6.334 3.157 9.085 5.394 5.883 4.784 10.776 10.488 15.138 16.66 6.564 9.279 11.867 19.248 16.399 29.635 0.501 1.139 1.171 1.519 2.372 1.509 6.033-0.04 12.076-0.02 18.109-0.02 0.701 0 1.421-0.06 2.102 0.219 0.43 0.36 1.05 0.64 0.64 1.389-0.64 0.409-1.361 0.309-2.061 0.309h-18.22c-1.351 0-1.361 0-0.851 1.269 0.621 1.538 1.241 3.086 1.851 4.624 0.321 0.8 0.821 1.139 1.701 1.139 10.856 0 21.722 0 32.578-0.01 0.32 0 0.74 0.12 0.91-0.23 0.161-0.339-0.19-0.609-0.39-0.859-1.791-2.247-4.192-3.615-6.783-4.724-0.571-0.24-1.201-0.37-1.641-0.859-0.21-0.849 0.74-0.619 0.98-1.049h-0.05z"/>
      <path d="m236.38 71.436c1.28-4.4148 2.421-8.8696 4.612-12.955 0.3-0.5593 0.62-1.1287 1.401-0.9589 0.7 0.1499 0.7 0.7292 0.88 1.3185 0.281 0.9189 0.05 1.8079 0.17 2.8367 0.601-1.3784 0.921-2.7668 1.771-3.9354 0.361-0.4994 0.751-0.7591 1.321-0.7192 0.65 0.05 0.831 0.5394 1.001 1.0987 0.37 1.2286 0.06 2.4572 0.17 3.7756 0.38-1.0088 0.75-1.9377 1.09-2.8866 0.301-0.839 0.881-1.1586 1.741-0.9988 0.861 0.1598 0.911 0.7791 0.931 1.4982 0.13 3.7756-0.781 7.3913-1.661 11.017-0.03 0.0999 0 0.2198 0 0.6892 0.64-1.3084 1.07-2.3472 1.641-3.3061 0.53-0.8889 1.04-2.2473 2.311-1.8079 1.341 0.4695 0.79 1.8978 0.57 2.8567-1.41 6.1627-4.082 11.846-6.823 17.489-2.902 5.9729-6.024 11.826-9.986 17.19-1.22 1.658-2.521 3.226-4.122 4.545-0.6 0.499-1.381 0.459-2.001 0.479-2.932 0.09-5.833 0.53-8.735 0.829-3.302 0.33-6.603 0.779-9.885 1.269-4.513 0.679-9.015 1.438-13.518 2.197-7.073 1.189-14.107 2.567-21.101 4.145-5.753 1.299-11.446 2.827-17.079 4.575-6.974 2.167-11.076 6.872-13.027 13.714-0.941 3.296-1.541 6.632-1.771 10.048-0.06 0.859-0.12 1.748-0.26 2.567-0.661 3.925 1.05 7.132 2.791 10.388 2.281 4.275 4.492 8.59 6.734 12.895 0.08 0.139 0.16 0.279 0.24 0.429 0.16 0.47 0.05 0.809-0.46 0.969-0.911-0.1-1.151-0.879-1.481-1.528-2.692-5.304-5.533-10.518-8.175-15.842-0.57-1.148-1.3-1.788-2.571-2.057-5.373-1.129-10.636-2.747-16.019-3.856-1.791-0.369-3.542-0.939-5.313-1.378-0.41-0.1-0.8-0.25-1.05-0.619-0.11-0.5 0.16-0.779 0.55-1.009 0.67-0.26 1.311-0.03 1.961 0.12 6.334 1.448 12.607 3.126 18.93 4.594 0.361 0.09 0.731 0.19 1.091 0.26 1.171 0.24 1.311 0.16 1.291-1.079-0.03-1.788 0.11-3.576 0.28-5.353 0.45-4.655 1.231-9.23 3.132-13.554 2.101-4.785 5.402-8.291 10.355-10.218 5.453-2.128 11.096-3.566 16.769-4.895 14.038-3.286 28.236-5.713 42.513-7.651 4.253-0.579 8.505-1.078 12.787-1.378 0.991-0.07 1.301-0.42 1.161-1.388-0.971-6.7025-1.931-13.415-2.872-20.127-0.12-0.849-0.44-1.1786-1.38-1.1187-6.564 0.3796-13.107 0.9589-19.661 1.4683-6.143 0.4794-12.267 1.0488-18.4 1.6181-6.343 0.5893-12.677 1.2386-19 1.9577-10.926 1.2485-21.822 2.6169-32.658 4.4947-3.772 0.6493-7.524 1.4383-11.246 2.3572-1.811 0.4495-2.171 0.2198-2.652-1.5981-0.48-1.8079-0.98-3.6157-1.44-5.4236-0.311-1.2286-0.491-1.3384-1.641-0.9189-3.212 1.1686-6.564 1.4882-9.946 1.5781-5.122 0.1299-10.235-0.0199-15.308-0.9289-0.7304-0.1298-1.3908 0-2.0511 0.3296-1.0006 0.5094-1.9911 1.0488-2.9517 1.6281-1.2406 0.7491-2.3012 0.6093-3.4218-0.3096-3.8921-3.1963-7.8343-6.3326-11.696-9.5588-5.523-4.6145-10.956-9.339-16.169-14.303-6.2634-5.973-11.606-12.695-16.249-19.996-1.6009-2.507-1.2407-2.3372-3.7921-0.8689-5.9932 3.4359-11.996 6.8519-17.98 10.318-1.6909 0.9789-1.6509 0.9589-0.7604 2.6369 4.6625 8.8396 10.496 16.87 16.959 24.461 3.2417 3.7955 6.6436 7.4512 10.015 11.127 5.3029 5.8032 10.636 11.586 14.718 18.368 3.4119 5.673 5.6931 11.726 6.5636 18.299 0.2401 1.787 0.2901 1.847 2.0811 2.277 10.936 2.617 21.832 5.364 32.758 8.01 0.661 0.16 1.451 0.15 1.781 0.959 0 0.51-0.29 0.809-0.74 0.979-1.311 0.08-2.562-0.269-3.792-0.599-7.8444-2.078-15.749-3.866-23.613-5.843-2.2112-0.56-4.4424-1.079-6.6636-1.608-1.1507-0.27-1.3207-0.18-1.2907 1.048 0.06 2.657 0.1901 5.304 0.4002 7.951 0.1601 2.028 0.1901 4.065 0.2701 6.093 0.1701 4.475 0.4203 8.949 0.6204 13.424 0.1801 3.935 0.3001 7.871 0.6203 11.806 0.03 0.42 0.05 0.829-0.08 1.239-0.2702 0.539-0.5603 1.049-1.3007 0.939-0.2702-3.796-0.3802-7.601-0.5804-11.397-0.1901-3.626-0.3401-7.261-0.5202-10.887-0.1601-3.426-0.3302-6.852-0.4803-10.278-0.1901-4.335-0.3302-8.67-0.7604-12.985-0.4302-4.295-1.5709-8.45-3.2918-12.435-2.5114-5.823-6.1133-10.927-10.176-15.762-2.5014-2.976-5.1028-5.8526-7.7342-8.7093-7.8743-8.5898-15.679-17.24-21.952-27.138-2.0411-3.2262-3.9021-6.5523-5.7931-9.8584-0.6904-1.2086-0.8205-2.4471-0.6904-3.7755 0.2001-0.9989 0.1501-1.9877 0.03-2.9865 0.0601-2.6968-0.2601-5.3737-0.3502-8.0605-0.13-3.8255-0.4902-7.641-0.9105-11.447-0.3401-3.1363-0.7904-6.2726-1.0805-9.4189-0.0801-0.8989-0.2302-1.7879-0.2202-2.7068 0-0.6192 0.0701-1.2485 0.6604-1.4882 0.6604-0.2697 1.2207 0.2197 1.5608 0.7191 0.5503 0.8091 0.9606 1.708 1.4308 2.567 0.2502 0.4595 0.3302 1.0088 0.9005 1.4583-0.4102-1.9877-0.8304-3.8555-1.1706-5.7233-0.3102-1.688-0.6404-3.386-0.6304-5.1139 0-0.8291 0.1401-1.728 1.1306-1.9677 1.0206-0.2497 1.4708 0.4794 1.801 1.2785 0.3102 0.7391 0.5803 1.4882 1.0606 2.1974v-2.6769c0-0.809 0.2301-1.5282 1.0506-1.7579 0.7804-0.21975 1.1306 0.45949 1.5408 0.98879 0.7504 0.9589 0.9105 2.1775 1.6709 3.2063 0-0.6193 0.02-1.2486 0-1.8678-0.03-0.8091 0.1801-1.5882 0.9906-1.7979 0.8304-0.21976 1.2106 0.5893 1.5308 1.1686 1.3707 2.4471 2.2012 5.114 3.0216 7.7808 0.4903 1.5882 1.0006 3.1763 1.5409 4.8743 0.5803-1.6081 0.2001-3.1663 0.6203-4.6445 0.1801-0.6193 0.4703-1.1187 1.0706-1.2086 0.6103-0.0899 1.0105 0.3196 1.3407 0.869 1.2507 2.1175 1.3608 4.5446 1.9211 6.8419 0.9505 3.8555 1.8009 7.7309 2.6814 11.596 0.3802 1.638 0.7704 3.2861 1.0906 4.9341 0.2401 1.2186 1.0506 2.0876 1.6809 3.0764 2.6214 4.1052 5.3829 8.1005 8.4746 11.856 3.7221 4.5146 7.9644 8.5499 12.287 12.485 7.5241 6.8619 15.398 13.304 23.333 19.677 0.7304 0.5893 1.3307 0.8989 2.1612 0.2297 0.3201-0.2597 0.7003-0.4794 1.0906-0.5993 2.5313-0.7591 3.1917-2.567 3.4218-5.0341 0.4002-4.2949 1.3107-8.5199 2.3213-12.715 0.1701-0.6892 0.06-1.0787-0.5703-1.5282-2.1312-1.5382-2.4714-5.2438-0.7905-7.2614 0.9105-1.0887 2.0712-1.3984 3.3218-0.9989 0.7304 0.2298 0.8305-0.0299 1.0206-0.5493 0.9907-2.6569 2.1007-5.2738 3.8617-7.5311 0.961-1.2286 2.021-2.4372 3.572-2.9566 2.502-0.849 4.493 0.2398 6.244 1.8878 3.231 3.0464 4.762 7.0317 6.033 11.137 1.331 4.275 2.171 8.6498 2.731 13.095 0.411 3.2561 0.721 6.5123 1.031 9.7785 0.22 2.3172 1.091 4.5646 1.671 6.8519 0.51 1.9976 0.5 1.9577 2.501 1.4783 5.333-1.2785 10.726-2.2374 16.139-3.0864 4.412-0.6892 8.815-1.3784 13.247-1.9577 3.982-0.5194 7.995-0.859 11.987-1.3085 3.382-0.3795 6.753-0.839 10.135-1.2085 2.862-0.3097 5.733-0.5294 8.605-0.8091 3.062-0.2996 6.123-0.6492 9.195-0.9289 2.421-0.2197 4.853-0.3496 7.274-0.5493 2.461-0.2098 4.913-0.4395 7.364-0.6992 1.191-0.1199 2.381-0.1099 3.582-0.2397 2.871-0.2997 5.773-0.3197 8.645-0.5794 1.32-0.1198 2.631-0.2696 3.962-0.2297 1.36 0.05 1.871-0.859 2.211-1.9677 1.081-3.4958 1.761-7.0716 2.311-10.677 0.22-1.4183 0.55-2.8267 1.261-4.0952 0.27-0.4894 0.63-1.0387 1.331-0.9588 0.74 0.0799 0.99 0.7191 1.16 1.2984 0.18 0.6193 0.21 1.2885 0.3 1.9278 0.16 0.7691 0.02 1.5481 0.08 2.3172 0.01 0.1898-0.11 0.5494 0.331 0.4096l-0.01-0.01z"/>
      <path d="m69.538 178.01c0.3302-0.25 0.6604-0.5 0.9905-0.749 0.3702 0.279 0.4303 0.699 0.4703 1.108 0.2701 3.097 0.3402 6.213 0.5003 9.319 0.2401 4.805 0.4302 9.609 0.7304 14.413 0.12 1.948 0.1901 3.896 0.2501 5.844 0.1401 4.394 0.4702 8.779 0.6003 13.184 0.05 1.698 0.1801 3.396 0.2201 5.094 0.0301 1.169 0.4003 1.588 1.5809 1.648 2.6614 0.12 5.3029 0.36 7.9543 0.52 3.3618 0.199 6.7237 0.389 10.076 0.689 0.9405 0.08 1.3407-0.44 1.871-0.919 0.4503-0.35 0.7004 0.1 1.0406 0.239 0.3802 0.47 0.5903 1.049 0.9405 1.539-0.2501 0.319-0.5003 0.639-0.7404 0.959-1.2107 0.499-2.4614 0.259-3.692 0.169-3.2718-0.249-6.5536-0.429-9.8254-0.669-2.5714-0.19-5.1428-0.27-7.7041-0.579-1.4008-0.22-1.5609 0-1.2607 1.858 0.1701 1.198 0.3201 2.397 0.2401 3.595-0.07 1.029 0.4002 1.389 1.4008 1.389 4.1222-0.02 8.2344-0.02 12.357 0 0.6903 0 1.4308-0.12 1.9911 0.479-0.2502 0.34-0.5003 0.669-0.7504 1.009-0.5503 0.609-1.3008 0.469-1.9811 0.469-5.3629 0.02-10.716 0.04-16.079 0-3.2517-0.03-5.9332 1.009-7.8442 3.736-0.2602 0.37-0.5603 0.729-1.0706 0.789-0.2802-0.18-0.5603-0.359-0.8405-0.539 1.9211-3.636 4.9627-5.444 9.055-5.494 2.2912-0.03 2.3212-0.01 2.2312-2.307-0.1601-3.925-0.3102-7.851-0.5503-11.766-0.1901-3.176-0.3102-6.353-0.4903-9.519-0.2101-3.706-0.3302-7.421-0.5103-11.127-0.1601-3.296-0.2901-6.602-0.4902-9.898-0.2202-3.586-0.3402-7.172-0.5203-10.758-0.0601-1.238-0.2502-2.467-0.1501-3.705v-0.02z"/>
      <path d="m180.7 214.96c-0.06 0.669-0.55 0.739-1.07 0.769-0.03 0.02-0.07 0.07-0.1 0.07-2.191-0.03-4.383 0-6.554-0.36-0.12-0.02-0.19-0.149-0.28-0.239-0.25-0.34-0.5-0.68-0.75-1.019 0.88-0.709 1.921-0.35 2.881-0.38 0.871-0.03 1.161-0.199 0.691-1.068-2.642-4.855-5.083-9.809-7.675-14.683-1.691-3.196-3.311-6.423-4.992-9.619-0.23-0.439-0.451-0.899-0.31-1.428 0.19-0.39 0.46-0.649 0.94-0.51 1.671 3.207 3.332 6.413 5.003 9.619 3.031 5.843 6.073 11.676 9.095 17.519 0.25 0.48 0.51 0.73 1.11 0.78 0.681 0.05 1.341 0.349 2.011 0.539v0.01z"/>
      <path d="m163.48 186.5c-0.29 0.18-0.58 0.37-0.871 0.55-0.58-0.11-0.74-0.62-0.97-1.049-2.141-3.935-4.192-7.911-6.203-11.906-0.241-0.47-0.581-0.939-0.311-1.518 0.431-0.14 0.601-0.46 0.631-0.879 1.991 3.805 3.972 7.621 5.963 11.426 0.59 1.129 1.171 2.248 1.761 3.376z"/>
      <path d="m303.94 242.68v-26.789c0.23 0.42 0.17 0.889 0.17 1.339v23.862c0 0.529 0.08 1.078-0.17 1.588z"/>
      <path d="m217 259.14v-26.789c0.23 0.42 0.17 0.889 0.17 1.339v23.862c0 0.529 0.08 1.079-0.17 1.588z"/>
      <path d="m59.952 246.08v26.788c-0.24-0.419-0.1699-0.889-0.1699-1.338v-23.982c0-0.49-0.0701-0.999 0.1699-1.468z"/>
      <path d="m236.38 71.436c-0.16 0.4195-0.37 0.4894-0.4-0.02-0.05-0.8989-0.01-1.8079-0.01-2.7068 0.44 0.869-0.09 1.8778 0.41 2.7268z"/>
      <path d="m17.6 51.789c0.28 0.9988 0.33 1.9976-0.03 2.9864 0-0.9988 0.02-1.9976 0.03-2.9864z"/>
    </g>
    <path d="m96.752 229.94c-1.1906 0.03-0.9205-0.849-0.9405-1.538-0.02-1.498-0.03-2.986-0.05-4.485-0.2301-2.407-0.1401-4.814-0.05-7.231 0.03-1.249 0.11-2.497 0.08-3.736-0.08-3.855 0.2601-7.691 0.5703-11.516 0.6003-7.551 1.4308-15.092 2.7615-22.554 0.8605-4.824 1.8212-9.648 3.6522-14.233 1.341-3.366 2.401-3.915 5.713-2.657 3.722 1.419 6.884 3.696 9.825 6.313 12.197 10.847 20.181 24.631 27.205 39.074 2.431 5.004 4.543 10.148 6.614 15.302 0.3 0.739 0.22 1.079-0.551 1.478-3.692 1.898-5.623 4.954-5.643 9.119-0.03 8.191 0.1 16.381-0.04 24.571-0.1 5.724 4.743 10.478 10.306 10.318 4.862-0.149 9.745-0.01 14.618-0.05 0.84 0 1.13 0.17 1.13 1.079-0.04 8.9-0.03 17.789 0 26.689 0 0.849-0.19 1.118-1.08 1.118-21.572-0.03-43.134-0.03-64.705 0-0.851 0-1.131-0.189-1.121-1.088 0.05-4.245 0.05-8.48 0-12.725 0-0.869 0.21-1.119 1.101-1.109 4.792 0.05 9.575-0.05 14.367 0.04 5.263 0.1 9.616-3.506 10.446-8.63 0.09-0.569 0.09-1.159 0.09-1.738v-24.321c0-5.933-4.402-10.308-10.335-10.318-3.833 0-7.665-0.02-11.497 0.01-0.94 0-1.46-0.2-2.011-1.129-1.491-2.537-4.112-3.725-6.703-4.824-1.2011-0.509-2.4918-0.829-3.7325-1.229h-0.02z" fill="#A1C9FF"/>
    <path d="m155.12 172.58c2.332 4.904 4.903 9.689 7.484 14.473 1.751 3.426 3.482 6.852 5.243 10.268 2.011 3.895 4.043 7.781 6.064 11.676 0.87 1.668 1.761 3.326 2.751 5.194h-4.712c-6.914 0-13.818-0.06-20.732 0-1.16 0.01-1.641-0.379-2.061-1.388-3.342-7.821-7.214-15.382-11.696-22.624-3.932-6.342-8.255-12.385-13.417-17.829-3.853-4.055-7.975-7.701-12.918-10.357-1.56-0.839-3.231-1.349-4.962-1.688-1.371-0.27-2.412 0.259-3.172 1.408-1.551 2.377-2.271 5.074-3.0316 7.761-1.0906 3.865-1.8009 7.811-2.4413 11.756-0.4402 2.727-0.8705 5.463-1.0806 8.23-0.2001 2.677-0.6603 5.334-0.9705 8.011-0.1301 1.098-0.1601 2.217-0.2101 3.316-0.1801 3.666-0.6704 7.311-0.5703 10.987 0.03 0.939-0.1701 1.878-0.2302 2.817-0.01 0.179 0.1501 0.369 0.2302 0.549-0.2702 1.418 0.13 2.877-0.2101 4.295v1.988c0.3101 1.268-0.0101 2.567 0.17 3.845 0.0301 0.969 0.0601 1.928 0.0901 2.897-0.07 1.588-0.1501 1.768-1.5809 1.428-1.6309-0.38-3.2817-0.22-4.9226-0.4-3.2418-0.359-6.5236-0.319-9.7653-0.599-1.3208-0.12-2.6315-0.17-3.9522-0.22-1.1206-0.04-1.821-0.519-1.7309-1.768 0.1901-2.736-0.1701-5.453-0.2902-8.18-0.1601-3.666-0.2902-7.341-0.5003-11.007-0.1701-2.966-0.3101-5.923-0.4402-8.89-0.1701-3.915-0.4703-7.83-0.5503-11.756-0.07-3.166-0.3202-6.332-0.5003-9.498-0.3402-4.106-0.2501-8.231-0.6904-12.326-0.2001-1.878-0.1801-3.795-0.2101-5.683-0.06-2.897-0.2901-5.773-0.3802-8.67-0.11-3.496-0.2501-7.012-0.5002-10.498-0.1301-1.818-0.1201-3.605-0.2002-5.503 6.6336 1.648 13.127 3.386 19.671 4.854 5.443 1.229 10.786 2.867 16.279 3.886 0.57-0.21 1.141-0.17 1.711-0.02 4.372 1.168 8.785 2.137 13.167 3.226 0.52 0.13 1.061 0.249 1.361 0.779 3.622 1.089 7.334 1.848 11.006 2.747 4.182 1.028 8.374 2.027 12.557 3.036 0.57 0.14 0.88 0.489 1.15 1.009 2.852 5.573 5.723 11.137 8.605 16.69 0.32 0.609 0.7 1.189 1.06 1.778h0.03z" fill="#CAE0FF"/>
    <g fill="#fff">
      <path d="m61.794 243.13c0.9506-1.548 2.0312-2.947 3.6821-3.835 1.3607-0.73 2.8015-1.119 4.3223-1.129 6.3234-0.03 12.637-0.03 18.96-0.04 10.526 0.01 21.062 0.03 31.588 0.03 4.482 0 8.184 2.497 9.165 6.632 0.21 0.879 0.43 1.738 0.43 2.647 0 8.06 0.04 16.121-0.02 24.181-0.04 5.644-4.132 9.409-9.435 9.399-16.729-0.04-33.458-0.08-50.188 0.03-4.5825 0.03-9.075-3.306-9.3151-8.48-0.1301-0.279-0.09-0.569-0.09-0.859v-24.241c0-0.29-0.0401-0.579 0.09-0.859-0.01-1.219 0.3302-2.367 0.8004-3.476h0.01z"/>
      <path d="m215.98 258.35c-0.29 5.344-4.832 8.75-9.545 8.72-17.069-0.09-34.138 0-51.208-0.08-4.282-0.02-8.094-3.875-8.154-8.06-0.12-8.77-0.07-17.54-0.03-26.309 0.02-4.285 4.092-8.391 8.354-8.401 17.19-0.029 34.389-0.079 51.578 0 4.663 0.02 8.395 2.937 9.005 8.411 0.11 0.239 0.09 0.489 0.09 0.729v24.231c0 0.25 0.02 0.5-0.08 0.739l-0.01 0.02z"/>
      <path d="m302.92 241.88c-0.401 5.584-5.063 8.75-9.526 8.72-17.059-0.08-34.118-0.01-51.177-0.07-4.313-0.02-8.155-3.915-8.205-8.14-0.1-8.89-0.15-17.79 0.01-26.669 0.07-3.726 3.062-6.992 6.974-7.751 1.141-0.22 2.291-0.24 3.442-0.24h48.806c5.213 0 8.965 3.097 9.666 8.44 0.11 0.24 0.09 0.49 0.09 0.73v24.231c0 0.25 0.02 0.499-0.08 0.739v0.01z"/>
    </g>
    <g fill="#F6C254">
      <path d="m259.93 274.35c0-7.152 0.02-14.303-0.03-21.455 0-1.059 0.291-1.288 1.311-1.278 5.203 0.05 10.406 0.04 15.609 0 0.79 0 1.05 0.179 1.05 1.018-0.03 14.463-0.03 28.936 0 43.399 0 0.789-0.25 0.959-0.99 0.959-5.333-0.03-10.656-0.04-15.989 0-0.901 0-0.991-0.349-0.991-1.089 0.02-7.191 0.01-14.383 0.01-21.574l0.02 0.02z"/>
      <path d="m190.91 282.56c0 4.445-0.02 8.9 0.02 13.345 0 0.879-0.23 1.108-1.101 1.098-5.243-0.04-10.495-0.05-15.738 0-0.991 0.01-1.131-0.319-1.131-1.198 0.03-8.85 0.03-17.709 0-26.559 0-0.929 0.23-1.178 1.171-1.168 5.203 0.049 10.405 0.059 15.608 0 1.051-0.01 1.201 0.349 1.191 1.268-0.04 4.405-0.02 8.81-0.02 13.214z"/>
      <path d="m94.882 296.99c-2.6215 0-5.2429-0.03-7.8643 0.02-0.7404 0.01-1.0006-0.16-0.9906-0.959 0.0401-4.365 0.0401-8.729 0-13.094 0-0.729 0.2402-0.899 0.9305-0.889 5.373 0.02 10.736 0.02 16.109 0 0.69 0 0.93 0.16 0.93 0.889-0.03 4.365-0.04 8.729 0 13.094 0 0.799-0.25 0.969-0.99 0.959-2.702-0.04-5.4131-0.02-8.1145-0.02h-0.01z"/>
    </g>
    <path d="m172.7 215.2c2.311 0.109 4.662-0.21 6.924 0.519 3.522 1.159 6.733 2.817 9.075 5.813 0.35 0.45 0.73 0.889 0.89 1.468-0.32 0.23-0.66 0.12-0.97 0.12-11.327 0-22.653 0-33.969 0.03-0.95 0-1.361-0.309-1.671-1.168-0.82-2.228-1.751-4.425-2.701-6.792h22.422v0.01z" fill="#CAE0FF"/>
    <path d="m89.509 237.13c-5.0328 0-10.066-0.04-15.108 0-0.8305 0-1.1507-0.15-1.1306-1.069 0.04-1.558-0.0901-3.126-0.1501-4.684 0.03-0.32 0.01-0.65 0.02-0.969 0.0067-0.813 0.4502-1.145 1.3307-0.999 3.4819 0.25 6.9738 0.469 10.456 0.709 1.7609 0.12 3.5319 0.3 5.3129 0.33 1.921 0.03 3.8421 0.289 5.7631 0.439 2.9116 0.829 5.7827 1.758 8.2647 3.576 0.9 0.659 1.731 1.388 2.261 2.667h-17.019z" fill="#CAE0FF"/>
    <g fill="#041C42">
      <path d="m60.993 246.62v25.96c-0.28-0.37-0.19-0.799-0.19-1.209v-23.552c0-0.41-0.09-0.839 0.19-1.209v0.01z"/>
      <path d="m302.92 241.88v-25.699c0.25 0.329 0.19 0.709 0.19 1.078v23.543c0 0.369 0.07 0.749-0.18 1.078h-0.01z"/>
      <path d="m215.98 258.35v-25.7c0.25 0.33 0.19 0.709 0.19 1.079v23.542c0 0.37 0.07 0.749-0.18 1.079h-0.01z"/>
      <path d="m95.712 216.7c0.02 2.407 0.03 4.815 0.05 7.232-0.48-1.029-0.21-2.118-0.21-3.166 0-1.349-0.22-2.717 0.16-4.056v-0.01z"/>
      <path d="m94.501 219.43c0.08-1.429-0.18-2.877 0.21-4.295-0.08 1.428 0.24 2.886-0.21 4.295z"/>
      <path d="m94.681 225.26c-0.3-1.269-0.13-2.557-0.17-3.846 0.41 1.269 0.17 2.557 0.17 3.846z"/>
    </g>
    <path d="m105.03 142.53c-4.302-1.308-8.7148-2.157-13.077-3.236-6.1233-1.518-12.247-3.066-18.38-4.585-1.1106-0.279-2.2312-0.489-3.3318-0.779-1.9811-0.519-1.9811-0.529-2.1912-2.527-0.7004-6.752-3.1917-12.875-6.7036-18.598-2.5114-4.095-5.513-7.841-8.6847-11.446-3.1618-3.5961-6.4335-7.1019-9.6653-10.638-7.0838-7.7608-13.768-15.841-19.31-24.801-1.6109-2.6069-3.0316-5.3337-4.5525-8.0005-0.2901-0.5094-0.2601-0.7691 0.3202-1.0987 5.9032-3.3661 11.796-6.7621 17.68-10.148 1.2107-0.6892 2.4313-1.3584 3.622-2.0775 0.6603-0.3896 0.9105-0.02 1.2306 0.4694 2.1212 3.1763 4.1723 6.4025 6.4836 9.4489 1.7609 2.3272 3.6219 4.5846 5.613 6.732 10.256 11.017 22.072 20.276 33.688 29.745 0.5603 0.4595 1.0206 0.6592 1.6309 0.1698 3.0917-2.517 6.5336-2.3772 10.286-1.8578 6.273 0.869 12.617 0.869 18.86-0.5593 0.881-0.1998 1.761-0.4595 2.592-0.8191 0.82-0.3596 1.11-0.0399 1.29 0.6892 0.591 2.3373 1.201 4.6745 1.781 7.0117 0.16 0.6493 0.3 0.919 1.171 0.7092 6.163-1.5182 12.397-2.6968 18.68-3.6257 5.413-0.7991 10.826-1.5682 16.259-2.2374 5.073-0.6292 10.145-1.2185 15.228-1.7479 4.973-0.5194 9.936-1.0388 14.908-1.4883 4.673-0.4295 9.345-0.8789 14.018-1.2585 4.152-0.3296 8.314-0.6392 12.457-1.0088 3.782-0.3396 7.574-0.4495 11.346-0.8989 0.43-0.05 0.55 0.1298 0.6 0.5493 0.561 4.215 1.131 8.4201 1.741 12.625 0.45 3.1065 0.921 6.2125 1.441 9.3095 0.14 0.839-0.27 1.078-0.911 1.078-3.061-0.02-6.063 0.53-9.095 0.819-3.291 0.31-6.543 0.979-9.825 1.389-3.372 0.419-6.713 1.019-10.075 1.528-5.293 0.809-10.546 1.808-15.789 2.837-5.813 1.148-11.606 2.407-17.319 3.955-4.253 1.159-8.505 2.317-12.517 4.245-3.892 1.868-6.344 5.004-8.084 8.78-2.092 4.534-2.872 9.389-3.312 14.323-0.16 1.818-0.19 3.635-0.22 5.453-0.01 0.929-0.231 1.239-1.231 0.979-6.073-1.548-12.167-3.046-18.26-4.545-1.381-0.339-2.792-0.589-4.182-0.888-0.571 0.259-1.131 0.129-1.701 0-4.343-1.069-8.675-2.198-13.037-3.197-0.561-0.13-1.161-0.209-1.501-0.769l0.03-0.01z" fill="#A1C9FF"/>
    <g fill="#CAE0FF">
      <path d="m27.305 11.707c1.0505 0.829 1.3107 2.1175 1.7009 3.2562 1.5708 4.5746 3.0817 9.1792 4.3023 13.864 0.1201 0.4395 0.2502 1.0788 0.8905 0.9989 0.7204-0.0799 0.3602-0.7292 0.3602-1.1087-0.01-1.5282-0.09-3.0564-0.1601-4.5746-0.07-1.5582-0.04-3.2163 0.5403-4.9143 1.1306 1.4384 1.2107 3.0165 1.5609 4.4748 0.9205 3.8554 1.7309 7.7309 2.6114 11.586 0.5203 2.2873 1.1306 4.5447 1.6109 6.842 0.11 0.5194 0.3301 1.1286-0.5103 1.5981-5.9533 3.356-11.866 6.802-17.79 10.208-0.9105 0.5293-1.811 1.0887-2.7715 1.4982-0.2902 0.1199-0.5103 0.6592-0.9005 0.3496-0.3402-0.2597-0.1801-0.6792-0.1-1.0388 0.01-1.8178 0.08-3.6357-0.0401-5.4436-0.1801-3.5058-0.2401-7.0217-0.5703-10.508-0.4202-4.3549-0.7804-8.7197-1.4007-13.065-0.2602-1.8179-0.7404-3.6657-0.5003-5.7333 0.8304 0.6493 1.1806 1.4383 1.5208 2.1875 1.3307 2.9864 2.5114 6.0329 3.612 9.1192 0.1 0.2697 0.2501 0.5194 0.3502 0.7891 0.1501 0.4195 0.4302 0.6193 0.8604 0.4694 0.5704-0.1897 0.2302-0.5393 0.1501-0.8889-1.1006-4.7444-2.2212-9.4888-3.2417-14.243-0.3302-1.5582-0.3903-3.1663-0.5603-4.7544-0.0401-0.3696-0.0901-0.869 0.3301-0.9689 0.4903-0.1199 0.4803 0.4495 0.5904 0.7491 1.7009 4.5946 2.8015 9.349 4.0021 14.083 0.3702 1.4483 0.6704 2.9166 1.0506 4.3549 0.0901 0.3496 0.2401 0.889 0.8104 0.6592 0.4503-0.1798 0.4303-0.5194 0.3202-1.0188-0.9905-4.6545-1.9711-9.309-2.8415-13.984-0.3402-1.8378-0.4403-3.7356-0.1901-5.9031 1.2206 1.3584 1.6609 2.8367 2.0611 4.265 0.8805 3.1064 1.6109 6.2527 2.3613 9.389 0.4202 1.7679 0.7704 3.5558 1.1706 5.3237 0.0901 0.3895 0.0901 0.9689 0.7204 0.849 0.6403-0.1199 0.6403-0.6592 0.5403-1.1686-0.8205-4.275-1.6509-8.54-2.4513-12.815-0.1301-0.7092-0.1301-1.4483-0.1901-2.1775 0.11-0.8789-0.1401-1.7679 0.15-2.6369l0.0401 0.03z"/>
      <path d="m106.93 57.192c1.361 1.2086 2.511 2.4871 4.022 3.366 1.781 1.0388 3.652 1.5482 5.693 1.4783 0.21 0 0.421-0.03 0.621 0 0.68 0.0799 0.74 0.6192 0.66 1.0987-0.13 0.799-0.63 0.1198-0.81 0.0599-1.551-0.4594-2.982-0.1498-4.363 0.5494-1.18 0.5893-1.671 1.678-1.731 2.8866-0.05 0.9089 1.411 2.1574 2.532 2.3971 2.131 0.4595 4.062 0.05 5.763-1.4682 0.74 3.1363 1.21 6.2526 1.671 9.3889 0.39 2.6669 0.59 5.3537 0.95 8.0206 0.12 0.8789 0.06 1.5581-1.08 1.9577-2.882 1.0188-5.854 1.5382-8.855 1.698-5.393 0.2896-10.786 0.0799-16.129-0.839-0.8305-0.1399-0.9805-0.4395-0.9005-1.1886 0.4803-4.265 1.2307-8.4801 2.1312-12.665 0.7304-3.406 1.5808-6.7721 2.5914-10.118 0.3098-1.0188 0.7808-1.5881 1.7408-1.8978 2.441-0.789 4.372-2.2174 5.463-4.7144l0.03-0.01z"/>
      <path d="m234.96 73.244c-0.13 0.849 0.02 1.7179-0.28 2.5769-0.15 0.4495-0.271 1.1986 0.41 1.3884 0.79 0.2297 0.77-0.5394 0.92-1.0188 1.321-4.235 2.422-8.54 3.932-12.715 0.551-1.5183 1.071-3.0465 1.942-4.4748 0.47 0.4695 0.54 0.9589 0.49 1.4983-0.47 4.9242-1.691 9.7285-2.522 14.593-0.12 0.6992-0.18 1.3784-0.2 2.0675 0 0.3297 0 0.7292 0.421 0.7292 0.28 0 0.56-0.1798 0.64-0.6093 0.37-1.8378 0.78-3.6557 1.231-5.4736 1.06-4.2949 1.821-8.6797 3.732-12.725 0.13-0.2696 0.17-0.7491 0.54-0.6991 0.47 0.0599 0.43 0.5293 0.42 0.8989-0.12 2.8566-0.59 5.6533-1.12 8.46-0.621 3.2962-1.341 6.5623-2.122 9.8285-0.05 0.1997-0.02 0.4195 0 0.6192 0.04 0.2897-0.2 0.7292 0.311 0.7991 0.45 0.0699 0.63-0.2098 0.74-0.6393 0.48-1.9776 0.97-3.9553 1.491-5.913 1.14-4.285 2.141-8.6099 3.732-12.765 0.11-0.2896 0.18-0.5393 0.63-0.5693 0.32 2.1275-0.06 4.215-0.48 6.2626-0.941 4.5347-1.951 9.0694-3.132 13.544-0.12 0.4395-0.24 1.1187 0.37 1.2985 0.591 0.1698 0.701-0.5294 0.841-0.889 1.331-3.5458 2.531-7.1316 4.282-10.498 0.27-0.5294 0.61-1.0188 1.031-1.728 0.48 1.4882-0.18 2.5969-0.511 3.7056-1.31 4.4248-3.191 8.6199-5.092 12.815-2.182 4.8344-4.743 9.4489-7.434 14.004-1.751 2.9661-3.752 5.7331-5.974 8.3601-0.22 0.27-0.46 0.759-0.84 0.609-0.38-0.14-0.37-0.649-0.43-1.058-0.461-3.317-0.961-6.6327-1.431-9.9487-0.37-2.587-0.7-5.1839-1.051-7.7809-0.07-0.5294-0.11-1.0687-0.26-1.5681-0.72-2.3872 0.35-4.4748 1.001-6.6522 0.98-3.2861 1.37-6.6921 2.031-10.048 0.19-0.9588 0.34-1.9976 1.311-2.8566 0.16 0.9689 0.29 1.7779 0.43 2.5969 0.15 1.3285 0.14 2.6669 0 3.9953v-0.0199z"/>
      <path d="m106.37 54.755c-0.501 3.4459-2.542 5.2138-5.653 6.2726 1.35-3.1763 2.551-6.2127 5.072-8.48 2.312-2.0875 4.533-1.1986 6.344 0.3196 2.511 2.0975 3.932 4.9542 5.153 8.0705-5.013 0.3796-7.955-2.7368-10.916-6.1927v0.01z"/>
    </g>
    <path d="m105.03 142.53c3.342 0.769 6.694 1.518 10.036 2.327 2.081 0.5 4.132 1.099 6.203 1.659-0.17 0.269-0.35 0.539-0.52 0.809-4.913-1.179-9.826-2.348-14.728-3.576-0.501-0.13-1.101 0.04-1.511-0.42l0.53-0.799h-0.01z" fill="#041C42"/>
    <path d="m95.292 65.643c0-1.8678 1.1906-3.2362 2.6414-3.1164 0.6804 0.05 0.9105 0.4096 0.7704 0.9689-0.4502 1.738-0.9705 3.4659-1.4708 5.1939-0.1901 0.6692-0.5403 0.3096-0.8004 0.0699-0.9205-0.839-1.2006-1.9177-1.1506-3.1263l0.01 0.01z" fill="#CAE0FF"/>
    <path d="m116.07 67.89c-0.97 0.4794-3.072 0.0199-3.602-0.8391-0.55-0.8789-0.1-1.648 0.59-2.1275 0.791-0.5493 1.701-0.9888 2.822-0.849-0.43 0.6393-1.081 1.1087-0.921 2.0177 0.141 0.789 0.431 1.3883 1.111 1.7979z" fill="#CAE0FF"/>
    <path d="m18.62 49.312c0.3 1.8179 0.31 3.6257 0.04 5.4436-0.01-1.8179-0.02-3.6357-0.04-5.4436z" fill="#A1C9FF"/>
    <path d="m234.96 73.244v-3.9953c0.31 1.3285 0.3 2.6669 0 3.9953z" fill="#041C42"/>
    <path d="m27.305 11.706c-0.1 0.879 0.19 1.7779-0.15 2.6369 0.06-0.8789-0.31-1.7779 0.15-2.6369z" fill="#A1C9FF"/>
    <path d="m74.48 229.41c-0.85-0.1-1.37 0.14-1.2 1.139 0.05 0.279 0.05 0.579-0.15 0.829-0.01-0.32-0.02-0.649-0.03-0.969-0.04-0.919 0.42-1.252 1.38-0.999z" fill="#A1C9FF"/>
    <g fill="#041C42">
      <path d="m94.961 256.88c-0.7804 0.619-1.4207 1.119-2.0611 1.628-0.07-0.05-0.1401-0.09-0.1901-0.15-0.7137-0.799-0.6603-1.524 0.1601-2.177 0.6804-0.539 1.4108-1.039 2.0411-1.628 0.6504-0.609 1.4408-0.499 2.1112-0.33 0.6503 0.16 0.3001 0.929 0.3001 1.419 0.03 2.986-0.05 5.973 0.05 8.949 0.0401 1.159-0.5903 0.969-1.2907 1.019-0.8104 0.06-1.1606-0.1-1.1306-1.039 0.0701-2.487 0.02-4.974 0.02-7.681l-0.01-0.01z"/>
      <path d="m180.39 250.1c1.551 0 2.872 0.06 4.182-0.02 0.961-0.06 0.801 0.52 0.841 1.099 0.04 0.649-0.07 0.979-0.851 0.959-1.951-0.05-3.912 0-5.863-0.03-0.41 0-1.07 0.28-1.21-0.23-0.161-0.589-0.261-1.308 0.31-1.867 0.95-0.929 1.901-1.858 2.811-2.827 0.621-0.659 1.251-1.349 1.741-2.108 0.42-0.639 0.571-1.438-0.01-2.087-0.55-0.61-1.291-0.45-1.981-0.26-0.31 0.09-0.65 0.23-0.88 0.45-1.001 0.938-1.341-0.07-1.761-0.62-0.581-0.749 0.32-0.879 0.64-1.118 1.331-0.979 2.872-1.089 4.402-0.71 2.132 0.53 2.942 2.857 1.771 4.905-0.99 1.728-2.691 2.806-4.152 4.464h0.01z"/>
      <path d="m269.74 229.59c2.212 0.988 2.662 1.648 2.422 3.366-0.21 1.488-1.351 2.437-3.252 2.746-0.87 0.14-1.731 0.13-2.601 0-2.032-0.299-2.032-0.289-1.871-2.397 0.93 0.14 1.781 0.6 2.731 0.6 0.59 0 1.171-0.02 1.711-0.27 0.65-0.31 0.84-0.869 0.81-1.538-0.03-0.64-0.38-1.019-0.95-1.149-0.56-0.13-1.151-0.24-1.721-0.22-0.68 0.03-0.931-0.15-0.931-0.879 0-0.719 0.131-1.118 0.951-0.978 0.2 0.039 0.42 0 0.62-0.01 1.341-0.13 1.971-0.71 1.851-1.688-0.11-0.889-0.86-1.279-2.151-1.069-0.32 0.05-0.64 0.16-0.95 0.279-0.831 0.33-1.611-0.069-1.871-0.918-0.14-0.45 0.2-0.48 0.42-0.6 1.751-0.949 3.582-1.019 5.413-0.339 0.95 0.359 1.531 1.128 1.541 2.207 0.01 1.438-0.781 2.297-2.152 2.867l-0.02-0.01z"/>
      <path d="m104.45 69.069c-0.971 0.01-1.901-0.1598-2.762-0.6193-1.491-0.7891-1.8108-2.1375-0.86-3.5358 1.31-1.9278 4.672-2.5271 6.593-1.1787 1.991 1.3984 1.781 3.7956-0.42 4.8543-0.81 0.3896-1.671 0.4595-2.541 0.4795h-0.01z"/>
      <path d="m110.49 81.034c-3.272 0-5.203-1.658-6.804-3.8555-0.22-0.2896-0.34-0.5393 0.07-0.809 0.431-0.2797 0.581 0 0.781 0.2697 0.48 0.6792 1 1.3184 1.641 1.8578 2.101 1.7679 4.382 1.9777 6.843 0.839 1.291-0.5993 2.432-1.4283 3.432-2.4271 0.28-0.2797 0.481-0.3796 0.791-0.04 0.25 0.2797 0.27 0.4595-0.01 0.7192-2.031 1.8378-4.203 3.386-6.754 3.4459h0.01z"/>
      <path d="m110.27 75.871h-1.371c-0.34 0-0.66 0-0.67-0.4895 0-0.4794 0.27-0.5293 0.64-0.5194 0.831 0 1.661-0.0199 2.491 0 0.921 0.03 1.061-0.3695 0.781-1.1586-0.831-2.3272-1.641-4.6745-2.461-7.0117-0.101-0.2697-0.171-0.5494-0.301-0.8091-0.19-0.3995-0.09-0.5793 0.331-0.7191 0.42-0.1499 0.5 0.0599 0.61 0.3595 0.97 2.7668 1.991 5.5136 2.891 8.3003 0.401 1.2185-0.26 1.9776-1.58 2.0376-0.451 0.0199-0.911 0-1.371 0l0.01 0.01z"/>
    </g>
    <path d="m105.17 67.99c-1.05 0.1898-2.011 0.0599-2.911-0.3696-1.111-0.5294-1.281-1.3484-0.471-2.2973 0.861-1.0188 2.011-1.3384 3.372-1.2785-1.501 1.5582-1.501 2.3772 0.02 3.9454h-0.01z" fill="#CAE0FF"/>
  </g>
  <defs>
    <clipPath id="clip0_707_5350">
      <rect width="320" height="298" fill="#fff"/>
    </clipPath>
  </defs>
</svg>
