<?xml version="1.0" encoding="UTF-8"?>
<svg fill="none" version="1.1" viewBox="0 0 320 298" xmlns="http://www.w3.org/2000/svg">
  <g clip-path="url(#clip0_707_6174)">
    <rect width="320" height="298" fill="#f6c254"/>
    <path d="m320 1.1718e-4v297c-64.114 0-130.94 0.471-195.05 0.471-0.5 0-1.001 0-1.501-0.02-0.81-0.04-1.43-0.39-1.85-1.089-2.341-3.976-5.953-6.263-10.244-7.642-2.231-0.719-2.301-0.928-2.071-3.326 0.19-1.978 0.17-3.985 0.24-5.963 0.16-4.645 0.4-9.29 0.61-13.935 0.19-4.305 0.24-8.62 0.661-12.916 0.18-1.857 0.18-3.735 0.23-5.593 0.12-4.735 0.47-9.45 0.6-14.185 0.11-3.895 0.34-7.791 0.5-11.687 0.13-3.276 0.29-6.542 0.49-9.819 0.25-4.055 1.291-7.951 3.281-11.527 2.882-5.174 7.443-7.861 13.205-8.78 4.142-0.66 8.293-0.5 12.445-0.48 1.371 0 1.861 0.55 1.961 1.898 0.04 0.54 0.02 1.079 0.02 1.618 0 19.369 0.03 38.747-0.02 58.116-0.01 4.555 2.941 8.83 7.893 9.819 0.46 0.09 0.91 0.1 1.36 0.1 40.756 0 81.521 0.01 122.28 0 5.132 0 9.404-4.275 9.404-9.37 0-67.175 0-134.36 0.01-201.54 0-5.7436-4.842-9.6493-9.664-9.6393-40.465 0.0399-80.94 0.02-121.41 0.0299-5.001 0-8.713 3.0367-9.763 7.9313-0.17 0.7791-0.09 1.5782-0.09 2.3574v104.02c0 0.579 0.02 1.168-0.01 1.748-0.07 1.538-0.54 1.948-2.051 1.638-2.031-0.42-4.061-0.869-6.092-1.319-6.123-1.348-12.285-2.537-18.507-3.316-4.692-0.589-9.424-1.049-14.176-0.779-2.8106 0.16-5.6316 0.429-8.3927 1.039-1.9207 0.429-2.3008 0.249-3.0111-1.599-1.3605-3.526-2.5009-7.132-3.9315-10.638-0.9103-2.227-1.9107-4.425-2.9511-6.602-0.9203-1.918-0.7603-2.398 0.8803-3.706 1.4106-1.119 1.3906-1.569-0.08-2.607-0.1701-0.12-0.3301-0.26-0.5102-0.36-4.2916-2.347-7.7029-5.684-10.814-9.42-1.5706-1.888-3.6414-3.266-6.1323-3.855-2.4209-0.58-4.3417 0.269-5.5621 2.447-1.2505 2.217-1.8507 4.635-2.0808 7.122-0.5502 5.804-0.3601 11.607 0.1601 17.401 0.19 2.067 0.4501 4.115 0.7202 6.173 0.1501 1.109-0.3101 1.918-1.1004 2.627-4.3916 3.996-8.003 8.66-11.234 13.605-5.5421 8.501-9.8237 17.62-13.285 27.14-0.6702 1.838-0.7102 3.826-1.0004 5.754-0.9303 6.143-1.7906 12.306-2.671 18.459-0.7802 5.454-1.5705 10.918-2.3408 16.372-0.7803 5.454-1.6006 10.908-2.3709 16.372-0.7803 5.504-1.5706 10.998-2.3709 16.492-0.8203 5.573-1.5906 11.157-2.4309 16.731-0.6403 4.225-1.2005 8.461-1.8307 12.676-0.2301 1.568-0.6903 1.998-2.3009 2.008-5.452 0.03-12.585-0.431-18.047-0.451 0-97.902-0.010041-197.3-0.010041-295.2 0-0.24973 0.030011-0.49945 0-0.74917-0.090034-0.79912 0.24009-1.1387 1.0704-1.0289 0.24009 0.029967 0.50019 0 0.75028 0 105.5 0 212.68-0.020009 318.19-0.020009z" fill="#a1c9ff"/>
    <path d="m0 297c6.1223 0 12.425-0.019 18.537 0.021 0.9704 0 1.2405-0.299 1.3705-1.218 1.4206-10.149 2.8811-20.298 4.3417-30.437 1.3705-9.529 2.751-19.059 4.1215-28.588 1.3005-9.04 2.611-18.07 3.9115-27.11 0.7603-5.254 1.4605-10.528 2.2808-15.773 0.3602-2.307 1.4506-4.395 2.3209-6.532 4.3816-10.778 9.7537-20.997 17.166-30.047 1.7707-2.158 3.6514-4.215 5.7722-6.023 0.7103-0.61 0.8403-1.199 0.7203-2.048-1.0304-6.882-1.5206-13.795-1.1705-20.747 0.1501-3.027 0.5302-6.043 1.7307-8.88 1.7306-4.096 4.7417-5.224 8.7633-3.287 1.5505 0.75 2.9111 1.778 4.1215 2.987 1.0004 0.999 2.0208 2.008 2.8211 3.157 1.2104 1.748 2.741 3.056 4.5417 4.145 1.5606 0.949 3.0611 1.988 4.5717 3.027 1.2404 0.849 1.2405 1.888 0.05 2.817-1.9707 1.548-2.0208 1.568-0.9003 3.835 2.781 5.664 4.7417 11.657 6.9326 17.561 0.2901 0.779 0.5202 0.969 1.3905 0.769 6.2623-1.468 12.615-1.498 18.987-0.939 9.884 0.869 19.538 2.997 29.201 5.114 0.974 0.213 1.461-0.166 1.461-1.138v-105.89c0-6.5628 4.161-10.698 10.774-10.698h120.54c6.342 0 10.584 4.2153 10.584 10.518v200.55c0 6.153-4.272 10.438-10.414 10.438h-121.16c-5.983 0-10.314-4.315-10.324-10.288 0-19.868-0.01-39.746 0.03-59.614 0-1.199-0.23-1.658-1.521-1.668-4.291-0.05-8.573-0.2-12.825 0.539-7.973 1.389-12.464 6.393-14.625 13.895-1.061 3.686-1.071 7.471-1.251 11.237-0.68 14.155-1.32 28.309-1.97 42.463-0.421 9.17-0.841 18.35-1.291 27.52-0.04 0.779 0.13 1.139 0.961 1.368 4.961 1.329 9.093 3.836 11.624 8.491 0.22 0.399 0.48 0.519 0.89 0.489 0.25-0.02 0.5 0 0.75 0 65.365 0 130.83-0.011 196.19-0.011v1h-320s-1.3329e-5 -0.5-1.3329e-5 -1z" fill="#041c42"/>
    <path d="m180.54 141.3c0-0.949 0.02-1.898 0-2.847-0.02-0.6-0.18-1.189-0.851-1.379-0.7-0.2-1.07 0.3-1.38 0.809-1.441 2.358-2.161 5.015-3.041 7.592-0.391 1.139-0.681 2.307-1.081 3.436-0.12 0.33 0 0.969-0.64 0.879-0.57-0.08-0.26-0.609-0.31-0.929-0.12-0.689-0.1-1.418-0.25-2.097-0.15-0.71-0.21-1.599-1.141-1.739-0.93-0.139-1.23 0.68-1.59 1.329-0.44 0.809-0.68 1.698-0.821 2.597-0.11 0.709-0.42 0.909-1.14 0.899-3.331-0.04-6.662-0.03-9.994-0.02-3.131 0.01-5.232 2.108-5.242 5.234-0.01 1.748-0.04 3.496 0.02 5.235 0.02 0.719-0.24 0.839-0.86 0.709-2.481-0.52-4.962-1.029-7.443-1.529-0.53-0.109-0.81-0.329-0.72-0.909 0.03-0.199 0-0.419 0-0.619v-106.25c0-5.9035 3.741-9.6393 9.664-9.6393h120.52c5.992 0 9.703 3.7159 9.703 9.7192v200.04c0 6.083-3.691 9.759-9.793 9.759h-120.4c-5.993 0-9.704-3.715-9.704-9.729 0-19.748 0-39.496-0.02-59.234 0-1.109 0.2-1.509 1.4-1.359 2.391 0.3 4.802 0.48 7.203 0.66 0.64 0.049 1.031 0.239 1.411 0.769 1.07 1.498 2.611 2.047 4.441 2.047 17.567-0.02 35.144-0.01 52.71-0.01h58.082c3.721 0 5.692-1.957 5.692-5.673v-33.673c0-3.546-2.011-5.554-5.552-5.554h-76.559-1.38c0.09-1.069 0.22-2.048 0.23-3.026 0-0.52-0.13-1.099-0.78-1.269-0.621-0.16-1.011 0.19-1.371 0.629-0.64 0.779-1.04 1.688-1.501 2.567-0.2 0.38-0.4 0.75-0.88 1.019 0.32-1.638 0.66-3.266 0.97-4.904 0.351-1.838 0.681-3.676 0.641-5.554-0.01-0.819-0.15-1.658-1.121-1.848-0.99-0.2-1.38 0.549-1.67 1.328-0.36 0.949-0.711 1.898-1.161 3.097-0.05-1.508 0.23-2.757-0.01-3.996-0.12-0.589-0.26-1.158-0.94-1.318-0.69-0.16-1.081 0.27-1.421 0.779-0.82 1.209-1.21 2.617-1.89 3.986z" fill="#fff"/>
    <path d="m60.843 151.74c0.2601 1.438 0.5302 2.717 0.7302 4.016 0.0901 0.579 0.2601 0.759 0.8704 0.679 7.7028-1.049 15.196-2.787 22.138-6.423 1.1404-0.599 2.2108-1.319 3.2512-2.068 0.6102-0.439 0.8303-0.409 1.0904 0.33 0.8003 2.307 1.7006 4.585 2.5109 6.892 0.2401 0.68 0.5002 0.869 1.2405 0.67 7.3631-1.938 14.825-1.719 22.308-0.899 11.134 1.218 21.989 3.955 32.933 6.203 5.742 1.178 11.494 2.337 17.396 2.337 0.81 0 0.86 0.44 0.92 0.999 0.601 5.034 1.201 10.059 1.791 15.093 0.44 3.756 0.84 7.512 1.331 11.258 0.11 0.879-0.13 1.049-0.941 1.039-5.452-0.09-10.884-0.56-16.316-1.009-6.922-0.58-13.835-1.309-20.808-0.66-10.123 0.949-16.206 6.294-18.457 16.292-0.37 1.659-0.56 3.357-0.8 5.195-2.721-0.67-5.392-1.329-8.063-1.978-22.388-5.484-44.777-10.968-67.175-16.432-0.6702-0.16-1.0303-0.26-0.7102-1.099 4.5417-12.106 10.224-23.604 18.367-33.752 1.8907-2.368 3.9614-4.575 6.3924-6.673z" fill="#a1c9ff"/>
    <path d="m110.35 250.04c-0.58 12.207-1.16 24.403-1.71 36.61-0.04 0.849-0.32 1.008-1.101 0.998-7.112-0.159-14.225-0.299-21.348-0.399-1.0104-0.01-1.3805-0.21-1.4306-1.349-0.6702-14.663-2.0207-29.247-5.1719-43.611-1.2705-5.794-2.781-11.518-5.4821-16.862-0.7702-1.528-1.6606-2.976-2.9111-4.165-2.1308-2.028-4.1315-1.908-5.8922 0.43-2.3008 3.056-3.6213 6.602-4.9318 10.138-4.3416 11.717-7.6129 23.764-11.244 35.701-2.0808 6.822-4.1516 13.645-6.4324 20.407-0.2701 0.799-0.5502 1.069-1.4706 0.979-5.8722-0.599-11.754-1.139-17.647-1.638-1.0304-0.09-1.4706-0.16-1.2705-1.488 2.1408-14.405 4.2016-28.829 6.2724-43.243 1.9507-13.595 3.8914-27.189 5.8422-40.794 0.3201-2.218 0.7202-4.426 0.9403-6.653 0.1-1.039 0.4802-1.059 1.3205-0.859 10.924 2.697 21.858 5.354 32.782 8.031 13.755 3.376 27.49 6.782 41.265 10.079 1.431 0.339 1.341 1.049 1.291 2.078-0.57 11.866-1.13 23.743-1.691 35.61h0.03z" fill="#cae0ff"/>
    <path d="m155.02 192.19c2.361 0.13 4.432 0.14 6.473 0.38 1.21 0.14 2.401 0.11 3.601 0.16 1.04 0.04 2.071-0.01 3.101 0.19 1.191 0.229 2.161-0.1 3.121-1.019 3.082-2.967 5.142-6.623 7.123-10.309 4.702-8.76 8.663-17.85 11.704-27.32 0.061-0.199 0.121-0.399 0.191-0.589 0.586-1.904 1.904-2.857 3.951-2.857h74.928c3.291 0 4.742 1.429 4.742 4.685v33.663c0 3.036-1.501 4.555-4.502 4.555h-110.89c-1.281 0-2.481-0.15-3.552-1.539z" fill="#004079"/>
    <path d="m69.556 297c-4.5317 0-9.0734-0.01-13.605 0.02-0.6602 0-1.0003-0.18-1.3205-0.789-1.3905-2.587-3.7914-3.996-6.3323-5.204-1.3505-0.64-2.7611-1.149-4.2216-1.489-0.6803-0.159-0.7303-0.409-0.5202-1.028 5.7021-16.802 10.174-33.993 15.796-50.814 1.6006-4.795 3.2512-9.58 5.7822-13.995 0.3101-0.539 0.6702-1.049 1.0604-1.538 1.3305-1.658 2.6009-1.748 4.2116-0.26 1.7506 1.619 2.781 3.716 3.7013 5.854 2.9111 6.792 4.4817 13.954 5.7922 21.186 2.7911 15.493 3.8615 31.136 4.2116 46.838 0.03 1.119-0.3401 1.259-1.3105 1.249-4.4117-0.05-8.8233-0.02-13.235-0.02z" fill="#a1c9ff"/>
    <g fill="#cae0ff">
      <path d="m190.57 146.68c0.12 2.437-0.56 4.695-1.28 6.932-3.712 11.388-8.383 22.345-14.696 32.564-0.94 1.518-2.021 2.947-3.191 4.295-0.24 0.28-0.53 0.51-0.96 0.919-0.22-1.758-0.43-3.336-0.621-4.914-0.9-7.592-1.8-15.173-2.701-22.765-0.04-0.33-0.1-0.649 0.04-0.979 1.681-4.235 2.421-8.7 3.152-13.165 0.2-1.209 0.43-2.438 1.37-3.526 0.52 1.218 0.55 2.417 0.54 3.586 0 1.997-0.12 3.985-0.18 5.983-0.01 0.4-0.18 0.949 0.35 1.069 0.631 0.14 0.691-0.51 0.811-0.899 1.32-4.445 2.551-8.93 4.141-13.296 0.53-1.458 0.991-2.966 2.111-4.425 0.32 2.128-0.02 3.986-0.28 5.844-0.57 4.105-1.721 8.111-2.201 12.236-0.05 0.43-0.31 1.019 0.34 1.129 0.62 0.11 0.64-0.519 0.741-0.939 1.09-4.775 2.03-9.579 3.491-14.254 0.49-1.548 0.88-3.167 2.151-4.705 0.43 2.427 0.04 4.535-0.28 6.633-0.651 4.305-1.681 8.54-2.561 12.806-0.1 0.489-0.631 1.328 0.14 1.528 0.88 0.22 0.74-0.789 0.88-1.309 1.41-5.454 2.691-10.947 4.432-16.322 0.19-0.589 0.46-1.158 0.67-1.738 0.09-0.249 0.22-0.519 0.49-0.469 0.26 0.05 0.3 0.37 0.31 0.619 0.07 1.459-0.15 2.907-0.4 4.335-0.85 4.865-2.051 9.65-3.211 14.444-0.05 0.2-0.1 0.4-0.13 0.61-0.06 0.389-0.28 0.889 0.32 1.019 0.47 0.1 0.59-0.34 0.73-0.69 1.031-2.667 2.051-5.334 3.121-7.991 0.601-1.478 1.261-2.946 2.381-4.175z"/>
      <path d="m60.633 139.84c4.5217 1.649 7.4028 1.209 9.6837-1.468-3.3513-1.958-3.9815-3.686-2.2409-6.153 1.2905-1.828 2.491-1.698 5.192 0.589 0.5602-0.349 0.05-1.308 0.6802-1.448 0.4602-0.11 1.0104 0.279 1.5406 0.339 1.6306 0.2 3.1612-0.149 4.4517-1.178 0.6602-0.53 0.8803-0.41 1.2204 0.289 0.7403 1.529 1.5506 3.027 2.3809 4.505 0.3902 0.69 0.1001 0.939-0.5002 1.139-1.2904 0.42-2.5409 0.25-3.7614-0.3-0.4902-0.219-0.9803-0.459-1.4205-0.759-0.3601-0.239-0.5602-0.2-0.7903 0.15s-0.05 0.52 0.2201 0.689c1.9407 1.189 3.9915 1.958 6.2523 1.069 0.7503-0.29 0.9404-0.02 1.1705 0.54 1.0604 2.517 2.0907 5.054 3.2012 7.551 0.3401 0.769 0.15 1.199-0.4802 1.658-3.5213 2.597-7.5128 4.216-11.644 5.514-3.8514 1.209-7.7829 2.038-11.764 2.687-1.0604 0.17-1.5706 0.1-1.7707-1.198-0.6502-4.186-1.1904-8.381-1.6106-12.596-0.05-0.53 0-1.069 0-1.609z"/>
      <path d="m121.17 297h-29.792c-1.7906 0-3.5813-0.03-5.372 0.01-0.6802 0.02-0.9303-0.14-0.9403-0.869-0.02-2.367-0.0901-4.735-0.2001-7.102-0.03-0.649 0.1501-0.869 0.8203-0.859 7.6129 0.17 15.246 0.03 22.829 0.559 5.222 0.36 9.513 3.037 12.445 7.552 0.07 0.1 0.12 0.22 0.16 0.34 0.03 0.07 0.02 0.149 0.05 0.369z"/>
      <path d="m20.728 296.92c0.3902-2.707 0.7903-5.375 1.1405-8.042 0.08-0.579 0.2401-0.769 0.8603-0.709 6.2123 0.6 12.455 0.969 18.627 1.798 4.1815 0.56 8.143 2.048 11.254 5.155 0.5002 0.499 0.9203 1.048 1.2205 1.798z"/>
      <path d="m72.687 130.9c-1.2905-0.759-2.591-1.338-4.0815-0.539-2.601 1.388-3.2012 5.294-1.1105 7.352 0.7403 0.725 0.6303 1.298-0.3301 1.718-1.3405 0.589-2.731 0.709-4.1315 0.299-2.0708-0.599-2.641-1.368-2.691-3.496-0.1101-4.775-0.2201-9.539 1.0103-14.224 0.2701-1.009 0.6103-1.978 1.1004-2.897 1.6607-3.106 5.272-3.686 7.863-1.248 0.6802 0.629 1.1804 1.388 1.5406 2.237 1.2504 2.957 1.6106 7.492 0.8203 10.798z"/>
    </g>
    <path d="m163.04 150.82h5.112c0.61 0 0.93 0.15 0.81 0.869-0.53 3.107-1.23 6.163-2.14 9.18-0.381 1.249-1.011 1.818-2.411 1.708-3.132-0.26-6.263-0.549-9.374-1.069-0.71-0.119-1.03-0.489-1.01-1.278 0.06-1.828 0-3.656 0.03-5.484 0.04-2.248 1.72-3.886 4.001-3.916 1.661-0.02 3.332 0 4.992 0z" fill="#004079"/>
    <g fill="#cae0ff">
      <path d="m72.938 119.79c1.9107 1.658 3.4713 3.576 4.9218 5.743-1.3905 0.25-2.6009 0.709-3.7414 1.608-0.09-2.597-0.3201-5.014-1.1804-7.351z"/>
      <path d="m80.43 127.18c1.6707 1.109 3.3413 2.218 5.0119 3.337 0.5002 0.339 0.4902 0.659 0.04 1.078-1.7106 1.639-1.8707 1.619-3.0111-0.469-0.7002-1.289-1.4505-2.547-2.1708-3.826 0.04-0.04 0.09-0.08 0.13-0.12z"/>
      <path d="m77.239 130.63c-1.3205 0.159-2.4509 0.369-3.1212-0.73-0.4602-0.759 0.5002-2.007 2.1008-2.816-0.2201 1.288-0.1701 2.477 1.0304 3.546z"/>
    </g>
    <g fill="#041c42">
      <path d="m213.95 134.85h-50.459c-6.162 0-10.444-4.265-10.444-10.399v-33.173c0-5.9734 4.322-10.299 10.294-10.299h101.42c5.812 0 10.184 4.3452 10.194 10.149 0.01 11.188 0 22.365 0 33.553 0 5.804-4.362 10.169-10.174 10.179-16.946 0.01-33.892 0-50.839 0z"/>
      <path d="m213.92 247.61h-15.476c-2.611 0-4.441-1.658-4.431-4.005 0-2.338 1.83-3.976 4.461-3.976h31.072c2.611 0 4.442 1.658 4.432 4.006 0 2.337-1.831 3.965-4.472 3.975h-15.596z"/>
      <path d="m226 66.007c-2.992 0-5.422-2.2775-5.382-5.0344 0.04-2.787 2.46-4.9745 5.472-4.9446 2.911 0.03 5.312 2.2575 5.352 4.9645 0.03 2.707-2.471 5.0145-5.442 5.0045z"/>
      <path d="m186.02 60.913c0-1.3285 0.031-2.6571-9e-3 -3.9856-0.021-0.6693 0.13-0.9589 0.87-0.919 1.04 0.0699 2.081-0.02 3.121 0.03 2.071 0.0899 3.591 1.6282 3.561 3.566-0.03 1.848-1.57 3.3064-3.591 3.4063h-0.12c-1.341-0.2597-1.921 0.2397-1.641 1.6182 0.23 1.1587-0.29 1.4783-1.4 1.4084-0.72-0.0399-0.79-0.3196-0.78-0.889 0.03-1.4084 0-2.8269 0-4.2353z"/>
      <path d="m205.46 66.007c-2.491 0-4.662-1.5982-5.222-3.8357-0.54-2.1576 0.47-4.3652 2.501-5.444 2.311-1.2186 5.202-0.7991 6.782 0.949 0.421 0.4595 0.491 0.6892-0.23 0.889-0.75 0.2098-1.34 0.5094-2.161-0.0799-1.29-0.939-3.161-0.5394-4.171 0.6493-0.93 1.0987-0.96 2.5671-0.08 3.6559 1 1.2286 2.741 1.6282 4.161 0.7791 0.711-0.4195 1.271-0.4694 2.031-0.2197 0.931 0.3096 0.921 0.5793 0.25 1.1787-1.02 0.909-2.421 1.4684-3.871 1.4684z"/>
      <path d="m237.55 56.048c0.8-0.0799 1.481 0.05 2.071 0.3197 0.35 0.1598 1.28-0.01 0.89 0.929-0.27 0.6592-0.49 1.3884-1.44 0.7391-0.17-0.1098-0.391-0.1498-0.591-0.1997-1.07-0.2498-2.15 0.1498-2.18 0.869-0.05 1.0289 0.81 1.2486 1.57 1.4484 0.57 0.1498 1.121 0.2897 1.631 0.5794 1.871 1.0688 2.021 3.0366 0.34 4.3651-1.551 1.2287-4.202 1.1887-5.682-0.0799-0.32-0.2797-0.68-0.5494-0.2-0.9989 0.35-0.3196 0.5-1.0588 1.23-0.4795 0.72 0.5694 1.541 0.7992 2.461 0.6094 0.51-0.1099 0.96-0.3197 1.071-0.899 0.11-0.6293-0.331-0.909-0.801-1.1088-0.49-0.2098-1.02-0.3396-1.53-0.5094-1.651-0.5494-2.471-1.5383-2.331-2.7969 0.18-1.5983 1.28-2.6371 2.991-2.7969 0.21-0.02 0.42 0 0.5 0z"/>
      <path d="m215.2 56.028c1.21 0 2.421 0.05 3.621-0.02 0.971-0.0499 0.66 0.6094 0.69 1.0789 0.03 0.4894 0.14 0.9889-0.69 0.9589-0.81-0.03-1.901-0.3996-2.391 0.1598-0.52 0.5894-0.14 1.6682-0.15 2.5272-0.03 1.4085-0.05 2.8269 0 4.2353 0.03 0.7692-0.12 1.1188-0.99 1.0589-0.73-0.05-1.241 0-1.191-1.0189 0.09-1.9878-0.01-3.9856 0.05-5.9834 0.02-0.8191-0.21-1.1387-1.03-1.0189-0.33 0.05-0.67-0.0399-1 0.02-1.081 0.1898-1.371-0.2997-1.261-1.2985 0.05-0.5195 0.17-0.7292 0.72-0.7093 1.211 0.03 2.411 0.01 3.622 0.01z"/>
      <path d="m195.76 60.953c0-1.4084 0.05-2.8169-0.02-4.2253-0.04-0.8191 0.45-0.7691 0.94-0.6892 0.47 0.0799 1.26-0.4296 1.26 0.6293v8.6903c0 1.0689-0.8 0.5494-1.27 0.6194-0.48 0.0799-0.98 0.1498-0.93-0.6993 0.08-1.4484 0.02-2.8968 0.02-4.3452z"/>
      <path d="m232.24 161.78c-0.13 0.19-0.23 0.37-0.36 0.519-0.4 0.48-0.78 0.979-1.21 1.419-7.143 7.152-14.306 14.284-21.428 21.466-0.771 0.779-1.181 0.799-1.961 0-3.872-3.955-7.793-7.861-11.745-11.727-0.79-0.769-0.8-1.308-0.03-2.028 0.941-0.879 1.871-1.778 2.731-2.737 0.601-0.669 1.001-0.589 1.591 0.02 2.501 2.558 5.072 5.045 7.563 7.612 0.63 0.649 1.01 0.709 1.691 0.03 5.962-6.043 11.964-12.037 17.936-18.06 0.63-0.639 1.121-0.839 1.811-0.03 0.87 1.009 1.871 1.898 2.801 2.837 0.2 0.2 0.37 0.429 0.59 0.699z"/>
    </g>
    <path d="m213.86 133.85h-50.199c-5.852 0-9.623-3.746-9.623-9.56v-32.793c0-5.7437 3.781-9.5295 9.523-9.5295h100.9c5.672 0 9.494 3.7958 9.494 9.4396v33.043c0 5.574-3.832 9.41-9.394 9.41h-50.699z" fill="#f6c254"/>
    <path d="m214.14 240.62h15.346c2.161 0 3.511 1.158 3.511 2.996 0 1.828-1.35 2.987-3.521 2.987h-31.062c-2.05 0-3.381-1.189-3.381-2.997 0-1.788 1.341-2.976 3.401-2.986h15.716z" fill="#fff"/>
    <path d="m230.95 161.9c-0.17 0.18-0.32 0.36-0.49 0.53-7.182 7.222-14.365 14.434-21.528 21.676-0.57 0.569-0.85 0.499-1.37-0.03-3.642-3.706-7.303-7.392-10.974-11.068-0.431-0.43-0.551-0.699-0.03-1.139 0.66-0.569 1.3-1.179 1.85-1.848 0.52-0.629 0.831-0.519 1.351 0.02 2.521 2.587 5.132 5.104 7.613 7.732 0.77 0.809 1.11 0.659 1.8-0.04 5.892-5.984 11.845-11.897 17.717-17.911 0.92-0.939 1.4-0.879 2.131 0.06 0.45 0.59 1.04 1.069 1.57 1.599 0.12 0.119 0.22 0.249 0.36 0.419z" fill="#fff"/>
  </g>
  <defs>
    <clipPath id="clip0_707_6174">
      <rect width="320" height="298" fill="#fff"/>
    </clipPath>
  </defs>
</svg>
