<svg viewBox="0 0 320 298" fill="none" xmlns="http://www.w3.org/2000/svg">
<g clip-path="url(#clip0_1_1524)">
<rect width="320" height="298" fill="#F6C254"/>
<path d="M-6.10352e-05 -0.000244141C106.212 -0.000244141 213.788 0.029716 320 -0.000244141C319.97 98.5488 319.97 198.306 319.97 296.855C319.51 297.315 318.919 297.315 318.339 297.315C311.096 297.315 303.852 297.335 296.609 297.315C294.888 297.315 294.538 296.935 294.528 295.118C294.508 289.425 294.538 283.723 294.508 278.03C294.488 274.415 292.907 271.639 289.835 269.741C288.285 268.783 286.574 268.373 284.733 268.383C275.948 268.403 267.164 268.393 258.38 268.383C255.719 268.383 255.549 268.214 255.549 265.567C255.549 254.552 255.579 243.536 255.518 232.521C255.508 230.194 256.369 228.127 257.019 226C259.721 217.121 261.882 208.123 263.192 198.936C263.983 193.363 264.313 187.76 263.983 182.158C263.592 175.527 262.072 169.195 258.31 163.543C254.178 157.331 248.255 154.015 241.081 152.687C237.47 152.018 233.808 151.928 230.146 152.328C227.285 152.647 227.095 152.477 227.045 149.591C226.975 145.716 227.625 141.891 227.735 138.037C227.945 130.806 228.105 123.566 226.044 116.515C225.274 113.889 224.173 111.442 222.062 109.584C220.211 107.957 218.06 107.777 215.989 109.145C213.948 110.503 212.397 112.341 211.027 114.348C210.446 115.207 209.876 116.076 209.296 116.935C208.916 117.494 208.395 117.883 207.705 117.584C206.485 117.064 205.404 117.224 204.514 118.163C203.443 119.291 202.853 120.66 203.093 122.248C203.223 123.076 203.513 123.865 204.123 124.475C204.724 125.074 204.874 125.743 204.544 126.522C202.493 131.345 200.732 136.279 199.131 141.262C198.881 142.041 198.241 142.561 197.75 143.17C196.79 144.378 195.899 145.636 194.909 146.805C193.998 147.873 193.378 147.804 192.818 146.515C191.687 143.969 190.627 141.392 189.386 138.895C186.865 133.812 183.964 128.969 180.362 124.574C179.832 123.935 179.591 123.216 179.591 122.387C179.581 117.604 179.551 112.83 179.601 108.046C179.621 105.909 180.382 105.06 182.483 104.631C184.804 104.152 187.125 103.672 189.436 103.143C190.847 102.823 190.977 102.624 190.727 101.176C190.337 98.9285 190.087 96.6515 189.706 94.4045C189.516 93.2361 189.796 92.3073 190.587 91.4285C192.058 89.7807 193.478 88.1029 195.019 86.525C196.099 85.4165 196.099 85.2067 194.989 84.0683C193.448 82.4903 192.027 80.8026 190.557 79.1648C189.776 78.2859 189.486 77.3172 189.616 76.1787C189.926 73.5822 190.187 70.9856 190.457 68.3791C190.547 67.5502 190.277 67.2406 189.546 67.0808C186.985 66.5116 184.454 65.8525 181.883 65.3431C180.542 65.0735 179.611 64.4343 178.991 63.2359C178.101 61.4982 177.11 59.8105 176.2 58.0828C175.7 57.1241 175.079 56.9443 174.069 57.3438C171.868 58.2226 169.647 59.0515 167.425 59.8904C166.345 60.2899 165.334 60.2799 164.274 59.8704C162.183 59.0515 160.082 58.2526 157.981 57.4536C156.47 56.8744 156.37 56.9143 155.51 58.3225C154.359 60.2 153.239 62.0975 152.168 64.0249C151.558 65.1334 150.717 65.7626 149.477 66.0122C147.316 66.4417 145.185 67.0109 143.024 67.4603C142.043 67.6701 141.763 68.1494 141.773 69.0882C141.793 71.0855 141.963 73.0729 142.183 75.0502C142.383 76.8379 142.173 78.3259 140.812 79.724C139.342 81.242 137.831 82.74 136.45 84.3579C135.85 85.0569 135.76 85.4864 136.41 86.2354C137.881 87.9431 139.512 89.4811 141.013 91.1488C141.993 92.2374 142.433 93.3759 142.233 94.774C141.753 98.0696 142.453 98.2694 138.491 98.2594C122.293 98.2394 106.096 98.2194 89.8977 98.2894C87.9167 98.2894 86.6761 97.6702 85.6156 95.9924C82.1839 90.5397 78.5721 85.1968 75.1605 79.724C74.6502 78.9051 74.0099 78.1961 73.2895 77.5669C72.9994 77.3172 72.6292 77.1474 72.259 77.3472C71.8188 77.5769 71.8188 77.9963 71.9189 78.4357C72.159 79.4843 72.4591 80.523 72.7693 81.5616C72.9394 82.1208 73.4096 82.9198 72.7393 83.2393C72.109 83.5389 71.7088 82.72 71.3386 82.2407C69.8679 80.3232 68.4472 78.3758 66.8964 76.5283C65.8459 75.2899 64.8454 74.0116 63.6148 72.943C63.2747 72.6534 62.9245 72.224 62.4242 72.4837C61.844 72.7832 62.0641 73.3525 62.1641 73.8219C62.2642 74.3112 62.4943 74.7606 62.6443 75.24C62.7544 75.5895 62.9345 76.019 62.5643 76.2686C62.1841 76.5183 61.864 76.1787 61.5938 75.9291C60.9935 75.3498 60.5033 74.6707 59.873 74.1215C59.3828 73.702 58.8925 72.9331 58.2022 73.3525C57.4718 73.8119 57.932 74.6208 58.1121 75.2799C58.3222 76.0389 58.7625 76.718 58.9625 77.487C59.0326 77.7666 59.1026 78.1162 58.8125 78.2859C58.5223 78.4557 58.2522 78.226 58.0421 78.0363C57.3418 77.3871 56.8615 76.5283 56.1112 75.9191C55.731 75.6095 55.3808 75.1501 54.8105 75.4697C54.1702 75.8292 54.4003 76.3785 54.5804 76.8978C55.5509 79.714 57.2317 82.1608 58.7424 84.6974C59.1126 85.3166 59.953 86.1055 59.3227 86.6548C58.6424 87.244 58.0821 86.2054 57.5318 85.776C56.9416 85.3166 56.4013 84.8073 55.761 84.4078C55.4408 84.2081 55.1207 83.9384 54.7405 84.2081C54.2803 84.5376 54.5404 84.9571 54.6805 85.3366C55.0807 86.4351 55.5609 87.4937 56.1212 88.5123C58.9525 93.6555 61.4238 98.9585 63.8049 104.321C64.3152 105.48 64.5853 106.668 64.5853 107.947C64.5853 160.577 64.5853 213.197 64.5853 265.827C64.5853 266.076 64.5853 266.326 64.5753 266.576C64.4853 267.954 64.1451 268.293 62.7244 268.363C62.2241 268.383 61.7239 268.373 61.2237 268.373C52.5994 268.373 43.9852 268.353 35.361 268.383C30.4786 268.403 26.8069 271.419 25.7363 276.183C25.5763 276.882 25.6063 277.591 25.6063 278.29C25.6063 283.613 25.6063 288.936 25.6063 294.249C25.6063 294.668 25.6163 295.078 25.5963 295.497C25.5162 296.875 25.1661 297.215 23.7454 297.285C23.6253 297.285 23.4952 297.285 23.3752 297.285C16.2117 297.285 9.04818 297.295 1.88469 297.275C1.22436 297.275 -4.09827e-05 297 -4.09827e-05 297C-0.0100459 274.55 0.0337832 251.735 0.0337832 229.285C0.0337832 153.386 -6.10352e-05 75.8989 -6.10352e-05 -0.000244141Z" fill="#A1C9FF"/>
<path d="M4.13246e-05 297C7.87389 297 15.9215 296.845 23.7954 296.875C24.8359 296.875 25.1961 296.705 25.1761 295.557C25.106 289.784 25.136 284.002 25.146 278.22C25.146 272.248 29.4682 267.923 35.4511 267.923C44.5655 267.923 53.69 267.893 62.8044 267.953C63.925 267.953 64.1451 267.664 64.1451 266.595C64.1151 214.384 64.1051 162.174 64.1651 109.963C64.1651 107.317 63.6548 104.94 62.5443 102.563C60.2132 97.5597 57.752 92.6263 55.2407 87.7228C54.9006 87.0637 54.5604 86.3846 54.3003 85.6955C54.0602 85.0563 53.5999 84.3073 54.3203 83.7481C55.0106 83.2188 55.6709 83.7181 56.2312 84.1575C56.8515 84.6469 57.4618 85.1562 58.0021 85.7255C58.4023 86.1449 58.6924 86.6542 59.1726 87.0137C59.4428 86.3546 59.0526 86.045 58.8325 85.6855C57.3718 83.3686 55.9011 81.0517 54.7505 78.565C54.4604 77.9258 54.2102 77.2667 54.0101 76.5876C53.82 75.9285 53.9901 75.3293 54.6404 74.9997C55.2307 74.7001 55.771 74.8299 56.2112 75.3293C57.0416 76.258 57.862 77.1868 58.7324 78.1755C58.3122 77.077 57.862 76.0583 57.5218 74.9897C57.2917 74.2507 57.0116 73.3619 57.892 72.8626C58.6824 72.4132 59.3327 72.9624 59.873 73.4917C60.7734 74.3805 61.6138 75.3293 62.6043 76.3879C62.2041 75.2194 61.6439 74.2807 61.5338 73.1921C61.4838 72.7128 61.5038 72.2434 61.924 71.9538C62.3942 71.6242 62.8745 71.804 63.3047 72.1136C64.8554 73.2121 66.016 74.6901 67.1866 76.1382C69.0575 78.4751 70.8684 80.8519 72.9094 83.4585C72.4391 81.9505 71.9889 80.7521 71.7188 79.5137C71.5087 78.555 70.8884 77.2667 72.139 76.7274C73.1795 76.278 74.0099 77.2967 74.5502 78.0956C76.6212 81.1515 78.6021 84.2774 80.6131 87.3733C82.6941 90.579 84.7952 93.7648 86.8462 96.9905C87.2264 97.5797 87.6065 97.8294 88.3269 97.8294C105.735 97.8094 123.134 97.8094 140.542 97.8294C141.323 97.8294 141.473 97.5997 141.653 96.8407C142.333 93.9445 141.473 91.7475 139.202 89.8799C137.871 88.7714 136.811 87.3333 135.58 86.105C134.99 85.5157 135.07 85.1163 135.61 84.557C137.481 82.6096 139.292 80.6023 141.183 78.6648C141.693 78.1455 141.913 77.6462 141.853 76.9172C141.623 74.1409 141.493 71.3645 141.233 68.5882C141.153 67.6794 141.463 67.3299 142.303 67.1501C144.865 66.6009 147.396 65.9517 149.967 65.4424C150.717 65.2926 151.108 64.9331 151.458 64.3139C152.818 61.9371 154.249 59.6002 155.6 57.2134C156.01 56.4843 156.39 56.3345 157.181 56.6441C159.802 57.6927 162.453 58.6614 165.084 59.6901C165.665 59.9198 166.155 59.9297 166.745 59.6901C169.326 58.6714 171.958 57.7427 174.519 56.6841C175.489 56.2846 175.89 56.5143 176.34 57.3931C177.41 59.5003 178.621 61.5376 179.732 63.6248C180.052 64.224 180.422 64.5336 181.112 64.6834C184.034 65.3026 186.935 66.0516 189.866 66.6708C190.847 66.8805 191.127 67.28 190.997 68.2787C190.627 71.0749 190.397 73.8912 190.057 76.6975C189.947 77.5663 190.187 78.1855 190.767 78.8047C192.528 80.6822 194.219 82.6296 195.989 84.4971C196.58 85.1163 196.59 85.5157 195.999 86.1449C194.199 88.0524 192.498 90.0397 190.697 91.9372C190.077 92.5863 189.977 93.2355 190.117 94.0644C190.537 96.641 190.857 99.2375 191.297 101.814C191.487 102.913 191.127 103.342 190.037 103.542C187.345 104.041 184.684 104.74 181.983 105.21C180.632 105.449 180.092 106.318 180.072 107.417C180.002 112.61 180.042 117.813 180.032 123.006C180.032 123.405 180.172 123.705 180.422 124.005C186.065 130.726 189.936 138.465 193.248 146.515C193.368 146.814 193.488 147.124 193.678 147.633C194.939 146.005 195.999 144.358 197.35 142.989C198.491 141.841 198.921 140.473 199.381 139.045C200.752 134.78 202.313 130.586 204.073 126.461C204.344 125.832 204.434 125.463 203.843 124.893C201.792 122.906 202.303 118.861 204.724 117.363C205.664 116.774 206.725 116.535 207.665 117.174C208.446 117.703 208.626 117.254 208.936 116.744C210.497 114.138 212.167 111.611 214.539 109.634C217.89 106.837 221.132 107.197 223.753 110.692C226.034 113.738 226.925 117.323 227.505 120.989C228.745 128.888 228.375 136.818 227.635 144.727C227.425 146.974 227.595 149.211 227.505 151.448C227.475 152.107 227.815 152.047 228.275 151.997C231.677 151.638 235.069 151.528 238.49 151.868C250.746 153.066 259.26 160.167 262.742 172.101C264.583 178.422 264.823 184.874 264.373 191.365C263.472 204.528 260.371 217.251 256.259 229.744C256.079 230.303 255.989 230.863 255.989 231.452C255.999 243.216 256.009 254.981 255.969 266.745C255.969 267.764 256.269 267.953 257.209 267.943C266.324 267.913 275.448 267.923 284.563 267.923C290.646 267.923 294.958 272.208 294.968 278.25C294.968 284.072 294.988 289.884 294.948 295.706C294.948 296.625 295.148 296.885 296.098 296.875C304.052 296.835 312.046 297 320 297V298C214.278 298 105.712 298 -6.10352e-05 298L4.13246e-05 297Z" fill="#041C42"/>
<path d="M179.051 109.085V110.394C179.051 128.35 179.061 146.306 179.021 164.272C179.021 165.401 179.301 165.69 180.432 165.69C202.043 165.65 223.653 165.66 245.264 165.66C251.287 165.66 254.998 169.365 254.998 175.367C254.998 205.757 254.998 236.147 255.018 266.536C255.018 267.635 254.788 267.964 253.618 267.964C220.892 267.924 188.156 267.924 155.43 267.964C154.269 267.964 154.019 267.645 154.029 266.536C154.069 250.448 154.059 234.359 154.059 218.27C154.059 211.709 149.887 207.565 143.274 207.565C125.405 207.565 107.546 207.565 89.6777 207.565C83.3346 207.565 79.0925 211.779 79.0925 218.091C79.0925 234.259 79.0825 250.428 79.1225 266.606C79.1225 267.695 78.8724 267.984 77.7719 267.964C73.94 267.884 70.1081 267.904 66.2763 267.954C65.4058 267.964 65.0757 267.824 65.0757 266.836C65.1057 213.876 65.0957 160.917 65.1057 107.957C65.1057 102.734 69.0376 98.829 74.2802 98.829C96.2709 98.829 118.252 98.829 140.242 98.7991C141.233 98.7991 141.473 99.0188 141.383 100.027C141.083 103.173 141.133 103.193 144.164 103.922C146.105 104.392 148.036 104.861 149.997 105.25C150.687 105.39 151.068 105.71 151.398 106.309C152.748 108.686 154.189 111.023 155.53 113.41C156 114.249 156.43 114.358 157.301 113.939C159.912 112.661 162.583 111.512 165.205 110.264C165.785 109.984 166.215 110.094 166.725 110.324C169.327 111.532 171.958 112.661 174.529 113.929C175.49 114.398 175.91 114.149 176.36 113.3C177.13 111.852 178.011 110.464 178.841 109.055C178.911 109.075 178.971 109.085 179.041 109.105L179.051 109.085Z" fill="#F6C254"/>
<path d="M159.992 296.855C115.861 296.855 71.719 296.855 27.5874 296.885C26.3868 296.885 26.0967 296.616 26.1067 295.407C26.1767 289.675 26.1367 283.932 26.1367 278.2C26.1367 272.797 30.0186 268.912 35.4012 268.912C118.512 268.912 201.612 268.912 284.723 268.912C290.106 268.912 293.967 272.807 293.977 278.21C293.977 283.992 293.937 289.765 294.007 295.547C294.017 296.685 293.687 296.875 292.637 296.875C248.415 296.845 204.204 296.855 159.982 296.855H159.992Z" fill="#CAE0FF"/>
<path d="M116.591 238.363C116.591 247.801 116.571 257.228 116.621 266.666C116.621 267.714 116.351 267.944 115.32 267.944C103.995 267.904 92.6692 267.904 81.3536 267.944C80.2631 267.944 80.093 267.614 80.093 266.626C80.123 250.377 80.113 234.129 80.113 217.881C80.113 212.398 83.9749 208.563 89.4676 208.553C98.1218 208.553 106.786 208.563 115.44 208.533C116.371 208.533 116.611 208.743 116.611 209.691C116.571 219.249 116.591 228.806 116.591 238.363Z" fill="#F6C254"/>
<path d="M117.591 238.203C117.591 228.725 117.601 219.248 117.571 209.781C117.571 208.862 117.731 208.522 118.762 208.532C127.126 208.582 135.5 208.552 143.864 208.562C149.177 208.562 153.058 212.467 153.058 217.79C153.058 234.078 153.058 250.377 153.088 266.665C153.088 267.704 152.828 267.953 151.798 267.953C140.813 267.913 129.817 267.913 118.832 267.953C117.751 267.953 117.561 267.644 117.571 266.645C117.611 257.168 117.591 247.69 117.591 238.223V238.203Z" fill="#F6C254"/>
<path d="M142.323 101.036C142.503 98.4095 142.643 96.0127 142.824 93.6159C142.894 92.6671 142.573 91.9481 141.913 91.279C140.222 89.5613 138.601 87.7836 136.911 86.0659C136.41 85.5566 136.29 85.217 136.861 84.6478C138.471 83.0299 139.922 81.2423 141.623 79.7243C143.154 78.3661 142.844 76.7583 142.754 75.1304C142.643 73.1531 142.483 71.1657 142.313 69.1883C142.253 68.4693 142.523 68.1597 143.234 68.0099C145.625 67.4906 148.006 66.9114 150.387 66.3721C151.148 66.2023 151.698 65.8827 152.108 65.1337C153.329 62.9167 154.699 60.7795 155.95 58.5824C156.4 57.7935 156.81 57.5538 157.731 57.9433C160.182 58.9619 162.693 59.8408 165.164 60.8195C166.105 61.189 166.875 60.7396 167.676 60.44C169.927 59.5911 172.188 58.7322 174.419 57.8334C175.119 57.5538 175.389 57.8534 175.69 58.3927C176.79 60.39 177.951 62.3574 179.001 64.3747C179.391 65.1337 179.942 65.4533 180.712 65.6331C183.503 66.2722 186.275 66.9613 189.076 67.5605C189.786 67.7103 189.977 67.8401 189.877 68.659C189.516 71.5752 189.306 74.5013 189.036 77.4274C188.966 78.1564 189.246 78.6757 189.736 79.195C191.467 81.0426 193.148 82.9401 194.879 84.7876C195.299 85.237 195.219 85.5166 194.839 85.9261C193.198 87.6937 191.657 89.5413 189.947 91.239C189.136 92.0479 188.916 92.8868 189.076 93.9255C189.466 96.4122 189.847 98.9088 190.267 101.396C190.397 102.174 190.137 102.514 189.356 102.664C186.755 103.173 184.164 103.772 181.562 104.292C180.732 104.451 180.122 104.791 179.692 105.55C178.461 107.717 177.17 109.844 175.95 112.021C175.52 112.8 175.139 113.11 174.209 112.651C171.858 111.502 169.437 110.503 167.065 109.385C166.275 109.015 165.605 109.005 164.814 109.375C162.413 110.503 159.962 111.552 157.561 112.691C156.76 113.07 156.39 112.86 155.98 112.151C154.699 109.914 153.329 107.737 152.078 105.49C151.688 104.781 151.168 104.481 150.447 104.322C148.266 103.822 146.075 103.343 143.904 102.814C142.053 102.364 142.363 102.694 142.323 101.046V101.036Z" fill="#004079"/>
<path d="M180.052 125.163C181.753 127.071 183.023 128.948 184.224 130.856C187.675 136.308 190.487 142.081 192.798 148.093C192.948 148.492 192.928 149.081 193.508 149.141C194.009 149.191 194.149 148.672 194.399 148.362C195.549 146.894 196.73 145.436 197.81 143.918C198.341 143.169 198.771 142.99 199.721 143.319C206.585 145.696 213.598 147.354 220.922 147.414C222.462 147.424 224.003 147.314 225.514 146.974C226.354 146.785 226.584 147.044 226.544 147.873C226.484 149.201 226.594 150.54 226.504 151.858C226.424 153.056 226.885 153.216 227.965 153.066C233.208 152.347 238.43 152.377 243.563 153.765C253.207 156.372 258.9 162.893 261.742 172.201C263.643 178.462 263.823 184.884 263.392 191.335C262.612 203.12 259.931 214.534 256.509 225.79C256.419 226.089 256.309 226.389 256.019 226.668V225.26C256.019 208.592 256.019 191.925 256.019 175.257C256.019 168.835 251.817 164.631 245.414 164.631C224.093 164.631 202.783 164.631 181.462 164.651C180.352 164.651 180.032 164.411 180.032 163.253C180.082 151.029 180.062 138.815 180.062 126.591V125.133L180.052 125.163Z" fill="#A1C9FF"/>
<path d="M226.665 122.527C225.144 121.559 223.533 121.209 221.802 121.728C221.122 121.938 220.492 122.258 219.991 122.777C218.891 123.935 218.941 125.383 220.241 126.322C222.372 127.87 224.654 128.06 226.995 126.782C227.305 127.051 227.205 127.411 227.215 127.73C227.425 133.463 227.235 139.185 226.625 144.898C226.555 145.577 226.344 145.866 225.614 145.996C221.202 146.825 216.82 146.366 212.468 145.647C208.366 144.957 204.354 143.899 200.422 142.551C199.701 142.301 199.471 142.081 199.741 141.242C202.053 133.922 204.764 126.772 208.286 119.931C208.856 118.822 209.436 118.063 210.897 117.913C213.048 117.694 214.959 116.695 216.27 114.877C216.71 114.268 216.9 114.308 217.28 114.897C218.491 116.765 220.001 118.343 221.932 119.501C222.943 120.11 224.033 120.62 225.184 120.67C226.515 120.72 226.785 121.349 226.675 122.527H226.665Z" fill="#CAE0FF"/>
<path d="M62.5145 72.7534C64.3554 74.1415 65.6261 75.7294 66.8667 77.3273C69.3079 80.4831 71.679 83.6789 74.0802 86.8646C74.2003 87.0344 74.3103 87.2142 74.4504 87.364C74.7205 87.6436 74.9406 88.1829 75.4309 87.9032C75.9211 87.6236 75.6109 87.1742 75.4609 86.8047C74.7105 84.9172 73.9101 83.0497 73.2198 81.1422C72.8396 80.0836 72.4194 79.0051 72.5294 77.6668C73.4099 78.1462 73.9101 78.7854 74.3503 79.4744C78.2022 85.4365 82.0541 91.3986 85.896 97.3607C85.956 97.4505 85.986 97.5704 86.0861 97.8101C82.0241 97.8101 78.0421 97.7601 74.0702 97.8201C70.0682 97.88 67.1168 99.7874 65.1859 103.263C64.9858 103.622 64.8257 104.012 64.6456 104.381C64.6256 104.411 64.5756 104.421 64.4255 104.511C61.6341 97.7601 58.0924 91.3786 55.0509 84.7474C57.0919 85.8859 58.5126 87.6336 60.0133 89.2814C61.414 90.8194 62.7146 92.4372 64.0953 93.9852C64.3855 94.3147 64.6756 94.9938 65.2559 94.5844C65.8562 94.1449 65.2659 93.6856 65.0258 93.316C62.3945 89.3313 59.7032 85.3866 57.302 81.2621C56.5716 80.0137 55.9313 78.7055 55.321 77.3872C55.1109 76.9378 54.6107 76.2887 55.151 75.9491C55.6012 75.6695 55.9413 76.4085 56.2415 76.758C58.4626 79.4045 60.4135 82.2408 62.3645 85.087C63.9152 87.344 65.446 89.621 66.9867 91.8879C67.2068 92.2175 67.4269 92.7568 67.9172 92.4772C68.4875 92.1476 68.0873 91.6682 67.8572 91.2987C65.496 87.4438 62.9548 83.6988 60.7937 79.7141C59.9433 78.1462 59.0729 76.5983 58.5426 74.8805C58.4326 74.521 58.2825 74.1815 58.4626 73.752C59.393 74.1315 59.9833 74.9005 60.5836 75.6196C64.0353 79.794 66.8066 84.4279 69.7481 88.9518C70.0682 89.4412 70.2983 90.5098 71.0787 90.0404C71.8691 89.571 71.0187 88.842 70.7386 88.3427C68.6075 84.4478 66.0663 80.7927 64.0553 76.8379C63.425 75.6096 62.7046 74.4012 62.5246 72.7334L62.5145 72.7534Z" fill="#CAE0FF"/>
<path d="M216.63 111.801C215.619 115.207 213.268 116.595 209.846 117.124C211.867 113.979 213.668 111.013 216.86 109.295C218.631 108.346 220.181 108.606 221.682 109.944C224.484 112.441 225.384 115.856 226.194 119.301C226.364 120.021 225.794 119.771 225.494 119.731C223.393 119.441 221.692 118.373 220.191 116.935C218.741 115.536 217.68 113.849 216.62 111.801H216.63Z" fill="#CAE0FF"/>
<path d="M204.934 124.434C202.863 123.276 203.313 119.251 205.414 118.143C205.814 117.933 206.235 117.723 206.715 117.863C207.505 118.093 208.066 118.352 207.475 119.401C206.555 121.009 205.794 122.717 204.934 124.444V124.434Z" fill="#CAE0FF"/>
<path d="M223.263 122.567C225.304 122.527 226.805 123.616 226.715 124.964C226.624 126.292 225.204 126.811 222.573 126.412C223.123 125.853 223.883 125.533 224.023 124.714C224.173 123.885 223.933 123.186 223.253 122.567H223.263Z" fill="#CAE0FF"/>
<path d="M124.084 175.127C124.084 171.093 124.084 167.068 124.084 163.034C124.084 159.748 126.165 157.671 129.457 157.671C135.87 157.671 142.283 157.671 148.686 157.671C151.978 157.671 154.059 159.748 154.059 163.034C154.059 171.093 154.059 179.162 154.059 187.221C154.059 190.507 151.978 192.584 148.686 192.584C142.273 192.584 135.86 192.584 129.457 192.584C126.165 192.584 124.084 190.507 124.084 187.221C124.084 183.187 124.084 179.162 124.084 175.127Z" fill="#041C42"/>
<path d="M109.087 175.078C109.087 179.152 109.087 183.227 109.087 187.301C109.087 190.507 106.976 192.584 103.765 192.594C97.3114 192.594 90.8583 192.594 84.4051 192.594C81.2036 192.594 79.1125 190.487 79.1125 187.281C79.1125 179.172 79.1125 171.073 79.1125 162.964C79.1125 159.758 81.2136 157.681 84.4351 157.671C90.8883 157.671 97.3414 157.671 103.795 157.671C107.006 157.671 109.087 159.778 109.087 162.984C109.087 167.018 109.087 171.043 109.087 175.078Z" fill="#041C42"/>
<path d="M154.069 130.227C154.069 134.261 154.069 138.286 154.069 142.321C154.069 145.606 151.988 147.684 148.696 147.684C142.283 147.684 135.87 147.684 129.467 147.684C126.175 147.684 124.094 145.606 124.094 142.321C124.094 134.261 124.094 126.192 124.094 118.133C124.094 114.847 126.175 112.77 129.467 112.77C135.88 112.77 142.293 112.77 148.696 112.77C151.988 112.77 154.069 114.847 154.069 118.133C154.069 122.168 154.069 126.192 154.069 130.227Z" fill="#041C42"/>
<path d="M79.1125 130.237C79.1125 126.202 79.1125 122.178 79.1125 118.143C79.1125 114.858 81.1936 112.78 84.4852 112.78C90.8983 112.78 97.3114 112.78 103.715 112.78C107.006 112.78 109.087 114.858 109.087 118.143C109.087 126.202 109.087 134.272 109.087 142.331C109.087 145.617 107.006 147.694 103.715 147.694C97.3014 147.694 90.8883 147.694 84.4852 147.694C81.1936 147.694 79.1125 145.617 79.1125 142.331C79.1125 138.296 79.1125 134.272 79.1125 130.237Z" fill="#041C42"/>
<path d="M181.052 193.592C181.052 190.686 181.052 187.77 181.052 184.864C181.062 181.738 183.173 179.641 186.295 179.621C187.876 179.621 189.457 179.601 191.037 179.621C193.869 179.671 196.02 181.788 196.03 184.604C196.05 190.586 196.06 196.568 196.03 202.56C196.02 205.386 193.869 207.504 191.037 207.544C189.376 207.564 187.706 207.574 186.045 207.544C183.213 207.494 181.082 205.376 181.052 202.56C181.022 199.564 181.052 196.578 181.052 193.582V193.592Z" fill="#041C42"/>
<path d="M221.022 193.613C221.022 196.519 221.032 199.435 221.022 202.341C221.012 205.457 218.891 207.544 215.759 207.554C214.179 207.554 212.598 207.574 211.017 207.554C208.196 207.504 206.055 205.367 206.045 202.541C206.025 196.599 206.025 190.657 206.045 184.715C206.055 181.748 208.196 179.641 211.187 179.621C212.808 179.611 214.439 179.591 216.059 179.621C218.881 179.671 220.982 181.808 221.032 184.635C221.032 184.675 221.032 184.715 221.032 184.754C221.032 187.701 221.032 190.657 221.032 193.603L221.022 193.613Z" fill="#041C42"/>
<path d="M231.017 193.562C231.017 190.656 231.007 187.74 231.017 184.834C231.027 181.718 233.148 179.641 236.289 179.621C237.87 179.621 239.451 179.591 241.032 179.621C243.853 179.671 245.984 181.808 245.994 184.634C246.014 190.576 246.014 196.518 245.994 202.46C245.984 205.426 243.833 207.524 240.852 207.544C239.231 207.554 237.6 207.574 235.979 207.544C233.158 207.494 231.037 205.357 231.017 202.53C230.997 199.534 231.017 196.548 231.017 193.552V193.562Z" fill="#041C42"/>
<path d="M181.052 231.443C181.052 228.537 181.042 225.62 181.052 222.714C181.072 219.658 183.183 217.551 186.235 217.531C187.856 217.521 189.486 217.501 191.107 217.531C193.868 217.591 196.02 219.708 196.03 222.455C196.06 228.477 196.06 234.509 196.03 240.531C196.01 243.287 193.858 245.404 191.107 245.454C189.446 245.484 187.776 245.474 186.115 245.454C183.213 245.414 181.082 243.297 181.062 240.401C181.042 237.405 181.062 234.419 181.062 231.423L181.052 231.443Z" fill="#041C42"/>
<path d="M221.022 231.652C221.022 234.518 221.032 237.385 221.022 240.251C221.012 243.367 218.891 245.454 215.759 245.474C214.179 245.474 212.598 245.494 211.017 245.474C208.196 245.424 206.055 243.287 206.045 240.471C206.025 234.528 206.025 228.586 206.045 222.644C206.045 219.678 208.196 217.571 211.187 217.551C212.808 217.541 214.439 217.521 216.059 217.551C218.881 217.601 220.982 219.728 221.032 222.554C221.032 222.594 221.032 222.634 221.032 222.674C221.032 225.67 221.032 228.656 221.032 231.652H221.022Z" fill="#041C42"/>
<path d="M246.014 231.482C246.014 234.388 246.014 237.305 246.014 240.211C246.004 243.346 243.903 245.454 240.781 245.464C239.241 245.464 237.7 245.474 236.159 245.464C233.178 245.434 231.037 243.327 231.027 240.37C231.007 234.468 231.007 228.566 231.027 222.664C231.027 219.688 233.168 217.561 236.129 217.531C237.67 217.521 239.211 217.531 240.751 217.531C243.893 217.551 246.004 219.638 246.014 222.754C246.024 225.66 246.014 228.576 246.014 231.482Z" fill="#041C42"/>
<path d="M163.574 95.2834C163.424 95.1835 163.204 95.0637 163.034 94.9039C159.892 91.9478 156.76 88.9718 153.609 86.0257C153.029 85.4864 153.099 85.1169 153.639 84.6076C154.729 83.5789 155.79 82.5303 156.81 81.4318C157.371 80.8326 157.751 80.8326 158.321 81.4318C159.842 83.0197 161.443 84.5377 162.963 86.1255C163.434 86.6149 163.674 86.6648 164.194 86.1255C167.506 82.74 170.887 79.4244 174.199 76.029C174.859 75.3499 175.31 75.3898 175.96 75.9391C177.07 76.8778 177.981 78.0163 179.171 78.8852C179.882 79.4045 179.402 79.8739 178.961 80.3133C176.72 82.5403 174.489 84.7773 172.258 87.0044C169.727 89.531 167.196 92.0477 164.654 94.5643C164.364 94.8539 164.134 95.2235 163.574 95.2734V95.2834Z" fill="#041C42"/>
<path d="M213.378 125.732C211.817 125.653 210.347 125.303 209.166 124.165C208.326 123.356 208.256 122.407 208.836 121.458C209.736 119.99 211.227 119.571 212.818 119.621C214.419 119.671 215.859 120.2 216.64 121.748C217.38 123.226 216.84 124.664 215.319 125.343C214.709 125.613 214.068 125.772 213.378 125.732Z" fill="#041C42"/>
<path d="M217.39 138.466C213.908 138.476 210.807 136.149 209.926 133.303C209.806 132.924 209.896 132.804 210.197 132.644C210.547 132.464 210.707 132.584 210.867 132.904C211.117 133.423 211.387 133.942 211.697 134.422C213.468 137.118 215.919 138.027 219.011 137.148C220.302 136.779 221.472 136.159 222.583 135.43C222.893 135.231 223.133 135.101 223.403 135.49C223.703 135.92 223.393 136.09 223.113 136.269C221.212 137.518 219.191 138.416 217.38 138.466H217.39Z" fill="#041C42"/>
<path d="M218.05 133.522C217.28 133.373 216.27 133.163 215.249 133.003C214.889 132.943 214.749 132.833 214.789 132.454C214.849 131.974 215.129 131.964 215.499 132.034C216.27 132.184 217.05 132.314 217.82 132.464C218.741 132.644 219.121 132.434 218.921 131.375C218.441 128.809 218.05 126.232 217.63 123.655C217.57 123.296 217.25 122.827 217.95 122.677C218.661 122.527 218.531 123.086 218.601 123.446C219.071 126.182 219.541 128.909 219.981 131.645C220.171 132.843 219.501 133.562 218.06 133.522H218.05Z" fill="#041C42"/>
<path d="M153.069 175.127C153.069 179.112 153.069 183.107 153.069 187.091C153.069 189.988 151.488 191.585 148.626 191.585C142.263 191.585 135.89 191.585 129.527 191.585C126.716 191.585 125.085 189.988 125.085 187.211C125.085 179.152 125.085 171.093 125.085 163.033C125.085 160.257 126.716 158.659 129.527 158.659C135.89 158.659 142.263 158.659 148.626 158.659C151.488 158.659 153.069 160.257 153.069 163.153C153.069 167.138 153.069 171.133 153.069 175.117V175.127Z" fill="white"/>
<path d="M108.097 175.137C108.097 179.172 108.097 183.197 108.097 187.231C108.097 189.958 106.476 191.595 103.775 191.595C97.3214 191.595 90.8783 191.595 84.4251 191.595C81.7839 191.595 80.123 189.958 80.113 187.341C80.113 179.202 80.113 171.053 80.113 162.913C80.113 160.357 81.7739 158.679 84.3051 158.669C90.8383 158.659 97.3715 158.659 103.905 158.669C106.436 158.669 108.087 160.357 108.087 162.913C108.097 166.988 108.087 171.053 108.087 175.127L108.097 175.137Z" fill="white"/>
<path d="M153.069 130.297C153.069 134.281 153.069 138.276 153.069 142.261C153.069 145.067 151.468 146.695 148.686 146.695C142.273 146.695 135.87 146.695 129.457 146.695C126.726 146.695 125.085 145.077 125.085 142.381C125.085 134.281 125.085 126.182 125.085 118.073C125.085 115.376 126.736 113.769 129.467 113.769C135.88 113.769 142.283 113.769 148.696 113.769C151.468 113.769 153.069 115.396 153.079 118.203C153.079 122.237 153.079 126.262 153.079 130.297H153.069Z" fill="white"/>
<path d="M108.097 130.237C108.097 134.271 108.097 138.296 108.097 142.331C108.097 145.057 106.476 146.695 103.775 146.695C97.3214 146.695 90.8783 146.695 84.4251 146.695C81.7839 146.695 80.113 145.057 80.113 142.441C80.113 134.301 80.113 126.152 80.113 118.013C80.113 115.456 81.7739 113.779 84.3051 113.769C90.8383 113.759 97.3715 113.759 103.905 113.769C106.436 113.769 108.087 115.446 108.087 118.013C108.097 122.088 108.087 126.152 108.087 130.227L108.097 130.237Z" fill="white"/>
<path d="M182.053 193.593C182.053 190.687 182.053 187.78 182.053 184.874C182.063 182.258 183.714 180.63 186.355 180.62C187.856 180.62 189.346 180.61 190.847 180.62C193.338 180.64 195.029 182.288 195.039 184.734C195.059 190.627 195.059 196.529 195.039 202.421C195.039 204.878 193.348 206.525 190.867 206.545C189.326 206.555 187.786 206.555 186.255 206.545C183.724 206.525 182.073 204.868 182.063 202.301C182.053 199.395 182.063 196.489 182.063 193.583L182.053 193.593Z" fill="white"/>
<path d="M207.035 193.463C207.035 190.637 207.035 187.82 207.035 184.994C207.035 182.278 208.656 180.64 211.347 180.62C212.888 180.62 214.429 180.6 215.959 180.62C218.291 180.65 220.001 182.308 220.011 184.625C220.031 190.607 220.041 196.589 220.011 202.561C220.011 204.858 218.281 206.526 215.949 206.555C214.329 206.575 212.708 206.575 211.087 206.555C208.706 206.526 207.045 204.838 207.035 202.431C207.015 199.445 207.035 196.449 207.035 193.463Z" fill="white"/>
<path d="M232.017 193.503C232.017 190.637 232.017 187.77 232.017 184.904C232.017 182.278 233.668 180.63 236.289 180.62C237.87 180.62 239.451 180.59 241.031 180.62C243.283 180.66 244.993 182.338 245.003 184.575C245.033 190.597 245.033 196.619 245.003 202.641C244.993 204.868 243.253 206.516 240.991 206.556C239.371 206.585 237.75 206.576 236.129 206.556C233.738 206.526 232.047 204.858 232.027 202.471C232.007 199.485 232.027 196.489 232.027 193.503H232.017Z" fill="white"/>
<path d="M182.053 231.422C182.053 228.556 182.053 225.69 182.053 222.824C182.053 220.197 183.704 218.539 186.315 218.529C187.896 218.529 189.476 218.499 191.057 218.529C193.308 218.569 195.019 220.237 195.029 222.474C195.059 228.496 195.059 234.518 195.029 240.54C195.019 242.767 193.278 244.425 191.027 244.455C189.406 244.485 187.786 244.475 186.165 244.455C183.764 244.425 182.083 242.767 182.063 240.38C182.043 237.394 182.063 234.398 182.063 231.412L182.053 231.422Z" fill="white"/>
<path d="M207.035 231.373C207.035 228.506 207.035 225.64 207.035 222.774C207.045 220.217 208.696 218.55 211.227 218.53C212.808 218.52 214.389 218.51 215.969 218.53C218.3 218.56 220.011 220.227 220.021 222.534C220.041 228.516 220.051 234.498 220.021 240.47C220.021 242.767 218.29 244.425 215.959 244.465C214.419 244.485 212.878 244.475 211.347 244.465C208.706 244.455 207.055 242.817 207.045 240.211C207.035 237.265 207.045 234.319 207.045 231.363L207.035 231.373Z" fill="white"/>
<path d="M245.014 231.512C245.014 234.418 245.014 237.324 245.014 240.231C245.004 242.787 243.353 244.445 240.822 244.465C239.241 244.475 237.66 244.485 236.079 244.465C233.758 244.435 232.047 242.767 232.037 240.46C232.017 234.478 232.007 228.496 232.037 222.524C232.037 220.227 233.768 218.569 236.099 218.539C237.68 218.519 239.261 218.519 240.842 218.539C243.323 218.559 245.004 220.217 245.014 222.674C245.034 225.62 245.014 228.566 245.014 231.522V231.512Z" fill="white"/>
<path d="M163.634 94.0652C163.394 93.8654 163.194 93.7156 163.014 93.5459C160.322 91.0192 157.631 88.4726 154.93 85.9659C154.429 85.5066 154.339 85.187 154.9 84.6976C155.8 83.9087 156.58 82.4506 157.521 82.3607C158.481 82.2709 159.252 83.8188 160.112 84.6477C161.043 85.5365 161.963 86.4453 162.793 87.434C163.524 88.2929 163.984 87.9233 164.584 87.3042C167.826 83.9686 171.107 80.663 174.339 77.3174C174.909 76.7282 175.29 76.5285 175.88 77.2675C176.29 77.7768 176.8 78.2362 177.351 78.6057C178.341 79.2648 178.211 79.7342 177.401 80.5232C173.058 84.7575 168.766 89.0518 164.464 93.3262C164.204 93.5858 163.934 93.8255 163.654 94.0852L163.634 94.0652Z" fill="#A1C9FF"/>
<path d="M211.597 124.444C213.478 123.356 213.698 122.477 212.608 120.649C213.918 120.639 214.999 120.949 215.699 122.087C216.089 122.717 216.149 123.396 215.609 123.925C214.479 125.044 213.108 124.814 211.607 124.444H211.597Z" fill="#CAE0FF"/>
</g>
<defs>
<clipPath id="clip0_1_1524">
<rect width="320" height="298" fill="white"/>
</clipPath>
</defs>
</svg>
