<svg viewBox="0 0 321 298" fill="none" xmlns="http://www.w3.org/2000/svg">
<g clip-path="url(#clip0_960_629)">
<path d="M0.03 231.99C0.03 155.06 0.03 78.13 0 1.2C0 0.17 0.23 0 1.23 0C107.47 0.03 213.7 0.03 319.94 0.03C320.19 0.55 320.06 1.1 320.06 1.63C320.06 83.81 320.06 165.99 320.06 248.17C320.02 248.8 319.52 248.83 319.07 248.9C318.58 248.98 318.07 248.95 317.57 248.95C302.83 248.95 288.08 248.92 273.34 248.98C271.49 248.98 270.24 248.39 269.12 246.92C264.23 240.55 260.57 233.53 257.71 226.06C257.23 224.8 257.38 224.4 258.53 223.67C259.48 223.06 260.49 222.57 261.43 221.95C263.78 220.41 264.39 218 263.04 215.55C262.64 214.82 262.19 214.11 261.82 213.37C261.27 212.27 261.41 211.71 262.44 211.05C263.31 210.48 264.23 209.99 265.12 209.45C268.07 207.65 268.7 205.38 266.98 202.39C264.04 197.26 261.08 192.14 258.12 187.02C256.66 184.5 255.21 181.96 253.73 179.45C253.03 178.27 252.97 178.26 251.8 178.94C240.7 185.36 229.57 191.75 218.48 198.19C217.69 198.65 216.89 199.09 216.09 199.56C214.92 200.25 214.89 200.32 215.54 201.48C217.94 205.72 220.41 209.92 222.85 214.14C224.82 217.57 226.78 221.01 228.79 224.41C230.56 227.41 232.91 228.04 235.94 226.31C236.7 225.88 237.45 225.43 238.22 225.02C239.68 224.24 240.25 224.4 241.09 225.79C241.41 226.32 241.72 226.87 242.05 227.4C243.73 230.15 246.15 230.78 248.97 229.19C249.99 228.62 250.98 228.01 252 227.44C253.32 226.7 253.86 226.88 254.38 228.27C256.85 234.94 259.96 241.28 264 247.14C264.88 248.42 264.62 248.86 263.03 248.93C262.53 248.95 262.03 248.94 261.53 248.94C211.47 248.94 161.41 248.94 111.35 248.94C108.23 248.94 108.22 248.94 108.3 245.83C108.37 243.21 108.54 240.6 108.77 237.98C108.87 236.88 109.38 236.37 110.48 236.23C116.81 235.43 122.85 233.66 128.55 230.73C138.69 225.5 145.3 217.38 148.53 206.48C150.22 200.79 151.12 194.97 151.61 189.05C152.05 183.69 152.2 178.32 152.02 172.96C151.78 165.81 151.27 158.68 150.41 151.57C150.07 148.76 149.73 145.95 149.38 143.14C149.26 142.16 149.48 141.33 150.35 140.74C156.73 136.39 161.23 130.39 165.08 123.84C165.4 123.3 165.72 122.76 166.18 122.33C169.95 118.82 172.64 114.51 175.18 110.1C179.18 103.16 182.59 95.93 185.4 88.43C186 86.83 186.5 85.2 186.86 83.52C186.89 83.36 186.96 83.19 186.96 83.03C186.95 82.37 187.4 81.45 186.54 81.16C185.77 80.9 185.48 81.79 185.14 82.32C184.6 83.16 184.25 84.11 183.75 84.97C183.55 85.32 183.32 85.84 182.86 85.7C182.32 85.53 182.43 84.95 182.52 84.51C183 82.02 183.59 79.55 183.94 77.03C184.08 76.03 184.07 75.04 184.03 74.04C184.01 73.6 183.93 73.18 183.44 73.05C182.9 72.91 182.61 73.27 182.34 73.68C181.84 74.44 181.87 75.48 181.04 76.05C180.35 75.97 180.46 75.41 180.39 74.96C180.3 74.51 180.39 74.04 180.3 73.59C180.18 72.99 180.19 72.2 179.45 72.08C178.81 71.97 178.49 72.64 178.2 73.14C177.88 73.68 177.71 74.29 177.44 74.85C177.25 75.24 177.17 75.76 176.58 75.79C175.78 75.16 176.41 74.11 175.88 73.4C175.24 72.47 174.97 72.43 174.39 73.32C173.55 74.62 173.01 76.07 172.51 77.53C171.7 79.89 170.92 82.27 170.21 84.67C170.14 84.91 170.08 85.15 169.98 85.38C169.8 85.83 169.7 86.52 169.12 86.43C168.54 86.34 168.6 85.65 168.59 85.17C168.56 83.92 168.59 82.66 168.19 81.46C168.06 81.08 167.98 80.59 167.45 80.57C167.01 80.55 166.86 80.96 166.65 81.28C165.72 82.73 165.49 84.4 165.26 86.04C164.95 88.23 164.41 90.37 164.02 92.54C163.08 97.76 159.9 101.65 156.52 105.43C153.92 108.34 150.98 110.84 147.43 112.55C145.04 113.7 144.58 113.46 144.13 110.88C142.39 100.95 140.59 91.04 139.21 81.05C138.35 74.78 137.63 68.5 137.26 62.18C136.82 54.54 136.99 46.95 138.6 39.44C139.81 33.78 141.78 28.42 145.78 24.12C150.9 18.62 157.24 15.96 164.83 16.69C168.69 17.06 172.33 18.2 175.83 19.82C177.64 20.66 177.8 21.15 176.79 22.87C175.99 24.23 175.18 25.6 174.44 26.99C173.14 29.42 173.77 31.76 176.1 33.25C176.91 33.77 177.73 34.25 178.56 34.74C179.44 35.27 179.63 35.93 179.11 36.83C178.65 37.62 178.18 38.41 177.76 39.22C176.47 41.68 177 44.04 179.37 45.5C184.05 48.39 188.87 51.03 193.62 53.8C196.61 55.54 199.62 57.24 202.6 58.99C203.97 59.8 204.11 59.75 204.91 58.35C205.45 57.41 206 56.48 206.56 55.55C207.49 54.01 207.81 53.92 209.33 54.79C212.87 56.82 216.4 58.87 219.94 60.9C220.66 61.32 221.37 61.75 222.12 62.13C223.32 62.74 224.33 62.5 224.95 61.5C225.57 60.49 225.3 59.32 224.16 58.6C221.93 57.21 219.62 55.97 217.36 54.64C215.28 53.42 213.15 52.26 211.09 51C209.93 50.29 209.82 49.96 210.49 48.78C213.35 43.7 216.3 38.67 219.22 33.62C219.91 32.43 220.4 32.33 221.69 33.06C225.82 35.4 229.9 37.84 234.04 40.16C234.47 40.4 234.89 40.69 235.41 40.73C236.35 40.79 237.16 40.61 237.59 39.66C237.97 38.82 237.74 37.84 236.95 37.2C236.34 36.7 235.62 36.34 234.94 35.94C231.27 33.79 227.57 31.71 223.91 29.56C222.44 28.69 222.32 28.27 223.17 26.75C223.78 25.66 224.43 24.59 225.05 23.51C226.13 21.62 226.15 21.6 224.21 20.5C218.49 17.24 212.81 13.91 207.1 10.65C205.29 9.62 203.52 8.52 201.68 7.54C198.97 6.09 196.66 6.72 195.04 9.31C194.22 10.62 193.51 11.99 192.7 13.3C192.08 14.3 191.68 14.4 190.64 13.84C189.72 13.35 188.87 12.75 187.91 12.32C185.6 11.27 183.47 11.85 182 13.94C181.57 14.55 181.25 15.24 180.85 15.87C179.9 17.41 179.55 17.54 177.91 16.83C173.75 15.03 169.46 13.73 164.94 13.31C156.92 12.57 149.67 14.36 143.84 20.22C139.51 24.57 136.87 29.93 135.21 35.79C133.81 40.75 133.29 45.82 133.18 50.97C132.92 63.1 134.49 75.06 136.29 87.01C137.57 95.49 139.04 103.95 140.51 112.4C140.82 114.21 140.45 114.69 138.58 114.65C135.73 114.59 132.96 114.06 130.24 113.22C125.18 111.66 120.37 109.42 115.35 107.76C112.18 106.71 108.93 105.94 105.59 105.73C101.97 105.51 98.45 106.13 95.07 107.44C93.02 108.23 92.98 108.09 91.96 106.17C89.87 102.27 89.51 98.03 89.08 93.76C88.43 87.41 87.27 81.15 85.08 75.12C83.94 72 82.51 69.06 80.05 66.73C79.47 66.18 78.86 65.68 78.16 65.31C76.32 64.36 74.54 64.43 72.9 65.74C70.8 67.43 69.51 69.72 68.39 72.1C67.95 73.04 67.57 74.01 67.19 74.98C66.94 75.61 66.53 76.09 65.78 75.96C64.54 75.75 63.48 75.93 62.67 77.01C61.73 78.28 61.56 79.68 61.91 81.16C62.1 81.99 62.51 82.72 63.19 83.26C64 83.9 64.27 84.69 64.04 85.69C62.81 91.05 61.97 96.48 61.2 101.93C60.93 103.83 60.14 105.61 59.47 107.4C59.08 108.44 58.68 108.55 57.48 108.02C54.61 106.76 51.67 105.72 48.55 105.29C39.15 104.01 31.07 106.84 24.1 113.17C17.15 119.48 13.81 127.53 12.53 136.64C11.56 143.55 11.31 150.5 11.56 157.45C11.84 164.93 12.67 172.38 13.38 179.84C13.74 183.61 13.97 187.39 14.26 191.16C14.61 195.77 15 200.37 15.4 204.97C15.7 208.41 15.93 211.86 16.53 215.27C16.68 216.13 16.87 216.98 17.29 217.77C17.69 218.52 18.16 218.47 18.62 217.86C19.21 217.08 19.39 216.12 19.69 215.21C19.93 214.48 19.89 213.61 20.67 213.13C21.37 213.43 21.08 214.11 21.25 214.62C21.32 217.23 21.26 219.84 21.28 222.44C21.28 223.32 21.44 224.17 21.72 224.99C21.85 225.36 22.09 225.65 22.53 225.64C22.97 225.64 23.16 225.34 23.33 224.97C23.77 223.99 23.58 222.82 24.27 221.92C25.01 221.89 24.93 222.58 25.18 222.98C25.36 223.75 25.42 224.55 25.8 225.26C26.21 226.03 26.73 226.06 27.17 225.31C27.53 224.69 27.68 223.99 27.83 223.3C27.91 222.93 27.98 222.56 28.15 222.23C28.28 221.97 28.42 221.67 28.77 221.7C29.09 221.73 29.26 221.99 29.38 222.26C29.59 222.72 29.57 223.24 29.79 223.7C29.95 224.04 30.08 224.43 30.54 224.42C30.98 224.42 31.18 224.08 31.31 223.72C31.8 222.34 32.09 220.92 32.32 219.48C32.74 216.9 33.08 214.3 33.4 211.7C33.49 211.01 33.38 209.83 34.17 209.81C34.98 209.79 34.87 210.96 35.05 211.65C35.28 212.54 35.46 213.44 35.81 214.28C36.03 214.82 36.28 215.29 36.9 215.55C37.84 215.95 37.97 216.86 38.02 217.76C38.1 219.34 38.13 220.92 38.2 222.49C38.31 225.02 38.56 227.55 38.54 230.09C38.52 232.06 38.18 232.4 36.18 232.4C28.19 232.41 20.19 232.4 12.2 232.4C8.79 232.4 5.37 232.4 1.96 232.4C1.3 232.4 0.61 232.45 0.08 231.92L0.03 231.99Z" fill="#9FC7FD"/>
<path d="M319.94 297.98C213.68 297.98 107.42 297.98 1.15977 298C0.219766 298 0.00976562 297.79 0.00976562 296.85C0.0397656 281.06 0.0297656 265.27 0.0297656 249.48C0.639766 248.88 1.40977 248.99 2.14977 248.99C10.9398 248.99 19.7298 248.99 28.5198 248.99C106.25 248.99 183.97 248.99 261.7 248.99C262.37 248.99 263.03 249.01 263.7 248.99C264.88 248.96 265.74 249.44 266.49 250.35C270.24 254.91 274.47 258.94 279.49 262.09C285.31 265.74 291.6 268.1 298.37 269.26C302.77 270.01 307.19 270.36 311.65 270.21C314.01 270.13 316.37 269.91 318.73 269.67C319.2 269.62 319.64 269.59 320 269.97C320.14 270.8 320.06 271.63 320.06 272.45C320.06 280.5 320.06 288.56 320.06 296.61C320.06 297.06 320.18 297.52 319.94 297.95V297.98Z" fill="#A0C8FE"/>
<path d="M319.91 269.97C310.91 271.18 301.97 271 293.16 268.62C282.05 265.63 273.07 259.42 265.95 250.44C265.36 249.7 264.77 249.46 263.86 249.46C175.91 249.48 87.97 249.48 0.0200195 249.48V248.48C0.63002 247.89 1.41002 247.99 2.15002 247.99C9.27002 247.99 16.39 247.96 23.51 248.01C24.73 248.01 25.46 247.64 26.16 246.61C28.32 243.44 31.39 241.42 34.96 240.11C35.7 239.84 36.46 239.61 37.2 239.34C37.68 239.16 38 238.89 37.93 238.33C37.85 237.72 37.44 237.51 36.88 237.48C36.38 237.46 35.88 237.46 35.38 237.46C24.34 237.46 13.31 237.46 2.27002 237.46C1.49002 237.46 0.67002 237.6 0.0200195 236.97V235.97C0.66002 235.33 1.48002 235.47 2.26002 235.47C13.36 235.47 24.47 235.47 35.57 235.47C36.03 235.47 36.48 235.49 36.94 235.43C37.5 235.35 37.71 235 37.71 234.48C37.71 233.95 37.5 233.6 36.94 233.53C36.48 233.47 36.03 233.49 35.57 233.49C24.47 233.49 13.36 233.49 2.26002 233.49C1.48002 233.49 0.66002 233.63 0.0200195 232.99V231.99C12.29 231.99 24.56 231.98 36.84 232.02C37.91 232.02 38.14 231.75 38.07 230.71C37.81 226.23 37.64 221.74 37.43 217.25C37.4 216.62 37.52 215.94 36.44 216C35.81 216.03 35.57 215.3 35.35 214.76C34.73 213.21 34.52 211.56 34.12 209.67C33.64 213.12 33.21 216.3 32.74 219.47C32.5 221.07 32.22 222.67 31.59 224.18C31.37 224.72 31.13 225.3 30.4 225.27C29.67 225.24 29.45 224.64 29.29 224.09C29.07 223.35 28.96 222.58 28.61 221.81C28.36 222.81 28.17 223.84 27.85 224.82C27.6 225.58 27.42 226.57 26.31 226.48C25.32 226.4 25.19 225.49 25 224.73C24.86 224.17 24.81 223.59 24.72 223.01C24.62 222.37 24.54 221.72 24.38 221.18C24.36 221.41 24.56 221.75 24.3 222.04C24.11 223.1 23.95 224.17 23.73 225.22C23.6 225.85 23.16 226.23 22.5 226.26C21.81 226.3 21.44 225.89 21.22 225.29C20.67 223.73 20.72 222.1 20.7 220.49C20.67 218.58 20.76 216.67 20.8 214.76C21.03 214.11 20.79 213.45 20.84 212.81C20.72 212.94 20.7 213.15 20.56 213.3C20.26 214.81 19.86 216.3 19.23 217.71C18.96 218.32 18.59 218.97 17.79 218.89C17.02 218.82 16.7 218.18 16.51 217.52C15.72 214.78 15.51 211.95 15.27 209.14C14.52 200.6 13.78 192.05 13.13 183.5C12.27 172.13 10.68 160.81 11.02 149.36C11.23 142.36 11.63 135.35 13.79 128.64C17.36 117.56 24.42 109.63 35.65 105.92C43.12 103.45 50.42 104.34 57.48 107.67C57.86 107.85 58.23 108.03 58.66 108.23C59.86 105.1 60.86 101.97 61.22 98.63C61.7 94.16 62.58 89.75 63.64 85.39C63.83 84.61 63.68 84.24 63.01 83.78C60.72 82.19 60.61 77.95 62.77 76.16C63.59 75.48 64.56 75.1499 65.56 75.56C66.31 75.8699 66.48 75.56 66.69 74.98C67.51 72.71 68.52 70.52 69.82 68.48C70.52 67.39 71.34 66.3899 72.35 65.57C74.52 63.82 76.84 63.7999 79.23 65.5299C81.89 67.4499 83.43 70.22 84.69 73.14C86.98 78.49 88.12 84.1499 88.97 89.88C89.46 93.2199 89.81 96.57 90.05 99.93C90.18 101.7 91.21 103.2 91.82 104.83C92.18 105.8 92.41 107.11 93.13 107.55C93.66 107.87 94.9 107.03 95.83 106.71C101.95 104.57 108.03 105.1 114.1 106.95C118.92 108.42 123.49 110.53 128.25 112.17C131.76 113.38 135.34 114.27 139.1 114.26C140.18 114.26 140.32 113.89 140.15 112.93C137.88 100.07 135.63 87.2 134.05 74.23C133.05 66 132.42 57.74 132.73 49.43C133.05 40.74 134.75 32.4 139.51 24.9599C145.43 15.6899 154.07 11.95 164.87 12.91C169.68 13.34 174.25 14.68 178.61 16.74C179.4 17.11 179.78 16.9699 180.14 16.2199C180.53 15.4 181.02 14.62 181.5 13.84C182.98 11.42 185.86 10.68 188.35 12.07C189.26 12.58 190.16 13.09 191.04 13.64C191.58 13.98 191.88 13.91 192.19 13.32C192.96 11.89 193.79 10.4999 194.61 9.10995C196.23 6.34995 199.01 5.55995 201.76 7.13995C209.8 11.75 217.81 16.41 225.86 21.01C226.66 21.47 226.55 21.8 226.18 22.42C225.19 24.0599 224.32 25.76 223.27 27.36C222.67 28.28 222.94 28.62 223.78 29.1C227.8 31.36 231.78 33.7 235.77 36C236.13 36.2099 236.5 36.4 236.85 36.63C238.17 37.47 238.59 38.84 237.9 40.0499C237.17 41.3299 235.72 41.72 234.34 40.93C230.62 38.81 226.93 36.6399 223.21 34.5299C222.22 33.9599 221.14 32.76 220.21 33.08C219.4 33.35 219.01 34.85 218.44 35.82C215.87 40.24 213.34 44.68 210.73 49.08C210.21 49.95 210.41 50.27 211.22 50.7299C215.6 53.2 219.95 55.7299 224.29 58.2599C226.1 59.32 226.19 61.62 224.5 62.65C223.54 63.23 222.61 63.06 221.68 62.52C217.37 60.01 213.03 57.5499 208.74 55C207.9 54.5 207.51 54.58 207.06 55.45C206.3 56.93 205.4 58.33 204.61 59.79C204.3 60.36 204.04 60.42 203.47 60.09C195.35 55.38 187.19 50.7099 179.08 45.9799C176.56 44.5099 175.87 41.56 177.31 39.04C177.81 38.17 178.28 37.2899 178.82 36.4599C179.21 35.8499 179.09 35.5399 178.45 35.2299C177.56 34.7899 176.7 34.27 175.85 33.75C173.28 32.18 172.55 29.3499 174.03 26.7199C174.97 25.0499 175.94 23.41 176.91 21.76C177.15 21.35 177.27 21.07 176.71 20.7999C170.51 17.7999 164.11 15.8699 157.19 17.7099C148.83 19.9399 143.63 25.62 140.72 33.56C137.92 41.18 137.3 49.1199 137.43 57.16C137.57 66.2999 138.76 75.33 140.08 84.36C141.42 93.54 143.07 102.67 144.69 111.8C144.95 113.26 144.94 113.27 146.28 112.67C151.66 110.27 155.44 106.05 159.13 101.65C162.86 97.2 163.78 91.83 164.7 86.42C165.01 84.6199 165.22 82.79 166.13 81.15C166.45 80.56 166.81 79.91 167.62 80.06C168.35 80.2 168.5 80.9 168.64 81.5C169.01 83.08 168.94 84.7 169.17 86.36C169.67 84.76 170.16 83.16 170.66 81.57C171.48 78.95 172.3 76.33 173.5 73.86C173.65 73.56 173.79 73.2599 173.98 72.99C174.31 72.52 174.62 71.9399 175.33 72.06C175.97 72.17 176.11 72.7299 176.24 73.27C176.48 74.1 176.15 74.98 176.44 75.8C176.44 75.82 176.52 75.83 176.55 75.82C176.59 75.81 176.62 75.77 176.65 75.75C177.07 74.58 177.44 73.4 178.16 72.36C178.51 71.87 178.9 71.42 179.57 71.57C180.24 71.72 180.43 72.3 180.51 72.89C180.59 73.5 180.62 74.1199 180.67 74.74C180.44 75.39 180.7 76.03 180.63 76.68C180.67 76.85 180.81 76.61 180.63 76.63C180.58 76.63 180.58 76.6 180.58 76.52C180.59 76.2899 180.72 76.14 180.88 76C181.16 75.22 181.42 74.43 181.73 73.66C182.03 72.91 182.49 72.32 183.41 72.52C184.28 72.7 184.43 73.4 184.46 74.15C184.55 76.59 184.04 78.95 183.58 81.32C183.3 82.77 182.97 84.21 182.85 85.71C183.3 84.79 183.73 83.86 184.19 82.94C184.52 82.27 184.89 81.6199 185.4 81.06C185.76 80.66 186.2 80.4 186.73 80.6C187.26 80.7999 187.41 81.29 187.43 81.82C187.48 83.05 187.15 84.22 186.8 85.37C184.85 91.84 182.01 97.9399 178.96 103.95C176.17 109.44 173.42 115.03 169.25 119.59C166.16 122.97 163.95 126.89 161.26 130.52C158.14 134.73 154.64 138.55 150.17 141.36C149.47 141.8 149.62 142.31 149.7 142.86C150.33 147.44 150.88 152.02 151.31 156.62C152.45 168.66 152.99 180.72 151.64 192.78C150.89 199.5 149.56 206.09 146.81 212.32C142.75 221.5 135.89 227.87 126.9 232.08C121.54 234.59 115.9 236.09 110.03 236.75C109.43 236.82 109.18 236.96 109.14 237.62C108.96 240.99 108.74 244.35 108.49 247.72C108.44 248.41 108.67 248.62 109.31 248.54C109.47 248.52 109.64 248.54 109.81 248.54C160.87 248.54 211.93 248.54 262.99 248.54H264.32C263.55 247.4 262.85 246.4 262.19 245.37C258.76 240.03 256.03 234.34 253.9 228.37C253.56 227.43 253.27 227.11 252.32 227.76C251.19 228.53 249.97 229.17 248.77 229.84C246.15 231.3 243.33 230.54 241.77 227.96C241.28 227.14 240.76 226.33 240.36 225.47C239.99 224.66 239.58 224.71 238.92 225.12C237.83 225.81 236.71 226.44 235.58 227.06C232.97 228.49 230.16 227.78 228.67 225.23C223.97 217.14 219.31 209.03 214.62 200.94C214.27 200.34 214.31 200.08 214.93 199.72C227.4 192.54 239.85 185.35 252.3 178.14C252.95 177.76 253.25 177.79 253.64 178.47C258.29 186.59 262.99 194.67 267.64 202.79C269.06 205.27 268.26 208.1 265.8 209.61C264.74 210.26 263.68 210.94 262.56 211.47C261.56 211.94 261.55 212.43 262.13 213.25C262.66 213.99 263.07 214.82 263.51 215.62C264.84 218.09 264.11 220.88 261.71 222.36C260.58 223.06 259.42 223.71 258.25 224.35C257.76 224.62 257.65 224.88 257.86 225.43C260.92 233.49 264.83 241.06 270.31 247.78C270.84 248.42 271.39 248.54 272.13 248.54C287.54 248.53 302.95 248.54 318.36 248.54C318.86 248.54 319.36 248.55 319.86 248.56C320.11 248.9 320.04 249.25 319.91 249.61C319.23 250.19 318.41 250.01 317.64 250.01C303.32 250.02 289 250.01 274.68 250.02C274.23 250.02 273.77 249.96 273.32 250.08C273.16 250.27 273.32 250.39 273.41 250.5C280.91 258.75 290.19 263.59 301.23 265.07C306.96 265.84 312.68 265.79 318.38 264.85C318.87 264.77 319.37 264.64 319.84 264.94C320.11 265.24 319.97 265.6 320 265.94C319.68 266.7 318.95 266.69 318.31 266.79C313.6 267.55 308.88 267.68 304.12 267.29C298.64 266.84 293.35 265.66 288.27 263.52C281.57 260.7 276.04 256.32 271.18 250.99C264.84 244.02 260.47 235.87 257.01 227.19C256.81 226.7 256.76 225.93 255.86 226.3C255.03 226.65 254.92 227.23 255.21 228.02C256.68 232.01 258.4 235.9 260.42 239.64C263.39 245.12 266.97 250.18 271.4 254.59C279.22 262.37 288.66 266.94 299.53 268.6C303.28 269.17 307.05 269.51 310.85 269.38C313.43 269.29 316 269.11 318.57 268.82C319.06 268.77 319.57 268.62 319.96 269.09C319.99 269.42 320.11 269.76 319.85 270.05L319.91 269.97Z" fill="#041C42"/>
<path d="M0.0297852 236.99C12.3998 236.99 24.7598 236.99 37.1298 236.99C37.6998 236.99 38.4798 236.72 38.4198 237.77C38.3798 238.58 38.9598 239.5 37.4698 239.85C33.6898 240.76 30.2998 242.49 27.6698 245.46C27.2298 245.96 26.7098 246.45 26.4798 247.04C25.9898 248.3 25.1498 248.51 23.8898 248.5C15.9398 248.44 7.98979 248.47 0.0297852 248.47V236.97V236.99Z" fill="#A0C8FE"/>
<path d="M0.0297852 232.99C12.2598 232.99 24.4798 232.99 36.7098 233C37.1998 233 37.9698 232.66 38.1398 233.3C38.3498 234.08 38.3398 234.97 38.1998 235.77C38.1298 236.19 37.4698 235.97 37.0798 235.97C25.5198 235.98 13.9598 235.97 2.38979 235.97H0.0297852V232.97V232.99Z" fill="#F5C154"/>
<path d="M319.91 269.97C319.91 269.66 319.9 269.34 319.89 269.03C319.25 268.02 319.24 267.01 319.89 266V265.06C319.46 264.54 319.42 263.93 319.42 263.3C319.42 259.28 319.42 255.25 319.42 251.23C319.42 250.6 319.42 249.98 319.9 249.48C319.9 249.16 319.9 248.84 319.9 248.52C319.9 247.81 319.93 247.1 319.93 246.4C319.93 164.28 319.93 82.1599 319.93 0.0499106C320.01 0.0999106 320.19 -0.0800894 320.18 0.179911C320.17 0.509911 320.18 0.84991 320.18 1.17991C320.18 99.7499 320.18 198.31 320.16 296.88C320.16 297.25 320.45 297.73 319.93 298C319.93 288.66 319.91 279.33 319.9 269.99L319.91 269.97Z" fill="#FEFEFE"/>
<path d="M176.67 75.7298C176.59 75.9998 176.52 76.2698 176.44 76.5398C176.38 76.5398 176.33 76.5398 176.27 76.5398V73.2598C176.82 74.0198 176.22 74.9598 176.67 75.7298Z" fill="#7497C8"/>
<path d="M20.5702 213.3C20.5102 212.91 20.7002 212.6 20.9902 212.04C21.0302 213.12 21.1002 213.95 20.8102 214.77C20.6102 214.3 20.9402 213.75 20.5702 213.31V213.3Z" fill="#4B6B98"/>
<path d="M24.3201 222.04C24.2701 221.77 24.1901 221.49 24.4501 221.24C24.8501 221.8 24.8101 222.4 24.7401 223.02C24.6001 222.7 24.4601 222.37 24.3201 222.05V222.04Z" fill="#4C6B99"/>
<path d="M180.92 75.9802C180.84 76.2502 180.77 76.5102 180.69 76.7802C180.45 76.0802 180.49 75.4002 180.69 74.7202C180.86 75.1202 180.63 75.6002 180.92 75.9802Z" fill="#7699CB"/>
<path d="M74.1299 165.99C61.8099 166.15 49.4799 166.31 37.1599 166.5C36.3099 166.51 35.9099 166.39 35.8399 165.43C35.2299 157.08 34.4999 148.74 35.4999 140.37C35.6399 139.17 35.8399 137.98 36.2299 136.84C36.3799 136.41 36.2899 136.08 35.8599 135.94C35.3699 135.78 35.3599 136.26 35.2799 136.52C34.3499 139.49 34.1799 142.58 34.0699 145.65C33.8399 152.44 34.3899 159.21 34.8899 165.98C35.3299 171.96 35.4899 177.96 35.8199 183.94C35.8699 184.91 35.4099 184.83 34.7799 184.74C30.7499 184.12 26.7199 183.51 22.6899 182.89C20.1399 182.5 17.5899 182.12 15.0399 181.74C14.5099 181.66 14.0399 181.67 13.9699 180.87C13.2199 172.62 12.2399 164.39 12.0599 156.1C11.8699 147.51 12.0099 138.89 14.3199 130.57C17.8199 117.97 25.5999 109.32 38.6499 106.21C45.4899 104.58 52.0399 105.94 58.1999 109.19C59.0899 109.66 59.4299 109.61 59.6999 108.6C60.1599 106.92 60.8099 105.29 61.2899 103.62C61.5199 102.82 61.9199 102.72 62.6499 102.84C68.6299 103.81 74.6399 104.12 80.6899 103.56C83.31 103.32 85.8999 102.88 88.3399 101.9C89.2899 101.52 89.5099 101.84 89.8099 102.61C90.5599 104.55 91.3899 106.45 92.1799 108.37C92.3599 108.8 92.4599 109.25 93.1299 108.92C101.18 104.94 109.19 106.09 117.21 109.05C121.84 110.76 126.35 112.82 131.13 114.13C133.87 114.88 136.66 115.37 139.51 115.23C140.24 115.19 140.55 115.37 140.67 116.11C142.08 124.69 143.48 133.27 144.7 141.88C144.82 142.76 144.57 143.11 143.73 143.38C138.07 145.2 132.49 144.72 126.93 142.93C123.28 141.75 119.88 139.99 116.41 138.41C115.5 138 114.6 137.55 113.58 137.47C112.17 137.36 111.46 137.95 111.49 139.43C111.56 142.88 111.69 146.34 111.85 149.79C112.07 154.66 112.43 159.52 112.5 164.39C112.51 165.2 112.38 165.55 111.45 165.56C98.9999 165.69 86.5499 165.86 74.1099 166.03C74.1099 166.03 74.1099 166.03 74.1099 166.02L74.1299 165.99Z" fill="#A0C8FE"/>
<path d="M74.37 167.01C86.69 166.85 99.01 166.7 111.34 166.5C112.28 166.48 112.5 166.68 112.44 167.64C111.84 176.82 111.3 186.01 110.74 195.19C110.02 207.03 109.3 218.88 108.58 230.72C108.42 233.3 108.27 235.87 108.14 238.45C108.1 239.15 107.98 239.51 107.1 239.56C100.37 239.97 93.64 240.43 86.91 240.93C85.81 241.01 86.06 240.42 86.09 239.8C86.72 225.71 85.78 211.77 82.21 198.07C81.51 195.38 80.61 192.73 79.14 190.33C76.96 186.77 73.62 186.54 70.91 189.76C68.99 192.04 68.02 194.79 67.24 197.6C65.73 203.07 65.04 208.69 64.5 214.32C63.75 222.2 63.38 230.1 63.22 238.01C63.21 238.74 63.05 239.01 62.26 239.02C55.1 239.14 47.94 239.29 40.78 239.48C39.82 239.51 39.45 239.36 39.4 238.26C38.88 226.36 38.29 214.47 37.72 202.58C37.17 191.31 36.62 180.04 36.05 168.77C36.01 167.93 36 167.45 37.13 167.44C49.54 167.32 61.94 167.14 74.35 166.98C74.35 166.98 74.35 166.99 74.35 167L74.37 167.01Z" fill="#C9DFFE"/>
<path d="M145.02 144C145.5 148.35 146.03 152.6 146.43 156.87C147.19 165 147.67 173.15 147.44 181.32C147.22 189.16 146.37 196.91 144.59 204.57C143.1 211.03 139.67 216.24 134.96 220.71C128.21 227.1 120.08 230.61 110.96 231.96C109.47 232.18 109.5 232.16 109.59 230.72C110.07 223.03 110.53 215.34 111 207.66C111.64 197.1 112.17 186.54 112.95 176C113.61 167.13 113.48 158.28 112.87 149.42C112.65 146.26 112.6 143.1 112.51 139.93C112.47 138.41 112.84 138.14 114.3 138.64C117.14 139.61 119.73 141.14 122.49 142.3C127.13 144.26 131.89 145.63 136.99 145.52C139.7 145.46 142.33 144.91 145.02 144.01V144Z" fill="#A0C8FE"/>
<path d="M199 7.35008C199.9 7.37008 200.67 7.64008 201.4 8.06008C209.06 12.4901 216.72 16.9201 224.4 21.3201C225.11 21.7301 225.3 22.0101 224.82 22.8101C222.27 27.1001 219.78 31.4201 217.33 35.7601C216.9 36.5201 216.6 36.5001 215.94 36.1001C213.98 34.9201 211.97 33.8301 210.02 32.6401C209.3 32.2001 208.93 32.2001 208.5 33.0001C207.22 35.3301 205.89 37.6401 204.52 39.9101C204.12 40.5801 204.21 40.8901 204.87 41.2601C206.9 42.3901 208.9 43.5901 210.93 44.7201C211.57 45.0801 211.85 45.3301 211.38 46.1101C208.98 50.1501 206.64 54.2201 204.32 58.3001C203.93 58.9801 203.68 59.0301 203.01 58.6401C195.32 54.1701 187.61 49.7401 179.91 45.2901C177.55 43.9201 176.96 41.6901 178.31 39.3401C184.02 29.4401 189.75 19.5501 195.44 9.65008C196.26 8.23008 197.41 7.44008 198.99 7.33008L199 7.35008Z" fill="#F5C154"/>
<path d="M267.38 205.2C267.31 206.95 266.41 208.12 264.92 208.98C256.37 213.89 247.85 218.83 239.31 223.76C237.94 224.55 236.59 225.36 235.2 226.13C232.99 227.35 230.79 226.79 229.51 224.6C225 216.83 220.52 209.05 216.01 201.28C215.65 200.67 215.75 200.37 216.36 200.04C217.86 199.23 219.35 198.4 220.79 197.49C221.49 197.05 221.78 197.19 222.17 197.87C224.92 202.71 227.74 207.52 230.48 212.37C230.97 213.24 231.38 213.5 232.24 212.84C233.23 212.1 235 211.83 235.23 210.83C235.43 209.96 234.22 208.76 233.62 207.72C231.25 203.62 228.88 199.51 226.48 195.42C226.09 194.75 226.08 194.41 226.84 193.99C232.05 191.03 237.23 188.04 242.39 185C243.21 184.52 243.48 184.77 243.87 185.46C246.65 190.33 249.49 195.18 252.25 200.07C252.71 200.88 253.07 200.91 253.75 200.43C254.79 199.68 256.6 199.4 256.83 198.35C257.03 197.44 255.8 196.2 255.18 195.12C252.84 191.05 250.5 186.97 248.13 182.92C247.74 182.25 247.68 181.9 248.46 181.51C249.69 180.9 250.87 180.2 252.03 179.47C252.61 179.11 252.88 179.1 253.26 179.76C257.75 187.59 262.27 195.4 266.78 203.21C267.14 203.84 267.31 204.52 267.37 205.23L267.38 205.2Z" fill="#F5C154"/>
<path d="M151.48 177.11C151.48 186.17 150.86 195.16 148.66 203.99C144.48 220.76 133.32 230.28 117.03 234.47C114.93 235.01 112.8 235.39 110.65 235.64C110.2 235.69 109.29 236.23 109.36 235.21C109.41 234.44 108.79 233.18 110.4 233.01C113.55 232.67 116.63 231.96 119.63 230.94C129.13 227.7 136.75 222.04 142.13 213.48C144.62 209.51 145.59 205.04 146.46 200.55C148.69 188.98 148.8 177.3 148.09 165.59C147.04 148.24 144.21 131.12 141.31 114C139.29 102.11 137.16 90.2298 135.58 78.2698C134.31 68.6398 133.37 58.9898 133.75 49.2598C134.09 40.6498 135.82 32.3998 140.64 25.0898C146.39 16.3698 154.66 12.9798 164.89 13.9398C169.45 14.3698 173.78 15.6298 177.93 17.5398C178.32 17.7198 179.37 17.6498 178.74 18.5998C178.3 19.2698 178.28 20.5398 176.76 19.7498C172.74 17.6398 168.45 16.3198 163.9 16.0698C154.22 15.5398 145.46 20.9998 141.11 30.1398C138.43 35.7898 137.28 41.8098 136.74 47.9698C135.89 57.8698 136.89 67.6798 138.15 77.4798C140.43 95.2298 144.06 112.76 146.88 130.42C149.35 145.89 151.36 161.4 151.47 177.1L151.48 177.11Z" fill="#F5C154"/>
<path d="M74.82 231.99C71.65 231.99 68.49 231.99 65.32 231.99C64.74 231.99 64.41 231.94 64.45 231.2C64.91 220.63 65.42 210.07 67.75 199.71C68.33 197.15 69.08 194.64 70.37 192.34C71.25 190.75 72.31 189.35 74.14 188.71C75.45 188.25 76.51 188.56 77.38 189.59C78.91 191.41 79.75 193.59 80.48 195.8C82.46 201.79 83.49 207.98 84.23 214.23C84.87 219.61 85.22 225.01 85.31 230.43C85.33 231.6 85.18 232.09 83.82 232.03C80.83 231.9 77.82 231.99 74.82 231.99Z" fill="#A0C8FE"/>
<path d="M30.3801 224.2C29.6401 221.82 29.7201 219.6 29.7101 217.4C29.6901 213.82 29.7601 210.24 29.7901 206.66C29.7901 206.41 29.7901 206.16 29.7601 205.91C29.7301 205.5 29.8001 204.96 29.2401 204.93C28.5601 204.89 28.6501 205.54 28.6301 205.94C28.5001 208.23 28.4201 210.51 28.3101 212.8C28.1501 216.29 27.9301 219.78 27.2601 223.22C27.1101 223.98 27.0201 224.78 26.3701 225.49C25.6301 223.98 25.6101 222.41 25.5501 220.87C25.3301 215.96 25.6401 211.05 25.7601 206.14C25.7701 205.6 26.3101 204.56 25.3001 204.53C24.4401 204.5 24.8001 205.51 24.7501 206.06C24.2101 212.02 24.0201 218.02 23.0201 223.94C22.9401 224.4 22.9701 225.17 22.4701 225.16C21.9201 225.15 22.0101 224.38 21.9501 223.91C21.5001 220.42 21.7501 216.93 21.8901 213.44C22.0001 210.61 22.2201 207.79 22.3901 204.96C22.4101 204.56 22.5601 204.01 22.0001 203.92C21.3701 203.82 21.3601 204.41 21.2701 204.86C20.5901 208.37 20.0501 211.9 19.0501 215.34C18.8001 216.21 18.6001 217.11 17.9301 217.9C17.2801 217.09 17.1901 216.14 17.0601 215.24C16.0401 208.32 15.6701 201.33 15.0601 194.37C14.7501 190.8 14.5101 187.23 14.1901 183.67C14.1201 182.94 14.1301 182.58 15.0301 182.72C21.7701 183.76 28.5101 184.77 35.2501 185.78C35.9101 185.88 36.0101 186.26 36.0301 186.82C36.2701 192.18 36.5301 197.55 36.7901 202.91C36.9501 206.15 37.1001 209.4 37.2701 212.64C37.3101 213.44 37.2701 214.22 36.7101 214.98C35.9601 213.9 35.7801 212.69 35.5701 211.51C35.2401 209.67 35.0401 207.81 34.7301 205.96C34.6501 205.49 34.8701 204.68 34.0901 204.7C33.4501 204.72 33.5801 205.44 33.5201 205.92C32.8501 211.24 32.4601 216.6 31.3001 221.85C31.1301 222.6 31.0201 223.38 30.4101 224.22L30.3801 224.2Z" fill="#C9DFFE"/>
<path d="M319.91 249.47C319.91 254.67 319.9 259.86 319.89 265.06C315.53 265.81 311.15 266.16 306.73 265.98C293.01 265.42 281.4 260.33 272.27 249.92C272.2 249.84 272.16 249.73 272.02 249.47H319.91Z" fill="#A0C8FE"/>
<path d="M166.15 121.48C165.77 118.89 165.4 116.43 165.05 113.97C164.33 108.9 163.62 103.83 162.9 98.7598C162.85 98.4298 162.79 98.1198 162.92 97.7798C164.71 93.2998 165.34 88.5498 166.22 83.8598C166.4 82.8898 166.67 81.9398 167.42 81.1098C167.89 82.0698 167.92 83.0298 167.95 83.9698C168.02 86.1798 167.99 88.3798 167.79 90.5898C167.75 90.9998 167.51 91.6198 168.18 91.7198C168.79 91.8198 168.84 91.1998 168.96 90.7798C170.4 85.9598 171.7 81.1099 173.5 76.4099C173.91 75.3299 174.3 74.2298 175.18 73.0798C175.51 74.7098 175.28 76.1298 175.11 77.5398C174.59 81.6698 173.58 85.7098 172.88 89.8098C172.78 90.3798 172.73 90.9598 172.68 91.5398C172.65 91.8698 172.62 92.2598 173.08 92.3098C173.49 92.3498 173.64 92.0298 173.72 91.6798C174.14 89.8098 174.54 87.9498 174.97 86.0898C175.88 82.1598 176.72 78.2198 178.21 74.4598C178.68 73.2698 178.7 73.2598 179.46 72.5898C179.96 74.9398 179.42 77.1798 179.09 79.4198C178.47 83.6198 177.45 87.7398 176.58 91.8898C176.54 92.0898 176.48 92.2998 176.47 92.4998C176.45 92.8498 176.25 93.3198 176.75 93.4598C177.34 93.6098 177.39 93.0998 177.49 92.6998C178.32 89.4398 179.12 86.1699 179.98 82.9099C180.72 80.0999 181.44 77.2798 182.49 74.5598C182.64 74.1698 182.67 73.4598 183.23 73.5898C183.74 73.7098 183.52 74.3899 183.51 74.7999C183.35 78.8999 182.25 82.8398 181.37 86.8198C180.89 89.0098 180.3 91.1798 179.8 93.3598C179.71 93.7598 179.42 94.3598 180.03 94.5499C180.66 94.7499 180.75 94.0898 180.89 93.7098C182.09 90.5298 183.24 87.3199 184.67 84.2299C185.1 83.2999 185.51 82.3598 186.39 81.5098C186.6 82.6898 186.3 83.6299 186 84.5499C181.89 97.0699 176.24 108.81 168.27 119.37C167.7 120.12 167.07 120.83 166.15 121.48Z" fill="#C9DFFE"/>
<path d="M73.9902 71.04C75.7402 72.85 77.5002 74.42 79.7602 75.29C80.9402 75.74 82.1502 76.11 83.4002 75.98C84.5602 75.86 85.1102 76.26 85.1802 77.49C84.3202 77.32 83.5002 76.93 82.5902 77.01C81.0402 77.15 79.6502 77.59 78.7102 78.93C77.7302 80.33 78.0302 81.75 79.5702 82.45C81.9302 83.51 84.2402 83.45 86.3702 81.54C87.3802 85.63 88.0102 89.67 88.4802 93.74C88.7002 95.64 88.7902 97.56 89.0402 99.45C89.1502 100.33 88.8502 100.72 88.0502 100.99C85.2402 101.95 82.3302 102.48 79.3802 102.67C73.8402 103.03 68.3202 102.75 62.8302 101.87C62.0602 101.75 61.8102 101.56 61.9202 100.7C62.9602 92.78 64.4102 84.94 66.9102 77.33C67.1602 76.56 67.5502 76.22 68.2902 75.98C70.7902 75.17 72.8302 73.76 73.9802 71.05L73.9902 71.04Z" fill="#C9DFFE"/>
<path d="M149.48 140.62C148.88 136.84 148.34 133.27 147.75 129.7C146.97 124.94 146.19 120.18 145.33 115.43C145.15 114.45 145.39 114.07 146.3 113.71C151.15 111.76 154.84 108.31 158.15 104.39C159.43 102.87 160.61 101.26 161.97 99.52C162.23 101.24 162.49 102.83 162.72 104.43C163.54 110.11 164.34 115.8 165.16 121.48C165.23 121.98 165.28 122.44 165 122.92C161.27 129.34 157.01 135.3 150.89 139.7C150.49 139.99 150.07 140.24 149.5 140.62H149.48Z" fill="#A0C8FE"/>
<path d="M26.8799 248.39C27.5299 246.9 28.5599 245.77 29.7499 244.81C33.0699 242.13 36.7699 240.49 41.1499 240.44C48.0999 240.36 55.0499 240.17 61.9999 239.98C62.9999 239.95 63.2299 240.22 63.1699 241.2C63.0399 243.32 63.0499 245.44 63.0499 247.57C63.0499 248.22 62.9199 248.5 62.1699 248.5C50.5499 248.47 38.9299 248.48 27.3199 248.48C27.2099 248.48 27.0999 248.44 26.8999 248.39H26.8799Z" fill="#C9DFFE"/>
<path d="M319.9 266C319.9 267.01 319.9 268.02 319.9 269.03C314.93 269.54 309.96 269.87 304.95 269.54C288.13 268.42 274.75 261.11 264.89 247.41C260.49 241.29 257.25 234.57 254.7 227.5C254.58 227.18 254.2 226.78 254.64 226.49C255.29 226.06 255.97 225.63 256.7 225.4C256.98 225.31 257.07 225.97 257.2 226.3C259.19 231.52 261.55 236.56 264.54 241.28C269.24 248.72 274.96 255.2 282.47 259.94C288.78 263.92 295.76 265.98 303.13 266.72C308.75 267.29 314.35 267.13 319.91 266H319.9Z" fill="#F5C154"/>
<path d="M74.1899 248.48C75.6499 245.95 77.8799 244.76 80.1999 243.72C82.8399 242.54 85.5999 241.9 88.4999 241.74C94.5999 241.4 100.7 240.97 106.8 240.52C107.78 240.45 108.09 240.64 107.98 241.67C107.77 243.7 107.67 245.73 107.56 247.77C107.53 248.28 107.4 248.49 106.85 248.49C96.0399 248.48 85.2299 248.48 74.1999 248.48H74.1899Z" fill="#C9DFFE"/>
<path d="M74.6998 236.99C77.7798 236.99 80.8598 237.03 83.9398 236.97C84.9398 236.95 85.3098 237.13 85.2398 238.24C85.0598 240.95 85.1098 240.94 82.5198 241.8C79.8198 242.69 77.2298 243.79 75.0798 245.74C74.5198 246.25 73.9298 246.78 73.6598 247.46C73.2998 248.35 72.7498 248.55 71.8498 248.52C69.5198 248.46 67.1898 248.48 64.8498 248.52C64.2198 248.52 63.9798 248.38 64.0098 247.69C64.1198 244.4 64.1998 241.11 64.2198 237.83C64.2198 237.02 64.5898 237 65.2098 237C68.3698 237.02 71.5398 237 74.6998 237V236.99Z" fill="#A0C8FE"/>
<path d="M246.34 229.51C244.88 229.5 243.79 229 243.07 227.95C242.32 226.86 241.71 225.67 241.01 224.54C240.58 223.84 241.24 223.79 241.56 223.6C245.51 221.3 249.46 219.02 253.42 216.74C255.58 215.49 257.75 214.27 259.88 212.99C260.49 212.62 260.8 212.7 261.12 213.31C261.6 214.23 262.17 215.1 262.65 216.02C263.73 218.06 263.21 220.29 261.24 221.45C256.92 224.01 252.55 226.48 248.19 228.99C247.57 229.35 246.9 229.56 246.33 229.51H246.34Z" fill="#F5C154"/>
<path d="M174.3 29.3199C174.35 28.6199 174.51 27.9399 174.87 27.3099C177.34 23.0299 179.79 18.7399 182.28 14.4799C183.49 12.4099 185.79 11.8099 187.87 12.9599C188.81 13.4799 189.73 14.0599 190.68 14.5599C191.17 14.8199 191.19 15.0599 190.93 15.5099C187.33 21.7199 183.74 27.9399 180.16 34.1699C179.88 34.6499 179.66 34.8199 179.12 34.4599C178.19 33.8399 177.17 33.3499 176.22 32.7499C174.96 31.9599 174.34 30.7899 174.29 29.2999L174.3 29.3199Z" fill="#F5C154"/>
<path d="M67.7202 75.1102C68.8402 72.2802 69.9702 69.7202 71.8002 67.5302C74.1802 64.6902 76.7702 64.5202 79.5202 67.0302C81.7002 69.0102 82.9402 71.5902 84.0902 74.2302C84.3702 74.8602 84.1802 75.0202 83.5502 75.0202C80.5802 75.0202 78.1902 73.6902 76.1102 71.7302C75.2102 70.8802 74.4102 69.9302 73.4302 68.8702C73.0302 72.2802 70.9302 74.0502 67.7202 75.1202V75.1102Z" fill="#C9DFFE"/>
<path d="M216.2 37.6901C216.16 37.7601 216.13 37.8401 216.09 37.9101C214.93 39.9201 213.75 41.9401 212.6 43.9601C212.36 44.3801 212.12 44.2801 211.79 44.0901C209.85 42.9601 207.91 41.8401 205.96 40.7301C205.55 40.5001 205.47 40.2801 205.72 39.8501C206.86 37.9201 207.98 35.9701 209.09 34.0201C209.32 33.6201 209.51 33.5101 209.95 33.7701C211.88 34.9101 213.83 36.0201 215.78 37.1401C215.98 37.2601 216.26 37.3501 216.2 37.6801V37.6901Z" fill="#F5C154"/>
<path d="M74.7902 235.99C71.6702 235.99 68.5502 235.96 65.4302 236.01C64.5402 236.02 64.0802 235.87 64.2802 234.87C64.3502 234.51 64.3402 234.12 64.3202 233.75C64.2802 233.14 64.5602 232.98 65.1302 232.98C71.5802 233 78.0202 233 84.4702 232.98C85.1402 232.98 85.2902 233.2 85.3002 233.84C85.3402 236 85.3602 236 83.2702 236C80.4402 236 77.6102 236 74.7902 236V235.99Z" fill="#F5C154"/>
<path d="M231.72 211.95C231.37 211.97 231.3 211.69 231.19 211.49C228.41 206.68 225.64 201.86 222.85 197.05C222.61 196.63 222.63 196.47 223.05 196.18C225.01 194.8 225.01 194.78 226.16 196.79C228.58 200.99 230.97 205.22 233.46 209.39C234.07 210.41 233.92 210.88 232.89 211.29C232.47 211.45 232.1 211.74 231.72 211.96V211.95Z" fill="#F5C154"/>
<path d="M255.64 197.89C255.67 198.17 255.45 198.24 255.29 198.34C254.94 198.56 254.55 198.73 254.22 198.98C253.47 199.56 253.05 199.46 252.55 198.58C249.99 194.03 247.37 189.51 244.73 184.99C244.31 184.26 244.13 183.77 245.11 183.43C245.46 183.31 245.77 183.09 246.08 182.87C246.55 182.54 246.85 182.57 247.16 183.11C249.9 187.9 252.66 192.67 255.41 197.45C255.49 197.59 255.57 197.74 255.64 197.88V197.89Z" fill="#F5C154"/>
<path d="M224.72 60.2901C224.74 61.7601 223.5 62.3801 222.29 61.6901C219.62 60.1701 216.96 58.6201 214.3 57.0801C212.54 56.0601 210.8 54.9901 209.01 54.0401C208.28 53.6501 208.32 53.3501 208.68 52.7201C209.7 50.9801 209.67 50.9601 211.41 51.9601C215.48 54.3001 219.54 56.6601 223.61 59.0001C224.22 59.3501 224.69 59.7601 224.72 60.3001V60.2901Z" fill="#F5C154"/>
<path d="M237.22 38.8199C237.26 40.0699 236.06 40.7099 234.81 40.0199C232.81 38.9199 230.84 37.7599 228.86 36.6199C226.45 35.2299 224.06 33.8099 221.62 32.4699C220.89 32.0599 220.62 31.7099 221.22 30.9899C221.43 30.7399 221.59 30.4299 221.71 30.1299C222 29.3999 222.38 29.3799 223.03 29.7599C227.36 32.2999 231.72 34.7999 236.07 37.3199C236.66 37.6599 237.2 38.0399 237.21 38.8199H237.22Z" fill="#F5C154"/>
<path d="M62.2402 79.7499C62.3102 78.4899 62.6902 77.3299 63.9002 76.6399C64.5302 76.2799 65.2202 76.3099 65.7802 76.7599C66.2502 77.1399 65.7502 77.5899 65.6502 77.9799C65.2302 79.5399 64.7202 81.0799 64.3302 82.6399C64.1602 83.2999 63.9402 83.2499 63.5302 82.8999C62.5702 82.0799 62.2502 80.9999 62.2502 79.7399L62.2402 79.7499Z" fill="#C8DEFD"/>
<path d="M83.1198 78C81.6298 79.68 81.6398 80.61 83.2198 81.97C82.0098 82.21 80.9598 82.08 79.9698 81.55C79.0698 81.06 78.9198 80.32 79.5398 79.48C80.4098 78.3 81.6798 78.05 83.1198 78.01V78Z" fill="#C8DEFC"/>
<path d="M71.4199 83.0801C70.4499 83.0801 69.5099 82.9301 68.6499 82.4701C67.1999 81.7001 66.8599 80.2401 67.7899 78.9001C69.0899 77.0301 72.3899 76.4001 74.2999 77.6701C75.2099 78.2801 75.8099 79.1001 75.7499 80.2501C75.6799 81.4201 74.9799 82.1201 73.9699 82.5901C73.1599 82.9701 72.2999 83.0701 71.4299 83.0701L71.4199 83.0801Z" fill="#051D43"/>
<path d="M75.5098 98.0102C74.2798 98.0302 73.0998 97.7702 72.0598 97.1102C70.6798 96.2502 70.6598 94.9502 71.9498 93.9802C73.7198 92.6502 77.4498 92.6902 79.1598 94.0402C80.2898 94.9402 80.2898 96.0502 79.1598 96.9602C78.3798 97.5902 76.9298 98.0102 75.5098 98.0102Z" fill="#061E44"/>
<path d="M77.27 89.8902C76.77 89.8902 76.27 89.8902 75.77 89.8902C75.43 89.8902 75.23 89.7702 75.23 89.3902C75.23 89.0102 75.4 88.8702 75.76 88.8802C76.55 88.8802 77.34 88.8402 78.13 88.8802C79.17 88.9402 79.47 88.6202 79.08 87.5702C78.18 85.1602 77.35 82.7302 76.53 80.2902C76.42 79.9702 75.83 79.5002 76.65 79.1902C77.45 78.8902 77.34 79.6102 77.45 79.9302C78.3 82.2702 79.11 84.6202 79.93 86.9702C80.71 89.1802 80.22 89.8802 77.88 89.8902C77.67 89.8902 77.46 89.8902 77.26 89.8902H77.27Z" fill="#092147"/>
<path d="M72.1898 78.0499C70.6098 79.5399 70.6298 80.5899 72.2098 81.9799C71.1798 82.2099 70.2698 82.0799 69.3998 81.7199C68.0998 81.1999 67.8898 80.1799 68.8698 79.1799C69.7298 78.3099 70.8198 77.9599 72.1898 78.0499Z" fill="#C8DDFC"/>
<path d="M75.8401 97.0098C74.5001 97.0098 73.5401 96.8398 72.6701 96.2898C71.8101 95.7498 71.8201 95.2998 72.6701 94.7198C74.1001 93.7398 77.0801 93.7798 78.4701 94.7798C79.1801 95.2898 79.1501 95.7698 78.4701 96.2298C77.5801 96.8298 76.5701 97.0098 75.8501 97.0098H75.8401Z" fill="#C8DEFD"/>
</g>
<defs>
<clipPath id="clip0_960_629">
<rect width="320.25" height="298" fill="white"/>
</clipPath>
</defs>
</svg>
