<svg viewBox="0 0 320 298" fill="none" xmlns="http://www.w3.org/2000/svg">
<g clip-path="url(#clip0_707_4897)">
<rect width="320" height="298" fill="#F6C254"/>
<path d="M-4.88195e-05 0C106.195 0 212.541 0.0399509 318.737 0H320C319.97 33.9982 319.957 69.3048 319.957 103.293C319.427 103.742 318.787 103.653 318.166 103.653C307.882 103.653 297.597 103.653 287.313 103.653C285.302 103.653 285.112 103.463 285.112 101.435C285.112 83.3975 285.112 65.3497 285.112 47.3119C285.112 43.7462 283.782 40.8498 280.87 38.7324C279.019 37.3841 276.939 36.8148 274.668 36.8148C259.971 36.8148 245.275 36.8148 230.579 36.8148C230.159 36.8148 229.748 36.8148 229.328 36.8148C227.517 36.7948 227.447 36.7149 226.727 35.0869C222.785 26.058 215.922 20.5148 206.258 18.7869C197.345 17.1989 189.401 19.6459 182.728 25.7683C179.727 28.5249 177.476 31.8908 176.085 35.7561C175.695 36.8347 175.045 37.5439 174.055 38.1431C170.693 40.1606 168.942 43.1769 168.922 47.1221C168.902 52.6952 168.922 58.2584 168.922 63.8316C168.922 65.7891 168.722 66.0089 166.791 65.9889C159.748 65.909 152.745 66.4683 145.732 66.9377C137.099 67.527 128.475 68.1363 119.881 69.2049C109.617 70.4834 99.5025 72.5209 89.5282 75.2275C86.687 75.9966 86.657 76.0166 85.4765 73.25C85.0863 72.3311 84.6261 71.4422 84.186 70.5533C83.7558 69.6744 83.9158 69.0052 84.6762 68.356C87.0872 66.3085 87.0572 66.2086 84.376 64.4108C83.7157 63.9714 83.0755 63.502 82.3952 63.1025C79.7741 61.5743 77.5831 59.6167 75.7823 57.1398C74.4118 55.2621 72.671 53.6641 70.6301 52.4755C66.2282 49.9187 63.0569 51.0173 61.2361 55.7315C60.1757 58.4781 59.8555 61.3846 59.7555 64.291C59.5354 70.5733 59.8255 76.8356 60.6959 83.0679C60.8259 84.0067 60.7959 84.8657 59.9756 85.5648C56.194 88.7509 53.1026 92.5662 50.2714 96.5813C44.4389 104.851 39.6368 113.66 36.4655 123.298C35.9953 124.717 35.6051 126.165 35.245 127.613C35.0449 128.382 34.9748 129.171 35.0249 129.96C35.375 135.304 35.5551 140.657 35.7952 146.001C36.0953 152.802 36.5055 159.594 36.8056 166.396C37.0257 171.449 37.2058 176.513 37.5359 181.567C37.9361 187.659 38.1562 193.752 38.4363 199.844C38.6364 204.029 38.8565 208.224 39.0566 212.409C39.2567 216.804 39.3467 221.208 39.7169 225.593C39.8669 227.371 39.6969 229.158 39.947 230.946C40.097 231.965 39.4468 232.344 38.4964 232.354C36.2454 232.374 33.9944 232.324 31.7535 232.374C28.5821 232.434 26.1311 234.102 25.0506 236.899C23.2698 241.483 26.5212 246.437 31.4433 246.587C33.8143 246.657 36.1854 246.587 38.5664 246.607C40.2571 246.627 40.4972 246.867 40.5072 248.584C40.5272 250.662 40.5272 252.739 40.5072 254.817C40.4972 256.545 40.2571 256.804 38.5764 256.804C26.2511 256.814 13.9258 256.814 1.60053 256.804H-9.49758e-05C-0.0100993 218.062 0.0498681 178.8 0.0498681 140.058C0.0498681 93.9146 -4.88195e-05 46.1333 -4.88195e-05 0Z" fill="#A1C9FF"/>
<path d="M319.947 207.565L320 297C319.63 297.33 319.127 297.235 318.667 297.255C318.166 297.275 317.666 297.265 317.166 297.265C252.458 297.265 187.75 297.265 123.053 297.265C120.805 297.265 119.681 296.15 119.681 293.919C119.681 279.077 119.681 264.235 119.681 249.394C119.681 246.677 119.781 246.587 122.472 246.577C123.803 246.577 125.134 246.607 126.474 246.567C130.626 246.427 133.737 243.341 133.657 239.466C133.577 235.421 130.486 232.465 126.284 232.415C126.114 232.415 126.324 232.415 126.164 232.415C122.082 232.385 122.382 232.724 120.492 229.748C119.761 228.599 118.651 227.71 117.52 226.921C116.59 226.272 116.17 225.413 116.18 224.275C116.21 221.818 116.15 219.371 116.2 216.914C116.32 211.46 120.572 207.226 126.054 207.176C132.337 207.116 138.629 207.166 144.912 207.166C157.357 207.166 169.833 206.736 182.258 207.285C194.573 207.835 206.879 207.485 219.184 207.625C231.509 207.775 243.844 208.045 256.16 207.565C276.629 206.766 297.097 207.455 317.566 207.166C318.376 207.156 319.295 206.986 320.025 207.565H319.947Z" fill="#CAE0FF"/>
<path d="M319.947 147.199V156.178C318.787 156.868 317.506 156.498 316.296 156.528C314.705 156.558 313.394 157.077 312.294 158.226C311.353 159.205 310.833 160.333 310.833 161.692C310.813 167.664 310.783 173.637 310.843 179.61C310.873 182.496 313.144 184.623 316.045 184.763C317.346 184.823 318.707 184.404 319.947 185.123V206.576C319.377 207.056 318.697 206.956 318.036 206.956C299.008 206.956 279.98 206.956 260.952 206.956C258.811 206.956 258.601 206.746 258.601 204.599C258.601 188.888 258.601 173.167 258.601 157.457C258.601 155.679 258.361 153.981 257.52 152.393C255.73 148.997 252.868 147.149 249.077 147.129C230.799 147.06 212.521 147.08 194.243 147.109C188.561 147.109 184.429 151.334 184.429 157.037C184.419 172.708 184.429 188.379 184.429 204.05C184.429 206.936 184.409 206.956 181.508 206.956C178.056 206.956 174.595 206.976 171.143 206.956C169.453 206.946 169.182 206.676 169.172 204.988C169.152 199.545 169.172 194.102 169.172 188.648C169.172 163.869 169.172 139.099 169.172 114.32C169.172 113.78 169.162 113.241 169.172 112.702C169.202 111.943 169.202 111.174 170.203 110.974C171.333 110.744 172.134 111.064 172.614 112.003C172.704 112.192 172.784 112.382 172.864 112.572C173.634 114.37 175.035 115.309 176.956 115.329C178.847 115.339 180.307 114.47 181.198 112.752C181.428 112.302 181.578 111.823 181.778 111.373C182.118 110.614 182.648 110.135 183.529 110.305C184.409 110.475 184.409 111.214 184.409 111.883C184.449 116.078 184.419 120.282 184.429 124.477C184.429 125.057 184.429 125.646 184.429 126.225C184.499 129.511 186.28 131.329 189.561 131.359C193.473 131.399 197.385 131.369 201.306 131.369C203.677 131.369 206.048 131.399 208.429 131.369C211.811 131.319 213.612 129.551 213.632 126.185C213.662 118.245 213.662 110.305 213.632 102.365C213.622 99.0985 211.781 97.2808 208.499 97.2408C204.958 97.2008 201.416 97.2408 197.885 97.2208C197.265 97.2208 196.274 97.4406 196.174 96.7015C196.094 96.0822 197.104 96.0523 197.675 95.9224C199.385 95.5329 201.066 95.0635 202.717 94.5042C203.067 94.3843 203.437 94.2744 203.767 94.1047C204.237 93.855 204.888 93.6552 204.848 93.036C204.798 92.3268 204.097 92.207 203.527 92.1171C201.386 91.7575 199.235 91.5877 197.064 91.8774C196.404 91.9673 195.744 92.0472 195.084 91.8774C194.883 91.8275 194.643 91.7476 194.593 91.5378C194.533 91.2382 194.813 91.1283 195.034 91.0384C195.644 90.7588 196.304 90.6489 196.954 90.5091C198.865 90.0796 200.776 89.6601 202.607 88.961C203.367 88.6713 204.057 88.3318 203.997 87.303C203.957 86.6039 204.558 86.5639 205.048 86.524C206.128 86.4341 207.209 86.504 208.289 86.484C211.811 86.4341 213.602 84.6762 213.622 81.1706C213.652 77.6748 213.662 74.1891 213.612 70.6934C213.592 69.3351 214.102 68.4961 215.282 67.787C223.136 63.1028 227.578 56.1813 228.548 47.0924C228.828 44.5156 228.548 41.9488 228.008 39.4119C227.578 37.3544 227.768 37.1047 229.919 37.1047C241.664 37.1047 253.399 37.1047 265.144 37.1047C268.055 37.1047 270.986 37.2445 273.887 37.0748C280.36 36.6952 284.982 41.749 284.912 47.9913C284.732 65.8694 284.852 83.7374 284.852 101.615C284.852 103.174 285.622 103.953 287.163 103.953C297.367 103.953 307.562 103.953 317.766 103.953C318.507 103.953 319.287 103.803 319.947 104.332V118.305C318.787 118.994 317.506 118.625 316.296 118.654C314.705 118.684 313.394 119.204 312.294 120.352C311.353 121.331 310.833 122.46 310.833 123.818C310.813 129.791 310.783 135.763 310.843 141.736C310.873 144.623 313.144 146.75 316.045 146.89C317.346 146.95 318.707 146.53 319.947 147.249V147.199Z" fill="#F6C254"/>
<path d="M319.947 104.292C308.542 104.292 297.128 104.272 285.723 104.322C284.662 104.322 284.442 104.042 284.442 103.024C284.472 84.5263 284.462 66.0291 284.462 47.5318C284.462 41.4692 280.45 37.4442 274.398 37.4442C259.411 37.4442 244.425 37.4442 229.429 37.4442C228.978 37.4442 228.518 37.4442 227.968 37.4442C228.538 39.8812 229.028 42.2283 228.988 44.6453C228.818 55.0725 224.156 62.9029 215.242 68.2164C214.292 68.7857 213.952 69.335 213.972 70.4237C214.042 74.1191 214.002 77.8246 214.002 81.52C214.002 84.7361 211.901 86.8135 208.7 86.8235C207.199 86.8235 205.698 86.8235 204.118 86.8235C204.118 87.3628 204.848 87.7923 204.318 88.3616C203.938 88.7811 203.447 89.0008 202.947 89.1906C200.736 90.0495 198.405 90.509 196.104 91.0583C195.674 91.1582 195.244 91.288 194.824 91.4578C197.475 91.3779 200.116 91.2081 202.757 91.5477C203.377 91.6276 203.988 91.7275 204.588 91.9072C205.018 92.0371 205.438 92.2868 205.508 92.8261C205.568 93.3555 205.238 93.6851 204.838 93.9348C204.028 94.4641 203.127 94.7937 202.207 95.0534C200.226 95.6127 198.245 96.142 196.274 96.7912C200.346 96.7912 204.428 96.7912 208.5 96.7912C211.961 96.7912 213.992 98.8287 213.992 102.284C213.992 110.265 213.992 118.245 213.992 126.225C213.992 129.681 211.951 131.708 208.49 131.708C202.157 131.708 195.834 131.708 189.501 131.708C186.04 131.708 184.009 129.671 184.009 126.205C184.009 121.301 184.009 116.397 183.989 111.493C183.989 111.164 184.309 110.554 183.609 110.524C183.079 110.504 182.398 110.315 182.188 111.144C182.078 111.583 181.888 112.003 181.728 112.432C180.958 114.47 179.037 115.778 176.916 115.738C174.765 115.698 172.954 114.34 172.254 112.232C171.964 111.383 170.453 110.794 169.733 111.253C169.523 111.383 169.533 111.593 169.533 111.803C169.533 112.092 169.533 112.382 169.533 112.672C169.533 143.474 169.533 174.276 169.503 205.078C169.503 206.277 169.779 207.02 171 207C175 207 179 207 182.865 207C183.896 207.02 184.049 206.247 184.049 205.318C184.019 189.278 184.029 173.227 184.029 157.187C184.029 150.945 188.271 146.68 194.504 146.68C212.571 146.68 230.639 146.68 248.717 146.68C254.619 146.68 258.981 151.005 258.981 156.887C258.981 172.978 259.001 189.058 258.961 205.148C258.961 206.267 258.861 207.01 260.012 207C279.87 206.96 300.131 207 320 207V208C300.021 208 280 208 260.012 208C247.636 208.34 235.271 207.845 222.906 208.005C210.5 208.164 185.5 208 185.5 208C175.5 208 165.784 208.14 156 208C146 208 136.374 208 126.5 208C120.337 208 116.57 211.52 116.57 217.663C116.57 220.07 116.59 222.487 116.55 224.894C116.54 225.553 116.74 225.943 117.3 226.302C119.311 227.61 121.012 229.248 122.122 231.406C122.373 231.895 122.693 232.015 123.203 231.995C124.413 231.965 125.614 231.955 126.824 231.995C130.826 232.115 134.038 235.421 134.058 239.426C134.078 243.491 130.856 246.857 126.794 246.947C124.924 246.987 123.043 246.997 121.172 246.947C120.352 246.917 120.042 247.067 120.042 247.995C120.072 263.956 120.072 279.916 120.042 295.877C120.042 296.596 120.152 297.005 120.972 296.855C121.172 296.815 121.392 296.855 121.592 296.855C187.701 296.855 253.892 297 320 297V298C214.285 298 105.715 298 0 298V297C11.5 297 25.1008 296.466 36.5458 296.466C36.9659 296.466 37.3761 296.466 37.7963 296.466C39.6471 296.456 39.6971 296.416 39.6971 294.588C39.6971 283.002 39.6971 271.417 39.6971 259.821C39.6971 257.893 39.6671 257.863 37.7563 257.863C25.9812 257.863 14.2062 257.863 2.43113 257.863C1.69081 257.863 0.710305 257.86 0 257.5V256.5C12.8655 256.5 25.8712 256.455 38.7367 256.485C39.7771 256.485 40.1773 256.325 40.1173 255.167C40.0072 252.76 40.0473 250.343 40.1073 247.935C40.1273 247.156 39.9072 246.957 39.1369 246.967C36.6858 247.017 34.2248 246.997 31.7637 246.987C27.4218 246.967 24.0804 243.701 24.1004 239.486C24.1104 235.261 27.4319 232.045 31.8137 232.025C34.1047 232.025 36.3957 231.995 38.6867 232.035C39.397 232.045 39.6071 231.845 39.5671 231.126C39.0969 222.077 38.6567 213.028 38.2065 203.99C37.9163 198.137 37.6462 192.284 37.3661 186.431C36.8059 174.895 36.2456 163.359 35.6854 151.814C35.3152 144.263 34.9251 136.712 34.6049 129.151C34.5449 127.653 35.1452 126.225 35.5954 124.817C40.1373 110.664 47.3004 98.0197 57.5748 87.203C58.005 86.7536 58.4051 86.2242 58.9354 85.9246C60.386 85.1256 60.426 83.977 60.2459 82.4988C59.3055 74.8582 58.7053 67.1976 59.8458 59.527C60.1359 57.5894 60.6461 55.7117 61.5865 53.9739C63.1072 51.1673 65.4382 50.1985 68.4895 51.1673C71.2807 52.0562 73.6217 53.7841 75.2524 56.0813C77.9935 59.9365 81.8052 62.3536 85.6268 64.8405C87.2675 65.9092 87.2875 66.8181 85.7369 67.9966C84.563 68.8955 84.2862 70.0142 84.9065 71.3525C85.4267 72.4811 85.987 73.5997 86.4472 74.7483C86.7173 75.4475 87.0774 75.5473 87.7577 75.3576C94.6707 73.4 101.674 71.792 108.757 70.5335C116.3 69.1852 123.883 68.2463 131.517 67.6371C138.77 67.0578 146.033 66.4685 153.296 65.9891C157.948 65.6795 162.61 65.6395 167.272 65.7494C168.352 65.7794 168.542 65.4498 168.532 64.441C168.482 58.6681 168.482 52.8852 168.512 47.1023C168.542 42.7676 170.533 39.5616 174.365 37.5541C174.985 37.2245 175.265 36.815 175.495 36.2157C179.527 25.7985 187.1 19.6261 198.175 18.2777C211.151 16.6997 222.415 23.5812 227.238 35.6064C227.568 36.4155 228.008 36.4754 228.728 36.4754C244.005 36.4654 259.291 36.4654 274.568 36.4654C280.891 36.4654 285.422 40.9798 285.432 47.2921C285.432 65.4997 285.443 83.7073 285.413 101.915C285.413 103.024 285.653 103.343 286.813 103.343C297.848 103.293 308.883 103.313 319.917 103.313V104.312L319.947 104.292Z" fill="#041C42"/>
<path d="M320 157V184.5C316.878 185.948 312.614 184.223 311.474 181.417C311.173 180.668 311.073 179.899 311.073 179.1C311.073 173.457 311.053 167.824 311.073 162.18C311.093 158.765 313.084 156.797 316.536 156.807C317.666 156.807 318.929 156.311 320 157Z" fill="white"/>
<path d="M320 119V147C317.5 147 312.614 146.31 311.474 143.503C311.173 142.754 311.073 141.985 311.073 141.186C311.073 135.543 311.053 129.91 311.073 124.267C311.093 120.851 313.084 118.884 316.536 118.894C317.666 118.894 318.5 119 320 119Z" fill="white"/>
<path d="M320 157.177C318.669 157.177 317.286 157.157 315.955 157.177C313.384 157.217 311.474 159.114 311.463 161.681C311.433 167.654 311.443 173.627 311.463 179.609C311.474 182.176 313.394 184.064 315.965 184.114C317.296 184.134 318.669 184.114 320 184.114V185.112C318.709 185.112 317.376 185.122 316.086 185.112C312.794 185.082 310.463 182.745 310.463 179.429C310.453 173.577 310.453 167.724 310.463 161.871C310.463 158.495 312.814 156.198 316.216 156.188C317.466 156.188 318.749 156.188 320 156.188V157.187V157.177Z" fill="#041C42"/>
<path d="M320 119.273C318.669 119.273 317.286 119.243 315.955 119.263C313.384 119.303 311.474 121.201 311.463 123.768C311.433 129.74 311.443 135.713 311.463 141.696C311.474 144.262 313.394 146.15 315.965 146.2C317.296 146.22 318.669 146.2 320 146.2V147.199C318.709 147.199 317.376 147.209 316.086 147.199C312.794 147.169 310.463 144.832 310.463 141.516C310.453 135.663 310.453 129.81 310.463 123.957C310.463 120.582 312.814 118.284 316.216 118.274C317.466 118.274 318.749 118.274 320 118.274V119.273Z" fill="#041C42"/>
<path d="M229.008 114.279C229.008 110.244 229.008 106.219 229.008 102.184C229.008 98.8982 231.089 96.8208 234.38 96.8208C240.793 96.8208 247.206 96.8208 253.619 96.8208C256.91 96.8208 258.991 98.8982 258.991 102.184C258.991 110.244 258.991 118.314 258.991 126.374C258.991 129.66 256.91 131.738 253.619 131.738C247.206 131.738 240.793 131.738 234.38 131.738C231.089 131.738 229.008 129.66 229.008 126.374C229.008 122.339 229.008 118.314 229.008 114.279Z" fill="#041C42"/>
<path d="M258.991 69.3746C258.991 73.4096 258.991 77.4347 258.991 81.4697C258.991 84.7557 256.91 86.8331 253.619 86.8331C247.206 86.8331 240.793 86.8331 234.38 86.8331C231.089 86.8331 229.008 84.7557 229.008 81.4697C229.008 73.4096 229.008 65.3395 229.008 57.2794C229.008 53.9935 231.089 51.916 234.38 51.916C240.793 51.916 247.206 51.916 253.619 51.916C256.91 51.916 258.991 53.9935 258.991 57.2794C258.991 61.3145 258.991 65.3395 258.991 69.3746Z" fill="#041C42"/>
<path d="M300.959 132.707C300.959 135.613 300.959 138.53 300.959 141.436C300.949 144.572 298.848 146.68 295.737 146.7C294.196 146.7 292.655 146.71 291.115 146.7C288.133 146.67 285.983 144.562 285.973 141.606C285.953 135.703 285.953 129.8 285.973 123.898C285.973 120.911 288.103 118.794 291.065 118.764C292.645 118.744 294.226 118.754 295.807 118.764C298.848 118.794 300.939 120.911 300.949 123.978C300.959 126.884 300.949 129.8 300.949 132.707H300.959Z" fill="#041C42"/>
<path d="M300.959 170.67C300.959 173.577 300.959 176.493 300.959 179.4C300.949 182.516 298.828 184.603 295.697 184.623C294.116 184.623 292.536 184.643 290.955 184.623C288.134 184.573 285.993 182.446 285.983 179.619C285.963 173.637 285.953 167.654 285.983 161.662C285.993 158.845 288.164 156.728 290.995 156.698C292.656 156.678 294.326 156.668 295.987 156.698C298.808 156.748 300.939 158.875 300.959 161.701C300.989 164.698 300.959 167.684 300.959 170.68V170.67Z" fill="#041C42"/>
<path d="M115.58 225.173C113.729 224.404 111.988 223.625 110.117 223.256C109.427 223.116 109.617 222.586 109.637 222.167C109.807 218.352 109.977 214.526 110.157 210.711C110.458 204.319 110.768 197.927 111.068 191.545C111.738 177.232 112.438 162.91 113.049 148.597C113.369 141.276 115.35 134.555 119.712 128.612C121.532 126.135 123.793 124.137 126.464 122.619C130.106 120.542 133.528 118.085 137.249 116.147C142.311 113.52 147.804 112.492 153.386 111.773C158.028 111.183 162.69 111.373 167.342 111.263C168.362 111.233 168.553 111.543 168.553 112.492C168.523 131.988 168.533 151.474 168.533 170.97C168.533 182.436 168.523 193.912 168.553 205.378C168.553 206.356 168.47 207 167.5 207C153.924 206.97 140.076 207 126.5 207C119.917 207 115.56 211.031 115.56 217.583C115.56 220.069 115.56 222.566 115.56 225.183L115.58 225.173Z" fill="#A1C9FF"/>
<path d="M60.6861 86.0141C60.9862 87.7021 61.3163 89.4 61.5665 91.1079C61.6565 91.7171 61.9066 91.8869 62.4568 91.807C70.8504 90.5985 79.0439 88.7608 86.4171 84.3162C87.1274 83.8867 87.7877 83.3774 88.598 82.8181C89.5184 85.295 90.4789 87.7021 91.3092 90.159C91.6394 91.1378 91.9395 91.4075 93.04 91.1079C102.194 88.531 111.438 86.2638 120.832 84.7257C128.025 83.5472 135.258 82.7681 142.531 82.3586C146.353 82.1389 150.184 82.059 154.006 81.8393C154.967 81.7793 155.197 82.1489 155.297 82.9779C156.307 91.7571 157.328 100.546 158.408 109.325C158.518 110.234 158.208 110.364 157.478 110.414C153.076 110.734 148.714 111.303 144.422 112.362C139.13 113.67 134.518 116.367 130.016 119.293C127.065 121.211 123.833 122.719 121.312 125.286C116.44 130.24 113.919 136.332 112.628 143.014C112.428 144.033 112.268 145.062 112.208 146.09C112.158 146.879 111.938 147.039 111.158 146.839C105.075 145.321 98.9825 143.843 92.8899 142.355C74.2919 137.8 55.6939 133.246 37.096 128.722C35.9855 128.452 35.7754 128.092 36.0755 126.974C38.6766 117.286 43.1786 108.497 48.6109 100.137C51.8323 95.1829 55.3538 90.4587 59.8257 86.5135C60.0658 86.3038 60.2459 85.9842 60.7161 86.0041L60.6861 86.0141Z" fill="#A1C9FF"/>
<path d="M37.9262 176.224C37.1859 160.992 36.4456 145.761 35.6853 130.53C35.6453 129.691 35.6653 129.361 36.7057 129.621C61.4263 135.703 86.1569 141.746 110.888 147.759C111.838 147.988 112.098 148.368 112.058 149.337C111.278 165.567 110.547 181.797 109.787 198.027C109.417 205.997 108.997 213.967 108.657 221.937C108.617 222.796 108.426 223.046 107.546 223.026C100.263 222.836 92.9799 222.687 85.6967 222.557C84.9964 222.547 84.8064 222.337 84.7663 221.648C84.3562 214.017 83.7159 206.397 82.5954 198.836C80.8747 187.25 78.6737 175.764 74.0517 164.908C72.8112 162.001 71.3906 159.175 69.0896 156.917C68.8495 156.688 68.6094 156.448 68.3493 156.248C65.9783 154.42 64.1675 154.88 63.087 157.646C61.7365 161.092 61.4063 164.748 61.1462 168.383C60.1258 182.546 60.596 196.708 61.2863 210.871C61.4963 215.146 61.7665 219.421 62.0466 223.685C62.0866 224.374 61.9065 224.524 61.2362 224.474C54.5134 223.995 47.7805 223.525 41.0576 223.096C40.3973 223.056 40.1472 222.916 40.1072 222.187C39.3969 206.866 38.6465 191.555 37.9162 176.244H37.9262V176.224Z" fill="#CAE0FF"/>
<path d="M80.1845 296.855C70.5703 296.855 60.9562 296.845 51.3421 296.875C50.4217 296.875 50.0916 296.715 50.0916 295.687C50.1316 283.302 50.1316 270.917 50.0916 258.532C50.0916 257.693 50.2516 257.414 51.162 257.424C70.4303 257.454 89.7085 257.454 108.977 257.424C109.817 257.424 110.097 257.573 110.097 258.482C110.067 270.907 110.057 283.332 110.097 295.756C110.097 296.765 109.747 296.865 108.897 296.865C99.3227 296.835 89.7486 296.845 80.1745 296.845L80.1845 296.855Z" fill="#CAE0FF"/>
<path d="M221.515 177.402C221.515 186.84 221.505 196.269 221.535 205.707C221.535 206.716 221.405 207.105 220.224 207.105C208.9 207.046 197.575 207.066 186.25 207.095C185.309 207.095 184.999 206.906 185.009 205.897C185.049 189.567 185.029 173.227 185.039 156.897C185.039 151.654 188.941 147.728 194.163 147.718C202.907 147.698 211.651 147.728 220.394 147.688C221.355 147.688 221.545 147.948 221.545 148.857C221.515 158.375 221.525 167.894 221.525 177.412L221.515 177.402Z" fill="#F6C254"/>
<path d="M222.515 177.362C222.515 167.884 222.535 158.405 222.485 148.937C222.485 147.858 222.796 147.668 223.796 147.668C232.08 147.708 240.363 147.688 248.647 147.698C254.139 147.698 257.981 151.554 257.991 157.037C257.991 173.287 257.991 189.537 258.021 205.787C258.021 206.806 257.801 207.095 256.74 207.085C245.745 207.045 234.761 207.045 223.766 207.085C222.716 207.085 222.475 206.816 222.485 205.787C222.525 196.309 222.515 186.84 222.515 177.362Z" fill="#F6C254"/>
<path d="M0 297C0 283.846 0 270.654 0 257.5C12.8155 257.5 25.8009 257.464 38.6264 257.424C39.887 257.424 40.1671 257.713 40.1671 258.962C40.1171 271.177 40.1171 283.392 40.1671 295.607C40.1671 296.636 39.927 296.895 38.8865 296.895C25.991 296.865 12.8955 297 0 297Z" fill="#CAE0FF"/>
<path d="M78.9739 245.978C63.2372 245.978 47.5004 245.978 31.7537 245.978C26.6915 245.978 23.5402 240.844 25.9412 236.41C27.1617 234.162 29.1526 233.004 31.7537 233.004C49.5713 233.004 67.399 233.004 85.2166 233.004C98.9525 233.004 112.698 233.004 126.434 233.004C131.496 233.004 134.648 238.138 132.247 242.572C131.026 244.819 129.035 245.978 126.434 245.978C110.608 245.978 94.7907 245.978 78.9639 245.978H78.9739Z" fill="#004079"/>
<path d="M61.6264 194.111C61.5764 184.743 61.4463 176.683 62.1066 168.633C62.3467 165.696 62.6568 162.77 63.3772 159.893C63.4872 159.454 63.6273 159.015 63.7773 158.585C64.7678 155.739 66.1083 155.379 68.2793 157.496C70.8304 159.983 72.281 163.179 73.6115 166.405C76.8529 174.306 78.7838 182.576 80.3044 190.935C82.7054 204.119 83.8059 217.423 84.1061 230.816C84.1261 231.845 83.8259 232.045 82.8755 232.015C80.5445 231.955 78.2135 231.975 75.8825 232.015C75.2823 232.015 74.9521 231.885 74.642 231.306C73.4415 229.078 71.3806 227.81 69.1997 226.741C67.5589 225.932 65.8382 225.303 64.0574 224.884C63.3171 224.714 63.057 224.414 63.017 223.655C62.7569 218.841 62.3967 214.037 62.1666 209.233C61.9165 203.76 61.7665 198.276 61.6264 194.101V194.111Z" fill="#A1C9FF"/>
<path d="M156.127 81.809C159.238 81.809 162.31 81.839 165.381 81.809C175.125 81.7091 184.859 81.5094 194.583 80.9501C195.824 80.8802 197.075 80.7803 198.315 81.02C198.825 81.1199 199.386 81.2097 199.426 81.799C199.456 82.2684 198.895 82.3883 198.535 82.5381C195.964 83.6368 193.243 84.2161 190.532 84.8153C188.341 85.2947 186.13 85.6743 183.939 86.1437C183.569 86.2236 182.908 86.0638 183.028 86.8328C183.159 87.6618 183.719 87.1824 184.099 87.1524C190.042 86.5831 195.974 86.3335 201.887 87.3322C202.327 87.4121 202.757 87.5619 203.327 87.7118C202.717 88.4009 201.987 88.5208 201.306 88.7205C196.194 90.2087 190.942 91.0976 185.72 92.0864C185.52 92.1263 185.309 92.1563 185.109 92.1962C184.699 92.2662 184.409 92.386 184.519 92.9154C184.629 93.4347 184.979 93.2849 185.289 93.2549C187.49 93.0652 189.681 92.8255 191.882 92.6956C195.454 92.4859 199.025 92.1563 202.607 92.5358C203.177 92.5958 203.747 92.6157 204.318 92.9553C203.887 93.5646 203.207 93.6644 202.607 93.8742C197.785 95.5022 192.783 96.3112 187.811 97.32C187.2 97.4398 186.59 97.5597 185.98 97.6995C185.69 97.7594 185.43 97.8493 185.5 98.2688C185.57 98.6983 185.77 98.7881 186.18 98.7482C191.172 98.2987 196.154 98.4585 201.146 98.7981C202.557 98.898 203.957 99.0578 205.408 99.4074C205.168 100.246 204.408 100.346 203.807 100.586C200.996 101.675 198.025 102.104 195.074 102.534C188.891 103.432 182.668 103.882 176.436 104.291C176.086 104.311 175.535 104.062 175.525 104.781C175.525 105.59 176.146 105.29 176.516 105.31C181.168 105.52 185.83 105.64 190.452 106.299C191.192 106.409 191.922 106.559 192.653 106.718C192.953 106.788 193.433 106.728 193.443 107.148C193.443 107.487 193.033 107.647 192.733 107.777C190.572 108.726 188.251 109.026 185.94 109.275C177.656 110.174 169.333 110.334 161.009 110.344C159.688 110.344 159.408 109.885 159.268 108.696C158.358 100.566 157.357 92.4459 156.397 84.3259C156.307 83.5469 156.227 82.7578 156.127 81.819V81.809Z" fill="#CAE0FF"/>
<path d="M150.895 80.3808C151.015 81.1699 150.375 80.9901 150.004 81.01C147.974 81.1299 145.933 81.1998 143.902 81.2897C128.015 81.9988 112.468 84.7754 97.1417 88.9203C95.8612 89.2699 94.5706 89.5995 93.3101 89.989C92.6698 90.1888 92.3396 90.0889 92.0895 89.4197C90.5989 85.3347 89.1083 81.2597 87.5476 77.2047C87.2475 76.4357 87.6176 76.3957 88.1478 76.2559C95.7611 74.1685 103.444 72.4306 111.228 71.1122C123.343 69.0647 135.568 68.2457 147.803 67.3868C148.874 67.3069 149.204 67.5865 149.334 68.6652C149.764 72.3307 150.315 75.9862 150.815 79.6417C150.845 79.8914 150.865 80.1411 150.895 80.3808Z" fill="#A1C9FF"/>
<path d="M201.427 70.8726C186.83 70.8626 175.015 59.187 175.045 44.7947C175.075 30.5022 186.99 18.9564 201.687 18.9864C216.213 19.0163 228.018 30.682 228.008 44.9944C227.998 59.3068 216.113 70.8726 201.427 70.8626V70.8726Z" fill="#F6C254"/>
<path d="M202.887 97.8399C205.108 97.8399 207.349 97.74 209.56 97.8699C211.461 97.9797 212.991 99.7376 213.001 101.685C213.031 110.085 213.031 118.475 213.001 126.874C213.001 129.042 211.251 130.729 209.07 130.729C202.367 130.759 195.664 130.759 188.961 130.729C186.83 130.729 185.079 129.062 185.059 126.974C185.009 121.701 185.059 116.417 185.029 111.144C185.029 110.464 185.299 110.345 185.9 110.275C188.051 110.035 190.202 109.755 192.252 109.046C193.283 108.687 194.643 108.387 194.503 106.949C194.373 105.58 192.963 105.74 192.022 105.57C189.871 105.181 187.68 104.961 185.339 104.652C190.141 104.162 194.773 103.723 199.345 102.804C201.096 102.454 202.837 102.085 204.488 101.376C205.028 101.146 205.548 100.906 205.978 100.487C206.909 99.5678 206.729 98.7288 205.468 98.3892C204.628 98.1595 203.757 98.0696 202.897 97.9098C202.897 97.8799 202.897 97.8499 202.897 97.8299L202.887 97.8399Z" fill="white"/>
<path d="M80.1143 256.454C70.5002 256.454 60.8961 256.444 51.282 256.474C50.3916 256.474 50.0615 256.315 50.0915 255.336C50.1715 252.929 50.1615 250.522 50.0915 248.105C50.0615 247.176 50.3116 246.936 51.252 246.946C64.0274 246.976 76.8029 246.966 89.5684 246.966C96.0212 246.966 102.464 246.986 108.917 246.946C109.807 246.946 110.137 247.106 110.107 248.085C110.027 250.492 110.037 252.899 110.107 255.316C110.137 256.245 109.887 256.484 108.947 256.474C99.3326 256.434 89.7285 256.454 80.1143 256.454Z" fill="#A1C9FF"/>
<path d="M185.66 72.1612C185.67 72.381 185.69 72.4309 185.68 72.4609C184.766 75.344 182.832 77.0419 179.877 77.5546C179.587 77.6046 179.297 77.6345 179.017 77.6844C178.617 77.7544 178.466 77.9741 178.547 78.3936C178.627 78.8131 178.887 78.7631 179.197 78.7332C180.597 78.5933 182.008 78.4735 183.429 78.3436C182.968 80.481 182.968 80.501 180.898 80.5409C171.614 80.7307 162.34 80.9005 153.056 80.8506C152.445 80.8506 151.965 80.8905 151.855 80.0316C151.385 76.1963 150.875 72.371 150.284 68.5557C150.114 67.467 150.324 67.1674 151.475 67.0875C159.248 66.5282 167.032 66.7379 174.815 66.8078C178.016 66.8378 181.228 66.8677 184.429 66.7679C185.52 66.7379 186.25 67.2673 186.99 67.8266C187.54 68.2361 186.84 69.7542 185.98 69.944C183.389 70.5133 180.777 71.0426 178.176 71.5919C178.056 71.6219 177.926 71.6119 177.806 71.6419C177.426 71.7418 176.926 71.6918 177.046 72.351C177.166 72.9902 177.606 72.6806 177.926 72.6506C180.487 72.371 183.058 72.2012 185.66 72.1612Z" fill="#CAE0FF"/>
<path d="M60.586 75.1477C64.8578 76.9554 67.8591 76.506 70.4002 73.6895C68.7295 72.9803 67.1588 72.0714 67.1788 70.014C67.1888 68.6057 67.8091 67.2673 69.1396 66.6181C70.9404 65.7292 72.0609 67.1475 73.2014 68.1563C73.4815 68.0464 73.5615 67.8466 73.5615 67.6469C73.5615 66.738 73.8517 66.6181 74.7621 66.9078C76.6629 67.517 78.4836 67.0576 80.0243 65.8191C80.6146 65.3397 80.7746 65.4696 81.0648 66.0389C81.8451 67.5969 82.6354 69.145 83.4958 70.6632C83.946 71.4422 83.5358 71.6819 82.9256 71.8817C81.4349 72.3611 80.0543 71.9416 78.7138 71.2924C78.4136 71.1526 78.1135 70.9928 77.8434 70.803C77.4932 70.5533 77.2731 70.5933 77.033 70.9528C76.7929 71.3324 77.033 71.4822 77.2931 71.622C79.234 72.7906 81.2548 73.6195 83.5358 72.6607C84.1461 72.401 84.3762 72.4909 84.6163 73.0702C85.7168 75.707 86.8172 78.3437 87.9777 80.9605C88.3479 81.7895 87.8277 82.0891 87.3274 82.4587C84.0861 84.8657 80.4245 86.4038 76.6228 87.6423C72.311 89.0606 67.8991 90.0493 63.3972 90.6586C62.867 90.7285 62.4568 90.8683 62.3267 90.0893C61.5764 85.3351 60.8661 80.571 60.556 75.7669C60.546 75.5771 60.556 75.3874 60.556 75.1577L60.586 75.1477Z" fill="#CAE0FF"/>
<path d="M111.078 271.926C111.078 264.075 111.098 256.215 111.058 248.365C111.058 247.306 111.268 246.887 112.418 246.946C114.239 247.046 116.08 247.026 117.911 246.946C118.871 246.907 119.101 247.246 119.091 248.155C119.051 252.729 119.071 257.294 119.071 261.868C119.071 273.044 119.061 284.221 119.091 295.397C119.091 296.486 118.881 296.955 117.67 296.875C115.89 296.765 114.089 296.785 112.308 296.875C111.288 296.925 111.058 296.565 111.058 295.597C111.088 287.706 111.078 279.806 111.078 271.916V271.926Z" fill="#004079"/>
<path d="M41.1277 271.786C41.1277 263.975 41.1477 256.165 41.1077 248.355C41.1077 247.286 41.3378 246.886 42.4783 246.946C44.309 247.046 46.1398 247.006 47.9706 246.956C48.791 246.936 49.1411 247.126 49.1411 248.045C49.1111 263.955 49.1111 279.876 49.1411 295.786C49.1411 296.715 48.781 296.895 47.9606 296.875C46.0898 296.835 44.209 296.805 42.3482 296.875C41.3178 296.925 41.1077 296.535 41.1077 295.586C41.1377 287.646 41.1277 279.716 41.1277 271.776V271.786Z" fill="#004079"/>
<path d="M121.232 232.005H100.893C95.9812 232.005 91.0691 231.985 86.157 232.025C85.2666 232.025 85.0565 231.785 85.0565 230.926C85.0565 228.849 84.9765 226.771 84.8665 224.704C84.8265 223.865 84.8865 223.485 85.9469 223.515C93.5202 223.735 101.093 223.715 108.657 224.085C113.309 224.314 119.371 227.83 121.242 232.005H121.232Z" fill="#CAE0FF"/>
<path d="M196.634 71.6416C202.247 72.3607 207.659 71.7714 213.021 69.4243C213.021 71.0323 213.021 72.5005 213.021 73.9687C213.021 76.5855 213.041 79.2023 213.021 81.8191C213.001 84.0264 211.381 85.8042 209.23 85.8242C203.657 85.8641 198.095 85.944 192.482 85.4646C193.743 85.115 195.004 84.7455 196.264 84.4059C197.314 84.1262 198.335 83.7767 199.295 83.2873C199.916 82.9677 200.646 82.6281 200.506 81.7492C200.376 80.9102 199.856 80.3309 198.995 80.1112C198.805 80.0612 198.605 80.0313 198.405 79.9813C198.435 79.8615 198.435 79.7516 198.485 79.7117C198.955 79.3321 199.666 79.0625 199.505 78.3034C199.335 77.4644 198.545 77.3146 197.865 77.1848C196.894 77.005 195.894 76.9351 194.823 76.8152C194.933 75.7965 195.334 75.1473 196.424 74.8576C197.224 74.6479 198.335 74.4681 198.465 73.4693C198.625 72.2808 197.264 72.3507 196.634 71.6316V71.6416Z" fill="white"/>
<path d="M72.7811 66.199C69.5898 65.0005 68.3192 65.2402 67.0887 67.2677C65.498 69.8845 65.8682 71.6024 68.4893 73.9495C66.1783 75.8072 63.097 75.8272 60.9961 73.9995C60.686 73.7298 60.3758 73.4901 60.3658 73.0007C60.2558 67.7771 60.0157 62.5535 61.3362 57.4198C61.6564 56.1714 62.1166 54.9728 62.8269 53.8942C64.7377 50.9877 68.9695 51.1276 71.1204 54.1638C72.511 56.1414 72.8412 58.4486 73.0312 60.7657C73.1813 62.5835 73.1213 64.4013 72.7811 66.209V66.199Z" fill="#CAE0FF"/>
<path d="M73.9018 232.005H52.5127C48.8911 232.005 45.2695 231.985 41.658 232.015C40.9177 232.015 40.5675 231.915 40.5575 231.036C40.5275 228.958 40.3975 226.891 40.2374 224.814C40.1774 224.054 40.4975 224.005 41.0878 224.044C48.1808 224.534 55.2938 224.844 62.3669 225.573C65.9184 225.942 69.2598 227.41 72.091 229.737C72.7913 230.317 73.4116 230.986 73.9118 231.995L73.9018 232.005Z" fill="#CAE0FF"/>
<path d="M174.745 38.5327C172.574 49.3794 175.675 58.3484 183.839 65.6394C183.459 65.959 183.029 65.8292 182.648 65.8292C178.617 65.8192 174.585 65.7692 170.553 65.7892C169.723 65.7892 169.523 65.5395 169.523 64.7305C169.553 58.7079 169.523 52.6853 169.553 46.6727C169.573 43.2469 171.574 40.1407 174.745 38.5327Z" fill="#F6C254"/>
<path d="M188.261 80.3809C187.06 80.3809 185.85 80.3609 184.649 80.3809C184.059 80.3909 183.909 80.1911 184.099 79.6518C185.399 76.1261 186.7 72.6004 187.981 69.0548C188.171 68.5254 188.411 68.5854 188.811 68.7951C190.762 69.8238 192.813 70.5929 194.964 71.0723C195.534 71.2021 195.624 71.4418 195.444 71.9312C194.513 74.4581 193.593 76.975 192.683 79.5019C192.512 79.9913 192.182 80.0812 191.722 80.0812C190.562 80.0613 189.401 80.0812 188.241 80.0812C188.241 80.1811 188.241 80.271 188.241 80.3709L188.261 80.3809Z" fill="#F6C254"/>
<path d="M181.208 110.764C180.817 112.701 179.927 114.159 177.976 114.659C176.436 115.048 175.115 114.559 174.045 113.4C173.935 113.281 173.814 113.161 173.734 113.011C173.434 112.472 172.914 111.882 173.194 111.323C173.424 110.844 174.175 111.103 174.685 111.073C176.836 110.953 178.987 110.864 181.208 110.764Z" fill="#F6C254"/>
<path d="M77.8633 60.8754C76.4727 61.2149 75.2421 61.5545 74.1417 62.5833C74.0316 59.9565 73.8015 57.5195 72.9412 55.1724C74.852 56.7904 76.3626 58.718 77.8633 60.8853V60.8754Z" fill="#CAE0FF"/>
<path d="M80.4845 62.603C82.1352 63.7017 83.7759 64.7903 85.4267 65.879C85.9469 66.2186 85.9269 66.5382 85.4967 66.9677C83.7659 68.6756 83.6159 68.6556 82.4754 66.5382C81.7951 65.2698 81.0448 64.0213 80.3345 62.7728C80.3845 62.7129 80.4345 62.663 80.4845 62.603Z" fill="#CAE0FF"/>
<path d="M76.5428 62.2832C76.1826 63.8113 76.6728 64.89 77.6433 65.8688C77.3331 65.9687 77.103 66.0985 76.8729 66.1085C75.8525 66.1485 74.712 66.3482 74.1117 65.2496C73.7216 64.5504 74.602 63.292 75.7925 62.6328C75.9725 62.5329 76.1626 62.463 76.5528 62.2932L76.5428 62.2832Z" fill="#CAE0FF"/>
<path d="M198.505 78.4834C197.155 79.2724 195.834 79.7518 194.393 79.9516C193.843 80.0315 193.633 79.8817 193.803 79.2824C194.083 78.2736 194.493 77.5745 195.744 77.8941C196.604 78.1138 197.545 77.974 198.505 78.4834Z" fill="#CAE0FF"/>
<path d="M197.334 73.3099C196.884 73.7693 196.404 73.8692 195.944 73.999C196.024 73.1401 196.487 72.9104 197.334 73.3099Z" fill="#041C42"/>
<path d="M257.991 114.37C257.991 118.355 257.991 122.35 257.991 126.335C257.991 129.122 256.37 130.73 253.579 130.73C247.166 130.73 240.763 130.73 234.35 130.73C231.639 130.73 230.009 129.092 230.009 126.385C230.009 118.285 230.009 110.185 230.009 102.085C230.009 99.4581 231.669 97.8201 234.3 97.8101C240.793 97.8101 247.286 97.8001 253.779 97.8101C256.33 97.8101 257.981 99.4781 257.991 102.025C258.001 106.14 257.991 110.255 257.991 114.36V114.37Z" fill="white"/>
<path d="M257.991 69.4347C257.991 73.4198 257.991 77.4149 257.991 81.4C257.991 84.2066 256.39 85.8346 253.609 85.8346C247.196 85.8346 240.793 85.8346 234.38 85.8346C231.609 85.8346 229.999 84.2066 229.999 81.4C229.999 73.3799 229.999 65.3597 229.999 57.3496C229.999 54.4931 231.599 52.915 234.5 52.915C240.823 52.915 247.146 52.915 253.479 52.915C256.42 52.915 257.981 54.4931 257.981 57.4694C257.981 61.4545 257.981 65.4496 257.981 69.4347H257.991Z" fill="white"/>
<path d="M286.973 132.737C286.973 129.871 286.973 127.004 286.973 124.138C286.973 121.361 288.603 119.773 291.405 119.763C292.865 119.763 294.316 119.753 295.777 119.763C298.258 119.783 299.948 121.431 299.958 123.888C299.978 129.781 299.978 135.684 299.958 141.576C299.958 143.983 298.278 145.661 295.897 145.701C294.276 145.721 292.655 145.721 291.034 145.701C288.653 145.671 286.993 143.983 286.973 141.576C286.953 138.63 286.973 135.684 286.973 132.727V132.737Z" fill="white"/>
<path d="M286.973 170.66C286.973 167.754 286.973 164.847 286.973 161.941C286.973 159.324 288.633 157.696 291.275 157.686C292.775 157.686 294.266 157.676 295.767 157.686C298.258 157.706 299.948 159.344 299.958 161.801C299.978 167.694 299.978 173.597 299.958 179.489C299.958 181.946 298.268 183.604 295.787 183.624C294.206 183.634 292.625 183.644 291.045 183.624C288.663 183.594 286.993 181.916 286.973 179.509C286.953 176.563 286.973 173.616 286.973 170.66Z" fill="white"/>
<path d="M201.957 65.8892C190.382 65.8892 181.028 56.4708 181.028 44.8151C181.028 33.3292 190.472 24.0007 202.077 23.9907C213.652 23.9907 223.006 33.4091 222.996 45.0648C222.996 56.5507 213.552 65.8792 201.947 65.8892H201.957Z" fill="#041C42"/>
<path d="M214.512 60.3357C214.512 59.1472 214.512 58.0685 214.512 56.9899C214.482 53.8337 212.161 51.4367 209.01 51.4267C201.727 51.3967 194.444 51.4267 187.16 51.4067C185.73 51.4067 184.739 52.1158 183.839 53.2445C181.648 48.2106 181.448 43.2268 183.209 38.123C183.489 37.324 184.019 37.4439 184.589 37.4439C192.333 37.4439 200.066 37.4439 207.809 37.4439C211.721 37.4439 215.633 37.4439 219.544 37.4439C220.155 37.4439 220.565 37.4738 220.855 38.2129C223.746 45.5639 221.115 55.3119 214.862 60.2059C214.802 60.2459 214.722 60.2558 214.512 60.3357Z" fill="#F6C254"/>
<path d="M219.945 36.4054H184.129C186.04 30.1131 194.434 24.8796 202.467 24.9794C210.971 25.0893 217.844 30.8922 219.945 36.4054Z" fill="#F6C254"/>
<path d="M198.175 52.4157C201.676 52.4157 205.168 52.4157 208.669 52.4157C211.651 52.4157 213.512 54.2635 213.522 57.2099C213.522 58.0788 213.442 58.9677 213.542 59.8266C213.682 60.9353 213.231 61.5345 212.291 62.0839C203.037 67.5471 191.092 64.7806 185.259 55.7716C184.859 55.1624 184.299 54.5831 184.829 53.7541C185.379 52.8752 186.13 52.4058 187.19 52.4058C190.312 52.4157 193.433 52.4058 196.554 52.4058C197.094 52.4058 197.635 52.4058 198.175 52.4058V52.4157Z" fill="#F6C254"/>
</g>
<defs>
<clipPath id="clip0_707_4897">
<rect width="320" height="298" fill="white"/>
</clipPath>
</defs>
</svg>
