<svg viewBox="0 0 320 298" fill="none" xmlns="http://www.w3.org/2000/svg">
<g clip-path="url(#clip0_707_5077)">
<rect width="320" height="298" fill="#F6C254"/>
<path d="M0 0C106.212 0 213.788 0.0299602 320 0C319.97 98.549 319.97 198.307 319.97 296.856C319.51 297.315 318.92 297.315 318.339 297.315C311.096 297.315 303.852 297.335 296.609 297.315C294.888 297.315 294.538 296.936 294.528 295.118C294.508 289.426 294.538 283.723 294.508 278.031C294.488 274.415 292.907 271.639 289.835 269.742C288.285 268.783 286.574 268.374 284.733 268.384C275.949 268.403 267.164 268.393 258.38 268.384C255.719 268.384 255.549 268.214 255.549 265.567C255.549 254.552 255.579 243.537 255.519 232.521C255.509 230.194 256.369 228.127 257.019 226C259.721 217.122 261.882 208.124 263.192 198.936C263.983 193.363 264.313 187.761 263.983 182.158C263.593 175.527 262.072 169.195 258.31 163.543C254.178 157.331 248.255 154.016 241.082 152.687C237.47 152.018 233.808 151.928 230.146 152.328C227.285 152.647 227.095 152.478 227.045 149.591C226.975 145.717 227.625 141.892 227.735 138.037C227.945 130.806 228.105 123.566 226.044 116.515C225.274 113.889 224.173 111.442 222.062 109.585C220.211 107.957 218.06 107.777 215.989 109.145C213.948 110.503 212.397 112.341 211.027 114.348C210.447 115.207 209.876 116.076 209.296 116.935C208.916 117.494 208.396 117.884 207.705 117.584C206.485 117.065 205.404 117.224 204.514 118.163C203.443 119.292 202.853 120.66 203.093 122.248C203.223 123.077 203.513 123.866 204.123 124.475C204.724 125.074 204.874 125.743 204.544 126.522C202.493 131.346 200.732 136.279 199.131 141.262C198.881 142.041 198.241 142.561 197.75 143.17C196.79 144.378 195.899 145.637 194.909 146.805C193.999 147.874 193.378 147.804 192.818 146.516C191.687 143.969 190.627 141.392 189.386 138.896C186.865 133.812 183.964 128.969 180.362 124.575C179.832 123.936 179.591 123.216 179.591 122.388C179.581 117.604 179.551 112.83 179.601 108.047C179.621 105.909 180.382 105.061 182.483 104.631C184.804 104.152 187.125 103.672 189.436 103.143C190.847 102.824 190.977 102.624 190.727 101.176C190.337 98.9287 190.087 96.6518 189.706 94.4048C189.516 93.2363 189.796 92.3075 190.587 91.4287C192.058 89.7809 193.478 88.1031 195.019 86.5252C196.1 85.4167 196.1 85.207 194.989 84.0685C193.448 82.4906 192.028 80.8028 190.557 79.165C189.776 78.2862 189.486 77.3175 189.616 76.179C189.927 73.5824 190.187 70.9859 190.457 68.3793C190.547 67.5505 190.277 67.2409 189.546 67.0811C186.985 66.5118 184.454 65.8527 181.883 65.3434C180.542 65.0737 179.611 64.4346 178.991 63.2362C178.101 61.4985 177.11 59.8107 176.2 58.083C175.7 57.1243 175.079 56.9445 174.069 57.344C171.868 58.2228 169.647 59.0517 167.426 59.8906C166.345 60.2901 165.335 60.2801 164.274 59.8707C162.183 59.0517 160.082 58.2528 157.981 57.4539C156.47 56.8746 156.37 56.9146 155.51 58.3227C154.359 60.2002 153.239 62.0977 152.168 64.0251C151.558 65.1337 150.717 65.7628 149.477 66.0125C147.316 66.4419 145.185 67.0112 143.024 67.4606C142.043 67.6703 141.763 68.1497 141.773 69.0884C141.793 71.0857 141.963 73.0731 142.183 75.0505C142.383 76.8381 142.173 78.3261 140.813 79.7243C139.342 81.2423 137.831 82.7403 136.45 84.3581C135.85 85.0572 135.76 85.4866 136.41 86.2356C137.881 87.9433 139.512 89.4813 141.013 91.1491C141.993 92.2376 142.433 93.3761 142.233 94.7743C141.753 98.0699 142.453 98.2696 138.491 98.2596C122.294 98.2397 106.096 98.2197 89.8977 98.2896C87.9167 98.2896 86.6761 97.6704 85.6156 95.9927C82.1839 90.5399 78.5722 85.197 75.1605 79.7243C74.6503 78.9054 74.01 78.1963 73.2896 77.5671C72.9995 77.3175 72.6293 77.1477 72.2591 77.3474C71.8189 77.5771 71.8189 77.9966 71.9189 78.436C72.1591 79.4846 72.4592 80.5232 72.7694 81.5618C72.9394 82.1211 73.4097 82.92 72.7393 83.2396C72.109 83.5392 71.7088 82.7203 71.3387 82.2409C69.8679 80.3235 68.4472 78.3761 66.8965 76.5285C65.846 75.2902 64.8455 74.0119 63.6149 72.9433C63.2747 72.6537 62.9245 72.2242 62.4243 72.4839C61.844 72.7835 62.0641 73.3527 62.1642 73.8221C62.2642 74.3115 62.4943 74.7609 62.6444 75.2402C62.7545 75.5898 62.9345 76.0192 62.5644 76.2689C62.1842 76.5185 61.864 76.179 61.5939 75.9293C60.9936 75.3501 60.5034 74.671 59.8731 74.1217C59.3828 73.7023 58.8926 72.9333 58.2022 73.3527C57.4719 73.8121 57.9321 74.621 58.1122 75.2802C58.3223 76.0392 58.7625 76.7183 58.9626 77.4872C59.0326 77.7669 59.1027 78.1164 58.8125 78.2862C58.5224 78.456 58.2523 78.2263 58.0422 78.0365C57.3418 77.3874 56.8616 76.5285 56.1112 75.9193C55.731 75.6097 55.3809 75.1504 54.8106 75.4699C54.1703 75.8294 54.4004 76.3787 54.5805 76.898C55.5509 79.7143 57.2318 82.161 58.7425 84.6977C59.1127 85.3168 59.9531 86.1058 59.3228 86.6551C58.6425 87.2443 58.0822 86.2057 57.5319 85.7762C56.9416 85.3168 56.4014 84.8075 55.761 84.408C55.4409 84.2083 55.1207 83.9387 54.7405 84.2083C54.2803 84.5379 54.5405 84.9573 54.6805 85.3368C55.0807 86.4353 55.561 87.4939 56.1212 88.5126C58.9526 93.6558 61.4238 98.9587 63.805 104.322C64.3152 105.48 64.5854 106.668 64.5854 107.947C64.5854 160.577 64.5854 213.197 64.5854 265.827C64.5854 266.077 64.5854 266.326 64.5754 266.576C64.4853 267.954 64.1451 268.294 62.7244 268.364C62.2242 268.384 61.724 268.374 61.2237 268.374C52.5995 268.374 43.9853 268.354 35.3611 268.384C30.4787 268.403 26.8069 271.419 25.7364 276.183C25.5763 276.882 25.6063 277.591 25.6063 278.29C25.6063 283.613 25.6063 288.936 25.6063 294.249C25.6063 294.669 25.6163 295.078 25.5963 295.498C25.5163 296.876 25.1661 297.215 23.7454 297.285C23.6254 297.285 23.4953 297.285 23.3752 297.285C16.2117 297.285 9.04824 297.295 1.88475 297.275C1.22443 297.275 2.00524e-05 297 2.00524e-05 297C-0.00998483 274.55 0.0338442 251.736 0.0338442 229.285C0.0338442 153.386 0 75.8991 0 0Z" fill="#A1C9FF"/>
<path d="M0.00010236 297C7.87395 297 15.9216 296.845 23.7954 296.875C24.836 296.875 25.1961 296.705 25.1761 295.557C25.1061 289.785 25.1361 284.002 25.1461 278.22C25.1461 272.248 29.4682 267.924 35.4511 267.924C44.5656 267.924 53.69 267.894 62.8045 267.954C63.925 267.954 64.1451 267.664 64.1451 266.595C64.1151 214.385 64.1051 162.174 64.1652 109.963C64.1652 107.317 63.6549 104.94 62.5444 102.563C60.2132 97.56 57.752 92.6265 55.2408 87.723C54.9006 87.0639 54.5605 86.3848 54.3003 85.6957C54.0602 85.0566 53.6 84.3076 54.3203 83.7483C55.0107 83.219 55.671 83.7184 56.2313 84.1578C56.8516 84.6471 57.4619 85.1565 58.0021 85.7257C58.4023 86.1451 58.6925 86.6545 59.1727 87.014C59.4428 86.3549 59.0527 86.0453 58.8325 85.6858C57.3718 83.3688 55.9011 81.0519 54.7506 78.5652C54.4604 77.9261 54.2103 77.267 54.0102 76.5879C53.8201 75.9287 53.9902 75.3295 54.6405 75C55.2308 74.7004 55.771 74.8302 56.2113 75.3295C57.0417 76.2583 57.8621 77.1871 58.7325 78.1757C58.3123 77.0772 57.8621 76.0585 57.5219 74.99C57.2918 74.251 57.0117 73.3621 57.8921 72.8628C58.6825 72.4134 59.3328 72.9627 59.8731 73.492C60.7735 74.3808 61.6139 75.3295 62.6044 76.3881C62.2042 75.2197 61.6439 74.2809 61.5339 73.1924C61.4838 72.713 61.5038 72.2436 61.9241 71.954C62.3943 71.6244 62.8745 71.8042 63.3047 72.1138C64.8555 73.2123 66.0161 74.6904 67.1866 76.1384C69.0575 78.4753 70.8684 80.8522 72.9094 83.4587C72.4392 81.9507 71.989 80.7523 71.7188 79.514C71.5087 78.5552 70.8884 77.2669 72.1391 76.7277C73.1796 76.2783 74.01 77.2969 74.5502 78.0958C76.6212 81.1518 78.6022 84.2776 80.6132 87.3735C82.6942 90.5793 84.7952 93.765 86.8462 96.9907C87.2264 97.58 87.6066 97.8296 88.327 97.8296C105.735 97.8096 123.134 97.8096 140.542 97.8296C141.323 97.8296 141.473 97.5999 141.653 96.8409C142.333 93.9448 141.473 91.7477 139.202 89.8802C137.871 88.7717 136.811 87.3336 135.58 86.1052C134.99 85.516 135.07 85.1165 135.61 84.5573C137.481 82.6098 139.292 80.6025 141.183 78.6651C141.693 78.1458 141.913 77.6464 141.853 76.9174C141.623 74.1411 141.493 71.3648 141.233 68.5885C141.153 67.6797 141.463 67.3302 142.303 67.1504C144.865 66.6011 147.396 65.952 149.967 65.4427C150.717 65.2929 151.108 64.9333 151.458 64.3142C152.818 61.9373 154.249 59.6004 155.6 57.2136C156.01 56.4846 156.39 56.3348 157.181 56.6444C159.802 57.693 162.453 58.6617 165.084 59.6903C165.665 59.92 166.155 59.93 166.745 59.6903C169.327 58.6717 171.958 57.7429 174.519 56.6843C175.49 56.2848 175.89 56.5145 176.34 57.3934C177.41 59.5006 178.621 61.5379 179.732 63.6251C180.052 64.2243 180.422 64.5339 181.112 64.6837C184.034 65.3028 186.935 66.0519 189.867 66.671C190.847 66.8808 191.127 67.2802 190.997 68.2789C190.627 71.0752 190.397 73.8914 190.057 76.6977C189.947 77.5666 190.187 78.1857 190.767 78.8049C192.528 80.6824 194.219 82.6298 195.99 84.4973C196.58 85.1165 196.59 85.516 196 86.1451C194.199 88.0526 192.498 90.04 190.697 91.9374C190.077 92.5866 189.977 93.2357 190.117 94.0646C190.537 96.6412 190.857 99.2377 191.297 101.814C191.487 102.913 191.127 103.342 190.037 103.542C187.345 104.041 184.684 104.74 181.983 105.21C180.632 105.449 180.092 106.318 180.072 107.417C180.002 112.61 180.042 117.813 180.032 123.006C180.032 123.406 180.172 123.705 180.422 124.005C186.065 130.726 189.937 138.466 193.248 146.515C193.368 146.815 193.488 147.124 193.678 147.633C194.939 146.006 196 144.358 197.35 142.99C198.491 141.841 198.921 140.473 199.381 139.045C200.752 134.781 202.313 130.586 204.073 126.462C204.344 125.832 204.434 125.463 203.843 124.894C201.792 122.906 202.303 118.862 204.724 117.364C205.664 116.774 206.725 116.535 207.665 117.174C208.446 117.703 208.626 117.254 208.936 116.744C210.497 114.138 212.167 111.611 214.539 109.634C217.89 106.838 221.132 107.197 223.753 110.693C226.034 113.738 226.925 117.324 227.505 120.989C228.745 128.888 228.375 136.818 227.635 144.727C227.425 146.974 227.595 149.211 227.505 151.448C227.475 152.107 227.815 152.048 228.275 151.998C231.677 151.638 235.069 151.528 238.49 151.868C250.746 153.066 259.26 160.167 262.742 172.101C264.583 178.423 264.823 184.874 264.373 191.365C263.472 204.528 260.371 217.251 256.259 229.744C256.079 230.304 255.989 230.863 255.989 231.452C255.999 243.216 256.009 254.981 255.969 266.745C255.969 267.764 256.269 267.953 257.209 267.944C266.324 267.914 275.448 267.924 284.563 267.924C290.646 267.924 294.958 272.208 294.968 278.25C294.968 284.072 294.988 289.884 294.948 295.707C294.948 296.625 295.148 296.885 296.098 296.875C304.052 296.835 312.046 297 320 297V298C214.278 298 105.712 298 0 298L0.00010236 297Z" fill="#041C42"/>
<path d="M179.051 109.086V110.394C179.051 128.35 179.061 146.306 179.021 164.272C179.021 165.401 179.301 165.69 180.432 165.69C202.043 165.65 223.653 165.66 245.264 165.66C251.287 165.66 254.998 169.366 254.998 175.368C254.998 205.757 254.998 236.147 255.018 266.536C255.018 267.635 254.788 267.965 253.618 267.965C220.892 267.925 188.156 267.925 155.43 267.965C154.269 267.965 154.019 267.645 154.029 266.536C154.069 250.448 154.059 234.359 154.059 218.271C154.059 211.709 149.887 207.565 143.274 207.565C125.405 207.565 107.546 207.565 89.6777 207.565C83.3346 207.565 79.0925 211.779 79.0925 218.091C79.0925 234.259 79.0825 250.428 79.1225 266.606C79.1225 267.695 78.8724 267.984 77.7719 267.965C73.94 267.885 70.1081 267.905 66.2763 267.955C65.4058 267.965 65.0757 267.825 65.0757 266.836C65.1057 213.876 65.0957 160.917 65.1057 107.957C65.1057 102.734 69.0376 98.8293 74.2802 98.8293C96.2709 98.8293 118.252 98.8293 140.242 98.7993C141.233 98.7993 141.473 99.019 141.383 100.028C141.083 103.174 141.133 103.193 144.164 103.923C146.105 104.392 148.036 104.861 149.997 105.251C150.687 105.391 151.068 105.71 151.398 106.309C152.748 108.686 154.189 111.023 155.53 113.41C156 114.249 156.43 114.359 157.301 113.939C159.912 112.661 162.583 111.512 165.205 110.264C165.785 109.984 166.215 110.094 166.725 110.324C169.327 111.532 171.958 112.661 174.529 113.929C175.49 114.399 175.91 114.149 176.36 113.3C177.13 111.852 178.011 110.464 178.841 109.056C178.911 109.076 178.971 109.086 179.041 109.106L179.051 109.086Z" fill="#F6C254"/>
<path d="M159.992 296.855C115.861 296.855 71.719 296.855 27.5874 296.885C26.3868 296.885 26.0967 296.616 26.1067 295.407C26.1767 289.675 26.1367 283.933 26.1367 278.2C26.1367 272.797 30.0186 268.913 35.4012 268.913C118.512 268.913 201.612 268.913 284.723 268.913C290.106 268.913 293.967 272.807 293.977 278.21C293.977 283.993 293.937 289.765 294.007 295.547C294.017 296.686 293.687 296.875 292.637 296.875C248.415 296.845 204.204 296.855 159.982 296.855H159.992Z" fill="#CAE0FF"/>
<path d="M116.591 238.364C116.591 247.801 116.571 257.228 116.621 266.666C116.621 267.715 116.351 267.944 115.32 267.944C103.995 267.904 92.6694 267.904 81.3539 267.944C80.2633 267.944 80.0933 267.615 80.0933 266.626C80.1233 250.378 80.1133 234.129 80.1133 217.881C80.1133 212.398 83.9752 208.563 89.4678 208.553C98.1221 208.553 106.786 208.563 115.441 208.533C116.371 208.533 116.611 208.743 116.611 209.692C116.571 219.249 116.591 228.806 116.591 238.364Z" fill="#F6C254"/>
<path d="M117.591 238.203C117.591 228.726 117.601 219.248 117.571 209.781C117.571 208.862 117.731 208.522 118.762 208.532C127.126 208.582 135.5 208.552 143.864 208.562C149.177 208.562 153.058 212.467 153.058 217.79C153.058 234.078 153.058 250.377 153.088 266.665C153.088 267.704 152.828 267.953 151.798 267.953C140.813 267.914 129.817 267.914 118.832 267.953C117.751 267.953 117.561 267.644 117.571 266.645C117.611 257.168 117.591 247.69 117.591 238.223V238.203Z" fill="#F6C254"/>
<path d="M142.324 101.036C142.504 98.4097 142.644 96.0129 142.824 93.6161C142.894 92.6674 142.574 91.9483 141.913 91.2792C140.223 89.5615 138.602 87.7839 136.911 86.0661C136.411 85.5568 136.291 85.2173 136.861 84.648C138.472 83.0302 139.922 81.2426 141.623 79.7246C143.154 78.3664 142.844 76.7585 142.754 75.1307C142.644 73.1533 142.484 71.1659 142.314 69.1886C142.254 68.4695 142.524 68.1599 143.234 68.0101C145.625 67.4908 148.006 66.9116 150.387 66.3723C151.148 66.2025 151.698 65.883 152.108 65.134C153.329 62.9169 154.7 60.7797 155.95 58.5827C156.4 57.7937 156.811 57.554 157.731 57.9435C160.182 58.9622 162.693 59.841 165.165 60.8197C166.105 61.1892 166.876 60.7398 167.676 60.4402C169.927 59.5913 172.188 58.7325 174.419 57.8337C175.12 57.554 175.39 57.8536 175.69 58.3929C176.79 60.3903 177.951 62.3577 179.001 64.375C179.392 65.134 179.942 65.4535 180.712 65.6333C183.504 66.2724 186.275 66.9615 189.076 67.5607C189.787 67.7105 189.977 67.8404 189.877 68.6593C189.517 71.5754 189.306 74.5015 189.036 77.4276C188.966 78.1567 189.246 78.676 189.737 79.1953C191.468 81.0428 193.148 82.9403 194.879 84.7878C195.299 85.2372 195.219 85.5169 194.839 85.9263C193.198 87.694 191.658 89.5415 189.947 91.2393C189.136 92.0482 188.916 92.8871 189.076 93.9257C189.467 96.4124 189.847 98.9091 190.267 101.396C190.397 102.175 190.137 102.514 189.357 102.664C186.755 103.173 184.164 103.773 181.563 104.292C180.732 104.452 180.122 104.791 179.692 105.55C178.461 107.717 177.171 109.845 175.95 112.022C175.52 112.801 175.14 113.11 174.209 112.651C171.858 111.502 169.437 110.504 167.066 109.385C166.275 109.016 165.605 109.006 164.815 109.375C162.413 110.504 159.962 111.552 157.561 112.691C156.761 113.07 156.39 112.861 155.98 112.151C154.7 109.914 153.329 107.737 152.078 105.49C151.688 104.781 151.168 104.482 150.448 104.322C148.266 103.823 146.075 103.343 143.904 102.814C142.053 102.364 142.364 102.694 142.324 101.046V101.036Z" fill="#004079"/>
<path d="M180.052 125.163C181.753 127.071 183.023 128.948 184.224 130.856C187.675 136.308 190.487 142.081 192.798 148.093C192.948 148.492 192.928 149.081 193.508 149.141C194.009 149.191 194.149 148.672 194.399 148.362C195.549 146.894 196.73 145.436 197.81 143.918C198.341 143.169 198.771 142.99 199.721 143.319C206.585 145.696 213.598 147.354 220.922 147.414C222.462 147.424 224.003 147.314 225.514 146.974C226.354 146.785 226.584 147.044 226.544 147.873C226.484 149.201 226.594 150.54 226.504 151.858C226.424 153.056 226.885 153.216 227.965 153.066C233.208 152.347 238.43 152.377 243.563 153.765C253.207 156.372 258.9 162.893 261.742 172.201C263.643 178.462 263.823 184.884 263.392 191.335C262.612 203.12 259.931 214.534 256.509 225.79C256.419 226.089 256.309 226.389 256.019 226.668V225.26C256.019 208.592 256.019 191.925 256.019 175.257C256.019 168.835 251.817 164.631 245.414 164.631C224.093 164.631 202.783 164.631 181.462 164.651C180.352 164.651 180.032 164.411 180.032 163.253C180.082 151.029 180.062 138.815 180.062 126.591V125.133L180.052 125.163Z" fill="#A1C9FF"/>
<path d="M226.665 122.528C225.144 121.559 223.533 121.209 221.802 121.729C221.122 121.938 220.492 122.258 219.991 122.777C218.891 123.936 218.941 125.384 220.241 126.322C222.372 127.87 224.654 128.06 226.995 126.782C227.305 127.052 227.205 127.411 227.215 127.731C227.425 133.463 227.235 139.185 226.625 144.898C226.555 145.577 226.344 145.867 225.614 145.996C221.202 146.825 216.82 146.366 212.468 145.647C208.366 144.958 204.354 143.899 200.422 142.551C199.701 142.301 199.471 142.082 199.741 141.243C202.053 133.922 204.764 126.772 208.286 119.931C208.856 118.822 209.436 118.063 210.897 117.914C213.048 117.694 214.959 116.695 216.27 114.878C216.71 114.268 216.9 114.308 217.28 114.898C218.491 116.765 220.001 118.343 221.932 119.502C222.943 120.111 224.033 120.62 225.184 120.67C226.515 120.72 226.785 121.349 226.675 122.528H226.665Z" fill="#CAE0FF"/>
<path d="M62.5145 72.7539C64.3554 74.142 65.6261 75.7299 66.8667 77.3278C69.3079 80.4836 71.679 83.6793 74.0802 86.8651C74.2003 87.0349 74.3103 87.2146 74.4504 87.3644C74.7205 87.6441 74.9406 88.1833 75.4309 87.9037C75.9211 87.6241 75.6109 87.1747 75.4609 86.8052C74.7105 84.9177 73.9101 83.0502 73.2198 81.1427C72.8396 80.0841 72.4194 79.0055 72.5294 77.6673C73.4099 78.1467 73.9101 78.7858 74.3503 79.4749C78.2022 85.437 82.0541 91.3991 85.896 97.3612C85.956 97.451 85.986 97.5709 86.0861 97.8106C82.0241 97.8106 78.0421 97.7606 74.0702 97.8205C70.0682 97.8805 67.1168 99.7879 65.1859 103.263C64.9858 103.623 64.8257 104.012 64.6456 104.382C64.6256 104.412 64.5756 104.422 64.4255 104.512C61.6341 97.7606 58.0924 91.3791 55.0509 84.7479C57.0919 85.8864 58.5126 87.6341 60.0133 89.2819C61.414 90.8198 62.7146 92.4377 64.0953 93.9856C64.3855 94.3152 64.6756 94.9943 65.2559 94.5848C65.8562 94.1454 65.2659 93.686 65.0258 93.3165C62.3945 89.3318 59.7032 85.3871 57.302 81.2626C56.5716 80.0142 55.9313 78.7059 55.321 77.3877C55.1109 76.9383 54.6107 76.2892 55.151 75.9496C55.6012 75.67 55.9413 76.409 56.2415 76.7585C58.4626 79.405 60.4135 82.2412 62.3645 85.0875C63.9152 87.3445 65.446 89.6214 66.9867 91.8884C67.2068 92.218 67.4269 92.7573 67.9172 92.4776C68.4875 92.1481 68.0873 91.6687 67.8572 91.2992C65.496 87.4443 62.9548 83.6993 60.7937 79.7146C59.9433 78.1467 59.0729 76.5988 58.5426 74.881C58.4326 74.5215 58.2825 74.182 58.4626 73.7525C59.393 74.132 59.9833 74.901 60.5836 75.6201C64.0353 79.7945 66.8066 84.4283 69.7481 88.9523C70.0682 89.4417 70.2983 90.5103 71.0787 90.0409C71.8691 89.5715 71.0187 88.8425 70.7386 88.3431C68.6075 84.4483 66.0663 80.7932 64.0553 76.8384C63.425 75.6101 62.7046 74.4017 62.5246 72.7339L62.5145 72.7539Z" fill="#CAE0FF"/>
<path d="M216.63 111.802C215.619 115.207 213.268 116.596 209.847 117.125C211.868 113.979 213.669 111.013 216.86 109.295C218.631 108.347 220.182 108.606 221.682 109.944C224.484 112.441 225.384 115.857 226.195 119.302C226.365 120.021 225.794 119.771 225.494 119.731C223.393 119.442 221.692 118.373 220.192 116.935C218.741 115.537 217.68 113.849 216.62 111.802H216.63Z" fill="#CAE0FF"/>
<path d="M204.934 124.435C202.863 123.276 203.313 119.252 205.414 118.143C205.814 117.934 206.235 117.724 206.715 117.864C207.505 118.093 208.066 118.353 207.475 119.402C206.555 121.009 205.794 122.717 204.934 124.445V124.435Z" fill="#CAE0FF"/>
<path d="M223.263 122.567C225.304 122.528 226.805 123.616 226.715 124.964C226.625 126.293 225.204 126.812 222.573 126.412C223.123 125.853 223.883 125.534 224.023 124.715C224.174 123.886 223.933 123.187 223.253 122.567H223.263Z" fill="#CAE0FF"/>
<path d="M124.084 175.128C124.084 171.093 124.084 167.068 124.084 163.034C124.084 159.748 126.165 157.671 129.457 157.671C135.87 157.671 142.283 157.671 148.686 157.671C151.978 157.671 154.059 159.748 154.059 163.034C154.059 171.093 154.059 179.162 154.059 187.222C154.059 190.507 151.978 192.584 148.686 192.584C142.273 192.584 135.86 192.584 129.457 192.584C126.165 192.584 124.084 190.507 124.084 187.222C124.084 183.187 124.084 179.162 124.084 175.128Z" fill="#041C42"/>
<path d="M109.087 175.078C109.087 179.152 109.087 183.227 109.087 187.302C109.087 190.507 106.976 192.584 103.765 192.594C97.3117 192.594 90.8585 192.594 84.4054 192.594C81.2038 192.594 79.1128 190.487 79.1128 187.282C79.1128 179.172 79.1128 171.073 79.1128 162.964C79.1128 159.758 81.2138 157.681 84.4354 157.671C90.8885 157.671 97.3417 157.671 103.795 157.671C107.006 157.671 109.087 159.778 109.087 162.984C109.087 167.018 109.087 171.043 109.087 175.078Z" fill="#041C42"/>
<path d="M154.069 130.227C154.069 134.261 154.069 138.286 154.069 142.321C154.069 145.606 151.988 147.684 148.697 147.684C142.284 147.684 135.87 147.684 129.467 147.684C126.176 147.684 124.095 145.606 124.095 142.321C124.095 134.261 124.095 126.192 124.095 118.133C124.095 114.847 126.176 112.77 129.467 112.77C135.88 112.77 142.294 112.77 148.697 112.77C151.988 112.77 154.069 114.847 154.069 118.133C154.069 122.168 154.069 126.192 154.069 130.227Z" fill="#041C42"/>
<path d="M79.1128 130.237C79.1128 126.202 79.1128 122.178 79.1128 118.143C79.1128 114.858 81.1938 112.78 84.4854 112.78C90.8985 112.78 97.3117 112.78 103.715 112.78C107.006 112.78 109.087 114.858 109.087 118.143C109.087 126.202 109.087 134.272 109.087 142.331C109.087 145.617 107.006 147.694 103.715 147.694C97.3017 147.694 90.8885 147.694 84.4854 147.694C81.1938 147.694 79.1128 145.617 79.1128 142.331C79.1128 138.296 79.1128 134.272 79.1128 130.237Z" fill="#041C42"/>
<path d="M181.052 193.593C181.052 190.686 181.052 187.77 181.052 184.864C181.062 181.738 183.173 179.641 186.295 179.621C187.876 179.621 189.457 179.601 191.037 179.621C193.869 179.671 196.02 181.788 196.03 184.605C196.05 190.587 196.06 196.569 196.03 202.561C196.02 205.387 193.869 207.504 191.037 207.544C189.376 207.564 187.706 207.574 186.045 207.544C183.213 207.494 181.082 205.377 181.052 202.561C181.022 199.565 181.052 196.579 181.052 193.583V193.593Z" fill="#041C42"/>
<path d="M221.022 193.613C221.022 196.519 221.032 199.435 221.022 202.342C221.012 205.457 218.891 207.545 215.76 207.555C214.179 207.555 212.598 207.575 211.017 207.555C208.196 207.505 206.055 205.368 206.045 202.541C206.025 196.599 206.025 190.657 206.045 184.715C206.055 181.749 208.196 179.642 211.187 179.622C212.808 179.612 214.439 179.592 216.06 179.622C218.881 179.672 220.982 181.809 221.032 184.635C221.032 184.675 221.032 184.715 221.032 184.755C221.032 187.701 221.032 190.657 221.032 193.603L221.022 193.613Z" fill="#041C42"/>
<path d="M231.017 193.563C231.017 190.657 231.007 187.74 231.017 184.834C231.027 181.718 233.148 179.641 236.289 179.621C237.87 179.621 239.451 179.591 241.032 179.621C243.853 179.671 245.984 181.808 245.994 184.635C246.014 190.577 246.014 196.519 245.994 202.461C245.984 205.427 243.833 207.524 240.852 207.544C239.231 207.554 237.6 207.574 235.979 207.544C233.158 207.494 231.037 205.357 231.017 202.531C230.997 199.535 231.017 196.549 231.017 193.553V193.563Z" fill="#041C42"/>
<path d="M181.052 231.443C181.052 228.537 181.042 225.621 181.052 222.715C181.072 219.659 183.183 217.551 186.235 217.531C187.856 217.521 189.486 217.501 191.107 217.531C193.869 217.591 196.02 219.709 196.03 222.455C196.06 228.477 196.06 234.509 196.03 240.531C196.01 243.287 193.859 245.404 191.107 245.454C189.446 245.484 187.776 245.474 186.115 245.454C183.213 245.414 181.082 243.297 181.062 240.401C181.042 237.405 181.062 234.419 181.062 231.423L181.052 231.443Z" fill="#041C42"/>
<path d="M221.022 231.652C221.022 234.518 221.032 237.385 221.022 240.251C221.012 243.367 218.891 245.454 215.76 245.474C214.179 245.474 212.598 245.494 211.017 245.474C208.196 245.424 206.055 243.287 206.045 240.471C206.025 234.528 206.025 228.586 206.045 222.644C206.045 219.678 208.196 217.571 211.187 217.551C212.808 217.541 214.439 217.521 216.06 217.551C218.881 217.601 220.982 219.728 221.032 222.554C221.032 222.594 221.032 222.634 221.032 222.674C221.032 225.67 221.032 228.656 221.032 231.652H221.022Z" fill="#041C42"/>
<path d="M246.014 231.482C246.014 234.388 246.014 237.305 246.014 240.211C246.004 243.346 243.903 245.454 240.781 245.464C239.241 245.464 237.7 245.474 236.159 245.464C233.178 245.434 231.037 243.327 231.027 240.37C231.007 234.468 231.007 228.566 231.027 222.664C231.027 219.688 233.168 217.561 236.129 217.531C237.67 217.521 239.211 217.531 240.751 217.531C243.893 217.551 246.004 219.638 246.014 222.754C246.024 225.66 246.014 228.576 246.014 231.482Z" fill="#041C42"/>
<path d="M163.574 95.2836C163.424 95.1838 163.204 95.0639 163.034 94.9041C159.892 91.948 156.761 88.972 153.609 86.0259C153.029 85.4866 153.099 85.1171 153.639 84.6078C154.73 83.5792 155.79 82.5306 156.811 81.432C157.371 80.8328 157.751 80.8328 158.321 81.432C159.842 83.0199 161.443 84.5379 162.964 86.1258C163.434 86.6151 163.674 86.6651 164.194 86.1258C167.506 82.7403 170.888 79.4247 174.199 76.0292C174.86 75.3501 175.31 75.3901 175.96 75.9393C177.071 76.8781 177.981 78.0166 179.172 78.8854C179.882 79.4047 179.402 79.8741 178.962 80.3135C176.72 82.5406 174.489 84.7776 172.258 87.0046C169.727 89.5313 167.196 92.0479 164.655 94.5646C164.364 94.8542 164.134 95.2237 163.574 95.2736V95.2836Z" fill="#041C42"/>
<path d="M213.378 125.733C211.817 125.653 210.347 125.304 209.166 124.165C208.326 123.356 208.256 122.407 208.836 121.459C209.736 119.991 211.227 119.571 212.818 119.621C214.419 119.671 215.859 120.2 216.64 121.748C217.38 123.226 216.84 124.664 215.319 125.343C214.709 125.613 214.068 125.773 213.378 125.733Z" fill="#041C42"/>
<path d="M217.39 138.467C213.908 138.477 210.807 136.15 209.926 133.303C209.806 132.924 209.896 132.804 210.197 132.644C210.547 132.465 210.707 132.584 210.867 132.904C211.117 133.423 211.387 133.943 211.697 134.422C213.468 137.118 215.919 138.027 219.011 137.148C220.302 136.779 221.472 136.16 222.583 135.431C222.893 135.231 223.133 135.101 223.403 135.491C223.703 135.92 223.393 136.09 223.113 136.27C221.212 137.518 219.191 138.417 217.38 138.467H217.39Z" fill="#041C42"/>
<path d="M218.05 133.522C217.28 133.373 216.27 133.163 215.249 133.003C214.889 132.943 214.749 132.833 214.789 132.454C214.849 131.974 215.129 131.964 215.499 132.034C216.27 132.184 217.05 132.314 217.82 132.464C218.741 132.644 219.121 132.434 218.921 131.375C218.441 128.809 218.05 126.232 217.63 123.655C217.57 123.296 217.25 122.827 217.95 122.677C218.661 122.527 218.531 123.086 218.601 123.446C219.071 126.182 219.541 128.909 219.981 131.645C220.171 132.843 219.501 133.562 218.06 133.522H218.05Z" fill="#041C42"/>
<path d="M153.069 175.127C153.069 179.112 153.069 183.107 153.069 187.091C153.069 189.988 151.488 191.585 148.626 191.585C142.263 191.585 135.89 191.585 129.527 191.585C126.716 191.585 125.085 189.988 125.085 187.211C125.085 179.152 125.085 171.093 125.085 163.033C125.085 160.257 126.716 158.659 129.527 158.659C135.89 158.659 142.263 158.659 148.626 158.659C151.488 158.659 153.069 160.257 153.069 163.153C153.069 167.138 153.069 171.133 153.069 175.117V175.127Z" fill="white"/>
<path d="M108.097 175.137C108.097 179.172 108.097 183.197 108.097 187.231C108.097 189.958 106.476 191.595 103.775 191.595C97.3217 191.595 90.8785 191.595 84.4254 191.595C81.7841 191.595 80.1233 189.958 80.1133 187.341C80.1133 179.202 80.1133 171.053 80.1133 162.913C80.1133 160.357 81.7741 158.679 84.3053 158.669C90.8385 158.659 97.3717 158.659 103.905 158.669C106.436 158.669 108.087 160.357 108.087 162.913C108.097 166.988 108.087 171.053 108.087 175.127L108.097 175.137Z" fill="white"/>
<path d="M153.069 130.297C153.069 134.282 153.069 138.276 153.069 142.261C153.069 145.067 151.468 146.695 148.686 146.695C142.273 146.695 135.87 146.695 129.457 146.695C126.726 146.695 125.085 145.077 125.085 142.381C125.085 134.282 125.085 126.183 125.085 118.073C125.085 115.377 126.736 113.769 129.467 113.769C135.88 113.769 142.283 113.769 148.696 113.769C151.468 113.769 153.069 115.397 153.079 118.203C153.079 122.238 153.079 126.262 153.079 130.297H153.069Z" fill="white"/>
<path d="M108.097 130.237C108.097 134.272 108.097 138.297 108.097 142.331C108.097 145.058 106.476 146.695 103.775 146.695C97.3217 146.695 90.8785 146.695 84.4254 146.695C81.7841 146.695 80.1133 145.058 80.1133 142.441C80.1133 134.302 80.1133 126.153 80.1133 118.014C80.1133 115.457 81.7741 113.779 84.3053 113.769C90.8385 113.759 97.3717 113.759 103.905 113.769C106.436 113.769 108.087 115.447 108.087 118.014C108.097 122.088 108.087 126.153 108.087 130.227L108.097 130.237Z" fill="white"/>
<path d="M182.053 193.593C182.053 190.687 182.053 187.781 182.053 184.875C182.063 182.258 183.714 180.63 186.355 180.62C187.856 180.62 189.346 180.61 190.847 180.62C193.338 180.64 195.029 182.288 195.039 184.735C195.059 190.627 195.059 196.529 195.039 202.421C195.039 204.878 193.348 206.526 190.867 206.546C189.326 206.556 187.786 206.556 186.255 206.546C183.724 206.526 182.073 204.868 182.063 202.301C182.053 199.395 182.063 196.489 182.063 193.583L182.053 193.593Z" fill="white"/>
<path d="M207.035 193.463C207.035 190.637 207.035 187.821 207.035 184.994C207.035 182.278 208.656 180.64 211.347 180.62C212.888 180.62 214.429 180.6 215.96 180.62C218.291 180.65 220.002 182.308 220.012 184.625C220.032 190.607 220.042 196.589 220.012 202.561C220.012 204.858 218.281 206.526 215.95 206.556C214.329 206.576 212.708 206.576 211.087 206.556C208.706 206.526 207.045 204.838 207.035 202.431C207.015 199.445 207.035 196.449 207.035 193.463Z" fill="white"/>
<path d="M232.017 193.503C232.017 190.637 232.017 187.771 232.017 184.905C232.017 182.278 233.668 180.63 236.289 180.62C237.87 180.62 239.451 180.59 241.031 180.62C243.283 180.66 244.993 182.338 245.003 184.575C245.033 190.597 245.033 196.619 245.003 202.641C244.993 204.868 243.253 206.516 240.991 206.556C239.371 206.586 237.75 206.576 236.129 206.556C233.738 206.526 232.047 204.858 232.027 202.471C232.007 199.485 232.027 196.489 232.027 193.503H232.017Z" fill="white"/>
<path d="M182.053 231.423C182.053 228.557 182.053 225.69 182.053 222.824C182.053 220.198 183.704 218.54 186.315 218.53C187.896 218.53 189.476 218.5 191.057 218.53C193.308 218.57 195.019 220.238 195.029 222.475C195.059 228.497 195.059 234.519 195.029 240.541C195.019 242.768 193.278 244.425 191.027 244.455C189.406 244.485 187.786 244.475 186.165 244.455C183.764 244.425 182.083 242.768 182.063 240.381C182.043 237.395 182.063 234.399 182.063 231.413L182.053 231.423Z" fill="white"/>
<path d="M207.035 231.373C207.035 228.507 207.035 225.641 207.035 222.774C207.045 220.218 208.696 218.55 211.227 218.53C212.808 218.52 214.389 218.51 215.97 218.53C218.301 218.56 220.012 220.228 220.022 222.535C220.042 228.517 220.052 234.499 220.022 240.471C220.022 242.768 218.291 244.426 215.96 244.466C214.419 244.486 212.878 244.476 211.347 244.466C208.706 244.456 207.055 242.818 207.045 240.211C207.035 237.265 207.045 234.319 207.045 231.363L207.035 231.373Z" fill="white"/>
<path d="M245.014 231.513C245.014 234.419 245.014 237.325 245.014 240.231C245.004 242.788 243.353 244.445 240.822 244.465C239.241 244.475 237.66 244.485 236.079 244.465C233.758 244.435 232.048 242.768 232.037 240.461C232.017 234.479 232.007 228.497 232.037 222.525C232.037 220.228 233.768 218.57 236.099 218.54C237.68 218.52 239.261 218.52 240.842 218.54C243.323 218.56 245.004 220.218 245.014 222.674C245.034 225.62 245.014 228.567 245.014 231.523V231.513Z" fill="white"/>
<path d="M163.634 94.0652C163.394 93.8654 163.194 93.7156 163.014 93.5459C160.322 91.0192 157.631 88.4726 154.93 85.9659C154.429 85.5066 154.339 85.187 154.9 84.6976C155.8 83.9087 156.58 82.4506 157.521 82.3607C158.481 82.2709 159.252 83.8188 160.112 84.6477C161.043 85.5365 161.963 86.4453 162.793 87.434C163.524 88.2929 163.984 87.9233 164.584 87.3042C167.826 83.9686 171.107 80.663 174.339 77.3174C174.909 76.7282 175.29 76.5285 175.88 77.2675C176.29 77.7768 176.8 78.2362 177.351 78.6057C178.341 79.2648 178.211 79.7342 177.401 80.5232C173.058 84.7575 168.766 89.0518 164.464 93.3262C164.204 93.5858 163.934 93.8255 163.654 94.0852L163.634 94.0652Z" fill="#A1C9FF"/>
<path d="M211.597 124.445C213.478 123.356 213.698 122.477 212.608 120.65C213.918 120.64 214.999 120.949 215.699 122.088C216.089 122.717 216.149 123.396 215.609 123.925C214.479 125.044 213.108 124.814 211.607 124.445H211.597Z" fill="#CAE0FF"/>
</g>
<defs>
<clipPath id="clip0_707_5077">
<rect width="320" height="298" fill="white"/>
</clipPath>
</defs>
</svg>
