<svg viewBox="0 0 320 298" fill="none" xmlns="http://www.w3.org/2000/svg">
<g clip-path="url(#clip0_707_6056)">
<rect width="320" height="298" fill="#F6C254"/>
<path d="M0 297V0C105.713 0 214.287 0 320 0C320 50.9792 320 104.021 320 155C320 155 319.25 155.194 318.739 155.204C315.488 155.264 312.247 155.284 308.996 155.204C307.825 155.174 307.495 154.765 307.405 153.567C307.365 152.987 307.385 152.408 307.385 151.819C307.385 132.246 307.385 112.673 307.385 93.0906C307.385 92.3416 307.465 91.5927 307.275 90.8537C306.755 88.8365 305.014 87.4384 302.913 87.4185C297.251 87.3785 291.588 87.4185 285.926 87.3985C283.745 87.3985 283.625 87.2787 283.355 85.1516C282.825 80.9275 282.835 80.9375 285.556 77.692C286.466 76.6035 287.437 75.5749 288.367 74.5164C289.067 73.7175 289.007 73.1383 288.327 72.3793C286.847 70.7516 285.446 69.044 283.975 67.3963C283.195 66.5175 282.925 65.6187 283.055 64.4404C283.315 62.1336 283.535 59.8168 283.755 57.5C283.835 56.6612 283.545 56.2817 282.765 56.092C280.624 55.5527 278.493 54.9635 276.342 54.5042C274.752 54.1646 273.651 53.3458 272.901 51.9178C271.97 50.1502 270.86 48.4925 269.89 46.7449C269.399 45.8662 268.859 45.7463 267.959 46.1258C265.808 47.0345 263.657 47.9333 261.516 48.852C260.366 49.3413 259.295 49.3413 258.155 48.822C256.114 47.8834 253.993 47.1144 251.952 46.1757C251.002 45.7363 250.422 45.9161 249.912 46.8148C248.911 48.5924 247.801 50.3 246.83 52.0975C246.12 53.4157 245.11 54.1447 243.659 54.4542C241.508 54.9336 239.377 55.5327 237.236 56.032C236.316 56.2417 235.946 56.6512 236.056 57.6698C236.316 59.9766 236.516 62.2933 236.766 64.6101C236.876 65.6387 236.646 66.4676 235.966 67.2465C234.415 69.044 232.865 70.8315 231.294 72.609C230.744 73.2282 230.734 73.6676 231.284 74.3067C232.825 76.1042 234.385 77.8917 235.956 79.6692C236.636 80.4481 236.936 81.277 236.756 82.3056C236.586 83.2842 236.576 84.2928 236.436 85.2814C236.156 87.2287 236.016 87.3985 233.985 87.4085C228.783 87.4185 223.571 87.4085 218.369 87.4085C217.868 87.4085 217.368 87.3985 216.868 87.4085C215.758 87.4185 215.007 87.039 214.917 85.8107C214.887 85.4113 214.727 85.0717 214.287 84.9918C213.797 84.902 213.517 85.2015 213.287 85.581C212.916 86.1902 212.746 86.8892 212.486 87.5383C212.266 88.0776 212.216 89.0162 211.456 88.8465C210.846 88.7067 211.096 87.8579 211.126 87.2887C211.176 86.4598 211.286 85.6309 210.966 84.8321C210.836 84.5225 210.796 84.153 210.405 84.0731C209.965 83.9832 209.735 84.3028 209.495 84.6024C208.885 85.3613 208.675 86.32 208.275 87.1888C208.015 87.758 207.974 88.7666 207.194 88.5968C206.544 88.457 206.774 87.5383 206.854 86.9291C206.924 86.4199 206.824 85.9405 206.694 85.4512C206.604 85.1217 206.524 84.7821 206.124 84.7222C205.724 84.6623 205.513 84.9619 205.343 85.2415C204.513 86.5497 203.963 87.9877 203.453 89.4357C202.532 92.062 201.702 94.7183 200.892 97.3846C200.742 97.8839 200.641 98.6728 200.061 98.6229C199.341 98.563 199.471 97.7341 199.451 97.1849C199.411 96.0265 199.471 94.8581 199.171 93.7197C199.041 93.2404 199.011 92.6512 198.401 92.5613C197.83 92.4814 197.68 93.0407 197.47 93.4301C196.36 95.4074 196.29 97.6443 195.91 99.8013C195.419 102.547 194.799 105.254 193.949 107.91C193.529 109.238 192.708 110.067 191.388 110.576C186.456 112.474 181.694 114.79 176.922 117.047C169.359 120.622 161.946 124.507 154.403 128.122C148.88 130.768 143.448 133.564 137.896 136.151C127.602 140.964 117.338 145.827 106.523 149.422C106.283 149.502 106.053 149.582 105.813 149.652C104.222 150.131 103.762 149.902 103.052 148.434C101.151 144.549 100.161 140.455 99.6905 136.141C98.8602 128.611 97.4396 121.182 94.2783 114.221C93.1378 111.715 91.7273 109.328 89.3363 107.78C85.6848 105.423 82.5735 106.122 80.0925 109.668C78.692 111.675 77.8316 113.912 77.0013 116.169C76.4311 117.716 76.311 117.836 74.6703 117.776C73.77 117.746 73.0597 118.086 72.4794 118.745C70.8988 120.552 71.1689 123.708 73.1597 125.066C74.1601 125.745 74.3702 126.494 74.1701 127.593C73.2397 132.576 72.6395 137.599 72.1493 142.652C71.9292 144.959 71.0088 147.156 70.2886 149.362C69.9384 150.421 69.1381 150.241 68.3478 149.892C66.1769 148.933 63.966 148.074 61.635 147.585C51.3509 145.418 42.4873 148.234 34.8341 155.234C27.9514 161.526 24.74 169.574 23.4795 178.602C22.5292 185.412 22.2891 192.263 22.5492 199.103C22.7692 204.985 23.2094 210.857 23.9097 216.709C24.3099 220.084 24.4599 223.49 24.7501 226.875C25.1502 231.459 25.4804 236.052 25.8905 240.636C26.1906 244.061 26.4708 247.496 26.7609 250.921C26.961 253.358 27.191 255.805 27.8013 258.181C27.9714 258.84 28.0614 259.789 28.8717 259.839C29.6921 259.889 29.8621 258.97 30.1122 258.321C30.4924 257.353 30.7025 256.334 31.0026 255.335C31.0826 255.056 31.1326 254.766 31.2827 254.516C31.4328 254.267 31.6228 253.977 31.953 254.067C32.2031 254.137 32.2531 254.437 32.2831 254.696C32.3031 254.946 32.2531 255.196 32.2531 255.445C32.2231 258.441 32.2431 261.427 32.2431 264.423C32.2431 265.142 32.4432 265.821 32.6333 266.49C32.7533 266.919 33.0034 267.259 33.5036 267.229C33.9338 267.209 34.1339 266.909 34.2739 266.52C34.554 265.731 34.6641 264.912 34.8241 264.093C34.8842 263.774 34.9742 263.354 35.3344 263.304C35.7845 263.244 35.9346 263.694 36.0446 264.033C36.3047 264.862 36.2547 265.771 36.6149 266.58C36.7749 266.939 36.885 267.439 37.4052 267.429C37.8954 267.429 38.0955 266.999 38.2455 266.62C38.6557 265.611 38.8558 264.553 39.0359 263.484C39.0959 263.125 39.1559 262.635 39.5661 262.585C40.0863 262.525 40.1563 263.065 40.2964 263.434C40.5165 264.023 40.4464 264.672 40.7065 265.252C40.8566 265.591 40.9666 266.001 41.4168 266.021C41.917 266.04 42.1171 265.661 42.2572 265.242C42.8974 263.384 43.2176 261.467 43.4977 259.539C43.8078 257.442 44.1079 255.355 44.318 253.248C44.358 252.839 44.4481 252.429 44.5681 252.03C44.6581 251.73 44.7182 251.311 45.1483 251.341C45.4785 251.361 45.5685 251.7 45.6686 251.97C45.9187 252.679 45.9987 253.428 46.1888 254.147C46.3788 254.876 46.5889 255.585 46.9091 256.264C47.0891 256.644 47.2692 257.013 47.7894 257.033C48.6498 257.073 48.8799 257.662 48.9399 258.391C49.17 261.247 49.3 264.103 49.4401 266.959C49.6802 271.802 49.9303 276.646 50.1904 281.499C50.2704 283.027 50.2304 284.565 50.3605 286.103C50.4805 287.381 50.1704 287.81 48.9099 288.19C46.5489 288.909 44.308 289.847 42.2972 291.315C40.4964 292.634 38.9558 294.181 37.8954 296.149C37.4552 296.968 36.7949 297.357 35.8846 297.387C35.5544 297.387 35.2143 297.407 34.8842 297.407C23.9697 297.407 13.0653 297.407 2.15087 297.407C1.42058 297.407 0 297 0 297Z" fill="#A1C9FF"/>
<path d="M0 297C11.9148 297 23.8197 296.877 35.7345 296.917C36.6649 296.917 37.0951 296.628 37.5152 295.819C39.516 292.054 42.9174 289.957 46.719 288.399C47.2592 288.18 47.8094 287.91 48.3696 287.85C49.8102 287.69 50.0103 286.941 49.9403 285.593C49.4 276.426 48.9599 267.259 48.4897 258.091C48.4797 257.882 48.4697 257.682 48.4497 257.382C47.2292 257.882 46.6889 257.193 46.3088 256.224C45.7086 254.676 45.4985 253.028 45.0683 251.081C44.5481 255.026 44.1879 258.661 43.4876 262.236C43.2476 263.454 43.0175 264.682 42.4972 265.821C42.2872 266.27 42.0471 266.729 41.4368 266.739C40.7565 266.749 40.4664 266.24 40.3164 265.741C40.0362 264.762 39.8762 263.753 39.6061 262.515C39.336 264.213 39.1759 265.661 38.5556 266.989C38.2955 267.538 37.9854 268.028 37.2751 267.968C36.6449 267.908 36.4048 267.428 36.1747 266.919C35.6845 265.811 35.8145 264.572 35.4044 263.224C35.1543 264.482 34.9442 265.481 34.7541 266.49C34.614 267.229 34.2239 267.718 33.4336 267.748C32.5932 267.778 32.2731 267.169 32.083 266.51C31.6528 265.012 31.6728 263.464 31.6528 261.936C31.6228 259.4 31.6528 256.873 31.6528 254.656C31.3727 255.605 31.0426 256.923 30.5924 258.201C30.2623 259.14 30.0622 260.468 28.7417 260.368C27.5212 260.268 27.4311 259.01 27.231 258.051C26.3607 253.767 26.1206 249.413 25.7404 245.069C25.1702 238.449 24.61 231.828 24.1098 225.207C23.2194 213.453 21.5587 201.74 22.0289 189.906C22.299 183.006 22.7192 176.095 25.0402 169.534C29.0318 158.26 36.5148 150.411 48.3196 147.245C55.2724 145.378 62.0052 146.416 68.4678 149.462C68.8379 149.642 69.2181 149.802 69.5782 149.971C71.0689 146.017 71.8392 141.963 72.1793 137.798C72.4794 134.074 73.1197 130.389 73.81 126.724C73.93 126.085 73.77 125.925 73.2297 125.665C70.4386 124.337 70.1485 119.484 72.7395 117.756C73.4198 117.297 74.2201 117.057 75.0005 117.347C75.9608 117.696 76.1909 117.227 76.421 116.448C77.1513 114.061 78.1317 111.774 79.4923 109.667C82.4735 105.074 86.9853 104.614 90.9069 108.479C93.688 111.215 95.1686 114.68 96.3891 118.275C98.56 124.677 99.7805 131.297 100.371 137.988C100.721 142.002 102.392 145.468 103.772 149.093C104.042 149.792 104.502 149.552 104.993 149.402C109.925 147.904 114.707 146.007 119.438 143.99C131.353 138.907 142.968 133.185 154.593 127.483C165.847 121.96 177.002 116.218 188.507 111.205C189.347 110.836 190.167 110.386 191.048 110.187C192.538 109.847 193.158 108.888 193.579 107.51C194.659 103.965 195.339 100.35 195.91 96.6954C196.12 95.3772 196.43 94.089 197.12 92.9206C197.42 92.4213 197.76 91.8721 198.441 91.942C199.211 92.0119 199.401 92.681 199.551 93.2801C199.951 94.9378 199.911 96.6455 200.071 98.3731C200.762 96.1761 201.432 93.9792 202.132 91.7922C202.812 89.7051 203.493 87.608 204.503 85.6507C204.713 85.2513 204.953 84.8618 205.223 84.4923C205.473 84.1528 205.794 83.8532 206.274 83.9631C206.784 84.0829 206.994 84.4823 207.114 84.9417C207.414 86.0701 207.164 87.2185 207.194 88.6166C207.654 87.4183 207.964 86.4296 208.405 85.5109C208.845 84.6122 209.175 83.2541 210.445 83.5037C211.806 83.7733 211.516 85.2013 211.566 86.2299C211.606 87.0088 211.466 87.7977 211.526 88.6166C211.916 87.578 212.276 86.5295 212.686 85.4909C212.967 84.7919 213.417 84.2527 214.277 84.3925C215.157 84.5323 215.407 85.2113 215.367 85.9603C215.317 86.8591 215.758 86.9389 216.498 86.929C222.58 86.909 228.663 86.899 234.735 86.929C235.606 86.929 235.886 86.6793 235.886 85.8205C235.886 84.8319 235.926 83.8033 236.176 82.8546C236.576 81.3667 235.996 80.3681 235.005 79.3295C233.465 77.7018 232.074 75.9242 230.554 74.2865C229.913 73.5975 230.013 73.188 230.594 72.5489C232.354 70.6116 234.045 68.6144 235.776 66.6571C236.186 66.1977 236.376 65.7484 236.296 65.0893C235.976 62.373 235.756 59.6368 235.416 56.9206C235.326 56.1617 235.566 55.912 236.246 55.7422C238.957 55.1031 241.648 54.3941 244.359 53.755C245.06 53.5952 245.52 53.2757 245.88 52.6366C247.17 50.3597 248.541 48.1328 249.821 45.856C250.202 45.1869 250.522 45.0271 251.252 45.3467C253.753 46.4551 256.294 47.4837 258.805 48.5722C259.485 48.8718 260.056 48.9417 260.786 48.6121C263.317 47.4737 265.918 46.4751 268.459 45.3567C269.139 45.0571 269.459 45.1569 269.83 45.7961C271.12 48.0729 272.491 50.2998 273.781 52.5766C274.161 53.2557 274.642 53.5952 275.392 53.765C278.063 54.3841 280.714 55.1031 283.385 55.7223C284.155 55.902 284.365 56.2116 284.275 56.9805C283.945 59.6968 283.695 62.423 283.375 65.1492C283.295 65.8083 283.565 66.2477 283.955 66.697C285.656 68.6343 287.317 70.6016 289.047 72.509C289.668 73.188 289.748 73.6274 289.077 74.3464C287.297 76.2638 285.636 78.281 283.885 80.2382C283.425 80.7575 283.315 81.2768 283.405 81.9459C283.585 83.264 283.755 84.5822 283.805 85.9104C283.835 86.7392 284.145 86.929 284.936 86.929C290.728 86.899 296.51 86.909 302.303 86.909C305.774 86.909 307.825 88.9362 307.825 92.3814C307.825 112.703 307.835 133.025 307.795 153.347C307.795 154.535 308.055 154.875 309.276 154.845C312.767 154.755 316.499 154.815 320 154.805V155.853C319.47 156.293 318.599 156.223 317.979 156.233C315.188 156.233 312.397 156.263 309.606 156.223C308.605 156.213 307.845 156.432 307.305 157.351C306.795 158.23 305.974 158.819 305.074 159.289C296.641 163.642 288.247 168.046 279.774 172.3C278.553 172.92 277.313 173.199 275.942 173.199C243.959 173.179 211.986 173.189 180.003 173.189C178.963 173.189 177.912 173.199 176.962 172.68C175.221 171.731 174.191 170.333 174.151 168.296C174.111 166.159 175.151 164.621 176.962 163.642C178.903 162.594 180.973 161.815 182.994 160.946C186.546 159.408 190.077 157.841 193.869 156.173C187.946 156.413 182.254 155.813 176.592 156.492C172.47 156.982 169.479 160.467 169.419 164.651C169.349 169.764 169.339 174.877 169.419 179.98C169.499 184.633 173.21 188.128 177.932 188.128C224.401 188.128 270.87 188.128 317.339 188.138C318.189 188.138 319.26 187.909 320 188.588V189.736C319.52 190.176 318.719 190.136 318.139 190.136C315.478 190.146 312.817 190.136 310.146 190.136C308.475 190.136 308.355 190.256 308.345 191.893C308.335 195.049 308.345 198.204 308.345 201.36C308.345 232.177 308.345 262.985 308.345 293.802C308.345 295.493 309.186 296.338 310.866 296.338C313.317 296.338 315.778 296.338 318.229 296.338C318.809 296.338 319.56 296.51 320 297V298C214.467 298 105.543 298 0 298V297Z" fill="#041C42"/>
<path d="M297.851 243.392C297.851 260.758 297.841 278.134 297.881 295.5C297.881 296.608 297.631 296.928 296.48 296.918C264.087 296.888 231.694 296.888 199.291 296.918C198.15 296.918 197.88 296.628 197.88 295.5C197.91 260.718 197.91 225.936 197.88 191.155C197.88 190.066 198.09 189.707 199.281 189.707C231.674 189.746 264.067 189.746 296.47 189.707C297.641 189.707 297.881 190.046 297.881 191.155C297.851 208.57 297.861 225.976 297.861 243.392H297.851Z" fill="#A1C9FF"/>
<path d="M210.895 114.371C210.895 114.73 210.895 115.09 210.895 115.449C210.895 126.334 210.885 137.229 210.915 148.114C210.915 149.023 210.705 149.482 209.795 149.851C206.344 151.269 202.932 152.797 199.521 154.325C198.731 154.675 197.97 154.834 197.12 154.834C190.917 154.814 184.715 154.834 178.502 154.834C172.18 154.834 167.918 159.069 167.918 165.36C167.918 170.093 167.918 174.837 167.918 179.57C167.918 185.282 172.12 189.606 177.842 189.726C180.793 189.796 183.754 189.766 186.716 189.726C187.586 189.716 187.936 189.846 187.936 190.854C187.906 225.846 187.906 260.837 187.936 295.829C187.936 296.717 187.696 296.917 186.836 296.917C164.887 296.897 142.948 296.887 120.999 296.917C120.069 296.917 119.929 296.628 119.979 295.789C120.629 283.506 121.259 271.223 121.869 258.95C122.41 248.205 122.92 237.46 123.46 226.705C123.79 220.104 123.96 213.493 124.53 206.922C125.091 200.481 127.171 194.36 129.602 188.388C131.583 183.525 133.874 178.821 137.456 174.897C140.157 171.931 143.438 169.614 146.609 167.197C160.605 156.532 175.121 146.636 190.527 138.088C191.438 137.588 192.318 137.009 193.278 136.64C197.35 135.072 200.111 132.066 202.482 128.561C205.563 124.017 208.204 119.224 210.915 114.371H210.895Z" fill="#A1C9FF"/>
<path d="M85.0548 207.612C72.8198 207.772 60.5848 207.931 48.3398 208.111C47.4195 208.121 46.8592 208.101 46.7592 206.893C45.9789 197.496 45.0285 188.119 44.4783 178.712C44.4583 178.342 44.7784 177.693 43.9681 177.703C43.1377 177.703 43.4779 178.362 43.5079 178.712C43.838 183.555 44.1081 188.408 44.5583 193.252C45.5087 203.467 46.4191 213.683 46.7492 223.939C46.8292 226.386 46.8392 226.436 44.3282 226.066C38.1557 225.167 31.9932 224.219 25.8307 223.3C25.3605 223.23 25.0004 223.16 24.9403 222.511C23.8899 211.556 22.6094 200.611 23.0396 189.577C23.3097 182.646 23.7499 175.686 26.2309 169.125C30.3926 158.12 37.9156 150.611 49.6404 147.935C56.5432 146.357 63.1058 147.705 69.2984 151C70.0887 151.42 70.3788 151.37 70.5889 150.461C70.939 148.973 71.4692 147.515 71.8194 146.027C72.0295 145.148 72.3296 144.849 73.32 144.969C79.3624 145.708 85.4249 145.957 91.4974 145.288C94.1885 144.989 96.8495 144.519 99.3706 143.501C100.081 143.211 100.371 143.331 100.641 144.02C101.411 145.987 102.262 147.925 103.022 149.892C103.322 150.671 103.652 150.831 104.503 150.581C111.876 148.364 118.929 145.348 125.941 142.213C139.587 136.101 152.922 129.36 166.328 122.77C174.511 118.735 182.674 114.641 191.128 111.176C192.738 110.517 192.779 110.527 193.019 112.164C194.049 119.224 195.049 126.295 196.1 133.345C196.2 134.044 195.8 134.184 195.35 134.413C187.887 138.178 180.714 142.442 173.691 146.966C161.596 154.765 149.801 162.984 138.747 172.221C135.565 174.877 133.354 178.302 131.474 181.937C127.552 189.547 124.851 197.576 123.58 206.054C123.46 206.843 123.25 207.142 122.39 207.142C109.945 207.272 97.4998 207.452 85.0548 207.612C85.0548 207.612 85.0548 207.602 85.0548 207.592V207.612Z" fill="#A1C9FF"/>
<path d="M48.9501 248.046C48.3098 235.563 47.6896 223.07 46.9993 210.588C46.9293 209.399 47.1694 209.08 48.3999 209.07C64.0062 208.91 79.6126 208.7 95.2189 208.491C104.213 208.371 113.196 208.271 122.19 208.101C123.28 208.081 123.47 208.371 123.41 209.389C122.5 226.436 121.62 243.482 120.739 260.528C120.289 269.326 119.849 278.114 119.439 286.912C119.399 287.711 119.179 287.94 118.378 287.97C111.766 288.24 105.153 288.539 98.5503 288.879C97.7099 288.919 97.5298 288.719 97.5899 287.87C98.3002 276.406 98.0801 264.952 97.2797 253.508C96.7395 245.839 95.9792 238.209 94.4386 230.67C93.8684 227.874 93.2081 225.087 91.9776 222.481C91.6374 221.772 91.2873 221.063 90.7371 220.474C89.7567 219.435 88.4862 219.216 87.2457 219.935C86.0452 220.624 85.2849 221.722 84.6346 222.891C82.4837 226.735 81.4033 230.969 80.4629 235.213C78.232 245.319 77.0915 255.585 76.1812 265.881C75.6209 272.212 75.1607 278.543 74.8906 284.894C74.8506 285.923 74.5005 286.163 73.5101 286.203C66.3572 286.532 59.2143 286.922 52.0614 287.351C51.101 287.411 50.8909 287.141 50.8409 286.243C50.4907 278.813 50.0906 271.393 49.7104 263.963C49.4403 258.651 49.1802 253.348 48.9201 248.036L48.9501 248.046Z" fill="#CAE0FF"/>
<path d="M213.787 97.5443C214.237 94.4986 214.957 91.5527 215.298 88.5468C215.358 87.9876 215.638 87.9077 216.118 87.9077C222.36 87.9177 228.613 87.9277 234.856 87.9077C235.576 87.9077 235.646 88.1674 235.616 88.7765C235.496 90.9335 235.516 90.9335 237.637 91.4628C239.607 91.9521 241.568 92.5912 243.569 92.9008C245.39 93.1804 246.11 94.3588 246.69 95.8367C246.22 96.0864 245.75 95.9665 245.31 95.9665C237.317 95.9665 229.313 95.9865 221.32 95.9466C220.25 95.9466 219.849 96.1163 219.849 97.3346C219.899 114.081 219.889 130.828 219.849 147.585C219.849 148.643 220.14 148.863 221.16 148.863C246.6 148.833 272.051 148.833 297.491 148.863C298.571 148.863 298.862 148.623 298.862 147.515C298.822 130.768 298.822 114.021 298.862 97.2647C298.862 96.2561 298.651 95.9366 297.581 95.9466C289.878 95.9965 282.175 95.9765 274.472 95.9765C274.021 95.9765 273.561 95.9765 272.981 95.9765C273.601 94.4886 274.172 93.2803 275.942 92.9607C278.393 92.5113 280.774 91.7324 283.215 91.2131C284.166 91.0134 284.416 90.6739 284.256 89.7252C283.946 87.9277 284.006 87.9177 285.786 87.9177C291.329 87.9177 296.861 87.9177 302.403 87.9177C305.204 87.9177 306.835 89.5255 306.835 92.3116C306.835 112.763 306.835 133.205 306.835 153.656C306.835 155.454 306.114 156.782 304.524 157.611C296.05 162.025 287.577 166.429 279.104 170.833C278.203 171.302 277.243 171.492 276.212 171.492C243.979 171.492 211.746 171.492 179.513 171.492C177.652 171.492 176.312 170.473 175.952 168.815C175.601 167.228 176.462 165.69 178.163 164.951C189.067 160.157 199.961 155.364 210.886 150.611C211.676 150.261 211.896 149.882 211.886 149.063C211.856 137.299 211.886 125.535 211.846 113.782C211.846 112.414 212.146 111.205 212.707 109.967C214.897 105.184 217.098 100.39 218.209 95.1976C218.409 94.2489 218.819 92.9907 217.659 92.5313C216.448 92.052 215.978 93.3202 215.498 94.1491C214.857 95.2475 214.337 96.4259 213.767 97.5643L213.787 97.5443Z" fill="#F6C254"/>
<path d="M259.375 147.844C247.01 147.844 234.635 147.825 222.27 147.874C221.09 147.874 220.87 147.525 220.87 146.426C220.91 133.335 220.91 120.243 220.87 107.151C220.87 106.132 221.08 105.843 222.14 105.853C246.96 105.883 271.78 105.883 296.6 105.853C297.661 105.853 297.881 106.142 297.871 107.151C297.831 120.243 297.831 133.335 297.871 146.426C297.871 147.525 297.651 147.874 296.47 147.874C284.105 147.825 271.73 147.844 259.365 147.844H259.375Z" fill="#F6C254"/>
<path d="M320 155.734C319.99 166.729 320 188.748 320 188.748C273.031 188.748 225.852 188.738 178.883 188.748C176.101 188.748 173.62 188.159 171.6 186.142C169.839 184.384 168.929 182.257 168.929 179.781C168.909 174.797 168.909 169.804 168.929 164.821C168.949 159.928 172.73 155.934 177.612 155.844C183.484 155.734 189.357 155.824 195.229 155.824C195.289 155.824 195.349 155.894 195.569 156.033C193.569 156.922 191.658 157.761 189.747 158.6C185.685 160.387 181.614 162.155 177.552 163.952C175.331 164.931 174.241 166.988 174.711 169.185C175.161 171.282 177.042 172.74 179.363 172.74C211.716 172.74 244.079 172.74 276.432 172.75C277.503 172.75 278.463 172.481 279.413 171.991C287.857 167.627 296.32 163.273 304.774 158.919C305.834 158.37 306.785 157.691 307.265 156.573C307.545 155.914 307.955 155.794 308.605 155.794C312.347 155.794 316.258 155.764 320 155.734Z" fill="#CAE0FF"/>
<path d="M283.035 57.6996C282.785 60.336 282.564 62.9723 282.264 65.5987C282.204 66.108 282.244 66.4475 282.584 66.827C284.315 68.7843 286.006 70.7815 287.767 72.7088C288.317 73.308 288.287 73.6475 287.747 74.2367C285.986 76.164 284.275 78.1413 282.574 80.1285C281.714 81.1271 282.424 82.2855 282.454 83.3341C282.514 85.2714 282.865 87.1887 283.095 89.116C283.175 89.7751 282.885 90.0547 282.224 90.2145C279.723 90.8037 277.242 91.4927 274.731 92.0719C273.921 92.2617 273.421 92.6611 273.021 93.3601C271.83 95.4472 270.59 97.5144 269.399 99.6015C269.079 100.171 268.769 100.34 268.109 100.051C265.748 99.0223 263.337 98.1135 260.986 97.055C260.215 96.7055 259.595 96.7155 258.865 97.035C256.614 98.0037 254.343 98.9124 252.102 99.921C251.162 100.35 250.651 100.221 250.141 99.262C249.141 97.3546 247.93 95.5571 246.9 93.6597C246.33 92.6112 245.529 92.1318 244.389 91.8922C242.158 91.4128 239.967 90.7538 237.736 90.2744C236.756 90.0647 236.596 89.6453 236.716 88.7166C237.056 86.1402 237.286 83.5438 237.566 80.9574C237.616 80.4581 237.246 80.2184 236.986 79.9188C235.265 77.9515 233.565 75.9643 231.814 74.027C231.334 73.4977 231.554 73.1981 231.934 72.7887C233.304 71.2908 234.545 69.6531 236.016 68.265C237.456 66.9069 237.606 65.359 237.346 63.5815C237.076 61.6641 236.886 59.7268 236.656 57.7995C236.576 57.1304 236.886 56.8608 237.536 56.711C240.037 56.1218 242.518 55.4328 245.029 54.8536C245.749 54.6838 246.21 54.3643 246.57 53.7451C247.78 51.668 249.061 49.6209 250.231 47.5238C250.671 46.7349 251.062 46.605 251.892 46.9745C254.203 48.0031 256.574 48.9019 258.895 49.9304C259.615 50.25 260.185 50.22 260.896 49.9105C263.257 48.8819 265.658 47.9532 268.008 46.9146C268.789 46.5651 269.109 46.8148 269.469 47.4639C270.65 49.5609 271.89 51.6181 273.101 53.7052C273.451 54.3143 273.921 54.6639 274.641 54.8336C277.182 55.4228 279.713 56.1218 282.254 56.731C282.835 56.8708 283.165 57.0905 283.045 57.7096L283.035 57.6996Z" fill="#004079"/>
<path d="M320 189.676C320 214.871 320 240.305 320 265.5C320 276.045 320.01 286.455 320 297C316.379 297 312.567 296.867 308.945 296.907C308.105 296.907 307.825 296.748 307.825 295.839C307.855 260.827 307.845 225.806 307.825 190.795C307.825 189.886 308.125 189.706 308.965 189.716C312.587 189.736 316.389 189.696 320 189.676Z" fill="#A1C9FF"/>
<path d="M96.9398 270.155C96.9998 277.345 96.9798 282.658 96.5397 287.97C96.4696 288.759 96.1695 288.999 95.4792 289.179C92.9282 289.838 90.5072 290.816 88.2863 292.235C86.6957 293.253 85.2651 294.461 84.6248 296.339C84.4848 296.748 84.2947 296.918 83.8345 296.918C81.2935 296.898 78.7524 296.878 76.2114 296.918C75.4211 296.928 75.4711 296.509 75.4911 295.979C75.7712 289.838 75.9913 283.696 76.3415 277.555C76.7516 270.345 77.3519 263.135 78.2322 255.965C79.3927 246.448 80.7032 236.951 83.7245 227.804C84.3647 225.877 85.125 223.979 86.2955 222.302C86.6056 221.862 86.9658 221.443 87.3859 221.113C88.4464 220.254 89.3367 220.384 90.1371 221.503C91.2375 223.051 91.7477 224.848 92.2379 226.646C93.7285 232.108 94.4988 237.7 95.1491 243.302C96.2595 252.839 96.8198 262.416 96.9598 270.145L96.9398 270.155Z" fill="#A1C9FF"/>
<path d="M306.844 243.272C306.844 260.688 306.834 278.094 306.874 295.509C306.874 296.638 306.614 296.987 305.464 296.917C303.593 296.818 301.712 296.847 299.842 296.917C298.991 296.947 298.821 296.658 298.831 295.869C298.881 293.173 298.851 290.466 298.851 287.77C298.851 255.565 298.851 223.36 298.831 191.154C298.831 190.046 299.051 189.636 300.242 189.716C301.983 189.826 303.743 189.836 305.484 189.716C306.694 189.636 306.874 190.096 306.874 191.174C306.844 207.791 306.854 224.418 306.854 241.045V243.292L306.844 243.272Z" fill="#CAE0FF"/>
<path d="M196.9 243.272C196.9 260.728 196.89 278.174 196.93 295.63C196.93 296.658 196.7 296.968 195.65 296.918C193.739 296.828 191.818 296.848 189.907 296.918C189.057 296.948 188.877 296.658 188.897 295.869C188.947 293.373 188.917 290.886 188.917 288.39C188.917 255.975 188.917 223.56 188.897 191.155C188.897 190.056 189.117 189.637 190.308 189.717C192.088 189.826 193.889 189.816 195.68 189.717C196.78 189.657 196.95 190.046 196.95 191.045C196.92 207.582 196.93 224.119 196.93 240.666V243.282L196.9 243.272Z" fill="#CAE0FF"/>
<path d="M47.5791 256.554C46.5587 254.397 46.3486 252.2 45.9885 250.053C45.8284 249.114 45.7784 248.155 45.6283 247.217C45.5683 246.817 45.6884 246.158 45.0181 246.208C44.5079 246.238 44.5179 246.777 44.4779 247.197C44.2378 249.424 44.0177 251.65 43.7276 253.877C43.2774 257.333 42.9272 260.798 42.0269 264.183C41.9068 264.652 41.8068 265.132 41.3766 265.611C40.8564 264.353 40.7964 263.124 40.7364 261.906C40.5263 257.343 40.8164 252.769 40.7464 248.205C40.7464 247.916 40.7263 247.626 40.7163 247.336C40.6963 246.957 40.6863 246.508 40.2061 246.468C39.5859 246.428 39.6259 246.987 39.6059 247.356C39.4658 249.883 39.3858 252.419 39.2457 254.946C39.0757 258.221 38.8656 261.497 38.2253 264.712C38.0753 265.471 37.9852 266.27 37.325 266.999C36.5947 265.391 36.5647 263.744 36.5046 262.126C36.3146 257.263 36.6147 252.409 36.7247 247.556C36.7347 247.057 37.2149 246.088 36.2545 246.058C35.4342 246.028 35.7543 246.957 35.7143 247.466C35.1741 253.458 34.994 259.48 33.9736 265.431C33.8936 265.891 33.9336 266.65 33.4234 266.64C32.8632 266.63 32.9632 265.861 32.9032 265.391C32.453 261.866 32.7031 258.341 32.8532 254.816C32.9632 252.04 33.1833 249.264 33.3434 246.488C33.3634 246.088 33.5134 245.539 32.9532 245.459C32.3229 245.369 32.3129 245.948 32.2229 246.398C31.5326 249.893 31.0124 253.428 30.002 256.853C29.7419 257.722 29.5418 258.621 28.8815 259.43C28.2613 258.611 28.1412 257.682 28.0112 256.783C27.0008 249.883 26.6206 242.913 26.0104 235.962C25.7002 232.447 25.5202 228.922 25.13 225.417C25 224.238 25.4101 224.209 26.3105 224.348C30.7823 225.047 35.2641 225.706 39.7359 226.385C41.8268 226.705 43.9276 227.035 46.0185 227.334C46.5987 227.414 46.9689 227.524 47.0089 228.283C47.3991 236.831 47.8392 245.369 48.2694 253.917C48.3094 254.796 48.2294 255.655 47.5791 256.564V256.554Z" fill="#CAE0FF"/>
<path d="M84.9047 112.713C86.6954 114.83 88.7863 116.408 91.3973 117.237C92.2377 117.507 93.108 117.766 93.9584 117.686C95.0688 117.577 95.559 117.986 95.609 119.184C93.9984 118.156 92.3177 117.816 90.517 118.356C88.8563 118.855 87.8659 119.953 87.8959 121.281C87.9259 122.51 88.9663 123.598 90.537 124.068C92.8179 124.737 94.9087 124.068 96.4994 122.09C97.1597 124.068 97.5298 126.035 97.91 128.002C98.7203 132.246 99.2205 136.53 99.6907 140.814C99.8107 141.943 99.5406 142.482 98.3802 142.852C93.2981 144.459 88.086 144.639 82.8338 144.569C79.7526 144.529 76.6913 144.21 73.6201 144.01C72.8898 143.96 72.5997 143.76 72.6897 142.961C73.5301 134.913 74.5005 126.894 76.5813 119.045C76.7714 118.316 77.1215 118.056 77.7918 117.906C80.8931 117.247 83.354 115.669 84.9147 112.713H84.9047Z" fill="#CAE0FF"/>
<path d="M259.376 104.884C246.971 104.884 234.575 104.874 222.17 104.904C221.15 104.904 220.81 104.695 220.87 103.626C220.97 101.719 220.92 99.8013 220.88 97.894C220.87 97.2149 221.03 96.9553 221.77 96.9553C230.094 96.9753 238.417 96.9753 246.74 96.9553C247.331 96.9553 247.641 97.195 247.911 97.6743C248.531 98.8027 249.251 99.8712 249.852 101.01C250.212 101.689 250.542 101.839 251.292 101.509C253.833 100.381 256.424 99.3819 258.965 98.2535C259.646 97.9539 260.186 97.9739 260.836 98.2535C263.387 99.362 265.958 100.41 268.499 101.529C269.14 101.809 269.49 101.789 269.86 101.11C270.61 99.7314 271.17 97.9239 272.361 97.185C273.661 96.3861 275.602 96.9653 277.253 96.9553C283.705 96.9353 290.158 96.9753 296.601 96.9253C297.671 96.9253 297.921 97.2449 297.881 98.2535C297.801 100.081 297.801 101.908 297.881 103.736C297.921 104.695 297.621 104.884 296.711 104.884C284.266 104.854 271.821 104.864 259.376 104.864V104.884Z" fill="#F6C254"/>
<path d="M198.311 93.0307C198.841 93.9095 198.831 94.8282 198.871 95.707C198.951 97.864 198.931 100.031 198.751 102.188C198.711 102.667 198.351 103.426 199.081 103.586C199.811 103.746 199.791 102.947 199.941 102.468C201.382 97.7542 202.643 92.9808 204.423 88.3672C204.843 87.2887 205.234 86.1902 206.104 85.0119C206.464 86.6396 206.224 88.0476 206.054 89.4257C205.544 93.55 204.523 97.5744 203.823 101.669C203.763 101.998 203.673 102.328 203.693 102.647C203.723 103.177 203.233 104.025 203.993 104.155C204.873 104.305 204.713 103.286 204.853 102.767C205.284 101.12 205.564 99.4418 205.964 97.7941C206.884 93.9195 207.705 90.0249 209.195 86.3101C209.455 85.6709 209.695 85.0019 210.356 84.4526C210.906 86.2801 210.496 87.9977 210.286 89.6854C209.685 94.4188 208.515 99.0524 207.555 103.716C207.515 103.916 207.444 104.125 207.434 104.325C207.414 104.705 207.164 105.254 207.775 105.344C208.345 105.434 208.355 104.884 208.455 104.495C209.885 98.9625 211.156 93.3703 212.917 87.9278C213.057 87.4984 213.197 87.059 213.377 86.6396C213.567 86.2102 213.607 85.3913 214.127 85.5112C214.727 85.641 214.457 86.4299 214.447 86.9192C214.407 89.0063 214.007 91.0435 213.557 93.0707C212.677 97.0352 211.746 100.99 210.836 104.954C210.776 105.194 210.696 105.434 210.666 105.683C210.626 105.963 210.556 106.292 210.916 106.432C211.326 106.592 211.526 106.332 211.666 105.993C212.086 104.914 212.497 103.826 212.917 102.747C213.947 100.081 214.928 97.3947 216.268 94.8582C216.518 94.3888 216.738 93.8895 217.328 93.5101C217.569 94.4787 217.268 95.3375 217.028 96.1664C215.108 103.027 212.066 109.428 208.835 115.749C206.054 121.182 203.093 126.514 199.181 131.248C198.601 131.947 198.001 132.636 197.11 133.305C196.81 131.318 196.53 129.45 196.26 127.583C195.46 121.951 194.669 116.318 193.859 110.686C193.809 110.317 193.749 109.967 193.889 109.588C195.5 105.463 196.25 101.139 196.94 96.7955C197.15 95.5073 197.38 94.1791 198.331 93.0407L198.311 93.0307Z" fill="#CAE0FF"/>
<path d="M37.9253 296.888C40.6664 292.334 44.4379 289.678 49.3699 288.659C51.951 288.13 54.5821 288.2 57.2031 288.06C62.6853 287.75 68.1776 287.491 73.6498 287.161C74.5502 287.111 74.7703 287.351 74.7302 288.23C74.6002 290.846 74.5402 293.452 74.4701 296.069C74.4601 296.578 74.4601 296.908 73.7698 296.908C61.905 296.888 50.0502 296.898 37.9253 296.898V296.888Z" fill="#CAE0FF"/>
<path d="M85.4746 296.758C86.9352 294.041 89.2762 292.553 91.9072 291.405C94.8984 290.097 98.0697 289.807 101.281 289.687C106.893 289.478 112.506 289.228 118.108 288.958C118.988 288.918 119.368 288.998 119.278 290.047C119.088 292.074 119.038 294.111 118.978 296.138C118.958 296.718 118.788 296.907 118.188 296.907C107.374 296.877 96.5491 296.877 85.7347 296.867C85.6947 296.867 85.6647 296.838 85.4746 296.758Z" fill="#CAE0FF"/>
<path d="M94.7783 116.638C90.1164 116.398 87.2553 113.532 84.4141 110.357C83.4937 114.131 80.8427 115.959 77.2012 117.007C78.1816 114.031 79.202 111.295 81.1728 109.048C83.4837 106.412 86.615 106.172 89.5062 108.459C92.1272 110.536 93.5378 113.432 94.7783 116.638Z" fill="#CAE0FF"/>
<path d="M72.0493 121.611C72.1293 120.902 72.2194 120.153 72.5495 119.474C73.0497 118.455 73.9601 118.056 75.0405 118.345C75.5107 118.475 75.7108 118.615 75.5507 119.204C75.1106 120.752 74.7404 122.33 74.4103 123.908C74.2502 124.667 73.9001 124.627 73.3799 124.307C72.3694 123.698 72.1594 122.699 72.0593 121.601L72.0493 121.611Z" fill="#CAE0FF"/>
<path d="M91.2773 123.219C92.888 121.521 92.918 121.102 91.6075 119.144C92.7179 119.005 93.7584 119.174 94.6887 119.794C95.7992 120.543 95.8292 121.791 94.7287 122.55C93.7183 123.259 92.5679 123.439 91.2773 123.209V123.219Z" fill="#CAE0FF"/>
<path d="M256.844 84.4026C256.574 84.1729 256.344 84.0032 256.144 83.8035C252.933 80.6079 249.741 77.3924 246.51 74.2168C245.94 73.6476 245.88 73.288 246.5 72.7188C247.74 71.5604 248.951 70.3521 250.121 69.1138C250.672 68.5247 251.042 68.5047 251.632 69.0939C253.103 70.5519 254.653 71.9299 256.154 73.3679C256.614 73.8073 256.864 73.9471 257.424 73.3679C260.766 69.9527 264.177 66.6073 267.528 63.2021C268.139 62.5729 268.459 62.5729 269.059 63.232C270.34 64.65 271.73 65.9682 273.101 67.2964C273.591 67.7757 273.651 68.1152 273.131 68.6245C267.899 73.7274 262.676 78.8503 257.454 83.9532C257.284 84.123 257.074 84.2428 256.854 84.4026H256.844Z" fill="#041C42"/>
<path d="M81.1729 118.096C82.2734 118.096 83.3138 118.365 84.2342 118.984C85.9649 120.163 85.9949 122.26 84.2342 123.398C82.3634 124.607 80.3826 124.647 78.4518 123.568C76.3309 122.38 76.351 120.073 78.4518 118.815C79.2921 118.315 80.2125 118.106 81.1829 118.096H81.1729Z" fill="#041C42"/>
<path d="M86.1746 136.56C83.2335 136.59 81.1426 135.202 79.672 132.726C79.4619 132.366 79.3319 132.087 79.8221 131.827C80.2923 131.577 80.4423 131.847 80.6624 132.186C83.2535 136.291 88.7657 136.74 92.077 133.115C92.4372 132.716 92.7773 132.296 93.1075 131.877C93.4176 131.477 93.7077 131.747 93.9678 131.897C94.378 132.126 94.0979 132.346 93.9278 132.586C92.1271 135.172 89.466 136.54 86.1646 136.57L86.1746 136.56Z" fill="#041C42"/>
<path d="M86.4753 131.048C86.0751 130.728 84.9247 131.647 84.9547 130.509C84.9747 129.55 86.0251 130.109 86.5753 130.089C88.5862 130.009 88.8363 129.71 88.176 127.782C87.5057 125.835 86.8454 123.878 86.1352 121.94C85.9451 121.411 85.795 120.972 86.5053 120.792C87.1956 120.622 87.0555 121.271 87.1556 121.561C87.8559 123.538 88.4261 125.575 89.1964 127.533C90.0968 129.8 89.1164 131.387 86.4653 131.048H86.4753Z" fill="#041C42"/>
<path d="M235.865 101.948C235.235 101.908 234.915 101.549 234.905 100.99C234.905 100.34 235.315 99.9809 235.935 99.9909C236.495 100.001 236.875 100.37 236.875 100.95C236.875 101.609 236.465 101.898 235.865 101.948Z" fill="#041C42"/>
<path d="M230.934 99.9707C231.544 100.111 231.944 100.44 231.864 101.089C231.794 101.668 231.394 101.958 230.824 101.938C230.154 101.908 229.854 101.479 229.914 100.849C229.964 100.27 230.394 100.021 230.934 99.9707Z" fill="#041C42"/>
<path d="M226.901 100.88C226.841 101.579 226.501 101.938 225.861 101.938C225.251 101.938 224.941 101.559 224.911 100.999C224.881 100.41 225.261 100.041 225.801 99.9908C226.431 99.9309 226.781 100.33 226.901 100.88Z" fill="#041C42"/>
<path d="M250.992 70.1226C251.172 70.2824 251.392 70.4621 251.612 70.6519C253.023 71.9401 254.464 73.1983 255.824 74.5365C256.564 75.2654 257.035 75.3953 257.875 74.5365C261.026 71.281 264.298 68.1453 267.479 64.9198C268.169 64.2208 268.599 64.0011 269.29 64.8799C270.16 65.9684 272.011 66.7772 271.961 67.9356C271.911 68.9542 270.27 69.9329 269.3 70.8915C265.428 74.6663 261.526 78.4011 257.675 82.1858C257.065 82.785 256.724 82.825 256.104 82.1858C253.493 79.5096 250.842 76.8632 248.161 74.2569C247.571 73.6777 247.411 73.2982 248.121 72.699C248.911 72.0299 249.602 71.241 250.342 70.512C250.512 70.3423 250.642 70.1026 251.002 70.1126L250.992 70.1226Z" fill="#A1C9FF"/>
<path d="M80.3828 123.239C82.1435 121.571 82.1936 120.832 80.723 119.154C81.8134 118.994 82.8038 119.204 83.6942 119.793C84.8146 120.542 84.8346 121.781 83.7342 122.56C82.7538 123.249 81.6433 123.418 80.3828 123.239Z" fill="#CAE0FF"/>
</g>
<defs>
<clipPath id="clip0_707_6056">
<rect width="320" height="298" fill="white"/>
</clipPath>
</defs>
</svg>
