<svg viewBox="0 0 320 298" fill="none" xmlns="http://www.w3.org/2000/svg">
<g clip-path="url(#clip0_707_4733)">
<rect width="320" height="298" fill="#F6C254"/>
<path d="M0 296.828V0C106 0 214.278 0 320 0C320 98.2537 319.967 197.925 319.967 296.179C319.967 296.339 319.967 296.498 319.967 296.658C319.477 297.557 318.596 297.307 317.856 297.307C310.273 297.327 302.7 297.317 295.117 297.317C293.997 297.317 292.866 297.357 291.746 297.297C290.215 297.227 289.825 296.668 290.495 295.31C293.617 288.96 295.087 282.151 295.807 275.192C296.408 269.332 296.428 263.431 295.607 257.56C295.517 256.941 295.357 256.352 295.037 255.793C287.984 243.592 280.631 231.582 272.028 220.379C271.418 219.591 270.827 218.782 270.147 218.053C269.277 217.125 269.027 216.076 269.217 214.838C270.357 207.4 270.887 199.912 270.737 192.394C270.677 189.369 270.337 186.363 269.447 183.428C268.106 179.005 264.925 178.246 261.114 179.804C258.743 180.772 256.652 182.36 255.181 184.447C253.01 187.512 250.289 189.828 246.998 191.555C246.338 191.905 245.728 192.344 245.117 192.773C244.177 193.432 244.047 194.171 244.667 195.12C244.827 195.359 244.977 195.619 245.207 195.808C246.698 197.036 246.568 198.374 245.788 200.022C243.527 204.744 241.636 209.626 239.875 214.569C239.655 215.198 239.435 215.827 239.165 216.436C238.535 217.893 238.024 217.963 236.994 216.705C236.174 215.707 235.383 214.688 234.583 213.68C227.981 205.333 221.038 197.276 213.785 189.479C208.883 184.217 203.931 179.005 199.019 173.754C194.047 168.442 189.135 163.08 184.303 157.639C183.593 156.84 183.153 155.922 182.783 154.943C180.011 147.555 177.21 140.177 174.039 132.948C173.789 132.379 173.569 131.79 173.119 131.331C172.448 130.652 171.978 130.762 171.688 131.65C171.298 132.869 171.398 134.107 171.508 135.355C171.578 136.123 171.938 137.242 171.058 137.411C170.338 137.551 170.178 136.363 169.967 135.674C168.297 130.323 166.726 124.931 164.515 119.779C163.725 117.922 163.445 116.085 163.445 114.098C163.475 87.8002 163.475 61.492 163.455 35.1938C163.455 31.5297 161.834 28.7341 158.683 26.8571C157.272 26.0185 155.742 25.5592 154.061 25.5592C113.415 25.5592 72.7689 25.5692 32.1328 25.5592C26.1704 25.5592 22.4789 30.6511 22.4789 35.2238C22.5089 112.131 22.5089 189.039 22.4789 265.957C22.4789 270.54 25.4301 274.813 30.342 275.791C31.1724 275.961 32.0027 275.901 32.823 275.911C63.6853 275.911 94.5376 275.911 125.4 275.911C127.761 275.911 128.941 277.083 128.941 279.425C128.941 284.497 128.941 289.559 128.941 294.631C128.941 297.037 128.671 297.317 126.32 297.317C84.9237 297.317 43.5373 297.317 2.14085 297.317C1.40056 297.317 0.63025 297.417 0.0200081 296.838L0 296.828Z" fill="#A1C9FF"/>
<path d="M0 296.828C42.3468 296.828 84.7036 296.828 127.05 296.858C128.191 296.858 128.471 296.568 128.461 295.44C128.401 289.54 128.391 283.639 128.461 277.738C128.471 276.54 128.081 276.36 127.01 276.36C95.5279 276.39 64.0454 276.38 32.5629 276.38C26.2204 276.38 21.9787 272.167 21.9787 265.867C21.9787 189.089 21.9787 112.301 21.9787 35.5235C21.9787 29.3733 26.2504 25.0801 32.3829 25.0801C72.7789 25.0801 113.165 25.0801 153.561 25.0801C159.613 25.0801 163.905 29.3832 163.905 35.4636C163.905 62.0113 163.905 88.5591 163.895 115.117C163.895 116.465 164.095 117.693 164.635 118.951C166.876 124.083 168.437 129.464 170.148 134.786C170.418 135.634 170.698 136.483 170.938 137.252C170.938 135.864 170.888 134.426 170.958 132.988C170.998 131.98 170.868 130.652 172.138 130.383C173.439 130.103 173.789 131.401 174.209 132.32C177.58 139.798 180.432 147.495 183.323 155.163C183.933 156.771 185.083 157.859 186.144 159.047C195.518 169.57 205.321 179.694 214.895 190.038C222.718 198.484 230.171 207.25 237.254 216.336C237.534 216.695 237.824 217.035 238.215 217.514C239.115 215.118 239.975 212.861 240.806 210.595C242.286 206.542 243.957 202.568 245.828 198.694C246.178 197.975 246.138 197.486 245.567 196.957C245.237 196.647 244.957 196.278 244.667 195.928C243.327 194.371 243.487 193.233 245.197 192.164C246.748 191.196 248.289 190.207 249.859 189.269C251.16 188.49 252.23 187.512 253.12 186.274C254.871 183.828 256.932 181.661 259.543 180.094C260.914 179.265 262.394 178.736 264.015 178.676C266.776 178.586 268.287 179.524 269.367 182.07C270.587 184.946 270.948 188.001 271.108 191.066C271.518 199.063 270.878 207.001 269.657 214.888C269.477 216.056 269.777 216.865 270.517 217.774C278.391 227.528 285.063 238.081 291.486 248.814C292.886 251.161 294.277 253.527 295.657 255.883C295.817 256.163 295.977 256.482 296.017 256.802C297.508 268.802 296.608 280.564 292.476 292.006C291.896 293.603 291.136 295.121 290.295 296.858L320 297V298C214.478 298 105.512 298 0 298V296.828Z" fill="#041C42"/>
<path d="M159.973 260.725C158.553 261.234 157.352 261.424 156.332 262.083C155.862 262.383 155.392 262.732 155.472 263.341C155.562 263.98 156.072 264.27 156.682 264.429C158.153 264.829 159.653 264.609 161.324 264.709C159.833 265.398 158.273 265.508 157.232 266.835C156.712 267.494 155.302 266.756 155.061 265.827C153.611 260.336 151.39 255.254 147.198 251.24C145.638 249.743 143.907 248.475 141.686 247.806V273.405C140.866 271.238 140.166 269.052 139.185 266.975C137.194 262.772 134.593 259.088 130.492 256.652C129.891 256.292 129.161 255.643 128.591 255.953C128.111 256.212 128.441 257.171 128.431 257.81C128.411 263.291 128.391 268.782 128.451 274.264C128.451 275.222 128.191 275.402 127.28 275.402C95.5878 275.372 63.9053 275.382 32.2127 275.382C26.8806 275.382 22.979 271.498 22.979 266.196C22.979 189.209 22.979 112.221 22.979 35.2338C22.979 29.9422 26.9006 26.0684 32.2327 26.0684C72.7088 26.0684 113.185 26.0684 153.661 26.0684C158.993 26.0684 162.905 29.9522 162.905 35.2438C162.905 61.7516 162.905 88.2595 162.905 114.767C162.905 115.326 163.015 115.836 162.144 115.955C161.604 116.035 161.414 116.704 161.394 117.273C161.374 118.212 161.394 119.14 161.394 120.428C160.744 118.901 160.414 117.623 159.743 116.505C159.373 115.896 158.983 115.197 158.143 115.356C157.302 115.516 157.212 116.285 157.102 117.004C156.932 118.122 157.162 119.24 157.152 120.748C156.652 119.42 156.292 118.431 155.912 117.463C155.622 116.714 155.191 116.115 154.251 116.295C153.291 116.475 153.181 117.263 153.171 118.012C153.121 120.478 153.651 122.874 154.041 125.291C154.081 125.56 154.101 125.83 154.171 126.419C153.501 125.111 153.131 124.003 152.44 123.064C152.11 122.615 151.74 122.146 151.12 122.355C150.53 122.555 150.59 123.154 150.6 123.633C150.69 127.018 151.56 130.273 152.4 133.527C154.341 141.075 156.632 148.504 160.123 155.512C160.624 156.511 161.114 157.559 161.824 158.388C162.775 159.496 162.905 160.694 162.905 162.052C162.885 193.003 162.885 223.954 162.905 254.914C162.905 255.973 162.674 256.412 161.544 256.542C160.063 256.712 158.613 257.141 157.172 257.51C156.662 257.64 156.172 257.9 155.702 258.159C155.212 258.439 154.871 258.848 155.031 259.487C155.181 260.066 155.532 260.476 156.132 260.516C157.292 260.605 158.453 260.625 159.933 260.695L159.973 260.725Z" fill="white"/>
<path d="M238.545 219.541C239.615 216.645 240.646 213.9 241.666 211.144C249.329 216.266 257.992 218.153 266.816 219.551C266.896 219.561 266.986 219.571 267.066 219.581C268.273 219.734 268.987 219.224 269.207 218.053C272.258 220.13 291.876 249.723 294.457 256.142C289.405 257.39 284.373 258.638 279.331 259.866C259.403 264.739 239.465 269.601 219.537 274.493C218.517 274.743 218.217 274.603 218.047 273.515C216.526 263.97 214.935 254.435 212.414 245.09C211.214 240.637 208.873 236.703 206.612 232.76C199.839 220.948 192.396 209.546 185.304 197.935C178.451 186.713 171.688 175.431 165.846 163.639C165.626 163.19 165.396 162.751 165.196 162.302C164.509 160.831 164.952 159.975 166.526 159.736C171.788 158.947 177.06 158.188 182.312 157.379C182.973 157.28 183.373 157.399 183.813 157.909C193.417 168.781 203.491 179.225 213.375 189.838C221.958 199.063 230.091 208.668 237.804 218.632C238.005 218.892 238.225 219.141 238.545 219.541Z" fill="#A1C9FF"/>
<path d="M215.516 296.828C191.446 296.828 167.387 296.828 143.317 296.848C142.217 296.848 141.876 296.618 141.886 295.46C141.956 289.35 141.946 283.249 141.886 277.139C141.886 276.101 142.137 275.861 143.177 275.861C167.617 275.891 192.056 275.881 216.496 275.901C218.917 275.901 221.158 275.102 223.439 274.543C246.918 268.832 270.387 263.082 293.857 257.321C294.527 257.161 294.997 256.981 295.117 258C296.508 270.12 295.377 281.932 290.836 293.333C289.435 296.848 289.385 296.828 285.593 296.828H215.526H215.516Z" fill="#CAE0FF"/>
<path d="M163.975 162.122C166.786 167.933 169.687 173.324 172.699 178.656C179.601 190.866 187.084 202.727 194.477 214.639C199.329 222.466 204.261 230.244 208.563 238.391C210.173 241.456 211.414 244.631 212.164 248.025C212.394 249.054 212.094 249.144 211.194 249.154C202.911 249.244 194.627 248.834 186.354 248.714C183.733 248.674 181.112 248.545 178.501 248.944C178.341 248.974 178.161 248.944 178.001 248.994C177.3 249.204 176.35 249.224 176.23 250.122C176.1 251.071 176.96 251.45 177.701 251.74C179.081 252.269 180.502 252.728 182.122 253.297C175.94 254.236 169.987 255.144 163.975 256.063V162.122Z" fill="#A1C9FF"/>
<path d="M172.288 131.331C173.009 131.72 173.159 132.369 173.399 132.909C176.69 140.327 179.511 147.935 182.432 155.503C182.723 156.261 182.502 156.371 181.802 156.471C176.08 157.29 170.368 158.128 164.655 159.037C163.805 159.177 163.365 158.957 162.925 158.298C160.704 154.963 159.183 151.289 157.813 147.555C155.222 140.506 153.101 133.318 151.83 125.91C151.73 125.301 151.69 124.682 151.72 124.043C152.821 125.46 153.361 127.128 153.931 128.765C154.811 131.311 155.592 133.887 156.422 136.443C156.542 136.812 156.532 137.381 157.122 137.282C157.853 137.152 157.512 136.553 157.422 136.173C156.302 131.541 155.312 126.868 154.571 122.156C154.361 120.848 154.151 119.53 154.201 118.192C154.211 117.882 154.081 117.423 154.511 117.363C154.931 117.293 155.001 117.783 155.112 118.052C156.062 120.528 156.782 123.084 157.452 125.64C158.373 129.164 159.263 132.709 160.174 136.233C160.284 136.673 160.244 137.411 160.984 137.202C161.614 137.032 161.264 136.423 161.184 136.024C160.314 131.631 159.203 127.287 158.553 122.855C158.243 120.768 157.853 118.681 158.223 116.495C158.883 116.575 158.973 117.144 159.163 117.543C160.624 120.728 161.374 124.132 162.194 127.517C162.805 130.053 163.355 132.609 163.935 135.155C164.035 135.574 164.025 136.203 164.665 136.083C165.326 135.964 165.065 135.375 165.015 134.945C164.515 130.822 163.385 126.808 162.795 122.705C162.534 120.878 162.224 119.061 162.494 116.944C163.435 118.322 163.925 119.62 164.425 120.908C167.116 127.906 169.197 135.115 171.488 142.244C171.688 142.853 171.698 144.031 172.488 143.851C173.439 143.631 172.809 142.593 172.739 141.914C172.448 139.069 172.028 136.233 171.978 133.358C171.968 132.689 172.028 132.04 172.318 131.331H172.288Z" fill="#CAE0FF"/>
<path d="M177.28 250.251C178.571 249.822 179.771 249.742 180.972 249.722C188.175 249.573 195.368 249.992 202.56 250.122C203.191 250.132 203.431 250.281 203.411 250.95C203.241 256.012 203.091 261.074 202.961 266.136C202.951 266.705 202.821 266.925 202.19 266.925C187.785 266.895 173.389 266.895 158.983 266.885C158.963 266.885 158.943 266.835 158.843 266.735C160.634 265.867 162.535 265.527 164.425 265.188C168.307 264.489 172.208 263.85 176.09 263.191C176.29 263.161 176.5 263.111 176.7 263.051C177.04 262.951 177.36 262.762 177.26 262.362C177.16 261.973 176.79 261.943 176.44 261.993C175.08 262.173 173.719 262.372 172.358 262.542C167.947 263.101 163.535 263.75 159.073 263.7C158.263 263.7 157.423 263.75 156.602 263.281C156.952 262.702 157.533 262.592 158.063 262.412C162.154 261.064 166.416 260.595 170.638 259.956C172.449 259.686 174.259 259.447 176.07 259.197C176.52 259.137 177.13 259.167 177.03 258.528C176.95 257.969 176.38 258.139 175.99 258.179C171.978 258.558 167.957 258.988 163.945 259.337C161.664 259.537 159.383 259.756 157.092 259.666C156.742 259.657 156.212 259.796 156.142 259.327C156.082 258.898 156.622 258.818 156.952 258.698C159.553 257.799 162.284 257.42 164.986 256.971C171.008 255.962 177.05 255.024 183.113 254.255C183.643 254.185 184.313 254.195 184.373 253.506C184.433 252.807 183.733 252.708 183.243 252.548C181.872 252.079 180.472 251.689 179.091 251.23C178.511 251.04 177.901 250.87 177.28 250.271V250.251Z" fill="#CAE0FF"/>
<path d="M269.937 202.828C269.707 206.881 269.207 210.705 268.737 214.529C268.597 215.637 268.456 216.755 268.296 217.864C268.236 218.313 268.216 218.732 267.486 218.612C259.493 217.255 251.53 215.777 244.377 211.654C242.116 210.346 242.116 210.316 243.076 207.89C243.937 205.733 244.857 203.616 245.717 201.46C245.978 200.801 246.268 200.631 246.998 200.891C249.309 201.709 251.4 201.05 253.37 199.762C253.741 199.523 253.871 199.293 253.631 198.854C253.33 198.285 253.06 198.624 252.75 198.804C251.13 199.713 249.459 200.381 247.528 199.902C246.798 199.723 246.598 199.443 246.978 198.724C247.838 197.117 248.639 195.479 249.449 193.852C249.659 193.433 249.799 193.343 250.239 193.672C252.28 195.18 254.481 195.699 256.872 194.491C257.042 194.411 257.182 194.221 257.342 194.551C257.652 195.21 258.162 194.87 258.603 194.72C259.033 194.581 259.423 194.311 259.863 194.191C261.314 193.782 262.584 194.151 263.224 195.12C264.155 196.518 264.115 198.035 263.114 199.273C262.664 199.832 262.094 200.232 261.484 200.601C260.613 201.12 260.583 201.729 261.434 202.258C264.085 203.896 266.826 204.615 269.937 202.828Z" fill="#CAE0FF"/>
<path d="M217.276 274.893H215.956C196.228 274.893 176.5 274.893 156.772 274.913C155.732 274.913 155.302 274.753 155.392 273.595C155.512 272.067 155.472 270.52 155.392 268.992C155.352 268.123 155.582 267.884 156.472 267.894C162.134 267.934 167.797 267.914 173.459 267.914C187.274 267.914 201.1 267.924 214.915 267.894C215.836 267.894 216.206 268.133 216.326 269.052C216.576 270.979 216.936 272.886 217.266 274.903L217.276 274.893Z" fill="#CAE0FF"/>
<path d="M129.521 257.301C131.662 258.349 133.293 259.907 134.744 261.674C137.995 265.648 139.725 270.32 140.886 275.242C140.956 275.562 140.926 275.901 140.926 276.231C140.926 282.7 140.906 289.18 140.956 295.65C140.956 296.668 140.656 296.858 139.715 296.848C136.594 296.788 133.473 296.808 130.362 296.848C129.712 296.848 129.421 296.748 129.421 295.989C129.441 283.25 129.441 270.51 129.441 257.77C129.441 257.65 129.481 257.54 129.531 257.311L129.521 257.301Z" fill="#CAE0FF"/>
<path d="M142.677 249.264C144.537 250.142 145.938 251.3 147.188 252.628C151.09 256.772 153.251 261.824 154.311 267.295C154.751 269.581 154.401 272.017 154.421 274.374C154.421 274.853 154.161 274.893 153.791 274.893C150.3 274.893 146.798 274.873 143.307 274.893C142.547 274.893 142.677 274.434 142.677 273.994C142.677 271.548 142.677 269.092 142.677 266.646V249.244V249.264Z" fill="#CAE0FF"/>
<path d="M262.514 201.39C263.635 200.541 264.605 199.573 264.865 198.145C265.505 194.59 262.964 192.254 259.373 193.223C258.273 193.522 258.093 193.342 258.093 192.264C258.103 189.429 258.173 186.613 258.933 183.867C259.883 180.443 261.744 179.195 265.125 179.614C266.646 179.804 267.596 180.732 268.277 181.98C269.507 184.207 269.857 186.683 270.087 189.169C270.437 192.903 270.367 196.637 270.137 200.371C270.097 200.98 269.897 201.36 269.407 201.699C267.366 203.127 265.005 203.047 262.514 201.39Z" fill="#CAE0FF"/>
<path d="M204.401 258.539C204.401 256.053 204.441 253.557 204.381 251.071C204.361 250.252 204.671 250.112 205.392 250.122C207.512 250.162 209.643 250.162 211.764 250.122C212.434 250.112 212.714 250.352 212.865 250.981C214.015 255.993 215.005 261.035 215.846 266.117C215.936 266.686 215.876 266.935 215.205 266.935C211.704 266.905 208.213 266.905 204.711 266.935C203.971 266.935 203.941 266.596 203.951 266.017C203.981 263.531 203.961 261.035 203.961 258.549H204.401V258.539Z" fill="#A1C9FF"/>
<path d="M257.132 191.206C255.732 189.828 254.231 189.189 252.46 188.819C254.171 186.313 255.902 183.967 258.493 181.851C257.442 185.026 257.062 187.941 257.132 191.206Z" fill="#CAE0FF"/>
<path d="M246.778 196.627C246.658 196.557 246.538 196.517 246.458 196.437C244.037 194.061 244.057 193.862 246.928 192.134C247.948 191.515 248.969 190.916 250.169 190.437C249.049 192.494 247.918 194.55 246.788 196.627H246.778Z" fill="#CAE0FF"/>
<path d="M253.191 193.911C254.101 192.893 254.421 191.755 253.981 190.427C255.702 191.086 256.702 192.284 256.402 193.242C256.142 194.071 255.011 194.331 253.201 193.911H253.191Z" fill="#CAE0FF"/>
<path d="M92.9368 166.685C76.1502 166.685 59.3735 166.685 42.5868 166.685C38.9554 166.685 36.9846 164.708 36.9746 161.054C36.9746 156.401 36.9746 151.749 36.9746 147.096C36.9746 143.821 39.0654 141.754 42.3667 141.754C76.0601 141.754 109.744 141.754 143.437 141.754C146.898 141.754 148.919 143.791 148.919 147.256C148.919 151.948 148.919 156.651 148.919 161.343C148.919 164.618 146.828 166.685 143.527 166.685C126.66 166.685 109.794 166.685 92.9268 166.685H92.9368Z" fill="#004079"/>
<path d="M92.9969 201.589C76.2102 201.589 59.4335 201.589 42.6469 201.589C38.9354 201.589 36.9746 199.622 36.9746 195.898C36.9746 191.285 36.9746 186.673 36.9746 182.06C36.9746 178.695 39.0354 176.659 42.4268 176.659C76.0701 176.659 109.723 176.659 143.367 176.659C146.908 176.659 148.909 178.675 148.909 182.22C148.909 186.872 148.909 191.525 148.909 196.178C148.909 199.542 146.848 201.579 143.457 201.579C126.63 201.579 109.814 201.579 92.9868 201.579L92.9969 201.589Z" fill="#004079"/>
<path d="M92.9568 71.9453C109.744 71.9453 126.52 71.9453 143.307 71.9453C146.948 71.9453 148.929 73.9222 148.929 77.5564C148.929 82.209 148.929 86.8616 148.929 91.5142C148.929 94.799 146.848 96.8757 143.557 96.8757C109.824 96.8757 76.1002 96.8757 42.3668 96.8757C39.0755 96.8757 36.9946 94.799 36.9946 91.5142C36.9946 86.7817 36.9946 82.0393 36.9946 77.3068C36.9946 74.022 39.0755 71.9453 42.3668 71.9453C59.2335 71.9453 76.1002 71.9453 92.9669 71.9453H92.9568Z" fill="#004079"/>
<path d="M92.9568 236.494C76.1702 236.494 59.3935 236.494 42.6069 236.494C38.9654 236.494 36.9846 234.517 36.9846 230.883C36.9846 226.23 36.9846 221.578 36.9846 216.925C36.9846 213.64 39.0654 211.563 42.3568 211.563C76.0901 211.563 109.814 211.563 143.547 211.563C146.838 211.563 148.919 213.64 148.919 216.925C148.919 221.657 148.919 226.4 148.919 231.132C148.919 234.417 146.838 236.494 143.547 236.494C126.68 236.494 109.814 236.494 92.9468 236.494H92.9568Z" fill="#004079"/>
<path d="M92.9568 131.78C76.1702 131.78 59.3935 131.78 42.6069 131.78C38.9654 131.78 36.9846 129.804 36.9846 126.169C36.9846 121.517 36.9846 116.864 36.9846 112.212C36.9846 108.927 39.0654 106.85 42.3568 106.85C76.0901 106.85 109.814 106.85 143.547 106.85C146.838 106.85 148.919 108.927 148.919 112.212C148.919 116.944 148.919 121.687 148.919 126.419C148.919 129.704 146.838 131.78 143.547 131.78C126.68 131.78 109.814 131.78 92.9468 131.78H92.9568Z" fill="#004079"/>
<path d="M92.827 261.434C87.665 261.434 82.5129 261.434 77.3509 261.434C74.7499 261.434 72.9291 259.747 72.9692 257.38C72.9992 255.084 74.8099 253.457 77.3609 253.457C87.765 253.457 98.1691 253.457 108.563 253.457C111.164 253.457 112.985 255.144 112.945 257.51C112.915 259.806 111.104 261.434 108.553 261.434C103.311 261.434 98.0691 261.434 92.827 261.434Z" fill="#041C42"/>
<path d="M104.962 50.0104C101.971 50.0104 99.5396 47.734 99.5696 44.9883C99.6096 42.2028 102.031 40.0163 105.042 40.0462C107.953 40.0762 110.354 42.3026 110.394 45.0083C110.434 47.714 107.923 50.0303 104.962 50.0203V50.0104Z" fill="#041C42"/>
<path d="M64.9658 45.0279C64.9658 43.6201 64.9958 42.2024 64.9558 40.7946C64.9358 40.1956 65.1159 40.0059 65.7161 40.0258C66.7966 40.0757 67.877 40.0059 68.9574 40.0458C71.0282 40.1356 72.5388 41.6932 72.4988 43.6301C72.4588 45.4672 70.9082 46.9248 68.8774 47.0147C68.7573 47.0147 68.6273 47.0347 68.5072 47.0147C67.3568 46.7951 67.0367 47.2943 67.0967 48.4125C67.1267 49.0015 67.7169 50.0499 66.2063 50.0499C65.1659 50.0499 64.8458 49.8003 64.9358 48.7619C65.0359 47.5239 64.9558 46.2759 64.9558 45.0279H64.9658Z" fill="#041C42"/>
<path d="M84.8739 50.01C81.9227 50.03 79.7319 48.4126 79.1716 46.1262C78.6414 43.9197 79.7119 41.7132 81.8427 40.6649C84.0936 39.5467 87.0348 40.0359 88.5053 41.7432C88.8555 42.1525 88.9755 42.3722 88.3053 42.5719C87.5149 42.8015 86.8847 43.101 86.0344 42.482C84.7439 41.5635 82.8631 42.0028 81.8727 43.2009C80.9924 44.2692 80.9624 45.6869 81.7827 46.7652C82.7331 48.0032 84.4737 48.3527 85.9543 47.6738C86.3545 47.4841 86.6246 46.9249 87.1248 47.1047C87.695 47.3143 88.5854 47.2644 88.7354 47.8335C88.8755 48.3527 88.0952 48.7021 87.635 49.0416C86.6946 49.7205 85.6242 50.0001 84.8739 50.02V50.01Z" fill="#041C42"/>
<path d="M116.606 40.0462C117.327 39.9763 117.997 40.1161 118.597 40.3757C118.957 40.5355 119.838 40.4156 119.457 41.3242C119.177 41.9931 118.937 42.712 117.997 42.0331C117.867 41.9432 117.687 41.9033 117.527 41.8733C116.636 41.7036 115.596 41.5838 115.306 42.6321C115.016 43.7004 116.046 43.9301 116.836 44.1797C117.187 44.2895 117.567 44.3494 117.907 44.4892C118.977 44.9484 119.918 45.5575 119.938 46.8953C119.958 48.2332 119.147 49.0419 118.037 49.5611C116.396 50.3299 114.796 50.1302 113.305 49.1518C112.935 48.9121 112.345 48.6525 112.925 48.0136C113.315 47.5743 113.555 47.0251 114.275 47.6242C114.976 48.2132 115.846 48.353 116.746 48.1234C117.217 48.0036 117.597 47.764 117.677 47.2348C117.767 46.6757 117.407 46.3762 116.966 46.1965C116.476 45.9968 115.946 45.847 115.436 45.6873C113.725 45.1381 112.855 44.1198 113.015 42.8218C113.215 41.1744 114.365 40.1561 116.146 40.0362C116.316 40.0263 116.476 40.0362 116.606 40.0362V40.0462Z" fill="#041C42"/>
<path d="M94.1974 40.0362C95.2378 40.0362 96.2782 40.0662 97.3186 40.0262C98.0689 39.9963 98.5191 40.0162 98.5091 41.0246C98.5091 41.9931 98.129 42.063 97.3387 42.053C95.2178 42.0131 95.2078 42.053 95.2078 44.1696C95.2078 45.7871 95.1578 47.4145 95.2278 49.0319C95.2678 49.8905 94.9577 50.0403 94.1774 50.0403C93.3571 50.0403 93.0069 49.9005 93.0369 48.972C93.107 46.9852 93.0269 44.9883 93.077 42.9915C93.097 42.2527 92.9269 41.9032 92.1266 42.0231C91.7564 42.073 91.3763 42.0231 91.0061 42.033C90.2959 42.073 89.7857 42.1129 89.7656 41.0646C89.7456 39.9464 90.3159 40.0063 91.0662 40.0262C92.1066 40.0562 93.147 40.0262 94.1874 40.0262L94.1974 40.0362Z" fill="#041C42"/>
<path d="M74.7095 44.9782C74.7095 43.5705 74.7595 42.1627 74.6895 40.7549C74.6395 39.8264 75.2395 40.0261 75.7295 40.0361C76.2395 40.056 76.9195 39.7565 76.8995 40.7849C76.8495 43.6004 76.8495 46.4159 76.8995 49.2215C76.9195 50.3397 76.1695 49.9303 75.6395 50.0002C75.0195 50.0801 74.6495 50.0002 74.6895 49.1915C74.7595 47.7838 74.7095 46.376 74.7095 44.9682V44.9782Z" fill="#041C42"/>
<path d="M103.451 165.696C90.0457 165.696 76.6404 165.686 63.2351 165.716C62.2147 165.716 61.9246 165.507 61.9346 164.448C61.9846 157.599 61.9846 150.74 61.9346 143.891C61.9346 142.963 62.1447 142.733 63.085 142.733C89.9357 142.763 116.786 142.753 143.637 142.763C146.258 142.763 147.899 144.42 147.909 147.056C147.909 151.828 147.909 156.611 147.909 161.383C147.909 164.079 146.258 165.696 143.527 165.696C130.162 165.696 116.796 165.696 103.441 165.696H103.451Z" fill="white"/>
<path d="M60.9742 154.215C60.9742 157.699 60.9542 161.184 60.9942 164.678C60.9942 165.477 60.7941 165.716 59.9738 165.716C54.0214 165.676 48.0791 165.716 42.1267 165.696C39.6657 165.696 38.0051 163.999 37.9951 161.523C37.985 156.671 37.985 151.809 37.9951 146.956C37.9951 144.47 39.6657 142.773 42.1167 142.773C48.0691 142.753 54.0114 142.773 59.9638 142.753C60.7641 142.753 61.0142 142.943 61.0042 143.771C60.9542 147.256 60.9842 150.74 60.9842 154.235L60.9742 154.215Z" fill="#FEE730"/>
<path d="M103.431 200.601C90.0257 200.601 76.6204 200.591 63.2151 200.631C62.1647 200.631 61.9346 200.371 61.9346 199.343C61.9846 192.494 61.9846 185.635 61.9346 178.786C61.9346 177.817 62.2047 177.647 63.105 177.647C89.9157 177.677 116.726 177.667 143.537 177.667C146.308 177.667 147.909 179.295 147.919 182.1C147.919 186.793 147.919 191.485 147.919 196.178C147.919 198.974 146.308 200.591 143.517 200.591C130.152 200.591 116.786 200.591 103.431 200.591V200.601Z" fill="white"/>
<path d="M60.9744 189.169C60.9744 192.663 60.9543 196.148 60.9944 199.642C60.9944 200.401 60.8143 200.621 60.024 200.621C54.0316 200.591 48.0292 200.621 42.0368 200.591C39.7159 200.591 38.0052 198.883 37.9952 196.577C37.9752 191.635 37.9752 186.683 37.9952 181.741C37.9952 179.354 39.7059 177.677 42.1069 177.667C48.0592 177.647 54.0216 177.677 59.974 177.637C60.8243 177.637 60.9944 177.907 60.9944 178.696C60.9543 182.19 60.9744 185.674 60.9744 189.169Z" fill="#FE893D"/>
<path d="M103.431 95.8873C90.0258 95.8873 76.6205 95.8773 63.2152 95.9173C62.1547 95.9173 61.9347 95.6477 61.9447 94.6293C61.9947 87.8201 61.9847 81.001 61.9447 74.1918C61.9447 73.3032 62.0547 72.9238 63.1151 72.9238C89.9258 72.9638 116.736 72.9538 143.547 72.9538C146.268 72.9538 147.919 74.5812 147.919 77.2669C147.919 81.9994 147.919 86.7419 147.919 91.4743C147.919 94.2699 146.308 95.8873 143.517 95.8873C130.152 95.8873 116.786 95.8873 103.431 95.8873Z" fill="white"/>
<path d="M60.9743 84.3856C60.9743 87.7502 60.9343 91.1149 60.9943 94.4795C61.0143 95.5179 60.8043 95.9272 59.6438 95.9173C53.8115 95.8574 47.9892 95.8973 42.1568 95.8873C39.6659 95.8873 37.9952 94.2299 37.9952 91.7439C37.9852 86.8417 37.9752 81.9395 37.9952 77.0373C37.9952 74.6411 39.6859 72.9638 42.0968 72.9538C47.9692 72.9338 53.8415 72.9737 59.7138 72.9238C60.8042 72.9238 61.0143 73.3032 61.0043 74.2917C60.9543 77.6563 60.9843 81.0209 60.9843 84.3856H60.9743Z" fill="#0CA0AC"/>
<path d="M103.451 212.562C116.726 212.562 130.012 212.562 143.287 212.562C146.408 212.562 147.929 214.09 147.929 217.245C147.929 221.857 147.929 226.47 147.929 231.073C147.929 233.878 146.318 235.496 143.537 235.496C116.726 235.496 89.9157 235.496 63.1051 235.516C62.1747 235.516 61.9346 235.306 61.9446 234.368C61.9846 227.468 61.9947 220.579 61.9446 213.68C61.9446 212.742 62.1847 212.532 63.1051 212.532C76.5504 212.562 89.9958 212.552 103.441 212.552L103.451 212.562Z" fill="white"/>
<path d="M60.9744 224.034C60.9744 227.478 60.9543 230.933 60.9944 234.377C60.9944 235.196 60.8643 235.536 59.9339 235.526C53.9816 235.486 48.0292 235.526 42.0769 235.496C39.6859 235.496 38.0052 233.788 38.0052 231.382C37.9852 226.48 37.9852 221.578 38.0052 216.676C38.0052 214.279 39.6959 212.572 42.0869 212.562C48.0392 212.542 53.9916 212.572 59.9439 212.532C60.8743 212.532 61.0144 212.872 61.0044 213.68C60.9644 217.125 60.9844 220.579 60.9844 224.024L60.9744 224.034Z" fill="#E1343F"/>
<path d="M103.531 107.848C116.806 107.848 130.082 107.848 143.367 107.848C146.338 107.848 147.929 109.416 147.929 112.351C147.929 117.044 147.929 121.736 147.929 126.429C147.929 129.134 146.298 130.782 143.587 130.782C116.786 130.782 89.9758 130.782 63.1751 130.802C62.1847 130.802 61.9446 130.542 61.9546 129.574C61.9947 122.725 62.0047 115.866 61.9546 109.016C61.9546 107.988 62.2848 107.818 63.2151 107.818C76.6605 107.848 90.1058 107.838 103.551 107.838L103.531 107.848Z" fill="#F6C254"/>
<path d="M60.9742 119.39C60.9742 122.795 60.9442 126.199 60.9942 129.604C61.0042 130.492 60.8341 130.822 59.8537 130.812C53.9414 130.762 48.039 130.802 42.1267 130.782C39.6657 130.782 38.0051 129.085 37.9951 126.598C37.985 121.736 37.985 116.884 37.9951 112.022C37.9951 109.546 39.6757 107.858 42.1367 107.848C48.049 107.828 53.9514 107.868 59.8637 107.818C60.8641 107.818 61.0042 108.178 60.9942 109.036C60.9542 112.481 60.9742 115.925 60.9742 119.38V119.39Z" fill="#87BA4B"/>
<path d="M92.9267 260.436C87.7647 260.436 82.6126 260.436 77.4506 260.436C75.2997 260.436 73.9492 259.257 73.9692 257.41C73.9792 255.623 75.3197 254.455 77.3906 254.455C87.7947 254.455 98.1888 254.455 108.593 254.455C110.634 254.455 111.964 255.673 111.954 257.48C111.944 259.267 110.604 260.436 108.533 260.436C103.331 260.436 98.1288 260.436 92.9367 260.436H92.9267Z" fill="white"/>
<path d="M71.2283 155.473C70.8181 155.473 70.408 155.473 69.9878 155.473C69.6277 155.473 69.4776 155.313 69.4976 154.944C69.5076 154.654 69.5776 154.464 69.8978 154.464C70.7681 154.464 71.6285 154.464 72.4988 154.464C72.899 154.464 72.929 154.734 72.929 155.053C72.929 155.393 72.7389 155.473 72.4688 155.473C72.0586 155.473 71.6485 155.473 71.2283 155.473Z" fill="#041C42"/>
<path d="M75.68 154.455C76.1001 154.455 76.5103 154.455 76.9305 154.455C77.2806 154.455 77.4507 154.564 77.4507 154.954C77.4507 155.323 77.3206 155.483 76.9505 155.473C76.2002 155.473 75.4599 155.473 74.7096 155.473C74.3194 155.473 73.9593 155.503 73.9893 154.914C74.0193 154.395 74.3595 154.465 74.6796 154.455C75.0097 154.455 75.3398 154.455 75.68 154.455Z" fill="#041C42"/>
<path d="M80.2619 155.473C79.8518 155.473 79.4416 155.473 79.0314 155.473C78.6713 155.473 78.5212 155.323 78.5312 154.954C78.5412 154.664 78.6213 154.464 78.9314 154.464C79.7917 154.464 80.6621 154.464 81.5224 154.464C81.8325 154.464 81.9426 154.624 81.9426 154.924C81.9426 155.253 81.8926 155.493 81.4924 155.483C81.0822 155.483 80.6721 155.483 80.2619 155.483V155.473Z" fill="#041C42"/>
<path d="M84.8037 155.473C84.3935 155.473 83.9733 155.473 83.5632 155.473C83.223 155.473 83.033 155.373 83.033 154.984C83.033 154.614 83.183 154.455 83.5332 154.455C84.2835 154.455 85.0237 154.455 85.774 154.455C86.1742 154.455 86.5043 154.445 86.4743 155.014C86.4543 155.543 86.1242 155.473 85.8041 155.473C85.4739 155.473 85.1438 155.473 84.8137 155.473H84.8037Z" fill="#041C42"/>
<path d="M89.1452 155.473C88.715 155.163 87.5845 156.022 87.5945 154.933C87.5945 153.945 88.645 154.634 89.2052 154.474C89.5453 154.374 89.9455 154.454 90.3156 154.454C90.6558 154.454 90.9559 154.434 90.9659 154.943C90.9659 155.413 90.7558 155.502 90.3657 155.483C89.9955 155.463 89.6254 155.483 89.1452 155.483V155.473Z" fill="#041C42"/>
<path d="M93.7672 155.542C93.237 155.173 92.1566 156.012 92.1466 155.003C92.1365 153.915 93.247 154.504 93.7972 154.504C94.3274 154.504 95.3778 153.915 95.3878 154.923C95.3978 156.072 94.2674 155.123 93.7572 155.542H93.7672Z" fill="#041C42"/>
<path d="M98.5291 154.455C98.9093 154.724 99.9597 153.905 99.9197 155.014C99.8897 155.972 98.9493 155.313 98.4391 155.443C98.0189 155.553 97.5387 155.453 97.0886 155.463C96.7384 155.463 96.5684 155.333 96.5684 154.964C96.5684 154.604 96.7084 154.435 97.0686 154.445C97.5187 154.445 97.9689 154.445 98.5191 154.445L98.5291 154.455Z" fill="#041C42"/>
<path d="M134.223 155.472C133.823 155.123 132.683 156.081 132.723 154.913C132.753 153.935 133.773 154.634 134.323 154.474C134.703 154.364 135.144 154.464 135.554 154.454C135.914 154.454 136.064 154.594 136.074 154.963C136.074 155.333 135.934 155.482 135.564 155.472C135.154 155.462 134.744 155.472 134.233 155.472H134.223Z" fill="#041C42"/>
<path d="M138.855 155.542C138.355 155.123 137.214 156.072 137.244 154.913C137.264 153.915 138.315 154.504 138.845 154.504C139.395 154.504 140.506 153.915 140.486 155.013C140.466 156.012 139.395 155.173 138.855 155.542Z" fill="#041C42"/>
<path d="M129.682 155.473C129.281 155.173 128.231 156.042 128.231 154.973C128.231 153.975 129.231 154.614 129.772 154.474C130.162 154.374 130.592 154.474 131.002 154.454C131.362 154.444 131.512 154.584 131.512 154.954C131.512 155.323 131.392 155.483 131.012 155.473C130.602 155.453 130.192 155.473 129.682 155.473Z" fill="#041C42"/>
<path d="M125.33 155.542C124.829 155.123 123.679 156.072 123.719 154.913C123.749 153.925 124.789 154.504 125.32 154.504C125.87 154.504 126.97 153.895 126.95 155.013C126.93 156.032 125.86 155.163 125.33 155.542Z" fill="#041C42"/>
<path d="M120.698 155.473C120.298 155.153 119.237 156.062 119.217 154.993C119.197 153.975 120.218 154.624 120.758 154.474C121.108 154.384 121.498 154.454 121.868 154.454C122.209 154.454 122.519 154.434 122.529 154.943C122.529 155.413 122.309 155.492 121.918 155.473C121.548 155.453 121.168 155.473 120.698 155.473Z" fill="#041C42"/>
<path d="M116.296 155.552C115.786 155.163 114.726 156.051 114.716 155.003C114.706 153.905 115.796 154.514 116.336 154.504C116.856 154.504 117.897 153.925 117.917 154.923C117.927 156.061 116.806 155.123 116.296 155.542V155.552Z" fill="#041C42"/>
<path d="M111.654 155.473C111.254 155.173 110.194 156.052 110.184 154.973C110.184 153.975 111.194 154.614 111.744 154.474C112.134 154.374 112.565 154.474 112.985 154.454C113.345 154.444 113.495 154.584 113.495 154.964C113.495 155.333 113.365 155.493 112.995 155.473C112.585 155.453 112.164 155.473 111.654 155.473Z" fill="#041C42"/>
<path d="M102.651 155.473C102.251 155.163 101.19 156.052 101.19 154.974C101.19 153.975 102.201 154.604 102.731 154.474C103.121 154.374 103.551 154.474 103.961 154.454C104.321 154.444 104.471 154.584 104.471 154.954C104.471 155.313 104.361 155.483 103.981 155.473C103.571 155.453 103.161 155.473 102.651 155.473Z" fill="#041C42"/>
<path d="M107.513 154.454C107.903 154.734 108.953 153.905 108.913 155.013C108.883 155.962 107.933 155.293 107.423 155.443C107.042 155.553 106.602 155.443 106.192 155.473C105.772 155.493 105.602 155.343 105.622 154.904C105.632 154.494 105.862 154.444 106.182 154.444C106.592 154.444 107.002 154.444 107.513 154.444V154.454Z" fill="#041C42"/>
<path d="M51.2204 154.634C54.4416 155.762 55.422 157.839 53.9014 160.185C53.1211 161.373 51.9106 161.942 50.5701 162.162C48.8794 162.442 47.1788 162.362 45.4881 161.972C44.5577 161.763 44.1275 161.343 44.2576 160.365C44.3376 159.766 44.2676 159.157 44.2676 158.418C45.7582 159.007 47.1487 159.387 48.6293 159.267C49.5397 159.187 50.34 158.957 50.41 157.919C50.4901 156.861 49.7398 156.501 48.8094 156.401C48.4793 156.361 48.1391 156.232 47.819 156.281C46.5585 156.501 46.4785 155.832 46.4485 154.814C46.4185 153.706 46.6986 153.196 47.869 153.386C48.0991 153.426 48.3592 153.336 48.6093 153.296C49.5097 153.136 50.4801 152.887 50.27 151.729C50.0499 150.551 48.9895 150.79 48.1291 150.83C47.889 150.84 47.6489 150.96 47.3988 151C46.8486 151.09 46.3084 151.849 45.8382 151.439C45.268 150.95 44.9479 150.161 44.5277 149.492C44.3076 149.133 44.5677 148.963 44.8278 148.813C47.2288 147.515 49.7498 147.226 52.2708 148.274C54.5217 149.213 54.7118 152.308 52.6809 153.785C52.2508 154.095 51.7506 154.325 51.2104 154.634H51.2204Z" fill="#041C42"/>
<path d="M70.9382 190.377C70.5581 190.117 69.5777 190.866 69.5577 189.918C69.5377 188.879 70.5481 189.508 71.0783 189.388C71.5084 189.289 71.9786 189.368 72.4388 189.368C72.799 189.368 72.929 189.528 72.929 189.898C72.929 190.297 72.7289 190.387 72.3988 190.387C71.9486 190.387 71.4884 190.387 70.9382 190.387V190.377Z" fill="#041C42"/>
<path d="M75.4999 190.377C75.1098 190.078 74.0394 190.956 74.0594 189.838C74.0694 188.879 75.0397 189.528 75.5499 189.379C75.9001 189.279 76.2902 189.349 76.6704 189.369C77.0105 189.389 77.4407 189.219 77.4607 189.848C77.4807 190.457 77.1006 190.377 76.7304 190.387C76.3603 190.387 75.9801 190.387 75.5099 190.387L75.4999 190.377Z" fill="#041C42"/>
<path d="M80.312 190.377C79.9419 190.377 79.5717 190.377 79.2016 190.377C78.8714 190.377 78.5413 190.407 78.5313 189.908C78.5213 189.439 78.7614 189.359 79.1415 189.359C79.8818 189.359 80.6221 189.369 81.3624 189.359C81.7526 189.359 81.9627 189.439 81.9627 189.908C81.9627 190.417 81.6325 190.387 81.3024 190.387C80.9723 190.387 80.6421 190.387 80.312 190.387V190.377Z" fill="#041C42"/>
<path d="M84.8937 189.359C85.3039 189.668 86.3743 188.79 86.3943 189.818C86.4143 190.946 85.3339 190.187 84.7637 190.357C84.4235 190.457 84.0234 190.367 83.6532 190.377C83.2931 190.377 83.013 190.347 83.023 189.858C83.023 189.359 83.3331 189.359 83.6832 189.359C84.0534 189.359 84.4335 189.359 84.9037 189.359H84.8937Z" fill="#041C42"/>
<path d="M89.3954 189.359C89.8056 189.668 90.876 188.79 90.896 189.818C90.916 190.946 89.8356 190.187 89.2654 190.357C88.9252 190.457 88.5251 190.367 88.1549 190.377C87.7948 190.377 87.5147 190.347 87.5247 189.858C87.5247 189.359 87.8348 189.359 88.1849 189.359C88.5551 189.359 88.9352 189.359 89.4054 189.359H89.3954Z" fill="#041C42"/>
<path d="M93.8174 190.377C93.3972 190.377 92.987 190.377 92.5669 190.377C92.1967 190.377 92.0567 190.217 92.0667 189.848C92.0667 189.458 92.2567 189.349 92.6069 189.349C93.3572 189.349 94.1075 189.359 94.8478 189.349C95.2279 189.349 95.468 189.399 95.458 189.878C95.458 190.387 95.1579 190.377 94.8077 190.367C94.4776 190.367 94.1475 190.367 93.8073 190.367L93.8174 190.377Z" fill="#041C42"/>
<path d="M98.3191 190.377C97.9089 190.377 97.4987 190.377 97.0886 190.377C96.7284 190.377 96.5784 190.237 96.5784 189.868C96.5784 189.498 96.7284 189.349 97.0886 189.349C97.8289 189.349 98.5692 189.359 99.3094 189.349C99.7196 189.349 100.02 189.379 99.9897 189.928C99.9697 190.457 99.6296 190.367 99.3094 190.377C98.9793 190.377 98.6492 190.377 98.3191 190.377Z" fill="#041C42"/>
<path d="M138.835 190.447C138.335 190.057 137.254 190.956 137.244 189.898C137.244 188.789 138.335 189.408 138.885 189.398C139.415 189.398 140.486 188.819 140.496 189.828C140.496 190.936 139.365 190.047 138.835 190.447Z" fill="#041C42"/>
<path d="M134.233 190.377C133.833 190.038 132.703 190.976 132.723 189.828C132.743 188.83 133.763 189.538 134.313 189.379C134.693 189.269 135.134 189.369 135.544 189.359C135.894 189.359 136.064 189.479 136.064 189.858C136.064 190.217 135.934 190.387 135.564 190.377C135.154 190.367 134.743 190.377 134.233 190.377Z" fill="#041C42"/>
<path d="M129.701 190.377C129.301 190.067 128.251 190.966 128.231 189.898C128.211 188.879 129.221 189.528 129.751 189.378C130.092 189.279 130.492 189.358 130.862 189.358C131.202 189.358 131.512 189.338 131.522 189.838C131.522 190.307 131.302 190.387 130.922 190.377C130.552 190.357 130.182 190.377 129.711 190.377H129.701Z" fill="#041C42"/>
<path d="M125.15 190.377C124.749 190.097 123.689 190.916 123.709 189.848C123.729 188.839 124.749 189.538 125.29 189.378C125.63 189.279 126.03 189.378 126.4 189.358C126.78 189.338 127.02 189.418 127.01 189.888C127.01 190.397 126.69 190.377 126.35 190.377C125.98 190.377 125.6 190.377 125.13 190.377H125.15Z" fill="#041C42"/>
<path d="M120.668 190.377C120.268 190.077 119.207 190.956 119.217 189.868C119.217 188.859 120.238 189.528 120.788 189.378C121.178 189.279 121.608 189.378 122.028 189.359C122.399 189.349 122.529 189.508 122.529 189.878C122.529 190.257 122.379 190.397 122.018 190.377C121.608 190.367 121.188 190.377 120.678 190.377H120.668Z" fill="#041C42"/>
<path d="M116.496 189.359C116.896 189.628 117.947 188.83 117.917 189.888C117.887 190.886 116.886 190.188 116.346 190.357C116.046 190.447 115.696 190.377 115.366 190.377C114.995 190.377 114.625 190.447 114.645 189.848C114.665 189.229 115.075 189.379 115.416 189.369C115.746 189.349 116.076 189.369 116.496 189.369V189.359Z" fill="#041C42"/>
<path d="M111.664 190.377C111.264 190.067 110.204 190.966 110.184 189.888C110.174 188.879 111.194 189.518 111.734 189.379C112.124 189.279 112.555 189.379 112.975 189.359C113.325 189.349 113.495 189.468 113.495 189.858C113.495 190.217 113.395 190.397 113.005 190.377C112.595 190.357 112.174 190.377 111.664 190.377Z" fill="#041C42"/>
<path d="M107.333 190.377C106.962 190.377 106.592 190.367 106.222 190.377C105.832 190.397 105.612 190.307 105.622 189.838C105.622 189.329 105.942 189.359 106.282 189.359C106.982 189.359 107.683 189.369 108.383 189.359C108.773 189.349 108.983 189.438 108.983 189.898C108.983 190.407 108.673 190.377 108.333 190.377C108.003 190.377 107.673 190.377 107.343 190.377H107.333Z" fill="#041C42"/>
<path d="M103.011 189.359C103.401 189.638 104.451 188.809 104.411 189.918C104.381 190.866 103.431 190.197 102.921 190.347C102.541 190.457 102.1 190.347 101.69 190.377C101.27 190.397 101.1 190.247 101.12 189.808C101.13 189.399 101.36 189.349 101.68 189.349C102.09 189.349 102.501 189.349 103.011 189.349V189.359Z" fill="#041C42"/>
<path d="M49.0995 193.861C50.8102 193.861 52.1807 193.891 53.5513 193.852C54.2716 193.822 54.5917 193.971 54.5617 194.79C54.4716 197.616 54.8718 197.016 52.3708 197.056C49.9598 197.096 47.5389 197.046 45.1279 197.076C44.4176 197.086 44.2376 196.857 44.1976 196.158C44.1375 195.01 44.4377 194.151 45.328 193.332C46.8486 191.925 48.2092 190.337 49.6497 188.839C50.0099 188.47 50.25 188.041 50.39 187.562C50.7001 186.533 50.1699 185.864 49.0795 185.844C48.1791 185.834 47.4889 186.284 46.8386 186.813C46.3784 187.192 46.1083 187.252 45.6381 186.733C43.8874 184.786 43.9475 184.377 46.3584 183.228C47.849 182.52 49.4296 182.41 50.9903 182.739C54.1315 183.408 55.282 186.553 53.4512 189.369C52.6109 190.667 51.4304 191.675 50.3 192.723C49.9699 193.023 49.6397 193.332 49.0795 193.852L49.0995 193.861Z" fill="#041C42"/>
<path d="M89.3154 85.6635C88.9452 85.6635 88.5751 85.6635 88.1949 85.6635C87.8648 85.6635 87.5347 85.6935 87.5247 85.1843C87.5247 84.705 87.7748 84.6451 88.1449 84.6451C88.8852 84.6451 89.6355 84.6651 90.3758 84.6451C90.786 84.6352 90.976 84.745 90.966 85.1943C90.956 85.5936 90.7659 85.6735 90.4258 85.6635C90.0557 85.6535 89.6855 85.6635 89.3054 85.6635H89.3154Z" fill="#041C42"/>
<path d="M75.7399 85.6637C75.3197 85.6637 74.9096 85.6637 74.4894 85.6637C74.1293 85.6637 73.9692 85.5139 73.9892 85.1445C73.9992 84.855 74.0793 84.6653 74.3994 84.6553C75.2697 84.6553 76.1401 84.6553 77.0204 84.6553C77.3305 84.6553 77.4506 84.805 77.4506 85.1145C77.4506 85.444 77.4006 85.6836 76.9904 85.6737C76.5802 85.6637 76.1601 85.6737 75.7399 85.6737V85.6637Z" fill="#041C42"/>
<path d="M93.7872 85.7433C93.267 85.334 92.1166 86.2525 92.1466 85.1143C92.1666 84.1359 93.227 84.695 93.7672 84.705C94.3174 84.715 95.4179 84.076 95.3979 85.2142C95.3779 86.2525 94.3074 85.3639 93.7872 85.7533V85.7433Z" fill="#041C42"/>
<path d="M71.1083 85.6634C70.6781 85.3439 69.5577 86.2225 69.5677 85.1242C69.5677 84.1258 70.6081 84.8347 71.1583 84.665C71.4584 84.5751 71.8086 84.635 72.1387 84.655C72.4788 84.675 72.899 84.5252 72.929 85.1342C72.949 85.7333 72.5589 85.6634 72.1987 85.6634C71.8686 85.6634 71.5385 85.6634 71.1083 85.6634Z" fill="#041C42"/>
<path d="M98.1588 85.6636C97.7487 85.3242 96.6082 86.2527 96.6482 85.1045C96.6783 84.1461 97.7087 84.815 98.2589 84.6652C98.649 84.5654 99.0792 84.6652 99.4894 84.6453C99.8595 84.6353 99.9796 84.795 99.9896 85.1544C99.9896 85.5139 99.8695 85.6836 99.4994 85.6636C99.0892 85.6437 98.679 85.6636 98.1688 85.6636H98.1588Z" fill="#041C42"/>
<path d="M84.8037 85.6635C84.3935 85.6635 83.9733 85.6635 83.5632 85.6635C83.223 85.6635 83.033 85.5636 83.0229 85.1743C83.0229 84.8048 83.173 84.6451 83.5231 84.6451C84.2734 84.6451 85.0137 84.6451 85.764 84.6451C86.1642 84.6451 86.4943 84.6251 86.4643 85.2042C86.4443 85.7334 86.1142 85.6635 85.7941 85.6635C85.4639 85.6635 85.1338 85.6635 84.8037 85.6635Z" fill="#041C42"/>
<path d="M134.233 85.6633C133.833 85.3238 132.703 86.2623 132.723 85.1141C132.743 84.1157 133.763 84.8246 134.313 84.6649C134.693 84.555 135.134 84.6549 135.544 84.6449C135.894 84.6449 136.064 84.7647 136.064 85.1441C136.064 85.5035 135.934 85.6732 135.564 85.6633C135.154 85.6533 134.743 85.6633 134.233 85.6633Z" fill="#041C42"/>
<path d="M138.825 84.5654C139.355 84.9548 140.496 84.0762 140.486 85.1844C140.486 86.1928 139.415 85.6138 138.885 85.6038C138.335 85.6038 137.244 86.2128 137.244 85.1146C137.244 84.0463 138.325 84.9548 138.825 84.5654Z" fill="#041C42"/>
<path d="M80.2519 85.6635C79.9217 85.6635 79.5916 85.6635 79.2615 85.6635C78.8913 85.6635 78.5012 85.7234 78.5312 85.1344C78.5512 84.6351 78.8613 84.6551 79.2014 84.6551C79.9017 84.6551 80.602 84.6551 81.3023 84.6551C81.6324 84.6551 81.9425 84.6252 81.9625 85.1344C81.9825 85.7234 81.6224 85.6835 81.2422 85.6735C80.9121 85.6735 80.582 85.6735 80.2519 85.6735V85.6635Z" fill="#041C42"/>
<path d="M129.812 85.7331C129.311 85.3437 128.241 86.2423 128.241 85.184C128.241 84.0957 129.321 84.6948 129.872 84.6948C130.392 84.6948 131.442 84.1257 131.452 85.1241C131.452 86.2423 130.332 85.3238 129.822 85.7431L129.812 85.7331Z" fill="#041C42"/>
<path d="M125.33 85.7435C124.8 85.3641 123.739 86.2227 123.709 85.2143C123.679 84.0761 124.78 84.7051 125.33 84.7051C125.86 84.7051 126.91 84.136 126.94 85.1045C126.98 86.2726 125.82 85.3141 125.33 85.7435Z" fill="#041C42"/>
<path d="M120.868 85.6635C120.538 85.6635 120.208 85.6635 119.878 85.6635C119.507 85.6635 119.127 85.7334 119.147 85.1344C119.167 84.6252 119.467 84.6551 119.808 84.6551C120.508 84.6551 121.218 84.6651 121.918 84.6551C122.309 84.6551 122.529 84.725 122.529 85.1943C122.529 85.7134 122.198 85.6735 121.868 85.6735C121.538 85.6735 121.208 85.6735 120.878 85.6735L120.868 85.6635Z" fill="#041C42"/>
<path d="M116.376 85.7831C115.796 85.3638 114.746 86.2224 114.716 85.214C114.686 84.0858 115.786 84.7148 116.326 84.7048C116.857 84.7048 117.887 84.1257 117.917 85.1042C117.957 86.2823 116.787 85.2539 116.376 85.7831Z" fill="#041C42"/>
<path d="M111.975 84.645C112.375 84.9345 113.445 84.0859 113.425 85.1641C113.405 86.1725 112.395 85.4836 111.854 85.6434C111.514 85.7432 111.114 85.6434 110.744 85.6633C110.374 85.6733 110.114 85.6334 110.124 85.1442C110.124 84.645 110.424 84.645 110.774 84.645C111.144 84.645 111.524 84.645 111.995 84.645H111.975Z" fill="#041C42"/>
<path d="M107.333 85.6636C106.962 85.6636 106.592 85.6537 106.222 85.6636C105.832 85.6836 105.612 85.5937 105.622 85.1245C105.622 84.6153 105.942 84.6452 106.282 84.6452C106.982 84.6452 107.683 84.6552 108.383 84.6452C108.773 84.6353 108.983 84.7251 108.983 85.1844C108.983 85.6936 108.673 85.6636 108.333 85.6636C108.003 85.6636 107.673 85.6636 107.343 85.6636H107.333Z" fill="#041C42"/>
<path d="M102.811 85.7431C102.311 85.3138 101.17 86.2622 101.19 85.1141C101.21 84.1256 102.251 84.6947 102.781 84.7047C103.321 84.7047 104.421 84.0957 104.401 85.2039C104.381 86.2423 103.321 85.3537 102.811 85.7431Z" fill="#041C42"/>
<path d="M49.3995 78.1252C50.1098 78.1252 50.8101 78.1252 51.5203 78.1252C53.4111 78.1252 53.9513 78.904 53.4511 80.781C53.3111 81.3002 52.9309 81.2802 52.5908 81.2902C51.5103 81.3301 50.4199 81.3801 49.3495 81.3102C48.3891 81.2503 48.5392 81.8793 48.4791 82.4384C48.3991 83.2171 48.8693 83.0275 49.3395 82.9875C52.1906 82.7379 54.1314 84.3154 54.4115 87.081C54.7016 89.9165 52.9909 92.0531 50.1998 92.3926C48.9493 92.5423 47.7088 92.5124 46.4683 92.3426C44.5976 92.093 44.4976 91.9333 44.4976 90.0862C44.4976 88.6685 44.4976 88.6685 45.8481 89.0678C46.8585 89.3674 47.8789 89.5271 48.9293 89.3873C49.8097 89.2775 50.3799 88.8182 50.4599 87.8698C50.55 86.9312 50.1098 86.3821 49.2394 86.1026C48.4991 85.8629 47.7789 85.9129 47.0286 86.0626C45.3179 86.4121 44.7276 85.833 44.8877 84.1557C45.0378 82.5881 45.2078 81.0107 45.1778 79.4332C45.1578 78.285 45.588 77.9855 46.6384 78.0853C47.5488 78.1652 48.4691 78.1053 49.3795 78.1053L49.3995 78.1252Z" fill="#041C42"/>
<path d="M138.705 225.281C138.305 224.972 137.244 225.87 137.234 224.782C137.234 223.774 138.245 224.413 138.785 224.283C139.175 224.183 139.615 224.283 140.025 224.263C140.386 224.263 140.556 224.383 140.556 224.762C140.556 225.132 140.416 225.291 140.046 225.281C139.625 225.271 139.215 225.281 138.695 225.281H138.705Z" fill="#041C42"/>
<path d="M134.624 224.263C135.004 224.513 135.994 223.784 136.004 224.732C136.014 225.771 135.014 225.122 134.484 225.261C134.093 225.361 133.663 225.261 133.253 225.281C132.863 225.301 132.653 225.222 132.653 224.752C132.653 224.253 132.943 224.253 133.293 224.263C133.703 224.263 134.113 224.263 134.624 224.263Z" fill="#041C42"/>
<path d="M98.4091 224.263C98.8092 224.603 99.9497 223.654 99.8997 224.832C99.8597 225.811 98.8493 225.112 98.299 225.262C97.9189 225.371 97.4787 225.272 97.0686 225.282C96.7084 225.282 96.5583 225.142 96.5583 224.772C96.5583 224.403 96.7084 224.253 97.0686 224.263C97.4787 224.263 97.8889 224.263 98.3991 224.263H98.4091Z" fill="#041C42"/>
<path d="M93.5572 225.281C93.157 225.032 92.1766 225.761 92.1366 224.832C92.0966 223.764 93.127 224.413 93.6572 224.283C94.0474 224.183 94.4876 224.283 94.8977 224.263C95.3379 224.233 95.468 224.423 95.4579 224.842C95.4579 225.271 95.2078 225.291 94.8877 225.291C94.4676 225.291 94.0574 225.291 93.5472 225.291L93.5572 225.281Z" fill="#041C42"/>
<path d="M89.3054 225.282C88.8952 225.282 88.475 225.282 88.0649 225.282C87.7247 225.282 87.5347 225.182 87.5247 224.792C87.5247 224.423 87.6747 224.263 88.0249 224.263C88.7752 224.263 89.5155 224.263 90.2658 224.263C90.6659 224.263 90.996 224.243 90.966 224.822C90.946 225.352 90.6159 225.282 90.2958 225.282C89.9656 225.282 89.6355 225.282 89.3054 225.282Z" fill="#041C42"/>
<path d="M84.6235 225.282C84.1933 225.002 83.1329 225.801 83.1029 224.833C83.0629 223.724 84.1633 224.433 84.7335 224.283C85.1237 224.184 85.5538 224.283 85.974 224.264C86.3442 224.254 86.4742 224.413 86.4742 224.783C86.4742 225.152 86.3442 225.302 85.974 225.292C85.5638 225.272 85.1437 225.292 84.6335 225.292L84.6235 225.282Z" fill="#041C42"/>
<path d="M80.0919 225.281C79.6717 224.992 78.6113 225.821 78.6013 224.812C78.6013 223.744 79.6717 224.443 80.242 224.283C80.5421 224.193 80.8922 224.263 81.2224 224.263C81.5925 224.263 81.9627 224.203 81.9526 224.802C81.9326 225.421 81.5125 225.261 81.1723 225.281C80.8422 225.301 80.5121 225.281 80.0919 225.281Z" fill="#041C42"/>
<path d="M75.61 225.281C75.1898 224.952 74.0493 225.86 74.0694 224.732C74.0894 223.754 75.1298 224.433 75.69 224.293C76.0802 224.193 76.5203 224.283 76.9305 224.273C77.2806 224.273 77.4507 224.383 77.4507 224.772C77.4507 225.142 77.3206 225.301 76.9505 225.291C76.5403 225.281 76.1202 225.291 75.6 225.291L75.61 225.281Z" fill="#041C42"/>
<path d="M71.1083 225.282C70.6781 224.963 69.5577 225.841 69.5677 224.743C69.5677 223.744 70.6081 224.453 71.1583 224.284C71.4584 224.194 71.8086 224.254 72.1387 224.274C72.4788 224.294 72.899 224.144 72.929 224.753C72.949 225.352 72.5589 225.282 72.1987 225.282C71.8686 225.282 71.5385 225.282 71.1083 225.282Z" fill="#041C42"/>
<path d="M103.001 224.263C103.391 224.533 104.431 223.724 104.411 224.812C104.391 225.791 103.441 225.092 102.931 225.252C102.551 225.371 102.11 225.252 101.7 225.282C101.29 225.302 101.1 225.172 101.12 224.722C101.13 224.323 101.35 224.253 101.67 224.263C102.08 224.263 102.491 224.263 103.001 224.263Z" fill="#041C42"/>
<path d="M107.123 225.282C106.722 224.992 105.662 225.841 105.692 224.762C105.712 223.764 106.722 224.443 107.263 224.293C107.603 224.193 108.003 224.293 108.373 224.273C108.763 224.253 108.983 224.333 108.983 224.802C108.983 225.311 108.683 225.291 108.333 225.291C107.963 225.291 107.593 225.291 107.123 225.291V225.282Z" fill="#041C42"/>
<path d="M111.864 225.402C111.274 224.982 110.214 225.841 110.184 224.833C110.154 223.704 111.264 224.323 111.804 224.323C112.335 224.323 113.385 223.744 113.415 224.723C113.455 225.911 112.285 224.873 111.864 225.402Z" fill="#041C42"/>
<path d="M116.476 224.263C116.866 224.562 117.927 223.694 117.917 224.772C117.917 225.77 116.906 225.122 116.366 225.261C115.976 225.361 115.546 225.261 115.136 225.281C114.766 225.291 114.635 225.141 114.635 224.772C114.635 224.403 114.766 224.253 115.136 224.263C115.546 224.273 115.956 224.263 116.466 224.263H116.476Z" fill="#041C42"/>
<path d="M120.618 225.282C120.228 225.002 119.177 225.831 119.197 224.733C119.217 223.764 120.178 224.443 120.688 224.293C121.068 224.184 121.508 224.293 121.928 224.263C122.339 224.243 122.529 224.383 122.519 224.823C122.509 225.232 122.289 225.292 121.958 225.282C121.548 225.282 121.128 225.282 120.618 225.282Z" fill="#041C42"/>
<path d="M125.17 225.281C124.769 224.982 123.709 225.86 123.709 224.782C123.709 223.784 124.719 224.423 125.26 224.283C125.65 224.183 126.08 224.283 126.5 224.263C126.86 224.253 127.01 224.383 127.02 224.762C127.02 225.132 126.89 225.291 126.52 225.281C126.11 225.261 125.69 225.281 125.18 225.281H125.17Z" fill="#041C42"/>
<path d="M129.621 225.282C129.231 225.002 128.181 225.831 128.221 224.723C128.251 223.764 129.201 224.433 129.711 224.283C130.092 224.174 130.532 224.283 130.942 224.263C131.362 224.243 131.532 224.393 131.512 224.833C131.502 225.242 131.272 225.292 130.952 225.282C130.542 225.282 130.132 225.282 129.621 225.282Z" fill="#041C42"/>
<path d="M48.9396 221.607C48.5695 221.927 48.3794 222.086 48.1993 222.246C46.4486 223.784 46.4786 223.764 44.9981 221.957C44.5379 221.397 44.5279 221.108 45.1181 220.689C45.9884 220.06 46.9088 219.431 47.6191 218.642C48.8196 217.304 50.3002 217.194 51.9208 217.274C52.5511 217.304 52.8012 217.464 52.7911 218.123C52.7711 222.316 52.7711 226.519 52.7911 230.713C52.7911 231.282 52.6211 231.491 52.0208 231.531C48.9396 231.731 48.9396 231.751 48.9396 228.666C48.9396 226.39 48.9396 224.113 48.9396 221.607Z" fill="#041C42"/>
<path d="M134.523 119.549C134.934 119.839 136.014 118.99 136.004 120.068C135.994 121.097 134.964 120.388 134.413 120.548C134.073 120.648 133.673 120.558 133.303 120.568C132.943 120.568 132.663 120.548 132.673 120.048C132.673 119.559 132.963 119.539 133.323 119.539C133.693 119.539 134.063 119.539 134.533 119.539L134.523 119.549Z" fill="#041C42"/>
<path d="M138.695 120.568C138.305 120.268 137.234 121.157 137.234 120.059C137.234 119.04 138.255 119.709 138.795 119.569C139.175 119.47 139.615 119.559 140.025 119.55C140.376 119.55 140.546 119.689 140.556 120.059C140.556 120.428 140.386 120.578 140.035 120.568C139.625 120.568 139.215 120.568 138.695 120.568Z" fill="#041C42"/>
<path d="M98.2891 120.638C97.7689 120.249 96.6284 121.127 96.6485 120.009C96.6685 119.051 97.7289 119.58 98.2691 119.59C98.8293 119.59 99.9298 119.001 99.8997 120.099C99.8797 121.098 98.8093 120.269 98.2891 120.628V120.638Z" fill="#041C42"/>
<path d="M93.7874 120.638C93.2572 120.259 92.1267 121.127 92.1467 120.019C92.1668 119.061 93.2172 119.59 93.7574 119.6C94.3076 119.6 95.408 119.011 95.388 120.109C95.368 121.117 94.3076 120.279 93.7874 120.638Z" fill="#041C42"/>
<path d="M89.2454 119.55C89.6155 119.55 89.9857 119.55 90.3558 119.55C90.736 119.54 90.9661 119.62 90.9661 120.089C90.9661 120.588 90.6459 120.568 90.3158 120.568C89.6155 120.568 88.9253 120.568 88.225 120.568C87.8949 120.568 87.5647 120.598 87.5347 120.099C87.5147 119.53 87.8849 119.55 88.265 119.55C88.5951 119.55 88.9253 119.55 89.2454 119.55Z" fill="#041C42"/>
<path d="M71.0381 120.568C70.6379 120.269 69.5475 121.148 69.5775 120.039C69.6075 119.031 70.6279 119.72 71.1882 119.56C71.5283 119.46 71.9284 119.54 72.2986 119.54C72.6587 119.54 72.9388 119.59 72.9288 120.069C72.9188 120.578 72.5887 120.548 72.2486 120.548C71.8784 120.548 71.4983 120.548 71.0281 120.548L71.0381 120.568Z" fill="#041C42"/>
<path d="M75.8 120.568C75.3898 120.568 74.9796 120.568 74.5695 120.568C74.2494 120.568 74.0193 120.508 73.9993 120.109C73.9792 119.65 74.2093 119.55 74.5995 119.55C75.3398 119.55 76.0801 119.55 76.8204 119.55C77.1905 119.55 77.4506 119.6 77.4406 120.079C77.4406 120.578 77.1205 120.568 76.7804 120.568C76.4502 120.568 76.1201 120.568 75.79 120.568H75.8Z" fill="#041C42"/>
<path d="M80.242 120.638C79.7018 120.299 78.6314 121.078 78.6114 120.109C78.5913 119.041 79.7018 119.6 80.262 119.6C80.8022 119.6 81.8526 119.041 81.8726 120.019C81.8926 121.128 80.7522 120.249 80.242 120.638Z" fill="#041C42"/>
<path d="M84.8036 120.568C84.3834 120.568 83.9732 120.568 83.5531 120.568C83.2029 120.568 83.0229 120.428 83.0329 120.049C83.0329 119.66 83.253 119.55 83.5831 119.56C84.3334 119.56 85.0837 119.56 85.834 119.56C86.2041 119.56 86.4742 119.6 86.4642 120.089C86.4642 120.598 86.1441 120.578 85.804 120.578C85.4738 120.578 85.1337 120.578 84.8036 120.578V120.568Z" fill="#041C42"/>
<path d="M102.761 120.638C102.261 120.269 101.18 121.128 101.2 120.049C101.22 119.031 102.261 119.6 102.791 119.6C103.331 119.6 104.381 119.041 104.401 120.019C104.422 121.147 103.281 120.239 102.771 120.638H102.761Z" fill="#041C42"/>
<path d="M107.303 120.638C106.782 120.279 105.702 121.118 105.702 120.099C105.702 119.041 106.792 119.61 107.363 119.6C107.883 119.59 108.923 119.071 108.903 120.089C108.873 121.138 107.823 120.269 107.313 120.638H107.303Z" fill="#041C42"/>
<path d="M111.904 120.568C111.484 120.568 111.074 120.568 110.654 120.568C110.304 120.568 110.124 120.458 110.124 120.069C110.124 119.689 110.294 119.55 110.644 119.56C111.354 119.56 112.055 119.56 112.765 119.56C113.165 119.56 113.515 119.56 113.475 120.129C113.445 120.648 113.085 120.568 112.775 120.578C112.485 120.578 112.195 120.578 111.904 120.578V120.568Z" fill="#041C42"/>
<path d="M129.772 120.628C129.271 120.288 128.221 121.107 128.231 120.019C128.231 119.05 129.221 119.59 129.712 119.59C130.292 119.59 131.392 119.09 131.422 120.029C131.452 121.097 130.302 120.259 129.772 120.628Z" fill="#041C42"/>
<path d="M116.516 119.55C116.906 119.799 117.897 119.07 117.917 120.009C117.937 121.057 116.926 120.398 116.396 120.548C116.046 120.638 115.656 120.558 115.286 120.568C114.926 120.568 114.646 120.538 114.656 120.049C114.656 119.55 114.966 119.55 115.316 119.55C115.686 119.55 116.056 119.55 116.526 119.55H116.516Z" fill="#041C42"/>
<path d="M120.658 120.568C120.258 120.288 119.197 121.117 119.217 120.029C119.237 119.09 120.198 119.719 120.718 119.579C121.068 119.479 121.458 119.559 121.838 119.559C122.178 119.559 122.499 119.549 122.509 120.049C122.519 120.538 122.249 120.588 121.878 120.578C121.508 120.568 121.128 120.578 120.658 120.578V120.568Z" fill="#041C42"/>
<path d="M125.33 120.678C124.76 120.278 123.679 121.117 123.719 120.029C123.749 119.02 124.79 119.6 125.33 119.6C125.87 119.6 126.93 119.04 126.94 120.029C126.94 121.187 125.78 120.169 125.34 120.678H125.33Z" fill="#041C42"/>
<path d="M51.5503 127.258C51.3002 127.258 51.0501 127.228 50.8 127.258C49.9397 127.377 49.6396 127.048 49.6596 126.159C49.7096 124.422 49.9897 124.482 48.0089 124.482C47.3387 124.482 46.6684 124.532 46.0081 124.472C45.3379 124.402 44.3175 124.871 44.0774 124.182C43.7672 123.304 43.6372 122.166 44.2074 121.287C45.9381 118.651 47.7488 116.055 49.5495 113.469C50.1198 112.651 51.0101 113.06 51.7504 113.05C53.6912 113.01 53.4211 112.86 53.4411 114.668C53.4511 116.624 53.4611 118.571 53.4411 120.528C53.4411 121.167 53.4411 121.716 54.3214 121.597C54.6115 121.557 54.9417 121.577 54.9617 121.986C54.9917 122.565 54.9617 123.154 54.9917 123.733C55.0617 124.722 54.3014 124.412 53.7912 124.532C53.251 124.662 53.4511 125.131 53.4411 125.46C53.361 127.268 53.371 127.268 51.5303 127.268L51.5503 127.258Z" fill="#041C42"/>
<path d="M49.6987 117.952C49.6987 118.691 49.6987 120.977 49.6987 121.467H47.4287C48.1687 120.318 48.8787 119.22 49.6987 117.952Z" fill="#87BA4B"/>
</g>
<defs>
<clipPath id="clip0_707_4733">
<rect width="320" height="298" fill="white"/>
</clipPath>
</defs>
</svg>
