<svg viewBox="0 0 320 298" fill="none" xmlns="http://www.w3.org/2000/svg">
<g clip-path="url(#clip0_707_5883)">
<rect width="320" height="298" fill="#F6C254"/>
<path d="M320 0V155C320 155 318.871 155.295 318.291 155.295C315.42 155.305 312.549 155.315 309.668 155.295C307.817 155.285 307.477 154.946 307.467 153.098C307.447 146.983 307.467 140.869 307.467 134.765C307.467 120.877 307.467 106.99 307.467 93.1033C307.467 92.2741 307.537 91.4549 307.267 90.6356C306.596 88.5975 305.146 87.4786 303.005 87.4586C297.553 87.4286 292.101 87.4586 286.639 87.4486C286.099 87.4486 285.558 87.4486 285.018 87.3986C284.158 87.3087 283.668 86.8292 283.528 85.98C283.298 84.5813 283.217 83.1726 283.077 81.7639C282.997 80.9047 283.468 80.2753 283.998 79.6658C285.488 77.9374 286.969 76.1891 288.5 74.4807C289.12 73.7913 289.13 73.2418 288.5 72.5425C286.979 70.834 285.508 69.0757 283.998 67.3673C283.288 66.558 283.007 65.7088 283.117 64.6298C283.368 62.3619 283.548 60.0741 283.818 57.8162C283.958 56.6672 283.518 56.2576 282.497 56.0278C280.306 55.5283 278.136 54.9288 275.945 54.4193C274.724 54.1396 273.854 53.4902 273.234 52.4112C272.223 50.6428 271.183 48.8944 270.133 47.1461C269.252 45.6774 269.272 45.6774 267.612 46.3468C265.601 47.1561 263.62 48.0153 261.629 48.8645C260.439 49.374 259.338 49.384 258.148 48.8345C256.187 47.9154 254.156 47.1461 252.166 46.3069C250.705 45.6874 250.645 45.6974 249.815 47.1061C248.784 48.8645 247.704 50.5929 246.714 52.3812C246.103 53.4802 245.243 54.1196 244.033 54.4093C241.762 54.9488 239.511 55.5583 237.24 56.0878C236.29 56.3076 235.99 56.7571 236.09 57.7462C236.33 60.0141 236.53 62.292 236.79 64.5699C236.92 65.6988 236.64 66.578 235.9 67.4272C234.419 69.1156 232.978 70.844 231.468 72.5025C230.738 73.3018 230.828 73.8213 231.498 74.6005C232.998 76.3289 234.499 78.0473 236.01 79.7757C236.65 80.515 236.94 81.3143 236.8 82.2934C236.63 83.4423 236.61 84.6112 236.41 85.7602C236.21 86.969 235.829 87.4186 234.629 87.4286C229.587 87.4986 224.555 87.5085 219.513 87.4286C218.703 87.4186 217.993 87.029 217.292 86.6593C206.788 81.2144 194.554 82.713 185.861 90.7555C181.339 94.9416 178.518 100.177 177.707 106.361C176.587 114.933 179.248 122.256 185.16 128.46C185.67 129 186.331 129.4 186.761 130.029C187.211 130.678 187.041 131.128 186.251 131.278C185.43 131.438 184.58 131.428 183.76 131.348C179.148 130.908 174.526 131.148 169.904 131.138C164.202 131.128 158.51 131.368 152.808 131.428C148.576 131.478 144.355 131.997 140.123 132.287C136.602 132.527 133.08 132.796 129.559 133.096C121.106 133.805 112.693 134.854 104.35 136.463C98.5074 137.582 92.7152 138.931 86.973 140.499C86.6129 140.599 86.2427 140.669 85.8826 140.769C84.8822 141.049 84.1719 140.719 83.7718 139.76C83.2916 138.611 82.7014 137.502 82.2012 136.363C81.791 135.434 81.8611 134.605 82.5613 133.825C82.9715 133.366 83.3816 132.886 83.7218 132.357C84.352 131.378 84.1419 130.559 83.1416 129.949C81.621 129.01 80.1604 127.951 78.5698 127.152C76.1789 125.953 74.8684 123.735 73.2778 121.787C71.7472 119.908 69.8565 118.52 67.8057 117.311C66.2351 116.382 64.4945 116.252 62.7238 116.502C61.2132 116.711 60.3329 117.78 59.6626 119.009C58.3521 121.437 58.002 124.134 57.7619 126.822C57.4618 130.049 57.4118 133.296 57.5818 136.533C57.7919 140.549 58.112 144.565 58.6022 148.562C58.7023 149.421 58.5522 150.13 57.892 150.7C52.83 155.066 48.9586 160.421 45.3672 165.986C40.8255 173.039 37.0641 180.482 34.4631 188.475C34.0229 189.823 33.7028 191.192 33.2126 192.521C33.0225 193.04 33.0325 193.59 33.0825 194.129C33.4327 198.435 33.5227 202.751 33.7328 207.057C33.9429 211.203 34.1329 215.35 34.333 219.496C34.5431 223.852 34.6531 228.208 35.0033 232.554C35.1633 234.502 35.1833 236.45 35.2434 238.398C35.3934 242.754 35.6335 247.11 35.8436 251.456C36.1337 257.381 36.3238 263.315 36.7439 269.24C36.884 271.228 36.944 273.226 37.004 275.214C37.1341 279.66 37.4242 284.086 37.6243 288.532C37.7243 290.809 37.6643 293.097 37.9744 295.365C38.1945 296.964 37.6843 297.503 36.0437 297.503C24.5493 297.533 13.065 297.523 1.57059 297.503C0.980366 297.503 9.31323e-10 297 9.31323e-10 297C9.31323e-10 198.532 0 98.4584 0 0C105.71 0 214.28 0 320 0Z" fill="#A1C9FF"/>
<path d="M0 297C11.9946 297 24.1491 297.034 36.1437 297.064C37.3141 297.064 37.6643 296.864 37.6042 295.605C36.8039 279.87 36.0737 264.134 35.3234 248.399C34.6631 234.452 33.9929 220.495 33.3226 206.548C33.1225 202.442 32.9825 198.326 32.6524 194.219C32.5223 192.551 33.1926 191.162 33.6527 189.714C38.1945 175.607 45.3272 162.988 55.571 152.198C55.8812 151.869 56.1713 151.459 56.5614 151.259C58.3721 150.3 58.2821 148.802 58.062 147.053C57.2217 140.359 56.7915 133.646 57.3617 126.902C57.5518 124.664 57.8619 122.446 58.6022 120.308C59.9927 116.272 62.6137 114.973 66.6953 116.332C69.5564 117.281 71.9273 119.109 73.5779 121.497C76.0388 125.054 79.5401 127.172 83.0715 129.35C84.9222 130.489 85.1823 131.628 83.6417 133.116C82.2412 134.475 82.1111 135.674 83.1315 137.252C83.7718 138.251 83.9218 139.87 84.7721 140.349C85.6425 140.839 87.023 139.93 88.1734 139.62C99.7578 136.533 111.522 134.385 123.457 133.146C130.91 132.367 138.382 131.867 145.855 131.378C159.52 130.489 173.196 130.489 186.911 130.858C186.991 130.479 186.631 130.349 186.421 130.159C178.428 122.916 175.266 113.964 177.877 103.504C180.488 93.0135 187.511 86.4596 197.945 83.7521C204.728 81.9938 211.32 82.9029 217.533 86.1898C218.443 86.6794 219.343 86.8792 220.374 86.8792C225.165 86.8392 229.947 86.8392 234.739 86.8792C235.609 86.8792 236.03 86.7294 236.02 85.7403C236.009 84.7512 236.06 83.7221 236.31 82.773C236.67 81.3843 236.15 80.4352 235.229 79.4661C233.639 77.7777 232.178 75.9494 230.617 74.221C230.087 73.6315 230.107 73.2519 230.627 72.6724C232.408 70.7043 234.129 68.6662 235.899 66.688C236.35 66.1785 236.5 65.6789 236.42 64.9996C236.1 62.2821 235.869 59.5446 235.539 56.8272C235.449 56.0779 235.769 55.908 236.36 55.7682C239.061 55.1188 241.762 54.4094 244.473 53.78C245.223 53.6002 245.683 53.2405 246.063 52.5711C247.344 50.2933 248.724 48.0653 250.005 45.7874C250.385 45.1181 250.725 45.0881 251.365 45.3678C253.916 46.4868 256.487 47.5358 259.038 48.6448C259.689 48.9245 260.229 48.9445 260.909 48.6448C263.41 47.5458 265.971 46.5667 268.472 45.4478C269.242 45.0981 269.592 45.148 270.022 45.9073C271.283 48.1552 272.643 50.3432 273.904 52.5811C274.284 53.2505 274.744 53.6102 275.505 53.79C278.216 54.4194 280.907 55.1387 283.618 55.7782C284.268 55.928 284.498 56.1878 284.418 56.8671C284.098 59.5846 283.848 62.3121 283.518 65.0395C283.438 65.7189 283.608 66.2184 284.058 66.718C285.798 68.6761 287.479 70.6843 289.24 72.6225C289.86 73.3018 289.81 73.7215 289.21 74.3709C287.449 76.2991 285.768 78.3072 284.028 80.2654C283.578 80.7749 283.428 81.2844 283.528 81.9638C283.718 83.2326 283.888 84.5214 283.928 85.8002C283.948 86.7094 284.308 86.8992 285.128 86.8892C290.75 86.8592 296.372 86.9991 301.985 86.8293C306.016 86.7094 308.007 89.4868 307.987 92.7837C307.887 112.995 307.947 133.196 307.907 153.407C307.907 154.516 308.137 154.866 309.307 154.836C312.849 154.746 316.459 154.806 320 154.806V155.805C319.47 156.335 318.711 156.295 318.051 156.295C315.22 156.305 312.389 156.325 309.557 156.295C308.647 156.285 307.967 156.494 307.477 157.324C306.976 158.173 306.146 158.682 305.326 159.172C302.575 160.81 299.644 162.139 296.803 163.608C291.19 166.515 285.578 169.442 279.926 172.27C278.426 173.019 276.885 173.279 275.224 173.279C246.333 173.269 217.452 173.269 188.562 173.279C185.55 173.279 186.021 172.999 184.96 175.767C184.5 176.965 184.1 178.184 183.179 179.163C180.348 182.181 175.637 181.311 174.066 177.475C173.846 176.935 173.856 176.146 173.036 176.076C171.955 175.976 170.885 176.136 169.844 176.466C169.594 176.546 169.554 176.865 169.554 177.115C169.524 179.023 169.374 180.932 170.135 182.77C171.525 186.157 174.566 188.235 178.318 188.235C200.586 188.245 222.855 188.235 245.123 188.235C269.222 188.235 293.321 188.235 317.42 188.235C318.271 188.235 319.27 188.045 320 188.724V190C319.48 190.53 318.721 190.223 318.051 190.223C315.47 190.223 312.889 190.223 310.318 190.223C308.507 190.223 308.437 190.293 308.437 192.131C308.437 210.165 308.437 228.188 308.437 246.221C308.437 262.086 308.437 277.961 308.437 293.827C308.437 294.196 308.437 294.576 308.437 294.946C308.467 296.344 308.597 296.474 310.068 296.484C312.729 296.494 315.339 297 318 297C318.67 297 320 297 320 297V298C213.78 298 106.22 298 0 298V297Z" fill="#041C42"/>
<path d="M320 188.764C272.952 188.764 225.826 188.764 178.778 188.764C172.756 188.764 169.014 185.068 169.044 179.073C169.044 177.975 168.544 176.496 169.284 175.866C169.925 175.317 171.365 175.747 172.436 175.597C173.676 175.427 174.206 175.747 174.486 177.075C174.927 179.123 176.837 180.462 178.848 180.542C181.089 180.632 182.97 179.483 183.79 177.465C184.27 176.276 184.78 175.077 185.1 173.848C185.351 172.899 185.861 172.769 186.711 172.779C191.703 172.809 196.705 172.799 201.697 172.799C226.346 172.799 250.995 172.799 275.645 172.809C277.135 172.809 278.486 172.52 279.816 171.82C287.919 167.614 296.053 163.448 304.186 159.282C305.576 158.573 306.907 157.813 307.507 156.255C307.737 155.645 308.247 155.835 308.677 155.835C312.429 155.825 316.249 155.835 320 155.835V188.764Z" fill="#CAE0FF"/>
<path d="M320 297C316.419 297 312.759 296.994 309.187 297.074C308.127 297.094 307.907 296.794 307.907 295.775C307.937 262.436 307.927 229.107 307.927 195.768C307.927 194.109 307.967 192.441 307.907 190.782C307.877 189.983 308.097 189.733 308.927 189.743C312.589 189.793 316.339 189.763 320 189.763V297Z" fill="#A1C9FF"/>
<path d="M198.005 243.393C198.005 225.98 198.015 208.556 197.975 191.142C197.975 190.003 198.265 189.733 199.396 189.733C231.778 189.763 264.17 189.763 296.553 189.733C297.703 189.733 297.963 190.033 297.963 191.152C297.933 225.99 297.933 260.827 297.963 295.665C297.963 296.804 297.673 297.074 296.543 297.074C264.16 297.044 231.768 297.044 199.386 297.074C198.235 297.074 197.975 296.774 197.975 295.655C198.015 278.241 198.005 260.817 198.005 243.403V243.393Z" fill="#A1C9FF"/>
<path d="M188.011 243.393C188.011 260.817 188.001 278.231 188.041 295.655C188.041 296.784 187.771 297.073 186.631 297.073C165.063 297.033 143.504 297.043 121.936 297.073C121.016 297.073 120.506 296.854 120.035 295.984C117.645 291.618 113.633 289.331 109.041 288.012C107.611 287.602 107.561 286.943 107.621 285.754C108.451 268.57 109.251 251.376 110.052 234.192C110.402 226.759 110.602 219.316 111.142 211.903C111.692 204.36 114.153 197.486 119.285 191.721C121.546 189.184 124.507 187.655 127.318 185.897C131.86 183.059 136.332 180.092 141.574 178.634C146.245 177.335 151.047 176.925 155.829 176.316C159.55 175.846 163.272 175.926 166.993 175.756C167.804 175.716 168.054 175.916 168.054 176.755C168.044 178.454 167.894 180.152 168.254 181.851C169.214 186.386 173.216 189.723 177.867 189.763C180.819 189.793 183.78 189.813 186.731 189.743C187.751 189.713 188.041 189.963 188.031 191.022C187.991 208.486 188.001 225.95 188.001 243.403L188.011 243.393Z" fill="#A1C9FF"/>
<path d="M33.6526 193.77C43.8465 196.288 53.9203 198.785 63.9841 201.283C78.9798 205 93.9655 208.736 108.961 212.433C109.902 212.662 110.092 213.032 110.042 213.931C109.201 231.325 108.401 248.719 107.591 266.123C107.271 272.936 106.95 279.74 106.66 286.554C106.63 287.373 106.38 287.573 105.56 287.523C98.3272 287.103 91.1044 286.704 83.8617 286.374C82.8813 286.334 82.7013 285.984 82.6612 285.155C82.2111 276.273 81.3007 267.432 79.8202 258.65C78.1095 248.449 75.9487 238.359 71.7871 228.817C70.6567 226.23 69.3662 223.712 67.3955 221.634C67.0853 221.304 66.7552 220.985 66.3951 220.695C64.1242 218.907 62.1935 219.356 61.063 222.004C59.8126 224.941 59.4124 228.088 59.1223 231.225C57.8218 245.132 58.332 259.049 59.0223 272.956C59.2724 278.062 59.6025 283.167 59.9726 288.262C60.0527 289.381 59.3724 289.031 58.8922 289.011C54.0304 288.802 49.1685 288.572 44.2967 288.352C42.546 288.272 40.8054 288.162 39.0547 288.132C38.3644 288.122 38.1443 287.912 38.1143 287.203C37.6241 276.493 37.114 265.783 36.5938 255.063C35.9635 242.195 35.3233 229.327 34.693 216.459C34.3429 209.236 33.9928 202.012 33.6526 194.789C33.6426 194.499 33.6526 194.21 33.6526 193.78V193.77Z" fill="#CAE0FF"/>
<path d="M58.4622 150.9C58.7923 152.878 59.1024 154.586 59.3325 156.305C59.4225 156.974 59.6826 157.134 60.3029 157.044C68.3459 155.845 76.2589 154.226 83.5217 150.36C84.6121 149.781 85.6425 149.071 86.7829 148.362C87.6432 150.69 88.5136 153.008 89.3439 155.345C89.614 156.125 89.8441 156.434 90.8245 156.155C100.028 153.577 109.301 151.289 118.735 149.741C128.359 148.172 138.042 147.323 147.786 147.013C148.416 146.993 148.726 147.083 148.816 147.832C149.847 156.824 150.907 165.816 151.978 174.807C152.058 175.477 151.948 175.756 151.187 175.816C142.664 176.516 134.941 179.403 127.939 184.288C125.087 186.277 121.836 187.685 119.335 190.213C114.413 195.178 111.872 201.303 110.572 208.036C110.432 208.766 110.322 209.515 110.282 210.254C110.232 211.193 109.962 211.483 108.931 211.213C100.758 209.135 92.5751 207.117 84.392 205.089C68.1458 201.053 51.9097 197.027 35.6635 193C33.8828 192.561 33.8228 192.561 34.363 190.802C38.8247 176.426 46.0575 163.648 56.4714 152.708C57.0416 152.118 57.6819 151.599 58.4622 150.89V150.9Z" fill="#A1C9FF"/>
<path d="M273.114 95.9511C273.724 94.3725 274.454 93.2536 276.265 92.9439C278.676 92.5342 281.017 91.755 283.418 91.2354C284.338 91.0356 284.588 90.636 284.338 89.7968C284.288 89.6369 284.308 89.4671 284.258 89.3072C283.958 88.1583 284.378 87.8486 285.548 87.8686C291.13 87.9285 296.703 87.8886 302.285 87.8985C305.436 87.8985 306.926 89.4071 306.926 92.5642C306.926 112.805 306.916 133.057 306.946 153.298C306.946 155.396 306.176 156.824 304.285 157.794C295.982 162.08 287.709 166.416 279.426 170.731C278.496 171.221 277.495 171.491 276.435 171.491C246.504 171.491 216.572 171.491 186.641 171.491C186.471 171.491 186.311 171.471 186.141 171.461C186.141 170.282 186.621 169.712 187.891 169.652C189.632 169.583 191.363 169.313 193.043 168.803C193.513 168.653 193.994 168.494 194.424 168.254C195.524 167.634 195.534 166.965 194.424 166.366C192.843 165.496 191.072 165.157 189.322 164.807C189.082 164.757 188.852 164.717 188.552 164.657C188.722 163.958 189.262 164.128 189.652 164.108C191.353 164.008 193.053 163.888 194.694 163.378C195.274 163.198 196.024 163.099 196.044 162.309C196.064 161.58 195.394 161.32 194.844 161.031C193.693 160.421 192.413 160.191 191.173 159.852C190.902 159.782 190.582 159.822 190.392 159.502C190.702 159.062 191.213 158.992 191.653 158.803C198.095 156.055 204.538 153.288 211 150.58C211.78 150.251 212.02 149.851 212.01 149.022C211.96 144.945 212.01 140.869 211.97 136.803C211.97 136.114 212.13 135.804 212.841 135.594C215.312 134.865 217.613 133.746 219.973 132.207V133.616C219.973 138.352 219.993 143.097 219.953 147.833C219.953 148.632 220.154 148.872 220.974 148.872C246.614 148.852 272.263 148.852 297.903 148.872C298.723 148.872 298.933 148.642 298.933 147.833C298.913 130.869 298.903 113.914 298.933 96.9501C298.933 95.9411 298.493 95.9511 297.743 95.9511C290 95.971 282.257 95.961 274.514 95.961H273.084L273.114 95.9511Z" fill="#F6C254"/>
<path d="M259.438 147.842C247.114 147.842 234.789 147.812 222.474 147.882C221.154 147.882 220.944 147.493 220.964 146.304C221.034 141.728 221.014 137.162 220.974 132.586C220.974 131.807 221.204 131.338 221.814 130.828C229.277 124.604 232.728 116.681 231.778 106.96C231.698 106.131 231.868 105.911 232.718 105.921C254.116 105.941 275.515 105.941 296.913 105.921C297.703 105.921 297.963 106.101 297.963 106.94C297.933 120.248 297.933 133.546 297.963 146.853C297.963 147.842 297.543 147.872 296.793 147.872C284.348 147.852 271.893 147.862 259.448 147.862L259.438 147.842Z" fill="#F6C254"/>
<path d="M236.82 89.237C237.06 86.6394 237.24 84.0418 237.57 81.4542C237.66 80.7748 237.48 80.3852 237.07 79.9256C235.329 77.9774 233.639 75.9893 231.898 74.0411C231.488 73.5815 231.588 73.3018 231.958 72.8922C233.579 71.0639 235.059 69.0757 236.82 67.3973C238.12 66.1584 237.43 64.8496 237.39 63.5908C237.33 61.6526 236.98 59.7344 236.75 57.8062C236.67 57.1268 237.01 56.8871 237.65 56.7372C240.151 56.1477 242.632 55.4484 245.143 54.8689C245.863 54.6991 246.313 54.3694 246.674 53.75C247.884 51.6719 249.155 49.6238 250.335 47.5258C250.735 46.8264 251.055 46.5866 251.886 46.9563C254.196 47.9853 256.577 48.8745 258.888 49.9035C259.639 50.2432 260.239 50.2632 260.999 49.9235C263.31 48.8945 265.681 47.9953 268.002 46.9763C268.772 46.6366 269.162 46.7465 269.572 47.4958C270.713 49.5639 271.953 51.582 273.134 53.6401C273.504 54.2895 273.974 54.6891 274.744 54.8589C277.215 55.4284 279.646 56.1377 282.117 56.6872C283.117 56.907 283.247 57.3366 283.117 58.2558C282.777 60.8334 282.547 63.431 282.267 66.0186C282.227 66.3483 282.407 66.568 282.597 66.7878C284.318 68.756 286.009 70.7442 287.769 72.6724C288.319 73.2818 288.429 73.6215 287.809 74.2909C286.029 76.2091 284.328 78.1872 282.637 80.1854C281.797 81.1745 282.487 82.3434 282.527 83.3924C282.597 85.3306 282.937 87.2488 283.167 89.177C283.247 89.8564 282.927 90.1061 282.277 90.256C279.736 90.8554 277.215 91.5548 274.664 92.1443C273.934 92.3141 273.504 92.6937 273.154 93.3032C271.953 95.3912 270.703 97.4493 269.532 99.5474C269.142 100.247 268.782 100.347 268.052 100.027C265.771 99.0278 263.43 98.1587 261.159 97.1396C260.359 96.7799 259.709 96.73 258.928 97.0797C256.687 98.0687 254.407 98.9779 252.166 99.967C251.305 100.347 250.795 100.327 250.285 99.3875C249.135 97.2795 247.834 95.2414 246.624 93.1633C246.283 92.5838 245.853 92.2841 245.183 92.1243C242.642 91.5248 240.111 90.8355 237.57 90.226C236.97 90.0862 236.69 89.8264 236.82 89.227V89.237Z" fill="#004079"/>
<path d="M82.0713 290.28C82.0713 292.278 82.0513 294.267 82.0813 296.265C82.0913 296.844 81.9613 297.064 81.3411 297.054C78.8401 297.024 76.3492 297.044 73.8482 297.044C73.4681 297.044 73.1479 297.064 72.9779 296.584C72.0075 293.847 69.6966 292.508 67.3157 291.279C65.6551 290.42 63.9044 289.761 62.0737 289.331C61.3635 289.161 61.0834 288.872 61.0234 288.112C60.4531 281.778 60.133 275.424 59.8729 269.07C59.5028 259.928 59.3927 250.787 59.6728 241.635C59.8429 235.951 60.093 230.256 61.3635 224.671C61.5836 223.702 61.8837 222.743 62.3739 221.864C63.1041 220.555 63.9945 220.315 65.255 221.145C66.4654 221.934 67.3057 223.083 68.066 224.272C70.737 228.478 72.4477 233.103 73.8982 237.829C77.0594 248.099 78.8701 258.64 80.1306 269.29C80.9609 276.263 81.4711 283.267 82.0713 290.28Z" fill="#A1C9FF"/>
<path d="M195.204 162.399C192.863 163.218 190.682 163.109 188.532 163.129C184.41 163.168 180.298 162.999 176.187 162.669C175.827 162.639 175.297 162.329 175.166 162.989C175.026 163.738 175.667 163.618 176.067 163.668C181.419 164.417 186.731 165.376 191.993 166.575C192.743 166.745 193.513 166.895 194.294 167.345C193.083 168.144 191.803 168.114 190.602 168.264C182.859 169.203 175.076 169.233 167.293 168.933C166.943 168.923 166.393 168.633 166.353 169.353C166.313 170.012 166.853 169.912 167.233 169.942C171.505 170.272 175.767 170.662 179.968 171.531C180.498 171.641 181.029 171.76 181.529 171.94C181.889 172.07 182.459 172.02 182.469 172.58C182.469 173.099 182.029 173.329 181.609 173.539C180.198 174.228 178.658 174.438 177.127 174.478C169.394 174.698 161.651 174.838 153.908 175.037C153.208 175.057 153.028 174.828 152.948 174.158C152.158 167.564 151.327 160.971 150.517 154.377C150.237 152.069 149.997 149.751 149.677 147.453C149.587 146.784 149.597 146.494 150.407 146.494C161.811 146.514 173.206 145.795 184.61 146.354C187.761 146.504 190.922 146.724 194.034 147.323C194.404 147.393 194.764 147.483 195.124 147.593C195.394 147.673 195.754 147.723 195.744 148.092C195.744 148.452 195.394 148.492 195.124 148.592C193.023 149.311 190.822 149.521 188.652 149.821C184.69 150.37 180.719 150.69 176.737 151.04C176.367 151.07 175.717 150.79 175.767 151.609C175.817 152.388 176.437 152.069 176.807 152.089C181.959 152.398 187.111 152.638 192.193 153.567C193.123 153.737 194.044 154.037 194.954 154.307C195.404 154.437 195.894 154.686 195.904 155.176C195.904 155.685 195.364 155.885 194.944 156.035C192.803 156.804 190.552 156.944 188.311 157.054C184.53 157.254 180.739 157.234 176.957 157.104C176.637 157.094 176.087 156.764 175.987 157.474C175.887 158.203 176.487 158.133 176.887 158.203C181.839 159.042 186.801 159.862 191.683 161.06C192.823 161.34 194.014 161.53 195.214 162.389L195.204 162.399Z" fill="#CAE0FF"/>
<path d="M306.927 243.394C306.927 260.847 306.927 278.311 306.947 295.765C306.947 296.784 306.747 297.114 305.676 297.064C303.725 296.964 301.765 297.004 299.814 297.054C299.104 297.074 298.824 296.854 298.934 296.155C298.954 295.995 298.934 295.825 298.934 295.655C298.934 260.817 298.934 225.99 298.914 191.152C298.914 190.053 299.144 189.654 300.314 189.724C302.095 189.833 303.895 189.823 305.676 189.724C306.727 189.664 306.957 189.983 306.957 191.012C306.917 208.466 306.927 225.93 306.927 243.384V243.394Z" fill="#CAE0FF"/>
<path d="M189.012 243.264C189.012 225.89 189.022 208.516 188.982 191.142C188.982 190.004 189.262 189.674 190.392 189.734C192.263 189.834 194.134 189.804 196.004 189.734C196.855 189.704 197.025 190.004 197.015 190.783C196.975 193.98 196.995 197.187 196.995 200.384C196.995 232.144 196.995 263.905 197.025 295.655C197.025 296.794 196.745 297.124 195.614 297.064C193.784 296.964 191.953 296.974 190.122 297.064C189.142 297.114 188.982 296.784 188.982 295.885C189.012 278.341 189.002 260.798 189.002 243.264H189.012Z" fill="#CAE0FF"/>
<path d="M145.786 132.427C146.516 132.327 147.146 132.227 147.246 133.316C147.616 137.073 148.066 140.829 148.537 144.576C148.667 145.595 148.487 146.044 147.296 146.074C128.319 146.474 109.782 149.711 91.565 154.906C90.6446 155.166 90.2945 155.046 89.9644 154.107C88.5738 150.171 87.1433 146.244 85.4126 142.438C85.0725 141.698 85.2226 141.489 85.9929 141.279C96.5469 138.392 107.221 136.174 118.085 134.815C127.289 133.666 136.542 133.026 145.786 132.417V132.427Z" fill="#A1C9FF"/>
<path d="M204.488 135.873C189.902 135.873 178.028 124.254 178.018 109.967C178.018 95.5909 189.852 83.9817 204.518 83.9717C219.163 83.9717 230.998 95.6108 230.988 109.997C230.978 124.274 219.103 135.863 204.488 135.863V135.873Z" fill="#F6C254"/>
<path d="M228.657 96.9497H229.637C235.259 96.9497 240.872 96.9597 246.494 96.9297C247.254 96.9297 247.704 97.1295 248.054 97.8289C248.595 98.8979 249.315 99.8869 249.865 100.956C250.255 101.715 250.585 101.935 251.476 101.525C253.967 100.386 256.528 99.4274 259.039 98.3284C259.719 98.0287 260.259 98.0387 260.909 98.3284C263.42 99.4174 265.961 100.436 268.462 101.555C269.202 101.885 269.603 101.875 269.993 101.086C270.543 99.9769 271.253 98.9378 271.843 97.8488C272.193 97.1994 272.624 96.9397 273.404 96.9397C281.187 96.9697 288.97 96.9697 296.753 96.9397C297.633 96.9397 297.993 97.0696 297.953 98.0686C297.863 99.9769 297.873 101.895 297.953 103.803C297.993 104.742 297.733 104.972 296.793 104.962C288.34 104.922 279.896 104.942 271.443 104.942C258.538 104.942 245.633 104.942 232.729 104.922C232.288 104.922 231.438 105.322 231.468 104.453C231.498 103.554 230.017 102.594 231.538 101.735C231.938 101.515 232.088 101.076 231.918 100.646C231.718 100.127 231.248 99.767 230.738 100.007C230.118 100.297 230.038 99.9469 229.857 99.5473C229.487 98.728 229.097 97.9188 228.647 96.9497H228.657Z" fill="#F6C254"/>
<path d="M187.281 138.681C187.131 139.12 187.031 139.44 186.921 139.75C185.801 142.837 185.801 142.847 182.449 142.837C180.118 142.837 177.788 142.757 175.457 142.747C175.076 142.747 174.446 142.367 174.376 143.137C174.316 143.786 174.876 143.776 175.327 143.846C177.397 144.196 179.468 144.555 181.509 145.175C175.267 145.175 169.024 145.135 162.792 145.185C158.76 145.215 154.719 145.345 150.687 145.495C149.827 145.525 149.587 145.295 149.487 144.446C149.077 140.689 148.586 136.943 148.096 133.196C148.006 132.477 148.006 132.087 148.957 132.097C159.651 132.157 170.335 131.518 181.019 131.887C183.59 131.977 186.161 132.237 188.732 132.397C189.302 132.437 189.522 132.507 189.312 133.196C188.912 134.555 188.402 135.444 186.711 135.544C182.939 135.764 179.178 136.223 175.417 136.633C174.986 136.683 174.166 136.243 174.196 137.182C174.226 138.051 175.026 137.712 175.467 137.732C179.368 137.942 183.27 138.161 187.271 138.671L187.281 138.681Z" fill="#CAE0FF"/>
<path d="M58.3923 140.09C61.3034 141.808 64.0345 141.259 66.6855 139.67C67.8759 138.951 67.8859 138.471 66.7055 137.762C64.5547 136.463 63.9244 134.675 64.9448 132.756C65.7151 131.298 67.2157 130.918 69.0464 131.628C69.7166 131.887 70.4369 132.806 71.1572 131.657C71.1772 131.628 71.3573 131.687 71.4473 131.737C74.0583 133.076 76.3291 132.277 78.6 130.648C79.6804 132.417 80.5608 134.325 81.4711 136.223C81.7912 136.883 81.4011 137.003 80.9209 137.142C79.1002 137.682 77.4996 137.032 75.909 136.263C75.5588 136.093 75.1887 135.374 74.7285 136.173C74.2984 136.923 75.0186 137.022 75.3688 137.242C77.2895 138.431 79.3403 138.941 81.5411 138.121C82.1013 137.912 82.3514 138.002 82.5615 138.531C83.6619 141.259 84.7523 143.986 85.9128 146.694C86.2029 147.373 85.9528 147.633 85.4626 147.992C83.1417 149.641 80.5808 150.82 77.9298 151.799C72.4877 153.787 66.8455 154.946 61.1434 155.875C60.3931 155.995 60.183 155.865 60.073 155.076C59.4027 150.14 58.8025 145.205 58.4023 140.11L58.3923 140.09Z" fill="#CAE0FF"/>
<path d="M119.495 297.044H118.265C106.951 297.044 95.6263 297.044 84.312 297.064C83.4017 297.064 83.0416 296.924 83.0416 295.885C83.0616 293.397 82.9415 290.9 82.8215 288.412C82.7815 287.593 82.9015 287.253 83.8619 287.303C91.4147 287.753 98.9876 288.062 106.54 288.572C111.903 288.932 117.365 292.558 119.505 297.044H119.495Z" fill="#CAE0FF"/>
<path d="M210.99 136.133C210.99 139.46 210.77 142.757 211.06 146.004C211.29 148.622 210.44 149.92 207.969 150.77C205.118 151.749 202.427 153.197 199.656 154.416C198.365 154.986 197.105 155.365 196.054 153.877C195.674 153.347 194.954 153.147 194.324 152.928C193.764 152.738 193.053 152.468 193.213 151.839C193.413 151.089 193.333 150.03 194.474 149.781C195.034 149.651 195.584 149.441 196.114 149.211C196.575 149.011 197.065 148.772 197.125 148.202C197.185 147.573 196.715 147.133 196.225 146.983C195.064 146.634 195.224 146.004 195.574 145.125C196.595 142.497 197.545 139.84 198.485 137.182C198.695 136.573 198.926 136.293 199.616 136.433C201.497 136.823 203.407 136.933 205.328 136.873C207.199 136.823 209.049 136.543 211 136.143L210.99 136.133Z" fill="#A1C9FF"/>
<path d="M72.0576 297.044H70.7871C60.4732 297.044 50.1593 297.024 39.8454 297.074C38.7849 297.074 38.5449 296.774 38.5349 295.785C38.5349 293.837 38.3948 291.888 38.2647 289.94C38.2247 289.301 38.3748 289.061 39.0651 289.101C46.0777 289.441 53.1104 289.61 60.113 290.12C63.7544 290.39 67.1357 291.758 69.9568 294.226C70.8071 294.965 71.5274 295.805 72.0476 297.054L72.0576 297.044Z" fill="#CAE0FF"/>
<path d="M65.8949 138.711C63.584 140.15 61.3531 140.54 59.0322 139.021C58.5521 138.711 58.252 138.342 58.2219 137.722C58.0119 132.657 57.8018 127.592 58.8722 122.586C59.0723 121.657 59.3624 120.748 59.7725 119.879C61.2231 116.832 64.4843 115.813 67.3854 117.551C68.3658 118.14 68.7559 119.199 69.1161 120.208C70.2365 123.396 70.3265 126.712 70.2365 130.049C70.2165 130.699 69.9864 130.849 69.4162 130.609C69.2261 130.529 69.026 130.459 68.826 130.419C66.5951 129.909 64.8244 130.569 63.9741 132.207C62.9137 134.235 63.3239 136.423 65.0445 137.962C65.2846 138.182 65.5347 138.392 65.9049 138.721L65.8949 138.711Z" fill="#CAE0FF"/>
<path d="M220.844 87.8987C225.576 87.8987 230.307 87.9087 235.039 87.8887C235.719 87.8887 235.709 88.2084 235.729 88.7379C235.759 89.4972 235.089 90.3963 235.749 90.9458C236.27 91.3754 237.15 91.3754 237.87 91.5653C239.721 92.0348 241.552 92.6442 243.422 92.924C245.243 93.1937 246.173 94.2028 246.744 95.8113C246.523 96.091 246.213 95.9612 245.953 95.9612C240.301 95.9612 234.649 95.9612 228.997 95.9612C228.567 95.9612 228.076 96.121 227.766 95.6115C225.916 92.6742 223.505 90.2465 220.844 87.9086V87.8987Z" fill="#F6C254"/>
<path d="M193.483 146.064C191.243 145.635 188.972 145.365 186.691 145.315C186.071 145.305 186.041 145.075 186.231 144.556C187.561 140.949 188.882 137.332 190.182 133.706C190.352 133.216 190.532 133.146 190.972 133.376C192.983 134.465 195.074 135.374 197.305 135.914C197.725 136.014 197.785 136.253 197.635 136.653C196.525 139.64 195.434 142.637 194.354 145.635C194.184 146.114 193.894 146.154 193.493 146.054L193.483 146.064Z" fill="#F6C254"/>
<path d="M185.46 170.032C184.56 172.469 183.73 174.937 182.739 177.345C182.099 178.903 180.498 179.693 178.758 179.543C177.217 179.413 175.877 178.324 175.366 176.815C175.096 176.016 175.086 175.477 176.217 175.547C177.677 175.647 179.118 175.417 180.538 175.057C181.269 174.877 181.969 174.617 182.579 174.158C183.91 173.159 183.81 171.91 182.349 171.131C181.469 170.661 180.498 170.461 179.548 170.032H185.45H185.46Z" fill="#F6C254"/>
<path d="M75.889 126.053C74.1883 126.472 72.6577 127.032 71.3372 128.391C71.1471 125.174 71.0471 122.166 69.8066 119.069C72.3976 121.127 74.1683 123.515 75.889 126.053Z" fill="#CAE0FF"/>
<path d="M81.6509 133.985C80.4304 131.777 79.29 129.709 77.9695 127.312C79.8902 128.47 81.5108 129.44 83.1014 130.439C83.8217 130.888 83.8017 131.518 83.2915 132.127C82.7913 132.726 82.2511 133.306 81.6509 133.985Z" fill="#CAE0FF"/>
<path d="M75.1987 131.238C73.228 131.548 72.1175 131.238 71.9175 130.409C71.6974 129.53 72.7378 128.331 74.3584 127.651C73.9182 128.98 74.2684 130.119 75.1987 131.238Z" fill="#CAE0FF"/>
<path d="M185.38 151.33C187.761 151.07 190.102 150.55 192.493 150.311C192.173 152.249 192.073 152.319 190.382 152.059C188.722 151.799 187.051 151.569 185.38 151.33Z" fill="#F6C254"/>
<path d="M184.38 158.303C185.861 158.193 187.341 158.073 188.822 157.983C189.142 157.963 189.762 157.553 189.692 158.303C189.642 158.772 189.612 159.542 188.682 159.342C187.231 159.032 185.781 158.772 184.33 158.483C184.35 158.423 184.37 158.353 184.38 158.293V158.303Z" fill="#F6C254"/>
<path d="M183.51 137.012C184.83 136.503 186.111 136.643 187.321 136.393C187.571 136.343 188.061 136.153 188.001 136.733C187.961 137.112 187.801 137.462 187.291 137.412C186.101 137.282 184.9 137.162 183.51 137.012Z" fill="#041C42"/>
<path d="M182.629 143.886C183.29 143.856 183.94 143.806 184.6 143.796C184.89 143.796 185.35 143.646 185.27 144.206C185.2 144.736 184.81 144.526 184.5 144.456C183.87 144.326 183.23 144.196 182.599 144.056C182.599 143.996 182.619 143.946 182.619 143.886H182.629Z" fill="#041C42"/>
<path d="M190.662 158.514C191.082 157.434 191.672 157.584 192.582 157.594C191.832 157.954 191.392 158.164 190.662 158.514Z" fill="#CAE0FF"/>
<path d="M273.634 67.9963C273.614 68.326 273.354 68.5058 273.154 68.6956C267.962 73.7909 262.76 78.8762 257.578 83.9714C257.118 84.421 256.807 84.441 256.347 83.9714C253.066 80.6645 249.775 77.3776 246.464 74.1006C246.003 73.641 246.003 73.3213 246.464 72.8718C247.754 71.6329 249.025 70.3741 250.255 69.0753C250.785 68.5158 251.135 68.5358 251.676 69.0753C253.156 70.5339 254.717 71.9027 256.197 73.3613C256.717 73.8708 256.978 73.9308 257.548 73.3513C260.889 69.9345 264.3 66.5876 267.662 63.1808C268.232 62.6013 268.522 62.5813 269.102 63.2207C270.353 64.6094 271.733 65.8883 273.044 67.207C273.274 67.4368 273.574 67.6266 273.624 67.9863L273.634 67.9963Z" fill="#041C42"/>
<path d="M204.968 130.878C193.383 130.898 184.01 121.477 184.01 109.828C184.01 98.3283 193.433 88.977 205.028 88.9571C216.612 88.9371 225.986 98.3583 225.986 110.007C225.986 121.497 216.562 130.858 204.968 130.868V130.878Z" fill="#041C42"/>
<path d="M236.979 101.006C236.849 101.586 236.519 101.996 235.869 101.916C235.319 101.846 234.939 101.476 234.999 100.897C235.059 100.277 235.449 99.8875 236.089 99.9674C236.649 100.037 236.959 100.407 236.979 101.016V101.006Z" fill="#041C42"/>
<path d="M272.323 67.9566C272.113 68.1863 271.963 68.3762 271.783 68.546C267.051 73.1617 262.299 77.7574 257.578 82.3831C257.128 82.8227 256.857 82.8927 256.377 82.4031C253.636 79.6157 250.865 76.8583 248.074 74.1208C247.544 73.6013 247.594 73.2816 248.114 72.832C248.704 72.3125 249.245 71.7231 249.795 71.1636C250.985 69.9747 250.975 69.9747 252.256 71.1636C253.596 72.4024 254.987 73.6013 256.287 74.8801C256.857 75.4396 257.158 75.3397 257.678 74.8202C260.989 71.4833 264.36 68.2063 267.642 64.8495C268.352 64.1301 268.742 64.1601 269.362 64.8794C270.122 65.7586 270.993 66.5379 271.813 67.3671C271.983 67.537 272.123 67.7268 272.313 67.9366L272.323 67.9566Z" fill="#A1C9FF"/>
<path d="M210.99 109.928C210.99 115.872 210.98 121.817 211.01 127.761C211.01 128.62 210.85 129.06 209.9 129.3C199.306 132.057 188.202 125.393 185.571 114.663C182.93 103.903 189.752 92.8536 200.506 90.4559C203.647 89.7565 206.769 89.8065 209.9 90.5358C210.72 90.7256 211.02 91.0553 211.01 91.9545C210.96 97.9389 210.99 103.923 210.99 109.918V109.928Z" fill="#F6C254"/>
<path d="M212.021 128.6V91.2949C214.461 92.1341 216.472 93.5129 218.403 95.0914C219.633 96.1005 220.044 97.2394 220.034 98.8379C219.944 106.561 219.984 114.294 220.014 122.016C220.014 122.836 219.783 123.415 219.213 123.975C217.172 125.973 214.872 127.551 212.031 128.6H212.021Z" fill="#F6C254"/>
<path d="M220.984 121.477C220.984 116.502 220.984 111.536 220.984 106.561C220.984 106.401 220.984 106.121 221.054 106.101C222.094 105.752 223.175 105.932 224.235 105.961C224.875 105.981 224.685 106.661 224.745 107.07C225.536 112.376 224.225 117.161 220.974 121.477H220.984Z" fill="#F6C254"/>
<path d="M220.984 97.9985C222.574 100.067 223.485 102.075 224.165 104.203C224.325 104.712 224.225 104.902 223.625 104.942C220.984 105.112 220.994 105.142 220.994 102.564C220.994 101.166 220.994 99.7669 220.994 97.9985H220.984Z" fill="#F6C254"/>
</g>
<defs>
<clipPath id="clip0_707_5883">
<rect width="320" height="298" fill="white"/>
</clipPath>
</defs>
</svg>
