<svg viewBox="0 0 320 298" fill="none" xmlns="http://www.w3.org/2000/svg">
<g clip-path="url(#clip0_707_10769)">
<rect fill="#F6C254"/>
<path d="M320 0V297C320 297 319.089 297.439 318.569 297.449C318.028 297.459 317.488 297.449 316.948 297.449C253.12 297.449 189.292 297.449 125.465 297.449C124.794 297.449 124.134 297.459 123.464 297.43C122.653 297.39 122.033 297.04 121.613 296.341C119.272 292.366 115.66 290.079 111.369 288.7C109.138 287.981 109.068 287.771 109.288 285.374C109.478 283.397 109.458 281.389 109.528 279.412C109.688 274.767 109.928 270.123 110.138 265.479C110.328 261.174 110.378 256.859 110.798 252.564C110.978 250.707 110.978 248.829 111.028 246.971C111.148 242.237 111.499 237.523 111.629 232.789C111.739 228.893 111.969 224.998 112.129 221.103C112.259 217.827 112.419 214.561 112.619 211.285C112.859 207.27 113.89 203.415 115.84 199.859C118.722 194.625 123.294 191.899 129.116 190.97C133.258 190.311 137.41 190.47 141.562 190.49C142.932 190.49 143.422 191.04 143.523 192.388C143.563 192.927 143.543 193.467 143.543 194.006C143.543 213.372 143.573 232.749 143.523 252.115C143.513 256.679 146.464 260.944 151.416 261.933C151.876 262.023 152.326 262.033 152.777 262.033C193.534 262.033 234.302 262.043 275.06 262.033C280.192 262.033 284.464 257.768 284.464 252.664C284.464 185.497 284.464 118.319 284.474 51.151C284.474 45.408 279.632 41.5028 274.81 41.5128C234.342 41.5527 193.864 41.5327 153.397 41.5427C148.395 41.5427 144.683 44.569 143.633 49.473C143.462 50.2521 143.543 51.0511 143.543 51.8301C143.543 86.4977 143.543 121.165 143.543 155.833C143.543 156.412 143.563 157.001 143.533 157.581C143.462 159.119 142.992 159.528 141.482 159.219C139.451 158.809 137.42 158.35 135.389 157.9C129.266 156.552 123.104 155.363 116.881 154.584C112.189 153.995 107.457 153.536 102.705 153.805C99.8936 153.965 97.0723 154.235 94.3111 154.844C92.3803 155.274 92.0102 155.094 91.2998 153.256C89.9393 149.73 88.7988 146.125 87.3681 142.619C86.4577 140.392 85.4573 138.194 84.4168 136.017C83.4964 134.089 83.6465 133.62 85.2972 132.312C86.7078 131.193 86.6978 130.744 85.2172 129.705C85.0471 129.585 84.887 129.445 84.707 129.345C80.4051 126.998 77.0036 123.662 73.8923 119.927C72.3216 118.039 70.2507 116.661 67.7596 116.071C65.3386 115.492 63.4177 116.341 62.1972 118.518C60.9467 120.736 60.3464 123.153 60.1163 125.64C59.5661 131.443 59.7561 137.246 60.2764 143.039C60.4665 145.106 60.7266 147.153 60.9967 149.211C61.1468 150.32 60.6866 151.129 59.8962 151.838C55.5043 155.833 51.8927 160.497 48.6613 165.441C43.1189 173.941 38.8371 183.06 35.3756 192.578C34.7053 194.416 34.6652 196.403 34.3751 198.331C33.4447 204.473 32.5843 210.636 31.704 216.788C30.9236 222.242 30.1333 227.705 29.3629 233.158C28.5826 238.612 27.7622 244.065 26.9919 249.528C26.2116 255.031 25.4312 260.525 24.6209 266.018C23.8005 271.591 23.0302 277.174 22.1998 282.747C21.5596 286.972 20.9993 291.207 20.369 295.422C20.1389 296.99 19.6787 297.43 18.078 297.43C12.5857 297.459 7.08327 297.449 1.59088 297.43C1.02064 297.43 0 297 0 297C0 296.5 0 296.949 0 296.5C0 198.61 0 97.8902 0 0C105.506 0 214.484 0 320 0Z" fill="#A1C9FF"/>
<path d="M0 297C6.12266 297 12.4252 296.96 18.5379 297C19.5083 297 19.7784 296.701 19.9085 295.782C21.3291 285.634 22.7897 275.487 24.2504 265.349C25.621 255.821 27.0016 246.292 28.3722 236.764C29.6727 227.725 30.9833 218.696 32.2839 209.657C33.0442 204.404 33.7445 199.13 34.5649 193.887C34.925 191.579 36.0155 189.492 36.8859 187.355C41.2678 176.578 46.6401 166.36 54.0533 157.311C55.8241 155.154 57.7049 153.096 59.8258 151.289C60.5361 150.679 60.6662 150.09 60.5461 149.241C59.5157 142.36 59.0255 135.448 59.3756 128.497C59.5257 125.47 59.9059 122.454 61.1064 119.617C62.8371 115.522 65.8484 114.394 69.8702 116.331C71.4209 117.08 72.7814 118.109 73.992 119.318C74.9924 120.317 76.0129 121.325 76.8132 122.474C78.0237 124.222 79.5544 125.53 81.3552 126.619C82.9158 127.568 84.4165 128.606 85.9272 129.645C87.1677 130.494 87.1677 131.533 85.9772 132.462C84.0063 134.01 83.9563 134.03 85.0768 136.297C87.858 141.96 89.8189 147.953 92.0098 153.855C92.2999 154.635 92.53 154.824 93.3904 154.625C99.6531 153.156 106.006 153.126 112.379 153.686C122.263 154.555 131.917 156.682 141.581 158.799C142.555 159.013 143.042 158.633 143.042 157.661C143.042 122.364 143.042 87.0772 143.042 51.7804C143.042 45.2184 147.204 41.0835 153.817 41.0835C193.994 41.0835 234.182 41.0835 274.359 41.0835C280.702 41.0835 284.944 45.2983 284.944 51.6006C284.944 118.439 284.944 185.287 284.944 252.125C284.944 258.278 280.672 262.562 274.529 262.562C234.142 262.562 193.754 262.562 153.356 262.562C147.374 262.562 143.042 258.248 143.032 252.275C143.032 232.409 143.022 212.534 143.062 192.668C143.062 191.469 142.832 191.01 141.541 191C137.249 190.95 132.968 190.8 128.716 191.539C120.742 192.928 116.25 197.932 114.089 205.432C113.029 209.118 113.019 212.903 112.839 216.669C112.159 230.821 111.518 244.974 110.868 259.127C110.448 268.295 110.028 277.474 109.577 286.643C109.537 287.422 109.707 287.782 110.538 288.011C115.5 289.34 119.632 291.847 122.163 296.501C122.383 296.9 122.643 297.02 123.053 296.99C123.303 296.97 123.554 296.99 123.804 296.99C189.172 296.99 254.632 297 320 297V298C213.774 298 106.226 298 0 298V297Z" fill="#041C42"/>
<path d="M180.548 141.3C180.548 140.352 180.568 139.403 180.548 138.454C180.528 137.855 180.368 137.265 179.698 137.076C178.998 136.876 178.627 137.375 178.317 137.885C176.877 140.242 176.156 142.898 175.276 145.475C174.886 146.614 174.596 147.782 174.196 148.911C174.076 149.241 174.196 149.88 173.555 149.79C172.985 149.71 173.295 149.181 173.245 148.861C173.125 148.172 173.145 147.443 172.995 146.764C172.845 146.055 172.785 145.166 171.855 145.026C170.924 144.886 170.624 145.705 170.264 146.354C169.824 147.163 169.584 148.052 169.443 148.951C169.333 149.66 169.023 149.86 168.303 149.85C164.972 149.81 161.64 149.82 158.309 149.83C155.177 149.84 153.076 151.937 153.056 155.063C153.046 156.811 153.016 158.559 153.076 160.297C153.096 161.016 152.836 161.136 152.216 161.006C149.735 160.487 147.254 159.977 144.773 159.478C144.243 159.368 143.962 159.148 144.052 158.569C144.082 158.369 144.052 158.15 144.052 157.95C144.052 122.533 144.052 87.1166 144.052 51.71C144.052 45.8072 147.794 42.0718 153.717 42.0718C193.894 42.0718 234.072 42.0718 274.249 42.0718C280.242 42.0718 283.953 45.7872 283.953 51.7899C283.953 118.458 283.953 185.137 283.953 251.805C283.953 257.888 280.262 261.563 274.159 261.563C234.022 261.563 193.884 261.563 153.747 261.563C147.754 261.563 144.042 257.848 144.042 251.835C144.042 232.089 144.042 212.343 144.022 192.608C144.022 191.499 144.233 191.099 145.423 191.249C147.814 191.549 150.225 191.729 152.626 191.908C153.266 191.958 153.657 192.148 154.037 192.677C155.107 194.176 156.648 194.725 158.479 194.725C176.136 194.705 193.784 194.715 211.442 194.715C230.72 194.715 249.998 194.715 269.277 194.715C272.998 194.715 274.969 192.757 274.969 189.042C274.969 177.816 274.969 166.599 274.969 155.373C274.969 151.827 272.958 149.82 269.417 149.82C243.896 149.82 218.375 149.82 192.844 149.82H191.463C191.553 148.751 191.683 147.772 191.693 146.794C191.693 146.274 191.563 145.695 190.903 145.525C190.283 145.365 189.892 145.715 189.532 146.154C188.892 146.933 188.492 147.842 188.032 148.721C187.831 149.101 187.631 149.47 187.151 149.74C187.471 148.102 187.811 146.464 188.122 144.826C188.472 142.988 188.802 141.151 188.762 139.273C188.752 138.454 188.612 137.615 187.641 137.425C186.651 137.235 186.261 137.974 185.971 138.753C185.611 139.702 185.26 140.661 184.81 141.85C184.76 140.341 185.04 139.093 184.8 137.855C184.68 137.265 184.54 136.696 183.86 136.536C183.169 136.376 182.779 136.806 182.439 137.305C181.619 138.514 181.229 139.922 180.548 141.29V141.3Z" fill="white"/>
<path d="M60.8467 151.728C61.1168 153.176 61.3769 154.475 61.577 155.783C61.657 156.282 61.7771 156.522 62.3573 156.442C70.721 155.274 78.8645 153.426 86.2277 149.061C87.008 148.602 87.7383 148.042 88.6087 147.453C89.5491 150 90.4795 152.467 91.3499 154.964C91.63 155.763 91.9202 156.053 92.8306 155.813C99.2734 154.095 105.836 154.105 112.409 154.684C123.664 155.673 134.619 158.35 145.633 160.667C152.146 162.035 158.649 163.464 165.352 163.484C166.383 163.484 166.192 164.213 166.262 164.752C166.773 168.827 167.253 172.912 167.733 176.997C168.273 181.571 168.764 186.156 169.364 190.73C169.504 191.779 169.144 191.879 168.273 191.859C162.901 191.759 157.549 191.309 152.206 190.86C145.283 190.281 138.36 189.522 131.397 190.191C121.193 191.17 115.24 196.313 112.899 206.271C112.599 207.56 112.329 208.878 112.269 210.196C112.219 211.505 111.809 211.665 110.588 211.355C102.615 209.337 94.6213 207.41 86.6279 205.452C70.0106 201.377 53.3834 197.302 36.7562 193.257C36.0159 193.077 35.7958 192.908 36.0859 192.128C40.6179 180.063 46.2703 168.607 54.3839 158.48C56.3047 156.083 58.3856 153.835 60.8367 151.738L60.8467 151.728Z" fill="#A1C9FF"/>
<path d="M110.358 250.018C109.778 262.223 109.198 274.418 108.647 286.623C108.607 287.452 108.347 287.651 107.557 287.631C100.444 287.472 93.3307 287.332 86.2076 287.222C85.2172 287.212 84.817 287.052 84.767 285.884C84.0967 271.222 82.7561 256.639 79.5948 242.277C78.3242 236.484 76.8136 230.761 74.1124 225.418C73.3421 223.889 72.4617 222.441 71.2011 221.253C69.0702 219.225 67.0693 219.335 65.3086 221.672C63.0076 224.718 61.687 228.274 60.3764 231.81C56.0345 243.525 52.7631 255.571 49.1315 267.506C47.0606 274.288 44.9897 281.07 42.7488 287.791C42.4186 288.79 42.0084 288.96 40.988 288.86C35.1955 288.261 29.393 287.751 23.5904 287.252C22.58 287.162 22.1098 287.112 22.3099 285.774C24.5409 270.792 26.6718 255.8 28.8227 240.809C30.6135 228.364 32.3843 215.919 34.165 203.474C34.5752 200.598 35.0454 197.732 35.3856 194.845C35.5156 193.736 36.1259 194.116 36.6661 194.246C47.6009 196.913 58.5256 199.579 69.4604 202.256C83.2164 205.632 96.9523 209.038 110.728 212.334C112.149 212.673 112.079 213.352 112.029 214.401C111.449 226.267 110.898 238.142 110.338 250.008C110.338 250.008 110.358 250.008 110.368 250.008L110.358 250.018Z" fill="#CAE0FF"/>
<path d="M155.028 192.129C157.549 192.308 159.74 192.478 161.921 192.618C162.961 192.688 164.001 192.738 165.032 192.698C166.413 192.648 167.763 192.858 169.134 192.957C169.854 193.007 170.374 192.738 170.904 192.258C173.696 189.791 175.607 186.665 177.387 183.479C182.58 174.17 186.851 164.462 190.133 154.325C190.423 153.416 190.743 152.517 190.943 151.588C191.083 150.959 191.393 150.759 191.974 150.809C192.224 150.829 192.474 150.809 192.724 150.809C218.245 150.809 243.756 150.809 269.277 150.809C272.489 150.809 273.969 152.267 273.969 155.423C273.969 166.64 273.969 177.866 273.969 189.082C273.969 192.198 272.489 193.697 269.407 193.697C232.441 193.697 195.475 193.697 158.509 193.697C157.239 193.697 156.048 193.537 155.018 192.109L155.028 192.129Z" fill="#004079"/>
<path d="M69.5606 296.98C65.0286 296.98 60.4867 296.97 55.9547 297C55.2944 297 54.9643 296.81 54.6341 296.211C53.2435 293.624 50.8525 292.186 48.2914 291.027C46.9708 290.428 45.5802 289.979 44.1996 289.549C43.5693 289.359 43.2992 289.26 43.5593 288.49C49.2618 271.691 53.7437 254.512 59.3662 237.683C60.9669 232.889 62.6176 228.104 65.1487 223.69C65.4588 223.15 65.819 222.641 66.2091 222.152C67.5397 220.494 68.8103 220.404 70.421 221.892C72.1617 223.51 73.2022 225.607 74.1226 227.745C77.0338 234.537 78.6045 241.698 79.9151 248.929C82.7063 264.37 83.7668 279.971 84.1269 295.642C84.1469 296.7 83.9669 297.04 82.8164 297.02C78.4044 296.94 73.9925 296.99 69.5806 296.99L69.5606 296.98Z" fill="#A1C9FF"/>
<path d="M183.73 137.535C184.13 139.822 183.73 141.94 183.41 144.047C182.76 148.352 181.719 152.587 180.849 156.852C180.749 157.331 180.208 158.16 181.039 158.35C181.859 158.539 181.729 157.601 181.859 157.101C183.28 151.648 184.55 146.145 186.281 140.781C186.361 140.541 186.401 140.282 186.531 140.082C186.851 139.553 186.771 138.434 187.482 138.594C188.092 138.734 187.802 139.782 187.752 140.412C187.342 144.936 186.181 149.311 185.171 153.715C184.83 155.214 184.42 156.692 184.1 158.19C184.01 158.619 183.62 159.269 184.28 159.498C184.971 159.738 185.021 158.989 185.181 158.569C186.521 155.094 187.712 151.548 189.432 148.232C189.733 147.663 189.953 147.024 190.693 146.564C190.813 148.632 190.283 150.449 189.723 152.227C185.991 164.133 181.149 175.559 174.576 186.216C173.456 188.033 172.205 189.781 170.444 191.409C170.134 188.862 169.844 186.535 169.574 184.208C168.763 177.406 167.963 170.605 167.153 163.803C167.113 163.433 167.043 163.084 167.193 162.704C168.864 158.46 169.604 154.005 170.334 149.54C170.534 148.342 170.744 147.093 171.735 146.065C172.185 147.303 172.255 148.502 172.245 149.69C172.225 151.638 172.115 153.595 172.065 155.543C172.055 155.963 171.825 156.582 172.445 156.692C173.075 156.802 173.105 156.142 173.225 155.743C174.546 151.298 175.777 146.814 177.367 142.449C177.897 141.001 178.328 139.493 179.478 138.084C179.808 140.721 179.288 143.068 178.928 145.425C178.388 148.951 177.397 152.387 177.007 155.943C176.957 156.422 176.567 157.171 177.367 157.261C178.068 157.341 178.007 156.532 178.118 156.043C179.188 151.398 180.108 146.714 181.529 142.16C181.879 141.051 182.299 139.972 182.71 138.893C182.89 138.404 183.13 137.935 183.73 137.555V137.535Z" fill="#CAE0FF"/>
<path d="M60.5264 139.742C64.7082 141.62 67.6295 141.19 70.4007 138.354C68.97 137.645 67.5394 136.926 67.1993 135.168C66.9892 134.069 67.4594 133.13 68.0496 132.261C69.2702 130.464 70.2606 130.563 73.3219 132.781C73.562 132.621 73.562 132.351 73.582 132.111C73.6221 131.412 73.8321 131.233 74.5925 131.482C76.4933 132.112 78.3241 131.742 79.8848 130.543C80.6351 129.974 80.8352 130.184 81.1753 130.863C81.9157 132.351 82.666 133.829 83.5063 135.248C83.9565 136.027 83.5864 136.276 82.9661 136.456C81.2354 136.976 79.7047 136.436 78.194 135.617C77.8839 135.447 77.5237 134.788 77.0936 135.487C76.6234 136.256 77.4437 136.306 77.7739 136.496C79.6447 137.565 81.6055 138.124 83.7164 137.215C84.1866 137.006 84.4067 137.135 84.5768 137.545C85.7373 140.291 86.8978 143.038 88.0683 145.785C88.3685 146.494 87.7782 146.744 87.368 147.053C84.2367 149.38 80.6951 150.898 77.0235 152.137C72.6816 153.595 68.2197 154.554 63.7077 155.273C62.7873 155.423 62.4572 155.203 62.2971 154.204C61.7469 150.799 61.2767 147.393 60.8965 143.977C60.7465 142.619 60.6664 141.26 60.5364 139.752L60.5264 139.742Z" fill="#CAE0FF"/>
<path d="M121.413 296.98H104.876C98.6329 296.98 92.3902 296.97 86.1475 296.99C85.3972 296.99 85.057 296.88 85.057 296.011C85.057 293.724 84.977 291.446 84.8669 289.159C84.8269 288.41 84.987 288.151 85.7973 288.17C93.3206 288.35 100.874 288.21 108.377 288.72C113.89 289.089 118.291 291.936 121.403 296.98H121.413Z" fill="#CAE0FF"/>
<path d="M53.9134 296.92H20.729C21.1192 294.193 21.5193 291.527 21.8695 288.86C21.9495 288.291 22.0996 288.091 22.7199 288.151C28.9326 288.75 35.1753 289.12 41.348 289.949C45.5298 290.508 49.4915 291.996 52.6029 295.102C52.833 295.332 53.0531 295.592 53.2531 295.861C53.4632 296.161 53.6433 296.481 53.9134 296.93V296.92Z" fill="#CAE0FF"/>
<path d="M72.7519 130.943C71.3913 130.114 70.0907 129.565 68.6001 130.354C65.9389 131.782 65.3987 135.727 67.5996 137.795C68.6201 138.754 68.6201 138.744 67.2695 139.373C66.0189 139.952 64.7184 140.102 63.3778 139.822C61.1868 139.363 60.3865 138.404 60.3365 136.217C60.2164 131.443 60.1164 126.678 61.3469 122.004C61.617 120.995 61.9572 120.026 62.4574 119.108C64.1181 116.001 67.7297 115.442 70.3308 117.869C71.6314 119.088 72.2116 120.676 72.5818 122.344C72.8319 123.472 72.982 124.631 73.052 125.789C73.152 127.447 73.102 129.105 72.7419 130.943H72.7519Z" fill="#CAE0FF"/>
<path d="M162.961 150.819C164.661 150.819 166.372 150.819 168.073 150.819C168.703 150.819 169.103 150.889 168.963 151.728C168.493 154.585 167.863 157.411 167.032 160.188C166.292 162.635 166.202 162.725 163.641 162.525C160.8 162.305 157.959 162.016 155.137 161.526C154.377 161.396 154.007 161.047 154.037 160.198C154.097 158.41 154.037 156.632 154.057 154.844C154.087 152.507 155.748 150.869 158.089 150.839C159.709 150.819 161.33 150.839 162.951 150.839L162.961 150.819Z" fill="#004079"/>
<path d="M77.8739 125.52C76.5033 125.81 75.2828 126.159 74.1623 127.198C74.0222 124.561 73.8021 122.114 72.7217 119.467C74.8726 121.415 76.4133 123.382 77.8739 125.52Z" fill="#CAE0FF"/>
<path d="M80.4348 127.188C82.0855 128.276 83.7262 129.375 85.3769 130.454C86.0172 130.883 85.9171 131.233 85.3769 131.692C83.5861 133.21 83.6161 133.22 82.5257 131.213C81.8154 129.914 81.055 128.636 80.3247 127.348C80.3647 127.288 80.4047 127.238 80.4448 127.178L80.4348 127.188Z" fill="#CAE0FF"/>
<path d="M77.0837 130.553C75.513 130.923 74.2925 130.603 74.0624 129.794C73.8122 128.896 74.7927 127.677 76.2833 127.118C75.8531 128.436 76.1633 129.565 77.0837 130.553Z" fill="#CAE0FF"/>
<path d="M214.143 80.9747C230.92 80.9747 247.697 80.9747 264.485 80.9747C270.717 80.9747 274.979 85.2195 274.979 91.4518C274.979 102.468 274.979 113.485 274.979 124.501C274.979 130.554 270.677 134.849 264.605 134.849C230.84 134.849 197.075 134.849 163.301 134.849C157.408 134.849 153.066 130.514 153.056 124.621C153.056 113.435 153.046 102.259 153.056 91.0723C153.056 85.3593 157.438 80.9747 163.181 80.9747C180.168 80.9647 197.155 80.9747 214.143 80.9747Z" fill="#041C42"/>
<path d="M214.153 239.61C219.316 239.61 224.468 239.61 229.63 239.61C232.171 239.61 233.982 241.248 234.012 243.546C234.042 245.903 232.221 247.591 229.62 247.591C219.215 247.591 208.821 247.591 198.416 247.591C195.875 247.591 194.065 245.953 194.035 243.655C194.005 241.298 195.825 239.61 198.426 239.61C203.669 239.61 208.911 239.61 214.153 239.61Z" fill="#041C42"/>
<path d="M226.028 56.0347C228.999 56.0347 231.46 58.3019 231.46 61.0485C231.46 63.7153 229.009 65.9925 226.098 66.0125C223.097 66.0324 220.646 63.8151 220.636 61.0585C220.626 58.2719 223.027 56.0347 226.028 56.0347Z" fill="#041C42"/>
<path d="M186.031 60.9886C186.031 59.6203 186.061 58.2519 186.021 56.8836C186.001 56.2843 186.101 55.9747 186.811 56.0147C187.892 56.0746 188.972 55.9947 190.052 56.0446C192.063 56.1445 193.564 57.6626 193.564 59.5304C193.564 61.3881 192.053 62.8863 190.042 63.0061C188.222 63.116 188.172 63.116 188.222 64.9238C188.252 65.8027 187.992 66.0424 187.121 66.0324C186.291 66.0324 185.941 65.8926 186.001 64.9637C186.091 63.6453 186.021 62.307 186.021 60.9786L186.031 60.9886Z" fill="#041C42"/>
<path d="M205.959 66.0128C202.988 66.0128 200.817 64.4248 200.247 62.1975C199.697 60.0401 200.707 57.8228 202.728 56.7442C205.029 55.5157 207.92 55.9152 209.511 57.673C209.891 58.0825 210.091 58.3322 209.321 58.5819C208.51 58.8416 207.89 59.0214 207.05 58.4421C205.809 57.5732 203.958 58.0026 202.978 59.1312C202.038 60.2199 201.998 61.6981 202.868 62.7868C203.858 64.0253 205.609 64.4248 207.03 63.5958C207.78 63.1563 208.36 63.1264 209.181 63.406C210.231 63.7556 209.831 64.0752 209.341 64.5246C208.25 65.5234 206.95 65.9929 205.959 66.0128Z" fill="#041C42"/>
<path d="M237.623 56.0447C238.304 55.9648 238.944 56.0746 239.494 56.3343C239.894 56.5141 240.825 56.3243 240.515 57.2931C240.265 58.0722 239.924 58.6615 238.964 58.0322C238.734 57.8824 238.414 57.8325 238.134 57.8125C237.343 57.7326 236.503 57.8325 236.323 58.7214C236.143 59.5903 236.923 59.8999 237.623 60.1097C238.424 60.3394 239.224 60.5092 239.914 61.0286C241.235 62.0174 241.405 63.4456 240.325 64.6941C238.894 66.3421 235.663 66.4819 234.082 64.9937C233.702 64.6341 233.642 64.3645 234.042 63.975C234.372 63.6454 234.552 63.0561 235.192 63.5655C235.983 64.1847 236.883 64.4244 237.884 64.1248C238.354 63.9849 238.704 63.7153 238.744 63.1859C238.784 62.6965 238.464 62.4169 238.064 62.2471C237.523 62.0273 236.973 61.8775 236.423 61.6878C234.772 61.1384 233.942 60.1596 234.072 58.8912C234.242 57.2532 235.392 56.2045 237.173 56.0646C237.343 56.0546 237.503 56.0646 237.633 56.0646L237.623 56.0447Z" fill="#041C42"/>
<path d="M215.204 56.0347C216.414 56.0347 217.625 56.0847 218.825 56.0148C219.646 55.9648 219.566 56.4542 219.526 56.9536C219.486 57.413 219.816 58.0822 218.845 58.0423C218.035 58.0123 216.925 57.6527 216.454 58.2021C215.924 58.8413 216.304 59.9499 216.284 60.8488C216.254 62.2172 216.214 63.5955 216.294 64.9638C216.354 65.8827 216.014 66.0225 215.184 66.0425C214.273 66.0625 214.083 65.7428 214.113 64.9039C214.173 62.9563 214.093 60.9987 214.153 59.041C214.173 58.242 213.983 57.8825 213.133 58.0123C212.803 58.0622 212.463 57.9724 212.132 58.0323C211.062 58.2121 210.772 57.7626 210.852 56.7439C210.902 56.0947 211.152 56.0048 211.692 56.0247C212.853 56.0547 214.023 56.0247 215.194 56.0247L215.204 56.0347Z" fill="#041C42"/>
<path d="M197.955 61.0787C197.955 62.4071 197.885 63.7354 197.975 65.0538C198.035 65.9927 197.585 66.0526 196.875 66.0226C196.255 65.9927 195.695 66.1625 195.725 65.1237C195.815 62.3871 195.815 59.6504 195.725 56.9238C195.695 55.895 196.235 56.0449 196.865 56.0249C197.565 55.9949 198.035 56.0349 197.975 56.9837C197.885 58.342 197.955 59.7204 197.955 61.0887V61.0787Z" fill="#041C42"/>
<path d="M232.251 161.775C232.121 161.965 232.011 162.145 231.891 162.295C231.52 162.744 231.17 163.214 230.76 163.623C223.587 170.804 216.394 177.966 209.241 185.167C208.46 185.956 208.05 185.946 207.28 185.167C203.408 181.222 199.486 177.306 195.535 173.441C194.744 172.662 194.744 172.133 195.515 171.414C196.485 170.505 197.436 169.566 198.336 168.587C198.876 168.008 199.226 168.088 199.747 168.617C202.288 171.194 204.879 173.721 207.41 176.308C208.05 176.967 208.43 177.007 209.101 176.328C215.063 170.285 221.066 164.292 227.038 158.27C227.669 157.631 228.159 157.441 228.849 158.25C229.72 159.259 230.72 160.147 231.65 161.086C231.851 161.286 232.021 161.516 232.241 161.785L232.251 161.775Z" fill="#041C42"/>
<path d="M214.013 81.9731C230.79 81.9731 247.568 81.9731 264.345 81.9731C270.258 81.9731 273.989 85.7186 273.989 91.6413C273.989 102.528 273.989 113.425 273.989 124.311C273.989 130.114 270.208 133.87 264.365 133.87C230.81 133.87 197.256 133.87 163.701 133.87C157.789 133.87 154.057 130.124 154.057 124.201C154.057 113.315 154.057 102.418 154.057 91.5314C154.057 85.7285 157.839 81.9731 163.681 81.9731C180.459 81.9731 197.236 81.9731 214.013 81.9731Z" fill="#F6C254"/>
<path d="M214.023 246.591C208.74 246.591 203.458 246.591 198.176 246.591C196.475 246.591 195.245 245.533 195.044 243.985C194.854 242.496 195.815 241.058 197.295 240.699C197.696 240.599 198.116 240.609 198.536 240.609C208.89 240.609 219.245 240.609 229.599 240.609C231.66 240.609 232.991 241.787 233.001 243.595C233.001 245.383 231.67 246.591 229.619 246.591C224.417 246.591 219.225 246.591 214.023 246.591Z" fill="white"/>
<path d="M195.955 172.802C197.145 171.514 197.966 169.886 199.036 169.696C200.047 169.516 200.947 171.274 201.887 172.193C203.788 174.05 205.669 175.938 207.49 177.876C208.1 178.535 208.42 178.485 209.02 177.876C215.033 171.783 221.096 165.731 227.098 159.628C227.779 158.939 228.139 158.879 228.779 159.638C229.439 160.427 230.28 161.066 231.24 161.945C227.358 165.741 223.587 169.376 219.875 173.062C216.244 176.657 212.652 180.293 209.081 183.958C208.43 184.627 208.11 184.627 207.44 183.958C203.598 180.163 199.696 176.428 195.945 172.802H195.955Z" fill="white"/>
<path d="M213.913 126.878C210.911 126.878 207.92 126.898 204.919 126.878C199.506 126.848 195.054 122.444 195.024 117.04C194.994 110.928 194.994 104.825 195.024 98.7128C195.054 93.4692 199.476 89.0047 204.749 88.9647C210.951 88.9148 217.154 88.9148 223.357 88.9647C228.419 89.0047 232.901 93.3593 232.981 98.4131C233.071 104.775 233.071 111.128 232.981 117.49C232.911 122.444 228.439 126.768 223.397 126.858C220.235 126.918 217.074 126.868 213.903 126.868L213.913 126.878Z" fill="#041C42"/>
<path d="M207.1 108.371C207.1 104.595 207.12 100.81 207.08 97.0345C207.08 96.2255 207.29 95.9658 208.11 95.9957C211.262 96.1456 214.433 95.756 217.575 96.2255C221.686 96.8347 224.868 100.45 224.928 104.555C224.988 108.68 221.816 112.386 217.665 113.125C216.084 113.404 214.513 113.295 212.943 113.305C212.232 113.305 211.992 113.554 212.002 114.243C212.032 116.071 211.962 117.899 212.032 119.727C212.062 120.626 211.752 120.875 210.902 120.815C209.951 120.745 208.981 120.745 208.03 120.815C207.22 120.875 207.07 120.566 207.08 119.827C207.11 116.001 207.1 112.186 207.1 108.361V108.371Z" fill="white"/>
</g>
<defs>
<clipPath id="clip0_707_10769">
<rect width="320" height="298" fill="white"/>
</clipPath>
</defs>
</svg>
