<svg viewBox="0 0 320 298" fill="none" xmlns="http://www.w3.org/2000/svg">
<path d="M0 297C0 198.395 0.0497656 99.7826 0.0197656 1.18801C0.0197656 0.129782 0.289766 0 1.25977 0C107.09 0.0299497 212.91 0.0299497 318.74 0H320C319.97 98.5946 320 198.856 320 297.461H318.32C307.74 297.461 297.16 297.481 286.58 297.461C284.97 297.461 284.6 297.171 284.2 295.654C283.01 291.072 278.62 288.386 274.69 288.466C268.9 288.576 263.11 288.496 257.32 288.496C256.82 288.496 256.32 288.496 255.82 288.446C255.05 288.346 254.63 287.917 254.54 287.148C254.47 286.609 254.48 286.07 254.48 285.531C254.48 239.119 254.48 192.707 254.48 146.295C254.48 143.439 254.62 143.3 257.54 143.3C271.58 143.3 285.61 143.3 299.65 143.3C302.51 143.3 304.96 142.331 306.89 140.235C308.52 138.468 309.45 136.371 309.45 133.925C309.45 118.95 309.44 103.986 309.45 89.0107C309.45 83.0606 304.37 79.3469 299.78 79.3568C266.63 79.4068 233.47 79.4068 200.32 79.3568C194.25 79.3568 190.37 84.4084 190.41 89.3102C190.52 103.906 190.5 118.501 190.41 133.107C190.39 137.27 192.6 141.363 197.1 142.87C197.18 142.9 197.26 142.92 197.33 142.96C197.68 143.15 198.23 143.23 198.13 143.739C198.06 144.128 197.57 144.178 197.2 144.248C195.35 144.587 193.48 144.577 191.61 144.757C187.19 145.186 182.76 145.536 178.33 145.925C174.36 146.275 170.39 146.674 166.42 147.043C162.08 147.453 157.74 147.932 153.41 148.431C148.41 149 143.42 149.589 138.43 150.238C132.12 151.057 125.83 151.975 119.57 153.103C116.17 153.722 112.79 154.401 109.44 155.21C107.94 155.569 107.39 155.269 106.82 153.852C106.22 152.384 105.7 150.897 105.18 149.409C104.69 148.002 105.06 147.363 106.52 147.103C112.74 146.025 118.96 144.917 125.19 143.819C132.93 142.461 140.67 141.113 148.4 139.716C151.92 139.087 155.45 138.538 158.96 137.839C164.27 136.781 167.53 131.949 166.56 126.628C165.1 118.541 163.75 110.435 162.26 102.348C162 100.971 161.45 99.7327 160.75 98.5546C160.45 98.0455 160.14 97.4964 160.33 96.9074C161.23 94.0921 160.33 91.3966 159.86 88.6712C158.68 81.8027 157.45 74.9343 156.23 68.0658C156 66.748 155.58 65.4901 154.83 64.362C154.48 63.8329 154.1 63.2738 154.24 62.6349C154.88 59.6998 154.26 56.8546 153.75 53.9994C152.49 47.0111 151.31 40.0129 150.01 33.0346C149.29 29.1711 145.22 25.627 141.08 25.6969C138.39 25.7468 135.8 26.3558 133.19 26.805C120.57 28.9814 107.96 31.2376 95.3398 33.4539C92.9198 33.8831 90.4898 34.2625 88.0898 34.7517C86.6298 35.0412 85.2998 34.8016 83.9498 34.2525C82.2598 33.5637 80.5498 32.8649 78.6598 32.9747C78.1698 33.0046 77.6098 32.8748 77.3598 33.4639C77.1298 34.0029 77.5998 34.2825 77.8898 34.6219C78.9198 35.8099 78.6998 36.359 76.9698 36.6685C71.8598 37.5969 66.7398 38.4854 61.6198 39.3839C53.9698 40.7317 46.3098 42.0794 38.6598 43.4271C29.6598 45.0145 20.6398 46.5719 11.6398 48.1792C7.15977 48.9778 4.25977 51.7332 3.36977 56.0559C2.97977 57.9328 3.44977 59.7797 3.77977 61.6066C5.09977 69.0042 6.35977 76.4118 7.71977 83.7994C7.92977 84.9175 8.24977 86.0057 8.86977 86.9441C9.57977 88.0223 9.87977 89.1105 9.49977 90.3584C8.93976 92.1554 9.47976 93.9124 9.78977 95.6495C11.0898 102.967 12.3498 110.285 13.6798 117.593C13.9698 119.17 14.4998 120.638 15.3198 122.005C15.6298 122.524 15.8698 123.064 15.7398 123.663C15.0798 126.677 15.7898 129.613 16.3098 132.548C17.4598 139.047 18.6598 145.536 19.7398 152.045C20.6998 157.785 25.6498 161.409 31.4098 160.311C38.8398 158.903 46.3098 157.695 53.7498 156.338C53.9998 156.298 54.2398 156.268 54.4898 156.248C55.8198 156.148 56.2898 156.587 56.0798 157.905C55.7298 160.161 55.2698 162.398 54.8698 164.644C53.6798 171.392 52.5598 178.151 51.7198 184.94C50.9098 191.469 49.4798 197.858 47.9198 204.227C44.6998 217.425 41.5498 230.633 38.3698 243.841C35.3098 256.56 32.2398 269.278 29.1898 281.997C28.1098 286.479 27.0398 290.962 25.9398 295.444C25.4998 297.231 25.2398 297.451 23.3698 297.451C16.2098 297.461 7.16 297 0 297Z" fill="#A1C9FF"/>
<path d="M-0.000244141 297C7.90976 297 15.8799 296.962 23.7899 297.012C24.8699 297.012 25.2599 296.692 25.4999 295.664C29.5599 278.672 33.6599 261.691 37.7399 244.709C41.7899 227.888 45.8899 211.076 49.8199 194.224C50.7799 190.111 51.1499 185.858 51.7399 181.665C52.8699 173.729 54.1699 165.832 55.6599 157.955C55.9299 156.507 55.9399 156.487 54.5499 156.727C46.7299 158.095 38.8999 159.442 31.0799 160.84C25.7199 161.799 20.5199 158.404 19.5199 153.053C17.9599 144.727 16.5199 136.381 15.0599 128.035C14.8699 126.967 14.7699 125.819 15.0999 124.811C15.5399 123.473 15.1699 122.504 14.4599 121.396C13.1599 119.34 13.1099 116.894 12.6999 114.578C11.4299 107.55 10.2299 100.511 8.97987 93.4831C8.72987 92.0955 8.86987 90.7577 9.21987 89.42C9.30987 89.0705 9.50987 88.7012 9.21987 88.3518C7.28987 86.0057 7.11987 83.0806 6.60987 80.2753C5.36987 73.3669 4.16987 66.4585 2.97987 59.5401C1.97987 53.7199 5.51987 48.7582 11.3599 47.7299C32.3699 44.0461 53.3799 40.3623 74.3899 36.6685C75.6999 36.4389 77.0099 36.1793 78.3299 35.9397C78.3299 35.4705 77.8899 35.3707 77.6599 35.1211C77.1599 34.562 76.4799 34.0329 76.8499 33.1943C77.2099 32.3857 78.0599 32.4256 78.8199 32.4356C80.5599 32.4555 82.2399 32.8649 83.7399 33.6635C85.4099 34.552 87.0099 34.4821 88.7799 34.1627C104.25 31.3973 119.73 28.6919 135.21 25.9664C136.44 25.7468 137.66 25.4972 138.89 25.2976C144.73 24.3491 149.7 27.993 150.72 33.8732C152.08 41.7699 153.5 49.6567 154.88 57.5534C155.16 59.1607 155.18 60.778 154.73 62.3753C154.63 62.7248 154.44 63.0542 154.75 63.4236C156.37 65.3703 156.7 67.7663 157.11 70.1523C158.42 77.6797 159.74 85.207 161.07 92.7244C161.29 93.9823 161.2 95.2202 160.88 96.4282C160.68 97.167 160.7 97.726 161.19 98.365C162.55 100.152 162.79 102.338 163.17 104.455C164.44 111.653 165.73 118.841 166.97 126.039C168.1 132.598 164.67 137.36 158.1 138.498C140.86 141.513 123.62 144.547 106.37 147.542C105.34 147.722 105.09 147.992 105.52 149.01C106.24 150.687 106.86 152.404 107.43 154.131C107.67 154.87 107.95 155.11 108.75 154.91C118.52 152.424 128.49 151.067 138.47 149.729C148.41 148.391 158.38 147.303 168.36 146.344C177.23 145.496 186.1 144.777 194.98 143.998C195.97 143.909 196.97 143.809 198.28 143.689C196.14 143.11 194.44 142.331 193.05 140.973C191.01 138.977 189.98 136.561 189.98 133.726C189.98 118.751 189.96 103.786 189.98 88.811C189.98 83.3202 194.4 78.9176 199.91 78.8976C206.87 78.8677 213.82 78.8976 220.78 78.8976C246.98 78.8976 273.18 78.8976 299.38 78.8976C305.7 78.8976 309.93 83.1305 309.93 89.4599C309.93 104.095 309.93 118.741 309.93 133.376C309.93 139.516 305.64 143.779 299.47 143.779C285.06 143.779 270.65 143.789 256.23 143.759C255.22 143.759 254.92 143.958 254.92 145.027C254.95 192.277 254.95 239.518 254.92 286.769C254.92 287.817 255.19 288.057 256.22 288.047C262.38 287.997 268.55 288.017 274.71 288.027C279.74 288.027 283.66 291.151 284.7 296.073C284.89 296.972 285.33 297.022 286.06 297.022C297.35 297.002 308.71 297 320 297V298C214.03 297.98 105.97 297.98 9.07481e-05 298L-0.000244141 297Z" fill="#041C42"/>
<path d="M244.97 216.007C244.97 239.548 244.97 263.079 245 286.619C245 287.777 244.68 288.027 243.57 288.017C237.45 287.957 231.33 287.987 225.2 287.997C220.15 287.997 216.28 291.102 215.21 296.043C215.05 296.802 214.73 297.002 213.97 297.002C188.94 296.982 163.91 296.982 138.88 296.982C138.41 296.982 137.95 297.111 137.61 296.502C135.2 292.15 131.26 289.794 126.62 288.556C125.2 288.176 124.99 287.607 125.06 286.28C125.67 274.24 126.2 262.2 126.76 250.15C127.31 238.44 127.92 226.73 128.38 215.019C128.58 209.728 129.41 204.627 131.53 199.755C134.6 192.687 139.54 187.725 147.06 185.329C155.32 182.703 163.74 180.856 172.23 179.209C182.77 177.173 193.37 175.555 204.03 174.287C207.54 173.868 211.06 173.549 214.59 173.269C215.55 173.199 216.23 172.84 216.86 172.201C219.5 169.555 221.4 166.381 223.22 163.156C226.57 157.216 229.39 151.027 231.92 144.707C232.22 143.948 232.57 143.729 233.35 143.729C236.81 143.769 240.26 143.789 243.72 143.719C244.76 143.699 245.01 143.968 245.01 145.007C244.98 168.667 244.98 192.327 244.98 215.998L244.97 216.007Z" fill="#A1C9FF"/>
<path d="M214.78 171.123C215.24 172.141 214.58 172.261 213.65 172.341C203.53 173.169 193.47 174.527 183.46 176.214C171 178.311 158.58 180.587 146.51 184.47C137.61 187.336 132.48 193.705 129.52 202.191C128.53 205.026 127.88 207.941 127.62 210.926C127.54 211.825 127.3 211.974 126.42 211.755C116.66 209.339 106.89 206.963 97.1199 204.577C82.2299 200.933 67.3399 197.279 52.4499 193.655C51.4599 193.415 51.0799 193.136 51.2499 191.968C52.6999 181.985 54.0899 172.001 55.9399 162.078C56.2399 160.491 56.5499 158.903 56.7799 157.296C56.8799 156.577 57.0999 156.228 57.8799 156.098C63.7399 155.1 69.5899 154.051 75.4399 153.003C76.2199 152.863 76.6399 153.033 76.5999 153.892C76.5999 154.012 76.6499 154.131 76.6799 154.261C77.1699 156.787 77.1799 156.857 79.6799 156.467C86.5199 155.389 93.1999 153.772 99.4099 150.597C100.59 149.998 101.72 149.28 102.83 148.551C104.04 147.762 104.04 147.742 104.52 149.05C105.29 151.156 106.08 153.243 106.83 155.359C107.07 156.028 107.27 156.338 108.15 156.108C115.71 154.091 123.43 152.883 131.17 151.745C140.35 150.398 149.56 149.28 158.78 148.331C167.84 147.403 176.91 146.554 185.99 145.765C194.12 145.057 202.25 144.498 210.38 143.829C211.28 143.759 211.61 143.958 211.72 144.877C212.72 153.582 213.76 162.288 214.8 171.133L214.78 171.123Z" fill="#A1C9FF"/>
<path d="M74.8 133.666C74.71 139.456 75.31 145.196 76.16 150.917C76.27 151.646 76.21 151.885 75.39 152.035C60.48 154.631 45.59 157.276 30.68 159.892C26.12 160.69 21.45 157.626 20.56 153.053C19.3 146.574 18.22 140.065 17.06 133.566C16.75 131.849 16.47 130.132 16.14 128.415C15.13 123.124 18.35 118.481 23.66 117.543C39.05 114.827 54.44 112.092 69.83 109.387C86.12 106.521 102.42 103.676 118.71 100.811C129.68 98.8842 140.65 96.9075 151.63 95.0406C156.38 94.232 160.89 97.4865 161.74 102.199C163.24 110.535 164.72 118.871 166.17 127.207C166.96 131.759 163.7 136.411 159.06 137.25C150.15 138.877 141.22 140.415 132.29 141.992C123.49 143.539 114.68 145.087 105.88 146.654C105.17 146.784 104.8 146.744 104.5 145.955C103.1 142.231 101.55 138.578 99.75 135.024C99.44 134.415 99.48 134.065 100.06 133.706C100.59 133.376 101.08 132.987 101.55 132.588C102.61 131.699 102.57 130.731 101.41 129.942C99.28 128.495 97.13 127.067 94.97 125.659C94.3 125.22 93.75 124.691 93.27 124.052C91.08 121.097 88.72 118.312 85.34 116.624C81.38 114.638 78.44 115.656 76.6 119.699C75.34 122.465 75 125.45 74.8 128.435C74.69 130.172 74.78 131.919 74.78 133.666H74.8Z" fill="white"/>
<path d="M125.78 250.4C125.2 262.649 124.62 274.899 124.07 287.148C124.04 287.767 123.92 288.007 123.23 287.997C115.82 287.817 108.41 287.667 101 287.528C100.38 287.518 100.26 287.278 100.24 286.719C99.9099 279.122 99.4099 271.534 98.5099 263.977C97.1799 252.706 95.4799 241.515 91.7099 230.743C90.7599 228.037 89.6199 225.412 87.9299 223.066C87.6899 222.726 87.4199 222.407 87.1399 222.107C84.7499 219.522 82.8199 219.442 80.3599 221.928C77.5799 224.723 75.5299 228.057 73.5699 231.432C65.7899 244.799 59.5899 258.925 53.7899 273.222C51.7499 278.253 49.8399 283.335 48.0399 288.466C47.8499 289.025 47.7299 289.464 46.8899 289.404C41.2899 288.955 35.6799 288.596 30.0799 288.196C28.3299 288.077 28.3399 288.077 28.7399 286.409C34.4299 262.739 40.1199 239.059 45.8099 215.389C47.3999 208.78 49.0099 202.171 50.5599 195.542C50.8099 194.464 51.1999 194.334 52.2399 194.593C76.8799 200.653 101.54 206.683 126.2 212.663C127.37 212.953 127.52 213.462 127.47 214.53C126.87 226.49 126.32 238.45 125.76 250.4C125.76 250.4 125.77 250.4 125.78 250.4Z" fill="#CAE0FF"/>
<path d="M15.9501 121.875C14.8601 120.518 14.4801 118.97 14.2001 117.373C12.8201 109.436 11.3701 101.52 10.0301 93.573C9.18009 88.5713 12.3001 84.0789 17.2601 83.1904C28.2201 81.2137 39.2001 79.3269 50.1701 77.3901C62.7001 75.1838 75.2301 72.9775 87.7601 70.7812C100.86 68.4751 113.96 66.1789 127.07 63.8828C133.29 62.7946 139.5 61.5966 145.74 60.6482C150.49 59.9194 154.82 63.1141 155.69 67.8561C157.21 76.1821 158.62 84.5381 160.1 92.8741C160.28 93.8824 160.17 94.8608 160.02 95.8491C159.94 96.3982 159.81 96.6478 159.26 96.1985C156.22 93.6828 152.79 93.7227 149.11 94.3916C135.98 96.7876 122.83 99.0338 109.68 101.36C97.6401 103.486 85.6101 105.633 73.5801 107.749C58.2301 110.455 42.8701 113.13 27.5101 115.826C26.0401 116.085 24.5501 116.305 23.0901 116.614C20.3201 117.193 18.1001 118.621 16.5401 121.007C16.3601 121.276 16.1701 121.546 15.9401 121.875H15.9501Z" fill="white"/>
<path d="M9.92 87.4833C8.36 85.6763 8.21 83.48 7.83 81.3735C6.52 74.0558 5.28 66.7381 3.97 59.4203C3.06 54.2989 6.13 49.7266 11.31 48.7682C17.11 47.69 22.93 46.7217 28.75 45.6934C41.32 43.4771 53.88 41.2608 66.45 39.0445C72.22 38.0262 77.99 37.008 83.77 35.9996C84.05 35.9497 84.34 35.9397 84.74 35.9098C84.44 36.8582 84.14 37.6868 83.91 38.5454C83.67 39.4439 83.51 40.4222 84.35 41.0811C85.21 41.76 86.18 41.5004 87.05 41.0013C87.65 40.6518 88.18 40.1826 88.74 39.7733C89.56 41.7001 90.74 41.9796 92.49 40.6718C93.46 39.943 94.17 38.9747 94.95 37.9663C95.18 39.0146 95.32 40.0828 96.48 40.3723C97.72 40.6818 98.62 39.9929 99.45 39.1843C100.23 38.4156 100.79 37.4971 101.35 36.5687C103.06 37.8166 104.64 37.7267 106.34 36.2692C107.59 35.191 108.5 33.8532 109.15 32.3558C109.42 31.7268 109.8 31.4073 110.48 31.2876C120.06 29.6203 129.63 27.8733 139.22 26.256C144.32 25.3974 148.71 28.5422 149.64 33.6236C151.13 41.75 152.54 49.8863 153.95 58.0227C154.18 59.3704 154.19 60.7381 153.71 62.1857C151.12 60.0094 148.24 59.1308 144.96 59.6799C143.4 59.9395 141.85 60.229 140.29 60.5085C128.71 62.5551 117.12 64.5917 105.54 66.6382C94.41 68.6049 83.27 70.5716 72.14 72.5284C60.11 74.6448 48.07 76.7613 36.04 78.8777C29.74 79.9858 23.43 81.0541 17.13 82.2021C13.92 82.7812 11.55 84.6181 9.92 87.4833Z" fill="white"/>
<path d="M232.45 130.711C232.91 128.404 233.41 126.108 233.83 123.802C234.08 122.375 234.33 120.937 234.22 119.479C234.16 118.691 233.93 117.962 233 117.842C232.15 117.732 231.73 118.291 231.46 119.01C231.11 119.929 230.75 120.837 230.24 121.736C230.24 120.638 230.23 119.539 230.24 118.441C230.25 117.682 229.94 117.103 229.24 116.884C228.5 116.654 228.09 117.243 227.77 117.782C227.06 118.94 226.62 120.228 225.98 121.486C225.98 120.548 226 119.619 225.98 118.681C225.96 118.132 225.8 117.583 225.2 117.383C224.61 117.183 224.25 117.623 223.95 118.002C222.79 119.459 222.29 121.246 221.69 122.964C220.71 125.779 219.85 128.634 218.83 131.819C218.67 130.152 218.85 128.804 218.51 127.506C218.29 126.687 218.38 125.509 217.36 125.39C216.27 125.27 215.83 126.328 215.49 127.246C214.98 128.614 214.66 130.022 214.51 131.469C214.42 132.398 214.07 132.847 213.01 132.807C210.39 132.727 207.76 132.797 205.14 132.777C202.65 132.757 201.02 131.12 201.02 128.594C201.02 117.073 201.02 105.553 201.02 94.0421C201.02 91.5264 202.65 89.8691 205.15 89.8691C235.05 89.8691 264.95 89.8691 294.86 89.8691C297.35 89.8691 298.99 91.5264 298.99 94.0421C298.99 105.563 298.99 117.083 298.99 128.594C298.99 131.17 297.35 132.777 294.74 132.777C275.71 132.777 256.68 132.777 237.64 132.797C236.53 132.797 236.14 132.597 236.5 131.419C236.85 130.281 237.04 129.083 237.22 127.895C237.33 127.117 237.39 126.198 236.47 125.859C235.58 125.529 235.13 126.258 234.7 126.897C233.89 128.105 233.31 129.433 232.5 130.701L232.45 130.711Z" fill="#004079"/>
<path d="M232.79 142.76C233.79 139.865 234.75 137.09 235.68 134.305C235.81 133.915 235.98 133.756 236.37 133.776C236.7 133.785 237.04 133.776 237.37 133.776C256.36 133.776 275.36 133.776 294.35 133.776C297.97 133.776 299.95 131.779 299.95 128.135C299.95 116.904 299.95 105.673 299.95 94.4515C299.95 90.8775 297.96 88.8609 294.42 88.8609C264.76 88.8609 235.11 88.8609 205.45 88.8609C202.06 88.8609 199.99 90.9074 199.99 94.2618C199.99 105.653 199.99 117.054 199.99 128.444C199.99 131.659 202.08 133.756 205.28 133.766C207.9 133.766 210.53 133.785 213.15 133.756C213.87 133.756 214.11 133.915 213.94 134.664C213.41 137.1 212.82 139.516 211.99 141.872C211.77 142.491 211.51 142.78 210.77 142.77C207.11 142.72 203.44 142.79 199.77 142.74C194.97 142.671 191 138.767 190.99 133.975C190.95 118.881 190.95 103.786 190.99 88.6812C191 83.6696 195.05 79.866 200.23 79.866C229.14 79.866 258.04 79.866 286.95 79.866C291.2 79.866 295.45 79.866 299.7 79.866C305.03 79.876 308.94 83.7594 308.94 89.0605C308.94 103.906 308.95 118.751 308.94 133.606C308.94 138.787 305.04 142.74 299.9 142.75C277.78 142.76 255.67 142.75 233.55 142.75H232.79V142.76Z" fill="#F6C254"/>
<path d="M79.86 296.982C73.74 296.982 67.62 296.972 61.5 297.002C60.75 297.002 60.36 296.802 59.98 296.123C58.8 293.997 56.79 292.779 54.68 291.751C53.15 291.002 51.57 290.353 49.89 290.003C48.84 289.784 48.74 289.365 49.07 288.426C52.64 278.473 56.55 268.649 60.86 258.986C65.36 248.902 70.05 238.919 75.9 229.525C77.5 226.949 79.15 224.394 81.41 222.327C83.21 220.69 84.4 220.73 86.11 222.497C87.82 224.254 88.86 226.43 89.79 228.656C92.62 235.435 94.17 242.573 95.44 249.761C98.13 264.975 99.18 280.33 99.51 295.754C99.53 296.862 99.18 297.012 98.2 297.002C92.08 296.962 85.96 296.982 79.84 296.982H79.86Z" fill="#A1C9FF"/>
<path d="M245.97 215.878C245.97 192.307 245.97 168.737 245.95 145.157C245.95 144.058 246.17 143.659 247.35 143.719C249.26 143.829 251.18 143.779 253.09 143.729C253.82 143.709 254.07 143.949 253.97 144.647C253.94 144.847 253.97 145.067 253.97 145.266C253.97 192.327 253.97 239.388 254 286.449C254 287.667 253.78 288.107 252.47 288.007C250.69 287.877 248.89 287.917 247.1 288.007C246.14 288.057 245.95 287.747 245.95 286.829C245.98 276.935 245.97 267.042 245.97 257.149V215.868V215.878Z" fill="#F6C254"/>
<path d="M217.13 126.378C217.66 127.536 217.67 128.694 217.67 129.832C217.67 131.829 217.55 133.816 217.51 135.812C217.51 136.222 217.23 136.851 217.86 136.98C218.58 137.12 218.56 136.391 218.69 135.962C220.13 131.16 221.44 126.308 223.24 121.616C223.65 120.558 224.04 119.48 224.92 118.401C225.22 120.528 224.88 122.395 224.62 124.262C224.05 128.335 222.9 132.298 222.43 136.391C222.38 136.821 222.11 137.42 222.72 137.559C223.44 137.729 223.41 137.02 223.51 136.561C224.72 131.31 225.73 126.009 227.48 120.887C227.84 119.839 228.16 118.761 229.08 117.792C229.4 118.691 229.38 119.49 229.32 120.298C228.97 125.46 227.7 130.451 226.64 135.493C226.49 136.222 226.34 136.95 226.2 137.689C226.13 138.078 225.89 138.588 226.48 138.727C227.06 138.867 227.11 138.308 227.21 137.929C227.81 135.553 228.39 133.177 229 130.811C229.89 127.356 230.76 123.902 231.94 120.528C232.04 120.258 232.12 119.969 232.24 119.709C232.4 119.36 232.41 118.751 232.94 118.861C233.37 118.951 233.22 119.5 233.22 119.849C233.21 121.936 232.85 123.982 232.4 126.009C231.51 130.062 230.55 134.095 229.62 138.138C229.59 138.258 229.51 138.378 229.52 138.498C229.52 138.957 229.05 139.586 229.72 139.806C230.39 140.025 230.47 139.296 230.64 138.867C231.7 136.172 232.69 133.436 233.81 130.771C234.37 129.433 234.89 128.025 236.12 126.797C236.28 128.345 235.94 129.613 235.61 130.871C233.6 138.478 230.6 145.716 227.33 152.844C224.99 157.935 222.48 162.947 219.32 167.589C218.37 168.997 217.38 170.374 216.03 171.572C215.58 170.804 215.68 169.995 215.59 169.246C214.55 160.79 213.56 152.335 212.56 143.879C212.53 143.589 212.51 143.31 212.63 143.02C214.31 138.827 215.03 134.405 215.76 129.982C215.97 128.734 216.21 127.456 217.15 126.368L217.13 126.378Z" fill="#CAE0FF"/>
<path d="M216.1 296.912C216.63 292.31 220.37 289.005 225.05 288.995C234.21 288.975 243.36 288.995 252.52 288.995C260.01 288.995 267.5 288.975 275 288.995C279.19 289.015 282.81 291.91 283.72 295.864C283.9 296.642 283.9 297.002 282.87 297.002C260.89 296.972 238.92 296.982 216.94 296.972C216.66 296.972 216.38 296.932 216.09 296.912H216.1Z" fill="#F6C254"/>
<path d="M85.9499 138.627C84.0699 137.879 82.5999 136.94 82.5999 134.944C82.5999 133.536 83.2199 132.188 84.5499 131.529C86.3499 130.631 87.4699 132.038 88.6099 133.047C88.9099 132.967 88.9799 132.757 88.9799 132.558C88.9999 131.699 89.2199 131.479 90.1699 131.789C92.0699 132.418 93.8899 131.949 95.4399 130.711C95.9999 130.261 96.1799 130.291 96.4799 130.91C97.2499 132.468 98.0499 134.025 98.9099 135.533C99.3499 136.301 98.9899 136.551 98.3599 136.761C96.8599 137.24 95.4899 136.83 94.1499 136.181C93.8499 136.042 93.5499 135.882 93.2799 135.692C92.9399 135.453 92.7099 135.453 92.4699 135.832C92.2299 136.201 92.4699 136.361 92.7199 136.511C94.6699 137.669 96.6899 138.528 98.9599 137.559C99.6899 137.25 99.8599 137.509 100.1 138.078C101.19 140.684 102.27 143.28 103.42 145.855C103.79 146.684 103.28 146.983 102.78 147.353C99.5399 149.759 95.8699 151.296 92.0699 152.544C87.7499 153.962 83.3399 154.96 78.8399 155.559C78.3099 155.629 77.8999 155.759 77.7699 154.99C76.9799 150.068 76.2799 145.146 75.9399 139.935C79.6899 142.241 82.8899 141.323 85.9499 138.627Z" fill="#CAE0FF"/>
<path d="M136.59 296.982H135.5C124.26 296.982 113.03 296.972 101.79 297.002C100.78 297.002 100.45 296.792 100.47 295.734C100.51 293.617 100.4 291.501 100.3 289.384C100.26 288.676 100.47 288.476 101.18 288.496C108.87 288.676 116.59 288.556 124.26 289.095C129.07 289.434 133.18 291.87 136.12 295.884C136.33 296.163 136.6 296.453 136.59 296.982Z" fill="#CAE0FF"/>
<path d="M88.1999 131.09C84.9499 129.912 83.7299 130.152 82.4999 132.168C80.9099 134.784 81.2699 136.451 83.9099 138.867C81.4999 140.714 78.4599 140.724 76.3799 138.877C76.0699 138.597 75.7799 138.348 75.7699 137.859C75.6599 132.627 75.4299 127.386 76.7599 122.245C77.0899 120.957 77.5799 119.719 78.3499 118.611C80.2599 115.885 84.4199 116.075 86.5099 119.01C87.9899 121.097 88.2899 123.543 88.4699 125.989C88.5899 127.686 88.5199 129.393 88.1999 131.07V131.09Z" fill="#CAE0FF"/>
<path d="M59.2901 296.982H53.2001C44.59 296.982 35.9801 296.972 27.3701 297.002C26.4401 297.002 26.1401 296.882 26.4301 295.864C26.9901 293.917 27.3901 291.92 27.8601 289.943C27.9901 289.404 28.1 288.985 28.88 289.055C35.05 289.544 41.2501 289.814 47.4001 290.503C51.3501 290.952 55.0301 292.449 58.0401 295.215C58.5201 295.664 58.96 296.163 59.2901 296.982Z" fill="#CAE0FF"/>
<path d="M101.77 33.1145C100.99 35.3008 100.07 37.1877 98.5101 38.6852C98.0001 39.1743 97.4001 39.7034 96.6401 39.3441C95.9301 39.0046 96.0101 38.2359 96.0301 37.577C96.1301 34.4223 96.5901 33.9132 99.7101 33.444C100.32 33.3541 100.93 33.2443 101.76 33.1145H101.77Z" fill="#CAE0FF"/>
<path d="M95.77 34.1228C94.89 36.2992 93.83 38.1061 92.26 39.5737C91.91 39.9031 91.46 40.1726 91.01 40.3523C90.28 40.6419 89.86 40.3124 89.92 39.5437C90.04 37.9963 90.72 36.5986 91.27 35.181C91.38 34.9015 91.63 34.8416 91.87 34.8017C93.09 34.582 94.31 34.3724 95.77 34.1228Z" fill="#CAE0FF"/>
<path d="M90.1299 35.3308C89.4399 37.2376 88.45 38.9048 86.73 40.0529C86.21 40.4023 85.59 40.7217 85.01 40.2725C84.5 39.8832 84.7599 39.2642 84.8799 38.765C85.5299 35.9498 85.57 35.9198 88.44 35.4606C88.96 35.3807 89.4599 35.0812 90.1299 35.3308Z" fill="#CAE0FF"/>
<path d="M88.3801 120.089C90.2801 121.746 91.8501 123.633 93.2501 125.779C91.9101 126.109 90.6801 126.458 89.5601 127.466C89.4201 124.861 89.2201 122.425 88.3701 120.089H88.3801Z" fill="#CAE0FF"/>
<path d="M108.17 32.1262C107.14 34.013 106.21 35.5505 104.39 36.2593C103.84 36.4689 103.21 36.6786 102.73 36.2792C102.2 35.84 102.6 35.221 102.71 34.6719C102.97 33.414 103.54 32.6254 105 32.6254C105.97 32.6254 106.94 32.3259 108.16 32.1162L108.17 32.1262Z" fill="#CAE0FF"/>
<path d="M95.91 127.496C97.59 128.614 99.27 129.722 100.95 130.84C101.22 131.02 101.44 131.32 101.18 131.559C100.54 132.138 99.86 132.697 99.12 133.137C98.72 133.376 98.66 132.787 98.52 132.548C97.59 130.93 96.7 129.293 95.8 127.666L95.92 127.496H95.91Z" fill="#CAE0FF"/>
<path d="M91.8699 127.306C91.5499 128.604 91.7299 129.782 92.6699 130.751C91.3199 131.29 89.7499 130.97 89.4799 130.142C89.1799 129.213 90.2699 127.885 91.8599 127.306H91.8699Z" fill="#CAE0FF"/>
<path d="M83.4199 34.6119C80.6899 35.9197 79.0599 35.6402 77.8799 33.6635C79.2899 33.2043 80.8799 33.4738 83.4199 34.6119Z" fill="#CAE0FF"/>
<path d="M84.5501 95.7495C86.1201 95.4899 87.4101 95.3601 88.6501 95.0506C89.8901 94.7312 89.4901 95.7295 89.6901 96.2087C90.0001 96.9474 89.4401 96.9974 88.9201 97.0872C87.0401 97.4067 85.1601 97.776 83.2701 98.0556C82.8401 98.1155 82.1901 98.5747 81.9301 97.9757C81.6801 97.4067 81.5601 96.7278 82.0301 96.0889C82.9601 94.821 83.8401 93.5032 84.7201 92.1954C85.1401 91.5764 85.5501 90.9475 85.7101 90.1988C85.8501 89.5598 85.7901 88.9409 85.2601 88.4816C84.7601 88.0424 84.1901 88.1522 83.6101 88.3618C83.1301 88.5316 82.6801 88.7911 82.3801 89.1805C81.8901 89.8094 81.5301 89.6697 80.9801 89.2204C80.3601 88.7013 80.1501 88.3718 80.8801 87.7329C81.7201 86.9941 82.6201 86.485 83.7001 86.2554C85.1401 85.9559 86.4801 86.0857 87.4201 87.3236C88.3401 88.5316 88.2501 89.8793 87.6201 91.2071C87.0301 92.455 86.1401 93.5032 85.3201 94.6014C85.1001 94.8909 84.9101 95.2004 84.5401 95.7495H84.5501Z" fill="#041C42"/>
<path d="M77.8599 54.6882C77.4399 55.1774 77.0999 55.4869 76.8499 55.8663C76.3699 56.605 75.9799 56.6849 75.2599 56.036C74.4199 55.2773 75.1899 54.9977 75.5199 54.5784C76.0099 53.9595 76.5999 53.4204 77.0599 52.7814C77.5699 52.0726 78.2799 51.873 79.0699 51.7132C79.5899 51.6134 79.8099 51.7532 79.8999 52.2923C80.4699 55.6466 81.1099 58.981 81.6499 62.3354C81.8199 63.4036 80.7599 62.8545 80.3099 63.0742C79.9399 63.2539 79.3799 63.4236 79.2499 62.565C78.8599 59.9893 78.3599 57.4436 77.8699 54.6783L77.8599 54.6882Z" fill="#041C42"/>
<path d="M269.15 101.001C268.7 101.53 268.24 102.159 267.69 102.718C263.14 107.29 258.58 111.842 254.01 116.405C251.36 119.05 248.69 121.676 246.07 124.361C245.42 125.03 245.04 125.04 244.38 124.361C240.41 120.328 236.4 116.335 232.37 112.362C231.69 111.693 231.73 111.203 232.34 110.604C233.32 109.636 234.32 108.698 235.24 107.679C235.81 107.06 236.18 107.13 236.75 107.699C239.23 110.225 241.77 112.681 244.23 115.227C244.98 115.995 245.4 116.065 246.19 115.257C252.11 109.237 258.09 103.267 264.04 97.2668C264.62 96.6878 265.1 96.4682 265.77 97.2369C266.67 98.2652 267.7 99.1936 268.66 100.162C268.86 100.362 269.12 100.531 269.14 100.991L269.15 101.001Z" fill="#041C42"/>
<path d="M268.23 100.961C264.31 104.794 260.54 108.438 256.82 112.132C253.22 115.706 249.65 119.31 246.11 122.934C245.48 123.583 245.12 123.752 244.38 122.994C240.82 119.32 237.21 115.706 233.58 112.092C233.1 111.613 232.99 111.343 233.56 110.864C234.41 110.145 235.13 108.787 236 108.708C236.91 108.618 237.63 110.045 238.42 110.824C240.37 112.751 242.33 114.678 244.2 116.684C244.95 117.483 245.35 117.593 246.18 116.744C252.12 110.684 258.12 104.694 264.08 98.6644C264.68 98.0654 265.02 97.8158 265.68 98.6245C266.36 99.4431 267.25 100.092 268.22 100.971L268.23 100.961Z" fill="white"/>
</svg>
