<svg width="320" height="298" viewBox="0 0 320 298" fill="none" xmlns="http://www.w3.org/2000/svg">
<path d="M320 0V297C319.5 297.01 317.521 297.46 317.021 297.46C251.7 297.46 186.369 297.46 121.049 297.46C118.728 297.46 117.568 296.311 117.568 294.014C117.568 279.211 117.568 264.418 117.568 249.615C117.568 246.758 117.728 246.638 120.618 246.588C122.479 246.558 124.36 246.818 126.21 246.358C129.671 245.499 131.962 242.253 131.532 238.807C131.092 235.261 128.131 232.634 124.54 232.604C124.46 232.604 124.37 232.594 124.29 232.604C121.659 232.994 119.788 232.195 118.278 229.787C116.727 227.31 114.036 225.992 111.356 224.873C110.895 224.683 110.425 224.523 109.945 224.364C106.934 223.375 106.974 223.365 107.274 220.218C107.444 218.44 107.474 216.652 107.524 214.874C107.634 210.23 107.944 205.585 108.115 200.94C108.335 195.177 108.625 189.414 108.875 183.65C109.095 178.466 109.365 173.292 109.605 168.108C109.855 162.674 110.125 157.25 110.355 151.816C110.545 147.342 110.845 142.887 112.216 138.552C114.527 131.3 118.428 125.377 125.26 121.621C128.721 119.713 131.922 117.386 135.463 115.588C139.875 113.35 144.596 112.292 149.438 111.652C152.319 111.273 155.21 110.903 158.12 110.893C160.161 110.893 160.501 111.243 160.501 113.31C160.511 117.805 160.501 122.29 160.501 126.785C160.501 132.049 164.853 136.344 170.124 136.344C213.258 136.324 256.392 136.344 299.526 136.324C304.527 136.324 308.138 133.408 309.289 128.543C309.409 128.044 309.419 127.554 309.419 127.065C309.419 118.664 309.429 110.274 309.419 101.874C309.419 96.1401 304.487 92.3844 299.856 92.3944C267.966 92.4244 236.075 92.4144 204.175 92.4144C201.344 92.4144 198.563 91.7052 195.722 91.895C194.932 91.9449 194.152 92.0847 193.362 92.0348C193.022 92.0148 192.611 91.9549 192.551 91.5853C192.481 91.1958 192.892 91.0459 193.192 90.9461C194.482 90.4766 195.852 90.2968 197.183 89.9572C198.433 89.6276 199.674 89.2879 200.864 88.7985C201.274 88.6287 201.784 88.4889 201.724 87.8796C201.674 87.3502 201.204 87.2902 200.814 87.1604C199.424 86.7009 197.983 86.4412 196.533 86.4412C194.862 86.4412 193.212 86.3014 191.551 86.1515C191.221 86.1216 190.891 86.0816 190.591 85.9218C190.191 85.702 190.171 85.4423 190.531 85.1726C190.871 84.9129 191.271 84.8031 191.681 84.7032C193.342 84.2937 194.972 83.8042 196.543 83.145C196.893 82.9951 197.283 82.8853 197.513 82.5956C198.403 81.4669 199.624 81.4469 200.904 81.4469C233.835 81.4469 266.775 81.4569 299.706 81.4469C303.367 81.4469 306.198 79.8687 308.098 76.7423C308.969 75.3039 309.429 73.7257 309.429 72.0077C309.409 63.7371 309.389 55.4566 309.429 47.1861C309.459 41.143 304.277 37.4771 299.676 37.4871C276.148 37.5571 252.631 37.5171 229.103 37.5171C228.563 37.5171 228.023 37.4771 227.483 37.5171C226.072 37.627 225.232 36.9977 224.742 35.6792C223.651 32.7226 222.031 30.0556 219.92 27.7283C215.349 22.6641 209.697 19.6275 202.875 18.7785C197.833 18.1492 193.002 18.8285 188.38 20.8861C181.988 23.7329 177.417 28.4375 174.566 34.8102C173.365 37.4771 173.415 37.5071 170.424 37.5171C165.403 37.5371 161.792 40.4138 160.641 45.2682C160.511 45.8076 160.511 46.337 160.501 46.8764C160.491 52.3202 160.501 57.764 160.501 63.2177C160.501 63.6772 160.501 64.1367 160.481 64.5862C160.431 65.575 159.931 66.1544 158.931 66.1644C157.22 66.1644 155.54 66.494 153.829 66.464C150.628 66.4141 147.457 66.9135 144.266 67.1233C142.696 67.2331 141.115 67.2831 139.535 67.403C134.603 67.7725 129.681 68.1521 124.76 68.6315C117.227 69.3607 109.755 70.4495 102.333 71.9278C97.3211 72.9266 92.3495 74.1053 87.4179 75.4538C87.0578 75.5536 86.6977 75.6535 86.3276 75.7334C84.8971 76.0231 84.487 75.8633 83.8468 74.5348C83.2466 73.2962 82.7064 72.0377 82.0962 70.8091C81.596 69.8002 81.8261 69.0011 82.6864 68.2819C84.9171 66.3841 84.9071 66.3442 82.4663 64.726C81.0759 63.8071 79.7254 62.8481 78.295 61.9891C76.8045 61.0902 75.6441 59.8716 74.6238 58.4831C73.2434 56.5953 71.6529 54.9072 69.7523 53.5088C68.7419 52.7597 67.6616 52.1504 66.4612 51.7608C63.5203 50.8119 61.3496 51.6809 59.9191 54.4378C58.8388 56.5354 58.3586 58.8128 58.0785 61.1201C57.5784 65.2554 57.7384 69.4206 57.8585 73.5659C57.9385 76.6224 58.2686 79.6889 58.7187 82.7254C58.9388 84.1738 58.6487 85.2526 57.4483 86.2314C54.4674 88.6687 52.0566 91.6552 49.7859 94.7317C43.1938 103.642 37.8421 113.221 34.431 123.808C33.8008 125.776 32.9605 127.744 33.1206 129.862C33.4407 133.997 33.4307 138.152 33.7808 142.287C33.9508 144.315 33.9608 146.353 34.0209 148.38C34.1509 152.695 34.481 157.001 34.6411 161.306C34.8411 166.779 35.1012 172.243 35.3813 177.717C35.6414 182.681 35.8915 187.656 36.1215 192.63C36.3616 197.804 36.5717 202.988 36.8618 208.162C37.1619 213.546 37.3819 218.93 37.652 224.314C37.7621 226.421 37.662 228.549 37.9721 230.646C38.1622 231.955 37.672 232.524 36.3416 232.574C34.0909 232.654 31.8502 232.574 29.5994 232.604C25.5482 232.654 22.4572 235.91 22.6072 239.946C22.7373 243.542 25.8282 246.548 29.4294 246.588C31.7601 246.618 34.0909 246.578 36.4216 246.608C38.1622 246.628 38.5623 247.008 38.5723 248.756C38.6023 253.83 38.5723 258.904 38.5723 263.968C38.5723 273.947 38.5723 283.925 38.5723 293.904C38.5723 294.364 38.5723 294.823 38.5723 295.272C38.5323 297.03 38.1622 297.4 36.4516 297.45C36.3716 297.45 36.2816 297.45 36.2016 297.45C24.7979 297.45 13.3843 297.45 1.98063 297.45C1.28041 297.45 5.9925e-05 297 5.9925e-05 297C5.9925e-05 297 0 295.932 0 295.482C0 197.624 0 97.8582 0 0C105.534 0 214.466 0 320 0Z" fill="#A1C9FF"/>
<path d="M0 297C12.1939 297 24.5679 296.97 36.7618 297C37.8021 297 38.1522 296.831 38.1422 295.682C38.0922 279.93 38.1022 264.168 38.1422 248.416C38.1422 247.317 37.8921 247.018 36.7918 247.058C34.421 247.147 32.0503 247.107 29.6695 247.088C25.4181 247.048 22.1171 243.751 22.1271 239.586C22.1371 235.411 25.4382 232.155 29.7095 232.125C32.0403 232.105 34.371 232.095 36.7017 232.135C37.412 232.145 37.612 231.945 37.582 231.226C37.1219 222.216 36.6817 213.216 36.2416 204.207C35.8615 196.445 35.4914 188.684 35.1212 180.923C34.5711 169.506 34.0209 158.099 33.4607 146.682C33.1806 140.869 32.8605 135.066 32.6304 129.252C32.5704 127.754 33.1706 126.326 33.6208 124.917C38.1722 110.763 45.3245 98.1178 55.5978 87.3001C55.9979 86.8806 56.368 86.3712 56.8682 86.1015C58.4287 85.2624 58.4387 84.0438 58.2486 82.4656C57.3283 74.8643 56.7181 67.243 57.8685 59.6118C58.1586 57.674 58.6788 55.7961 59.6191 54.0581C61.1395 51.2513 63.4803 50.2924 66.5313 51.2613C69.3622 52.1703 71.7429 53.9282 73.3735 56.2656C76.0343 60.1012 79.8655 62.3686 83.5667 64.8558C85.3273 66.0344 85.3573 66.8834 83.6667 68.172C82.5664 69.011 82.3096 70.0665 82.8965 71.3384C83.4167 72.4671 83.9768 73.5858 84.417 74.7445C84.7271 75.5436 85.1472 75.6334 85.9175 75.4137C99.4718 71.5881 113.286 69.1608 127.321 67.9223C133.913 67.3429 140.515 66.9634 147.107 66.434C151.088 66.1143 155.08 65.9146 159.071 65.8346C159.961 65.8147 160.061 65.4751 160.051 64.7459C160.031 58.9725 160.041 53.1891 160.041 47.4157C160.041 41.3626 164.342 36.9377 170.414 37.1274C172.605 37.1974 173.455 36.4982 174.286 34.5404C178.667 24.1323 189.01 17.7796 200.624 18.1192C211.618 18.4388 221.631 25.6406 225.392 35.9987C225.712 36.8777 226.112 37.0775 226.972 37.0775C251.12 37.0575 275.268 37.0575 299.416 37.0575C305.668 37.0575 309.939 41.2927 309.939 47.5156C309.939 55.5364 309.939 63.5572 309.939 71.5881C309.939 77.6511 305.648 81.9562 299.586 81.9562C266.365 81.9562 233.144 81.9562 199.914 81.9562C199.234 81.9562 198.633 81.8563 198.183 82.7054C197.773 83.4745 196.773 83.6942 195.953 83.9639C194.152 84.5433 192.331 85.0527 190.511 85.5921C190.511 85.6919 190.511 85.8018 190.511 85.9017C192.021 85.9017 193.532 85.8917 195.042 85.9017C196.713 85.9217 198.363 86.1015 199.994 86.4311C200.514 86.541 201.024 86.7208 201.534 86.9106C202.015 87.0904 202.465 87.38 202.495 87.9394C202.525 88.5287 202.055 88.7784 201.594 89.0182C200.254 89.7074 198.783 90.037 197.343 90.4165C195.863 90.8061 194.362 91.1357 192.882 91.5652C195.452 91.5153 198.023 91.2955 200.574 91.6751C202.935 92.0247 205.306 91.9348 207.666 91.9348C238.226 91.9348 268.786 91.9348 299.336 91.9348C305.678 91.9348 309.929 96.15 309.929 102.443C309.929 110.464 309.929 118.484 309.929 126.515C309.929 132.498 305.618 136.834 299.646 136.834C256.512 136.834 213.388 136.834 170.254 136.834C164.433 136.834 160.071 132.488 160.051 126.685C160.041 122.03 160.021 117.376 160.071 112.721C160.081 111.752 159.941 111.363 158.821 111.383C148.257 111.622 138.154 113.43 129.311 119.753C128.031 120.672 126.67 121.491 125.28 122.24C119.488 125.357 115.937 130.301 113.556 136.264C111.546 141.288 111.095 146.552 110.865 151.886C110.075 169.866 109.215 187.835 108.385 205.805C108.135 211.238 107.904 216.682 107.614 222.116C107.564 222.995 107.814 223.305 108.675 223.524C112.836 224.593 116.677 226.421 119.098 230.057C120.308 231.885 121.569 232.324 123.519 232.145C126.24 231.905 128.641 232.704 130.382 234.911C132.262 237.309 132.622 239.966 131.342 242.742C130.052 245.519 127.771 246.938 124.73 247.068C122.989 247.147 121.229 247.147 119.488 247.068C118.398 247.018 118.038 247.267 118.048 248.456C118.098 261.511 118.078 274.566 118.078 287.611C118.078 290.398 118.108 293.185 118.058 295.962C118.048 296.781 118.278 297.11 119.088 296.98C119.248 296.951 119.418 296.98 119.588 296.98L320 297V298C213.786 298 106.214 298 0 298V297Z" fill="#041C42"/>
<path d="M234.835 246.598C211.818 246.598 188.79 246.598 165.773 246.598C161.962 246.598 160.021 244.67 160.021 240.855C160.021 229.667 160.021 218.49 160.021 207.303C160.021 203.667 162.002 201.689 165.653 201.689C211.868 201.689 258.072 201.689 304.287 201.689C307.928 201.689 309.909 203.667 309.909 207.303C309.909 218.53 309.909 229.747 309.909 240.975C309.909 244.61 307.928 246.588 304.277 246.588C281.13 246.588 257.982 246.588 234.835 246.588V246.598Z" fill="#041C42"/>
<path d="M234.965 146.822C256.442 146.822 277.929 146.822 299.405 146.822C305.647 146.822 309.899 151.057 309.909 157.29C309.909 165.351 309.909 173.422 309.909 181.483C309.909 187.366 305.567 191.711 299.666 191.711C256.532 191.711 213.408 191.711 170.274 191.711C164.362 191.711 160.031 187.376 160.021 181.483C160.011 173.292 160.011 165.101 160.021 156.911C160.021 151.187 164.412 146.812 170.144 146.812C191.751 146.812 213.358 146.812 234.965 146.812V146.822Z" fill="#041C42"/>
<path d="M183.299 104.77C188.14 104.281 192.772 103.831 197.343 102.922C199.134 102.563 200.924 102.193 202.595 101.434C203.005 101.244 203.415 101.024 203.775 100.755C204.215 100.425 204.575 100.006 204.475 99.3863C204.365 98.7171 203.775 98.5872 203.265 98.4774C200.694 97.928 198.073 97.7981 195.452 97.6983C194.042 97.6483 192.622 97.6983 191.161 97.4485C192.612 97.1189 194.062 96.7793 195.512 96.4497C197.493 95.9902 199.474 95.5307 201.374 94.7716C202.205 94.442 203.115 94.2022 203.505 93.2034C203.705 92.694 204.245 92.9637 204.615 92.9637C210.027 92.9437 215.439 92.9537 220.851 92.9537C246.989 92.9537 273.127 92.9537 299.276 92.9537C305.177 92.9537 308.909 96.6994 308.909 102.623C308.909 110.564 308.909 118.504 308.909 126.435C308.909 132.009 305.087 135.855 299.526 135.855C256.482 135.855 213.448 135.855 170.404 135.855C164.843 135.855 161.021 132.019 161.021 126.445C161.021 121.831 161.061 117.216 160.991 112.601C160.981 111.572 161.302 111.383 162.242 111.403C164.483 111.443 166.733 111.403 168.984 111.333C169.644 111.313 169.994 111.403 170.214 112.142C170.885 114.479 172.675 115.848 174.906 115.897C177.147 115.947 179.007 114.639 179.767 112.352C180.138 111.223 180.588 110.643 181.968 110.574C184.699 110.434 187.44 110.074 190.061 109.205C191.131 108.846 192.572 108.586 192.461 107.098C192.361 105.659 190.881 105.839 189.901 105.669C187.79 105.29 185.639 105.08 183.299 104.77Z" fill="white"/>
<path d="M86.5876 82.955C87.5179 85.4921 88.4582 87.9693 89.3385 90.4564C89.6186 91.2355 89.8487 91.5352 90.829 91.2655C100.032 88.6884 109.305 86.4011 118.738 84.8528C127.531 83.4045 136.394 82.6054 145.286 82.2158C147.527 82.116 149.778 82.086 152.018 81.9661C152.859 81.9162 153.139 82.2059 153.239 83.0349C153.979 89.6374 154.769 96.2298 155.54 102.822C155.8 105.01 155.99 107.207 156.34 109.375C156.49 110.334 156.12 110.484 155.35 110.533C151.658 110.793 147.987 111.283 144.356 112.002C138.284 113.2 132.992 116.097 127.901 119.443C124.99 121.361 121.789 122.829 119.298 125.357C114.386 130.331 111.846 136.454 110.565 143.196C110.375 144.175 110.215 145.164 110.165 146.153C110.125 147.002 109.885 147.162 109.045 146.952C104.663 145.833 100.262 144.784 95.8606 143.706C75.6141 138.751 55.3676 133.787 35.1112 128.863C33.9608 128.583 33.7207 128.213 34.0408 127.045C36.4516 118.055 40.5529 109.844 45.4445 102.003C48.6355 96.8891 52.1666 92.0146 56.528 87.7895C57.1482 87.1902 57.8084 86.6308 58.6187 85.9016C58.9588 87.7995 59.2989 89.4875 59.539 91.1856C59.629 91.8548 59.8991 92.0246 60.5093 91.9347C68.6919 90.7461 76.6744 88.9581 83.9168 84.733C84.807 84.2136 85.6373 83.6043 86.5876 82.965V82.955Z" fill="#A1C9FF"/>
<path d="M108.335 185.498C107.754 197.844 107.174 210.09 106.624 222.336C106.594 222.985 106.404 223.165 105.764 223.155C98.3615 222.975 90.9491 222.815 83.5467 222.696C82.7765 222.686 82.7965 222.286 82.7665 221.767C82.4064 215.374 81.9262 209.001 81.0859 202.649C79.4454 190.243 77.2547 177.967 72.5732 166.27C71.2428 162.954 69.7323 159.718 67.1615 157.111C67.0114 156.961 66.8714 156.811 66.7214 156.671C64.2206 154.424 62.1499 154.883 60.9795 158C59.7291 161.336 59.399 164.872 59.1389 168.388C58.1186 182.551 58.5888 196.715 59.269 210.879C59.479 215.194 59.7491 219.509 60.0392 223.824C60.0892 224.553 59.8392 224.633 59.209 224.593C52.4868 224.114 45.7647 223.655 39.0325 223.225C38.3523 223.185 38.1322 222.995 38.1022 222.296C37.532 209.88 36.9418 197.474 36.3417 185.059C35.6314 170.365 34.9012 155.672 34.181 140.979C34.0109 137.493 33.8609 134.007 33.6608 130.521C33.6108 129.732 33.7308 129.522 34.5911 129.732C55.6378 134.906 76.6945 140.06 97.7413 145.214C101.372 146.103 104.994 147.042 108.635 147.831C109.845 148.091 110.065 148.59 110.005 149.739C109.405 161.446 108.875 173.152 108.325 184.859C108.315 185.109 108.325 185.358 108.325 185.508L108.335 185.498Z" fill="#CAE0FF"/>
<path d="M196.132 80.1485C196.823 79.4593 197.663 79.2296 197.473 78.4105C197.273 77.5315 196.413 77.4416 195.692 77.2818C195.082 77.142 194.452 77.1619 193.842 77.0421C193.492 76.9722 192.791 77.3018 192.841 76.7424C192.881 76.223 192.941 75.4739 193.722 75.2342C194.352 75.0444 194.972 74.7847 195.572 74.515C196.032 74.3152 196.513 74.0555 196.483 73.4562C196.453 72.8769 195.982 72.6571 195.542 72.3974C195.242 72.2176 194.782 72.2975 194.542 71.6782C195.342 71.7382 196.042 71.7881 196.753 71.858C211.787 73.3663 225.042 62.6485 226.772 48.3249C227.152 45.1985 227.032 42.102 226.262 39.0555C226.042 38.1965 226.302 38.0566 227.112 38.0566C251.38 38.0766 275.648 38.0566 299.916 38.0766C304.987 38.0766 308.898 42.0421 308.908 47.1263C308.928 55.3968 308.928 63.6674 308.908 71.9379C308.898 77.0221 304.967 80.9676 299.896 80.9676C266.265 80.9776 232.624 80.9676 198.993 80.9976C197.953 80.9976 197.383 80.0387 196.142 80.1585L196.132 80.1485Z" fill="white"/>
<path d="M78.095 296.981C68.522 296.981 58.9489 296.961 49.3859 297.011C48.3555 297.011 48.0854 296.781 48.0854 295.742C48.1255 279.95 48.1155 264.158 48.0854 248.376C48.0854 247.357 48.3055 247.078 49.3659 247.078C68.512 247.118 87.6481 247.108 106.794 247.078C107.815 247.078 108.095 247.297 108.095 248.346C108.055 264.138 108.055 279.93 108.095 295.712C108.095 296.731 107.875 297.021 106.814 297.011C97.2411 296.961 87.6681 296.981 78.105 296.981H78.095Z" fill="#A1C9FF"/>
<path d="M77.0946 246.099C61.3196 246.099 45.5446 246.099 29.7695 246.099C24.998 246.099 21.837 241.544 23.6076 237.209C24.6479 234.672 26.6285 233.343 29.3694 233.134C29.5395 233.124 29.6995 233.134 29.8696 233.134C61.3296 233.134 92.7997 233.134 124.26 233.134C128.171 233.134 131.092 235.99 131.032 239.726C130.972 243.342 128.081 246.099 124.28 246.099C109.175 246.099 94.0601 246.099 78.9552 246.099H77.0846H77.0946Z" fill="#F6C254"/>
<path d="M59.629 194.837C59.569 186.117 59.389 177.387 60.0992 168.677C60.3593 165.531 60.6494 162.384 61.5696 159.348C61.9198 158.179 62.1098 156.661 63.5003 156.381C64.9107 156.092 65.9611 157.2 66.8513 158.209C69.3121 161.036 70.8026 164.422 72.133 167.868C75.3841 176.259 77.3047 184.999 78.7851 193.838C80.8458 206.104 81.8261 218.47 82.0862 230.896C82.1062 231.835 81.9461 232.185 80.9058 232.145C78.5351 232.055 76.1643 232.125 73.7935 232.115C73.4134 232.115 73.0533 232.225 72.7832 231.675C71.5828 229.288 69.4322 227.95 67.1214 226.831C65.4709 226.032 63.7503 225.412 61.9798 224.983C61.2696 224.813 61.0595 224.513 61.0195 223.824C60.7394 218.68 60.3793 213.546 60.1292 208.402C59.9091 203.877 59.7891 199.352 59.629 194.827V194.837Z" fill="#A1C9FF"/>
<path d="M202.325 93.1236C201.324 93.9427 200.134 94.1824 199.014 94.512C194.302 95.8904 189.461 96.6995 184.659 97.6784C184.499 97.7084 184.319 97.6984 184.169 97.7583C183.859 97.8782 183.389 97.8082 183.479 98.4076C183.569 98.9869 183.939 98.867 184.309 98.8371C190.011 98.4076 195.703 98.5174 201.384 99.1567C202.045 99.2266 202.685 99.3765 203.435 99.4963C202.955 100.425 202.065 100.615 201.284 100.885C198.563 101.824 195.723 102.253 192.882 102.663C186.74 103.552 180.558 103.991 174.376 104.401C174.016 104.421 173.485 104.201 173.495 104.92C173.515 105.629 174.046 105.41 174.396 105.42C179.587 105.659 184.789 105.729 189.931 106.668C190.461 106.768 191.341 106.668 191.361 107.287C191.381 107.817 190.531 107.987 189.981 108.166C187.2 109.115 184.289 109.325 181.398 109.605C173.806 110.344 166.193 110.414 158.581 110.424C157.62 110.424 157.4 110.074 157.31 109.255C156.3 100.505 155.28 91.7652 154.219 83.0251C154.119 82.1661 154.219 81.9264 155.15 81.9264C164.893 81.9564 174.626 81.7866 184.359 81.4469C187.85 81.3171 191.341 81.1373 194.832 81.0074C195.402 80.9875 195.983 81.1173 196.563 81.1673C196.983 81.2072 197.313 81.437 197.403 81.8065C197.523 82.306 197.013 82.3959 196.713 82.5357C194.442 83.5945 192.001 84.1339 189.581 84.6832C187.07 85.2426 184.539 85.7121 182.008 86.2215C181.888 86.2415 181.758 86.2614 181.638 86.3014C181.298 86.4013 180.878 86.3913 180.988 86.9706C181.108 87.5799 181.488 87.3402 181.848 87.3003C187.41 86.661 192.972 86.5411 198.533 87.1904C199.424 87.2903 200.334 87.4201 201.284 87.9195C200.264 88.6887 199.124 88.8884 198.053 89.1781C193.352 90.4367 188.56 91.2757 183.789 92.1747C183.589 92.2146 183.369 92.2146 183.169 92.2746C182.838 92.3745 182.398 92.3245 182.468 92.9238C182.538 93.5231 182.918 93.3933 183.279 93.3633C185.479 93.1735 187.67 92.9338 189.871 92.804C193.442 92.5942 197.013 92.2746 200.594 92.6541C201.154 92.7141 201.724 92.7241 202.305 93.1136L202.325 93.1236Z" fill="#CAE0FF"/>
<path d="M145.807 67.5528C146.837 67.2632 147.177 67.7027 147.307 68.7814C147.737 72.4872 148.247 76.193 148.828 79.8888C148.998 80.9475 148.658 81.1473 147.717 81.1673C142.396 81.2971 137.084 81.6767 131.772 82.1661C120.649 83.205 109.725 85.3026 98.9217 88.0594C96.3909 88.7087 93.8601 89.3779 91.3493 90.0871C90.6691 90.2769 90.3189 90.2369 90.0489 89.4878C88.5884 85.4424 87.0879 81.407 85.5474 77.3816C85.2973 76.7324 85.4174 76.5526 86.0676 76.3828C94.1702 74.1653 102.353 72.3274 110.645 70.9989C122.279 69.131 134.023 68.292 145.807 67.5528Z" fill="#A1C9FF"/>
<path d="M199.474 70.9889C184.889 70.9889 173.015 59.3821 173.005 45.0985C172.995 30.7249 184.829 19.1082 199.494 19.1082C214.138 19.1082 225.972 30.7449 225.962 45.1284C225.952 59.4021 214.078 70.9889 199.474 70.9989V70.9889Z" fill="#F6C254"/>
<path d="M181.438 78.4603C180.818 80.6079 180.818 80.6279 178.777 80.6678C169.494 80.8576 160.221 81.0274 150.938 80.9775C150.358 80.9775 149.928 80.9775 149.828 80.2083C149.318 76.2129 148.788 72.2275 148.207 68.242C148.077 67.363 148.468 67.3031 149.138 67.2531C155.91 66.7337 162.692 66.8236 169.474 66.8935C173.846 66.9335 178.217 66.9635 182.578 66.8935C183.629 66.8836 184.279 67.4829 184.999 67.9923C185.489 68.3519 184.759 69.8901 183.989 70.0599C181.348 70.6393 178.707 71.1786 176.066 71.728C175.946 71.758 175.816 71.738 175.696 71.778C175.366 71.8779 174.916 71.8279 174.996 72.4172C175.086 73.0465 175.486 72.8168 175.836 72.7868C178.037 72.617 180.228 72.4572 182.428 72.2974C182.799 72.2674 183.169 72.2974 183.739 72.2974C183.199 73.8056 182.688 75.224 182.168 76.6324C182.028 77.012 181.628 76.9521 181.308 77.012C179.998 77.2517 178.687 77.4814 177.387 77.7412C176.987 77.8211 176.386 77.7212 176.497 78.4603C176.607 79.1895 177.127 78.8199 177.467 78.7999C178.747 78.71 180.028 78.5802 181.438 78.4603Z" fill="#CAE0FF"/>
<path d="M58.6289 75.1941C62.26 77.4416 65.441 76.5326 68.432 73.9056C64.9509 71.8879 64.3107 70.1499 66.0913 67.6328C67.2916 65.9347 68.6821 66.1045 71.2229 68.2321C71.2929 68.2021 71.423 68.1722 71.423 68.1322C71.513 66.8836 72.0031 66.7738 73.2135 67.1034C74.9141 67.5729 76.6046 67.0734 78.0051 65.9347C78.5152 65.5152 78.7253 65.4153 79.0554 66.0945C79.8356 67.6927 80.6759 69.2709 81.5462 70.8291C81.9063 71.4784 81.6262 71.7281 81.086 71.9179C79.6556 72.4273 78.2951 72.1177 76.9847 71.4984C76.5746 71.2986 76.1645 71.0888 75.7843 70.8391C75.4542 70.6194 75.2742 70.7292 75.0741 71.0089C74.824 71.3485 75.0041 71.5383 75.2842 71.6981C77.2248 72.8568 79.2455 73.7158 81.5262 72.7669C82.1964 72.4872 82.4265 72.6171 82.6866 73.2464C83.7569 75.8534 84.8472 78.4504 85.9976 81.0175C86.3177 81.7367 85.9976 82.0763 85.4974 82.4558C82.8866 84.4236 79.9757 85.812 76.9247 86.9407C71.9231 88.7886 66.7615 90.0272 61.4698 90.7364C60.9796 90.8063 60.4995 91.0161 60.3694 90.217C59.5992 85.3825 58.879 80.538 58.5789 75.6436C58.5789 75.5238 58.6089 75.4039 58.6389 75.1742L58.6289 75.1941Z" fill="#CAE0FF"/>
<path d="M109.055 271.899C109.055 264.008 109.075 256.118 109.035 248.227C109.035 247.288 109.265 247.028 110.195 247.068C112.146 247.148 114.106 247.118 116.057 247.068C116.767 247.058 117.067 247.168 117.067 247.997C117.037 264.028 117.047 280.06 117.067 296.092C117.067 296.801 116.867 297.011 116.157 296.991C114.166 296.941 112.166 296.911 110.165 297.001C109.185 297.041 109.025 296.701 109.035 295.812C109.065 287.841 109.055 279.86 109.055 271.889V271.899Z" fill="#F6C254"/>
<path d="M47.1049 272.099C47.1049 279.99 47.0849 287.881 47.1249 295.772C47.1249 296.711 46.9449 297.06 45.9246 297.01C44.0139 296.921 42.0933 296.931 40.1827 297.01C39.2924 297.04 39.0824 296.781 39.0924 295.912C39.1224 287.272 39.1124 278.631 39.1124 270.001C39.1124 262.73 39.1224 255.468 39.0924 248.196C39.0924 247.347 39.2624 247.048 40.1727 247.077C42.1233 247.147 44.084 247.147 46.0346 247.077C46.9249 247.048 47.1349 247.307 47.1249 248.176C47.0949 256.147 47.1049 264.128 47.1049 272.099Z" fill="#F6C254"/>
<path d="M172.855 38.0665C170.414 49.0639 173.435 58.2434 181.808 65.7748C181.388 66.0345 180.938 65.9646 180.527 65.9546C174.335 65.9146 168.143 65.8547 161.942 65.8447C161.151 65.8447 160.991 65.605 160.991 64.8658C161.021 58.8827 160.981 52.9095 161.021 46.9263C161.051 42.0119 165.012 38.1264 169.934 38.0665C170.884 38.0565 171.845 38.0665 172.845 38.0665H172.855Z" fill="white"/>
<path d="M119.258 232.135H118.028C106.794 232.135 95.5604 232.115 84.3268 232.165C83.2565 232.165 83.0364 231.855 83.0464 230.856C83.0664 228.778 82.9564 226.701 82.8564 224.633C82.8163 223.924 82.9264 223.634 83.7666 223.654C91.4191 223.854 99.0815 223.824 106.724 224.224C111.315 224.463 117.127 227.79 119.278 232.135H119.258Z" fill="#CAE0FF"/>
<path d="M66.4911 74.0954C64.0603 75.9333 61.0493 75.9433 58.9687 74.1054C58.6586 73.8257 58.3685 73.586 58.3585 73.0965C58.2484 67.8725 58.0184 62.6485 59.3388 57.5143C59.6689 56.2258 60.149 54.9872 60.9093 53.8885C62.8299 51.1017 67.0212 51.3014 69.1319 54.298C70.3623 56.046 70.7124 58.0837 70.9725 60.1613C71.1225 61.3599 71.1125 62.5686 71.0725 63.7672C71.0425 64.6262 70.9125 65.4752 70.8225 66.3542C67.7115 65.1156 66.361 65.3454 65.1406 67.3131C63.4901 69.9601 63.8402 71.6582 66.5111 74.1054L66.4911 74.0954Z" fill="#CAE0FF"/>
<path d="M71.7929 232.135C60.9395 232.135 50.2061 232.135 39.4726 232.145C38.7724 232.145 38.5623 231.955 38.5423 231.256C38.4823 229.178 38.3823 227.111 38.2222 225.033C38.1622 224.264 38.4323 224.134 39.1125 224.184C44.5042 224.574 49.896 225.013 55.2877 225.283C59.1789 225.472 62.9601 225.942 66.5313 227.64C69.0021 228.819 70.9227 230.337 71.783 232.135H71.7929Z" fill="#CAE0FF"/>
<path d="M186.149 80.498C184.989 80.498 183.829 80.468 182.668 80.508C181.988 80.528 181.888 80.2883 182.108 79.6989C183.388 76.2529 184.659 72.7968 185.899 69.3408C186.109 68.7614 186.299 68.6615 186.86 68.9612C188.73 69.9601 190.711 70.6992 192.781 71.1587C193.542 71.3285 193.602 71.5882 193.352 72.2474C192.451 74.6447 191.581 77.0519 190.731 79.4792C190.531 80.0485 190.201 80.2283 189.63 80.2183C188.47 80.1884 187.31 80.2183 186.149 80.2183C186.149 80.3182 186.149 80.4081 186.149 80.508V80.498Z" fill="#F6C254"/>
<path d="M179.177 110.883C178.777 112.811 177.897 114.269 175.946 114.769C174.406 115.158 173.085 114.669 172.015 113.51C171.905 113.39 171.785 113.271 171.705 113.121C171.405 112.581 170.885 111.992 171.165 111.433C171.405 110.963 172.145 111.213 172.665 111.183C174.816 111.063 176.967 110.973 179.177 110.873V110.883Z" fill="#F6C254"/>
<path d="M75.8442 60.9904C74.4637 61.33 73.2333 61.6696 72.123 62.6984C72.013 60.0714 71.7829 57.6342 70.9226 55.2869C72.8332 56.905 74.3437 58.8328 75.8442 61.0003V60.9904Z" fill="#CAE0FF"/>
<path d="M78.485 62.7183C80.0755 63.7771 81.646 64.8458 83.2565 65.8846C83.9367 66.3241 83.9868 66.6637 83.3465 67.1931C81.546 68.7114 81.566 68.7214 80.4356 66.6138C79.7554 65.3552 79.0252 64.1167 78.3149 62.8681C78.375 62.8181 78.425 62.7682 78.485 62.7183Z" fill="#CAE0FF"/>
<path d="M74.4637 62.5186C74.2337 63.837 74.5338 64.9857 75.5841 65.8647C74.2637 66.514 72.4431 66.2643 72.093 65.4352C71.7029 64.5063 72.8332 63.0779 74.4737 62.5186H74.4637Z" fill="#CAE0FF"/>
<path d="M196.453 78.6201C195.112 79.4092 193.772 79.8887 192.321 80.0785C191.841 80.1384 191.601 80.0185 191.761 79.4691C192.051 78.5102 192.351 77.6612 193.672 78.0208C194.532 78.2605 195.492 78.0807 196.443 78.6201H196.453Z" fill="#CAE0FF"/>
<path d="M193.832 74.1454C193.902 72.9667 194.342 72.747 195.252 73.4162C194.942 73.9056 194.412 73.9756 193.832 74.1454Z" fill="#041C42"/>
<path d="M234.965 245.599C211.897 245.599 188.84 245.599 165.773 245.599C162.422 245.599 161.011 244.181 161.011 240.805C161.011 229.667 161.011 218.52 161.011 207.383C161.011 204.177 162.462 202.698 165.633 202.698C211.847 202.698 258.052 202.698 304.267 202.698C307.448 202.698 308.898 204.167 308.898 207.373C308.898 218.55 308.898 229.737 308.898 240.915C308.898 244.171 307.448 245.599 304.147 245.599C281.08 245.599 258.022 245.599 234.955 245.599H234.965Z" fill="#004079"/>
<path d="M234.835 190.722C213.438 190.722 192.041 190.722 170.644 190.722C164.752 190.722 161.011 186.966 161.011 181.053C161.011 173.112 161.011 165.171 161.011 157.24C161.011 151.667 164.842 147.821 170.394 147.821C213.478 147.821 256.562 147.821 299.645 147.821C305.017 147.821 308.898 151.717 308.898 157.12C308.898 165.141 308.898 173.162 308.898 181.183C308.898 186.926 305.117 190.722 299.385 190.722C277.869 190.722 256.342 190.722 234.825 190.722H234.835Z" fill="white"/>
<path d="M234.055 116.966C235.585 116.966 236.866 117.026 238.136 116.946C239.076 116.886 238.976 117.446 238.986 118.035C238.996 118.634 238.996 119.054 238.166 119.034C236.215 118.974 234.255 119.034 232.294 119.004C231.874 119.004 231.234 119.274 231.074 118.744C230.894 118.145 230.834 117.476 231.424 116.906C232.674 115.688 233.865 114.409 235.085 113.161C235.145 113.101 235.205 113.041 235.255 112.981C236.265 111.842 236.555 110.664 236.005 109.964C235.425 109.235 234.265 109.225 232.954 110.184C231.924 110.943 231.814 109.934 231.404 109.555C230.754 108.946 231.464 108.726 231.814 108.466C232.894 107.657 234.125 107.357 235.455 107.467C238.366 107.697 239.606 110.294 237.996 112.801C236.996 114.349 235.455 115.408 234.055 116.986V116.966Z" fill="#041C42"/>
<path d="M234.585 55.4067C234.105 55.7962 233.715 56.0959 233.355 56.4155C232.875 56.835 232.544 57.2346 231.904 56.4355C231.254 55.6264 231.644 55.3567 232.224 54.9372C232.965 54.3978 233.705 53.8684 234.355 53.2292C235.025 52.5699 235.815 52.7697 236.576 52.7397C237.136 52.7197 236.966 53.1692 236.976 53.4589C236.986 56.7351 236.946 60.0014 237.006 63.2777C237.026 64.3265 236.386 64.1267 235.795 64.1167C235.215 64.1167 234.535 64.3464 234.565 63.2777C234.625 60.7106 234.585 58.1435 234.585 55.3967V55.4067Z" fill="#041C42"/>
<path d="M200.024 24.0923C211.597 24.0823 220.97 33.4916 220.97 45.1482C220.97 56.6351 211.547 65.9844 199.954 66.0044C188.38 66.0144 179.007 56.6051 179.007 44.9485C179.007 33.4616 188.43 24.1123 200.024 24.0923Z" fill="#041C42"/>
<path d="M220.02 219.999C220.41 220.099 220.62 220.428 220.88 220.688C223.391 223.185 225.912 225.662 228.373 228.199C229.013 228.859 229.393 228.888 230.063 228.219C236.025 222.176 242.027 216.183 247.999 210.16C248.629 209.521 249.12 209.341 249.81 210.14C250.71 211.179 251.72 212.108 252.711 213.057C253.151 213.486 253.261 213.826 252.771 214.295C252.351 214.695 252.04 215.194 251.63 215.604C244.488 222.755 237.326 229.887 230.203 237.069C229.423 237.858 229.013 237.848 228.243 237.069C224.372 233.124 220.45 229.208 216.499 225.343C215.699 224.563 215.709 224.024 216.479 223.315C217.449 222.406 218.37 221.437 219.31 220.498C219.51 220.298 219.68 220.039 220.02 220.019V219.999Z" fill="#041C42"/>
<path d="M231.054 172.473C232.314 172.912 233.494 173.242 234.775 173.062C235.755 172.932 236.325 172.443 236.355 171.474C236.385 170.385 235.585 170.126 234.705 170.006C234.415 169.966 234.125 169.956 233.835 169.976C233.164 170.016 232.664 170.026 232.694 169.047C232.714 168.188 233.014 168.008 233.785 168.038C234.685 168.078 235.665 168.138 236.095 167.039C236.295 166.52 236.235 166.01 235.815 165.671C234.965 164.972 233.935 165.111 233.124 165.601C232.114 166.22 231.794 165.671 231.344 164.972C231.014 164.452 231.224 164.262 231.654 164.033C233.204 163.234 234.825 163.074 236.485 163.553C237.536 163.853 238.366 164.432 238.506 165.651C238.646 166.889 238.206 167.838 237.116 168.468C236.876 168.607 236.615 168.727 236.295 168.887C238.216 169.486 238.936 170.265 238.906 171.664C238.866 173.202 237.896 174.321 236.205 174.8C235.095 175.12 233.975 175.08 232.864 174.94C230.904 174.69 230.884 174.62 231.044 172.463L231.054 172.473Z" fill="#041C42"/>
<path d="M200.084 38.0666C205.956 38.0666 211.817 38.0866 217.689 38.0466C218.49 38.0466 218.83 38.2764 219.08 39.0555C222.541 50.1128 215.779 61.9593 204.535 64.4964C192.961 67.1034 181.828 59.4222 180.197 47.7356C179.787 44.759 180.087 41.8723 180.928 38.9955C181.148 38.2464 181.478 38.0466 182.228 38.0466C188.18 38.0766 194.132 38.0666 200.084 38.0666Z" fill="#F6C254"/>
<path d="M218.16 37.0178H181.858C183.599 30.725 191.921 25.2013 199.724 25.0914C208.717 24.9616 215.919 30.9747 218.16 37.0178Z" fill="#F6C254"/>
<path d="M252.201 213.816C248.339 217.591 244.608 221.197 240.917 224.853C237.256 228.479 233.635 232.145 230.034 235.84C229.373 236.52 229.053 236.48 228.393 235.84C224.552 232.045 220.661 228.309 216.939 224.713C218.12 223.425 218.93 221.776 220 221.587C221.001 221.417 221.911 223.175 222.841 224.084C224.742 225.942 226.623 227.83 228.443 229.767C229.073 230.437 229.383 230.347 229.974 229.747C235.986 223.654 242.047 217.601 248.049 211.498C248.74 210.789 249.1 210.789 249.73 211.528C250.4 212.307 251.24 212.947 252.181 213.816H252.201Z" fill="white"/>
</svg>
