<svg width="320" height="298" viewBox="0 0 320 298" fill="none" xmlns="http://www.w3.org/2000/svg">
<path d="M0 297.023V0C105.65 0 214.35 0 320 0C320 98.2983 320 199.209 320 297.507C311.84 297.507 301.06 297.512 292.9 297.512C292.53 297.512 292.15 297.512 291.78 297.492C290.4 297.382 290.02 296.953 290.21 295.564C290.7 292.117 291.29 288.671 291.85 285.234C293.33 276.102 294.79 266.961 296.26 257.819C297.21 251.915 298.3 246.04 299.06 240.106C299.58 236.02 299.17 231.884 299.25 227.777C299.26 227.068 299.17 226.379 299.02 225.679C298.13 221.423 294.27 218.196 289.93 218.186C279.52 218.156 269.12 218.156 258.71 218.196C257.15 218.196 256.03 217.787 254.94 216.538C250.97 211.922 244.22 212.052 240.37 216.778C239.5 217.847 238.55 218.196 237.26 218.196C226.56 218.176 215.86 218.176 205.16 218.196C200.18 218.196 196.51 221.174 195.42 226.009C195.34 226.379 195.31 226.748 195.31 227.118C195.29 230.944 195.22 234.771 195.33 238.597C195.42 241.585 196.16 244.512 196.63 247.459C198.09 256.601 199.57 265.732 201.04 274.873C202.09 281.387 203.14 287.901 204.2 294.415C204.66 297.253 204.47 297.522 201.59 297.522C171.08 297.522 140.56 297.522 110.05 297.542C108.46 297.542 107.34 297.173 106.43 295.724C104.6 292.807 101.77 291.038 98.62 289.78C98 289.53 97.37 289.33 96.73 289.12C94.53 288.421 94.23 287.871 94.55 285.553C94.82 283.615 94.8 281.657 94.86 279.719C94.95 276.942 95.08 274.154 95.23 271.377C95.45 267.071 95.54 262.745 95.88 258.439C96.04 256.411 96.09 254.373 96.14 252.344C96.3 245.831 96.77 239.327 97 232.813C97.18 227.588 97.54 222.362 97.69 217.137C97.86 211.123 98.53 205.208 101 199.634C103.26 194.528 106.47 190.232 111.35 187.345C113.85 185.867 116.63 185.107 119.4 184.368C126.48 182.5 133.71 181.361 140.95 180.292C146.58 179.463 152.23 178.783 157.89 178.164C161.73 177.744 165.58 177.404 169.42 177.025C173.84 176.585 178.28 176.355 182.7 175.886C183.36 175.816 184.03 175.816 184.7 175.816C189.24 175.816 193.78 175.786 198.31 175.836C200.02 175.856 201.7 175.526 203.41 175.556C204.69 175.576 205.52 176.066 206.05 177.235C208.99 183.709 212.06 190.113 215.04 196.577C216.92 200.653 218.84 204.709 220.74 208.775C222.98 213.561 228.75 215.609 233.63 213.291C240.81 209.884 248 206.517 255.24 203.24C258.59 201.722 260.78 199.354 261.41 195.667C261.77 193.579 261.32 191.611 260.44 189.743C258.6 185.827 256.77 181.91 254.95 177.994C254.83 177.734 254.69 177.474 254.58 177.205C254.07 175.926 254.37 175.466 255.78 175.356C256.28 175.316 256.78 175.336 257.28 175.336C265.98 175.336 274.68 175.346 283.38 175.336C288.36 175.336 292.02 172.369 293.13 167.524C293.24 167.024 293.25 166.535 293.25 166.035C293.26 157.673 293.28 149.321 293.25 140.958C293.23 135.563 289.06 131.397 283.67 131.387C267.85 131.367 252.03 131.387 236.21 131.367C235.15 131.367 233.93 131.677 233.14 130.738C232.14 129.559 231.49 128.14 231.15 126.622C230.94 125.693 231.69 125.523 232.39 125.463C233.55 125.363 234.71 125.463 235.86 125.193C240.11 124.244 243.28 120.408 243.29 116.042C243.31 107.729 243.28 99.4072 243.3 91.095C243.32 85.1106 238.17 81.3841 233.62 81.444C226.59 81.5439 219.55 81.414 212.52 81.504C210.58 81.5239 209.31 80.9844 208.76 79.0562C208.61 78.5467 208.31 78.0772 208.09 77.5876C207.4 76.0291 207.67 75.5995 209.42 75.5295C209.84 75.5095 210.25 75.5295 210.67 75.5295C215.08 75.5295 219.5 75.5495 223.91 75.5295C229.4 75.4896 233.55 71.3634 233.56 65.8985C233.58 57.6662 233.51 49.4339 233.58 41.2016C233.63 35.8366 229.01 31.5606 223.89 31.5606C186.88 31.6005 149.87 31.5805 112.87 31.5805C112.25 31.5805 111.62 31.5805 111 31.5805C110.07 31.5805 109.31 31.2409 108.72 30.5016C107.21 28.6333 105.36 27.4244 102.84 27.5343C102.1 27.5643 101.43 27.3045 100.99 26.6751C99.89 25.0866 98.32 25.2065 96.73 25.5262C95.83 25.706 95.05 26.2255 94.26 26.6851C93.61 27.0648 93.03 27.0348 92.46 26.4853C90.85 24.9268 89.53 24.7269 87.49 25.6361C86.34 26.1456 85.31 26.855 84.38 27.6942C83.66 28.3536 82.94 28.5034 82.15 27.874C80.72 26.7451 79.16 26.9049 77.67 27.5843C74.67 28.953 72.22 31.071 70.72 33.9783C63.6 47.8054 56.85 61.8123 50.76 76.129C45.13 89.3766 39.97 102.794 35.59 116.501C30.8 131.467 26.86 146.663 24.17 162.159C22.88 169.562 21.84 176.995 21.16 184.478C20.9 187.325 20.51 190.183 20.53 193.03C20.55 197.755 20.86 202.481 21.17 207.197C21.31 209.225 21.34 211.263 21.4 213.291C21.53 217.607 21.86 221.913 22.02 226.229C22.23 231.704 22.48 237.179 22.76 242.644C23.02 247.619 23.27 252.584 23.5 257.56C23.75 262.745 23.95 267.92 24.24 273.105C24.54 278.45 24.75 283.795 25.02 289.14C25.13 291.288 25.06 293.456 25.35 295.604C25.53 296.923 25.05 297.422 23.71 297.522C23.42 297.542 23.13 297.542 22.84 297.542C15.93 297.542 9.02 297.542 2.11 297.542C1.38 297.542 0.61 297.652 0.01 297.073L0 297.023Z" fill="#A1C9FF"/>
<path d="M0 296.852C7.91 296.852 15.82 296.832 23.73 296.882C24.84 296.882 24.99 296.552 24.94 295.554C24.34 283.732 23.78 271.909 23.21 260.077C22.5 245.559 21.78 231.031 21.07 216.513C20.71 209.084 20.24 201.665 20.04 194.227C19.92 189.664 20.55 185.11 21.04 180.567C22.09 170.872 23.66 161.256 25.67 151.711C29.26 134.677 34.2 118.042 40.11 101.686C48.46 78.5613 58.71 56.275 69.88 34.3981C71.64 30.9533 74.3 28.3771 77.92 26.9393C79.63 26.2603 81.37 26.2204 82.74 27.7581C83.16 28.2374 83.35 27.8779 83.62 27.6383C84.55 26.7995 85.54 26.0507 86.65 25.4715C89.53 23.9638 91.25 24.2933 93.31 26.7396C94.34 26.1206 95.3 25.4016 96.48 25.0422C98.72 24.3632 100.12 24.7526 101.5 26.5998C101.76 26.9493 101.98 27.0791 102.41 27.0292C105.26 26.7097 107.43 27.9578 109.05 30.1744C109.6 30.9133 110.15 31.093 111.01 31.093C148.48 31.0731 185.94 31.0731 223.41 31.0731C229.85 31.0731 234.05 35.2468 234.05 41.6471C234.05 49.665 234.05 57.6829 234.05 65.7108C234.05 71.6218 229.75 75.9453 223.84 75.9553C218.97 75.9653 214.1 75.9553 209.23 75.9553H207.86C208.61 77.5529 209.31 79.0007 209.95 80.4685C210.24 81.1175 210.76 80.9378 211.22 80.9378C218.63 80.9378 226.04 80.9378 233.45 80.9378C239.45 80.9378 243.79 85.2313 243.79 91.1923C243.79 99.3799 243.8 107.568 243.79 115.755C243.79 121.407 239.41 125.77 233.76 125.82C231.12 125.84 231.31 125.77 232.22 128.266C232.99 130.363 234.15 130.882 236.33 130.872C251.98 130.763 267.63 130.812 283.29 130.812C289.45 130.812 293.74 135.076 293.75 141.207C293.75 149.314 293.75 157.412 293.75 165.52C293.75 171.331 289.4 175.685 283.58 175.695C274.38 175.705 265.18 175.695 255.98 175.695C255.53 175.695 255.08 175.695 254.45 175.695C255.75 178.48 256.98 181.136 258.22 183.782C259.17 185.809 260.13 187.836 261.06 189.863C263.38 194.896 261.4 200.657 256.37 203.063C248.73 206.708 241.06 210.282 233.36 213.797C228.48 216.024 222.73 213.867 220.38 208.944C217.34 202.594 214.41 196.184 211.43 189.803C209.38 185.41 207.32 181.017 205.29 176.613C205.07 176.134 204.82 175.924 204.27 175.954C193.76 176.444 183.22 175.924 172.72 177.063C164.49 177.951 156.24 178.63 148.04 179.699C137.94 181.017 127.89 182.524 118.01 185.11C109.4 187.367 104.14 192.969 100.94 200.947C98.88 206.089 98.44 211.471 98.21 216.932C97.43 234.775 96.58 252.618 95.75 270.462C95.5 275.893 95.26 281.335 94.98 286.767C94.94 287.616 95.06 288.045 96.05 288.295C100.22 289.333 104.04 291.19 106.47 294.825C107.65 296.592 108.88 296.912 110.77 296.912C141.41 296.862 172.05 296.872 202.69 296.872C204.2 296.872 204.17 296.872 203.94 295.434C202.15 284.371 200.38 273.317 198.59 262.254C197.37 254.715 196.07 247.197 194.97 239.638C194.64 237.401 194.83 235.075 194.87 232.798C194.91 230.432 194.6 228.056 195.06 225.709C196.02 220.826 199.98 217.591 204.98 217.581C215.93 217.571 226.88 217.571 237.82 217.591C238.73 217.591 239.29 217.352 239.86 216.583C243.82 211.211 251.81 211.251 255.82 216.653C256.36 217.382 256.89 217.601 257.76 217.601C268.29 217.571 278.82 217.581 289.36 217.581C295.44 217.581 299.75 221.855 299.76 227.906C299.76 229.563 299.67 231.241 299.78 232.888C300.18 238.889 298.83 244.69 297.92 250.542C296.5 259.638 294.99 268.724 293.52 277.81C292.55 283.791 291.61 289.772 290.6 295.743C290.43 296.732 290.69 296.902 291.62 296.892C300.99 296.862 310.63 296.892 320 296.892V298C214.52 298 105.47 298 0 298V296.852Z" fill="#041C42"/>
<path d="M95.8701 48.1772C85.1601 73.6087 74.4501 99.0603 63.6701 124.672C61.9601 122.345 60.2501 120.268 58.1701 118.541C56.8801 117.472 55.4801 116.594 53.8701 116.085C50.8201 115.116 48.4801 116.085 46.9601 118.88C45.7701 121.077 45.2601 123.473 44.9901 125.91C44.2801 132.38 44.6401 138.84 45.3501 145.3C45.7401 148.845 46.2501 152.38 46.8801 155.894C47.0001 156.573 47.2001 156.823 47.9001 156.723C55.9101 155.565 63.7401 153.788 70.8701 149.764C71.5601 149.374 72.2801 148.995 72.8401 148.466C73.8001 147.557 74.0801 148.016 74.4101 148.995C75.1401 151.152 75.9701 153.268 76.7401 155.415C76.9601 156.024 77.1401 156.344 77.9701 156.124C86.8701 153.768 95.9701 152.56 105.1 151.481C118.9 149.864 132.76 148.895 146.63 148.086C157.56 147.447 168.5 147.317 179.44 146.998C180.18 146.978 180.46 147.188 180.55 147.926C181.56 156.703 182.59 165.49 183.66 174.267C183.76 175.066 183.56 175.235 182.81 175.295C177.21 175.735 171.61 176.134 166.03 176.703C150.44 178.291 134.85 179.908 119.59 183.653C113.95 185.03 108.8 187.237 105.02 191.9C101.18 196.633 99.0101 202.075 97.9101 208.006C97.7301 208.984 97.5501 209.973 97.5101 210.961C97.4701 211.87 97.1601 211.92 96.3701 211.72C91.3801 210.462 86.3701 209.274 81.3701 208.046C61.6901 203.233 42.0101 198.41 22.3201 193.598C21.5301 193.408 20.9301 193.298 21.0101 192.14C21.8601 180.248 23.3901 168.455 25.6601 156.743C29.0501 139.29 33.9001 122.245 39.8001 105.491C46.1701 87.4079 53.7001 69.8145 62.0001 52.5505C62.6101 51.2825 63.2601 50.0244 63.8401 48.7463C64.0501 48.277 64.2601 48.0174 64.8301 48.0274C75.1101 48.0573 85.3901 48.0573 95.6701 48.0773C95.7001 48.0773 95.7301 48.1172 95.8601 48.1971L95.8701 48.1772Z" fill="#A1C9FF"/>
<path d="M85.71 74.907C87.77 70.0044 89.79 65.2017 91.81 60.3989C95.63 51.3226 99.46 42.2463 103.24 33.1501C103.6 32.2814 104.04 32.0417 104.96 32.0417C144.54 32.0717 184.12 32.0617 223.7 32.0617C229.17 32.0617 233.03 35.9259 233.03 41.3976C233.03 49.4954 233.03 57.6031 233.03 65.7009C233.03 71.0728 229.15 74.937 223.75 74.9469C218.76 74.9469 213.76 74.917 208.77 74.9769C207.71 74.9869 207.16 74.7373 206.76 73.6988C205.44 70.254 203.12 67.7978 199.4 66.9091C196.62 66.2401 194.09 66.939 191.58 68.1472C186.99 70.3639 182.35 72.4807 177.73 74.6474C177.27 74.8571 176.81 74.9669 176.29 74.9669C146.28 74.9669 116.28 74.9669 86.27 74.9669C86.15 74.9669 86.02 74.947 85.71 74.927V74.907Z" fill="white"/>
<path d="M206.07 175.974C210.59 175.705 214.99 175.485 219.38 175.156C222.9 174.896 226.42 174.576 229.86 173.658C230.38 173.518 230.89 173.318 231.36 173.079C231.89 172.809 232.36 172.43 232.3 171.741C232.24 171.052 231.65 170.922 231.15 170.772C228.54 170.023 225.86 169.724 223.17 169.434C222.14 169.324 221.1 169.225 219.71 169.095C222.11 168.665 224.19 168.466 226.22 167.966C227.51 167.647 228.8 167.327 229.97 166.668C230.4 166.429 230.84 166.149 231.17 165.8C232.28 164.631 231.96 163.553 230.41 163.214C228.13 162.714 225.79 162.605 223.47 162.495C221.82 162.415 220.16 162.475 218.46 162.225C220.26 161.806 222.06 161.406 223.85 160.977C225.79 160.518 227.73 160.038 229.54 159.18C230.13 158.9 230.85 158.601 230.78 157.792C230.7 156.903 229.9 156.763 229.21 156.634C226.66 156.154 224.08 156.234 221.5 156.354C221.04 156.374 220.59 156.404 220.12 156.334C222.45 155.725 224.79 155.126 227.12 154.487C227.79 154.297 228.47 154.037 229.08 153.698C230.09 153.139 230.07 152.38 229.01 151.881C227.55 151.202 225.95 151.142 224.39 150.982C220.88 150.623 217.35 150.653 213.46 150.503C214.7 150.093 215.6 149.834 216.47 149.504C217.18 149.235 217.84 148.885 217.84 147.937C217.84 146.958 217.25 146.389 216.46 146.04C214.95 145.371 213.33 145.221 211.7 145.241C205.42 145.321 199.14 145.391 192.85 145.53C192.03 145.55 191.7 145.261 191.38 144.572C185.8 132.56 180.19 120.548 174.59 108.546C171.89 102.765 169.16 97.0036 166.48 91.2124C164.18 86.2199 166.04 81.1775 171.03 78.841C178.43 75.3763 185.83 71.9115 193.24 68.4967C197.99 66.3 203.14 68.237 205.36 72.9899C214.3 92.121 223.23 111.262 232.17 130.393C241.48 150.313 250.79 170.233 260.1 190.153C262.29 194.826 260.46 200.008 255.77 202.215C248.23 205.769 240.68 209.284 233.12 212.769C228.55 214.876 223.39 212.949 221.18 208.266C217 199.429 212.9 190.552 208.77 181.696C207.88 179.799 206.99 177.891 206.08 175.944L206.07 175.974Z" fill="white"/>
<path d="M23.2801 241.046C22.5401 225.859 21.8101 210.672 21.0301 195.495C20.9701 194.396 21.2301 194.317 22.2301 194.566C46.8601 200.617 71.5001 206.638 96.1501 212.629C97.1401 212.869 97.4401 213.228 97.3901 214.276C96.6001 230.452 95.8701 246.638 95.1201 262.823C94.7501 270.831 94.3401 278.839 93.9801 286.847C93.9501 287.616 93.8101 287.905 92.9501 287.885C85.6301 287.696 78.3101 287.546 70.9801 287.416C70.2201 287.406 70.1301 287.087 70.1001 286.457C69.7101 279.448 69.1501 272.459 68.1801 265.499C66.5401 253.777 64.3801 242.164 59.9601 231.111C58.6201 227.756 57.0901 224.481 54.4901 221.845C54.3101 221.665 54.1401 221.486 53.9501 221.326C51.4901 219.219 49.5301 219.678 48.3701 222.674C47.0701 226.049 46.7501 229.613 46.4901 233.168C45.4701 247.327 45.9401 261.485 46.6201 275.634C46.8301 279.947 47.1101 284.261 47.3801 288.574C47.4201 289.183 47.2701 289.363 46.6401 289.313C39.8301 288.834 33.0301 288.365 26.2201 287.925C25.6101 287.885 25.4801 287.656 25.4601 287.096C25.0601 278.549 24.6401 270.002 24.2301 261.455C23.9001 254.655 23.5801 247.846 23.2601 241.046H23.2801Z" fill="#CAE0FF"/>
<path d="M174.37 76.165C172.92 76.8539 171.46 77.5329 170.01 78.2319C169.18 78.6313 168.34 79.0706 167.77 79.7895C166.99 80.778 166.04 80.9677 164.84 80.9677C144.73 80.9378 124.63 80.9478 104.52 80.9478C98.1101 80.9478 93.9201 85.1514 93.9201 91.5717C93.9201 99.5097 93.9201 107.448 93.9201 115.386C93.9201 121.596 98.1901 125.84 104.44 125.84C129.71 125.84 154.98 125.84 180.24 125.82C181.2 125.82 181.74 126.03 182.09 126.978C182.56 128.246 183.2 129.455 183.83 130.832H182.34C173.02 130.832 163.69 130.832 154.37 130.832C148.13 130.832 143.88 135.086 143.87 141.307C143.87 143.014 143.85 144.711 143.87 146.419C143.87 146.998 143.79 147.278 143.08 147.328C136.19 147.787 129.29 148.206 122.42 148.805C107.72 150.093 93.0101 151.401 78.6301 154.956C77.7701 155.166 77.59 154.796 77.34 154.127C74.97 147.677 72.7901 141.147 69.6301 135.016C69.3301 134.427 69.4401 134.127 69.9401 133.798C70.4301 133.478 70.89 133.119 71.34 132.76C72.54 131.801 72.5101 130.812 71.2501 129.944C69.3601 128.666 67.4801 127.358 65.5301 126.159C64.6701 125.63 64.4901 125.201 64.9101 124.222C69.8501 112.59 74.7501 100.938 79.6501 89.2852C81.3901 85.1614 83.14 81.0376 84.84 76.9039C85.14 76.1849 85.5001 75.9453 86.2901 75.9453C115.43 75.9653 144.57 75.9653 173.71 75.9653H174.32C174.33 76.0352 174.34 76.1051 174.36 76.185L174.37 76.165Z" fill="#A1C9FF"/>
<path d="M180.98 124.812H179.51C154.54 124.812 129.57 124.812 104.6 124.812C98.6102 124.812 94.9102 121.097 94.9102 115.086C94.9102 107.238 94.9102 99.3799 94.9102 91.5318C94.9102 85.6906 98.6602 81.9263 104.47 81.9263C124.49 81.9263 144.5 81.9263 164.52 81.9263H165.89C164.75 84.083 164.27 86.2597 164.58 88.5962C164.84 90.5732 165.84 92.2706 166.66 94.028C171.36 104.123 176.09 114.208 180.81 124.292C180.86 124.402 180.88 124.522 180.97 124.821L180.98 124.812Z" fill="white"/>
<path d="M233.97 131.791H260.76C268.29 131.791 275.82 131.791 283.36 131.791C288.92 131.791 292.74 135.625 292.74 141.197C292.74 149.215 292.74 157.233 292.74 165.25C292.74 170.882 288.92 174.676 283.25 174.676C274.14 174.676 265.02 174.636 255.91 174.716C254.47 174.726 253.77 174.367 253.15 173.009C246.96 159.589 240.67 146.209 234.42 132.819C234.28 132.53 234.17 132.23 233.98 131.791H233.97Z" fill="white"/>
<path d="M238.54 218.58C238.21 219.698 237.91 220.687 237.81 221.715C237.76 222.234 237.78 222.564 238.48 222.564C244.68 222.544 250.89 222.544 257.09 222.564C257.79 222.564 257.81 222.234 257.76 221.725C257.66 220.697 257.35 219.708 257.06 218.71C257.47 218.45 257.89 218.57 258.29 218.57C268.61 218.57 278.94 218.57 289.26 218.57C294.93 218.57 298.74 222.374 298.74 228.016C298.74 229.883 298.71 231.76 298.75 233.627C298.77 234.316 298.59 234.646 297.86 234.536C297.66 234.506 297.44 234.536 297.24 234.536C263.94 234.536 230.64 234.536 197.33 234.566C196.05 234.566 195.73 234.236 195.8 233.008C195.91 231.061 195.79 229.104 195.85 227.147C195.98 222.654 199.7 218.67 204.19 218.62C215.59 218.51 227 218.58 238.55 218.58H238.54Z" fill="#F6C254"/>
<path d="M247.28 268.245C247.28 277.381 247.26 286.527 247.3 295.664C247.3 296.652 247.03 296.882 246.07 296.882C239.37 296.842 232.67 296.842 225.97 296.882C225.04 296.882 224.68 296.662 224.61 295.693C224.12 289.363 223.58 283.033 223.04 276.702C222.41 269.253 221.77 261.815 221.14 254.366C220.75 249.693 220.39 245.01 219.96 240.337C219.88 239.508 220.21 239.498 220.84 239.498C225.42 239.518 230 239.498 234.58 239.498C238.41 239.498 242.24 239.528 246.07 239.478C247.02 239.468 247.32 239.678 247.31 240.687C247.27 249.873 247.28 259.049 247.28 268.235V268.245Z" fill="#F6C254"/>
<path d="M248.28 268.105C248.28 258.969 248.3 249.823 248.25 240.687C248.25 239.678 248.55 239.479 249.49 239.479C257.81 239.518 266.14 239.508 274.46 239.479C275.33 239.479 275.66 239.568 275.57 240.607C274.53 252.349 273.56 264.101 272.57 275.844C272.03 282.294 271.47 288.744 270.99 295.204C270.9 296.482 270.57 296.902 269.19 296.882C262.62 296.792 256.04 296.822 249.47 296.862C248.48 296.862 248.25 296.602 248.25 295.634C248.29 286.458 248.27 277.271 248.27 268.095L248.28 268.105Z" fill="#F6C254"/>
<path d="M69.42 289.243C69.42 291.48 69.39 293.726 69.44 295.963C69.46 296.672 69.27 296.882 68.56 296.872C66.06 296.832 63.57 296.862 61.07 296.852C60.73 296.852 60.4 296.942 60.16 296.452C58.92 293.976 56.69 292.618 54.29 291.48C52.79 290.771 51.24 290.162 49.61 289.812C48.77 289.633 48.41 289.283 48.35 288.355C47.79 279.987 47.38 271.61 47.13 263.232C46.88 254.476 46.78 245.709 47.23 236.952C47.44 232.888 47.74 228.834 48.71 224.86C48.93 223.972 49.18 223.103 49.62 222.294C50.36 220.946 50.97 220.737 52.35 221.456C53.99 222.324 55.02 223.802 55.96 225.33C59.06 230.362 60.85 235.914 62.41 241.545C65.43 252.449 67.15 263.582 68.23 274.825C68.69 279.618 69 284.42 69.42 289.233V289.243Z" fill="#A1C9FF"/>
<path d="M207.43 239.508C210.88 239.508 214.34 239.538 217.79 239.488C218.61 239.478 218.95 239.658 219.02 240.547C219.77 249.853 220.55 259.159 221.33 268.465C222.04 276.862 222.77 285.249 223.48 293.647C223.57 294.675 224.01 296.023 223.53 296.642C223.01 297.311 221.58 296.842 220.55 296.852C215.81 296.872 211.06 296.852 206.32 296.882C205.49 296.882 205.12 296.762 204.97 295.803C203.12 284.091 201.22 272.379 199.32 260.676C198.27 254.166 197.21 247.656 196.15 241.146C195.88 239.508 195.86 239.518 197.56 239.518C200.85 239.518 204.13 239.518 207.42 239.518L207.43 239.508Z" fill="#F6C254"/>
<path d="M280.58 296.852C277.96 296.852 275.33 296.832 272.71 296.862C272.03 296.862 271.81 296.752 271.87 295.983C272.95 283.412 274 270.831 275.05 258.25C275.54 252.379 276.06 246.498 276.52 240.627C276.59 239.718 276.88 239.468 277.8 239.478C284.33 239.518 290.87 239.518 297.41 239.478C298.39 239.478 298.66 239.678 298.49 240.686C297.1 249.074 295.76 257.471 294.41 265.868C292.86 275.494 291.29 285.109 289.75 294.735C289.41 296.852 289.43 296.862 287.33 296.862H280.59L280.58 296.852Z" fill="#F6C254"/>
<path d="M228.56 152.899C225.4 154.207 222.2 154.776 219.05 155.445C216.29 156.034 213.5 156.494 210.73 157.043C210.36 157.113 209.71 156.963 209.8 157.732C209.9 158.54 210.48 158.161 210.86 158.121C216.54 157.632 222.21 157.013 227.92 157.452C228.48 157.492 229.05 157.522 229.63 157.911C228.67 158.72 227.53 158.94 226.44 159.259C221.69 160.657 216.81 161.466 211.97 162.465C211.73 162.515 211.48 162.554 211.24 162.614C210.94 162.684 210.71 162.794 210.78 163.193C210.86 163.643 211.09 163.683 211.48 163.643C216.51 163.193 221.54 163.343 226.56 163.713C227.72 163.803 228.87 164.002 230.02 164.172C230.28 164.212 230.67 164.132 230.73 164.511C230.78 164.811 230.55 165.061 230.33 165.25C229.62 165.849 228.77 166.179 227.9 166.469C224.8 167.487 221.57 167.826 218.35 168.166C216.2 168.396 214.04 168.485 211.88 168.675C211.49 168.715 210.75 168.336 210.8 169.234C210.85 170.003 211.48 169.674 211.85 169.694C217.42 169.953 222.98 170.193 228.48 171.191C229.36 171.351 230.26 171.451 231.17 171.95C230 172.809 228.72 172.949 227.49 173.158C220.26 174.407 212.93 174.616 205.62 174.906C199.05 175.165 192.48 175.215 185.9 175.205C184.99 175.205 184.7 174.926 184.6 174.067C183.56 165.001 182.48 155.934 181.37 146.519C185.25 146.519 189.07 146.549 192.89 146.519C199.09 146.459 205.29 146.349 211.48 146.259C212.86 146.239 214.22 146.369 215.54 146.778C216.1 146.948 216.74 147.188 216.76 147.857C216.78 148.546 216.08 148.596 215.6 148.765C212.67 149.754 209.6 150.073 206.56 150.493C204.87 150.732 203.18 150.902 201.49 151.132C201.17 151.172 200.69 151.092 200.79 151.721C200.88 152.32 201.24 152.16 201.62 152.12C209.84 151.351 218.06 151.321 226.28 152.22C226.9 152.29 227.5 152.44 228.11 152.579C228.22 152.599 228.31 152.719 228.55 152.889L228.56 152.899Z" fill="#CAE0FF"/>
<path d="M210.68 81.9263H218.19C223.31 81.9263 228.42 81.9263 233.54 81.9263C238.91 81.9363 242.78 85.8204 242.79 91.2122C242.79 99.31 242.79 107.408 242.79 115.506C242.79 120.967 238.92 124.762 233.43 124.831C231.72 124.851 230.55 124.772 229.64 122.785C223.53 109.335 217.21 95.975 210.96 82.5853C210.89 82.4455 210.83 82.2957 210.68 81.9263Z" fill="white"/>
<path d="M64.7402 46.9391C64.9102 46.5696 65.0502 46.2402 65.2102 45.9206C67.1202 42.1064 68.9702 38.2522 70.9702 34.4779C72.4802 31.6122 74.8002 29.4855 77.7302 28.0776C78.8702 27.5284 80.1102 27.2289 81.3302 27.8679C82.1302 28.2773 82.5802 28.8364 81.6902 29.6552C81.3602 29.9647 81.1202 30.3641 80.8302 30.7236C80.6102 30.9932 80.5902 31.2128 80.9102 31.4325C81.2202 31.6522 81.4202 31.5623 81.6402 31.3027C82.4002 30.424 83.1202 29.5054 83.9602 28.6966C85.3102 27.3886 86.8102 26.2803 88.6602 25.7411C89.4902 25.5015 90.3102 25.4815 91.0802 25.9009C92.4202 26.6198 92.5202 27.3287 91.4902 28.3971C90.8602 29.0561 90.2302 29.7251 89.6702 30.434C89.4402 30.7236 88.7902 31.0231 89.4002 31.5324C90.0202 32.0616 90.1602 31.3626 90.4002 31.0731C91.6702 29.4655 93.1202 28.0476 94.8502 26.9293C95.8002 26.3202 96.8102 25.821 97.9602 25.7411C99.1302 25.6612 100.06 26.0506 100.71 27.2089C98.7602 27.7181 97.0602 28.5169 96.0302 30.2643C95.8302 30.6137 95.1502 31.0631 95.8302 31.5124C96.5302 31.9717 96.6102 31.2029 96.8302 30.8434C99.1802 27.0791 105.46 27.0991 108.49 31.0731C107.05 31.0731 105.74 31.1629 104.46 31.0431C103.34 30.9333 102.9 31.4026 102.51 32.3811C100.64 36.9841 98.6702 41.5472 96.7602 46.1303C96.5102 46.7194 96.2802 47.0489 95.5402 47.0489C85.4302 47.019 75.3102 47.029 65.2002 47.029C65.0902 47.029 64.9702 46.989 64.7702 46.9591L64.7402 46.9391Z" fill="#CAE0FF"/>
<path d="M167.48 146.129C160.21 146.439 152.94 146.738 145.68 147.078C144.99 147.108 144.85 146.908 144.86 146.279C144.9 144.372 144.84 142.455 144.88 140.548C144.97 135.775 148.88 131.831 153.66 131.811C163.6 131.771 173.54 131.811 183.48 131.781C184.1 131.781 184.41 131.941 184.68 132.55C186.51 136.534 188.36 140.518 190.28 144.462C190.75 145.43 190.55 145.63 189.55 145.65C183.23 145.75 176.92 145.9 170.6 146.029C169.56 146.049 168.52 146.029 167.49 146.029C167.49 146.059 167.49 146.099 167.49 146.129H167.48Z" fill="white"/>
<path d="M45.9902 140.039C49.8602 141.936 52.9302 141.486 55.7602 138.631C54.3402 137.992 52.9902 137.273 52.5802 135.605C52.2902 134.447 52.7902 133.488 53.3802 132.57C54.5202 130.783 55.5302 130.882 58.7602 133.089C58.7802 131.631 59.4302 131.631 60.6602 131.931C62.3202 132.35 63.9902 131.881 65.3302 130.753C65.9602 130.223 66.1402 130.393 66.4502 130.992C67.2302 132.55 68.0402 134.088 68.8802 135.615C69.2202 136.224 69.0302 136.504 68.4502 136.714C66.9702 137.243 65.5802 136.893 64.2302 136.264C63.8602 136.085 63.4902 135.895 63.1402 135.655C62.8302 135.445 62.6302 135.505 62.4202 135.795C62.1702 136.124 62.3102 136.324 62.6002 136.494C64.5402 137.652 66.5702 138.551 68.8302 137.572C69.6502 137.223 69.8202 137.592 70.0502 138.141C71.1302 140.698 72.1902 143.264 73.3102 145.8C73.6202 146.509 73.3602 146.858 72.8402 147.248C70.1902 149.225 67.2402 150.633 64.1502 151.781C59.1402 153.628 53.9802 154.846 48.7002 155.565C48.2102 155.635 47.8202 155.735 47.7102 155.046C46.9502 150.133 46.1502 145.211 45.9302 140.228C45.9302 140.188 45.9502 140.148 45.9802 140.039H45.9902Z" fill="#CAE0FF"/>
<path d="M247.3 235.524C264.03 235.524 280.75 235.524 297.48 235.534C297.89 235.534 298.57 235.255 298.67 235.804C298.82 236.643 298.84 237.531 298.62 238.38C298.6 238.46 298.33 238.5 298.18 238.51C297.85 238.53 297.51 238.51 297.18 238.51C263.94 238.51 230.69 238.51 197.45 238.49C196.92 238.49 196.09 238.859 195.9 238.22C195.67 237.461 195.76 236.563 195.89 235.754C195.96 235.315 196.53 235.524 196.88 235.524C200.87 235.514 204.87 235.524 208.86 235.524H247.3Z" fill="#F6C254"/>
<path d="M106.65 296.852H105.4C94.1701 296.852 82.9301 296.832 71.7001 296.882C70.6701 296.882 70.3701 296.652 70.3901 295.604C70.4201 293.487 70.3001 291.37 70.1901 289.253C70.1501 288.544 70.3701 288.354 71.0801 288.374C78.7701 288.564 86.4901 288.434 94.1501 288.974C98.9601 289.313 103.06 291.739 106.02 295.753C106.23 296.043 106.38 296.372 106.66 296.852H106.65Z" fill="#CAE0FF"/>
<path d="M58.13 131.132C55.17 129.884 53.75 130.113 52.54 132.001C50.83 134.657 51.16 136.354 53.87 138.9C51.34 140.727 48.39 140.717 46.32 138.88C46.01 138.601 45.73 138.351 45.72 137.862C45.61 132.64 45.38 127.418 46.7 122.285C47.03 120.997 47.51 119.759 48.27 118.661C50.2 115.875 54.38 116.095 56.49 119.1C57.87 121.077 58.19 123.384 58.39 125.7C58.54 127.477 58.47 129.265 58.14 131.122L58.13 131.132Z" fill="#CAE0FF"/>
<path d="M59.1899 296.852C48.2899 296.852 37.5199 296.852 26.7499 296.872C26.0599 296.872 25.9399 296.622 25.9199 296.013C25.8499 293.936 25.7799 291.859 25.5899 289.802C25.5099 288.904 25.8799 288.864 26.5699 288.914C31.9999 289.303 37.4299 289.762 42.8699 290.022C46.6799 290.202 50.3699 290.701 53.8699 292.348C56.3199 293.507 58.2199 294.994 59.1899 296.852Z" fill="#CAE0FF"/>
<path d="M247.78 221.556C245.12 221.556 242.46 221.536 239.81 221.565C239.11 221.565 238.79 221.536 238.97 220.647C239.8 216.673 243.49 213.617 247.63 213.578C251.88 213.538 255.63 216.473 256.54 220.497C256.74 221.396 256.54 221.605 255.63 221.585C253.02 221.526 250.4 221.565 247.78 221.565V221.556Z" fill="#F6C254"/>
<path d="M63.18 125.78C61.87 126.159 60.6 126.419 59.51 127.507C59.34 124.881 59.19 122.435 58.29 120.099C60.22 121.716 61.75 123.643 63.18 125.77V125.78Z" fill="#CAE0FF"/>
<path d="M65.8602 127.527C67.4502 128.586 69.0202 129.664 70.6302 130.693C71.3302 131.142 71.3202 131.481 70.6902 132.001C68.8902 133.498 68.9202 133.508 67.7902 131.392C67.1102 130.133 66.3902 128.905 65.6802 127.657C65.7402 127.617 65.8002 127.567 65.8602 127.527Z" fill="#CAE0FF"/>
<path d="M61.81 127.328C61.45 128.636 61.67 129.794 62.6 130.782C61.16 131.292 59.65 130.962 59.41 130.133C59.13 129.195 60.24 127.867 61.81 127.328Z" fill="#CAE0FF"/>
<path d="M154.07 50.264C153.59 50.6634 153.2 50.943 152.85 51.2725C152.32 51.7618 151.96 52.0314 151.33 51.2425C150.69 50.4438 151.17 50.2141 151.66 49.8347C152.38 49.2755 153.13 48.7463 153.79 48.1173C154.37 47.5581 155.02 47.5581 155.74 47.5381C156.31 47.5282 156.44 47.7678 156.44 48.277C156.43 51.592 156.41 54.917 156.44 58.232C156.46 59.3803 155.66 58.911 155.16 58.9609C154.62 59.0108 154.01 59.1905 154.04 58.192C154.11 55.596 154.06 52.9999 154.06 50.254L154.07 50.264Z" fill="#041C42"/>
<path d="M209.3 132.29C211.81 132.69 214.44 133.089 217.05 133.548C217.99 133.718 218.02 134.707 218.28 135.376C218.48 135.895 217.77 135.905 217.44 136.065C215.84 136.843 214.22 137.582 212.6 138.321C212.18 138.511 211.85 138.681 212.22 139.21C212.73 139.939 212.1 140.059 211.63 140.298C211.14 140.548 210.73 140.778 210.51 140.009C210.26 139.14 209.78 139.749 209.36 139.839C208.91 139.939 208.46 140.568 208.06 140.148C207.65 139.729 207.42 139.08 207.25 138.501C207.13 138.092 207.63 138.012 207.91 137.942C209.18 137.612 209.31 136.963 208.62 135.925C208.26 135.376 208.05 134.737 207.78 134.128C207.18 132.77 207.63 132.181 209.3 132.28V132.29Z" fill="#041C42"/>
<path d="M162.72 106.848C164.04 106.848 165.35 106.908 166.66 106.829C167.63 106.769 167.45 107.368 167.49 107.937C167.54 108.596 167.38 108.895 166.62 108.875C164.67 108.825 162.72 108.875 160.76 108.845C160.34 108.845 159.69 109.135 159.54 108.606C159.37 108.017 159.3 107.328 159.89 106.759C161.09 105.61 162.23 104.402 163.38 103.204C163.9 102.665 164.41 102.116 164.62 101.377C165.03 99.9689 164.37 99.19 162.92 99.3598C162.45 99.4197 162 99.5595 161.68 99.859C160.59 100.877 160.25 99.7592 159.71 99.22C159.38 98.8805 159.72 98.7208 159.93 98.551C161.47 97.3029 163.23 96.9634 165.07 97.5725C167.08 98.2415 167.71 100.248 166.66 102.265C165.87 103.773 164.51 104.772 163.33 105.92C163.09 106.15 162.83 106.349 162.58 106.569L162.7 106.838L162.72 106.848Z" fill="#041C42"/>
<path d="M209.86 134.038C211.5 134.287 213 134.507 214.82 134.786C214.03 135.126 213.55 135.336 213.08 135.545C211.547 136.224 210.473 135.722 209.86 134.038Z" fill="white"/>
</svg>
