<svg width="320" height="298" viewBox="0 0 320 298" fill="none" xmlns="http://www.w3.org/2000/svg">
<path d="M0.0300119 296.828C0.0300119 198.288 0.0300119 99.7482 0 1.20852C0 0.189768 0.210084 0 1.22049 0C107.433 0.0299634 213.788 0 320 0C320 98.2301 320 197.77 320 296C320 296.25 320.01 296.75 320 297C319.74 297.549 319.177 297.257 318.687 297.297C318.107 297.347 317.526 297.317 316.936 297.317C248.179 297.317 179.431 297.317 110.674 297.317C110.054 297.317 109.424 297.327 108.803 297.287C108.043 297.237 107.443 296.918 107.043 296.268C104.762 292.513 101.28 290.386 97.2087 289.047C94.4176 288.138 94.3475 287.939 94.6777 285.042C94.8778 283.274 94.8777 281.476 94.9178 279.699C94.9878 276.962 95.1479 274.215 95.2779 271.489C95.488 267.094 95.578 262.699 95.9382 258.315C96.0982 256.337 96.1383 254.33 96.1783 252.352C96.3383 245.8 96.8185 239.258 97.0386 232.706C97.2187 227.402 97.5888 222.099 97.7389 216.785C97.909 210.773 98.6192 204.87 101.11 199.307C104.191 192.425 108.973 187.411 116.326 184.984C124.8 182.198 133.493 180.34 142.227 178.642C150.79 176.974 159.403 175.636 168.057 174.477C173.079 173.808 178.101 173.129 183.173 172.909C185.344 172.819 186.804 171.73 188.035 170.092C191.046 166.087 193.477 161.743 195.708 157.278C195.988 156.719 196.278 156.169 196.548 155.61C197.008 154.641 197.769 154.182 198.839 154.202C199.419 154.202 200.01 154.202 200.59 154.202C233.863 154.202 267.136 154.202 300.41 154.202C301.44 154.202 302.48 154.272 303.491 153.882C305.171 153.233 306.362 151.695 306.362 149.887C306.392 138.211 306.372 126.526 306.372 114.85C306.372 112.003 303.881 110.255 301.53 110.255C274.799 110.305 248.059 110.285 221.328 110.285C209.964 110.285 198.589 110.275 187.224 110.285C184.844 110.285 183.163 111.534 182.553 113.651C182.393 114.191 182.433 114.72 182.433 115.259C182.433 123.489 182.433 131.719 182.433 139.949C182.433 142.786 182.222 143.115 179.381 143.345C176.48 143.585 173.579 143.755 170.678 143.964C167.117 144.224 163.555 144.494 160.004 144.823C157.523 145.053 155.032 145.193 152.551 145.442C148.549 145.842 144.527 146.162 140.526 146.561C137.555 146.861 134.574 147.18 131.602 147.44C128.291 147.73 124.99 148.129 121.698 148.509C117.287 149.018 112.875 149.547 108.473 150.137C102.131 150.976 95.8081 151.885 89.5056 153.023C86.1543 153.632 82.813 154.312 79.5016 155.101C77.911 155.48 77.3808 155.151 76.7605 153.553C75.0599 149.218 73.7293 144.753 71.8086 140.508C71.1083 138.96 70.418 137.392 69.6777 135.864C68.9674 134.386 69.0975 133.887 70.348 132.858C70.5781 132.678 70.8182 132.518 71.0383 132.318C71.9986 131.44 71.9886 130.9 70.8982 130.151C69.1775 128.983 67.4468 127.834 65.7061 126.705C64.1055 125.667 63.9755 125.247 64.6957 123.529C68.3572 114.71 72.0887 105.911 75.7701 97.0915C76.2403 95.9728 76.9606 95.3636 78.1411 95.1638C84.4936 94.1051 90.8261 92.9465 97.1687 91.8379C99.7897 91.3784 102.401 90.919 105.022 90.4496C106.943 90.11 107.243 90.2998 107.763 92.1375C109.083 96.8418 113.165 99.3188 117.137 99.3188C176.94 99.2988 236.734 99.2888 296.538 99.3188C302.53 99.3188 306.502 94.4147 306.432 89.5007C306.312 81.4006 306.342 73.2905 306.422 65.1804C306.482 59.1878 301.42 55.3325 296.548 55.3424C239.375 55.4024 182.192 55.3824 125.02 55.3824C122.739 55.3824 121.388 54.2538 120.968 51.9965C119.858 45.9639 118.857 39.9113 117.767 33.8687C117.707 33.5391 117.637 33.2194 117.557 32.8998C117.287 31.7013 117.057 31.5115 115.856 31.7413C113.935 32.1208 112.015 32.4304 110.094 32.77C102.191 34.1483 94.3075 35.5766 86.4044 36.9449C82.5528 37.6141 78.7013 38.2733 74.8598 39.0024C73.3492 39.292 71.9986 39.1422 70.6181 38.523C69.1775 37.8838 67.6969 37.3244 66.0563 37.4243C64.8258 37.5042 64.5557 37.8738 64.9959 38.9724C65.4961 40.2209 65.336 40.6104 64.0155 40.8701C61.1643 41.4294 58.2932 41.8989 55.4321 42.3982C49.7098 43.407 43.9775 44.4058 38.2452 45.4046C36.7946 45.6543 36.6246 45.894 36.8747 47.2923C38.7854 58.0691 40.6862 68.846 42.5669 79.6328C43.7274 86.2847 44.9379 92.9366 46.1083 99.5984C46.2884 100.627 46.1884 101.576 45.8182 102.525C38.6954 120.773 33.0031 139.47 27.9811 158.387C25.5001 167.735 23.3593 177.154 21.5986 186.662C21.1884 188.859 20.7583 191.067 20.5982 193.304C20.4281 195.661 20.7082 198.038 20.8683 200.385C21.0384 202.743 21.0684 205.11 21.2084 207.467C21.3685 210.273 21.4385 213.11 21.5886 215.916C21.7987 219.802 21.9087 223.697 22.2288 227.582C22.3989 229.57 22.4189 231.567 22.4689 233.545C22.539 236.411 22.689 239.268 22.8391 242.124C23.0492 245.93 23.1392 249.745 23.4693 253.541C23.6394 255.518 23.6594 257.526 23.7094 259.503C23.7895 262.37 23.9195 265.226 24.0796 268.083C24.2897 271.888 24.3697 275.703 24.7198 279.499C24.8999 281.436 24.8599 283.394 24.9599 285.342C25.14 288.738 25.24 292.133 25.4301 295.529C25.4901 296.658 25.07 297.127 23.9395 297.257C23.7695 297.277 23.6094 297.277 23.4393 297.277C16.1564 297.277 8.86353 297.277 1.58063 297.277C1.02041 297.277 0.470187 297.227 0.0400159 296.798L0.0300119 296.828Z" fill="#A1C9FF"/>
<path d="M0.0300177 296.828C7.94317 296.828 15.8563 296.808 23.7695 296.858C24.8799 296.858 25.03 296.528 24.9799 295.529C24.3697 283.704 23.8195 271.878 23.2493 260.043C22.539 245.52 21.8187 230.988 21.1084 216.466C20.7483 209.035 20.3381 201.614 20.068 194.173C19.978 191.566 20.6982 188.999 21.1684 186.433C24.9199 165.738 30.6622 145.562 37.0748 125.567C39.6358 117.597 42.3769 109.686 45.5181 101.916C45.7782 101.266 45.8082 100.647 45.6882 99.9781C42.5169 82.0799 39.3657 64.1818 36.1744 46.2936C36.0143 45.4247 36.2444 45.2748 37.0247 45.135C46.0783 43.5769 55.1219 41.9789 64.1755 40.3808C64.5057 40.3209 64.8158 40.221 65.216 40.1311C64.6657 39.3421 63.6553 38.603 64.3156 37.6042C65.0159 36.5455 66.2664 36.8352 67.3168 36.975C68.8074 37.1747 70.2179 37.7141 71.5485 38.4032C72.2988 38.7928 73.0091 38.8327 73.8094 38.6929C83.4332 36.985 93.047 35.287 102.671 33.5991C107.343 32.7801 112.015 32.011 116.666 31.1221C117.607 30.9423 117.787 31.232 117.917 32.0011C118.837 37.3146 119.778 42.6281 120.708 47.9416C121.058 49.9392 121.418 51.9467 121.748 53.9543C121.858 54.6134 122.069 55.0429 122.849 54.9031C123.129 54.8532 123.429 54.9031 123.719 54.9031C181.182 54.9031 238.655 54.9031 296.118 54.9031C302.71 54.9031 306.862 59.048 306.862 65.64C306.862 73.5803 306.862 81.5206 306.862 89.4609C306.862 95.5035 302.55 99.7983 296.468 99.7983C236.714 99.7983 176.96 99.7983 117.197 99.7983C112.115 99.7983 108.193 96.6222 107.173 91.6482C107.003 90.8392 106.782 90.6095 105.912 90.7693C97.6088 92.2675 89.2955 93.7057 80.9822 95.1839C79.5617 95.4336 77.811 95.2039 76.8406 96.1427C75.8802 97.0716 75.5801 98.7096 75.0199 100.048C71.6185 108.148 68.2372 116.258 64.8058 124.348C64.4857 125.097 64.6257 125.417 65.266 125.827C67.2267 127.075 69.1475 128.393 71.0883 129.692C72.6589 130.741 72.7089 131.649 71.2383 132.778C69.4176 134.176 69.3776 134.206 70.408 136.324C73.1991 142.037 75.1999 148.049 77.3808 153.992C77.6909 154.841 78.001 155.011 78.8914 154.781C86.7245 152.794 94.6977 151.575 102.681 150.426C111.204 149.198 119.758 148.189 128.321 147.3C135.564 146.541 142.807 145.832 150.06 145.203C158.893 144.424 167.727 143.755 176.56 143.036C177.971 142.926 179.381 142.786 180.792 142.756C181.632 142.736 181.872 142.306 181.912 141.607C181.932 141.278 181.912 140.938 181.912 140.608C181.912 132.169 181.912 123.729 181.912 115.299C181.912 111.764 183.933 109.776 187.505 109.776C225.4 109.776 263.295 109.776 301.19 109.776C304.901 109.776 306.842 111.744 306.842 115.479C306.842 126.616 306.842 137.762 306.842 148.898C306.842 152.714 304.911 154.661 301.12 154.661C267.096 154.661 233.073 154.661 199.059 154.631C197.819 154.631 197.258 155.021 196.748 156.1C194.397 161.053 191.856 165.908 188.465 170.252C188.335 170.412 188.195 170.572 188.075 170.732C186.874 172.41 185.334 173.169 183.173 173.358C163.965 175.026 144.978 178.083 126.23 182.587C122.109 183.576 118.037 184.725 114.115 186.343C108.923 188.48 105.282 192.295 102.691 197.179C99.9798 202.283 98.6593 207.737 98.4092 213.519C97.6589 230.708 96.8085 247.888 96.0082 265.067C95.6681 272.248 95.3679 279.429 94.9878 286.61C94.9378 287.629 95.1979 288.018 96.1983 288.288C101.02 289.567 105.112 291.914 107.623 296.438C107.793 296.748 107.993 296.848 108.313 296.838C108.683 296.838 109.063 296.838 109.434 296.838C179.021 296.838 248.599 296.838 318.187 296.838C318.727 296.838 319.46 296.828 320 296.838V298C214.488 298 107.123 297.966 1.61065 297.966C1.08044 297.966 0.530217 298.096 0.0100098 297.846V296.848L0.0300177 296.828Z" fill="#041C42"/>
<path d="M206.772 98.7896C176.96 98.7896 147.149 98.7896 117.337 98.7896C112.575 98.7896 108.923 95.8232 108.083 91.3487C107.943 90.5796 108.103 90.3798 108.873 90.25C114.776 89.2412 120.658 88.1426 126.56 87.1538C127.511 86.994 127.561 86.6244 127.431 85.8454C125.7 76.2071 123.999 66.5689 122.269 56.9307C122.129 56.1716 122.219 55.852 123.129 55.872C126.58 55.9319 130.042 55.8919 133.493 55.8919C187.705 55.8919 241.916 55.8919 296.128 55.8919C302.15 55.8919 305.872 59.5874 305.872 65.5801C305.872 73.5204 305.872 81.4607 305.872 89.3911C305.872 94.9543 302.04 98.7896 296.468 98.7896C266.576 98.7896 236.674 98.7896 206.782 98.7896H206.772Z" fill="white"/>
<path d="M75.57 96.1826C71.5885 105.661 67.6669 115.01 63.6653 124.508C61.9646 122.231 60.274 120.143 58.1831 118.425C56.8926 117.367 55.4921 116.488 53.8814 115.978C50.8302 115.02 48.5093 115.988 46.9887 118.815C45.8082 121.012 45.298 123.409 45.0279 125.846C44.2476 133.038 44.7478 140.199 45.6381 147.34C45.9983 150.177 46.5285 153.003 46.9287 155.83C47.0187 156.449 47.1988 156.719 47.859 156.629C56.1623 155.43 64.2756 153.603 71.5985 149.258C72.3788 148.788 73.1091 148.239 73.9794 147.65C74.9098 150.167 75.8702 152.634 76.7205 155.131C77.0306 156.03 77.3508 156.209 78.3111 155.96C86.3243 153.832 94.4976 152.604 102.691 151.425C111.334 150.177 120.008 149.158 128.691 148.239C138.745 147.18 148.809 146.202 158.883 145.403C165.976 144.843 173.079 144.334 180.172 143.745C181.182 143.665 181.582 143.864 181.652 144.913C181.752 146.441 181.782 147.989 181.962 149.508C182.252 151.925 182.753 154.322 183.023 156.749C183.533 161.453 184.073 166.157 184.723 170.841C184.894 172.04 184.483 172.22 183.493 172.28C179.962 172.499 176.45 172.909 172.939 173.328C161.994 174.627 151.11 176.335 140.296 178.462C132.633 179.97 125.04 181.768 117.547 183.985C108.163 186.772 102.571 193.104 99.4796 202.043C98.4792 204.92 97.8189 207.876 97.5688 210.903C97.4888 211.841 97.1786 211.821 96.4083 211.642C75.47 206.498 54.5217 201.384 33.5833 196.27C29.8318 195.352 26.0904 194.393 22.3189 193.544C21.2784 193.304 21.0684 192.935 21.2284 191.896C22.679 182.547 24.6798 173.308 27.0007 164.13C31.9827 144.414 37.835 124.967 44.9879 105.931C45.4981 104.572 46.0583 103.234 46.5785 101.876C46.7486 101.426 46.9687 101.127 47.5189 101.037C56.6525 99.4586 65.7761 97.8506 74.9098 96.2525C75.0598 96.2226 75.2199 96.2226 75.56 96.1926L75.57 96.1826Z" fill="#A1C9FF"/>
<path d="M95.7482 250.245C95.1679 262.49 94.5877 274.735 94.0375 286.98C94.0075 287.699 93.7674 287.859 93.0971 287.849C85.7342 287.679 78.3612 287.519 70.9983 287.389C70.308 287.379 70.198 287.1 70.168 286.51C69.7578 278.88 69.1176 271.259 67.9971 263.698C66.2764 252.062 64.0656 240.546 59.4237 229.65C58.2032 226.783 56.7827 223.997 54.5218 221.769C54.3117 221.57 54.1116 221.36 53.8815 221.18C51.4705 219.212 49.5898 219.672 48.4593 222.558C47.1288 225.964 46.8087 229.58 46.5486 233.175C45.5282 247.338 45.9984 261.501 46.6886 275.654C46.8987 279.928 47.1688 284.203 47.4489 288.468C47.489 289.087 47.4189 289.347 46.6786 289.297C39.9159 288.807 33.1433 288.338 26.3706 287.919C25.6002 287.869 25.5502 287.539 25.5202 286.92C24.6899 269.151 23.8395 251.393 22.9892 233.625C22.369 220.88 21.7487 208.146 21.0885 195.401C21.0384 194.413 21.1885 194.243 22.1989 194.493C46.8387 200.545 71.4885 206.568 96.1483 212.561C97.2688 212.83 97.5089 213.28 97.4588 214.398C96.8486 226.354 96.3084 238.299 95.7482 250.255H95.7682L95.7482 250.245Z" fill="#CAE0FF"/>
<path d="M182.933 137.832C182.933 130.061 182.913 122.291 182.953 114.52C182.963 112.473 184.683 110.865 186.734 110.765C187.064 110.745 187.405 110.765 187.735 110.765C225.5 110.765 263.265 110.765 301.03 110.765C304.481 110.765 305.872 112.153 305.872 115.609C305.872 126.785 305.872 137.972 305.872 149.148C305.872 152.154 304.361 153.662 301.33 153.662C267.356 153.662 233.383 153.662 199.399 153.662H198.029C199.079 151.235 200.09 148.978 201.04 146.691C203.321 141.208 205.422 135.664 206.802 129.871C207.022 128.963 207.312 128.014 207.122 127.055C207.022 126.555 206.992 125.936 206.322 125.766C205.652 125.597 205.202 125.986 204.851 126.476C204.051 127.594 203.461 128.833 202.921 130.101C202.831 130.321 202.721 130.531 202.39 130.66C202.771 128.773 203.171 126.895 203.541 125.007C203.881 123.259 204.191 121.512 204.171 119.714C204.171 118.835 204.031 117.966 203.001 117.776C202.03 117.596 201.62 118.306 201.34 119.105C201.04 119.964 200.69 120.802 200.18 121.641C200.18 120.563 200.17 119.494 200.18 118.415C200.19 117.616 199.899 116.987 199.119 116.797C198.379 116.618 198.009 117.217 197.679 117.756C196.988 118.895 196.568 120.153 195.918 121.392C195.918 120.483 195.938 119.564 195.918 118.655C195.908 118.096 195.758 117.546 195.188 117.317C194.547 117.057 194.157 117.556 193.837 117.966C192.737 119.364 192.256 121.062 191.676 122.7C190.826 125.127 190.126 127.604 189.345 130.051C189.195 130.511 189.015 130.96 188.735 131.749C188.615 130.081 188.775 128.763 188.425 127.484C188.415 127.444 188.425 127.394 188.425 127.364C188.195 126.565 188.315 125.397 187.224 125.297C186.234 125.207 185.794 126.176 185.474 126.985C184.944 128.343 184.673 129.762 184.433 131.2C184.063 133.427 183.793 135.684 182.943 137.822L182.933 137.832Z" fill="#004079"/>
<path d="M117.016 32.79C117.627 36.2358 118.167 39.332 118.717 42.4283C120.518 52.6058 122.329 62.7734 124.119 72.951C124.85 77.076 125.54 81.2109 126.3 85.3359C126.43 86.0151 126.26 86.2048 125.63 86.3147C115.716 88.0426 105.812 89.8004 95.898 91.5383C86.1541 93.2562 76.4102 94.9541 66.6664 96.672C60.3639 97.7807 54.0614 98.8893 47.7588 100.028C46.9085 100.178 46.6384 99.9281 46.4883 99.0691C44.0674 85.1661 41.6064 71.283 39.1554 57.38C38.5552 53.9542 37.9449 50.5284 37.2947 46.8429C39.5156 48.2811 41.5564 49.5895 43.5872 50.9179C56.7024 59.4874 69.8276 68.047 82.9228 76.6465C83.7732 77.2058 84.0333 76.7763 84.4434 76.227C93.6271 63.962 102.821 51.697 112.014 39.4319C113.605 37.3145 115.196 35.1971 117.006 32.79H117.016Z" fill="#F6C254"/>
<path d="M37.895 46.0137C49.4796 43.9762 60.7641 41.9887 72.1487 39.9811C71.8485 41.0398 71.5284 41.9387 71.3483 42.8576C71.1382 43.8763 70.9482 44.995 72.0586 45.6542C73.109 46.2734 74.0694 45.794 74.9398 45.1548C75.3699 44.8352 75.7401 44.4457 76.2503 43.9862C76.5104 44.8352 76.6304 45.794 77.7209 45.8939C78.8213 46.0038 79.6316 45.4245 80.3419 44.6953C80.9521 44.0861 81.5024 43.4169 82.1426 42.6878C82.2927 43.6766 82.4527 44.6055 83.5232 44.8552C84.5736 45.0949 85.3739 44.5555 86.0842 43.8763C86.4143 43.5667 86.7044 43.2072 86.9745 42.8376C87.6148 41.9587 87.8749 40.89 89.5456 41.7989C90.7861 42.4781 92.1466 41.3594 93.087 40.2707C94.0474 39.1621 94.7176 37.8737 95.3079 36.5353C95.5079 36.0859 95.728 35.7962 96.2682 35.6963C102.531 34.6177 108.793 33.509 115.056 32.4203C115.326 32.3704 115.606 32.2206 115.986 32.4603C113.725 35.4866 111.474 38.4929 109.213 41.5092C100.92 52.5657 92.5968 63.6123 84.3435 74.6987C83.6232 75.6675 83.163 75.5677 82.3027 74.9983C68.7873 66.1392 55.2519 57.3199 41.7165 48.4807C40.5361 47.7117 39.3656 46.9426 37.895 45.9938V46.0137Z" fill="#F6C254"/>
<path d="M69.4778 289.157C69.4778 291.444 69.4478 293.722 69.4979 296.009C69.5079 296.678 69.3178 296.858 68.6675 296.848C66.1265 296.818 63.5855 296.838 61.0545 296.828C60.7444 296.828 60.4543 296.898 60.2342 296.478C58.4334 293.042 55.1021 291.694 51.7408 290.396C51.3206 290.236 50.8704 290.116 50.4403 289.976C48.4695 289.377 48.4495 289.377 48.3094 287.259C47.369 272.168 46.6988 257.066 47.0689 241.935C47.209 236.172 47.4291 230.399 48.7696 224.736C48.9997 223.767 49.3198 222.828 49.82 221.949C50.3402 221.05 51.0305 220.791 52.0109 221.22C53.8716 222.029 54.9721 223.607 55.9825 225.225C59.0737 230.209 60.8744 235.732 62.425 241.326C65.4662 252.272 67.2069 263.439 68.2874 274.735C68.7476 279.529 69.0577 284.333 69.4878 289.147L69.4778 289.157Z" fill="#A1C9FF"/>
<path d="M206.002 126.955C206.072 129.402 205.412 131.679 204.672 133.916C200.9 145.412 196.198 156.499 189.736 166.776C188.675 168.454 187.525 170.082 185.964 171.491C185.514 170.672 185.604 169.823 185.504 169.043C184.474 160.634 183.483 152.224 182.483 143.814C182.453 143.525 182.433 143.245 182.553 142.965C184.234 138.77 184.954 134.356 185.684 129.931C185.894 128.683 186.134 127.404 187.075 126.306C187.615 127.504 187.615 128.703 187.615 129.871C187.615 131.869 187.495 133.856 187.445 135.854C187.445 136.234 187.225 136.783 187.795 136.903C188.455 137.043 188.485 136.393 188.595 136.004C189.916 131.559 191.146 127.075 192.727 122.71C193.257 121.262 193.737 119.774 194.838 118.305C195.148 120.463 194.808 122.321 194.548 124.188C193.977 128.253 192.837 132.218 192.357 136.313C192.307 136.743 192.037 137.342 192.647 137.492C193.367 137.662 193.337 136.953 193.447 136.503C194.658 131.25 195.668 125.956 197.419 120.842C197.779 119.794 198.099 118.715 198.999 117.756C199.35 118.645 199.31 119.444 199.25 120.243C198.899 125.397 197.629 130.391 196.578 135.425C196.428 136.154 196.278 136.883 196.138 137.622C196.068 138.011 195.828 138.521 196.408 138.661C196.989 138.8 197.039 138.251 197.139 137.872C197.739 135.504 198.319 133.127 198.929 130.76C199.82 127.314 200.69 123.849 201.871 120.483C201.911 120.363 201.911 120.223 201.981 120.123C202.291 119.684 202.181 118.715 202.871 118.845C203.431 118.945 203.171 119.794 203.151 120.293C203.071 122.201 202.761 124.088 202.351 125.956C201.45 130.001 200.5 134.036 199.57 138.081C199.51 138.321 199.44 138.561 199.4 138.81C199.35 139.16 199.15 139.629 199.65 139.769C200.18 139.919 200.32 139.46 200.48 139.06C201.54 136.313 202.581 133.567 203.711 130.85C204.282 129.462 204.832 128.034 206.012 126.975L206.002 126.955Z" fill="#CAE0FF"/>
<path d="M46.0183 139.899C49.6997 142.176 52.871 141.238 55.9122 138.581C54.1215 137.832 52.5209 136.903 52.5909 134.785C52.6409 133.387 53.2512 132.039 54.6117 131.419C56.3724 130.62 57.4528 131.979 58.5933 132.978C58.6933 132.938 58.8234 132.908 58.8234 132.878C58.9334 131.669 59.3736 131.479 60.6141 131.849C62.2647 132.338 63.9654 131.879 65.2959 130.76C66.0562 130.121 66.2363 130.411 66.5665 131.07C67.3068 132.548 68.0571 134.036 68.8874 135.475C69.3176 136.224 69.0474 136.503 68.3772 136.713C66.8366 137.202 65.426 136.783 64.0555 136.094C63.7553 135.944 63.4552 135.794 63.1851 135.604C62.865 135.375 62.6749 135.485 62.4748 135.764C62.2247 136.104 62.4048 136.294 62.6749 136.453C64.6157 137.612 66.6365 138.461 68.9174 137.532C69.4576 137.312 69.7577 137.242 70.0178 137.892C71.1283 140.568 72.2687 143.235 73.4292 145.892C73.7693 146.671 73.2291 146.941 72.7689 147.28C69.8177 149.497 66.4764 150.976 63.015 152.164C58.4032 153.752 53.6813 154.851 48.8394 155.5C48.3292 155.57 47.879 155.75 47.749 154.961C46.9887 150.167 46.2684 145.362 45.9683 140.508C45.9683 140.359 45.9883 140.199 46.0083 139.919L46.0183 139.899Z" fill="#CAE0FF"/>
<path d="M106.532 296.828H105.462C94.2274 296.828 82.9829 296.808 71.7484 296.858C70.708 296.858 70.4279 296.598 70.4479 295.569C70.4779 293.542 70.3679 291.504 70.2579 289.467C70.2078 288.668 70.2979 288.318 71.2683 288.338C78.8813 288.538 86.5143 288.418 94.0973 288.937C99.0193 289.277 103.181 291.724 106.152 295.839C106.332 296.089 106.602 296.338 106.532 296.828Z" fill="#CAE0FF"/>
<path d="M58.173 131.04C55.0818 129.832 53.7412 130.061 52.5307 132.009C50.8801 134.656 51.2202 136.374 53.8913 138.801C51.4903 140.648 48.4591 140.658 46.3783 138.821C46.0682 138.551 45.768 138.301 45.758 137.812C45.648 132.588 45.4179 127.365 46.7284 122.231C47.0486 120.982 47.5087 119.784 48.219 118.705C50.1298 115.809 54.3615 115.959 56.5123 119.005C57.7228 120.723 58.0929 122.71 58.333 124.738C58.5831 126.845 58.5231 128.933 58.173 131.04Z" fill="#CAE0FF"/>
<path d="M59.2935 296.828H58.053C47.7789 296.828 37.4948 296.818 27.2207 296.848C26.3204 296.848 25.9202 296.708 25.9202 295.679C25.9202 293.692 25.7801 291.694 25.6201 289.707C25.5501 288.897 25.8802 288.828 26.5304 288.878C33.5833 289.367 40.6561 289.677 47.6789 290.396C51.2803 290.765 54.6516 292.233 57.5128 294.611C58.183 295.17 58.7733 295.819 59.2835 296.818L59.2935 296.828Z" fill="#CAE0FF"/>
<path d="M88.7452 37.0947C87.9049 39.4119 87.0345 41.4993 85.3839 43.1573C84.9137 43.6268 84.3735 44.1661 83.6532 43.8165C83.0329 43.5169 83.193 42.8078 83.223 42.2384C83.303 40.9001 83.7132 39.6516 84.1534 38.4031C84.2534 38.1135 84.3734 37.8738 84.7036 37.8138C85.9941 37.5841 87.2946 37.3544 88.7352 37.1047L88.7452 37.0947Z" fill="#CAE0FF"/>
<path d="M83.203 38.1133C82.2627 40.6102 81.1122 42.7376 79.2114 44.3756C78.8113 44.7252 78.2911 45.1147 77.7509 44.8451C77.1606 44.5454 77.3607 43.9062 77.4307 43.3868C77.6108 41.9786 78.171 40.6702 78.6512 39.3518C78.7613 39.0421 78.9413 38.8524 79.2515 38.8024C80.512 38.5827 81.7725 38.363 83.193 38.1233L83.203 38.1133Z" fill="#CAE0FF"/>
<path d="M77.6208 39.2322C76.9405 41.2897 75.9501 43.0375 74.3395 44.3659C73.8693 44.7554 73.2691 45.1649 72.6388 44.8254C71.9386 44.4558 72.2887 43.7267 72.2987 43.1374C72.2987 43.0975 72.3187 43.0575 72.3287 43.0176C72.959 39.9413 73.7893 39.3321 77.6308 39.2322H77.6208Z" fill="#CAE0FF"/>
<path d="M94.3475 36.1458C93.5972 37.8637 92.8669 39.3718 91.4464 40.4205C90.8661 40.85 90.1258 41.2196 89.4856 40.8001C88.8253 40.3706 89.2255 39.6015 89.3555 38.9723C89.6356 37.4941 90.3059 36.4853 92.0266 36.5153C92.7469 36.5253 93.4772 36.2956 94.3575 36.1458H94.3475Z" fill="#CAE0FF"/>
<path d="M63.2652 125.706C61.8546 126.056 60.6242 126.376 59.5337 127.434C59.4137 124.778 59.2136 122.331 58.3232 119.993C60.254 121.621 61.7546 123.569 63.2752 125.716L63.2652 125.706Z" fill="#CAE0FF"/>
<path d="M65.8861 127.435C67.5068 128.513 69.1074 129.602 70.7381 130.661C71.3983 131.09 71.3183 131.43 70.7781 131.899C68.9674 133.467 68.9874 133.477 67.8669 131.36C67.5168 130.701 67.1366 130.061 66.7665 129.412C66.4163 128.813 66.0662 128.214 65.7161 127.604C65.7761 127.544 65.8261 127.494 65.8861 127.435Z" fill="#CAE0FF"/>
<path d="M61.7647 127.294C61.6046 128.563 61.5946 129.781 62.7351 130.71C61.0444 131.18 59.6639 130.85 59.4538 130.011C59.2237 129.082 60.2841 127.814 61.7647 127.294Z" fill="#CAE0FF"/>
<path d="M70.4779 39.2322C69.2674 39.442 68.067 39.7716 66.8465 39.8315C66.0562 39.8715 65.5459 39.1024 65.2658 38.4332C65.0257 37.8639 65.646 37.9238 65.9761 37.9039C67.5968 37.804 69.0273 38.4432 70.4879 39.2322H70.4779Z" fill="#CAE0FF"/>
<path d="M239.065 145.872C238.875 145.712 238.635 145.543 238.435 145.343C234.373 141.288 230.322 137.223 226.23 133.188C225.58 132.538 225.69 132.079 226.24 131.52C227.24 130.521 228.271 129.542 229.231 128.513C229.781 127.914 230.142 128.064 230.642 128.573C233.183 131.15 235.774 133.677 238.305 136.264C238.965 136.943 239.345 136.913 239.995 136.254C245.958 130.221 251.96 124.219 257.933 118.196C258.573 117.547 259.073 117.417 259.753 118.196C260.564 119.145 261.464 120.024 262.394 120.843C263.135 121.482 263.175 122.001 262.444 122.65C262.134 122.92 261.914 123.29 261.624 123.579C254.451 130.761 247.268 137.932 240.086 145.103C239.795 145.393 239.575 145.772 239.055 145.862L239.065 145.872Z" fill="#041C42"/>
<path d="M226.6 132.518C227.641 131.539 228.451 130.89 229.131 130.111C229.731 129.422 230.081 129.362 230.762 130.071C233.263 132.688 235.864 135.195 238.365 137.802C238.975 138.431 239.275 138.451 239.895 137.822C245.938 131.699 252.02 125.617 258.063 119.484C258.663 118.875 258.993 118.795 259.563 119.484C260.243 120.313 261.614 121.042 261.634 121.831C261.654 122.59 260.334 123.399 259.573 124.158C253.041 130.73 246.488 137.292 239.975 143.884C239.345 144.524 239.025 144.594 238.335 143.914C234.493 140.119 230.592 136.384 226.6 132.518Z" fill="white"/>
</svg>
