<svg viewBox="0 0 320 298" fill="none" xmlns="http://www.w3.org/2000/svg">
<g clip-path="url(#clip0_707_4415)">
<rect width="320" height="298" fill="#F6C254"/>
<path d="M-0.00496314 297.237C-0.00496314 198.711 0.0298478 98.5265 -0.000163814 0C106.211 0.0299594 213.789 0 320 0C320 98.3767 320 198.871 320 297.247H314.581C308.459 297.247 302.337 297.247 296.214 297.247C295.494 297.247 294.424 297.517 294.214 296.718C294.004 295.939 295.104 295.819 295.684 295.48C301.646 291.994 304.798 286.841 304.307 279.931C303.827 273.2 300.146 268.536 293.913 265.91C293.403 265.69 292.633 265.64 292.643 264.921C292.643 264.312 293.333 264.152 293.823 263.952C294.404 263.713 294.964 263.433 295.524 263.173C301.987 260.128 305.048 253.097 304.287 247.055C303.317 239.396 297.565 234.203 290.932 233.144C290.022 233.004 289.122 232.924 288.201 232.924C277.337 232.924 266.463 232.924 255.599 232.924C246.215 232.934 238.952 240.265 239.412 249.612C239.732 256.053 242.994 260.807 248.946 263.563C249.476 263.813 250.046 263.952 250.547 264.252C251.337 264.731 251.337 265.141 250.547 265.58C250.217 265.76 249.856 265.87 249.516 266.02C243.654 268.606 240.113 273.09 239.452 279.392C238.792 285.693 241.283 290.836 246.545 294.531C247.365 295.11 248.246 295.57 249.116 296.069C249.366 296.209 249.666 296.379 249.596 296.718C249.526 297.038 249.196 297.108 248.916 297.167C248.466 297.267 248.006 297.247 247.546 297.247C233.1 297.247 218.644 297.247 204.199 297.247C204.029 297.247 203.869 297.247 203.699 297.247C202.078 297.197 201.598 296.808 201.748 295.24C201.928 293.293 201.808 291.325 202.028 289.398C202.288 287.081 202.308 284.754 202.388 282.437C202.588 276.256 203.028 270.084 203.258 263.903C203.448 258.759 203.689 253.626 203.979 248.483C204.269 243.26 204.499 238.038 204.729 232.815C205.039 225.894 205.409 218.973 205.739 212.053C205.999 206.71 206.3 201.367 206.48 196.014C206.75 187.776 210.011 180.625 214.413 173.894C218.224 168.072 222.696 162.76 227.368 157.607C236.481 147.55 246.305 138.203 255.769 128.496C264.772 119.268 273.556 109.831 281.189 99.4053C283.109 96.7889 284.97 94.1325 286.701 91.3962C287.191 90.6272 287.411 89.8483 287.401 88.9295C287.381 81.4497 287.831 73.9998 288.571 66.5598C288.922 63.0446 289.392 59.5493 289.822 56.0541C289.902 55.395 289.902 54.7259 289.862 54.0568C289.842 53.6873 289.862 53.2678 289.402 53.138C289.002 53.0282 288.811 53.3677 288.601 53.6174C287.991 54.3664 287.571 55.2252 287.141 56.074C286.951 56.4435 286.811 56.843 286.581 57.1825C286.421 57.4222 286.22 57.7218 285.89 57.592C285.6 57.4821 285.54 57.1526 285.52 56.853C285.49 56.3936 285.61 55.9442 285.72 55.5048C286.28 53.0781 286.761 50.6314 287.061 48.1548C287.151 47.3658 287.161 46.5769 287.061 45.788C287.011 45.3586 286.811 44.9891 286.301 44.9391C285.86 44.8992 285.62 45.1389 285.43 45.5084C285.06 46.2074 284.81 46.9564 284.51 47.6854C284.34 48.0949 284.2 48.714 283.669 48.6042C283.189 48.5043 283.199 47.8751 283.169 47.4258C283.119 46.5969 283.159 45.768 283.109 44.9291C283.089 44.5297 282.989 44.1702 282.569 44.0304C282.129 43.8905 281.869 44.2201 281.649 44.5197C281.299 44.9891 281.059 45.5183 280.828 46.0576C280.598 46.5969 280.418 47.1461 280.158 47.6654C279.998 47.985 279.868 48.4643 279.418 48.3545C279.008 48.2646 278.988 47.7853 278.938 47.4158C278.868 46.8366 278.908 46.2573 278.868 45.6681C278.838 45.2487 278.868 44.7793 278.357 44.6495C277.917 44.5397 277.707 44.9192 277.477 45.2088C276.817 46.0376 276.487 47.0363 276.107 47.995C274.956 50.9011 274.066 53.887 273.175 56.873C273.005 57.4422 272.905 58.3709 272.225 58.2811C271.525 58.1912 271.675 57.2724 271.665 56.6732C271.645 55.5847 271.505 54.5162 271.255 53.4676C271.165 53.0781 271.085 52.5688 270.594 52.4989C270.054 52.419 269.804 52.8884 269.594 53.2878C269.074 54.2465 268.824 55.3051 268.604 56.3636C267.293 62.5852 265.783 68.7569 264.362 74.9585C264.082 76.1668 263.572 77.2054 262.771 78.1541C259.28 82.3385 255.669 86.403 251.877 90.3276C248.056 94.2723 244.134 98.1071 240.173 101.902C235.311 106.556 230.359 111.129 225.337 115.623C220.625 119.838 215.983 124.122 211.251 128.316C206.77 132.281 202.288 136.265 197.776 140.2C194.295 143.236 190.864 146.312 187.332 149.298C186.282 150.187 185.331 150.266 184.151 149.647C182.07 148.549 180.35 147.62 180.28 144.584C180.159 139.201 179.239 133.839 177.939 128.586C176.838 124.142 175.588 119.748 172.977 115.883C172.086 114.565 171.026 113.396 169.715 112.488C167.465 110.92 165.254 111.07 163.253 112.947C160.952 115.104 159.632 117.89 158.451 120.746C157.691 122.594 157.691 122.604 155.7 122.614C154.84 122.614 154.189 122.983 153.659 123.623C152.159 125.41 152.249 128.266 153.989 129.844C154.92 130.693 155.14 131.582 154.86 132.74C153.619 138.003 152.829 143.346 152.099 148.689C151.828 150.676 150.848 152.463 150.038 154.281C149.618 155.22 148.797 155.26 147.907 155.07C145.826 154.631 143.765 154.121 141.685 153.702C132.871 151.934 123.958 150.736 115.054 149.577C108.002 148.659 100.929 147.91 93.8561 147.181C88.314 146.611 82.7618 146.102 77.2197 145.583C69.4767 144.864 61.7237 144.354 53.9807 143.665C51.6598 143.456 49.3389 143.326 47.018 143.176C45.5074 143.076 44.8472 142.267 44.417 140.949C43.2566 137.374 42.6163 133.699 42.0161 130.004C41.826 128.816 41.6159 127.617 40.9257 126.589C40.6856 126.229 40.5355 125.67 39.9453 125.81C39.4151 125.939 39.3551 126.459 39.255 126.898C39.095 127.627 38.9449 128.356 38.9649 129.115C38.9749 129.574 38.9849 130.034 38.9449 130.483C38.8949 131.003 39.0049 131.762 38.3747 131.851C37.8445 131.921 37.7244 131.182 37.5844 130.733C36.7841 128.067 35.9037 125.42 34.9934 122.794C34.5332 121.455 34.063 120.117 33.3527 118.889C33.1126 118.48 32.8926 117.88 32.2923 117.96C31.592 118.06 31.6921 118.769 31.552 119.258C31.402 119.788 31.6121 120.327 31.6021 120.866C31.592 121.276 31.6221 121.805 31.1319 121.905C30.7217 121.985 30.5516 121.495 30.4116 121.166C30.0414 120.327 29.8614 119.418 29.4012 118.619C29.0811 118.06 28.801 117.201 28.0507 117.361C27.2504 117.531 27.3204 118.45 27.2404 119.139C27.1703 119.768 27.3604 120.377 27.3804 120.996C27.4004 121.455 27.4104 122.055 26.8902 122.155C26.4401 122.234 26.27 121.675 26.1399 121.286C25.9099 120.617 25.6898 119.948 25.3796 119.308C25.1296 118.799 24.9195 118.14 24.1692 118.25C23.3589 118.38 23.5089 119.089 23.4789 119.648C23.3489 122.424 24.1092 125.081 24.6094 127.767C24.7494 128.546 25.0195 129.295 25.0395 130.094C25.0395 130.423 25.0395 130.823 24.6294 130.903C24.3192 130.963 24.0992 130.673 23.9591 130.423C23.3989 129.455 23.0688 128.356 22.3785 127.457C21.9983 126.958 21.7182 126.029 20.9479 126.359C20.1776 126.688 20.4577 127.597 20.5878 128.266C21.2681 131.672 22.5285 134.887 23.8791 138.063C27.0703 145.573 30.6717 152.873 35.1034 159.744C36.524 161.951 38.0846 164.048 39.8652 165.985C40.9557 167.174 42.2462 167.713 43.7968 167.833C56.2916 168.831 68.6564 170.839 80.9811 173.096C90.6049 174.853 100.179 176.84 109.572 179.607C111.613 180.206 113.604 180.925 115.605 181.644C120.977 183.601 124.238 187.536 126.199 192.719C127.989 197.472 128.64 202.436 128.94 207.479C129.24 212.532 129.21 217.595 129.62 222.648C129.77 224.506 129.76 226.383 129.84 228.251C129.95 230.857 130.11 233.474 130.21 236.09C130.37 240.354 130.49 244.629 130.86 248.893C131.04 250.96 131.05 253.037 131.111 255.114C131.241 259.758 131.491 264.402 131.721 269.046C132.011 274.888 132.151 280.74 132.571 286.572C132.661 287.75 132.291 288.24 131.02 288.609C128.85 289.238 126.759 290.037 124.878 291.305C123.037 292.554 121.407 294.032 120.266 295.969C119.746 296.858 119.016 297.227 118.005 297.227C110.132 297.227 102.269 297.247 94.3963 297.217C92.9058 297.217 92.5956 296.838 92.5256 295.35C92.5056 294.811 92.5256 294.271 92.5256 293.732C92.5256 266.219 92.5156 238.707 92.5356 211.194C92.5356 207.399 91.1551 204.413 87.9038 202.376C86.5033 201.507 84.9727 200.998 83.302 200.988C67.8561 200.968 52.4001 200.958 36.9541 200.988C30.9418 200.998 27.4304 206.241 27.4404 210.814C27.5005 238.497 27.4705 266.169 27.4705 293.852C27.4705 296.109 26.3434 297.237 24.0891 297.237C16.7563 297.237 9.43348 297.237 2.10065 297.237H-0.00496314Z" fill="#A1C9FF"/>
<path d="M0 297C8.57331 297 17.1866 296.768 25.76 296.818C26.8204 296.818 27.0405 296.538 27.0304 295.519C27.0004 267.378 27.0104 239.246 27.0104 211.104C27.0104 204.772 31.2321 200.528 37.5445 200.528C52.5403 200.528 67.5261 200.528 82.5219 200.528C88.6843 200.528 92.9759 204.792 92.9759 210.924C92.9759 239.066 92.9759 267.198 92.9459 295.34C92.9459 296.538 93.216 296.838 94.4265 296.828C102.3 296.768 110.163 296.778 118.036 296.828C118.936 296.828 119.376 296.568 119.856 295.789C122.277 291.804 126.059 289.667 130.4 288.359C132.141 287.83 132.121 287.86 132.041 286.102C131.581 276.226 131.151 266.349 130.701 256.472C130.16 244.768 129.6 233.064 129.06 221.36C128.84 216.586 128.71 211.813 128.45 207.039C128.15 201.587 127.339 196.244 125.038 191.201C123.038 186.827 119.876 183.761 115.345 182.063C108.672 179.576 101.759 177.919 94.8266 176.381C82.2018 173.595 69.4668 171.427 56.6519 169.69C51.9101 169.051 47.1582 168.521 42.3864 168.162C41.7261 168.112 41.2059 167.912 40.7157 167.473C38.0447 165.086 36.0539 162.17 34.1932 159.174C28.8812 150.616 24.4695 141.628 21.1382 132.121C20.618 130.633 20.1678 129.115 20.0277 127.537C19.9677 126.868 19.9577 126.109 20.698 125.809C21.5283 125.47 22.0185 126.119 22.4287 126.698C23.339 127.986 23.9092 129.464 24.7796 130.832C24.3994 128.975 24.0093 127.128 23.6391 125.27C23.269 123.393 22.9489 121.515 22.9789 119.588C22.9889 118.779 23.0589 117.95 24.0593 117.73C25.0797 117.511 25.4598 118.25 25.76 119.008C26.1401 119.967 26.4802 120.936 26.9604 122.204C26.9804 120.686 26.6503 119.478 26.9104 118.279C27.0505 117.62 27.1405 116.881 27.9608 116.772C28.7411 116.662 29.1413 117.261 29.4914 117.84C30.2217 119.038 30.5718 120.417 31.2021 121.905C31.2321 120.606 31.002 119.538 31.2321 118.469C31.3521 117.91 31.5222 117.391 32.1424 117.271C32.7226 117.161 33.0728 117.6 33.3429 118.01C34.4433 119.688 35.0736 121.595 35.7038 123.472C36.6242 126.199 37.4645 128.955 38.4449 132.021C38.5249 130.113 38.4148 128.536 38.745 126.998C38.905 126.279 38.9551 125.39 39.8754 125.26C40.7858 125.14 41.1459 125.939 41.466 126.608C42.4564 128.665 42.6065 130.922 42.9766 133.129C43.4568 135.995 44.1671 138.802 45.0674 141.568C45.3275 142.367 45.6877 142.726 46.618 142.786C57.9124 143.515 69.1967 144.414 80.4611 145.473C94.3765 146.771 108.272 148.189 122.117 150.126C130.971 151.355 139.814 152.653 148.487 154.87C149.288 155.07 149.418 154.66 149.718 154.111C151.809 150.236 151.969 145.922 152.649 141.728C153.179 138.492 153.779 135.266 154.56 132.091C154.73 131.422 154.7 131.012 154.03 130.553C151.639 128.935 151.499 124.731 153.719 122.883C154.5 122.234 155.44 121.875 156.38 122.274C157.261 122.644 157.431 122.224 157.661 121.585C158.451 119.438 159.402 117.371 160.622 115.433C161.222 114.485 161.913 113.596 162.723 112.817C165.024 110.62 167.565 110.42 170.156 112.298C172.737 114.165 174.257 116.831 175.508 119.668C177.879 125.07 179.019 130.803 179.89 136.595C180.38 139.88 180.78 143.176 180.92 146.501C180.95 147.22 181.23 147.63 181.86 147.939C182.871 148.439 183.861 148.958 184.811 149.557C185.522 150.007 186.012 149.967 186.652 149.397C197.336 140.02 208.04 130.663 218.614 121.156C228.698 112.088 238.702 102.95 248.306 93.3732C253.368 88.3201 258.25 83.0972 262.732 77.5147C263.322 76.7757 263.682 75.9968 263.882 75.088C265.353 68.5269 266.843 61.9758 268.344 55.4346C268.524 54.6756 268.804 53.9267 269.134 53.2176C269.424 52.5785 269.824 51.8595 270.665 51.9793C271.515 52.1091 271.655 52.948 271.765 53.6271C271.935 54.6457 271.975 55.6943 272.045 56.7229C272.075 57.2122 272.045 57.7115 272.265 58.2608C272.705 56.8327 273.146 55.3947 273.596 53.9666C274.486 51.1604 275.326 48.3342 276.647 45.6978C277.017 44.9588 277.337 43.8303 278.408 44.0401C279.558 44.2697 279.328 45.4581 279.398 46.3369C279.448 46.9561 279.398 47.5753 279.398 48.4541C279.748 47.5453 279.998 46.8363 280.308 46.1472C280.588 45.5081 280.919 44.8789 281.269 44.2697C281.549 43.7804 281.969 43.4009 282.589 43.5108C283.259 43.6306 283.49 44.1799 283.6 44.7791C283.83 45.9974 283.6 47.2357 283.6 48.8336C284.11 47.4954 284.48 46.5067 284.87 45.528C285.15 44.809 285.59 44.2897 286.461 44.4495C287.351 44.6093 287.531 45.3183 287.561 46.0373C287.651 48.4241 287.151 50.741 286.701 53.0678C286.421 54.5258 286.091 55.9739 285.97 57.5118C286.371 56.7029 286.741 55.884 287.171 55.0951C287.521 54.436 287.911 53.7968 288.321 53.1777C288.632 52.7183 289.072 52.3089 289.672 52.4986C290.292 52.6883 290.342 53.2676 290.362 53.8268C290.422 55.2449 290.212 56.653 290.012 58.0411C288.541 68.6267 287.791 79.2723 287.861 89.9579C287.861 90.4871 287.611 90.8067 287.381 91.1862C281.919 99.8544 275.496 107.804 268.684 115.433C261.591 123.373 254.058 130.902 246.545 138.442C238.242 146.781 229.839 155.03 222.316 164.087C217.234 170.209 212.582 176.61 209.511 184.03C207.91 187.905 207.1 191.94 206.92 196.134C206.35 208.997 205.73 221.869 205.109 234.732C204.399 249.422 203.679 264.112 202.958 278.802C202.688 284.444 202.418 290.087 202.138 295.729C202.108 296.418 202.078 296.858 203.058 296.848C218.464 296.818 233.87 296.828 249.466 296.828C241.603 292.843 237.732 286.701 239.202 278.023C240.323 271.412 244.585 267.178 250.937 265.021C250.697 264.551 250.177 264.591 249.777 264.451C242.734 261.925 238.182 254.815 238.912 247.484C239.673 239.845 245.395 233.803 252.878 232.695C253.828 232.555 254.778 232.495 255.739 232.495C266.443 232.495 277.147 232.495 287.841 232.495C296.224 232.495 303.237 238.117 304.548 245.887C305.978 254.355 301.427 261.885 293.183 264.681C293.033 264.731 292.893 264.811 292.623 264.941C300.046 267.647 304.488 272.71 304.758 280.59C305.018 288.169 301.146 293.442 294.044 296.858L320 297V298C214.489 298 106.511 298 1 298H0V297Z" fill="#041C42"/>
<path d="M84.9829 114.744C75.4492 114.744 65.9155 114.744 56.3818 114.744C50.3195 114.744 46.0078 110.45 46.0078 104.398C46.0078 95.3006 46.0078 86.2029 46.0078 77.0953C46.0078 71.2133 50.3495 66.8691 56.2518 66.8691C75.4492 66.8691 94.6366 66.8691 113.834 66.8691C119.566 66.8691 123.948 71.2332 123.958 76.9655C123.978 86.2329 123.978 95.5004 123.958 104.768C123.948 110.33 119.546 114.724 113.964 114.734C104.3 114.764 94.6466 114.734 84.9829 114.734V114.744Z" fill="#041C42"/>
<path d="M183.491 81.8193C167.765 81.8193 155.86 72.5119 152.599 58.8904C149.908 47.6456 155.03 35.512 165.284 28.8311C179.69 19.4438 199.267 23.9677 208.051 38.7077C215.924 51.9198 211.392 69.2164 197.927 77.3553C193.005 80.3313 187.663 81.7794 183.481 81.8193H183.491Z" fill="#041C42"/>
<path d="M46.4276 143.745C55.381 144.334 64.2644 145.013 73.1279 145.822C80.6208 146.511 88.1237 147.16 95.6166 147.949C106.701 149.108 117.765 150.366 128.789 152.074C135.652 153.132 142.505 154.231 149.207 156.068C149.888 156.258 150.078 155.958 150.278 155.429C150.918 153.761 151.638 152.134 152.238 150.456C152.539 149.607 152.899 149.377 153.859 149.517C160.972 150.576 168.095 150.965 175.227 149.667C176.618 149.417 178.008 149.098 179.299 148.528C180.109 148.169 180.709 148.349 181.38 148.738C182.64 149.457 183.941 150.106 185.191 150.855C185.801 151.225 186.182 151.115 186.702 150.656C204.119 135.446 221.525 120.237 238.352 104.388C247.155 96.0895 255.859 87.6809 263.421 78.1837C263.802 77.7044 264.082 77.5147 264.732 77.8842C271.775 81.9586 278.837 86.0131 285.92 90.0277C286.87 90.567 286.36 90.9864 286.05 91.4757C281.598 98.3564 276.597 104.818 271.244 111.019C264.292 119.088 256.859 126.708 249.346 134.248C241.123 142.497 232.79 150.626 225.077 159.364C219.184 166.035 213.642 172.975 209.761 181.074C208.12 184.5 206.83 188.035 206.369 191.82C206.239 192.898 205.739 193.298 204.729 193.547C184.631 198.431 164.533 203.354 144.445 208.258C139.924 209.366 135.392 210.425 130.89 211.583C129.89 211.843 129.64 211.703 129.61 210.644C129.45 204.992 128.959 199.38 127.219 193.947C125.008 187.036 120.596 182.512 113.563 180.315C105.06 177.659 96.4069 175.652 87.6935 173.884C77.4295 171.807 67.0955 170.109 56.7115 168.711C52.2998 168.112 47.8781 167.583 43.4364 167.283C42.5861 167.223 42.2759 167.093 42.426 166.055C43.5064 158.914 44.4968 151.764 45.4972 144.614C45.5872 143.955 45.7473 143.555 46.4376 143.775L46.4276 143.745Z" fill="#A1C9FF"/>
<path d="M28.0107 252.758C28.0107 238.876 28.0107 225.005 28.0107 211.124C28.0107 205.282 31.7622 201.527 37.5844 201.517C52.5302 201.517 67.476 201.517 82.4218 201.517C88.184 201.517 91.9755 205.292 91.9755 211.014C91.9755 239.146 91.9755 267.268 92.0055 295.4C92.0055 296.548 91.7054 296.808 90.5849 296.808C70.187 296.768 49.7891 296.768 29.3913 296.808C28.2208 296.808 27.9907 296.478 27.9907 295.38C28.0307 281.169 28.0107 266.958 28.0107 252.748V252.758Z" fill="#F6C254"/>
<path d="M203.818 240.924C203.178 254.405 202.538 267.897 201.888 281.379C201.798 283.206 201.688 285.034 201.638 286.861C201.618 287.481 201.538 287.81 200.767 287.86C193.995 288.289 187.232 288.759 180.469 289.248C179.729 289.298 179.659 289.028 179.689 288.419C180.169 280.57 179.939 272.721 179.409 264.881C178.569 252.578 177.388 240.314 174.207 228.331C173.657 226.243 172.976 224.196 171.916 222.309C170.295 219.403 168.075 219.203 165.904 221.75C164.593 223.297 163.823 225.135 163.183 227.032C161.152 233.044 160.202 239.276 159.441 245.537C157.811 258.909 157.18 272.351 156.89 285.813C156.86 287.021 156.57 287.371 155.29 287.381C148.507 287.451 141.724 287.64 134.942 287.79C133.151 287.83 133.121 287.83 133.031 286.112C132.661 278.183 132.311 270.264 131.941 262.335C131.39 250.471 130.84 238.597 130.29 226.733C130.09 222.499 129.92 218.264 129.68 214.04C129.63 213.191 129.84 212.832 130.72 212.622C147.507 208.547 164.283 204.423 181.06 200.319C189.003 198.371 196.956 196.464 204.899 194.487C205.869 194.247 206.069 194.347 206.019 195.395C205.439 206.68 204.919 217.965 204.389 229.249C204.199 233.154 204.008 237.049 203.818 240.954V240.924Z" fill="#CAE0FF"/>
<path d="M271.905 233.444C277.397 233.444 282.899 233.434 288.392 233.444C296.255 233.474 302.647 239.136 303.758 247.035C304.788 254.355 300.006 261.585 292.693 263.743C292.053 263.932 291.323 264.002 291.343 264.921C291.363 265.76 292.063 265.84 292.643 266.019C299.746 268.316 304.148 274.538 303.838 281.878C303.547 288.799 298.536 294.731 291.543 296.388C290.402 296.658 289.252 296.778 288.081 296.778C277.297 296.778 266.513 296.778 255.729 296.778C247.676 296.778 241.213 291.125 240.013 283.066C238.912 275.686 243.664 268.346 251.037 266.039C251.657 265.85 252.418 265.78 252.408 264.871C252.398 263.952 251.627 263.922 251.007 263.733C243.724 261.516 238.942 254.305 239.973 247.105C241.133 239.036 247.486 233.444 255.529 233.434C260.981 233.434 266.433 233.434 271.895 233.434L271.905 233.444Z" fill="#F6C254"/>
<path d="M157.671 281.848C158.391 268.976 159.001 256.113 160.732 243.34C161.562 237.258 162.483 231.187 164.884 225.454C165.434 224.146 166.084 222.898 167.124 221.899C168.565 220.531 169.736 220.651 170.776 222.349C172.437 225.075 173.207 228.151 173.927 231.217C176.068 240.284 177.148 249.522 177.959 258.789C178.709 267.488 179.079 276.206 178.879 284.934C178.849 286.342 179.139 287.98 178.529 289.098C177.929 290.187 176.098 290.037 174.847 290.536C172.206 291.605 169.435 292.633 167.845 295.07C166.814 296.638 165.704 296.898 164.093 296.808C162.313 296.708 160.512 296.728 158.721 296.808C157.801 296.848 157.641 296.518 157.651 295.679C157.691 291.066 157.671 286.462 157.671 281.848Z" fill="#A1C9FF"/>
<path d="M286.891 89.449C281.649 86.443 276.647 83.5869 271.645 80.7208C269.554 79.5224 267.483 78.2941 265.372 77.1357C264.752 76.7961 264.572 76.4765 264.742 75.7675C266.313 68.9867 267.843 62.1959 269.394 55.4051C269.584 54.5662 269.834 53.7274 270.524 52.9983C271.055 54.1768 271.055 55.3751 271.065 56.5435C271.065 58.5408 270.945 60.5281 270.894 62.5254C270.894 62.9149 270.674 63.4542 271.235 63.584C271.895 63.7338 271.925 63.0847 272.045 62.6952C273.365 58.2912 274.576 53.8472 276.147 49.5231C276.687 48.0351 277.167 46.5071 278.297 44.9992C278.597 47.1563 278.257 49.0237 277.987 50.8912C277.417 54.9557 276.277 58.9303 275.796 63.0148C275.746 63.4542 275.496 64.0534 276.106 64.1732C276.817 64.313 276.787 63.614 276.887 63.1546C278.097 57.9516 279.078 52.6788 280.828 47.6156C281.198 46.5371 281.499 45.4086 282.469 44.4399C282.949 46.1077 282.679 47.6656 282.489 49.1935C281.879 54.0569 280.698 58.8105 279.718 63.604C279.608 64.1433 278.978 65.082 279.908 65.2917C280.718 65.4715 280.598 64.4229 280.738 63.8936C282.179 58.3112 283.439 52.6888 285.31 47.2262C285.53 46.587 285.65 45.4086 286.25 45.5584C287.031 45.7482 286.621 46.8667 286.561 47.5357C286.04 52.7087 284.65 57.722 283.489 62.7751C283.309 63.5441 283.059 64.2931 282.929 65.072C282.849 65.5414 282.399 66.2504 283.169 66.4601C283.809 66.6399 283.869 65.8809 284.04 65.4615C285.11 62.7651 286.12 60.0488 287.211 57.3624C287.721 56.1041 288.291 54.8458 289.342 53.7773C288.001 65.5613 286.781 77.3554 286.891 89.4689V89.449Z" fill="#CAE0FF"/>
<path d="M164.933 117.79C166.674 119.558 168.415 121.136 170.676 121.995C171.896 122.454 173.147 122.843 174.437 122.684C175.698 122.524 176.008 123.133 176.108 124.271C174.297 123.473 172.586 123.503 170.926 124.441C169.765 125.1 168.965 126.039 169.145 127.457C169.305 128.795 170.406 129.245 171.506 129.524C173.577 130.034 175.548 129.914 177.268 128.196C178.139 131.542 178.689 134.827 179.129 138.133C179.479 140.809 179.649 143.495 179.959 146.182C180.049 147.001 179.769 147.37 179.009 147.62C175.187 148.908 171.246 149.377 167.234 149.437C162.653 149.507 158.091 149.218 153.569 148.459C153.009 148.359 152.719 148.309 152.819 147.57C153.859 139.541 155.33 131.612 157.881 123.912C158.051 123.383 158.221 122.953 158.851 122.774C161.552 122.005 163.713 120.527 164.923 117.78L164.933 117.79Z" fill="#CAE0FF"/>
<path d="M40.1756 126.349C41.246 127.897 41.4761 129.635 41.7162 131.342C42.2564 135.167 43.0967 138.922 44.4172 142.557C44.9674 144.055 44.3372 145.513 44.1471 146.961C43.3268 153.123 42.3964 159.274 41.5061 165.436C41.4561 165.756 41.5861 166.205 41.256 166.345C40.8258 166.515 40.6357 166.025 40.3956 165.786C37.3745 162.64 35.1036 158.975 32.9628 155.22C28.441 147.291 24.4195 139.122 21.6584 130.394C21.2983 129.265 20.9381 128.117 21.0682 126.738C21.7284 127.278 22.0185 127.897 22.3387 128.506C23.9193 131.522 25.0097 134.738 26.2302 137.903C26.3502 138.213 26.4202 138.542 26.5703 138.832C26.7804 139.242 26.8204 139.971 27.5207 139.701C28.0909 139.481 27.7808 138.892 27.6807 138.483C26.5703 134.059 25.5199 129.625 24.6295 125.151C24.2694 123.323 23.9393 121.476 23.9793 119.598C23.9793 119.299 23.8392 118.829 24.2794 118.759C24.6996 118.689 24.7496 119.159 24.8596 119.448C26.2102 122.844 27.0505 126.399 27.9808 129.924C28.6311 132.371 29.1813 134.837 29.8516 137.274C29.9916 137.774 29.8516 138.812 30.7419 138.582C31.4322 138.403 31.002 137.574 30.892 137.054C30.0416 132.91 29.0312 128.806 28.381 124.621C28.1309 123.023 27.9908 121.406 27.8308 119.798C27.7608 119.149 27.7908 118.49 28.1209 117.811C28.9412 118.47 29.1913 119.408 29.5114 120.277C30.8219 123.822 31.6323 127.507 32.4926 131.172C32.9127 132.99 33.3129 134.808 33.7231 136.625C33.8131 137.025 33.8231 137.554 34.4033 137.484C35.0236 137.404 34.8235 136.865 34.7835 136.485C34.4233 132.93 33.433 129.485 32.8727 125.96C32.4926 123.513 31.9624 121.076 32.2325 118.34C32.9628 119.029 33.2229 119.748 33.503 120.447C35.4737 125.25 36.8043 130.254 38.2948 135.207C38.4749 135.816 38.4049 136.995 39.2452 136.845C40.2356 136.665 39.6153 135.586 39.5953 134.927C39.5253 132.351 39.3252 129.784 39.7254 127.218C39.7654 126.938 39.7454 126.629 40.1555 126.349H40.1756Z" fill="#CAE0FF"/>
<path d="M120.506 296.648C121.947 293.922 124.238 292.154 126.889 290.786C129.78 289.288 132.851 288.729 136.132 288.729C142.625 288.729 149.117 288.489 155.6 288.319C156.48 288.299 156.83 288.419 156.77 289.438C156.64 291.595 156.68 293.752 156.68 295.919C156.68 296.498 156.62 296.818 155.9 296.818C144.206 296.798 132.501 296.798 120.806 296.788C120.736 296.788 120.666 296.728 120.506 296.658V296.648Z" fill="#CAE0FF"/>
<path d="M167.815 296.788C169.145 294.481 171.126 293.383 173.167 292.324C177.248 290.207 181.71 290.097 186.142 289.817C190.834 289.518 195.525 289.238 200.217 288.859C201.308 288.769 201.548 289.058 201.468 290.097C201.308 292.044 201.248 293.992 201.178 295.949C201.158 296.448 201.168 296.808 200.467 296.808C189.653 296.788 178.839 296.798 167.805 296.798L167.815 296.788Z" fill="#CAE0FF"/>
<path d="M164.333 115.553C163.943 119.079 161.792 120.736 158.641 121.835C160.072 118.42 161.322 115.164 164.193 112.897C165.634 111.759 167.214 111.689 168.855 112.587C169.895 113.157 170.746 113.946 171.506 114.824C173.077 116.632 174.087 118.759 175.027 120.936C175.308 121.565 175.117 121.725 174.487 121.725C171.516 121.725 169.135 120.397 167.044 118.44C166.144 117.591 165.344 116.642 164.333 115.553Z" fill="#CAE0FF"/>
<path d="M155.04 129.924C153.739 129.295 153.279 128.196 153.199 126.898C153.119 125.5 153.459 124.261 154.69 123.423C155.17 123.093 155.69 123.053 156.24 123.213C156.74 123.353 156.981 123.532 156.77 124.172C156.15 126.049 155.63 127.956 155.05 129.914L155.04 129.924Z" fill="#CAE0FF"/>
<path d="M172.787 124.791C174.267 124.611 175.388 124.771 176.228 125.82C176.648 126.349 176.788 126.988 176.388 127.547C175.538 128.766 174.237 128.776 172.747 128.746C173.337 128.097 173.927 127.587 173.937 126.758C173.947 125.959 173.517 125.38 172.787 124.781V124.791Z" fill="#CAE0FF"/>
<path d="M84.8524 113.746C75.2787 113.746 65.705 113.746 56.1313 113.746C50.9894 113.746 47.0078 109.801 47.0078 104.708C47.0078 95.4408 47.0078 86.1734 47.0078 76.9159C47.0078 71.9027 51.0094 67.8782 56.0113 67.8682C75.3288 67.8682 94.6462 67.8682 113.964 67.8682C118.956 67.8682 122.967 71.9027 122.967 76.9159C122.967 86.1434 122.967 95.3609 122.967 104.588C122.967 109.801 119.036 113.756 113.834 113.756C104.18 113.756 94.5162 113.756 84.8624 113.756L84.8524 113.746Z" fill="#004079"/>
<path d="M183.581 80.8308C168.495 80.8108 156.691 71.793 153.719 59.3399C150.528 45.988 157.621 32.4663 170.606 27.1934C183.661 21.8906 198.647 26.3246 206.27 37.7591C214.653 50.3121 211.362 67.0295 198.837 75.5979C193.705 79.1031 188.033 80.8008 183.581 80.8408V80.8308Z" fill="white"/>
<path d="M162.153 129.774C161.422 129.784 160.482 129.634 159.622 129.185C158.071 128.376 157.751 126.798 158.841 125.44C160.172 123.772 163.113 123.173 164.984 124.222C166.014 124.801 166.724 125.65 166.684 126.908C166.644 128.196 165.804 128.905 164.714 129.385C163.983 129.704 163.193 129.784 162.163 129.774H162.153Z" fill="#041C42"/>
<path d="M168.065 141.738C165.094 141.698 163.173 140.04 161.572 137.833C161.392 137.584 161.262 137.354 161.612 137.104C161.982 136.825 162.183 136.974 162.423 137.284C162.803 137.773 163.183 138.273 163.613 138.712C165.674 140.819 168.235 141.299 170.896 140.07C172.226 139.451 173.397 138.592 174.427 137.554C174.747 137.234 174.947 137.304 175.228 137.604C175.518 137.913 175.378 138.073 175.128 138.303C173.107 140.16 170.916 141.688 168.065 141.738Z" fill="#041C42"/>
<path d="M168.255 136.565C167.754 136.565 167.254 136.565 166.754 136.565C166.444 136.565 166.184 136.535 166.164 136.116C166.144 135.656 166.364 135.546 166.764 135.546C167.554 135.556 168.345 135.517 169.135 135.546C170.145 135.596 170.375 135.247 170.015 134.288C169.105 131.842 168.265 129.375 167.424 126.908C167.304 126.559 166.814 126.089 167.644 125.85C168.395 125.64 168.255 126.299 168.355 126.569C169.225 128.935 170.055 131.322 170.886 133.709C171.636 135.826 171.116 136.545 168.865 136.555C168.655 136.555 168.445 136.555 168.245 136.555L168.255 136.565Z" fill="#041C42"/>
<path d="M161.752 128.746C163.243 127.228 163.273 126.588 162.022 124.781C163.343 124.601 164.503 124.741 165.354 125.879C165.774 126.439 165.834 127.048 165.414 127.607C164.533 128.795 163.223 128.775 161.742 128.736L161.752 128.746Z" fill="#CAE0FF"/>
</g>
<defs>
<clipPath id="clip0_707_4415">
<rect width="320" height="298" fill="white"/>
</clipPath>
</defs>
</svg>
