<svg width="320" height="298" viewBox="0 0 320 298" fill="none" xmlns="http://www.w3.org/2000/svg">
<g clip-path="url(#clip0_707_4211)">
<path d="M0 297.5V0C105.717 0 214.283 0 320 0C320 98.1812 320 198.819 320 297C255.835 297 188.98 297.48 124.816 297.48C124.355 297.48 123.895 297.48 123.445 297.46C122.584 297.43 121.934 297.06 121.494 296.321C119.123 292.297 115.451 290.03 111.108 288.671C109.137 288.052 108.917 287.633 109.177 285.595C109.427 283.578 109.317 281.541 109.427 279.503C109.567 277.067 109.667 274.61 109.778 272.163C110.008 267.279 110.178 262.386 110.448 257.502C110.578 255.185 110.678 252.858 110.778 250.541C110.978 245.858 111.088 241.174 111.458 236.5C111.609 234.552 111.629 232.595 111.679 230.658C111.769 227.751 111.889 224.845 112.059 221.949C112.339 217.235 112.119 212.471 113.019 207.807C113.96 202.944 115.761 198.49 119.603 195.104C122.324 192.707 125.596 191.609 129.088 191.01C133.18 190.3 137.302 190.51 141.415 190.52C142.865 190.52 143.346 191.069 143.436 192.488C143.466 193.027 143.446 193.566 143.446 194.105C143.446 213.44 143.486 232.765 143.416 252.099C143.396 256.673 146.377 260.998 151.26 261.956C151.76 262.056 152.25 262.076 152.741 262.076C193.463 262.076 234.185 262.086 274.907 262.076C280.12 262.076 284.362 257.822 284.362 252.639C284.362 185.507 284.362 118.365 284.372 51.2328C284.372 45.3306 279.409 41.5455 274.747 41.5555C234.275 41.5955 193.803 41.5755 153.331 41.5755C148.308 41.5755 144.616 44.5716 143.536 49.4751C143.366 50.2541 143.446 51.053 143.446 51.832C143.446 86.5066 143.446 121.171 143.446 155.846C143.446 156.385 143.456 156.924 143.446 157.464C143.396 159.201 142.895 159.601 141.175 159.221C138.943 158.722 136.712 158.252 134.481 157.773C127.867 156.345 121.214 155.087 114.48 154.368C110.558 153.948 106.606 153.589 102.654 153.848C99.7621 154.038 96.8606 154.268 94.0191 154.957C92.4182 155.336 91.9379 155.107 91.3276 153.559C89.9068 149.963 88.7562 146.278 87.2954 142.693C86.3649 140.426 85.3444 138.199 84.2938 135.982C83.4233 134.134 83.5834 133.665 85.1843 132.376C86.6451 131.218 86.6251 130.778 85.0442 129.7C84.9041 129.61 84.7841 129.49 84.634 129.41C80.3617 127.033 76.9098 123.748 73.8182 119.993C72.2573 118.095 70.1762 116.727 67.6949 116.118C65.2635 115.519 63.3525 116.357 62.1218 118.535C60.8512 120.782 60.2508 123.248 60.0207 125.775C59.4904 131.577 59.6605 137.38 60.1908 143.182C60.3809 145.21 60.631 147.217 60.9012 149.234C61.0513 150.343 60.611 151.152 59.8206 151.871C55.4182 155.866 51.8163 160.519 48.5745 165.473C43.0315 173.972 38.7392 183.09 35.2774 192.607C34.607 194.455 34.567 196.432 34.2768 198.36C33.3363 204.502 32.4858 210.664 31.6054 216.816C30.825 222.318 30.0345 227.811 29.2541 233.314C28.4737 238.817 27.6232 244.3 26.8528 249.802C26.0824 255.305 25.292 260.798 24.5015 266.301C23.7111 271.754 22.9507 277.216 22.1303 282.669C21.4799 286.934 20.9196 291.208 20.2793 295.473C20.0391 297.06 19.6089 297.49 17.998 297.5C12.5451 297.53 5.45294 297.51 0 297.5Z" fill="#A1C9FF"/>
<path d="M0 297C6.16333 297 12.3952 296.96 18.5585 296.99C19.3789 296.99 19.6891 296.781 19.8092 295.922C21.5101 283.887 23.261 271.853 24.992 259.819C26.853 246.836 28.704 233.853 30.565 220.88C31.8757 211.762 33.0963 202.634 34.5571 193.536C34.9774 190.939 36.2981 188.543 37.3186 186.096C41.751 175.47 47.1539 165.413 54.608 156.554C56.1888 154.677 57.8697 152.879 59.7407 151.291C60.4411 150.702 60.6112 150.113 60.4811 149.254C59.4506 142.423 58.9603 135.542 59.2905 128.631C59.4406 125.515 59.8208 122.419 61.0614 119.513C62.7724 115.538 65.724 114.42 69.6561 116.247C71.2169 116.966 72.5777 118.005 73.8083 119.193C74.6488 120.002 75.5593 120.781 76.1796 121.75C77.7805 124.237 80.0417 125.925 82.503 127.423C83.6737 128.132 84.8043 128.911 85.9249 129.7C87.0355 130.489 87.0455 131.507 86.0249 132.376C85.3446 132.955 84.1439 133.245 84.0839 134.134C84.0238 134.893 84.6842 135.722 85.0744 136.501C87.8559 142.073 89.7469 148.006 91.9081 153.828C92.2283 154.707 92.5384 154.797 93.3989 154.597C99.6223 153.149 105.936 153.129 112.269 153.678C122.234 154.547 131.98 156.704 141.715 158.861C142.846 159.111 142.986 158.861 142.986 157.813C142.956 122.439 142.966 87.0556 142.966 51.682C142.966 45.2804 147.168 41.0759 153.591 41.0759C193.853 41.0759 234.115 41.0759 274.387 41.0759C280.62 41.0759 284.872 45.3303 284.872 51.5722C284.872 118.454 284.872 185.347 284.872 252.229C284.872 258.271 280.56 262.565 274.477 262.565C234.045 262.565 193.613 262.565 153.181 262.565C147.298 262.565 142.966 258.221 142.966 252.309C142.966 232.395 142.946 212.481 142.996 192.567C142.996 191.359 142.665 191.019 141.495 191.009C137.203 190.939 132.92 190.8 128.668 191.539C120.644 192.937 116.141 197.98 114 205.53C112.979 209.136 112.959 212.841 112.779 216.526C112.099 230.767 111.459 244.998 110.798 259.24C110.378 268.368 109.968 277.506 109.508 286.634C109.468 287.523 109.748 287.812 110.578 288.042C115.481 289.4 119.583 291.877 122.094 296.491C122.305 296.88 122.545 297.04 122.965 297C123.295 296.97 123.635 297 123.965 297C188.71 297 253.455 297 318.21 297C318.751 297 319.46 296.99 320 297V298C213.773 298 106.227 298 0 298V297Z" fill="#041C42"/>
<path d="M283.882 151.901C283.882 185.197 283.882 218.493 283.882 251.79C283.882 257.882 280.2 261.557 274.096 261.557C233.965 261.557 193.823 261.557 153.691 261.557C147.688 261.557 143.976 257.852 143.976 251.85C143.976 232.106 143.976 212.361 143.976 192.617C143.976 191.139 143.976 191.159 145.577 191.289C153.371 191.938 161.155 192.757 168.99 192.877C169.93 192.887 170.57 192.597 171.181 191.998C174.162 189.082 176.183 185.497 178.195 181.911C179.185 180.144 180.096 178.316 180.996 176.499C181.266 175.939 181.576 175.65 182.217 175.749C182.457 175.789 182.717 175.749 182.967 175.749C211.693 175.749 240.428 175.749 269.154 175.749C272.966 175.749 274.897 173.822 274.897 170.007C274.897 158.822 274.897 147.646 274.897 136.461C274.897 132.826 272.916 130.848 269.274 130.848C232.384 130.848 195.494 130.848 158.604 130.848C154.952 130.848 152.971 132.816 152.971 136.451C152.971 144.271 152.951 152.081 152.991 159.89C152.991 160.869 152.851 161.189 151.77 160.919C149.509 160.37 147.228 159.94 144.937 159.521C144.206 159.381 143.956 159.101 143.956 158.312C143.976 122.559 143.966 86.8161 143.986 51.063C143.986 45.9897 147.938 42.0448 153.011 42.0448C193.603 42.0349 234.205 42.0349 274.797 42.0448C280.049 42.0448 283.892 46.0096 283.892 51.3726C283.892 84.8787 283.892 118.385 283.892 151.881L283.882 151.901Z" fill="white"/>
<path d="M88.5167 147.437C89.4572 149.983 90.3977 152.46 91.2582 154.957C91.5383 155.766 91.8385 156.035 92.749 155.796C99.1925 154.078 105.746 154.098 112.33 154.667C123.546 155.646 134.452 158.312 145.427 160.619C151.981 161.998 158.525 163.436 165.268 163.466C166.299 163.466 166.109 164.205 166.179 164.744C166.689 168.819 167.169 172.903 167.649 176.988C168.18 181.522 168.68 186.066 169.26 190.59C169.39 191.569 169.22 191.868 168.18 191.849C162.807 191.729 157.464 191.289 152.111 190.84C145.187 190.261 138.274 189.502 131.3 190.171C121.014 191.149 114.991 196.442 112.76 206.499C112.48 207.758 112.21 209.026 112.149 210.304C112.099 211.513 111.679 211.633 110.609 211.363C102.594 209.356 94.56 207.398 86.5256 205.431C69.9067 201.356 53.2877 197.281 36.6587 193.237C35.9083 193.057 35.7082 192.867 35.9984 192.098C40.5408 180.034 46.1839 168.569 54.2983 158.452C56.2193 156.055 58.3004 153.808 60.7517 151.711C61.0219 153.159 61.282 154.458 61.4821 155.766C61.5622 156.265 61.6922 156.495 62.2625 156.415C70.6271 155.247 78.7715 153.399 86.1354 149.035C86.9158 148.575 87.6362 148.016 88.5067 147.427L88.5167 147.437Z" fill="#A1C9FF"/>
<path d="M110.268 249.992C109.688 262.196 109.108 274.4 108.557 286.604C108.517 287.403 108.317 287.653 107.487 287.633C100.373 287.463 93.259 287.323 86.1351 287.233C85.0245 287.223 84.7244 286.904 84.6743 285.785C83.984 271.164 82.6533 256.623 79.5015 242.302C78.2309 236.51 76.72 230.777 74.0286 225.444C73.2982 223.996 72.4678 222.608 71.3071 221.45C69.0259 219.163 66.9748 219.262 65.0738 221.859C62.8726 224.875 61.5719 228.341 60.2812 231.796C56.1289 243.001 52.9672 254.526 49.5054 265.951C47.2942 273.252 45.073 280.552 42.6617 287.793C42.3415 288.761 41.9613 288.991 40.9207 288.881C35.0876 288.272 29.2444 287.753 23.4013 287.263C22.3507 287.173 22.0505 286.984 22.2306 285.815C24.5319 270.216 26.7631 254.606 29.0043 238.997C31.1054 224.336 33.2266 209.675 35.2777 195.004C35.4178 193.976 35.838 194.066 36.5584 194.245C49.9056 197.521 63.2528 200.787 76.61 204.052C87.9461 206.829 99.2622 209.645 110.618 212.352C111.999 212.681 111.999 213.31 111.949 214.399C111.359 226.263 110.808 238.138 110.258 250.012C110.258 250.012 110.278 250.012 110.288 250.012L110.268 249.992Z" fill="#CAE0FF"/>
<path d="M186.919 151.052C187.47 147.826 188.19 144.69 188.58 141.485C188.68 140.626 188.7 139.747 188.67 138.878C188.65 138.159 188.28 137.57 187.53 137.42C186.749 137.27 186.279 137.769 186.019 138.439C185.608 139.457 185.248 140.496 184.698 141.495C184.698 140.346 184.708 139.198 184.698 138.049C184.688 137.45 184.558 136.861 183.908 136.631C183.247 136.411 182.807 136.801 182.407 137.26C181.696 138.069 181.506 139.118 181.086 140.056C180.906 140.456 180.916 140.935 180.466 141.355C180.466 140.596 180.486 139.947 180.466 139.297C180.436 138.449 180.676 137.4 179.535 137.13C178.445 136.871 178.184 137.899 177.824 138.608C176.213 141.774 175.323 145.2 174.222 148.545C173.932 149.434 173.692 150.353 173.332 151.242C173.202 149.854 173.262 148.465 172.962 147.107C172.882 146.748 172.822 146.378 172.722 146.019C172.581 145.499 172.281 145.13 171.701 145.07C171.121 145.01 170.76 145.32 170.49 145.779C169.55 147.347 169.21 149.095 168.97 150.862C168.509 154.318 167.699 157.693 166.678 161.029C166.348 162.118 165.758 162.637 164.507 162.547C161.325 162.317 158.154 162.008 155.002 161.488C154.312 161.378 153.941 161.069 153.941 160.25C153.971 152.061 153.941 143.871 153.971 135.692C153.971 133.565 155.672 131.947 157.793 131.847C158.124 131.837 158.464 131.847 158.794 131.847C195.554 131.847 232.304 131.847 269.064 131.847C272.445 131.847 273.876 133.255 273.876 136.591C273.876 147.816 273.876 159.032 273.876 170.257C273.876 173.203 272.345 174.751 269.434 174.751C240.748 174.751 212.073 174.751 183.387 174.751C181.816 174.751 181.846 174.761 182.527 173.293C185.869 166.012 188.94 158.622 191.011 150.862C191.312 149.744 191.502 148.595 191.652 147.447C191.742 146.748 191.712 145.939 190.911 145.629C190.021 145.29 189.461 145.979 189.1 146.598C188.39 147.816 187.82 149.115 187.189 150.373C187.079 150.593 186.999 150.822 186.899 151.042L186.919 151.052Z" fill="#004079"/>
<path d="M69.3754 296.97C64.8829 296.97 60.3805 296.96 55.8881 296.98C55.2478 296.98 54.8776 296.851 54.5474 296.221C53.1766 293.625 50.7753 292.207 48.234 291.008C46.8832 290.369 45.4625 289.87 44.0117 289.51C43.3813 289.35 43.2213 289.181 43.4514 288.502C49.4946 270.765 54.0971 252.579 60.2204 234.872C61.5512 231.027 62.9819 227.222 65.033 223.697C65.3232 223.197 65.6534 222.718 66.0136 222.258C67.4243 220.461 68.715 220.351 70.3859 221.939C72.0768 223.547 73.0974 225.604 74.0079 227.701C77.0495 234.762 78.6504 242.222 79.9711 249.742C82.6425 264.992 83.7031 280.392 84.0133 295.852C84.0333 296.811 83.7832 297.01 82.8627 297C78.3702 296.951 73.8778 296.98 69.3754 296.98V296.97Z" fill="#A1C9FF"/>
<path d="M171.641 146.028C172.082 147.277 172.162 148.485 172.152 149.674C172.132 151.671 172.022 153.658 171.962 155.656C171.952 156.045 171.792 156.585 172.372 156.675C172.942 156.764 172.982 156.195 173.102 155.826C174.313 151.911 175.474 147.966 176.714 144.061C177.355 142.054 178.055 140.066 179.346 137.909C179.636 139.537 179.496 140.825 179.346 142.104C178.825 146.258 177.855 150.343 177.094 154.457C176.984 155.067 176.944 155.696 176.854 156.305C176.794 156.685 176.714 157.134 177.164 157.254C177.745 157.414 177.845 156.884 177.935 156.495C178.455 154.228 178.925 151.961 179.456 149.694C180.286 146.148 181.107 142.583 182.477 139.187C182.707 138.608 182.948 138.029 183.528 137.57C183.918 138.319 183.848 139.088 183.798 139.837C183.458 145.04 182.187 150.073 181.117 155.147C180.957 155.916 180.826 156.694 180.656 157.463C180.576 157.853 180.476 158.262 180.977 158.382C181.487 158.502 181.577 158.033 181.667 157.683C182.277 155.276 182.858 152.85 183.478 150.443C184.398 146.907 185.299 143.372 186.49 139.926C186.6 139.617 186.75 139.317 186.87 139.008C186.96 138.778 187.03 138.468 187.32 138.488C187.7 138.518 187.68 138.888 187.68 139.167C187.73 141.005 187.43 142.813 187.08 144.61C186.209 149.084 185.139 153.519 184.058 157.953C183.938 158.452 183.448 159.231 184.198 159.471C184.989 159.721 184.979 158.782 185.169 158.302C186.5 154.867 187.68 151.361 189.401 148.086C189.681 147.556 189.871 146.947 190.602 146.558C190.712 148.615 190.182 150.443 189.621 152.22C185.879 164.125 181.047 175.56 174.473 186.206C173.352 188.023 172.102 189.771 170.351 191.379C170.041 188.822 169.75 186.495 169.48 184.168C168.67 177.367 167.869 170.566 167.059 163.755C167.019 163.386 166.959 163.036 167.109 162.657C168.76 158.452 169.5 154.038 170.231 149.614C170.441 148.365 170.641 147.087 171.651 146.019L171.641 146.028Z" fill="#CAE0FF"/>
<path d="M73.3082 132.896C73.4083 132.466 73.4883 132.187 73.5183 131.907C73.5784 131.388 73.7585 131.208 74.3288 131.408C76.3699 132.127 78.2509 131.697 79.9518 130.429C80.3921 130.099 80.6422 129.95 80.9524 130.579C81.7628 132.207 82.6132 133.824 83.4937 135.422C83.8239 136.022 83.5337 136.201 83.0435 136.381C81.7128 136.88 80.4221 136.681 79.1714 136.131C78.6811 135.912 78.1909 135.672 77.7506 135.372C77.3804 135.123 77.1903 135.193 76.9702 135.542C76.7301 135.902 76.9302 136.072 77.2003 136.231C79.1414 137.42 81.1825 138.169 83.4537 137.3C84.084 137.06 84.3242 137.14 84.5643 137.729C85.6449 140.326 86.7355 142.933 87.8661 145.509C88.1963 146.268 87.8661 146.638 87.3258 147.047C83.8039 149.644 79.8117 151.252 75.6795 152.56C71.7874 153.788 67.8153 154.617 63.7831 155.266C62.8426 155.416 62.3523 155.356 62.1622 154.158C61.4918 149.973 60.9616 145.779 60.5413 141.564C60.4813 140.995 60.5413 140.416 60.5413 139.737C64.1333 141.874 67.305 141.095 70.3766 138.408C68.7958 137.6 67.2149 136.831 67.0649 134.873C66.9748 133.735 67.5151 132.776 68.2055 131.927C69.4361 130.429 70.5767 130.649 73.2882 132.926L73.3082 132.896Z" fill="#CAE0FF"/>
<path d="M121.174 296.97H119.973C108.737 296.97 97.5012 296.95 86.2651 297C85.2246 297 84.9444 296.751 84.9644 295.722C84.9945 293.525 84.9044 291.318 84.7843 289.121C84.7443 288.322 84.9945 288.152 85.7549 288.172C93.2389 288.342 100.743 288.232 108.207 288.711C113.6 289.061 117.962 291.757 120.954 296.411C121.034 296.541 121.064 296.701 121.174 296.98V296.97Z" fill="#CAE0FF"/>
<path d="M20.6499 296.89C21.0401 294.184 21.4403 291.517 21.7905 288.851C21.8706 288.272 22.0306 288.082 22.651 288.142C28.8643 288.741 35.0977 289.111 41.281 289.94C45.4633 290.499 49.4254 291.987 52.5371 295.093C53.0374 295.592 53.4576 296.141 53.7678 296.89H20.6499Z" fill="#CAE0FF"/>
<path d="M72.6874 130.888C70.066 129.52 68.4751 129.74 67.2144 131.567C65.5235 134.004 65.6836 136.201 67.7747 137.979C68.4051 138.518 68.4651 138.708 67.6947 139.127C65.4035 140.346 62.752 140.186 60.9211 138.628C60.6009 138.358 60.3007 138.119 60.2907 137.629C60.1706 132.366 59.9205 127.093 61.2912 121.92C61.6114 120.712 62.0517 119.563 62.742 118.514C64.463 115.928 67.9348 115.648 70.2961 117.915C71.5168 119.084 72.1071 120.592 72.4673 122.17C73.1276 125.026 73.1977 127.912 72.6774 130.898L72.6874 130.888Z" fill="#CAE0FF"/>
<path d="M74.0185 127.193C73.9985 124.487 73.6483 122.08 72.6777 119.483C74.7489 121.381 76.2897 123.318 77.7805 125.495C76.4198 125.775 75.1991 126.174 74.0185 127.183V127.193Z" fill="#CAE0FF"/>
<path d="M80.3415 127.173C82.0124 128.282 83.6833 129.39 85.3442 130.499C85.8345 130.829 85.8545 131.148 85.4042 131.578C83.7133 133.215 83.5232 133.195 82.3926 131.128C81.6922 129.84 80.9418 128.572 80.2114 127.303C80.2514 127.263 80.3015 127.213 80.3415 127.173Z" fill="#CAE0FF"/>
<path d="M77.1502 130.639C75.8095 130.748 74.6689 130.998 74.0285 129.85C73.5883 129.071 74.5889 127.822 76.1597 127.083C75.8795 128.382 75.9996 129.56 77.1602 130.639H77.1502Z" fill="#CAE0FF"/>
<path d="M213.794 115.888C197.015 115.888 180.236 115.888 163.457 115.888C157.223 115.888 152.961 111.634 152.961 105.412C152.961 100.678 152.961 95.9343 152.961 91.2005C152.961 85.3182 157.313 80.9839 163.206 80.9739C197.055 80.9739 230.903 80.9739 264.751 80.9739C270.484 80.9739 274.847 85.3481 274.867 91.0806C274.887 95.9842 274.877 100.888 274.867 105.791C274.857 111.514 270.484 115.878 264.741 115.888C247.752 115.898 230.763 115.888 213.784 115.888H213.794Z" fill="#041C42"/>
<path d="M213.934 247.585C208.731 247.585 203.538 247.585 198.336 247.585C195.734 247.585 193.913 245.897 193.943 243.54C193.973 241.243 195.774 239.605 198.316 239.605C208.711 239.605 219.117 239.605 229.512 239.605C232.114 239.605 233.935 241.293 233.905 243.65C233.875 245.947 232.074 247.585 229.532 247.585C224.33 247.585 219.137 247.585 213.934 247.585Z" fill="#041C42"/>
<path d="M226.031 56.0164C228.992 56.0464 231.444 58.3833 231.374 61.1197C231.304 63.8062 228.842 66.0033 225.931 65.9933C222.939 65.9833 220.508 63.7063 220.558 60.9499C220.598 58.1636 223.029 55.9765 226.041 56.0164H226.031Z" fill="#041C42"/>
<path d="M185.949 60.9C185.949 59.5717 185.979 58.2435 185.939 56.9152C185.919 56.2361 186.069 55.9565 186.81 55.9964C187.84 56.0663 188.891 55.9764 189.931 56.0264C192.002 56.1162 193.523 57.6542 193.493 59.5917C193.463 61.4393 191.922 62.8974 189.891 62.9972C189.851 62.9972 189.811 62.9972 189.771 62.9972C188.431 62.7376 187.85 63.2369 188.13 64.6151C188.36 65.7736 187.84 66.0832 186.73 66.0233C185.999 65.9833 185.939 65.7037 185.949 65.1344C185.979 63.7263 185.949 62.3081 185.949 60.9Z" fill="#041C42"/>
<path d="M206.13 56.0166C206.94 56.0166 208.321 56.5758 209.462 57.7243C209.832 58.0939 209.972 58.3535 209.282 58.5533C208.501 58.773 207.871 59.0925 207.01 58.4734C205.73 57.5446 203.839 57.984 202.848 59.1824C201.968 60.251 201.928 61.6792 202.748 62.7378C203.709 63.9861 205.44 64.3357 206.92 63.6566C207.321 63.4668 207.601 62.9075 208.091 63.0773C208.661 63.2771 209.552 63.2371 209.702 63.7964C209.852 64.3257 209.082 64.6852 208.611 65.0048C206.57 66.4129 203.799 66.3131 201.868 64.7751C200.237 63.4868 199.596 61.4295 200.227 59.532C200.907 57.4946 203.028 56.0266 206.13 56.0066V56.0166Z" fill="#041C42"/>
<path d="M237.637 56.0265C238.317 55.9665 238.988 56.1064 239.588 56.366C239.948 56.5258 240.829 56.406 240.428 57.3248C240.128 58.0238 239.868 58.663 238.948 58.0139C238.787 57.904 238.557 57.8541 238.357 57.8241C237.507 57.6943 236.526 57.6344 236.266 58.633C236.006 59.6417 236.946 59.9313 237.717 60.1311C238.447 60.3208 239.158 60.5106 239.778 60.96C241.189 61.9687 241.329 63.5566 240.118 64.795C238.637 66.303 235.646 66.4029 234.055 64.9947C233.715 64.6951 233.455 64.4155 233.915 63.986C234.275 63.6465 234.435 62.9773 235.165 63.5566C235.956 64.1858 236.866 64.3955 237.857 64.0659C238.287 63.9261 238.587 63.6764 238.657 63.207C238.727 62.7177 238.437 62.4081 238.037 62.2383C237.507 62.0186 236.946 61.8488 236.396 61.6691C234.685 61.1098 233.825 60.0911 233.995 58.7928C234.205 57.145 235.356 56.1463 237.147 56.0265C237.317 56.0165 237.477 56.0265 237.647 56.0265H237.637Z" fill="#041C42"/>
<path d="M215.154 56.0164C216.275 56.0164 217.406 56.0763 218.526 55.9964C219.357 55.9365 219.497 56.2661 219.457 56.9851C219.427 57.6043 219.497 58.0437 218.586 58.0437C216.195 58.0337 216.195 58.0837 216.195 60.5105C216.195 62.0884 216.145 63.6664 216.215 65.2443C216.255 66.1531 215.705 66.0033 215.184 65.9933C214.654 65.9733 214.004 66.233 214.034 65.2243C214.094 63.147 214.034 61.0698 214.064 58.9925C214.074 58.2734 213.954 57.8839 213.133 58.0038C212.763 58.0637 212.373 57.9538 212.013 58.0238C210.862 58.2335 210.722 57.6243 210.782 56.6855C210.822 56.1163 211.032 55.9964 211.542 56.0064C212.753 56.0364 213.954 56.0064 215.164 56.0064L215.154 56.0164Z" fill="#041C42"/>
<path d="M195.684 60.88C195.684 59.5118 195.744 58.1436 195.664 56.7854C195.614 55.8966 196.134 55.9665 196.665 56.0264C197.155 56.0763 197.885 55.6768 197.865 56.7255C197.835 59.5817 197.835 62.438 197.865 65.2942C197.875 66.3429 197.135 65.9234 196.655 65.9833C196.104 66.0532 195.614 66.0832 195.664 65.2143C195.734 63.7662 195.684 62.3181 195.684 60.87V60.88Z" fill="#041C42"/>
<path d="M208.201 166.941C207.851 166.911 207.691 166.651 207.491 166.452C203.398 162.367 199.316 158.272 195.204 154.208C194.644 153.659 194.704 153.219 195.184 152.73C196.265 151.631 197.365 150.563 198.436 149.454C199.056 148.815 199.376 149.384 199.737 149.744C202.278 152.27 204.819 154.777 207.321 157.334C207.951 157.983 208.331 158.053 209.012 157.364C214.975 151.322 220.978 145.329 226.951 139.307C227.582 138.668 228.062 138.468 228.762 139.267C229.663 140.296 230.673 141.235 231.664 142.184C232.094 142.603 232.234 142.943 231.734 143.422C231.314 143.821 231.003 144.321 230.593 144.73C223.449 151.881 216.295 159.031 209.142 166.172C208.851 166.462 208.621 166.831 208.201 166.941Z" fill="#041C42"/>
<path d="M213.914 81.9626C230.693 81.9626 247.462 81.9626 264.241 81.9626C270.154 81.9626 273.896 85.6978 273.896 91.61C273.896 96.2639 273.896 100.918 273.896 105.572C273.896 111.045 270.024 114.879 264.521 114.879C230.803 114.879 197.085 114.879 163.377 114.879C157.804 114.879 153.982 111.045 153.972 105.482C153.972 100.748 153.972 96.0042 153.972 91.2704C153.972 85.7976 157.834 81.9626 163.347 81.9626C180.206 81.9626 197.065 81.9626 213.924 81.9626H213.914Z" fill="#F6C254"/>
<path d="M214.064 240.604C219.177 240.604 224.3 240.604 229.412 240.604C231.574 240.604 232.914 241.763 232.914 243.611C232.914 245.438 231.564 246.587 229.392 246.587C219.077 246.587 208.761 246.587 198.446 246.587C196.285 246.587 194.944 245.428 194.944 243.581C194.944 241.753 196.295 240.604 198.466 240.604C203.669 240.604 208.861 240.604 214.064 240.604Z" fill="white"/>
<path d="M230.863 142.932C230.693 143.112 230.543 143.292 230.373 143.462C223.189 150.682 216.005 157.893 208.841 165.133C208.271 165.713 207.991 165.623 207.471 165.103C203.829 161.398 200.167 157.713 196.495 154.038C196.065 153.609 195.944 153.339 196.465 152.899C197.125 152.33 197.765 151.721 198.316 151.052C198.836 150.423 199.156 150.543 199.666 151.072C202.188 153.658 204.799 156.175 207.271 158.802C208.041 159.621 208.391 159.461 209.072 158.762C214.965 152.78 220.908 146.857 226.791 140.865C227.582 140.056 228.082 139.787 228.832 140.835C229.262 141.434 229.873 141.904 230.403 142.433C230.553 142.583 230.673 142.743 230.853 142.942L230.863 142.932Z" fill="white"/>
<path d="M167.449 89.4429C171.491 89.4329 174.413 93.3178 173.152 97.1528C172.122 100.289 170.021 102.775 167.88 105.202C167.599 105.512 167.379 105.572 167.079 105.232C164.908 102.765 162.767 100.259 161.756 97.0629C160.556 93.2579 163.457 89.4529 167.459 89.4429H167.449Z" fill="#041C42"/>
<path d="M247.652 99.6692C247.252 99.3796 246.191 100.238 246.211 99.1399C246.231 98.1212 247.252 98.8303 247.792 98.6605C248.132 98.5606 248.532 98.6505 248.903 98.6405C249.273 98.6405 249.543 98.7104 249.533 99.1698C249.533 99.6592 249.213 99.6592 248.863 99.6592C248.492 99.6592 248.122 99.6592 247.652 99.6592V99.6692Z" fill="#041C42"/>
<path d="M243.51 98.6504C243.91 98.9401 245.001 98.0812 244.971 99.1797C244.941 100.198 243.92 99.4893 243.37 99.6491C243.03 99.749 242.629 99.6491 242.259 99.6691C241.889 99.6791 241.629 99.6192 241.639 99.1398C241.639 98.6405 241.959 98.6504 242.299 98.6504C242.67 98.6504 243.04 98.6504 243.51 98.6504Z" fill="#041C42"/>
<path d="M207.12 99.6691C206.7 99.3895 205.639 100.218 205.619 99.1798C205.599 98.1311 206.64 98.8103 207.18 98.6704C207.57 98.5706 208.001 98.6604 208.411 98.6505C208.751 98.6505 208.941 98.7603 208.941 99.1398C208.941 99.4993 208.821 99.6791 208.451 99.6691C208.041 99.6591 207.621 99.6691 207.11 99.6691H207.12Z" fill="#041C42"/>
<path d="M202.758 98.5806C203.258 98.98 204.398 98.0712 204.368 99.2097C204.338 100.188 203.298 99.6192 202.768 99.6192C202.207 99.6192 201.107 100.198 201.127 99.1099C201.147 98.1411 202.217 98.9101 202.758 98.5806Z" fill="#041C42"/>
<path d="M198.105 99.6692C197.675 99.3896 196.615 100.199 196.585 99.1899C196.555 98.1213 197.605 98.8403 198.155 98.6705C198.456 98.5807 198.816 98.6406 199.146 98.6606C199.486 98.6805 199.916 98.5207 199.946 99.1399C199.966 99.7491 199.576 99.6692 199.206 99.6792C198.876 99.6792 198.536 99.6792 198.105 99.6792V99.6692Z" fill="#041C42"/>
<path d="M193.753 99.7393C193.213 99.3598 192.072 100.219 192.092 99.1201C192.112 98.1713 193.173 98.6906 193.723 98.7006C194.283 98.7106 195.394 98.1114 195.364 99.2099C195.344 100.219 194.273 99.3697 193.743 99.7393H193.753Z" fill="#041C42"/>
<path d="M189.151 99.6693C188.711 99.3697 187.58 100.209 187.59 99.12C187.6 98.1613 188.66 98.6906 189.211 98.6906C189.771 98.6906 190.682 98.1113 190.902 99.1999C190.992 99.6393 190.892 99.6593 189.151 99.6593V99.6693Z" fill="#041C42"/>
<path d="M184.528 99.6691C184.118 99.3795 183.067 100.228 183.047 99.1798C183.027 98.1312 184.068 98.8203 184.608 98.6705C184.988 98.5706 185.428 98.6705 185.839 98.6505C186.239 98.6405 186.449 98.7603 186.429 99.2097C186.409 99.6192 186.179 99.6691 185.869 99.6691C185.458 99.6691 185.048 99.6691 184.538 99.6691H184.528Z" fill="#041C42"/>
<path d="M180.416 98.6506C180.806 98.9302 181.886 98.0814 181.846 99.2099C181.816 100.099 180.856 99.5195 180.326 99.6493C179.935 99.7392 179.505 99.6493 179.085 99.6693C178.685 99.6793 178.465 99.5594 178.485 99.11C178.505 98.7005 178.755 98.6506 179.065 98.6506C179.475 98.6506 179.895 98.6506 180.406 98.6506H180.416Z" fill="#041C42"/>
<path d="M238.787 99.7393C238.287 99.3598 237.227 100.249 237.207 99.18C237.197 98.1614 238.237 98.6907 238.757 98.7006C239.318 98.7006 240.418 98.1314 240.398 99.21C240.378 100.209 239.308 99.3798 238.777 99.7393H238.787Z" fill="#041C42"/>
<path d="M234.135 99.6691C233.735 99.3895 232.674 100.218 232.694 99.1298C232.714 98.1911 233.675 98.8202 234.195 98.6804C234.545 98.5805 234.935 98.6604 235.316 98.6604C235.656 98.6604 235.976 98.6504 235.986 99.1498C235.996 99.6391 235.726 99.6891 235.356 99.6791C234.985 99.6691 234.605 99.6791 234.135 99.6791V99.6691Z" fill="#041C42"/>
<path d="M229.742 99.7393C229.242 99.3898 228.162 100.219 228.192 99.1401C228.222 98.1314 229.262 98.7107 229.802 98.7107C230.343 98.7107 231.403 98.1514 231.403 99.1401C231.403 100.229 230.273 99.3698 229.742 99.7493V99.7393Z" fill="#041C42"/>
<path d="M225.5 98.6605C225.89 98.9102 226.881 98.1811 226.901 99.1199C226.921 100.169 225.91 99.5094 225.38 99.6592C225.03 99.7491 224.639 99.6692 224.269 99.6791C223.909 99.6791 223.629 99.6492 223.639 99.1598C223.639 98.6605 223.949 98.6605 224.299 98.6605C224.669 98.6605 225.04 98.6605 225.51 98.6605H225.5Z" fill="#041C42"/>
<path d="M220.588 99.6691C220.188 99.4194 219.197 100.148 219.177 99.2197C219.147 98.1611 220.168 98.8102 220.708 98.6804C221.098 98.5805 221.539 98.6704 221.949 98.6604C222.309 98.6604 222.469 98.8002 222.469 99.1797C222.469 99.5692 222.289 99.6891 221.939 99.6791C221.519 99.6791 221.108 99.6791 220.588 99.6791V99.6691Z" fill="#041C42"/>
<path d="M211.603 99.6692C211.213 99.3796 210.142 100.238 210.172 99.1199C210.192 98.1911 211.153 98.8103 211.683 98.6705C212.073 98.5706 212.503 98.6605 212.923 98.6505C213.264 98.6505 213.454 98.7604 213.454 99.1498C213.454 99.5194 213.324 99.6792 212.954 99.6692C212.543 99.6592 212.123 99.6692 211.613 99.6692H211.603Z" fill="#041C42"/>
<path d="M216.375 99.7892C215.775 99.3798 214.704 100.199 214.684 99.21C214.664 98.1314 215.765 98.7107 216.325 98.7007C216.846 98.7007 217.886 98.1614 217.876 99.18C217.866 100.289 216.755 99.24 216.375 99.7892Z" fill="#041C42"/>
<path d="M172.462 95.1652C172.462 96.3037 172.122 97.1925 171.721 98.0614C170.771 100.109 169.38 101.866 167.959 103.604C167.619 104.024 167.389 104.113 166.999 103.654C165.338 101.677 163.777 99.6393 162.827 97.2125C162.036 95.1951 162.476 93.3675 163.987 91.8395C165.388 90.4214 167.599 90.0319 169.41 90.8409C171.331 91.6997 172.302 93.2377 172.452 95.1552L172.462 95.1652Z" fill="#F6C254"/>
<path d="M170.47 95.3551C170.5 97.0129 169.18 98.3811 167.509 98.4211C165.858 98.461 164.457 97.1028 164.447 95.4649C164.427 93.7771 165.738 92.4389 167.409 92.4189C169.12 92.399 170.45 93.6773 170.48 95.3551H170.47Z" fill="#041C42"/>
<path d="M167.419 97.4221C166.288 97.3921 165.388 96.4334 165.448 95.3049C165.498 94.2163 166.388 93.3974 167.499 93.4173C168.669 93.4373 169.52 94.3461 169.46 95.5046C169.41 96.5832 168.499 97.4421 167.419 97.4121V97.4221Z" fill="#F6C254"/>
</g>
<defs>
<clipPath id="clip0_707_4211">
<rect width="320" height="298" fill="white"/>
</clipPath>
</defs>
</svg>
