<?xml version="1.0" encoding="UTF-8"?>
<svg fill="none" version="1.1" viewBox="0 0 320 298" xmlns="http://www.w3.org/2000/svg">
  <g clip-path="url(#clip0_707_4211)">
    <path d="m0 297.5v-297.5h320v297c-64.165 0-131.02 0.48-195.18 0.48-0.461 0-0.921 0-1.371-0.02-0.861-0.03-1.511-0.4-1.951-1.139-2.371-4.024-6.043-6.291-10.386-7.65-1.971-0.619-2.191-1.038-1.931-3.076 0.25-2.017 0.14-4.054 0.25-6.092 0.14-2.436 0.24-4.893 0.351-7.34 0.23-4.884 0.4-9.777 0.67-14.661 0.13-2.317 0.23-4.644 0.33-6.961 0.2-4.683 0.31-9.367 0.68-14.041 0.151-1.948 0.171-3.905 0.221-5.842 0.09-2.907 0.21-5.813 0.38-8.709 0.28-4.714 0.06-9.478 0.96-14.142 0.941-4.863 2.742-9.317 6.584-12.703 2.721-2.397 5.993-3.495 9.485-4.094 4.092-0.71 8.214-0.5 12.327-0.49 1.45 0 1.931 0.549 2.021 1.968 0.03 0.539 0.01 1.078 0.01 1.617 0 19.335 0.04 38.66-0.03 57.994-0.02 4.574 2.961 8.899 7.844 9.857 0.5 0.1 0.99 0.12 1.481 0.12 40.722 0 81.444 0.01 122.17 0 5.213 0 9.455-4.254 9.455-9.437 0-67.132 0-134.27 0.01-201.41 0-5.9022-4.963-9.6873-9.625-9.6773-40.472 0.04-80.944 0.02-121.42 0.02-5.023 0-8.715 2.9961-9.795 7.8996-0.17 0.779-0.09 1.5779-0.09 2.3569v104.01c0 0.539 0.01 1.078 0 1.618-0.05 1.737-0.551 2.137-2.271 1.757-2.232-0.499-4.463-0.969-6.694-1.448-6.614-1.428-13.267-2.686-20.001-3.405-3.922-0.42-7.874-0.779-11.826-0.52-2.8919 0.19-5.7934 0.42-8.6349 1.109-1.6009 0.379-2.0812 0.15-2.6915-1.398-1.4208-3.596-2.5714-7.281-4.0322-10.866-0.9305-2.267-1.951-4.494-3.0016-6.711-0.8705-1.848-0.7104-2.317 0.8905-3.606 1.4608-1.158 1.4408-1.598-0.1401-2.676-0.1401-0.09-0.2601-0.21-0.4102-0.29-4.2723-2.377-7.7242-5.662-10.816-9.417-1.5609-1.898-3.642-3.266-6.1233-3.875-2.4314-0.599-4.3424 0.239-5.5731 2.417-1.2706 2.247-1.871 4.713-2.1011 7.24-0.5303 5.802-0.3602 11.605 0.1701 17.407 0.1901 2.028 0.4402 4.035 0.7104 6.052 0.1501 1.109-0.2902 1.918-1.0806 2.637-4.4024 3.995-8.0043 8.648-11.246 13.602-5.543 8.499-9.8353 17.617-13.297 27.134-0.6704 1.848-0.7104 3.825-1.0006 5.753-0.9405 6.142-1.791 12.304-2.6714 18.456-0.7804 5.502-1.5709 10.995-2.3513 16.498s-1.6309 10.986-2.4013 16.488c-0.7704 5.503-1.5608 10.996-2.3513 16.499-0.7904 5.453-1.5508 10.915-2.3712 16.368-0.6504 4.265-1.2107 8.539-1.851 12.804-0.2402 1.587-0.6704 2.017-2.2813 2.027-5.4529 0.03-12.545 0.01-17.998 0z" fill="#A1C9FF"/>
    <path d="m0 297c6.1633 0 12.395-0.04 18.558-0.01 0.8204 0 1.1306-0.209 1.2507-1.068 1.7009-12.035 3.4518-24.069 5.1828-36.103 1.861-12.983 3.712-25.966 5.573-38.939 1.3107-9.118 2.5313-18.246 3.9921-27.344 0.4203-2.597 1.741-4.993 2.7615-7.44 4.4324-10.626 9.8353-20.683 17.289-29.542 1.5808-1.877 3.2617-3.675 5.1327-5.263 0.7004-0.589 0.8705-1.178 0.7404-2.037-1.0305-6.831-1.5208-13.712-1.1906-20.623 0.1501-3.116 0.5303-6.212 1.7709-9.118 1.711-3.975 4.6626-5.093 8.5947-3.266 1.5608 0.719 2.9216 1.758 4.1522 2.946 0.8405 0.809 1.751 1.588 2.3713 2.557 1.6009 2.487 3.8621 4.175 6.3234 5.673 1.1707 0.709 2.3013 1.488 3.4219 2.277 1.1106 0.789 1.1206 1.807 0.1 2.676-0.6803 0.579-1.881 0.869-1.941 1.758-0.0601 0.759 0.6003 1.588 0.9905 2.367 2.7815 5.572 4.6725 11.505 6.8337 17.327 0.3202 0.879 0.6303 0.969 1.4908 0.769 6.2234-1.448 12.537-1.468 18.87-0.919 9.965 0.869 19.711 3.026 29.446 5.183 1.131 0.25 1.271 0 1.271-1.048-0.03-35.374-0.02-70.757-0.02-106.13 0-6.4016 4.202-10.606 10.625-10.606h120.8c6.233 0 10.485 4.2544 10.485 10.496v200.66c0 6.042-4.312 10.336-10.395 10.336h-121.3c-5.883 0-10.215-4.344-10.215-10.256 0-19.914-0.02-39.828 0.03-59.742 0-1.208-0.331-1.548-1.501-1.558-4.292-0.07-8.575-0.209-12.827 0.53-8.024 1.398-12.527 6.441-14.668 13.991-1.021 3.606-1.041 7.311-1.221 10.996-0.68 14.241-1.32 28.472-1.981 42.714-0.42 9.128-0.83 18.266-1.29 27.394-0.04 0.889 0.24 1.178 1.07 1.408 4.903 1.358 9.005 3.835 11.516 8.449 0.211 0.389 0.451 0.549 0.871 0.509 0.33-0.03 0.67 0 1 0h194.24c0.541 0 1.25-0.01 1.79 0v1h-320v-1z" fill="#041C42"/>
    <path d="m283.88 151.9v99.889c0 6.092-3.682 9.767-9.786 9.767h-120.4c-6.003 0-9.715-3.705-9.715-9.707v-59.233c0-1.478 0-1.458 1.601-1.328 7.794 0.649 15.578 1.468 23.413 1.588 0.94 0.01 1.58-0.28 2.191-0.879 2.981-2.916 5.002-6.501 7.014-10.087 0.99-1.767 1.901-3.595 2.801-5.412 0.27-0.56 0.58-0.849 1.221-0.75 0.24 0.04 0.5 0 0.75 0h86.187c3.812 0 5.743-1.927 5.743-5.742v-33.546c0-3.635-1.981-5.613-5.623-5.613h-110.67c-3.652 0-5.633 1.968-5.633 5.603 0 7.82-0.02 15.63 0.02 23.439 0 0.979-0.14 1.299-1.221 1.029-2.261-0.549-4.542-0.979-6.833-1.398-0.731-0.14-0.981-0.42-0.981-1.209 0.02-35.753 0.01-71.496 0.03-107.25 0-5.0733 3.952-9.0182 9.025-9.0182 40.592-0.0099 81.194-0.0099 121.79 0 5.252 0 9.095 3.9648 9.095 9.3278v100.51l-0.01 0.02z" fill="#fff"/>
    <path d="m88.517 147.44c0.9405 2.546 1.881 5.023 2.7415 7.52 0.2801 0.809 0.5803 1.078 1.4908 0.839 6.4435-1.718 12.997-1.698 19.581-1.129 11.216 0.979 22.122 3.645 33.097 5.952 6.554 1.379 13.098 2.817 19.841 2.847 1.031 0 0.841 0.739 0.911 1.278 0.51 4.075 0.99 8.159 1.47 12.244 0.531 4.534 1.031 9.078 1.611 13.602 0.13 0.979-0.04 1.278-1.08 1.259-5.373-0.12-10.716-0.56-16.069-1.009-6.924-0.579-13.837-1.338-20.811-0.669-10.286 0.978-16.309 6.271-18.54 16.328-0.28 1.259-0.55 2.527-0.611 3.805-0.05 1.209-0.47 1.329-1.54 1.059-8.015-2.007-16.049-3.965-24.083-5.932-16.619-4.075-33.238-8.15-49.867-12.194-0.7504-0.18-0.9505-0.37-0.6603-1.139 4.5424-12.064 10.186-23.529 18.3-33.646 1.921-2.397 4.0021-4.644 6.4534-6.741 0.2702 1.448 0.5303 2.747 0.7304 4.055 0.0801 0.499 0.2101 0.729 0.7804 0.649 8.3646-1.168 16.509-3.016 23.873-7.38 0.7804-0.46 1.5008-1.019 2.3713-1.608l0.01 0.01z" fill="#A1C9FF"/>
    <path d="m110.27 249.99c-0.58 12.204-1.16 24.408-1.711 36.612-0.04 0.799-0.24 1.049-1.07 1.029-7.114-0.17-14.228-0.31-21.352-0.4-1.1106-0.01-1.4107-0.329-1.4608-1.448-0.6903-14.621-2.021-29.162-5.1728-43.483-1.2706-5.792-2.7815-11.525-5.4729-16.858-0.7304-1.448-1.5608-2.836-2.7215-3.994-2.2812-2.287-4.3323-2.188-6.2333 0.409-2.2012 3.016-3.5019 6.482-4.7926 9.937-4.1523 11.205-7.314 22.73-10.776 34.155-2.2112 7.301-4.4324 14.601-6.8437 21.842-0.3202 0.968-0.7004 1.198-1.741 1.088-5.8331-0.609-11.676-1.128-17.519-1.618-1.0506-0.09-1.3508-0.279-1.1707-1.448 2.3013-15.599 4.5325-31.209 6.7737-46.818 2.1011-14.661 4.2223-29.322 6.2734-43.993 0.1401-1.028 0.5603-0.938 1.2807-0.759 13.347 3.276 26.694 6.542 40.052 9.807 11.336 2.777 22.652 5.593 34.008 8.3 1.381 0.329 1.381 0.958 1.331 2.047-0.59 11.864-1.141 23.739-1.691 35.613h0.03l-0.02-0.02z" fill="#CAE0FF"/>
    <path d="m186.92 151.05c0.551-3.226 1.271-6.362 1.661-9.567 0.1-0.859 0.12-1.738 0.09-2.607-0.02-0.719-0.39-1.308-1.14-1.458-0.781-0.15-1.251 0.349-1.511 1.019-0.411 1.018-0.771 2.057-1.321 3.056 0-1.149 0.01-2.297 0-3.446-0.01-0.599-0.14-1.188-0.79-1.418-0.661-0.22-1.101 0.17-1.501 0.629-0.711 0.809-0.901 1.858-1.321 2.796-0.18 0.4-0.17 0.879-0.62 1.299 0-0.759 0.02-1.408 0-2.058-0.03-0.848 0.21-1.897-0.931-2.167-1.09-0.259-1.351 0.769-1.711 1.478-1.611 3.166-2.501 6.592-3.602 9.937-0.29 0.889-0.53 1.808-0.89 2.697-0.13-1.388-0.07-2.777-0.37-4.135-0.08-0.359-0.14-0.729-0.24-1.088-0.141-0.52-0.441-0.889-1.021-0.949s-0.941 0.25-1.211 0.709c-0.94 1.568-1.28 3.316-1.52 5.083-0.461 3.456-1.271 6.831-2.292 10.167-0.33 1.089-0.92 1.608-2.171 1.518-3.182-0.23-6.353-0.539-9.505-1.059-0.69-0.11-1.061-0.419-1.061-1.238 0.03-8.189 0-16.379 0.03-24.558 0-2.127 1.701-3.745 3.822-3.845 0.331-0.01 0.671 0 1.001 0h110.27c3.381 0 4.812 1.408 4.812 4.744v33.666c0 2.946-1.531 4.494-4.442 4.494h-86.047c-1.571 0-1.541 0.01-0.86-1.458 3.342-7.281 6.413-14.671 8.484-22.431 0.301-1.118 0.491-2.267 0.641-3.415 0.09-0.699 0.06-1.508-0.741-1.818-0.89-0.339-1.45 0.35-1.811 0.969-0.71 1.218-1.28 2.517-1.911 3.775-0.11 0.22-0.19 0.449-0.29 0.669l0.02 0.01z" fill="#004079"/>
    <path d="m69.375 296.97c-4.4925 0-8.9949-0.01-13.487 0.01-0.6403 0-1.0105-0.129-1.3407-0.759-1.3708-2.596-3.7721-4.014-6.3134-5.213-1.3508-0.639-2.7715-1.138-4.2223-1.498-0.6304-0.16-0.7904-0.329-0.5603-1.008 6.0432-17.737 10.646-35.923 16.769-53.63 1.3308-3.845 2.7615-7.65 4.8126-11.175 0.2902-0.5 0.6204-0.979 0.9806-1.439 1.4107-1.797 2.7014-1.907 4.3723-0.319 1.6909 1.608 2.7115 3.665 3.622 5.762 3.0416 7.061 4.6425 14.521 5.9632 22.041 2.6714 15.25 3.732 30.65 4.0422 46.11 0.02 0.959-0.2301 1.158-1.1506 1.148-4.4925-0.049-8.9849-0.02-13.487-0.02v-0.01z" fill="#A1C9FF"/>
    <g fill="#CAE0FF">
      <path d="m171.64 146.03c0.441 1.249 0.521 2.457 0.511 3.646-0.02 1.997-0.13 3.984-0.19 5.982-0.01 0.389-0.17 0.929 0.41 1.019 0.57 0.089 0.61-0.48 0.73-0.849 1.211-3.915 2.372-7.86 3.612-11.765 0.641-2.007 1.341-3.995 2.632-6.152 0.29 1.628 0.15 2.916 0 4.195-0.521 4.154-1.491 8.239-2.252 12.353-0.11 0.61-0.15 1.239-0.24 1.848-0.06 0.38-0.14 0.829 0.31 0.949 0.581 0.16 0.681-0.37 0.771-0.759 0.52-2.267 0.99-4.534 1.521-6.801 0.83-3.546 1.651-7.111 3.021-10.507 0.23-0.579 0.471-1.158 1.051-1.617 0.39 0.749 0.32 1.518 0.27 2.267-0.34 5.203-1.611 10.236-2.681 15.31-0.16 0.769-0.291 1.547-0.461 2.316-0.08 0.39-0.18 0.799 0.321 0.919 0.51 0.12 0.6-0.349 0.69-0.699 0.61-2.407 1.191-4.833 1.811-7.24 0.92-3.536 1.821-7.071 3.012-10.517 0.11-0.309 0.26-0.609 0.38-0.918 0.09-0.23 0.16-0.54 0.45-0.52 0.38 0.03 0.36 0.4 0.36 0.679 0.05 1.838-0.25 3.646-0.6 5.443-0.871 4.474-1.941 8.909-3.022 13.343-0.12 0.499-0.61 1.278 0.14 1.518 0.791 0.25 0.781-0.689 0.971-1.169 1.331-3.435 2.511-6.941 4.232-10.216 0.28-0.53 0.47-1.139 1.201-1.528 0.11 2.057-0.42 3.885-0.981 5.662-3.742 11.905-8.574 23.34-15.148 33.986-1.121 1.817-2.371 3.565-4.122 5.173-0.31-2.557-0.601-4.884-0.871-7.211-0.81-6.801-1.611-13.602-2.421-20.413-0.04-0.369-0.1-0.719 0.05-1.098 1.651-4.205 2.391-8.619 3.122-13.043 0.21-1.249 0.41-2.527 1.42-3.595l-0.01 9e-3z"/>
      <path d="m73.308 132.9c0.1001-0.43 0.1801-0.709 0.2101-0.989 0.0601-0.519 0.2402-0.699 0.8105-0.499 2.0411 0.719 3.9221 0.289 5.623-0.979 0.4403-0.33 0.6904-0.479 1.0006 0.15 0.8104 1.628 1.6608 3.245 2.5413 4.843 0.3302 0.6 0.04 0.779-0.4502 0.959-1.3307 0.499-2.6214 0.3-3.8721-0.25-0.4903-0.219-0.9805-0.459-1.4208-0.759-0.3702-0.249-0.5603-0.179-0.7804 0.17-0.2401 0.36-0.04 0.53 0.2301 0.689 1.9411 1.189 3.9822 1.938 6.2534 1.069 0.6303-0.24 0.8705-0.16 1.1106 0.429 1.0806 2.597 2.1712 5.204 3.3018 7.78 0.3302 0.759 0 1.129-0.5403 1.538-3.5219 2.597-7.5141 4.205-11.646 5.513-3.8921 1.228-7.8642 2.057-11.896 2.706-0.9405 0.15-1.4308 0.09-1.6209-1.108-0.6704-4.185-1.2006-8.379-1.6209-12.594-0.06-0.569 0-1.148 0-1.827 3.592 2.137 6.7637 1.358 9.8353-1.329-1.5808-0.808-3.1617-1.577-3.3117-3.535-0.0901-1.138 0.4502-2.097 1.1406-2.946 1.2306-1.498 2.3712-1.278 5.0827 0.999l0.02-0.03z"/>
      <path d="m121.17 296.97h-1.201c-11.236 0-22.472-0.02-33.708 0.03-1.0405 0-1.3207-0.249-1.3007-1.278 0.0301-2.197-0.06-4.404-0.1801-6.601-0.04-0.799 0.2102-0.969 0.9706-0.949 7.484 0.17 14.988 0.06 22.452 0.539 5.393 0.35 9.755 3.046 12.747 7.7 0.08 0.13 0.11 0.29 0.22 0.569v-0.01z"/>
      <path d="m20.65 296.89c0.3902-2.706 0.7904-5.373 1.1406-8.039 0.0801-0.579 0.2401-0.769 0.8605-0.709 6.2133 0.599 12.447 0.969 18.63 1.798 4.1823 0.559 8.1444 2.047 11.256 5.153 0.5003 0.499 0.9205 1.048 1.2307 1.797h-33.118z"/>
      <path d="m72.687 130.89c-2.6214-1.368-4.2123-1.148-5.473 0.679-1.6909 2.437-1.5308 4.634 0.5603 6.412 0.6304 0.539 0.6904 0.729-0.08 1.148-2.2912 1.219-4.9427 1.059-6.7736-0.499-0.3202-0.27-0.6204-0.509-0.6304-0.999-0.1201-5.263-0.3702-10.536 1.0005-15.709 0.3202-1.208 0.7605-2.357 1.4508-3.406 1.721-2.586 5.1928-2.866 7.5541-0.599 1.2207 1.169 1.811 2.677 2.1712 4.255 0.6603 2.856 0.7304 5.742 0.2101 8.728l0.01-0.01z"/>
      <path d="m74.018 127.19c-0.02-2.706-0.3702-5.113-1.3408-7.71 2.0712 1.898 3.612 3.835 5.1028 6.012-1.3607 0.28-2.5814 0.679-3.762 1.688v0.01z"/>
      <path d="m80.342 127.17c1.6709 1.109 3.3418 2.217 5.0027 3.326 0.4903 0.33 0.5103 0.649 0.06 1.079-1.6909 1.637-1.881 1.617-3.0116-0.45-0.7004-1.288-1.4508-2.556-2.1812-3.825 0.04-0.04 0.0901-0.09 0.1301-0.13z"/>
      <path d="m77.15 130.64c-1.3407 0.109-2.4813 0.359-3.1217-0.789-0.4402-0.779 0.5604-2.028 2.1312-2.767-0.2802 1.299-0.1601 2.477 1.0005 3.556h-0.01z"/>
    </g>
    <g fill="#041C42">
      <path d="m213.79 115.89h-50.337c-6.234 0-10.496-4.254-10.496-10.476v-14.212c0-5.8823 4.352-10.217 10.245-10.227h101.54c5.733 0 10.096 4.3742 10.116 10.107 0.02 4.9036 0.01 9.8074 0 14.71-0.01 5.723-4.383 10.087-10.126 10.097-16.989 0.01-33.978 0-50.957 0h0.01z"/>
      <path d="m213.93 247.58h-15.598c-2.602 0-4.423-1.688-4.393-4.045 0.03-2.297 1.831-3.935 4.373-3.935h31.196c2.602 0 4.423 1.688 4.393 4.045-0.03 2.297-1.831 3.935-4.373 3.935h-15.598z"/>
      <path d="m226.03 56.016c2.961 0.03 5.413 2.3669 5.343 5.1033-0.07 2.6865-2.532 4.8836-5.443 4.8736-2.992-0.01-5.423-2.287-5.373-5.0434 0.04-2.7863 2.471-4.9734 5.483-4.9335h-0.01z"/>
      <path d="m185.95 60.9c0-1.3283 0.03-2.6565-0.01-3.9848-0.02-0.6791 0.13-0.9587 0.871-0.9188 1.03 0.0699 2.081-0.02 3.121 0.03 2.071 0.0898 3.592 1.6278 3.562 3.5653-0.03 1.8476-1.571 3.3057-3.602 3.4055h-0.12c-1.34-0.2596-1.921 0.2397-1.641 1.6179 0.23 1.1585-0.29 1.4681-1.4 1.4082-0.731-0.04-0.791-0.3196-0.781-0.8889 0.03-1.4081 0-2.8263 0-4.2344z"/>
      <path d="m206.13 56.017c0.81 0 2.191 0.5592 3.332 1.7077 0.37 0.3696 0.51 0.6292-0.18 0.829-0.781 0.2197-1.411 0.5392-2.272-0.0799-1.28-0.9288-3.171-0.4894-4.162 0.709-0.88 1.0686-0.92 2.4968-0.1 3.5554 0.961 1.2483 2.692 1.5979 4.172 0.9188 0.401-0.1898 0.681-0.7491 1.171-0.5793 0.57 0.1998 1.461 0.1598 1.611 0.7191 0.15 0.5293-0.62 0.8888-1.091 1.2084-2.041 1.4081-4.812 1.3083-6.743-0.2297-1.631-1.2883-2.272-3.3456-1.641-5.2431 0.68-2.0374 2.801-3.5054 5.903-3.5254v0.01z"/>
      <path d="m237.64 56.026c0.68-0.06 1.351 0.0799 1.951 0.3395 0.36 0.1598 1.241 0.04 0.84 0.9588-0.3 0.699-0.56 1.3382-1.48 0.6891-0.161-0.1099-0.391-0.1598-0.591-0.1898-0.85-0.1298-1.831-0.1897-2.091 0.8089-0.26 1.0087 0.68 1.2983 1.451 1.4981 0.73 0.1897 1.441 0.3795 2.061 0.8289 1.411 1.0087 1.551 2.5966 0.34 3.835-1.481 1.508-4.472 1.6079-6.063 0.1997-0.34-0.2996-0.6-0.5792-0.14-1.0087 0.36-0.3395 0.52-1.0087 1.25-0.4294 0.791 0.6292 1.701 0.8389 2.692 0.5093 0.43-0.1398 0.73-0.3895 0.8-0.8589 0.07-0.4893-0.22-0.7989-0.62-0.9687-0.53-0.2197-1.091-0.3895-1.641-0.5692-1.711-0.5593-2.571-1.578-2.401-2.8763 0.21-1.6478 1.361-2.6465 3.152-2.7663 0.17-0.01 0.33 0 0.5 0h-0.01z"/>
      <path d="m215.15 56.016c1.121 0 2.252 0.0599 3.372-0.02 0.831-0.0599 0.971 0.2697 0.931 0.9887-0.03 0.6192 0.04 1.0586-0.871 1.0586-2.391-0.01-2.391 0.04-2.391 2.4668 0 1.5779-0.05 3.1559 0.02 4.7338 0.04 0.9088-0.51 0.759-1.031 0.749-0.53-0.02-1.18 0.2397-1.15-0.769 0.06-2.0773 0-4.1545 0.03-6.2318 0.01-0.7191-0.11-1.1086-0.931-0.9887-0.37 0.0599-0.76-0.05-1.12 0.02-1.151 0.2097-1.291-0.3995-1.231-1.3383 0.04-0.5692 0.25-0.6891 0.76-0.6791 1.211 0.03 2.412 0 3.622 0l-0.01 0.01z"/>
      <path d="m195.68 60.88c0-1.3682 0.06-2.7364-0.02-4.0946-0.05-0.8888 0.47-0.8189 1.001-0.759 0.49 0.0499 1.22-0.3496 1.2 0.6991-0.03 2.8562-0.03 5.7125 0 8.5687 0.01 1.0487-0.73 0.6292-1.21 0.6891-0.551 0.0699-1.041 0.0999-0.991-0.769 0.07-1.4481 0.02-2.8962 0.02-4.3443v0.01z"/>
      <path d="m208.2 166.94c-0.35-0.03-0.51-0.29-0.71-0.489-4.093-4.085-8.175-8.18-12.287-12.244-0.56-0.549-0.5-0.989-0.02-1.478 1.081-1.099 2.181-2.167 3.252-3.276 0.62-0.639 0.94-0.07 1.301 0.29 2.541 2.526 5.082 5.033 7.584 7.59 0.63 0.649 1.01 0.719 1.691 0.03 5.963-6.042 11.966-12.035 17.939-18.057 0.631-0.639 1.111-0.839 1.811-0.04 0.901 1.029 1.911 1.968 2.902 2.917 0.43 0.419 0.57 0.759 0.07 1.238-0.42 0.399-0.731 0.899-1.141 1.308-7.144 7.151-14.298 14.301-21.451 21.442-0.291 0.29-0.521 0.659-0.941 0.769z"/>
    </g>
    <path d="m213.91 81.963h50.327c5.913 0 9.655 3.7352 9.655 9.6474v13.962c0 5.473-3.872 9.307-9.375 9.307h-101.14c-5.573 0-9.395-3.834-9.405-9.397v-14.212c0-5.4728 3.862-9.3078 9.375-9.3078h50.577-0.01z" fill="#F6C254"/>
    <path d="m214.06 240.6h15.348c2.162 0 3.502 1.159 3.502 3.007 0 1.827-1.35 2.976-3.522 2.976h-30.946c-2.161 0-3.502-1.159-3.502-3.006 0-1.828 1.351-2.977 3.522-2.977h15.598z" fill="#fff"/>
    <path d="m230.86 142.93c-0.17 0.18-0.32 0.36-0.49 0.53-7.184 7.22-14.368 14.431-21.532 21.671-0.57 0.58-0.85 0.49-1.37-0.03-3.642-3.705-7.304-7.39-10.976-11.065-0.43-0.429-0.551-0.699-0.03-1.139 0.66-0.569 1.3-1.178 1.851-1.847 0.52-0.629 0.84-0.509 1.35 0.02 2.522 2.586 5.133 5.103 7.605 7.73 0.77 0.819 1.12 0.659 1.801-0.04 5.893-5.982 11.836-11.905 17.719-17.897 0.791-0.809 1.291-1.078 2.041-0.03 0.43 0.599 1.041 1.069 1.571 1.598 0.15 0.15 0.27 0.31 0.45 0.509l0.01-0.01z" fill="#fff"/>
    <g fill="#041C42">
      <path d="m167.45 89.443c4.042-0.01 6.964 3.8749 5.703 7.7099-1.03 3.1362-3.131 5.6222-5.272 8.0492-0.281 0.31-0.501 0.37-0.801 0.03-2.171-2.467-4.312-4.973-5.323-8.1691-1.2-3.805 1.701-7.61 5.703-7.62h-0.01z"/>
      <path d="m247.65 99.669c-0.4-0.2896-1.461 0.5688-1.441-0.5293 0.02-1.0187 1.041-0.3096 1.581-0.4794 0.34-0.0999 0.74-0.01 1.111-0.02 0.37 0 0.64 0.0699 0.63 0.5293 0 0.4894-0.32 0.4894-0.67 0.4894h-1.211v0.01z"/>
      <path d="m243.51 98.65c0.4 0.2897 1.491-0.5692 1.461 0.5293-0.03 1.0183-1.051 0.3096-1.601 0.4694-0.34 0.0999-0.741 0-1.111 0.02-0.37 0.01-0.63-0.0499-0.62-0.5293 0-0.4993 0.32-0.4894 0.66-0.4894h1.211z"/>
      <path d="m207.12 99.669c-0.42-0.2796-1.481 0.5489-1.501-0.4893-0.02-1.0487 1.021-0.3695 1.561-0.5094 0.39-0.0998 0.821-0.01 1.231-0.0199 0.34 0 0.53 0.1098 0.53 0.4893 0 0.3595-0.12 0.5393-0.49 0.5293-0.41-0.01-0.83 0-1.341 0h0.01z"/>
      <path d="m202.76 98.581c0.5 0.3994 1.64-0.5094 1.61 0.6291-0.03 0.9783-1.07 0.4095-1.6 0.4095-0.561 0-1.661 0.5788-1.641-0.5093 0.02-0.9688 1.09-0.1998 1.631-0.5293z"/>
      <path d="m198.1 99.669c-0.43-0.2796-1.49 0.5298-1.52-0.4793-0.03-1.0686 1.02-0.3496 1.57-0.5194 0.301-0.0898 0.661-0.0299 0.991-0.0099 0.34 0.0199 0.77-0.1399 0.8 0.4793 0.02 0.6092-0.37 0.5293-0.74 0.5393h-1.101v-0.01z"/>
      <path d="m193.75 99.739c-0.54-0.3795-1.681 0.4797-1.661-0.6192 0.02-0.9488 1.081-0.4295 1.631-0.4195 0.56 0.01 1.671-0.5892 1.641 0.5093-0.02 1.0091-1.091 0.1598-1.621 0.5294h0.01z"/>
      <path d="m189.15 99.669c-0.44-0.2996-1.571 0.5397-1.561-0.5493 0.01-0.9587 1.07-0.4294 1.621-0.4294 0.56 0 1.471-0.5793 1.691 0.5093 0.09 0.4394-0.01 0.4594-1.751 0.4594v0.01z"/>
      <path d="m184.53 99.669c-0.41-0.2896-1.461 0.5589-1.481-0.4893-0.02-1.0486 1.021-0.3595 1.561-0.5093 0.38-0.0999 0.82 0 1.231-0.02 0.4-0.01 0.61 0.1098 0.59 0.5592-0.02 0.4095-0.25 0.4594-0.56 0.4594h-1.331-0.01z"/>
      <path d="m180.42 98.651c0.39 0.2796 1.47-0.5692 1.43 0.5593-0.03 0.8891-0.99 0.3096-1.52 0.4394-0.391 0.0899-0.821 0-1.241 0.02-0.4 0.01-0.62-0.1099-0.6-0.5593 0.02-0.4095 0.27-0.4594 0.58-0.4594h1.341 0.01z"/>
      <path d="m238.79 99.739c-0.5-0.3795-1.56 0.5097-1.58-0.5593-0.01-1.0186 1.03-0.4893 1.55-0.4794 0.561 0 1.661-0.5692 1.641 0.5094-0.02 0.999-1.09 0.1698-1.621 0.5293h0.01z"/>
      <path d="m234.14 99.669c-0.4-0.2796-1.461 0.5489-1.441-0.5393 0.02-0.9387 0.981-0.3096 1.501-0.4494 0.35-0.0999 0.74-0.02 1.121-0.02 0.34 0 0.66-0.01 0.67 0.4894 0.01 0.4893-0.26 0.5393-0.63 0.5293-0.371-0.01-0.751 0-1.221 0v-0.01z"/>
      <path d="m229.74 99.739c-0.5-0.3495-1.58 0.4797-1.55-0.5992 0.03-1.0087 1.07-0.4294 1.61-0.4294 0.541 0 1.601-0.5593 1.601 0.4294 0 1.0889-1.13 0.2297-1.661 0.6092v-0.01z"/>
      <path d="m225.5 98.66c0.39 0.2497 1.381-0.4794 1.401 0.4594 0.02 1.0491-0.991 0.3895-1.521 0.5393-0.35 0.0899-0.741 0.01-1.111 0.0199-0.36 0-0.64-0.0299-0.63-0.5193 0-0.4993 0.31-0.4993 0.66-0.4993h1.211-0.01z"/>
      <path d="m220.59 99.669c-0.4-0.2497-1.391 0.4789-1.411-0.4494-0.03-1.0586 0.991-0.4095 1.531-0.5393 0.39-0.0999 0.831-0.01 1.241-0.02 0.36 0 0.52 0.1398 0.52 0.5193 0 0.3895-0.18 0.5094-0.53 0.4994h-1.351v-0.01z"/>
      <path d="m211.6 99.669c-0.39-0.2896-1.461 0.5688-1.431-0.5493 0.02-0.9288 0.981-0.3096 1.511-0.4494 0.39-0.0999 0.82-0.01 1.24-0.02 0.341 0 0.531 0.1099 0.531 0.4993 0 0.3696-0.13 0.5294-0.5 0.5194-0.411-0.01-0.831 0-1.341 0h-0.01z"/>
      <path d="m216.38 99.789c-0.6-0.4094-1.671 0.4098-1.691-0.5792-0.02-1.0786 1.081-0.4993 1.641-0.5093 0.521 0 1.561-0.5393 1.551 0.4793-0.01 1.109-1.121 0.06-1.501 0.6092z"/>
    </g>
    <path d="m172.46 95.165c0 1.1385-0.34 2.0273-0.741 2.8962-0.95 2.0476-2.341 3.8046-3.762 5.5426-0.34 0.42-0.57 0.509-0.96 0.05-1.661-1.977-3.222-4.0147-4.172-6.4415-0.791-2.0174-0.351-3.845 1.16-5.373 1.401-1.4181 3.612-1.8076 5.423-0.9986 1.921 0.8588 2.892 2.3968 3.042 4.3143l0.01 0.01z" fill="#F6C254"/>
    <path d="m170.47 95.355c0.03 1.6578-1.29 3.026-2.961 3.066-1.651 0.0399-3.052-1.3183-3.062-2.9562-0.02-1.6878 1.291-3.026 2.962-3.046 1.711-0.0199 3.041 1.2584 3.071 2.9362h-0.01z" fill="#041C42"/>
    <path d="m167.42 97.422c-1.131-0.03-2.031-0.9887-1.971-2.1172 0.05-1.0886 0.94-1.9075 2.051-1.8876 1.17 0.02 2.021 0.9288 1.961 2.0873-0.05 1.0786-0.961 1.9375-2.041 1.9075v0.01z" fill="#F6C254"/>
  </g>
  <defs>
    <clipPath id="clip0_707_4211">
      <rect width="320" height="298" fill="#fff"/>
    </clipPath>
  </defs>
</svg>
