<?xml version="1.0" encoding="UTF-8"?>
<svg fill="none" version="1.1" viewBox="0 0 320 298" xmlns="http://www.w3.org/2000/svg">
  <g clip-path="url(#clip0_707_4261)">
    <rect width="320" height="298" fill="#F6C254"/>
    <path d="m0 297c0-98.54 0.030012-198.46 0-297 106.21 0.029963 213.79 4.0533e-9 320 4.0533e-9v297.31h-3.014-136.16c-3.331 0-3.371-0.03-3.371-3.306v-28.925c0-0.539 0-1.078 0.03-1.618 0.06-0.938 0.56-1.428 1.5-1.498 0.67-0.04 1.331-0.03 2.001-0.03h101.31c2.651 0 5.012-0.699 6.973-2.507 2.161-1.997 3.131-4.484 3.131-7.451-0.02-41.938-0.01-83.877-0.01-125.82v-75.068c0-3.7154-1.63-6.552-4.832-8.4297-1.41-0.829-2.951-1.2684-4.632-1.2684-40.596 0-81.202 0.0199-121.8 0-5.892 0-9.734 4.9739-9.714 9.7381 0.06 21.034 0 42.059 0.06 63.093 0 2.057-0.79 3.785-1.48 5.603-0.12 0.309-0.32 0.679-0.691 0.639-0.36-0.04-0.45-0.459-0.5-0.779-0.15-0.909-0.06-1.828-0.1-2.737-0.02-0.419 0-0.889-0.47-1.058-0.55-0.19-0.84 0.259-1.09 0.639-0.531 0.799-0.821 1.728-1.201 2.597-0.2 0.449-0.36 1.148-0.89 1.058-0.611-0.1-0.531-0.839-0.581-1.368-0.04-0.459-0.01-0.919-0.03-1.368-0.01-0.38-0.04-0.789-0.5-0.899s-0.67 0.249-0.86 0.569c-1.061 1.798-1.721 3.775-2.441 5.723-1.521 4.095-2.811 8.26-4.102 12.425-0.2 0.629-0.34 1.298-0.74 1.848-0.35 0.479-0.67 0.439-0.89-0.11-0.22-0.57-0.11-1.149-0.04-1.728 0.13-1.159 0.22-2.307-0.1-3.456-0.11-0.399-0.11-0.879-0.621-0.969-0.55-0.1-0.83 0.35-1.06 0.729-0.86 1.429-1.481 2.977-2.111 4.515-2.571 6.312-5.082 12.644-7.443 19.037-0.63 1.708-1.821 2.966-2.991 4.244-6.263 6.892-12.545 13.754-18.978 20.495-5.0216 5.264-9.9836 10.588-14.816 16.021-4.5918 5.154-9.0636 10.397-13.385 15.791-1.2705 1.588-2.511 3.206-3.8015 4.784-1.1105 1.368-1.8008 1.248-2.441-0.39-1.6307-4.175-2.9312-8.479-4.7719-12.584-0.7803-1.748-1.5606-3.496-2.391-5.214-0.6802-1.398-0.6302-1.928 0.6203-2.767 1.8407-1.228 2.1108-2.127-0.2301-3.475-0.6803-0.39-1.2905-0.919-1.9808-1.309-2.8311-1.608-5.082-3.765-7.0828-6.342-2.0208-2.607-4.5118-4.784-7.8831-5.613-2.0108-0.49-3.8216 0.2-5.012 1.877-1.7807 2.507-2.2209 5.434-2.6111 8.35-0.3101 2.347-0.3301 4.715-0.3001 7.082 0.09 6.152 0.6603 12.255 1.6407 18.327 0.2401 1.518-0.0601 2.677-1.0705 3.876-3.0612 3.615-5.7623 7.51-8.4533 11.406-5.6823 8.25-10.834 16.839-15.916 25.459-0.7302 1.238-1.0104 2.546-1.1304 3.895-0.4302 4.804-0.4402 9.608-0.1101 14.422 0.3502 5.114 1.3406 10.108 2.7912 15.022 0.6602 2.237 1.5006 4.404 2.511 6.502 0.8403 1.748 0.5202 2.297-1.3706 2.317-4.2517 0.03-10.114-0.287-14.366-0.307z" fill="#A1C9FF"/>
    <path d="m0 297 16.016-0.172c-0.6702-1.529-1.3905-2.957-1.9407-4.445-3.4214-9.109-4.6019-18.567-4.3318-28.246 0.07003-2.457 0.42015-4.874 0.62025-7.321 0.06-0.749 0.6002-1.258 0.9504-1.867 5.9423-10.328 12.175-20.475 19.138-30.163 1.8907-2.627 3.8415-5.214 5.9223-7.691 0.4102-0.48 0.5503-0.899 0.4502-1.548-1.1504-7.391-2.0108-14.822-1.7707-22.323 0.1201-3.945 0.3702-7.9 2.1609-11.536 1.6606-3.386 4.2417-4.365 7.7331-2.936 3.0212 1.228 5.4321 3.336 7.2128 5.952 2.0908 3.057 5.1621 4.755 8.1032 6.652 2.8412 1.838 3.3914 2.717 0.1801 4.794-0.4102 0.27-0.8003 0.48-0.4502 1.159 3.2013 6.202 5.4422 12.794 7.8332 19.326 0.08 0.22 0.19 0.43 0.3501 0.77 1.6706-2.088 3.2713-4.095 4.8619-6.093 7.9832-10.018 16.567-19.496 25.37-28.795 8.0031-8.46 15.956-16.959 23.699-25.639 0.43-0.489 0.621-1.068 0.841-1.648 2.991-7.78 5.852-15.611 9.293-23.201 0.391-0.849 0.751-1.968 1.941-1.748 1.211 0.22 1.101 1.418 1.191 2.347 0.15 1.538-0.13 3.066 0 4.644 0.86-2.686 1.7-5.383 2.581-8.07 1.21-3.705 2.431-7.411 4.001-10.976 0.27-0.61 0.58-1.199 0.951-1.748 0.27-0.4 0.6-0.869 1.21-0.669 0.54 0.179 0.77 0.659 0.8 1.168 0.05 0.989 0.01 1.988 0.18 3.036 0.381-0.968 0.701-1.967 1.161-2.886 0.41-0.819 0.76-1.988 1.931-1.798 1.25 0.2 1.04 1.438 1.11 2.347 0.07 0.859 0.01 1.718 0.01 2.827 0.63-2.277 1.691-4.105 1.691-6.422-0.09-20.905-0.05-41.819-0.05-62.724 0-6.1425 4.272-10.417 10.434-10.417h121.18c5.983 0 10.314 4.3148 10.314 10.298v201c0 5.853-4.371 10.168-10.304 10.168-34.354 0-68.707 0.01-103.06-0.03-1.31 0-1.6 0.339-1.6 1.618 0.06 10.387 0.03 20.784 0.03 31.172 0 1.112 0.485 1.83 1.559 1.83h140.5v1h-320v-1z" fill="#041C42"/>
    <path d="m154.06 258.18c-1.47-1.728-2.121-3.676-2.121-5.873v-18.208c0-30.553 0-61.095-0.03-91.648 0-1.668 0.451-3.186 0.891-4.734 1.12-3.945 2.131-7.931 2.791-11.986 0.12-0.739 0.13-1.488 0.14-2.237 0.01-0.499 0.01-1.069-0.61-1.218-0.571-0.13-0.911 0.299-1.211 0.709-0.7 0.929-1.06 2.037-1.751 3.396 0.331-2.258 0.631-4.155 0.881-6.053 0.1-0.779 0.14-1.568 0.13-2.357 0-0.4-0.06-1.009-0.31-1.159-1.341-0.799-0.911-2.057-0.921-3.166-0.01-20.695-0.01-41.399-0.01-62.094 0-5.8429 3.752-9.6083 9.574-9.6083h120.8c5.762 0 9.554 3.7754 9.554 9.4984v200.5c0 5.663-3.802 9.479-9.444 9.479-34.393 0-68.787 0-103.18 0.03-1.11 0-1.42-0.26-1.34-1.349 0.1-1.398 0.03-2.806 0.03-4.304-1.991 0.509-3.432 1.698-4.862 2.886-0.06 0.05-0.14 0.11-0.18 0.18-1.781 3.116-4.762 2.657-7.633 2.587-0.821-0.02-0.551-0.57-0.551-0.959-0.02-3.785 0-7.561 0-11.346v-1.448c-5.132 2.047-8.153 5.952-10.624 10.497l-0.01-0.02z" fill="#fff"/>
    <path d="m11.785 256.09c7.703-13.283 15.636-26.307 25.45-38.543-0.1201 1.788 0.7403 1.638 1.7207 1.489 8.0632-1.189 15.916-3.027 23.009-7.261 0.7803-0.47 1.5106-1.009 2.401-1.609 1.1504 3.097 2.2809 6.143 3.4614 9.319 1.7507-2.207 3.4413-4.335 5.122-6.462 9.0136-11.376 18.808-22.063 28.791-32.59 7.013-7.391 13.946-14.852 20.699-22.473 0.5-0.569 0.93-0.749 1.69-0.629 5.663 0.889 11.335 1.738 17.017 2.537 0.91 0.13 1.001 0.329 0.62 1.119-2.521 5.283-5.252 10.457-8.103 15.561-8.093 14.452-17.027 28.405-25.72 42.498-4.032 6.532-8.0333 13.084-11.585 19.895-2.3609 4.535-3.2313 9.479-4.3817 14.353-1.6007 6.752-2.5511 13.613-3.7215 20.445-0.1501 0.879-0.4202 0.989-1.2005 0.789-21.058-5.174-42.127-10.327-63.185-15.481-3.9916-0.979-7.9832-1.958-12.085-2.967v0.01z" fill="#A1C9FF"/>
    <path d="m90.726 296.83c-24.06 0-48.129 0-72.189 0.03-0.9904 0-1.4806-0.31-1.9108-1.159-2.7011-5.403-4.1616-11.176-5.062-17.099-0.9304-6.103-1.1204-12.235-0.5602-18.388 0.2901-3.246 0.2401-3.236 3.4413-2.447 24.44 5.983 48.88 11.956 73.319 17.948 0.5802 0.14 1.1505 0.16 1.7307 0.16 24.52 0 49.049 0.01 73.569-0.02 1.131 0 1.431 0.27 1.411 1.408-0.06 6.113-0.06 12.216 0 18.328 0.01 1.059-0.28 1.269-1.301 1.269-24.149-0.03-48.299-0.02-72.439-0.02l-0.01-0.01z" fill="#CAE0FF"/>
    <path d="m124.49 253.25c1.43-0.639 2.951-0.929 4.321-1.618 0.631-0.32 1.401-0.639 1.341-1.468-0.07-0.939-0.99-1.059-1.691-1.189-2.101-0.379-4.231-0.359-6.352-0.319-6.493 0.129-12.985 0.319-19.468 0.439-2.541 0.05-5.082-0.06-7.613-0.02-0.9104 0.01-0.9604-0.28-0.8004-1.079 0.9404-4.934 3.2914-9.278 5.7323-13.583 6.2721-11.096 13.235-21.773 19.898-32.63 7.733-12.585 15.466-25.179 21.889-38.503 1.8-3.736 4.451-6.992 5.972-10.887 1.03-2.647 2.071-5.303 3.241-7.97v1.268c0 35.367 0 70.734-0.01 106.1 0 2.537 0.57 4.844 2.201 6.831 0.36 0.45 0.37 0.819 0.14 1.349-0.86 1.937-1.49 3.955-2.021 6.002-0.23 0.869-1.73 1.389-2.271 0.7-0.97-1.229-2.411-1.349-3.701-2.058 1.07 0 2.151 0.07 3.211-0.02 0.921-0.08 2.151-0.06 2.351-1.218 0.2-1.209-1.03-1.459-1.871-1.838-0.71-0.32-1.48-0.49-2.23-0.929 0.91 0 1.81 0.03 2.721 0 0.86-0.03 1.75-0.16 1.86-1.248 0.1-0.989-0.72-1.349-1.46-1.619-2.241-0.799-4.582-1.168-6.913-1.568-6.132-1.058-12.285-1.987-18.457-2.926h-0.02z" fill="#A1C9FF"/>
    <g fill="#CAE0FF">
      <path d="m154.77 123.75c-0.27 3.456-1.031 6.552-1.841 9.638-2.001 7.671-4.292 15.242-7.973 22.313-1.821 3.496-1.851 3.486-5.743 2.896-4.891-0.739-9.773-1.488-14.665-2.187-0.761-0.11-0.871-0.3-0.591-1.009 2.942-7.61 5.773-15.271 9.094-22.732 0.22-0.499 0.34-1.119 1.07-1.398 0.641 2.207 0.12 4.374-0.02 6.532-0.1 1.608-0.4 3.206-0.6 4.814-0.05 0.429-0.26 1.059 0.3 1.199 0.671 0.169 0.731-0.54 0.871-0.979 1.94-5.993 3.831-12.006 5.802-17.978 0.88-2.667 1.811-5.314 3.341-8.08 0.4 2.207 0.01 4.055-0.24 5.902-0.57 4.065-1.71 8.031-2.181 12.126-0.05 0.459-0.36 1.118 0.39 1.208 0.601 0.07 0.591-0.569 0.691-0.999 1.21-5.253 2.211-10.547 3.961-15.661 0.36-1.048 0.681-2.127 1.631-3.166 0.44 1.768 0.19 3.346-0.01 4.904-0.61 4.864-1.791 9.619-2.781 14.413-0.11 0.529-0.68 1.408 0.15 1.618 0.86 0.219 0.73-0.819 0.87-1.349 1.461-5.613 2.721-11.286 4.602-16.779 0.21-0.629 0.28-1.778 0.97-1.628 0.671 0.14 0.341 1.248 0.271 1.907-0.581 5.544-1.841 10.957-3.072 16.37-0.11 0.51-0.66 1.289 0.08 1.519 0.931 0.279 0.781-0.779 0.941-1.279 1.1-3.516 2.171-7.051 3.621-10.447 0.22-0.519 0.39-1.079 1.051-1.678l0.01-0.01z"/>
      <path d="m149.86 263.22c-1.271 0.569-2.431 0.459-3.582 0.439-5.292-0.11-10.514-0.949-15.746-1.608-0.16-0.02-0.33-0.06-0.49-0.08-0.39-0.05-0.8-0.06-0.911 0.41-0.12 0.519 0.361 0.609 0.691 0.679 1.5 0.3 3.011 0.599 4.532 0.839 3.651 0.579 7.322 1.049 10.904 1.988 0.75 0.199 1.51 0.389 2.421 0.928-0.54 0.04-0.871 0.08-1.201 0.08-13.945 0-27.891 0-41.826 0.03-0.981 0-1.241-0.259-1.251-1.218-0.1-4.854-0.26-9.718-0.4-14.572-0.02-0.58-0.12-1.089 0.83-1.089 7.153-0.02 14.306-0.52 21.469-0.36 1.24 0.03 2.471 0.14 3.881 0.5-1.29 1.028-2.711 1.218-3.991 1.698-0.78 0.289-1.581 0.499-2.361 0.769-0.4 0.13-0.85 0.309-0.79 0.819 0.06 0.559 0.54 0.649 1.02 0.719 2.961 0.409 5.932 0.779 8.884 1.248 5.612 0.899 11.274 1.558 16.796 2.987 0.58 0.149 1.201 0.279 1.641 0.869-0.62 0.499-1.311 0.369-1.941 0.349-5.452-0.16-10.864-0.789-16.286-1.338-0.661-0.07-1.321-0.12-1.991-0.18-0.34-0.03-0.76-0.04-0.81 0.37-0.07 0.479 0.37 0.589 0.75 0.649 1.891 0.269 3.791 0.509 5.682 0.789 3.982 0.579 7.983 1.088 11.865 2.217 0.74 0.22 1.51 0.41 2.241 1.089l-0.03-0.02z"/>
      <path d="m46.189 201.14c-3.4213-2.048-4.0616-3.776-2.3709-6.203 1.2205-1.758 2.521-1.618 5.3421 0.639 0-1.498 0.6903-1.508 1.9208-1.218 1.9808 0.459 3.7515-0.27 5.3121-1.658 1.1504 1.788 2.0208 3.695 2.9912 5.553 0.3101 0.599-0.1101 0.709-0.5102 0.859-1.5707 0.589-3.0212 0.18-4.4318-0.519-0.3001-0.15-0.5802-0.32-0.8703-0.49-0.2601-0.15-0.4702-0.309-0.7003 0.08-0.2301 0.37-0.1601 0.569 0.2001 0.789 1.9507 1.189 3.9916 1.938 6.2525 1.029 0.6402-0.26 0.8703-0.13 1.1004 0.449 1.0804 2.597 2.1709 5.194 3.3013 7.781 0.2901 0.669 0.1301 1.009-0.4202 1.428-3.3213 2.527-7.1128 4.085-11.024 5.374-4.1517 1.368-8.4034 2.307-12.735 2.926-0.5002 0.07-1.2305 0.529-1.4206-0.559-0.8603-4.944-1.4806-9.918-1.8707-14.952 4.3917 1.858 6.6026 1.568 9.9139-1.308h0.02z"/>
      <path d="m120.09 274.87c-9.904 0-19.808-0.02-29.712 0.03-1.0904 0-1.3405-0.269-1.1204-1.298 0.3201-1.498 0.5502-3.016 0.7603-4.534 0.12-0.839 0.3701-1.219 1.3705-1.209 4.5719 0.07 9.1535 0.03 13.726 0.03 14.856 0 29.712 0.01 44.568-0.03 1.04 0 1.35 0.24 1.28 1.288-0.1 1.529-0.09 3.077 0 4.605 0.06 0.969-0.27 1.138-1.17 1.138-9.904-0.03-19.808-0.02-29.712-0.02h0.01z"/>
      <path d="m176.93 257.17v1.268c0 12.375-0.01 24.76 0.03 37.135 0 1.029-0.24 1.309-1.28 1.289-3.081-0.08-6.163-0.06-9.234 0-0.84 0.01-1.02-0.24-1.02-1.039 0.03-6.602-0.21-13.224 0.1-19.816 0.2-4.305 2.111-8.23 4.352-11.905 1.4-2.288 3.141-4.285 5.332-5.853 0.49-0.35 1.03-0.64 1.72-1.069v-0.01z"/>
      <path d="m163.68 249.21v1.118c0 7.801-0.01 15.601 0.02 23.402 0 0.889-0.15 1.198-1.13 1.178-3.242-0.07-6.483-0.03-9.724-0.02-0.53 0-0.871 0.03-0.931-0.739-0.57-7.061 1.231-13.453 5.322-19.216 1.671-2.347 3.682-4.335 6.453-5.733l-0.01 0.01z"/>
      <path d="m48.479 193.62c-1.3105-0.779-2.5811-1.329-4.0416-0.58-2.7711 1.429-3.3814 5.514-1.0004 7.491 0.9904 0.829 0.7203 1.059-0.2001 1.478-1.3305 0.6-2.6911 0.829-4.1316 0.52-2.1209-0.46-2.9712-1.419-3.0313-3.536-0.13-4.944-0.2-9.888 1.1805-14.712 0.1801-0.629 0.4302-1.258 0.7003-1.858 0.8003-1.808 1.9408-3.306 4.1116-3.286 2.2409 0.02 4.1017 0.889 5.2221 3.007 1.3906 2.626 1.5906 5.473 1.5306 8.349-0.02 1.019 0.05 2.068-0.3301 3.127h-0.01z"/>
    </g>
    <path d="m102.4 258.58c0 2.447-0.04 4.904 0.02 7.351 0.02 0.789-0.19 0.988-0.951 0.978-3.3709-0.04-6.7422-0.03-10.124 0-0.6702 0-0.9603-0.09-0.8203-0.879 0.8604-4.994 1.8107-9.957 2.9412-14.901 0.1901-0.809 0.5202-1.059 1.3305-1.039 2.0808 0.05 4.1617 0.02 6.2422-0.01 0.671-0.01 0.951 0.16 0.941 0.899-0.04 2.537-0.02 5.064-0.02 7.601h0.43 0.01z" fill="#A1C9FF"/>
    <path d="m164.69 273.37v-10.217c0-0.49 0.07-0.77 0.66-0.75 1.4 0.04 2.801 0.01 4.392 0.01-2.321 3.486-3.832 7.132-5.052 10.957z" fill="#A1C9FF"/>
    <g fill="#CAE0FF">
      <path d="m53.661 188.27c-1.4906 0.2-2.611 0.779-3.8215 1.578-0.02-2.556-0.3001-4.904-1.0604-7.211 1.9208 1.568 3.3913 3.486 4.8819 5.623v0.01z"/>
      <path d="m55.873 189.69c1.9607 1.299 3.6214 2.408 5.2921 3.516 0.4902 0.33 0.5602 0.679 0.09 1.089-0.03 0.03-0.07 0.05-0.1 0.08-1.1605 1.072-2.1276 0.922-2.9012-0.45-0.7403-1.308-1.4806-2.616-2.3809-4.235z"/>
      <path d="m53.021 193.23c-1.4806 0.44-2.9512 0.11-3.2213-0.649-0.3201-0.899 0.8604-2.287 2.6411-2.996-0.3302 1.318-0.4702 2.586 0.5802 3.645z"/>
    </g>
    <g fill="#041C42">
      <path d="m276.23 115.26c1.44 0.68 2.691 1.379 3.721 2.427 1.931 1.958 2.911 4.315 2.921 7.052 0.02 7.231 0 14.462 0 21.693v62.594c0 6.222-4.261 10.477-10.494 10.477h-101.06c-6.062 0-10.374-4.295-10.374-10.347v-83.918c0-4.574 2.051-7.83 6.222-9.758 0.1-0.04 0.18-0.12 0.381-0.27-1.441-0.659-2.712-1.398-3.762-2.477-1.821-1.877-2.801-4.125-2.831-6.711-0.05-5.154-0.06-10.308 0-15.462 0.05-5.4234 4.532-9.7181 10.114-9.7181 15.616-0.01 31.232 0 46.849 0h54.461c6.233 0 10.494 4.2448 10.494 10.477 0 4.6543-0.01 9.3084 0 13.963 0.02 4.714-2.22 7.93-6.652 9.987l0.01-0.01z"/>
      <path d="m221.83 247.44h-15.476c-2.611 0-4.442-1.658-4.432-4.006 0.01-2.337 1.831-3.965 4.472-3.965h31.082c2.611 0 4.442 1.658 4.432 4.005-0.01 2.338-1.831 3.966-4.472 3.966h-15.606z"/>
      <path d="m233.9 65.87c-2.991-0.0199-5.422-2.2972-5.372-5.0438 0.05-2.7866 2.471-4.9639 5.492-4.924 2.911 0.04 5.312 2.2772 5.332 4.9839s-2.491 5.0039-5.452 4.9939v-0.01z"/>
      <path d="m193.93 60.846c0-1.3683 0.03-2.7366-0.01-4.1049-0.02-0.6093 0.09-0.8989 0.8-0.859 1.081 0.0599 2.161-0.02 3.242 0.03 2.011 0.0998 3.501 1.618 3.511 3.4957 0 1.8577-1.51 3.3559-3.531 3.4758-1.811 0.1098-1.871 0.1098-1.811 1.9276 0.03 0.8789-0.24 1.1087-1.11 1.1087-0.831 0-1.171-0.1599-1.111-1.0687 0.09-1.3184 0.02-2.6568 0.02-3.9852v-0.02z"/>
      <path d="m213.86 65.869c-2.971 0.02-5.172-1.5781-5.732-3.8653-0.54-2.2073 0.53-4.4146 2.651-5.4733 2.261-1.1286 5.182-0.6492 6.662 1.0587 0.331 0.3796 0.541 0.6293-0.18 0.829-0.78 0.2197-1.41 0.5493-2.27-0.0699-1.281-0.9289-3.162-0.4994-4.162 0.6991-0.89 1.0687-0.931 2.497-0.11 3.5557 0.96 1.2485 2.691 1.608 4.161 0.9289 0.401-0.1898 0.681-0.7491 1.171-0.5793 0.57 0.1997 1.461 0.1598 1.621 0.7191 0.15 0.5293-0.621 0.8789-1.081 1.2085-0.94 0.6792-2.011 0.9588-2.741 0.9888h0.01z"/>
      <path d="m245.46 55.912c0.8-0.0799 1.48 0.0499 2.071 0.3196 0.35 0.1598 1.27 0 0.89 0.9289-0.27 0.6592-0.49 1.3883-1.441 0.7391-0.17-0.1099-0.39-0.1498-0.59-0.1998-1.07-0.2497-2.151 0.1498-2.181 0.869-0.05 1.0287 0.811 1.2484 1.571 1.4482 0.57 0.1498 1.12 0.2896 1.631 0.5793 1.87 1.0687 2.03 3.0263 0.34 4.3647-1.551 1.2285-4.202 1.1885-5.682-0.0799-0.321-0.2797-0.681-0.5494-0.201-0.9988 0.351-0.3196 0.501-1.0587 1.231-0.4894 0.72 0.5693 1.541 0.799 2.461 0.6092 0.51-0.1098 0.96-0.3196 1.07-0.8989 0.11-0.6192-0.32-0.9089-0.8-1.1086-0.49-0.2098-1.02-0.3396-1.531-0.5094-1.65-0.5493-2.471-1.5381-2.331-2.7966 0.181-1.598 1.281-2.6368 2.992-2.7966 0.21-0.0199 0.42 0 0.5 0v0.02z"/>
      <path d="m223.09 55.892c1.21 0 2.421 0.0499 3.621-0.02 0.821-0.0499 0.751 0.4395 0.701 0.9389-0.04 0.4594 0.29 1.1286-0.681 1.0887-0.81-0.03-1.92-0.3896-2.391 0.1598-0.53 0.6392-0.15 1.7478-0.17 2.6467-0.03 1.3684-0.07 2.7467 0.01 4.115 0.06 0.9189-0.28 1.0587-1.11 1.0787-0.911 0.02-1.101-0.2996-1.071-1.1386 0.06-1.9476-0.02-3.9053 0.04-5.8629 0.02-0.799-0.18-1.1585-1.02-1.0287-0.33 0.0499-0.67-0.04-1 0.02-1.071 0.1797-1.361-0.2697-1.281-1.2885 0.05-0.6492 0.3-0.7391 0.84-0.7191 1.161 0.03 2.331 0 3.502 0l0.01 0.01z"/>
      <path d="m205.84 60.916c0 1.4083-0.04 2.8165 0.01 4.2248 0.04 1.0388-0.68 0.6992-1.18 0.7291-0.51 0.03-1.05 0.1798-1.03-0.7291 0.06-2.8565 0.05-5.713 0-8.5695-0.01-0.849 0.5-0.7191 0.96-0.6592 0.47 0.0599 1.25-0.3995 1.24 0.6592-0.03 1.4482 0 2.8964 0 4.3447z"/>
    </g>
    <g fill="#F6C254">
      <path d="m221.85 184.1c-19.528 0-39.045 0-58.573 0.03-1.071 0-1.371-0.209-1.371-1.338 0.05-10.467 0.04-20.945 0-31.412 0-0.989 0.26-1.218 1.231-1.218 39.175 0.03 78.341 0.03 117.52 0 0.95 0 1.24 0.2 1.24 1.208-0.04 10.517-0.04 21.025 0 31.542 0 0.989-0.26 1.218-1.23 1.218-19.608-0.03-39.216-0.02-58.824-0.02l0.01-0.01z"/>
      <path d="m221.78 149.18c-19.478 0-38.965 0-58.443 0.03-1.121 0-1.431-0.26-1.421-1.409 0.06-7.52 0.03-15.041 0.03-22.562 0-5.663 3.802-9.478 9.454-9.478h101.03c5.652 0 9.444 3.815 9.454 9.478 0 7.561-0.02 15.122 0.03 22.692 0 1.049-0.27 1.279-1.301 1.279-19.607-0.03-39.215-0.02-58.823-0.02l-0.01-0.01z"/>
      <path d="m221.98 185.09c19.528 0 39.046 0.01 58.574-0.03 1.09 0 1.36 0.25 1.36 1.349-0.05 7.56-0.03 15.121-0.03 22.692 0 5.573-3.831 9.408-9.393 9.408h-101.16c-5.562 0-9.383-3.845-9.383-9.418 0-7.601 0.02-15.212-0.03-22.812 0-1.009 0.29-1.209 1.24-1.209 19.608 0.03 39.216 0.02 58.823 0.02z"/>
    </g>
    <path d="m221.78 114.76h-50.21c-5.852 0-9.624-3.746-9.624-9.548v-14.093c0-5.4034 3.872-9.2787 9.264-9.2787h101.42c5.382 0 9.244 3.8952 9.254 9.2986v14.212c0 5.574-3.831 9.409-9.394 9.409h-50.71z" fill="#fff"/>
    <path d="m221.84 246.45h-15.476c-2.131 0-3.481-1.209-3.451-3.056 0.03-1.788 1.37-2.927 3.451-2.927h31.072c2.131 0 3.482 1.209 3.452 3.057-0.03 1.787-1.371 2.926-3.452 2.926h-15.596z" fill="#fff"/>
    <g fill="#041C42">
      <path d="m179.47 171.6c1.63 0 2.911 0.06 4.181-0.02 0.881-0.049 0.901 0.39 0.921 1.049 0.02 0.729-0.15 1.029-0.961 0.999-1.911-0.06-3.831 0-5.742-0.04-0.43 0-1.11 0.34-1.271-0.34-0.14-0.619-0.13-1.278 0.451-1.837 1.18-1.119 2.281-2.307 3.411-3.466 0.49-0.509 0.97-1.039 1.21-1.718 0.521-1.488-0.26-2.387-1.82-2.107-0.54 0.099-1.021 0.359-1.441 0.699-0.42 0.339-0.67 0.269-1.02-0.12-0.931-1.029-0.931-1.119 0.28-1.878 1.32-0.829 2.761-0.959 4.212-0.619 2.06 0.489 2.931 2.647 1.94 4.674-0.73 1.498-2.07 2.467-3.211 3.616-0.29 0.289-0.6 0.569-1.14 1.088v0.02z"/>
      <path d="m187.36 173.85c-0.93-0.1-1.42-0.58-1.38-1.459 0.04-0.848 0.61-1.248 1.41-1.208 0.871 0.04 1.361 0.499 1.311 1.428-0.05 0.889-0.63 1.159-1.351 1.239h0.01z"/>
      <path d="m263.24 169.9h-1.251c-0.39 0.01-0.63-0.089-0.62-0.549 0-0.399 0.12-0.629 0.56-0.629h2.741c0.391 0 0.611 0.15 0.631 0.579 0.03 0.54-0.29 0.609-0.711 0.599-0.46-0.01-0.91 0-1.37 0h0.02z"/>
      <path d="m196.3 169.9h-1.371c-0.35 0-0.53-0.119-0.52-0.509 0.01-0.359 0.03-0.669 0.5-0.669h2.861c0.451 0 0.541 0.27 0.541 0.659 0 0.37-0.18 0.519-0.531 0.519h-1.49 0.01z"/>
      <path d="m258.17 169.9h-1.371c-0.34 0-0.56-0.099-0.56-0.489 0-0.36 0.05-0.679 0.51-0.679h2.861c0.45 0 0.52 0.26 0.54 0.639 0.02 0.47-0.23 0.549-0.61 0.539-0.46-0.01-0.91 0-1.37 0v-0.01z"/>
      <path d="m216.97 169.9c-0.41 0-0.83-0.01-1.24 0-0.43 0.01-0.73-0.06-0.71-0.599 0.02-0.419 0.22-0.589 0.62-0.589h2.731c0.44 0 0.55 0.22 0.56 0.619 0.01 0.45-0.19 0.569-0.6 0.559-0.46-0.02-0.91 0-1.371 0l0.01 0.01z"/>
      <path d="m222.09 169.9h-1.37c-0.331 0-0.561-0.079-0.551-0.479 0-0.36 0.01-0.689 0.491-0.689h2.871c0.42 0 0.57 0.23 0.58 0.629 0.01 0.48-0.27 0.539-0.64 0.539h-1.371-0.01z"/>
      <path d="m232.41 169.9h-1.25c-0.42 0.01-0.73-0.059-0.71-0.599 0.02-0.429 0.24-0.579 0.64-0.579h2.741c0.44 0 0.55 0.22 0.56 0.629 0.01 0.46-0.23 0.559-0.62 0.549-0.46-0.01-0.91 0-1.371 0h0.01z"/>
      <path d="m237.52 169.9h-1.37c-0.36 0-0.53-0.129-0.52-0.509 0-0.359 0.04-0.669 0.51-0.669h2.861c0.45 0 0.54 0.28 0.54 0.659 0 0.37-0.18 0.519-0.53 0.509h-1.491v0.01z"/>
      <path d="m206.57 169.9h-1.25c-0.37 0-0.64-0.059-0.63-0.539 0-0.409 0.15-0.629 0.57-0.629h2.871c0.45 0 0.5 0.319 0.5 0.689 0 0.41-0.24 0.469-0.56 0.469h-1.501v0.01z"/>
      <path d="m247.86 169.9h-1.37c-0.32 0-0.56-0.069-0.56-0.479 0-0.369 0.06-0.679 0.51-0.679h2.871c0.43 0 0.56 0.23 0.56 0.629 0.01 0.48-0.27 0.539-0.64 0.529h-1.371z"/>
      <path d="m227.2 169.9h-1.371c-0.39 0-0.49-0.209-0.48-0.549 0-0.309 0.05-0.599 0.45-0.599 0.95 0 1.911 0 2.861-0.01 0.45 0 0.53 0.26 0.54 0.649 0.02 0.49-0.27 0.529-0.64 0.519h-1.37l0.01-0.01z"/>
      <path d="m201.48 169.89h-1.37c-0.37 0-0.51-0.17-0.51-0.53 0-0.329 0.08-0.589 0.47-0.589h2.871c0.37 0 0.48 0.21 0.5 0.549 0.02 0.44-0.16 0.6-0.58 0.58-0.46-0.02-0.91 0-1.371 0l-0.01-0.01z"/>
      <path d="m211.77 169.89h-1.25c-0.371 0-0.641-0.05-0.631-0.53 0-0.419 0.15-0.609 0.581-0.599 0.87 0.01 1.74 0 2.621 0 0.38 0 0.62 0.1 0.64 0.549 0.03 0.55-0.3 0.59-0.71 0.58-0.421-0.01-0.831 0-1.251 0z"/>
      <path d="m242.69 169.89h-1.371c-0.38 0-0.5-0.2-0.49-0.55 0-0.339 0.11-0.569 0.49-0.569h2.871c0.39 0 0.47 0.23 0.48 0.569 0 0.34-0.08 0.56-0.47 0.56h-1.5l-0.01-0.01z"/>
      <path d="m253.02 169.89h-1.371c-0.36 0-0.52-0.13-0.52-0.51 0-0.399 0.11-0.629 0.56-0.619 0.91 0.01 1.831 0 2.741 0 0.45 0 0.54 0.27 0.53 0.649 0 0.4-0.24 0.48-0.56 0.47h-1.37l-0.01 0.01z"/>
      <path d="m180.14 129.96c-0.511 0.43-0.881 0.7-1.201 1.009-0.53 0.5-0.9 0.769-1.531-0.02-0.65-0.799-0.15-1.029 0.341-1.418 0.79-0.609 1.6-1.189 2.331-1.868 0.62-0.569 1.32-0.389 2-0.379 0.501 0 0.421 0.429 0.421 0.739 0 3.316-0.02 6.632 0.02 9.948 0 1.038-0.711 0.699-1.201 0.699-0.5 0-1.2 0.319-1.19-0.719 0.04-2.597 0.01-5.204 0.01-8.001v0.01z"/>
      <path d="m187.39 138.93c-0.92-0.08-1.43-0.539-1.4-1.428 0.02-0.849 0.57-1.258 1.38-1.238 0.861 0.02 1.381 0.459 1.351 1.398-0.03 0.889-0.59 1.178-1.321 1.278l-0.01-0.01z"/>
      <path d="m232.48 134.98h-1.37c-0.36 0-0.65-0.04-0.66-0.519 0-0.5 0.23-0.659 0.69-0.659 0.87 0 1.751 0.02 2.621 0 0.49 0 0.64 0.209 0.63 0.679 0 0.499-0.32 0.499-0.67 0.499h-1.251 0.01z"/>
      <path d="m237.52 134.98h-1.37c-0.35 0-0.53-0.11-0.52-0.499 0.01-0.36 0.03-0.669 0.5-0.669h2.861c0.44 0 0.54 0.269 0.55 0.649 0 0.469-0.28 0.529-0.65 0.529h-1.371v-0.01z"/>
      <path d="m258.22 134.98h-1.491c-0.38 0-0.5-0.209-0.49-0.559 0-0.32 0.09-0.599 0.46-0.609 0.99-0.02 1.991-0.01 2.981 0 0.49 0 0.45 0.369 0.46 0.699 0.01 0.409-0.23 0.469-0.56 0.459h-1.37l0.01 0.01z"/>
      <path d="m263.36 134.98h-1.501c-0.39 0-0.47-0.229-0.47-0.569 0-0.32 0.05-0.589 0.45-0.599 1.001 0 2.001-0.01 2.991 0 0.361 0 0.481 0.249 0.491 0.579 0.02 0.439-0.19 0.589-0.601 0.579-0.46-0.01-0.91 0-1.37 0l0.01 0.01z"/>
      <path d="m222.11 134.98c-0.46 0-0.92-0.01-1.37 0-0.43 0.01-0.581-0.17-0.571-0.589 0-0.43 0.201-0.589 0.601-0.589h2.741c0.41 0 0.58 0.199 0.59 0.619 0.01 0.459-0.24 0.559-0.62 0.559h-1.371z"/>
      <path d="m216.9 134.98h-1.24c-0.38 0-0.651-0.07-0.641-0.539 0-0.39 0.13-0.639 0.571-0.639h2.861c0.48 0 0.47 0.339 0.48 0.689 0.01 0.399-0.2 0.489-0.54 0.489h-1.491z"/>
      <path d="m196.31 134.98h-1.371c-0.34 0-0.54-0.1-0.53-0.489 0.01-0.35 0.01-0.679 0.49-0.679h2.861c0.441 0 0.551 0.249 0.561 0.639 0 0.469-0.27 0.539-0.641 0.539h-1.37v-0.01z"/>
      <path d="m206.63 134.98h-1.37c-0.32 0-0.56-0.08-0.56-0.479 0-0.37 0.06-0.669 0.51-0.679h2.871c0.43 0 0.55 0.239 0.56 0.639 0.01 0.489-0.28 0.529-0.64 0.529h-1.371v-0.01z"/>
      <path d="m247.81 134.98h-1.12c-0.36 0-0.761 0.06-0.771-0.529 0-0.51 0.251-0.649 0.691-0.639 0.87 0 1.75 0.01 2.621 0 0.48 0 0.65 0.229 0.63 0.689-0.01 0.509-0.35 0.479-0.69 0.479h-1.371 0.01z"/>
      <path d="m227.25 134.98h-1.37c-0.35 0-0.53-0.12-0.53-0.499 0-0.38 0.07-0.659 0.53-0.659h2.741c0.41 0 0.59 0.179 0.59 0.599 0 0.439-0.18 0.589-0.59 0.569-0.46-0.02-0.91 0-1.371 0v-0.01z"/>
      <path d="m252.96 134.98c-0.42 0-0.831-0.01-1.251 0-0.42 0.02-0.6-0.129-0.59-0.569 0-0.449 0.23-0.569 0.62-0.559 0.871 0 1.751 0.01 2.621 0 0.41 0 0.591 0.16 0.601 0.589 0 0.469-0.251 0.549-0.631 0.539-0.46-0.01-0.91 0-1.37 0z"/>
      <path d="m242.67 134.98c-0.421 0-0.831-0.01-1.251 0-0.41 0.01-0.61-0.13-0.6-0.569 0.01-0.449 0.25-0.559 0.63-0.559 0.87 0 1.751 0.01 2.621 0 0.42 0 0.58 0.169 0.59 0.599 0 0.469-0.24 0.549-0.62 0.539-0.46-0.01-0.91 0-1.37 0v-0.01z"/>
      <path d="m211.76 134.98h-1.37c-0.381 0-0.501-0.179-0.491-0.539 0-0.32 0.06-0.589 0.461-0.589h2.871c0.37 0 0.49 0.209 0.51 0.549 0.02 0.439-0.18 0.589-0.59 0.569-0.46-0.02-0.911 0-1.371 0l-0.02 0.01z"/>
      <path d="m201.43 134.98h-1.25c-0.32 0-0.57-0.06-0.58-0.459 0-0.37 0.06-0.659 0.52-0.659h2.741c0.44 0 0.56 0.199 0.57 0.609 0 0.479-0.27 0.529-0.64 0.519h-1.371l0.01-0.01z"/>
      <path d="m181.97 202.51c2.041 0.849 2.601 1.608 2.441 3.136-0.16 1.538-1.32 2.607-3.111 2.906-0.95 0.16-1.891 0.17-2.851 0.03-2.021-0.299-2.031-0.289-1.901-2.437 1.231 0.32 2.421 0.799 3.712 0.6 0.7-0.11 1.28-0.38 1.54-1.089 0.18-0.499 0.17-0.999-0.2-1.408-0.63-0.69-1.5-0.68-2.311-0.66-0.73 0.02-1.04-0.139-1.02-0.958 0.02-0.71 0.24-0.969 0.94-0.899 0.63 0.06 1.241-0.05 1.821-0.32s0.72-0.759 0.67-1.348c-0.05-0.62-0.39-0.979-1.01-1.089-0.851-0.15-1.681-0.04-2.411 0.4-1.051 0.629-1.031-0.46-1.391-0.849-0.56-0.6 0.13-0.779 0.47-0.949 1.481-0.709 3.042-0.809 4.612-0.4 1.121 0.29 1.971 0.929 2.101 2.168 0.13 1.238-0.36 2.177-1.48 2.766-0.18 0.09-0.351 0.2-0.631 0.36l0.01 0.04z"/>
      <path d="m187.39 208.76c-0.92-0.08-1.43-0.539-1.4-1.428 0.02-0.849 0.57-1.259 1.38-1.239 0.861 0.02 1.381 0.46 1.351 1.399-0.03 0.889-0.6 1.178-1.321 1.278l-0.01-0.01z"/>
      <path d="m222.09 204.82h-1.37c-0.331 0-0.561-0.07-0.551-0.479 0-0.36 0.01-0.69 0.491-0.69h2.871c0.42 0 0.57 0.22 0.58 0.63 0.01 0.479-0.27 0.549-0.64 0.539h-1.371-0.01z"/>
      <path d="m217 204.82h-1.491c-0.38 0-0.5-0.2-0.49-0.549 0-0.32 0.08-0.6 0.46-0.61 0.991-0.02 1.991-0.01 2.982 0 0.49 0 0.45 0.36 0.47 0.7 0.01 0.409-0.23 0.469-0.55 0.469h-1.371l-0.01-0.01z"/>
      <path d="m196.27 204.82c-0.41 0-0.83-0.01-1.241 0-0.39 0.01-0.63-0.07-0.61-0.539 0.01-0.38 0.09-0.64 0.54-0.64 0.911 0 1.821 0.01 2.731 0 0.491 0 0.651 0.24 0.641 0.69-0.01 0.489-0.34 0.489-0.691 0.489h-1.37z"/>
      <path d="m237.58 204.82c-0.46 0-0.911-0.01-1.371 0-0.43 0.02-0.59-0.16-0.57-0.579 0.02-0.32 0.06-0.59 0.46-0.59 0.991 0 1.991-0.01 2.981 0 0.37 0 0.461 0.27 0.471 0.6 0.02 0.439-0.201 0.579-0.611 0.569-0.46-0.01-0.91 0-1.37 0h0.01z"/>
      <path d="m258.27 204.82h-1.491c-0.35 0-0.53-0.14-0.53-0.509 0-0.38 0.09-0.66 0.54-0.66h2.861c0.47 0 0.5 0.3 0.51 0.67 0 0.379-0.16 0.519-0.51 0.509h-1.37l-0.01-0.01z"/>
      <path d="m263.42 203.65h1.37c0.441 0 0.531 0.289 0.531 0.669 0 0.389-0.22 0.499-0.551 0.499h-2.741c-0.36 0-0.64-0.03-0.64-0.519 0-0.49 0.19-0.679 0.66-0.659 0.46 0.02 0.911 0 1.371 0v0.01z"/>
      <path d="m232.36 204.82h-1.25c-0.36 0-0.65-0.04-0.66-0.519 0-0.5 0.23-0.66 0.69-0.66 0.87 0 1.751 0.01 2.621 0 0.49 0 0.64 0.21 0.64 0.68 0 0.499-0.32 0.499-0.67 0.499h-1.371z"/>
      <path d="m247.83 204.82h-1.37c-0.34 0-0.54-0.12-0.53-0.509 0-0.39 0.1-0.65 0.54-0.65h2.741c0.47 0 0.66 0.19 0.66 0.67 0 0.499-0.32 0.499-0.67 0.499h-1.371v-0.01z"/>
      <path d="m206.6 204.82h-1.37c-0.34 0-0.54-0.12-0.53-0.509 0-0.39 0.1-0.65 0.54-0.65h2.741c0.47 0 0.66 0.19 0.66 0.67 0 0.499-0.32 0.499-0.67 0.499h-1.371v-0.01z"/>
      <path d="m227.27 204.82h-1.371c-0.33 0-0.56-0.08-0.55-0.479 0-0.36 0.03-0.68 0.5-0.68h2.861c0.47 0 0.48 0.34 0.49 0.69 0 0.409-0.24 0.469-0.56 0.469h-1.37z"/>
      <path d="m253.02 204.81h-1.371c-0.36 0-0.52-0.13-0.52-0.509 0-0.4 0.11-0.63 0.56-0.62 0.91 0.01 1.831 0 2.741 0 0.45 0 0.54 0.27 0.53 0.65 0 0.399-0.24 0.479-0.56 0.469h-1.37l-0.01 0.01z"/>
      <path d="m242.72 204.81h-1.25c-0.37 0-0.651-0.05-0.641-0.529 0-0.42 0.171-0.609 0.591-0.599h2.621c0.38 0 0.61 0.099 0.63 0.549 0.02 0.559-0.29 0.599-0.71 0.579-0.42-0.01-0.831 0-1.251 0h0.01z"/>
      <path d="m211.73 204.81c-0.42 0-0.83-0.01-1.25 0-0.42 0.02-0.601-0.13-0.591-0.569 0-0.45 0.231-0.57 0.621-0.56 0.87 0 1.75 0.01 2.621 0 0.41 0 0.59 0.16 0.6 0.59 0 0.469-0.25 0.549-0.63 0.539-0.46-0.01-0.911 0-1.371 0z"/>
      <path d="m201.49 204.81h-1.25c-0.371 0-0.651-0.05-0.641-0.529 0-0.42 0.17-0.609 0.591-0.599h2.621c0.38 0 0.61 0.099 0.63 0.549 0.02 0.559-0.29 0.599-0.71 0.579-0.421-0.01-0.831 0-1.251 0h0.01z"/>
      <path d="m181.44 95.104c-0.04 1.4483-0.48 2.5669-1.03 3.6356-1.171 2.3174-2.781 4.3144-4.492 6.2424-0.25 0.29-0.47 0.589-0.871 0.13-2.2-2.497-4.361-5.044-5.362-8.2901-0.73-2.3771-0.02-4.4645 1.841-6.0526 1.941-1.658 4.202-1.9576 6.513-0.849 2.221 1.0687 3.281 2.9564 3.391 5.1737l0.01 0.01z"/>
      <path d="m255.67 99.538c-0.4-0.3096-1.461 0.5995-1.471-0.4894-0.01-1.0187 1.011-0.3695 1.541-0.5093 0.39-0.0999 0.83-0.01 1.24-0.02 0.35 0 0.531 0.1098 0.541 0.4994 0 0.3695-0.13 0.5393-0.501 0.5293-0.42-0.01-0.83 0-1.35 0v-0.01z"/>
      <path d="m251.36 99.538c-0.41 0-0.82-0.01-1.231 0-0.36 0.01-0.51-0.1198-0.51-0.4894 0-0.3496 0.08-0.5393 0.48-0.5293 0.781 0.01 1.561 0.01 2.341 0 0.4 0 0.61 0.1098 0.59 0.5593-0.02 0.3995-0.23 0.4694-0.56 0.4594h-1.11z"/>
      <path d="m260.21 99.549c-0.41-0.3496-1.56 0.6094-1.52-0.5693 0.03-0.9888 1.08-0.3995 1.61-0.3995 0.551 0 1.491-0.6093 1.681 0.5193 0.07 0.4295-0.02 0.4495-1.771 0.4495z"/>
      <path d="m264.84 99.538c-0.37 0-0.75-0.01-1.12 0-0.39 0.02-0.61-0.0599-0.6-0.5294 0-0.5093 0.3-0.4894 0.65-0.4894h2.111c0.33 0 0.66-0.0399 0.69 0.4695 0.03 0.5892-0.35 0.5493-0.73 0.5493h-0.991-0.01z"/>
      <path d="m269.24 99.538c-0.41-0.3396-1.541 0.5895-1.521-0.5494 0.02-0.9987 1.041-0.2996 1.591-0.4494 0.38-0.1099 0.82-0.02 1.23-0.02 0.331 0 0.531 0.1099 0.531 0.4894 0 0.3696-0.13 0.5294-0.501 0.5294h-1.33z"/>
      <path d="m215.22 98.52c0.41 0 0.82 0.01 1.23 0 0.38-0.01 0.48 0.1698 0.48 0.5193 0 0.3696-0.14 0.5094-0.5 0.4994-0.74-0.01-1.48 0-2.221 0-0.32 0-0.66 0.0699-0.69-0.4494-0.03-0.5593 0.3-0.5793 0.71-0.5693h0.991z"/>
      <path d="m210.59 99.538c-0.411-0.2996-1.481 0.5795-1.501-0.4894-0.02-1.0387 1.02-0.3696 1.561-0.5094 0.39-0.0999 0.83 0 1.24-0.02 0.36-0.01 0.52 0.1099 0.52 0.4994 0 0.3596-0.09 0.5494-0.48 0.5294-0.41-0.02-0.83 0-1.35 0l0.01-0.01z"/>
      <path d="m206.07 99.538c-0.43-0.2797-1.491 0.5295-1.521-0.4594-0.03-1.0987 1.071-0.3896 1.641-0.5494 0.35-0.0998 0.74 0 1.11-0.0199 0.381-0.01 0.621 0.0399 0.621 0.5193 0 0.4994-0.28 0.5094-0.641 0.4994h-1.21v0.01z"/>
      <path d="m201.78 99.538h-1.12c-0.33 0-0.66 0.0299-0.67-0.4795-0.01-0.4794 0.24-0.5393 0.62-0.5393 0.75 0 1.49 0.02 2.241 0 0.41-0.01 0.59 0.0899 0.59 0.5493 0 0.5194-0.33 0.4795-0.66 0.4695h-0.991-0.01z"/>
      <path d="m197.22 99.548h-1.11c-0.37 0-0.63-0.0499-0.62-0.5294 0.01-0.4993 0.32-0.4894 0.66-0.4894h2.101c0.33 0 0.65-0.0399 0.67 0.4695 0.02 0.5793-0.32 0.5593-0.71 0.5493h-0.991z"/>
      <path d="m192.5 99.538c-0.401-0.3097-1.481 0.5895-1.471-0.5094 0-1.0487 1.03-0.3296 1.581-0.4894 0.38-0.1099 0.83 0 1.24-0.02 0.43-0.02 0.58 0.1498 0.57 0.5793s-0.27 0.4495-0.57 0.4395h-1.34-0.01z"/>
      <path d="m188.06 99.549c-0.42-0.3196-1.551 0.5593-1.531-0.5494 0.01-0.9887 1.041-0.2896 1.591-0.4494 0.34-0.0999 0.74-0.02 1.111-0.02 0.34 0 0.65-0.01 0.66 0.4894 0.01 0.4794-0.25 0.5394-0.62 0.5294h-1.211z"/>
      <path d="m242.09 99.538c-0.39-0.2797-1.44 0.5495-1.43-0.5393 0.01-0.9888 0.97-0.2997 1.48-0.4495 0.381-0.1099 0.821 0 1.241-0.03 0.4-0.0199 0.61 0.0999 0.59 0.5494-0.01 0.3995-0.22 0.4794-0.55 0.4694h-1.341 0.01z"/>
      <path d="m246.64 99.538c-0.39-0.2996-1.45 0.5795-1.45-0.4994 0-0.9988 1.01-0.3496 1.55-0.4894 0.39-0.0999 0.82 0 1.231-0.02 0.37-0.01 0.5 0.1399 0.5 0.5094 0 0.3696-0.13 0.5194-0.5 0.5094-0.411-0.01-0.821 0-1.331 0v-0.01z"/>
      <path d="m237.96 98.53c0.4 0.2797 1.471-0.5393 1.441 0.5294-0.03 1.0088-1.041 0.3096-1.591 0.4694-0.34 0.0999-0.74 0-1.11 0.02-0.38 0.02-0.62-0.0499-0.61-0.5294 0-0.5093 0.31-0.4894 0.65-0.4894h1.22z"/>
      <path d="m233.45 98.53c0.4 0.2796 1.451-0.5394 1.431 0.5193-0.02 0.9989-1.031 0.3196-1.571 0.4695-0.34 0.0998-0.74 0-1.11 0.0199-0.381 0.02-0.611-0.0499-0.611-0.5293 0-0.4994 0.29-0.4994 0.641-0.4894h1.21l0.01 0.01z"/>
      <path d="m228.97 98.53c0.39 0.2796 1.451-0.5494 1.421 0.5593-0.03 0.9592-0.981 0.2896-1.491 0.4395-0.38 0.1098-0.82 0-1.24 0.0299-0.41 0.02-0.6-0.1198-0.58-0.5593 0.01-0.4095 0.23-0.4694 0.56-0.4594h1.34l-0.01-0.01z"/>
      <path d="m224.12 99.538c-0.4-0.3097-1.45 0.5795-1.47-0.4895-0.01-1.0087 1-0.3695 1.54-0.5093 0.39-0.0999 0.82 0 1.231-0.02 0.35-0.01 0.52 0.1099 0.51 0.4894 0 0.3496-0.09 0.5393-0.48 0.5294-0.411-0.02-0.821 0-1.331 0z"/>
      <path d="m219.62 99.538c-0.401-0.3097-1.451 0.5795-1.471-0.4895-0.01-1.0087 1-0.3695 1.541-0.5093 0.39-0.0999 0.82 0 1.23-0.02 0.35-0.01 0.52 0.1099 0.51 0.4894 0 0.3496-0.09 0.5393-0.48 0.5294-0.41-0.02-0.82 0-1.33 0z"/>
    </g>
    <path d="m170.42 95.174c0.16-1.9776 1.05-3.5157 2.941-4.3747 1.931-0.8789 3.761-0.6192 5.342 0.7591 1.491 1.2984 2.091 2.9564 1.521 4.934-0.811 2.7866-2.651 4.9436-4.412 7.1416-0.21 0.269-0.42 0.379-0.7 0.05-1.921-2.308-3.792-4.6248-4.602-7.5912-0.08-0.2796-0.06-0.5792-0.1-0.9088l0.01-0.01z" fill="#fff"/>
    <path d="m178.45 95.334c-0.02 1.638-1.381 2.9663-3.041 2.9663-1.641 0-3.001-1.3683-2.991-3.0063 0-1.7179 1.37-3.0363 3.091-2.9963 1.67 0.0399 2.951 1.3683 2.931 3.0363h0.01z" fill="#041C42"/>
    <path d="m177.44 95.394c-0.06 1.0787-0.98 1.9277-2.06 1.8977-1.131-0.0299-2.021-0.9988-1.961-2.1274 0.06-1.1386 1.02-1.9576 2.191-1.8677 1.1 0.0899 1.89 0.9888 1.83 2.0974z" fill="#FDFDFD"/>
  </g>
  <defs>
    <clipPath id="clip0_707_4261">
      <rect width="320" height="298" fill="#fff"/>
    </clipPath>
  </defs>
</svg>
