<svg width="320" height="298" viewBox="0 0 320 298" fill="none" xmlns="http://www.w3.org/2000/svg">
<g clip-path="url(#clip0_707_5589)">
<rect width="320" height="298" fill="#F6C254"/>
<path d="M0 297V0C105.56 0 214.44 0 320 0C320 98.3477 319.921 198.363 319.921 296.711C319.841 297.32 319.341 297.35 318.901 297.41C318.411 297.48 317.9 297.45 317.4 297.45C248.584 297.45 179.768 297.45 110.952 297.45C108.251 297.45 108.021 297.29 108.191 294.604C108.541 289.18 108.851 283.757 109.191 278.324C109.411 274.888 109.532 271.442 109.762 268.007C110.082 263.283 110.362 258.568 110.652 253.844C110.862 250.528 111.072 247.213 111.232 243.897C111.412 240.331 111.702 236.776 111.902 233.21C112.072 230.264 112.293 227.327 112.423 224.391C112.623 219.707 113.203 215.033 112.983 210.328C112.783 206.144 112.503 201.959 112.333 197.774C112.213 194.828 111.902 191.891 112.002 188.935C112.062 187.057 112.833 186.498 114.683 187.047C116.564 187.607 118.295 188.556 120.045 189.405C124.427 191.502 128.959 193.13 133.821 193.629C139.213 194.189 144.235 192.98 148.906 190.263C153.898 187.357 157.72 183.222 161.081 178.618C162.502 176.67 163.842 174.663 165.003 172.545C165.743 171.197 166.913 170.248 167.994 169.22C168.934 168.321 169.614 168.55 169.894 169.869C170.365 172.146 170.725 174.443 171.135 176.73C171.625 179.467 172.105 182.213 172.595 184.95C172.735 185.719 172.986 186.009 173.836 185.849C175.997 185.439 178.168 185.05 180.348 184.71C181.269 184.571 181.689 184.231 181.489 183.142C180.418 177.22 179.378 171.287 178.338 165.354C177.867 162.658 177.407 159.951 176.907 157.255C176.747 156.396 176.877 155.627 177.297 154.857C178.548 152.56 179.718 150.213 180.809 147.826C181.369 146.608 181.739 146.408 183.069 146.698C187.601 147.666 192.183 148.196 196.815 148.156C200.386 148.126 203.967 148.156 207.509 147.467C204.217 148.026 200.886 148.036 197.575 148.106C194.794 148.166 192.003 147.996 189.242 147.636C187.511 147.417 185.78 147.157 184.07 146.788C182.009 146.338 181.739 145.879 182.559 143.981C183.5 141.804 184.39 139.606 185.23 137.389C185.89 135.631 186.381 133.834 186.791 132.006C186.821 131.886 186.881 131.766 186.871 131.646C186.831 131.057 187.171 130.258 186.401 129.998C185.71 129.769 185.44 130.508 185.13 130.967C184.64 131.686 184.32 132.515 183.9 133.274C183.61 133.794 183.379 134.713 182.719 134.503C182.029 134.283 182.359 133.414 182.479 132.835C182.779 131.457 183.059 130.068 183.329 128.68C183.68 126.882 183.99 125.085 183.9 123.247C183.88 122.717 183.98 122.068 183.269 121.918C182.529 121.759 182.289 122.398 182.029 122.917C181.669 123.626 181.529 124.415 181.189 125.134C181.039 125.454 180.879 125.933 180.438 125.824C180.038 125.724 179.998 125.244 179.998 124.875C179.998 124.046 180.278 123.217 180.098 122.398C179.988 121.869 180.008 121.099 179.288 121.01C178.668 120.93 178.398 121.549 178.138 122.008C177.647 122.877 177.367 123.846 176.987 124.765C176.837 125.134 176.677 125.684 176.187 125.564C175.747 125.464 175.697 124.915 175.717 124.505C175.747 123.756 175.787 123.017 175.627 122.268C175.567 121.968 175.456 121.689 175.126 121.619C174.796 121.549 174.586 121.769 174.406 122.008C174.126 122.368 173.926 122.777 173.726 123.197C173.376 123.906 173.096 124.645 172.755 125.354C172.595 125.684 172.435 126.113 172.005 126.083C171.515 126.053 171.365 125.584 171.275 125.184C170.785 122.907 170.385 120.62 170.054 118.313C169.894 117.194 170.365 116.735 171.765 116.495C174.676 116.006 177.577 115.456 180.488 114.947C191.052 113.089 201.626 111.232 212.19 109.364C226.686 106.807 241.191 104.25 255.687 101.694C267.111 99.6761 278.546 97.6686 289.97 95.6311C295.292 94.6823 300.624 93.7635 305.946 92.8147C307.837 92.4751 307.847 92.4451 307.527 90.5874C305.736 80.1904 303.985 69.7833 302.225 59.3862C301.674 56.1503 301.104 52.9143 300.564 49.6783C300.294 48.0503 300.244 48.0104 298.673 48.3C286.479 50.5273 274.294 52.7745 262.099 55.0117C243.972 58.3275 225.856 61.6634 207.729 64.9793C193.283 67.626 178.848 70.2827 164.402 72.9294C162.392 73.2989 162.011 73.0093 161.651 70.9718C161.431 69.7034 161.181 68.435 160.971 67.1665C160.851 66.4175 160.551 66.0479 159.741 66.1678C157.44 66.5273 155.149 66.9768 152.858 67.3663C151.938 67.5261 151.918 68.0455 152.058 68.8245C153.448 76.6747 154.859 84.525 156.229 92.3852C158.68 106.418 161.211 120.44 163.642 134.473C163.802 135.372 164.022 136.261 164.122 137.169C164.182 137.689 164.382 138.308 163.802 138.648C163.312 138.937 162.832 138.618 162.402 138.378C160.491 137.269 158.65 136.051 156.869 134.752C147.926 128.201 140.483 120.191 134.191 111.092C133.671 110.343 133.411 109.594 133.611 108.645C133.951 107.087 133.471 105.599 133.05 104.121C132.92 103.651 132.61 103.122 132.98 102.692C133.411 102.203 133.981 102.523 134.501 102.652C135.821 102.992 137.132 103.451 138.532 102.922C139.853 102.423 140.063 101.604 139.093 100.585C138.452 99.9158 137.652 99.4664 136.852 99.0269C136.082 98.6074 135.271 98.2878 134.511 97.8384C133.761 97.3989 133.721 96.8396 134.281 96.2004C134.531 95.9208 134.831 95.6911 135.121 95.4614C142.454 89.3889 146.035 81.5387 145.385 72.0904C144.445 58.3276 133.891 48.2201 121.306 46.742C112.853 45.7532 105.47 48.1902 99.2376 53.8731C94.3457 58.3375 91.4647 63.9705 90.6644 70.6023C89.654 78.9918 92.0749 86.3427 97.687 92.555C102.139 97.4689 107.761 100.365 114.383 101.224C116.834 101.544 119.265 101.554 121.716 101.224C123.277 101.014 123.597 101.364 123.337 102.942C123.067 104.52 123.127 106.088 123.177 107.666C123.227 108.885 123.817 109.764 124.637 109.883C125.738 110.043 126.438 109.424 126.978 108.555C127.018 108.485 127.048 108.405 127.088 108.335C127.948 106.757 128.239 106.737 129.229 108.225C129.909 109.254 130.77 109.973 132.08 109.923C133.09 109.883 133.671 110.493 134.191 111.242C136.862 115.067 139.713 118.742 142.844 122.198C148.546 128.48 154.919 133.983 162.211 138.368C164.202 139.566 164.222 139.796 163.742 142.083C162.732 146.957 159.671 150.563 156.529 154.128C154.939 155.936 153.168 157.584 151.237 159.042C144.805 163.906 137.772 164.476 130.279 162.118C126.068 160.79 121.996 159.092 117.865 157.524C113.753 155.976 109.552 154.838 105.15 154.578C101.909 154.388 98.7674 154.957 95.7163 156.046C92.7251 157.115 92.8252 157.085 91.4246 154.188C89.9641 151.172 89.4439 148.006 89.1638 144.7C88.5736 137.899 87.4631 131.177 85.1623 124.715C84.0018 121.459 82.6413 118.283 80.0903 115.796C79.6702 115.387 79.23 115.017 78.7498 114.677C76.539 113.139 74.2481 113.279 72.2774 115.127C69.9665 117.284 68.606 120.051 67.4956 122.927C66.7753 124.785 66.4152 125.015 64.7245 124.895C63.254 124.785 62.0435 125.973 61.7534 127.711C61.4833 129.379 61.7234 130.967 63.1139 132.146C63.9842 132.885 64.1943 133.754 63.9342 134.822C62.7338 139.756 61.9735 144.76 61.3232 149.794C61.0331 152.041 60.1428 154.118 59.3725 156.226C58.9924 157.255 58.5422 157.384 57.3717 156.905C55.331 156.086 53.3102 155.197 51.1494 154.698C40.6854 152.281 31.672 155.087 23.849 162.188C16.9064 168.491 13.6752 176.58 12.4647 185.679C11.6044 192.161 11.2443 198.673 11.4944 205.195C11.7545 212.076 12.2546 218.948 13.105 225.789C13.4351 228.506 13.4551 231.252 13.7152 233.989C14.1454 238.533 14.4655 243.088 14.8556 247.632C15.2158 251.807 15.5259 255.992 15.9761 260.156C16.1561 261.764 16.2962 263.382 16.6863 264.961C16.7864 265.37 16.8964 265.77 17.0865 266.139C17.2565 266.469 17.3766 266.888 17.8168 266.908C18.2969 266.928 18.537 266.539 18.7371 266.169C19.2473 265.21 19.4974 264.152 19.7675 263.103C19.8975 262.583 19.9876 262.044 20.2677 261.565C20.4077 261.325 20.5778 261.015 20.9179 261.115C21.188 261.195 21.208 261.495 21.2481 261.735C21.2781 261.944 21.238 262.154 21.228 262.354C21.158 265.18 21.208 268.007 21.198 270.833C21.198 271.592 21.3281 272.321 21.4881 273.05C21.5982 273.58 21.7082 274.189 22.3885 274.239C23.1988 274.299 23.2588 273.57 23.4089 273.04C23.5989 272.401 23.629 271.732 23.799 271.093C23.879 270.783 23.9491 270.364 24.3392 270.334C24.7994 270.294 24.9495 270.713 25.0495 271.073C25.2696 271.912 25.2196 272.821 25.5897 273.62C25.7598 273.979 25.8598 274.469 26.39 274.459C26.8902 274.449 27.0703 274.019 27.2303 273.64C27.6505 272.641 27.8406 271.572 28.0306 270.504C28.0906 270.144 28.1407 269.645 28.5508 269.595C29.081 269.535 29.131 270.094 29.2711 270.464C29.4712 271.013 29.4211 271.622 29.6512 272.162C29.8113 272.541 29.8913 273.01 30.4115 273.04C30.9417 273.07 31.0718 272.621 31.2318 272.241C31.9821 270.414 32.1822 268.456 32.5023 266.539C32.8525 264.451 33.1125 262.344 33.3426 260.236C33.3927 259.787 33.4827 259.328 33.6227 258.898C33.7028 258.658 33.8128 258.359 34.0629 258.339C34.403 258.309 34.5431 258.638 34.6331 258.908C35.0233 260.097 35.1433 261.345 35.5835 262.524C35.8636 263.273 36.1437 263.952 37.014 264.261C37.7843 264.531 37.9244 265.29 37.9244 266.029C37.9344 267.777 38.1144 269.515 38.1445 271.253C38.2245 275.907 38.5046 280.551 38.7647 285.185C38.9748 288.861 38.4846 288.411 35.8636 289.31C32.0221 290.639 28.7309 292.716 26.5401 296.232C25.9198 297.22 25.0495 297.45 23.9891 297.44C20.1176 297.44 16.2462 297.44 12.3747 297.44C8.87336 297.44 5.38204 297.44 1.88071 297.44C1.22046 297.44 0 297.44 0 297.44V297Z" fill="#A1C9FF"/>
<path d="M0 297C8.07306 297 16.226 296.971 24.2991 297.01C25.2695 297.01 25.7897 296.781 26.3199 295.882C28.3506 292.426 31.5919 290.439 35.2433 289.04C35.6734 288.881 36.1036 288.741 36.5437 288.601C38.5645 287.972 38.5245 287.972 38.4145 285.784C38.0843 279.183 37.7942 272.581 37.4841 265.979C37.4541 265.28 37.6542 264.491 36.4337 264.531C35.8235 264.551 35.5934 263.802 35.3833 263.262C34.7631 261.724 34.583 260.076 34.1428 258.179C33.5726 262.513 33.1925 266.568 32.3021 270.543C32.1221 271.352 31.852 272.141 31.5619 272.91C31.3918 273.37 31.1117 273.819 30.5015 273.819C29.8212 273.819 29.5411 273.3 29.391 272.801C29.1209 271.852 28.9709 270.863 28.7108 269.615C28.4207 271.213 28.2806 272.581 27.7404 273.849C27.4803 274.458 27.2102 275.128 26.3499 275.038C25.5896 274.958 25.3295 274.339 25.1794 273.749C24.9193 272.681 24.7493 271.592 24.4992 270.264C24.2391 271.542 24.039 272.551 23.8389 273.56C23.6989 274.299 23.3187 274.788 22.5284 274.818C21.6881 274.858 21.368 274.249 21.1779 273.59C20.7678 272.181 20.7778 270.713 20.7578 269.265C20.7278 266.648 20.7578 264.031 20.7578 261.644C20.4276 262.174 20.4376 263.103 20.1175 263.942C19.7974 264.791 19.5373 265.669 19.1772 266.508C18.9471 267.048 18.5369 267.547 17.8667 267.477C17.2164 267.417 16.8663 266.918 16.6662 266.339C15.986 264.311 15.7759 262.204 15.5858 260.096C14.7655 250.788 13.9152 241.48 13.2049 232.161C12.3846 221.355 10.884 210.588 11.0741 199.711C11.2141 192.181 11.5443 184.63 13.8652 177.419C17.5165 166.083 24.7993 158.073 36.4237 154.528C43.7565 152.29 50.8992 153.279 57.7418 156.605C58.6321 157.045 58.7922 156.835 59.1423 156.016C60.983 151.661 61.2031 146.987 62.0134 142.423C62.5136 139.646 63.0138 136.87 63.714 134.133C63.8741 133.494 63.7841 133.124 63.1738 132.705C60.7829 131.077 60.6129 126.902 62.8137 125.034C63.584 124.375 64.5243 124.006 65.4747 124.405C66.4351 124.805 66.5651 124.295 66.8152 123.616C67.6155 121.479 68.5659 119.401 69.7963 117.474C70.3766 116.565 71.0468 115.716 71.8371 114.967C74.158 112.75 76.6689 112.54 79.2699 114.408C81.9309 116.325 83.4715 119.082 84.722 121.998C87.0229 127.341 88.1533 132.984 89.0136 138.697C89.5138 142.023 89.8539 145.369 90.094 148.725C90.2141 150.493 91.2545 151.991 91.8547 153.609C92.2148 154.578 92.4349 155.886 93.1652 156.345C93.8354 156.765 94.9359 155.816 95.8562 155.496C101.979 153.389 108.051 153.898 114.113 155.736C118.925 157.194 123.507 159.302 128.248 160.94C130.609 161.749 133 162.418 135.481 162.777C142.124 163.756 147.756 161.589 152.718 157.304C156.179 154.318 159.04 150.812 161.511 146.997C162.802 145 163.182 142.603 163.752 140.305C163.912 139.656 163.422 139.536 163.042 139.317C158.2 136.52 153.738 133.204 149.587 129.469C143.654 124.135 138.482 118.133 133.981 111.551C133.46 110.782 133.04 110.173 131.86 110.333C130.559 110.512 129.629 109.604 128.959 108.515C128.699 108.095 128.489 107.666 128.188 107.127C127.828 107.956 127.598 108.695 127.118 109.304C126.468 110.113 125.647 110.532 124.607 110.333C123.627 110.153 123.157 109.424 122.926 108.525C122.416 106.497 122.686 104.47 123.047 102.472C123.187 101.673 123.257 101.424 122.236 101.574C107.401 103.721 93.8555 94.3425 90.6142 79.7207C87.393 65.1788 96.8566 50.2174 111.462 46.7917C127.498 43.0264 143.314 53.5433 145.655 69.8031C147.186 80.4798 143.474 89.2988 135.071 96.1103C134.751 96.37 134.421 96.6197 134.091 96.8794C134.061 96.8994 134.051 96.9493 134.021 97.0292C135.361 97.7183 136.722 98.3875 138.052 99.1066C138.562 99.3763 139.023 99.7458 139.463 100.125C140.043 100.625 140.553 101.204 140.293 102.063C140.043 102.872 139.333 103.172 138.612 103.391C137.142 103.841 135.731 103.441 134.331 103.022C133.991 102.922 133.651 102.782 133.2 102.632C133.53 103.911 133.881 105.039 134.121 106.208C134.251 106.847 134.451 107.636 134.211 108.165C133.601 109.544 134.381 110.413 135.061 111.381C142.494 121.978 151.367 131.077 162.511 137.838C162.932 138.098 163.372 138.328 164.012 138.697C163.612 136.41 163.262 134.323 162.892 132.235C160.431 118.263 157.97 104.28 155.499 90.3076C154.208 82.9967 152.908 75.6758 151.577 68.3649C151.407 67.406 151.617 67.0864 152.618 66.9366C155.169 66.5771 157.71 66.1077 160.231 65.5883C161.081 65.4085 161.331 65.6882 161.441 66.4373C161.731 68.285 162.081 70.1127 162.371 71.9604C162.481 72.6495 162.752 72.8193 163.442 72.6895C176.267 70.3024 189.102 67.9354 201.936 65.5783C214.771 63.2213 227.606 60.8842 240.441 58.5271C254.336 55.9803 268.232 53.4135 282.127 50.8566C288.009 49.778 293.901 48.7093 299.784 47.6007C300.634 47.4409 300.804 47.7205 300.944 48.5096C303.375 62.9616 305.846 77.4036 308.317 91.8456C308.447 92.6247 308.307 92.8844 307.456 93.0342C295.742 95.0616 284.048 97.1291 272.343 99.2065C260.799 101.254 249.264 103.321 237.72 105.359C224.295 107.726 210.87 110.073 197.445 112.43C188.891 113.938 180.338 115.466 171.785 116.934C170.625 117.134 170.334 117.524 170.605 118.692C171.085 120.79 171.375 122.937 171.745 125.064C171.805 125.394 171.815 125.733 172.075 125.993C172.675 124.675 173.246 123.356 173.886 122.068C174.176 121.489 174.546 120.77 175.346 120.919C176.227 121.079 176.267 121.908 176.307 122.607C176.357 123.476 176.317 124.345 176.317 125.394C176.807 124.205 177.187 123.117 177.687 122.088C178.077 121.289 178.458 120.2 179.588 120.44C180.708 120.68 180.618 121.838 180.658 122.717C180.698 123.666 180.588 124.615 180.518 125.903C181.008 124.565 181.379 123.516 181.779 122.498C182.069 121.748 182.539 121.159 183.459 121.359C184.32 121.539 184.48 122.238 184.5 122.987C184.58 126.223 183.75 129.319 183.139 132.455C183.009 133.134 182.859 133.803 182.879 134.533C183.429 133.424 183.97 132.325 184.52 131.227C184.63 131.007 184.76 130.787 184.91 130.587C185.37 129.948 185.81 129.099 186.751 129.439C187.701 129.778 187.561 130.727 187.441 131.496C186.951 134.672 185.76 137.649 184.58 140.615C183.98 142.113 183.379 143.621 182.679 145.079C182.309 145.858 182.529 146.028 183.289 146.188C189.972 147.646 196.714 147.986 203.517 147.466C205.008 147.357 206.488 147.137 207.979 146.997C208.319 146.967 208.829 146.558 208.959 147.287C209.089 148.056 208.419 147.916 208.059 147.966C206.288 148.196 204.507 148.435 202.727 148.535C196.094 148.925 189.502 148.625 183.009 147.107C182.129 146.897 181.729 147.117 181.339 147.956C180.188 150.443 178.928 152.87 177.677 155.307C177.397 155.846 177.287 156.315 177.397 156.945C179.008 165.933 180.578 174.922 182.189 183.911C182.329 184.67 182.139 184.9 181.359 185.02C178.768 185.419 176.197 185.879 173.626 186.398C172.705 186.588 172.415 186.348 172.255 185.439C171.365 180.116 170.414 174.812 169.474 169.499C169.434 169.259 169.424 169 169.114 168.79C167.753 170.418 166.053 171.706 164.942 173.644C161.591 179.487 157.51 184.77 152.037 188.835C144.285 194.588 135.801 195.547 126.738 192.6C123.006 191.392 119.535 189.604 115.984 187.996C115.384 187.726 114.763 187.467 114.123 187.287C112.863 186.937 112.503 187.197 112.543 188.495C112.633 191.731 112.683 194.977 112.913 198.213C113.543 207.262 113.633 216.301 112.913 225.36C112.202 234.219 111.822 243.107 111.282 251.986C110.732 261.075 110.182 270.154 109.621 279.243C109.281 284.886 108.941 290.529 108.571 296.161C108.531 296.811 108.701 297.08 109.371 297C109.701 296.961 110.042 297 110.372 297C179.688 297 249.004 297 318.331 297C318.831 297 319.5 296.99 320 297V298C213.79 298 106.21 298 0 298V297Z" fill="#041C42"/>
<path d="M244.763 192.72C243.712 192.96 242.842 193.18 241.952 193.34C241.031 193.509 240.131 193.409 239.281 193C237.81 192.291 237.61 191.202 238.8 190.074C240.181 188.765 241.942 188.066 243.632 187.277C244.102 187.057 244.583 186.858 245.093 186.638C231.908 176.92 230.387 159.901 237.96 148.435C245.393 137.179 259.908 132.785 272.383 138.098C284.618 143.302 291.53 156.945 288.779 169.649C286.038 182.273 272.973 194.668 255.177 191.192C255.497 193.17 255.887 195.117 255.687 197.115C255.497 199.022 254.857 200.001 253.686 200.191C252.396 200.391 251.295 199.562 250.565 197.834C250.455 197.584 250.355 197.325 250.195 196.955C249.204 198.863 248.154 200.65 245.663 200.091C244.323 199.792 244.082 198.803 244.283 195.317C242.742 197.345 241.311 199.322 239.791 201.22C230.787 212.506 220.223 222.014 207.559 229.085C199.826 233.4 191.663 236.576 182.979 238.384C182.619 238.463 182.059 238.963 181.919 238.124C181.789 237.365 182.469 237.505 182.839 237.425C200.426 233.57 215.292 224.78 228.206 212.466C234.119 206.823 239.361 200.61 243.982 193.879C244.212 193.539 244.433 193.2 244.753 192.73L244.763 192.72Z" fill="#041C42"/>
<path d="M161.921 148.226C162.361 151.252 162.772 154.059 163.182 156.875C163.822 161.31 164.452 165.744 165.093 170.189C165.163 170.688 165.253 171.148 164.972 171.637C161.351 177.899 157.21 183.742 151.297 188.106C143.814 193.63 135.641 194.499 126.928 191.632C123.287 190.434 119.885 188.706 116.414 187.118C115.584 186.738 114.753 186.339 113.843 186.209C112.222 185.989 111.462 186.598 111.502 188.266C111.582 191.672 111.712 195.078 111.862 198.484C112.092 203.338 112.433 208.191 112.523 213.055C112.543 214.014 112.242 214.214 111.342 214.224C95.6162 214.394 79.8802 214.604 64.1543 214.803C55.1709 214.923 46.1775 215.033 37.1941 215.183C36.3437 215.193 35.9436 215.073 35.8736 214.114C35.2733 205.784 34.523 197.455 35.5434 189.105C35.6835 187.957 35.9636 186.818 36.2337 185.699C36.3437 185.24 36.4238 184.841 35.8936 184.691C35.3233 184.531 35.3834 185.09 35.2833 185.38C34.363 188.346 34.2029 191.422 34.1029 194.489C33.8728 201.23 34.433 207.932 34.9232 214.653C35.3634 220.616 35.5234 226.609 35.8535 232.581C35.9036 233.53 35.4534 233.48 34.8232 233.38C30.8016 232.761 26.7701 232.152 22.7486 231.532C20.1976 231.143 17.6567 230.763 15.1057 230.384C14.5755 230.304 14.0953 230.334 14.0153 229.525C13.265 221.255 12.2746 212.996 12.0945 204.686C11.9045 196.156 12.0745 187.607 14.3554 179.327C17.6967 167.192 25.1395 158.693 37.5642 155.257C44.7469 153.27 51.6695 154.528 58.192 157.964C59.2024 158.493 59.4725 158.254 59.7426 157.305C60.2128 155.677 60.823 154.079 61.3032 152.451C61.5233 151.702 61.8634 151.502 62.6337 151.632C68.656 152.621 74.6983 152.93 80.7806 152.351C83.4416 152.101 86.0526 151.622 88.5435 150.633C89.2038 150.373 89.4739 150.513 89.714 151.132C90.5042 153.14 91.3646 155.117 92.1549 157.115C92.395 157.734 92.6251 157.954 93.3153 157.624C100.288 154.249 107.411 154.538 114.543 156.975C119.565 158.693 124.487 160.701 129.519 162.408C134.701 164.166 139.973 164.785 145.295 162.898C150.137 161.18 153.888 157.944 157.26 154.189C158.89 152.371 160.341 150.403 161.921 148.236V148.226Z" fill="#A1C9FF"/>
<path d="M299.394 48.7395C300.064 48.6396 299.964 49.1889 300.034 49.5385C300.804 53.9929 301.554 58.4574 302.315 62.9119C303.865 72.0305 305.406 81.1592 306.966 90.2778C307.257 91.9857 307.287 92.0157 305.646 92.3053C294.032 94.3627 282.407 96.4002 270.783 98.4477C259.288 100.485 247.794 102.533 236.29 104.57C224.265 106.697 212.231 108.795 200.196 110.912C190.582 112.61 180.969 114.298 171.355 116.036C170.395 116.206 170.075 116.036 169.904 115.057C167.634 102.013 165.313 88.9794 163.002 75.9556C162.622 73.8183 162.612 73.8283 164.803 73.4288C184.05 69.8932 203.287 66.3376 222.534 62.802C245.173 58.6372 267.802 54.4923 290.44 50.3375C293.181 49.8381 295.912 49.3287 298.653 48.8294C298.893 48.7894 299.143 48.7694 299.394 48.7395Z" fill="white"/>
<path d="M74.3583 215.682C86.6329 215.522 98.9076 215.362 111.182 215.173C112.183 215.153 112.483 215.302 112.413 216.431C111.802 225.47 111.272 234.508 110.732 243.547C110.012 255.452 109.291 267.358 108.571 279.253C108.411 281.82 108.261 284.396 108.131 286.973C108.091 287.672 107.971 288.032 107.091 288.082C100.358 288.491 93.6356 288.951 86.913 289.45C85.9827 289.52 86.0427 289.121 86.0727 288.451C86.733 275.018 85.8326 261.725 82.7214 248.611C81.9411 245.305 80.9708 242.039 79.2201 239.083C77.0193 235.377 73.628 235.128 70.8569 238.484C68.5761 241.25 67.6157 244.616 66.7954 248.022C65.3949 253.804 64.7646 259.707 64.2744 265.63C63.6942 272.591 63.3741 279.562 63.2441 286.544C63.2341 287.253 63.104 287.553 62.2937 287.562C55.101 287.682 47.8982 287.832 40.7055 288.032C39.7352 288.062 39.4951 287.772 39.445 286.833C38.9148 274.998 38.3346 263.173 37.7644 251.348C37.2142 240.062 36.664 228.766 36.0938 217.48C36.0538 216.661 36.0137 216.151 37.1642 216.141C49.5689 216.021 61.9636 215.842 74.3683 215.682C74.3683 215.682 74.3683 215.692 74.3683 215.702L74.3583 215.682Z" fill="#CAE0FF"/>
<path d="M144.945 73.968C144.945 88.8395 132.88 100.915 117.985 100.924C103.099 100.934 91.0044 88.8695 90.9944 73.998C90.9944 59.1265 103.059 47.0515 117.955 47.0415C132.85 47.0415 144.945 59.0965 144.945 73.968Z" fill="#F6C254"/>
<path d="M64.0341 283.887C64.6643 274.139 65.0545 264.381 66.535 254.713C67.2453 250.039 68.0956 245.385 70.2965 241.11C70.9967 239.762 71.8771 238.563 73.1976 237.764C75.0483 236.646 76.4688 236.935 77.7493 238.663C79.0498 240.421 79.8301 242.428 80.5103 244.476C82.4711 250.368 83.4715 256.471 84.2217 262.603C85.1721 270.364 85.4722 278.164 85.2321 285.984C85.2021 287.103 85.4022 288.381 84.932 289.3C84.4418 290.259 82.9713 290.099 81.9509 290.489C79.4899 291.407 77.079 292.416 75.1183 294.234C74.6681 294.653 74.1079 295.083 73.8978 295.632C73.3676 297 72.3672 297.08 71.1368 297.03C69.056 296.951 66.9752 296.98 64.8944 297.03C64.1741 297.05 64.0041 296.821 64.0141 296.112C64.0541 292.037 64.0341 287.972 64.0341 283.897V283.887Z" fill="#A1C9FF"/>
<path d="M173.806 185.319C172.906 185.509 173.126 184.72 173.056 184.351C172.245 179.896 171.475 175.442 170.685 170.987C168.734 159.951 166.783 148.915 164.832 137.878C162.702 125.783 160.571 113.688 158.43 101.584C156.549 90.9568 154.679 80.33 152.788 69.7032C152.478 67.9754 152.458 67.9953 154.238 67.6857C155.839 67.4061 157.44 67.1664 159.02 66.7968C160.061 66.5471 160.451 66.8168 160.631 67.8955C161.771 74.687 162.982 81.4686 164.172 88.2601C166.113 99.2564 168.054 110.253 169.994 121.249C172.125 133.304 174.266 145.359 176.397 157.414C177.867 165.714 179.318 174.003 180.789 182.303C181.079 183.971 181.109 183.981 179.428 184.291C177.547 184.64 175.667 184.97 173.786 185.309L173.806 185.319Z" fill="#F6C254"/>
<path d="M26.3601 274.089C25.6899 272.371 25.6198 270.714 25.5598 269.066C25.3897 264.331 25.6498 259.597 25.8099 254.863C25.8099 254.574 25.8399 254.284 25.8099 253.994C25.7799 253.625 26 253.065 25.3097 253.075C24.7895 253.085 24.8195 253.535 24.7895 253.914C24.5394 257.27 24.3093 260.626 24.0392 263.982C23.7991 266.918 23.5491 269.855 22.9988 272.751C22.9288 273.111 22.9988 273.76 22.4786 273.73C22.0185 273.71 22.0485 273.101 21.9985 272.701C21.4883 269.096 21.7684 265.48 21.9084 261.875C22.0185 259.098 22.2386 256.321 22.3986 253.545C22.4186 253.145 22.5587 252.596 21.9985 252.516C21.3682 252.426 21.3682 253.016 21.2782 253.465C20.5879 256.961 20.0577 260.496 19.0473 263.922C18.7973 264.791 18.6072 265.69 17.9269 266.469C17.2767 265.66 17.1866 264.711 17.0466 263.802C16.0362 256.941 15.6661 250.009 15.0558 243.098C14.7357 239.502 14.5056 235.897 14.1755 232.291C14.1055 231.532 14.1755 231.223 15.0258 231.352C21.7584 232.391 28.4909 233.4 35.2335 234.399C35.9037 234.499 35.9738 234.888 36.0038 235.447C36.2439 240.841 36.504 246.234 36.7641 251.627C36.9141 254.823 37.0742 258.019 37.2442 261.215C37.2843 262.014 37.2542 262.793 36.674 263.532C35.9137 262.464 35.7537 261.235 35.5436 260.057C35.2035 258.179 34.9934 256.281 34.6933 254.394C34.6232 253.964 34.8033 253.225 34.063 253.265C33.4828 253.295 33.5628 253.924 33.5128 254.374C32.9626 258.908 32.5725 263.453 31.7722 267.957C31.4921 269.515 31.322 271.123 30.4617 272.761C29.9215 271.443 29.8514 270.264 29.7914 269.086C29.5813 264.561 29.8514 260.027 29.8114 255.502C29.8114 255.213 29.8114 254.923 29.7814 254.634C29.7414 254.204 29.8714 253.565 29.2512 253.535C28.5109 253.505 28.661 254.224 28.631 254.663C28.5009 256.981 28.4209 259.308 28.3109 261.635C28.1508 265.041 27.9407 268.436 27.2805 271.782C27.1304 272.541 27.0404 273.34 26.3601 274.089Z" fill="#CAE0FF"/>
<path d="M86.3827 130.378C87.7832 136.351 88.5635 142.263 89.0337 148.226C89.1037 149.165 88.8036 149.534 87.9633 149.824C83.3215 151.402 78.5297 151.672 73.6879 151.612C70.0265 151.562 66.3851 151.222 62.7637 150.653C62.0335 150.543 61.8434 150.333 61.9434 149.544C62.9738 141.594 64.4444 133.744 66.9453 126.103C67.1654 125.434 67.4755 125.065 68.1358 124.865C70.7468 124.086 72.8175 122.618 74.008 119.931C75.3885 121.299 76.719 122.598 78.3696 123.487C79.9702 124.356 81.6609 124.975 83.4816 124.825C84.712 124.725 85.1122 125.205 85.1622 126.393C83.8417 125.864 82.5312 125.664 81.1707 126.103C80.3304 126.373 79.5501 126.753 78.9599 127.422C77.6694 128.87 77.9795 130.618 79.7602 131.367C82.061 132.326 84.2919 132.246 86.3827 130.378Z" fill="#CAE0FF"/>
<path d="M26.7903 296.991C28.4609 293.984 30.8818 292.167 33.6729 290.788C36.4439 289.41 39.365 288.941 42.4662 288.931C48.9987 288.911 55.5212 288.701 62.0536 288.511C63.014 288.481 63.2241 288.731 63.1641 289.67C63.044 291.827 63.044 293.984 63.034 296.152C63.034 296.751 62.914 297.011 62.2137 297.011C50.4793 296.991 38.7448 296.991 26.7803 296.991H26.7903Z" fill="#CAE0FF"/>
<path d="M74.228 296.991C74.8783 295.672 75.7686 294.814 76.799 294.134C79.8501 292.117 83.1614 290.719 86.8428 290.449C93.5553 289.95 100.278 289.54 106.99 289.041C107.861 288.981 108.031 289.23 107.961 290.039C107.781 291.977 107.621 293.925 107.581 295.872C107.561 296.811 107.271 297.021 106.36 297.011C97.877 296.971 89.3938 296.991 80.9105 296.991H74.218H74.228Z" fill="#CAE0FF"/>
<path d="M186.401 130.588C184.8 139.027 180.858 146.548 177.047 154.348C176.487 153.1 176.457 151.951 176.257 150.852C175.546 147.057 174.916 143.252 174.226 139.457C174.016 138.298 174.426 137.239 174.666 136.151C175.637 131.786 176.557 127.402 178.207 123.217C178.608 122.198 178.678 122.128 179.378 121.479C179.908 123.197 179.508 124.885 179.298 126.543C178.688 131.317 177.517 135.991 176.547 140.705C176.437 141.224 175.997 142.053 176.697 142.233C177.607 142.473 177.447 141.424 177.577 140.925C179.018 135.342 180.288 129.719 182.129 124.256C182.349 123.596 182.429 122.378 183.139 122.508C183.79 122.628 183.469 123.816 183.409 124.515C183.059 128.67 181.979 132.685 181.069 136.73C180.678 138.468 180.228 140.196 179.828 141.934C179.718 142.423 179.298 143.112 179.968 143.362C180.708 143.631 180.748 142.783 180.919 142.343C182.109 139.247 183.219 136.131 184.62 133.115C185.05 132.186 185.46 131.237 186.421 130.588H186.401Z" fill="#CAE0FF"/>
<path d="M130.89 100.275C131.83 102.353 132.7 104.17 133.041 106.178C133.131 106.707 133.181 107.247 133.201 107.786C133.221 108.385 133.151 108.994 132.54 109.284C131.88 109.594 131.24 109.394 130.67 108.994C129.769 108.365 129.369 107.386 129.059 106.398C128.719 105.329 128.509 104.23 128.489 103.092C128.489 102.772 128.539 102.423 128.019 102.413C127.438 102.403 127.468 102.762 127.478 103.152C127.528 104.61 127.428 106.058 126.948 107.446C126.748 108.036 126.498 108.615 125.988 109.024C125.128 109.704 124.237 109.524 123.927 108.475C123.247 106.118 123.757 103.791 124.247 101.474C124.337 101.054 124.767 101.104 125.058 101.024C127.568 100.375 129.929 99.3764 132.16 98.078C132.44 97.9082 132.69 97.7284 133.071 97.8882C135.001 98.6573 136.912 99.4763 138.583 100.735C138.903 100.974 139.323 101.244 139.243 101.723C139.153 102.253 138.653 102.363 138.202 102.473C136.472 102.912 134.921 102.273 133.391 101.624C132.61 101.294 131.88 100.835 130.88 100.295L130.89 100.275Z" fill="#F6C254"/>
<path d="M73.4277 117.634C73.0276 121.19 70.8968 122.908 67.7156 123.976C69.0161 120.73 70.2665 117.694 72.7775 115.417C74.5382 113.829 76.2688 113.679 78.2396 114.957C81.3307 116.955 82.8113 120.121 84.1618 123.357C84.4319 124.016 83.8117 123.856 83.5116 123.866C81.7609 123.906 80.1503 123.387 78.6597 122.528C77.0291 121.579 75.6586 120.321 74.4581 118.863C74.178 118.523 73.8979 118.183 73.4277 117.634Z" fill="#CAE0FF"/>
<path d="M164.562 142.173C165.243 145.989 165.933 149.804 166.613 153.619C167.323 157.624 167.934 161.639 168.744 165.624C169.004 166.893 168.744 167.771 167.864 168.6C167.323 169.11 166.843 169.669 166.143 170.418C165.823 168.261 165.533 166.393 165.273 164.516C164.482 158.972 163.712 153.419 162.902 147.876C162.802 147.187 162.882 146.598 163.122 145.949C163.582 144.71 163.942 143.442 164.352 142.183C164.432 142.183 164.502 142.183 164.582 142.173H164.562Z" fill="#CAE0FF"/>
<path d="M175.236 121.889C175.446 126.413 174.336 130.478 173.606 134.643C171.875 130.208 172.245 126.063 175.236 121.889Z" fill="#CAE0FF"/>
<path d="M64.1445 132.086C61.9937 130.778 61.6135 127.532 63.3242 125.914C63.6943 125.564 64.1245 125.314 64.6447 125.284C65.7051 125.224 66.0352 125.644 65.7251 126.643C65.445 127.552 65.1649 128.46 64.8948 129.379C64.6447 130.248 64.4046 131.127 64.1345 132.086H64.1445Z" fill="#CAE0FF"/>
<path d="M83.2416 130.857C82.1212 130.987 81.1808 130.947 80.2905 130.558C79.03 130.008 78.8099 128.99 79.7903 128.021C80.6807 127.142 81.7911 126.782 83.0916 126.902C81.621 128.5 81.641 129.419 83.2516 130.847L83.2416 130.857Z" fill="#CAE0FF"/>
<path d="M261.439 136.85C276.215 136.9 288.469 148.975 288.329 164.116C288.189 178.508 276.365 190.943 260.939 190.733C246.453 190.533 234.159 178.738 234.389 163.307C234.619 148.645 246.604 136.89 261.439 136.86V136.85Z" fill="#004079"/>
<path d="M247.234 190.363C245.463 191.222 243.772 192.091 241.862 192.361C241.612 192.391 241.362 192.481 241.121 192.461C240.371 192.391 239.481 192.361 239.221 191.552C238.971 190.763 239.811 190.463 240.341 190.114C241.952 189.065 243.702 188.316 245.493 187.647C246.013 187.457 246.463 187.497 246.924 187.767C248.974 188.965 251.135 189.904 253.396 190.623C253.836 190.763 254.036 191.013 254.156 191.472C254.697 193.55 254.667 195.657 254.567 197.774C254.537 198.413 254.226 199.033 253.516 199.163C252.786 199.302 252.246 198.863 251.875 198.264C251.115 197.025 250.995 195.607 250.855 194.209C250.825 193.919 250.875 193.629 250.845 193.34C250.795 192.93 251.055 192.291 250.325 192.301C249.695 192.301 249.905 192.89 249.855 193.27C249.675 194.668 249.495 196.066 248.814 197.335C248.754 197.445 248.704 197.555 248.644 197.664C247.964 198.823 246.814 199.512 246.033 199.143C244.813 198.553 245.013 197.425 245.203 196.416C245.593 194.339 246.303 192.351 247.234 190.373V190.363Z" fill="#004079"/>
<path d="M250.505 78.7619C250.895 71.8705 256.487 66.627 262.99 67.0465C269.742 67.4859 274.874 73.2488 274.474 79.9404C274.074 86.6121 268.462 91.7657 261.989 91.3962C255.387 91.0167 250.145 85.2438 250.505 78.7519V78.7619Z" fill="#041C42"/>
<path d="M190.952 88.1904C190.982 92.4351 188.071 95.8609 183.809 96.6399C182.679 96.8396 181.088 96.52 180.568 97.4089C180.128 98.158 180.758 99.5463 180.918 100.645C181.018 101.344 181.108 102.043 181.228 102.742C181.519 104.4 181.529 104.41 179.918 104.64C178.898 104.79 177.607 105.339 176.917 104.91C176.197 104.47 176.427 103.012 176.267 101.993C175.176 95.2816 174.156 88.5599 173.055 81.8383C172.935 81.1092 173.175 81.0293 173.776 80.9394C176.237 80.5799 178.688 80.1204 181.158 79.7709C186.42 79.0118 190.892 82.887 190.932 88.1904H190.952Z" fill="#041C42"/>
<path d="M218.373 98.5075C210.77 98.5375 205.098 92.6348 205.478 85.8832C205.888 78.6422 211.83 73.4686 218.883 74.2776C221.474 74.5673 223.695 75.7059 225.645 77.4537C226.456 78.1928 226.266 78.5224 225.405 78.8719C225.175 78.9618 224.955 79.0916 224.755 79.2415C223.264 80.2902 222.004 80.7196 220.043 79.6609C216.912 77.9631 212.911 79.631 211.21 82.787C209.439 86.073 210.38 90.1978 213.401 92.3252C216.442 94.4725 220.433 94.073 222.844 91.2066C223.545 90.3776 224.145 90.2777 225.055 90.5374C225.895 90.7671 226.746 90.9868 227.606 91.0867C228.557 91.1866 228.426 91.5861 228.076 92.1953C225.755 96.2303 222.294 98.3577 218.393 98.5175L218.373 98.5075Z" fill="#041C42"/>
<path d="M287.069 87.5314C284.868 87.5513 282.897 86.8922 281.127 85.6138C280.547 85.1943 280.346 84.7848 280.817 84.0956C281.327 83.3466 281.507 82.178 282.177 81.7885C282.907 81.369 283.718 82.3878 284.528 82.7074C286.169 83.3566 287.769 83.3166 289.38 82.6774C290.47 82.2479 291.171 81.5288 291.151 80.2504C291.131 79.0319 290.47 78.3628 289.41 77.9433C288.269 77.4939 287.069 77.404 285.879 77.2342C284.638 77.0544 283.418 76.7548 282.327 76.1355C280.076 74.8472 279.136 72.8197 279.306 70.2828C279.476 67.726 280.236 65.4588 282.747 64.2304C285.869 62.7023 289.07 62.6823 292.321 63.751C292.871 63.9307 293.121 64.1405 292.891 64.7996C292.601 65.6186 292.431 66.4776 292.281 67.3365C292.141 68.1255 291.821 68.1754 291.121 67.8958C289.55 67.2766 287.919 66.9969 286.249 67.5163C285.048 67.8958 284.168 68.565 284.058 69.9233C283.948 71.2516 284.748 71.9607 285.819 72.5101C286.659 72.9395 287.559 73.0394 288.47 73.0993C290.07 73.1992 291.561 73.6387 292.951 74.4576C295.972 76.2354 296.973 79.6412 295.312 82.7273C293.541 86.0133 290.66 87.4315 287.029 87.5214L287.069 87.5314Z" fill="#041C42"/>
<path d="M227.536 73.179C227.166 72.4998 227.736 72.3899 228.386 72.2901C234.089 71.4012 239.801 70.5123 245.503 69.5734C246.233 69.4536 246.473 69.6833 246.533 70.3325C246.563 70.702 246.613 71.0716 246.663 71.4411C246.97 73.3654 246.136 74.464 244.162 74.737C243.172 74.8768 242.202 75.1465 241.211 75.1865C240.121 75.2264 240.061 75.7058 240.211 76.6147C241.141 82.3076 242.012 88.0105 242.952 93.7034C243.082 94.5124 242.892 94.7521 242.142 94.7721C241.731 94.7821 241.321 94.8919 240.911 94.9519C238.29 95.3014 238.31 95.2915 237.9 92.6148C237.1 87.4512 236.229 82.2876 235.469 77.1141C235.339 76.2152 234.989 76.1453 234.269 76.2751C232.548 76.5847 230.817 76.8144 229.107 77.144C228.436 77.2739 228.126 77.2139 228.066 76.4449C227.976 75.4162 227.746 74.3974 227.546 73.179H227.536Z" fill="#041C42"/>
<path d="M202.707 100.295C202.927 100.875 202.587 101.084 202.047 101.144C202.007 101.144 201.967 101.154 201.927 101.164C200.696 101.324 199.216 101.963 198.305 101.494C197.415 101.035 197.725 99.3166 197.525 98.1481C196.465 91.6861 195.464 85.2042 194.414 78.7422C194.294 77.9832 194.424 77.5937 195.264 77.5138C196.255 77.4139 197.235 77.2441 198.215 77.0643C198.745 76.9644 199.046 76.9844 199.146 77.6536C200.296 85.1143 201.487 92.565 202.657 100.016C202.667 100.096 202.677 100.176 202.697 100.305L202.707 100.295Z" fill="#041C42"/>
<path d="M71.4169 131.926C70.4966 131.926 69.5962 131.786 68.7559 131.367C67.1653 130.568 66.8052 129.05 67.8556 127.651C69.1661 125.904 72.3373 125.294 74.198 126.463C75.1583 127.062 75.8186 127.911 75.7486 129.12C75.6785 130.338 74.9082 131.047 73.8478 131.517C73.0776 131.856 72.2572 131.946 71.4169 131.936V131.926Z" fill="#041C42"/>
<path d="M76.8991 143.891C74.118 143.831 72.2073 142.154 70.6067 139.946C70.4066 139.667 70.3866 139.447 70.7167 139.227C71.0368 139.017 71.2369 139.107 71.437 139.387C71.7271 139.786 72.0272 140.186 72.3673 140.556C74.6182 143.042 77.3592 143.552 80.3504 142.034C81.5108 141.444 82.5312 140.665 83.4515 139.757C83.7116 139.497 83.9317 139.337 84.2518 139.697C84.4919 139.966 84.552 140.156 84.2518 140.416C82.1811 142.283 79.9802 143.871 76.8891 143.881L76.8991 143.891Z" fill="#041C42"/>
<path d="M77.2492 138.727C76.7491 138.727 76.2489 138.727 75.7487 138.727C75.3885 138.727 75.2285 138.567 75.2385 138.198C75.2385 137.808 75.4586 137.709 75.7887 137.709C76.619 137.709 77.4493 137.679 78.2796 137.709C79.25 137.748 79.4201 137.359 79.0999 136.49C78.2096 134.043 77.3493 131.576 76.519 129.109C76.4089 128.78 75.8387 128.31 76.669 128.031C77.4793 127.771 77.3393 128.49 77.4493 128.8C78.3196 131.167 79.15 133.554 79.9803 135.941C80.6905 137.978 80.1603 138.707 77.9895 138.717C77.7394 138.717 77.4893 138.717 77.2392 138.717L77.2492 138.727Z" fill="#041C42"/>
<path d="M72.3075 130.817C71.1771 131.027 70.2767 130.907 69.4164 130.568C68.1259 130.048 67.8958 129.05 68.8662 128.041C69.7165 127.152 70.8169 126.832 72.1875 126.892C71.5372 127.492 70.987 128.041 71.007 128.89C71.027 129.709 71.4872 130.258 72.3075 130.817Z" fill="#CAE0FF"/>
</g>
<defs>
<clipPath id="clip0_707_5589">
<rect width="320" height="298" fill="white"/>
</clipPath>
</defs>
</svg>
