<svg width="320" height="568" viewBox="0 0 320 568" fill="none" xmlns="http://www.w3.org/2000/svg">
<g clip-path="url(#clip0)">
<path d="M-67 568L83.2981 -68L252 373.411L83.2981 568H-67Z" fill="#A1C9FF" fill-opacity="0.02"/>
<path d="M456.811 251.7L223.336 -1.68076L181.192 150.512L0.510367 4.46599L145.106 314.521L456.811 251.7Z" fill="#A1C9FF" fill-opacity="0.02"/>
<path d="M64.5 366.5L319.5 330V719.5L246 897.5L97 694L234 493L64.5 366.5Z" fill="#A1C9FF" fill-opacity="0.02"/>
<path d="M123.5 390L51 595.5L273.5 492.5L123.5 390Z" fill="#A1C9FF" fill-opacity="0.02"/>
<path d="M91.2178 217.787L-123 257.75L77.4502 398.941L91.2178 217.787Z" fill="#A1C9FF" fill-opacity="0.02"/>
<path d="M258.03 -103.177L241.187 114.085L429.447 -42.9929L258.03 -103.177Z" fill="#A1C9FF" fill-opacity="0.02"/>
</g>
<defs>
<clipPath id="clip0">
<rect width="320" height="568" fill="white"/>
</clipPath>
</defs>
</svg>
