<svg width="320" height="250" viewBox="0 0 320 250" fill="none" xmlns="http://www.w3.org/2000/svg">
<path d="M320 0H0V250H320V0Z" fill="#E9F2FF"/>
<path d="M66.3526 171.92C70.7033 173.785 75.7618 171.92 77.7473 170.755H89.9193C90.8688 167.647 93.5708 161.898 96.7821 163.762C100.796 166.093 100.149 171.92 105.976 171.402C111.803 170.884 112.709 169.589 113.227 165.187C113.641 161.665 118.493 161.216 120.867 161.432C122.161 160.87 124.156 158.583 121.773 153.921C119.39 149.26 124.061 148.958 126.694 149.389C128.118 149.519 131.407 148.923 133.168 145.505C134.929 142.086 132.434 138.987 130.967 137.865C130.017 137.088 128.532 134.188 130.19 128.801C132.261 122.068 129.413 119.607 126.694 116.37C124.518 113.78 125.787 111.407 126.694 110.543C128.377 109.248 131.018 105.7 128.118 101.868C124.492 97.0767 121.644 97.2062 117.241 96.0408C113.719 95.1085 112.58 91.7678 112.45 90.2139C112.795 86.6315 112.113 78.7932 106.623 76.0999C99.7602 72.7333 94.9691 76.6179 92.1204 80.373C89.8415 83.3771 87.8907 82.1426 87.2001 81.1499C84.3082 78.2149 77.1518 73.1994 71.6616 76.6179C64.7988 80.8909 66.3526 86.7178 66.3526 90.2139C66.3526 93.0109 63.4177 92.3289 61.9502 91.6383C59.5331 90.775 54.0515 89.5665 51.4618 91.6383C48.2246 94.228 47.7067 99.9254 49.0016 105.364C50.2964 110.802 46.9298 110.673 42.2683 115.334C38.539 119.064 41.2324 123.622 43.0452 125.434C43.9084 125.564 45.2724 127.118 43.8221 132.297C42.0093 138.771 42.9157 140.584 43.0452 141.361C43.1747 142.138 46.9298 146.411 50.6849 146.929C53.689 147.343 53.4041 150.468 52.8861 151.979C52.6271 156.123 53.404 164.021 58.5835 162.467C63.763 160.914 64.2808 163.115 63.8923 164.41C62.8996 166.136 62.0018 170.055 66.3526 171.92Z" fill="#041C42"/>
<path d="M26.7299 199.76C45.2723 182.253 72.6976 178.481 84.0924 178.783C106.105 178.783 125.465 185.362 143.268 199.76C158.159 211.802 166.273 237.915 168.518 250.259H17.0135H0C0.358178 237.278 11.4915 218.772 17.0135 211.142C19.7063 207.211 22.9167 203.36 26.7299 199.76Z" fill="#041C42"/>
<path d="M55.8645 129.448C57.522 125.408 61.3893 129.146 63.1158 131.52L59.1017 119.996L67.1299 100.443L85.5169 91.3794L114.133 106.27L110.378 129.448C114.315 124.062 116.939 127.204 117.759 129.448C117.845 130.571 117.552 133.488 115.687 136.182C113.823 138.875 110.508 137.304 109.083 136.182C105.152 146.881 99.0112 154.091 93.6746 158.48L90.8259 179.43L84.3516 190.695L77.8772 179.43L74.3983 155.993C67.9197 149.373 64.3188 140.876 63.1158 136.182C61.8727 139.496 59.3175 138.858 58.1953 138.124C56.7278 136.915 54.2071 133.488 55.8645 129.448Z" fill="#385E85"/>
<path d="M84.4809 190.695L77.7476 178.783L70.8848 179.689L84.4809 199.76L97.4295 179.689L90.9552 178.783L84.4809 190.695Z" fill="#123A78"/>
<path d="M40.585 211.672V250.259H42.3978V211.672C42.3978 211.241 42.2165 210.507 41.4914 210.507C40.7662 210.507 40.585 211.241 40.585 211.672Z" fill="#123A78"/>
<path d="M128.895 211.802V250.389H130.708V211.802C130.708 211.37 130.526 210.636 129.801 210.636C129.076 210.636 128.895 211.37 128.895 211.802Z" fill="#123A78"/>
<path d="M63.7632 133.074L63.1158 131.52L57.5479 121.291L65.9645 99.796L85.2579 90.0845L115.558 104.328L110.896 128.671C109.99 130.355 107.97 133.281 107.141 131.52C106.312 129.759 108.781 123.967 110.119 121.291C107.012 119.84 107.53 116.457 108.177 114.946C106.209 114.428 105.285 111.968 105.069 110.802C104.724 108.601 102.247 103.888 95.099 102.645C87.9513 101.402 85.56 96.6883 85.2579 94.487C84.4378 98.0695 81.6583 105.39 77.1003 106.011C72.5424 106.633 70.1943 102.904 69.59 100.961C69.6332 105.191 69.124 114.506 66.7414 117.924C64.3589 121.342 61.6915 120.643 60.6556 119.866C62.1231 123.104 65.0063 130.122 64.7991 132.297C64.592 134.472 64.0222 133.721 63.7632 133.074Z" fill="#041C42"/>
<path d="M64.665 224.26C64.5725 208.694 77.4912 204.03 83.9621 203.644C90.5871 203.644 103.976 207.767 104.53 224.26C105.085 240.752 91.0493 245.184 83.9621 245.339C77.5682 244.798 64.7574 239.826 64.665 224.26Z" fill="#123A78" class="main-path-3"/>
<path d="M76.3232 219.571C76.3233 224.75 81.848 233.038 84.3514 235.886C87.3295 232.649 92.9374 225.657 93.0269 219.571C93.1305 212.527 87.2864 210.68 84.3514 210.636C81.5027 211.154 76.3231 213.652 76.3232 219.571Z" fill="#F6C254" class="main-path-3"/>
<path d="M81.3727 220.606C81.5798 217.913 83.7895 217.24 84.8685 217.24C86.0338 217.24 88.3902 217.913 88.4938 220.606C88.5974 223.299 86.1201 224.318 84.8685 224.49C83.6169 224.318 81.1655 223.299 81.3727 220.606Z" fill="#123A78" class="main-path-3"/>
<path d="M84.6106 236.663C87.9772 236.663 92.2503 236.663 92.2503 238.735C92.2503 239.771 87.9772 239.771 84.6106 239.771C82.0208 239.771 77.4888 239.771 77.4888 238.735C77.4888 236.663 82.4093 236.663 84.6106 236.663Z" fill="#F6C254" class="main-path-3"/>
<path d="M90.3077 115.205C91.6543 116.241 92.6384 115.205 93.1564 114.558C93.5448 114.04 94.9691 113.522 97.0409 113.522C99.6307 113.522 101.444 115.205 103.904 116.888C105.872 118.235 106.019 116.327 105.846 115.205C105.285 114.126 103.386 111.554 100.278 109.896C96.3935 107.824 93.6743 109.637 93.1564 109.896C92.6384 110.155 88.6243 113.91 90.3077 115.205Z" fill="#041C42"/>
<path d="M78.7838 109.508C80.752 109.818 83.0568 112.486 83.0568 114.04C83.0568 115.852 80.3376 114.428 79.3017 114.04C78.2658 113.651 75.6761 113.522 74.1223 114.04C72.5684 114.558 69.3313 117.018 68.5543 117.018C67.7774 117.018 67.0005 116.5 67.0005 115.464C67.0005 114.169 69.1155 112.917 70.2377 112.227C72.18 111.032 76.453 109.14 78.7838 109.508Z" fill="#041C42"/>
<path d="M84.8697 119.608C84.5589 116.707 83.3158 113.953 82.7978 113.133L81.5029 114.817C81.6324 115.076 82.6424 117.51 83.0568 119.478C83.4711 121.446 83.0568 126.254 82.7978 128.413C82.5389 129.966 81.9174 133.747 81.503 136.441C81.0887 139.134 82.2799 140.239 82.9274 140.455C84.0927 140.757 86.812 141.18 88.3658 140.455C90.3081 139.548 90.3081 136.829 90.3081 136.182C90.3081 135.664 89.79 135.146 89.0132 135.534C88.5457 135.768 88.7542 136.441 88.7543 136.829C88.7543 137.363 88.4693 138.435 87.8478 138.642C87.0709 138.901 86.294 138.901 84.3517 138.642C82.7979 138.435 83.0836 136.57 83.3158 135.146C83.9633 131.175 85.1804 122.508 84.8697 119.608Z" fill="#041C42"/>
<path d="M72.8273 123.751C72.7237 121.783 73.9925 121.032 74.6399 120.902C75.3305 120.989 76.7116 121.731 76.7116 124.01C76.7116 126.288 75.4168 126.686 74.7695 126.599C74.1652 126.47 72.9308 125.719 72.8273 123.751Z" fill="#041C42"/>
<path d="M93.9396 123.621C93.836 121.653 95.1049 120.902 95.7523 120.773C96.4428 120.859 97.8239 121.601 97.8239 123.88C97.8239 126.159 96.5292 126.556 95.8818 126.47C95.2776 126.34 94.0432 125.589 93.9396 123.621Z" fill="#041C42"/>
<path d="M75.0282 131.391C74.8211 130.873 75.4598 130.571 75.8051 130.484C76.0209 130.527 76.4525 130.769 76.4525 131.391C76.4525 132.012 76.0209 132.167 75.8051 132.167C75.6324 132.124 75.2354 131.909 75.0282 131.391Z" fill="#1A4571"/>
<path d="M68.5947 136.958C68.3875 136.441 69.0262 136.138 69.3715 136.052C69.5873 136.095 70.0189 136.337 70.0189 136.958C70.0189 137.58 69.5873 137.735 69.3715 137.735C69.1989 137.692 68.8018 137.476 68.5947 136.958Z" fill="#1A4571"/>
<path d="M74.0331 139.289C73.826 138.771 74.4647 138.469 74.81 138.383C75.0258 138.426 75.4574 138.668 75.4574 139.289C75.4574 139.911 75.0258 140.066 74.81 140.066C74.6374 140.023 74.2403 139.807 74.0331 139.289Z" fill="#1A4571"/>
<path d="M94.2328 134.887C94.0256 134.369 94.6644 134.067 95.0096 133.98C95.2254 134.024 95.657 134.265 95.657 134.887C95.657 135.508 95.2254 135.664 95.0096 135.664C94.837 135.62 94.44 135.405 94.2328 134.887Z" fill="#1A4571"/>
<path d="M100.707 131.779C100.5 131.261 101.139 130.959 101.484 130.873C101.7 130.916 102.131 131.158 102.131 131.779C102.131 132.401 101.7 132.556 101.484 132.556C101.311 132.513 100.914 132.297 100.707 131.779Z" fill="#1A4571"/>
<path d="M96.8227 137.994C96.6156 137.477 97.2543 137.174 97.5996 137.088C97.8154 137.131 98.2469 137.373 98.2469 137.994C98.2469 138.616 97.8154 138.771 97.5996 138.771C97.4269 138.728 97.0299 138.512 96.8227 137.994Z" fill="#1A4571"/>
<path d="M84.6101 148.871C85.5423 149.803 86.2932 149.518 86.9406 149.13C88.3839 148.264 88.4943 145.893 88.6238 145.116C88.7317 144.469 90.048 143.563 90.048 146.023C90.048 147.991 88.8396 149.518 88.2353 150.036C87.7606 150.511 86.3709 151.305 84.6101 150.684C82.8492 150.062 81.8048 147.749 81.5027 146.67C81.3732 146.109 81.2955 144.961 82.0206 144.857C82.7456 144.754 83.0132 145.591 83.0564 146.023C83.1859 146.584 83.6779 147.939 84.6101 148.871Z" fill="#041C42"/>
<path d="M85.1282 163.762C87.8215 163.037 91.9478 159.921 93.6743 158.453L90.8256 178.783L82.0205 161.69L85.1282 163.762Z" fill="#1A4571"/>
<path d="M147 21.4321C147 18.432 149.432 16 152.432 16H298.983C301.983 16 304.415 18.432 304.415 21.4321V139.744C304.415 142.744 301.983 145.176 298.983 145.176H152.432C149.432 145.176 147 142.744 147 139.744V21.4321Z" fill="#041C42"/>
<path d="M162.02 35.7055C162.02 33.1181 164.118 31.0205 166.705 31.0205H184.372C186.96 31.0205 189.057 33.1181 189.057 35.7055V53.3725C189.057 55.9599 186.96 58.0574 184.372 58.0574H166.705C164.118 58.0574 162.02 55.9599 162.02 53.3725V35.7055Z" fill="white"/>
<path d="M162.02 71.7548C162.02 69.1673 164.118 67.0698 166.705 67.0698H184.372C186.96 67.0698 189.057 69.1673 189.057 71.7548V89.4217C189.057 92.0092 186.96 94.1067 184.372 94.1067H166.705C164.118 94.1067 162.02 92.0092 162.02 89.4217V71.7548Z" fill="white"/>
<path d="M162.04 107.328C162.04 105.078 163.864 103.254 166.114 103.254H184.855C187.105 103.254 188.929 105.078 188.929 107.328V126.069C188.929 128.319 187.105 130.143 184.855 130.143H166.114C163.864 130.143 162.04 128.319 162.04 126.069V107.328Z" fill="white"/>
<path d="M201.675 38.2305H282.185V50.2469H201.675V38.2305Z" fill="white"/>
<path d="M201.675 74.2798H268.967V86.2962H201.675V74.2798Z" fill="white"/>
<path d="M201.675 110.329H289.394V122.345H201.675V110.329Z" fill="white"/>
<path d="M171.22 39.4502L176.027 44.8575L194.652 25.0304C195.854 23.8287 197.89 23.161 199.459 24.73C200.961 26.2322 199.76 28.9357 198.257 30.4378L176.027 53.5694L166.113 43.055C164.912 41.8534 164.431 39.9308 166.113 38.2485C167.796 36.5662 170.019 37.9481 171.22 39.4502Z" fill="#F6C254" class="main-path"/>
<path d="M171.122 75.6401L175.928 81.0475L194.554 61.2204C195.756 60.0187 197.792 59.351 199.361 60.9199C200.863 62.4221 199.661 65.1256 198.159 66.6277L175.928 89.7593L166.015 79.245C164.813 78.0433 164.333 76.1207 166.015 74.4384C167.697 72.7561 169.92 74.138 171.122 75.6401Z" fill="#F6C254" class="main-path-2"/>
<path d="M171.393 111.492L176.2 116.899L194.825 97.0724C196.027 95.8707 198.063 95.203 199.632 96.7719C201.134 98.2741 199.933 100.978 198.43 102.48L176.2 125.611L166.286 115.097C165.085 113.895 164.604 111.973 166.287 110.29C167.969 108.608 170.192 109.99 171.393 111.492Z" fill="#F6C254" class="main-path-3"/>
</svg>
