<svg width="319" height="250" viewBox="0 0 319 250" fill="none" xmlns="http://www.w3.org/2000/svg">
<rect width="319" height="249.879" fill="#E9F2FF"/>
<path d="M55.1002 162.392C59.9589 164.474 65.6082 162.392 67.8255 161.091H81.4186C82.4791 157.62 85.4965 151.2 89.0827 153.282C93.5655 155.885 92.8425 162.392 99.3497 161.814C105.857 161.235 106.869 159.789 107.448 154.873C107.91 150.939 113.328 150.438 115.979 150.679C117.425 150.052 119.652 147.498 116.992 142.292C114.331 137.086 119.546 136.749 122.487 137.231C124.077 137.375 127.75 136.71 129.717 132.893C131.684 129.075 128.897 125.614 127.259 124.361C126.198 123.493 124.54 120.254 126.391 114.239C128.705 106.719 125.523 103.972 122.487 100.356C120.057 97.4643 121.474 94.8132 122.487 93.8491C124.366 92.4031 127.316 88.4409 124.077 84.1605C120.028 78.8101 116.847 78.9547 111.93 77.6533C107.997 76.6121 106.725 72.8813 106.58 71.146C106.966 67.1453 106.204 58.3918 100.073 55.384C92.4086 51.6243 87.0582 55.9624 83.8769 60.156C81.3319 63.5109 79.1531 62.1323 78.3819 61.0236C75.1524 57.7459 67.1605 52.1449 61.0292 55.9624C53.3651 60.7344 55.1002 67.2417 55.1002 71.146C55.1002 74.2695 51.8226 73.5079 50.1838 72.7367C47.4845 71.7726 41.3629 70.423 38.4707 72.7367C34.8556 75.6288 34.2772 81.9914 35.7232 88.0649C37.1693 94.1383 33.4095 93.9937 28.2037 99.1995C24.0391 103.364 27.0469 108.454 29.0714 110.479C30.0354 110.623 31.5586 112.359 29.939 118.143C27.9146 125.373 28.9268 127.398 29.0714 128.265C29.216 129.133 33.4096 133.905 37.6031 134.483C40.958 134.946 40.6398 138.436 40.0613 140.123C39.7721 144.75 40.6398 153.571 46.424 151.836C52.2082 150.101 52.7865 152.559 52.3527 154.005C51.244 155.933 50.2414 160.31 55.1002 162.392Z" fill="#041C42"/>
<path d="M10.8509 193.482C31.5585 173.932 62.1859 169.719 74.9112 170.056C99.494 170.056 121.115 177.404 140.996 193.482C157.626 206.931 166.688 236.093 169.194 249.879H0V206.194C3.00727 201.804 6.59256 197.503 10.8509 193.482Z" fill="#041C42"/>
<path d="M43.3873 114.961C45.2383 110.45 49.5572 114.624 51.4853 117.275L47.0025 104.405L55.968 82.5698L76.502 72.4474L108.46 89.077L104.266 114.961C108.662 108.946 111.593 112.455 112.509 114.961C112.605 116.215 112.277 119.473 110.195 122.481C108.113 125.489 104.411 123.734 102.82 122.481C98.4296 134.429 91.572 142.482 85.6122 147.383L82.4309 170.779L75.2006 183.36L67.9703 170.779L64.0852 144.606C56.85 137.213 52.8288 127.724 51.4853 122.481C50.097 126.183 47.2435 125.469 45.9902 124.65C44.3514 123.3 41.5364 119.473 43.3873 114.961Z" fill="#385E85"/>
<path d="M75.3451 183.36L67.8257 170.056L60.1616 171.068L75.3451 193.482L89.8057 171.068L82.5754 170.056L75.3451 183.36Z" fill="#123A78"/>
<path d="M26.3239 206.786V249.879H28.3483V206.786C28.3483 206.304 28.1459 205.485 27.3361 205.485C26.5263 205.485 26.3239 206.304 26.3239 206.786Z" fill="#123A78"/>
<path d="M124.945 206.931V250.023H126.969V206.931C126.969 206.449 126.767 205.629 125.957 205.629C125.147 205.629 124.945 206.449 124.945 206.931Z" fill="#123A78"/>
<path d="M52.2083 119.01L51.4853 117.275L45.2672 105.851L54.6666 81.8468L76.2128 71.0013L110.051 86.908L104.845 114.094C103.832 115.974 101.577 119.242 100.651 117.275C99.7257 115.309 102.483 108.84 103.977 105.851C100.507 104.232 101.085 100.453 101.808 98.7656C99.61 98.1872 98.5785 95.4397 98.3375 94.1382C97.9519 91.6799 95.1851 86.4163 87.2028 85.0281C79.2206 83.6399 76.5502 78.3762 76.2128 75.9179C75.297 79.9187 72.1928 88.0937 67.1027 88.7878C62.0125 89.4819 59.3904 85.3173 58.7155 83.1482C58.7637 87.872 58.195 98.274 55.5342 102.092C52.8735 105.909 49.8946 105.128 48.7377 104.261C50.3766 107.876 53.5965 115.713 53.3651 118.143C53.1338 120.572 52.4975 119.733 52.2083 119.01Z" fill="#041C42"/>
<path d="M53.2154 220.843C53.1122 203.46 67.5393 198.252 74.7658 197.82C82.1643 197.82 97.1161 202.425 97.7355 220.843C98.355 239.262 82.6804 244.211 74.7658 244.384C67.6253 243.78 53.3186 238.227 53.2154 220.843Z" fill="#123A78" class="main-path-3"/>
<path d="M66.235 215.607C66.2351 221.391 72.4049 230.646 75.2006 233.827C78.5265 230.212 84.7892 222.403 84.8891 215.607C85.0048 207.74 78.4783 205.677 75.2006 205.629C72.0193 206.208 66.235 208.997 66.235 215.607Z" fill="#F6C254"/>
<path d="M71.8741 216.763C72.1055 213.755 74.5732 213.003 75.7781 213.003C77.0795 213.003 79.7111 213.755 79.8268 216.763C79.9424 219.77 77.1759 220.908 75.7781 221.101C74.3804 220.908 71.6428 219.77 71.8741 216.763Z" fill="#123A78"/>
<path d="M75.4898 234.695H75.4898H75.4899C79.2496 234.695 84.0215 234.695 84.0215 237.009C84.0215 238.166 79.2496 238.166 75.4898 238.166C72.5977 238.166 67.5365 238.166 67.5365 237.009C67.5365 234.695 73.0315 234.695 75.4898 234.695Z" fill="#F6C254"/>
<path d="M81.8525 99.0549C83.3564 100.212 84.4553 99.0549 85.0338 98.3318C85.4676 97.7534 87.0582 97.175 89.3719 97.175C92.264 97.175 94.2885 99.0549 97.036 100.935C99.234 102.439 99.3979 100.308 99.2051 99.0549C98.5785 97.8498 96.4576 94.977 92.9871 93.126C88.6489 90.8124 85.6122 92.8368 85.0338 93.126C84.4554 93.4153 79.9726 97.6088 81.8525 99.0549Z" fill="#041C42"/>
<path d="M68.9825 92.6922C71.1805 93.0393 73.7545 96.0181 73.7545 97.7534C73.7545 99.7779 70.7178 98.1872 69.561 97.7534C68.4041 97.3196 65.512 97.175 63.7767 97.7534C62.0415 98.3318 58.4263 101.079 57.5587 101.079C56.6911 101.079 55.8234 100.501 55.8234 99.3441C55.8234 97.898 58.1853 96.5002 59.4386 95.7289C61.6077 94.3941 66.3796 92.2812 68.9825 92.6922Z" fill="#041C42"/>
<path d="M75.779 103.971C75.432 100.732 74.0437 97.657 73.4653 96.7411L72.0192 98.621C72.1638 98.9102 73.2918 101.629 73.7545 103.827C74.2172 106.025 73.7545 111.395 73.4653 113.805C73.1761 115.54 72.482 119.762 72.0193 122.77C71.5566 125.778 72.8869 127.012 73.61 127.253C74.9114 127.59 77.9481 128.063 79.6834 127.253C81.8525 126.241 81.8525 123.204 81.8525 122.481C81.8525 121.903 81.2739 121.324 80.4064 121.758C79.8843 122.019 80.1171 122.77 80.1172 123.204C80.1173 123.8 79.799 124.997 79.1049 125.228C78.2373 125.518 77.3697 125.518 75.2006 125.228C73.4654 124.997 73.7844 122.915 74.0438 121.324C74.7668 116.89 76.1261 107.211 75.779 103.971Z" fill="#041C42"/>
<path d="M62.3306 108.599C62.2149 106.401 63.6319 105.562 64.3549 105.417C65.1261 105.514 66.6685 106.343 66.6685 108.888C66.6685 111.433 65.2225 111.876 64.4996 111.78C63.8248 111.635 62.4463 110.796 62.3306 108.599Z" fill="#041C42"/>
<path d="M85.908 108.454C85.7924 106.256 87.2094 105.417 87.9323 105.273C88.7035 105.369 90.2459 106.198 90.2459 108.743C90.2459 111.288 88.8 111.731 88.077 111.635C87.4022 111.49 86.0237 110.652 85.908 108.454Z" fill="#041C42"/>
<path d="M64.789 117.13C64.5576 116.552 65.2709 116.215 65.6565 116.118C65.8975 116.166 66.3795 116.436 66.3795 117.13C66.3795 117.824 65.8975 117.998 65.6565 117.998C65.4637 117.95 65.0203 117.709 64.789 117.13Z" fill="#1A4571"/>
<path d="M57.6039 123.349C57.3725 122.77 58.0859 122.433 58.4714 122.336C58.7124 122.385 59.1944 122.654 59.1944 123.349C59.1944 124.043 58.7124 124.216 58.4714 124.216C58.2787 124.168 57.8352 123.927 57.6039 123.349Z" fill="#1A4571"/>
<path d="M63.6773 125.951C63.446 125.373 64.1593 125.036 64.5449 124.939C64.7859 124.987 65.2678 125.257 65.2678 125.951C65.2678 126.645 64.7859 126.819 64.5449 126.819C64.3521 126.771 63.9087 126.53 63.6773 125.951Z" fill="#1A4571"/>
<path d="M86.2358 121.035C86.0044 120.456 86.7178 120.119 87.1033 120.023C87.3443 120.071 87.8263 120.341 87.8263 121.035C87.8263 121.729 87.3443 121.902 87.1033 121.902C86.9106 121.854 86.4671 121.613 86.2358 121.035Z" fill="#1A4571"/>
<path d="M93.4661 117.564C93.2347 116.986 93.948 116.649 94.3336 116.552C94.5746 116.6 95.0566 116.87 95.0566 117.564C95.0566 118.258 94.5746 118.432 94.3336 118.432C94.1408 118.384 93.6974 118.143 93.4661 117.564Z" fill="#1A4571"/>
<path d="M89.1279 124.505C88.8965 123.927 89.6099 123.59 89.9954 123.493C90.2364 123.541 90.7184 123.811 90.7184 124.505C90.7184 125.199 90.2364 125.373 89.9954 125.373C89.8026 125.325 89.3592 125.084 89.1279 124.505Z" fill="#1A4571"/>
<path d="M75.4894 136.652C76.5305 137.693 77.3691 137.375 78.0921 136.941C79.7039 135.974 79.8272 133.326 79.9718 132.459C80.0923 131.736 81.5623 130.724 81.5623 133.471C81.5623 135.669 80.2128 137.375 79.538 137.953C79.0079 138.483 77.4559 139.37 75.4894 138.676C73.523 137.982 72.3566 135.399 72.0192 134.194C71.8746 133.567 71.7879 132.285 72.5976 132.17C73.4073 132.054 73.7061 132.989 73.7543 133.471C73.8989 134.097 74.4484 135.611 75.4894 136.652Z" fill="#041C42"/>
<path d="M76.0682 153.282C79.076 152.472 83.6841 148.992 85.6122 147.353L82.4308 170.056L72.5977 150.968L76.0682 153.282Z" fill="#1A4571"/>
<path d="M136.797 29.4996C136.797 26.305 139.387 23.7153 142.581 23.7153H298.631C301.825 23.7153 304.415 26.305 304.415 29.4996V155.48C304.415 158.675 301.825 161.264 298.631 161.264H142.581C139.387 161.264 136.797 158.675 136.797 155.48V29.4996Z" fill="#041C42"/>
<path d="M152.791 44.698C152.791 41.9428 155.024 39.7094 157.779 39.7094H176.591C179.347 39.7094 181.58 41.9428 181.58 44.698V63.51C181.58 66.2652 179.347 68.4987 176.591 68.4987H157.779C155.024 68.4987 152.791 66.2652 152.791 63.51V44.698Z" fill="white"/>
<path d="M152.791 83.0837C152.791 80.3286 155.024 78.0951 157.779 78.0951H176.591C179.347 78.0951 181.58 80.3286 181.58 83.0837V101.896C181.58 104.651 179.347 106.884 176.591 106.884H157.779C155.024 106.884 152.791 104.651 152.791 101.896V83.0837Z" fill="white"/>
<path d="M152.812 120.963C152.812 118.567 154.754 116.625 157.15 116.625H177.106C179.502 116.625 181.444 118.567 181.444 120.963V140.919C181.444 143.315 179.502 145.257 177.106 145.257H157.15C154.754 145.257 152.812 143.315 152.812 140.919V120.963Z" fill="white"/>
<path d="M195.016 47.3865H280.744V60.1818H195.016V47.3865Z" fill="white"/>
<path d="M195.016 85.7724H266.669V98.5677H195.016V85.7724Z" fill="white"/>
<path d="M195.016 124.158H288.421V136.953H195.016V124.158Z" fill="white"/>
<path d="M162.587 48.6856L167.705 54.4434L187.538 33.3313C188.817 32.0517 190.986 31.3407 192.656 33.0113C194.255 34.6108 192.976 37.4896 191.376 39.0891L167.705 63.7199L157.149 52.5241C155.87 51.2446 155.358 49.1973 157.149 47.406C158.94 45.6147 161.308 47.0861 162.587 48.6856Z" fill="#F6C254" class="main-path"/>
<path d="M162.482 87.2209L167.6 92.9787L187.433 71.8665C188.713 70.5869 190.881 69.8759 192.551 71.5466C194.151 73.1461 192.871 76.0249 191.272 77.6244L167.6 102.255L157.044 91.0594C155.765 89.7799 155.253 87.7326 157.044 85.9413C158.836 84.15 161.203 85.6214 162.482 87.2209Z" fill="#F6C254" class="main-path-2"/>
<path d="M162.771 125.397L167.889 131.155L187.722 110.042C189.002 108.763 191.17 108.052 192.84 109.722C194.44 111.322 193.161 114.201 191.561 115.8L167.889 140.431L157.333 129.235C156.054 127.956 155.542 125.908 157.334 124.117C159.125 122.326 161.492 123.797 162.771 125.397Z" fill="#F6C254" class="main-path-3"/>
</svg>
