<svg width="320" height="250" viewBox="0 0 320 250" fill="none" xmlns="http://www.w3.org/2000/svg">
<rect width="318.949" height="249.839" fill="#E9F2FF"/>
<path fill-rule="evenodd" clip-rule="evenodd" d="M168.181 13.2942V0H177.96V13.2942H261.24V0H271.325V13.2942H294.093C296.625 13.2942 298.678 15.3466 298.678 17.8784V78.6954C298.678 81.2272 296.625 83.2796 294.093 83.2796H148.01C145.478 83.2796 143.426 81.2272 143.426 78.6954V17.8784C143.426 15.3466 145.478 13.2942 148.01 13.2942H168.181Z" fill="#041C42"/>
<path d="M152.594 27.0468C152.594 24.515 154.647 22.4626 157.179 22.4626H284.925C287.457 22.4626 289.509 24.515 289.509 27.0468V69.527C289.509 72.0588 287.457 74.1112 284.925 74.1112H157.179C154.647 74.1112 152.594 72.0588 152.594 69.527V27.0468Z" fill="#F6C254"/>
<path fill-rule="evenodd" clip-rule="evenodd" d="M242.598 34.5343C242.109 37.5904 244.431 39.1694 245.807 39.5769C245.348 38.7619 244.695 36.5032 246.418 34.5343C248.557 32.0894 247.182 28.7277 245.501 27.3524C245.831 29.2489 245.137 30.0775 244.333 31.0387C243.646 31.8589 242.879 32.7755 242.598 34.5343ZM262.768 41.4106H228.845C228.845 47.37 232.207 59.3501 245.654 59.5946C251.56 59.7019 255.559 57.3963 258.197 54.2545C264.345 60.175 268.792 58.4595 270.256 56.844C271.733 55.0613 274.106 50.4873 271.784 46.4532C269.588 42.6403 264.854 43.7144 262.406 44.8759C262.64 43.6104 262.751 42.4274 262.768 41.4106ZM261.547 48.1636C261.109 49.4478 260.536 50.7436 259.804 51.9785C262.143 53.8543 266.614 56.3653 268.575 53.4823C270.653 50.4262 269.441 48.3378 268.575 47.6756C267.572 46.7731 264.782 45.6337 261.547 48.1636ZM227.928 61.1226H245.654H263.991C262.666 62.9563 257.145 66.5931 245.654 66.4709C234.163 66.3486 229.049 62.8544 227.928 61.1226ZM191.713 30.4085L208.98 44.0083L213.259 47.37L208.98 50.7318L191.713 64.9428L187.434 58.3721L198.589 50.7318H169.403V44.0083H198.589L187.434 38.8129L191.713 30.4085Z" fill="#041C42" class="main-path"/>
<path d="M178.409 108.371C169.682 116.964 163.774 122.335 153.033 132.271L158.538 141.266C162.342 141.535 170.053 139.246 174.918 133.613C180.02 127.706 176.619 121.798 174.918 118.307C178.185 114.771 184.988 108.103 183.377 106.089C181.766 104.075 179.618 107.029 178.409 108.371Z" fill="#5B7FA1"/>
<path d="M76.812 202.276L95.3405 249.94H0V197.733C13.8357 187.768 28.9565 184.309 35.9955 183.882L51.0332 182.137C71.6562 182.889 98.3839 164.817 109.17 155.687C115.838 150.226 131.216 138.366 139.379 134.607C142.057 133.374 144.548 133.436 146.764 134.239L152.537 128.968L163.681 147.496L157.981 151.256C157.663 157.939 153.425 167.929 139.379 179.988C118.112 198.248 88.8063 202.455 76.812 202.276Z" fill="#004079"/>
<path d="M24.5416 167.448C27.1195 166.911 27.5849 161.853 27.4954 159.392L23.0648 130.659L58.2422 125.02C62.3148 126.587 69.9232 127.947 67.775 120.858C65.6267 113.769 54.438 110.833 49.1122 110.251C53.1938 108.962 55.7359 106.492 56.4967 105.418C57.8394 103.985 58.3764 100.879 49.7835 99.9127C41.1905 98.946 33.4032 104.612 30.5836 107.566C32.2843 103.538 33.8328 96.3681 26.4214 99.9127C19.01 103.457 16.8886 112.757 16.7543 116.964C15.4117 114.279 12.2429 111.298 10.3095 120.858C8.37612 130.418 14.606 143.996 17.9626 149.591C19.0815 155.767 21.9637 167.985 24.5416 167.448Z" fill="#A1C9FF"/>
<path d="M14.7403 148.785C14.2033 143.414 18.5445 145.384 20.7823 147.04V128.511L42.936 114.413L60.1219 124.752C72.2594 148.06 62.6729 165.523 56.3625 171.342C53.0288 171.967 49.9425 172.085 47.0982 171.811L50.4548 182.485C43.7953 188.501 37.2074 186.603 34.7458 184.902L26.9039 160.6C24.2923 157.391 22.5341 154.069 21.5879 151.47C21.0508 152.867 20.29 153.574 19.9767 153.753C18.455 154.335 15.2774 154.156 14.7403 148.785Z" fill="#5B7FA1"/>
<path d="M35.6857 167.314C39.4451 170.429 44.8605 171.565 47.0982 171.744L49.7835 180.337C41.0832 177.759 36.7598 170.581 35.6857 167.314Z" fill="#415C75"/>
<path d="M27.0928 150.933C24.0852 152.759 21.6327 149.098 20.7823 147.04L18.6341 127.705L42.2647 112.399L61.3303 120.858L61.4646 125.96C51.4753 124.564 44.95 121.127 41.0563 119.515C42.399 120.858 46.1584 123.275 44.95 125.557C43.9139 127.514 41.1458 126.945 39.9822 126.631C37.8787 126.273 32.8393 125.665 29.5095 126.094C26.1798 126.524 26.0634 128.959 26.4214 130.122C27.8984 136.298 30.1003 149.107 27.0928 150.933Z" fill="#A1C9FF"/>
<path d="M50.4548 182.486C44.6546 186.352 37.3864 185.26 34.4773 184.231C31.1476 184.553 29.42 184.992 28.9725 185.171C29.8318 186.997 31.5683 188.706 32.3291 189.333C34.7459 190.989 41.1369 193.979 47.3667 192.69C53.5966 191.401 55.3331 185.26 55.4226 182.351C53.2744 182.486 52.3345 182.486 50.4548 182.486Z" fill="#041C42"/>
<path d="M40.7878 130.928C40.8952 129.961 39.8479 129.602 38.6395 129.451C37.4311 129.3 36.0885 129.719 34.7458 130.256C33.4032 130.794 32.2396 132.539 31.6578 133.345C31.255 133.837 30.5836 134.929 31.1207 135.359C31.8714 135.959 32.7183 134.935 33.3153 134.182C35.574 131.331 37.2648 131.331 38.1025 131.331C39.3108 131.331 40.6804 131.895 40.7878 130.928Z" fill="#041C42"/>
<path d="M55.0194 128.511C53.6231 127.759 52.1998 127.75 51.6628 127.84C49.2997 127.84 47.3663 129.809 46.695 130.794C46.4265 131.868 46.0509 134.634 47.7695 138.178C49.9177 142.609 52.5455 143.756 52.8712 143.952C53.5429 144.354 55.825 144.623 54.8851 146.503C54.1333 148.006 51.7971 148.651 50.7229 148.785C50.0516 148.83 48.6821 148.731 48.5747 147.979C48.4673 147.228 49.067 147.219 49.3803 147.308C49.6936 147.353 50.4007 147.442 50.7229 147.442C51.1261 147.442 52.1596 147.214 52.6026 146.771C53.0457 146.328 53.0058 145.966 52.6026 145.697C51.5285 144.981 48.7358 143.039 46.695 139.387C44.6542 135.735 44.6814 131.263 45.2181 130.122C46.4177 127.571 48.8432 126.229 52.4684 125.96C55.3685 125.745 56.2725 126.945 56.3621 127.571C56.4963 128.198 56.4158 129.263 55.0194 128.511Z" fill="#041C42"/>
<path d="M40.3849 151.202C43.0702 153.216 44.8156 153.484 45.7555 153.619C47.6888 153.941 50.3206 153.529 51.6632 153.887C53.0059 154.245 55.3958 155.901 54.2143 159.661C53.0327 163.42 49.4255 164.36 47.7695 164.36C45.6213 164.36 40.358 163.554 36.4912 160.332C32.6244 157.109 33.8954 153.529 35.0143 152.142C35.9094 151.157 38.2367 149.591 40.3849 151.202Z" fill="#041C42"/>
<path d="M35.8199 157.647C36.7598 159.526 42.1304 163.017 47.0982 163.017C47.0982 160.198 40.922 154.961 35.8199 157.647Z" fill="#5B7FA1"/>
<path d="M36.4913 139.252C36.4925 139.231 36.4939 139.21 36.4955 139.19C36.6575 137.022 39.9368 137.457 40.3347 139.594C40.4059 139.976 40.4292 140.399 40.385 140.863C40.3139 141.61 40.1136 142.112 39.8529 142.44C39.0534 143.448 37.4838 142.516 36.9228 141.359C36.6395 140.774 36.4438 140.059 36.4913 139.252Z" fill="#041C42"/>
<path d="M52.8787 134.822C52.8799 134.8 52.8813 134.78 52.8829 134.759C53.0449 132.592 56.3242 133.026 56.7221 135.163C56.7933 135.545 56.8166 135.968 56.7723 136.433C56.7013 137.179 56.5009 137.681 56.2403 138.009C55.4408 139.017 53.8712 138.085 53.3102 136.928C53.0269 136.343 52.8312 135.629 52.8787 134.822Z" fill="#041C42"/>
<path d="M6.68451 218.2V250H8.56422V218.2C8.56422 217.887 8.37625 217.26 7.62436 217.26C6.87248 217.26 6.68451 217.887 6.68451 218.2Z" fill="#041C42"/>
<path d="M292.724 112.496C286.935 100.596 275.481 104.59 270.479 108.074C263.644 93.6011 245.151 100.436 236.842 106.6C228.218 112.998 223.576 128.175 223.441 131.525C223.307 134.876 219.287 142.648 214.999 144.658C210.711 146.668 207.763 153.503 208.031 162.347C208.245 169.423 202.402 179.232 199.454 183.253C196.953 188.032 192.352 199.039 193.96 204.828C195.568 210.617 200.347 214.387 202.536 215.549L319.06 209.458V190.639C316.786 187.591 314.142 182.792 315.371 179.366C316.872 175.185 315.997 171.013 315.371 169.45C314.121 165.564 309.931 156.531 303.177 151.493C296.423 146.454 296.789 138.583 297.816 135.278C298.531 132.642 298.513 124.396 292.724 112.496Z" fill="#004079"/>
<path d="M310.145 193.973C295.243 178 278.921 175.346 272.623 176.016H254.397C244.883 177.669 226.882 183.421 214.463 195.715C201.062 208.982 189.85 235.471 189.403 249.721H319.06V206.367C316.489 201.841 313.529 197.601 310.145 193.973Z" fill="#041C42"/>
<path d="M259.222 191.293L254.263 175.882C251.905 176.204 248.724 177.088 247.429 177.49L257.882 201.21L282.003 176.954C278.572 175.668 274.409 175.704 272.757 175.882L259.222 191.293Z" fill="#155D9C"/>
<path d="M275.437 140.37C278.162 138.539 283.316 136.939 282.137 145.194C280.958 153.449 276.107 151.225 273.829 149.081L272.623 176.016L259.222 191.293L254.263 176.016L256.274 166.929C253.39 168.183 250.244 168.871 246.893 168.646C232.66 167.688 229.74 139.968 232.42 125.897L268.2 112.362L278.653 132.732L275.437 140.37Z" fill="#A0B6CB"/>
<path d="M252.119 122.011C263.805 121.796 267.396 115.042 268.87 111.826C267.451 118.393 267.843 124.289 269.406 126.701C271.148 129.389 272.623 129.381 274.499 131.257C277.286 134.045 276.285 138.494 275.437 140.37L282.807 136.752L268.87 110.352L230.276 122.279L230.812 137.288C233.045 132.285 240.434 122.225 252.119 122.011Z" fill="#004079"/>
<path d="M259.222 130.185C259.222 129.221 260.294 128.979 260.964 128.979C261.768 128.979 263.617 129.033 265.654 129.783C267.691 130.534 269.004 131.972 269.406 132.598C269.674 132.91 270.103 133.696 269.674 134.34C269.246 134.983 268.513 134.608 268.2 134.34C267.396 133.58 265.6 132.008 264.85 131.793C264.1 131.579 261.589 131.436 260.428 131.391C260.026 131.391 259.222 131.15 259.222 130.185Z" fill="#041C42"/>
<path d="M241.265 128.711C241.479 129.355 242.337 129.337 242.739 129.247C244.615 128.89 248.165 127.566 249.975 129.515C251.717 131.391 250.444 133.134 249.573 134.608C248.354 136.671 244.347 139.7 242.739 140.638C241.131 141.576 240.595 141.844 240.595 142.38C240.595 142.916 240.997 143.452 243.007 144.926C245.017 146.4 247.831 146.802 248.367 146.802C248.903 146.802 249.784 146.955 249.975 145.998C250.056 145.596 249.841 145.194 249.439 145.06L246.759 144.792C245.687 144.524 243.489 143.238 243.275 142.916C243.06 142.595 243.364 142.335 243.543 142.246C245.285 141.174 248.94 138.304 250.511 135.948C252.387 133.134 252.636 132.329 252.789 131.257C252.923 130.319 252.655 129.649 252.521 129.381C251.985 128.175 250.136 126.782 247.563 126.567C244.99 126.353 242.739 127.103 241.935 127.505C241.622 127.639 241.05 128.068 241.265 128.711Z" fill="#041C42"/>
<path d="M240.997 134.742C241.104 133.455 242.292 133.134 242.873 133.134C243.453 133.268 244.427 134.018 243.677 135.948C242.926 137.877 241.845 137.466 241.399 137.02C241.22 136.796 240.889 136.028 240.997 134.742Z" fill="#041C42"/>
<path d="M258.841 136.886C258.948 135.599 260.136 135.278 260.717 135.278C261.297 135.412 262.271 136.162 261.521 138.092C260.77 140.022 259.689 139.611 259.243 139.164C259.064 138.941 258.733 138.172 258.841 136.886Z" fill="#041C42"/>
<path d="M252.413 156.598C250.162 157.671 247.857 157.001 247.053 156.464C245.177 155.392 244.184 154.427 243.702 154.186C243.434 154.052 242.898 154.186 242.764 154.588C242.537 155.271 243.881 156.375 244.64 156.867C245.936 157.715 249.17 159.252 251.743 158.609C254.316 157.965 255.942 156.107 256.433 155.258C257.327 154.008 258.899 151.399 258.041 150.97C257.184 150.541 256.79 151.149 256.701 151.506C256.21 152.757 254.664 155.526 252.413 156.598Z" fill="#041C42"/>
<path d="M225.852 208.982V249.721H223.986V208.982C223.94 208.268 224.087 207.642 224.916 207.642C225.745 207.642 225.875 208.268 225.852 208.982Z" fill="#155D9C"/>
<path d="M298.751 208.982V249.721H296.886V208.982C296.84 208.268 296.986 207.642 297.815 207.642C298.644 207.642 298.774 208.268 298.751 208.982Z" fill="#155D9C"/>
</svg>
