<svg width="320" height="250" viewBox="0 0 320 250" fill="none" xmlns="http://www.w3.org/2000/svg">
<path d="M320 0H0V250H320V0Z" fill="#E9F2FF"/>
<path fill-rule="evenodd" clip-rule="evenodd" d="M156.181 13.2942V0H165.96V13.2942H249.24V0H259.325V13.2942H282.093C284.625 13.2942 286.678 15.3466 286.678 17.8784V78.6954C286.678 81.2272 284.625 83.2796 282.093 83.2796H136.01C133.478 83.2796 131.426 81.2272 131.426 78.6954V17.8784C131.426 15.3466 133.478 13.2942 136.01 13.2942H156.181Z" fill="#041C42"/>
<path d="M140.594 27.0466C140.594 24.5148 142.647 22.4624 145.179 22.4624H272.925C275.457 22.4624 277.509 24.5148 277.509 27.0466V69.5268C277.509 72.0586 275.457 74.111 272.925 74.111H145.179C142.647 74.111 140.594 72.0586 140.594 69.5268V27.0466Z" fill="#F6C254"/>
<path fill-rule="evenodd" clip-rule="evenodd" d="M230.598 34.5344C230.109 37.5905 232.431 39.1695 233.807 39.577C233.348 38.7621 232.695 36.5033 234.418 34.5344C236.557 32.0895 235.182 28.7278 233.501 27.3525C233.831 29.249 233.137 30.0776 232.333 31.0389C231.646 31.859 230.879 32.7756 230.598 34.5344ZM250.768 41.4107H216.845C216.845 47.3701 220.207 59.3502 233.654 59.5947C239.56 59.7021 243.559 57.3965 246.197 54.2546C252.345 60.1752 256.792 58.4596 258.256 56.8442C259.733 55.0614 262.106 50.4874 259.784 46.4533C257.588 42.6404 252.854 43.7145 250.406 44.876C250.64 43.6105 250.751 42.4275 250.768 41.4107ZM249.547 48.1638C249.109 49.4479 248.536 50.7438 247.804 51.9786C250.143 53.8544 254.614 56.3654 256.575 53.4824C258.653 50.4263 257.441 48.3379 256.575 47.6758C255.572 46.7732 252.782 45.6338 249.547 48.1638ZM215.928 61.1227H233.654H251.991C250.666 62.9564 245.145 66.5932 233.654 66.471C222.163 66.3487 217.049 62.8546 215.928 61.1227ZM179.713 30.4086L196.98 44.0084L201.259 47.3702L196.98 50.7319L179.713 64.9429L175.434 58.3722L186.589 50.7319H157.403V44.0084H186.589L175.434 38.813L179.713 30.4086Z" fill="#041C42" class="main-path"/>
<path d="M199.518 113.099C191.082 121.406 185.372 126.597 174.989 136.201L180.311 144.896C183.988 145.156 191.441 142.944 196.144 137.499C201.076 131.788 197.788 126.078 196.144 122.703C199.302 119.286 205.878 112.84 204.32 110.893C202.763 108.946 200.686 111.802 199.518 113.099Z" fill="#5B7FA1"/>
<path d="M101.313 203.87L119.223 249.942H27.0652H0C0.773292 227.471 18.3657 206.936 27.0652 199.478C40.439 189.846 55.0551 186.502 61.859 186.089L76.3947 184.402C96.3293 185.129 122.165 167.66 132.59 158.835C139.036 153.557 153.901 142.093 161.791 138.459C164.38 137.267 166.788 137.327 168.93 138.104L174.51 133.008L185.282 150.918L179.773 154.552C179.465 161.013 175.368 170.669 161.791 182.326C141.234 199.976 112.907 204.043 101.313 203.87Z" fill="#004079"/>
<path d="M50.7874 170.204C53.2792 169.685 53.7291 164.796 53.6426 162.417L49.3599 134.643L83.3629 129.193C87.2996 130.707 94.654 132.022 92.5774 125.169C90.5009 118.317 79.6857 115.479 74.5377 114.917C78.4831 113.671 80.9403 111.283 81.6757 110.244C82.9736 108.86 83.4927 105.858 75.1866 104.923C66.8805 103.989 59.3532 109.466 56.6277 112.321C58.2716 108.427 59.7685 101.497 52.6045 104.923C45.4405 108.35 43.3899 117.339 43.2601 121.406C41.9623 118.81 38.8993 115.929 37.0305 125.169C35.1616 134.41 41.1835 147.535 44.4281 152.943C45.5096 158.913 48.2956 170.723 50.7874 170.204Z" fill="#A1C9FF"/>
<path d="M41.3136 152.164C40.7944 146.973 44.9907 148.876 47.1538 150.477V132.567L68.5679 118.94L85.1801 128.933C96.9124 151.463 87.6459 168.344 81.5462 173.967C78.3238 174.572 75.3406 174.687 72.5912 174.421L75.8357 184.739C69.3985 190.554 63.0305 188.719 60.6512 187.076L53.071 163.585C50.5467 160.483 48.8472 157.272 47.9325 154.76C47.4134 156.109 46.678 156.793 46.3751 156.966C44.9042 157.528 41.8327 157.355 41.3136 152.164Z" fill="#5B7FA1"/>
<path d="M61.5596 170.074C65.1935 173.085 70.4281 174.184 72.5911 174.357L75.1868 182.663C66.7769 180.171 62.5979 173.232 61.5596 170.074Z" fill="#415C75"/>
<path d="M53.2534 154.241C50.3463 156.006 47.9756 152.467 47.1536 150.477L45.0771 131.788L67.9188 116.993L86.3479 125.169L86.4777 130.101C76.8219 128.751 70.5145 125.429 66.7508 123.872C68.0486 125.169 71.6825 127.505 70.5145 129.712C69.513 131.603 66.8373 131.053 65.7125 130.75C63.6793 130.404 58.8081 129.816 55.5895 130.231C52.3709 130.646 52.2584 133 52.6045 134.124C54.0321 140.094 56.1605 152.476 53.2534 154.241Z" fill="#A1C9FF"/>
<path d="M75.8355 184.739C70.2289 188.477 63.2033 187.422 60.3914 186.427C57.1728 186.738 55.5029 187.162 55.0703 187.335C55.9009 189.1 57.5794 190.753 58.3149 191.358C60.6509 192.959 66.8286 195.849 72.8505 194.603C78.8724 193.357 80.5509 187.422 80.6374 184.61C78.5609 184.739 77.6524 184.739 75.8355 184.739Z" fill="#041C42"/>
<path d="M66.4911 134.903C66.595 133.969 65.5827 133.621 64.4146 133.475C63.2465 133.329 61.9487 133.735 60.6509 134.254C59.353 134.773 58.2283 136.46 57.6659 137.239C57.2766 137.715 56.6277 138.771 57.1468 139.186C57.8724 139.766 58.6911 138.777 59.2681 138.048C61.4514 135.292 63.0858 135.292 63.8955 135.292C65.0635 135.292 66.3873 135.837 66.4911 134.903Z" fill="#041C42"/>
<path d="M80.2479 132.567C78.8982 131.84 77.5225 131.831 77.0033 131.918C74.7192 131.918 72.8503 133.821 72.2014 134.773C71.9418 135.811 71.5788 138.485 73.24 141.911C75.3165 146.194 77.8566 147.303 78.1714 147.492C78.8207 147.881 81.0266 148.141 80.1181 149.958C79.3913 151.411 77.1331 152.034 76.0949 152.164C75.446 152.207 74.1222 152.112 74.0183 151.385C73.9145 150.659 74.4942 150.65 74.797 150.736C75.0999 150.78 75.7834 150.866 76.0949 150.866C76.4846 150.866 77.4835 150.646 77.9118 150.217C78.3401 149.789 78.3015 149.439 77.9118 149.179C76.8736 148.487 74.1741 146.609 72.2014 143.079C70.2287 139.549 70.255 135.227 70.7738 134.124C71.9334 131.658 74.2779 130.361 77.782 130.101C80.5853 129.893 81.4592 131.053 81.5457 131.658C81.6755 132.264 81.5976 133.294 80.2479 132.567Z" fill="#041C42"/>
<path d="M66.1019 154.5C68.6975 156.447 70.3847 156.707 71.2932 156.836C73.162 157.148 75.7059 156.75 77.0037 157.096C78.3015 157.442 80.6117 159.043 79.4696 162.676C78.3275 166.31 74.8407 167.219 73.24 167.219C71.1635 167.219 66.0759 166.44 62.3382 163.325C58.6005 160.211 59.8291 156.75 60.9106 155.409C61.7758 154.457 64.0254 152.943 66.1019 154.5Z" fill="#041C42"/>
<path d="M61.6895 160.73C62.598 162.547 67.7893 165.921 72.5912 165.921C72.5912 163.196 66.6212 158.134 61.6895 160.73Z" fill="#5B7FA1"/>
<path d="M62.7278 144.927C62.469 144.373 62.2941 143.703 62.3384 142.95C62.4641 140.813 65.7034 141.229 66.064 143.338C66.1245 143.692 66.1426 144.082 66.1021 144.507C66.037 145.19 65.8599 145.661 65.6274 145.979C64.8676 147.017 63.2721 146.093 62.7278 144.927Z" fill="#041C42"/>
<path d="M78.5681 140.644C78.3093 140.09 78.1344 139.42 78.1788 138.667C78.3044 136.53 81.5438 136.946 81.9044 139.056C81.9648 139.409 81.9829 139.799 81.9424 140.224C81.8774 140.907 81.7003 141.379 81.4678 141.696C80.708 142.734 79.1124 141.81 78.5681 140.644Z" fill="#041C42"/>
<path d="M33.5264 219.262V250H35.3434V219.262C35.3434 218.959 35.1617 218.353 34.4349 218.353C33.7081 218.353 33.5264 218.959 33.5264 219.262Z" fill="#041C42"/>
<path d="M259.662 119.313C264.269 116.104 274.816 112.427 280.147 123.385C285.479 134.344 285.495 141.937 284.837 144.364C283.891 147.409 283.553 154.657 289.773 159.297C295.993 163.937 299.851 172.255 301.003 175.833C301.579 177.273 302.385 181.115 301.003 184.966C299.871 188.12 302.306 192.54 304.4 195.346C307.451 198.527 312.541 207.374 308.489 217.32L304.4 212.676L197.094 218.286C195.078 217.216 190.677 213.744 189.196 208.413C187.715 203.082 191.952 192.946 194.256 188.544C196.971 184.842 202.351 175.809 202.154 169.293C201.907 161.148 204.622 154.854 208.571 153.003C212.52 151.152 216.222 143.994 216.345 140.909C216.469 137.824 220.745 123.847 228.686 117.955C236.338 112.278 253.368 105.985 259.662 119.313Z" fill="#004079"/>
<path d="M261.636 181.88C267.436 181.263 282.467 183.707 296.19 198.417C299.307 201.758 302.032 205.662 304.4 209.831C309.6 219.062 320 239.972 320 249.755H304.4H185C185.411 236.632 195.736 212.239 208.077 200.021C219.513 188.699 236.091 183.402 244.853 181.88H261.636Z" fill="#041C42"/>
<path d="M249.295 195.949L244.729 181.757C242.557 182.053 239.628 182.868 238.435 183.238L248.061 205.081L270.275 182.744C267.115 181.559 263.281 181.592 261.759 181.757L249.295 195.949Z" fill="#155D9C"/>
<path d="M264.228 149.054C266.737 147.367 271.484 145.895 270.398 153.497C269.312 161.099 264.845 159.05 262.747 157.075L261.636 181.88L249.295 195.949L244.729 181.88L246.58 173.512C243.925 174.667 241.028 175.301 237.942 175.093C224.835 174.211 222.146 148.684 224.614 135.726L257.564 123.262L267.189 142.02L264.228 149.054Z" fill="#A0B6CB"/>
<path d="M242.755 132.147C253.516 131.95 256.823 125.73 258.181 122.768C256.873 128.815 257.235 134.245 258.674 136.466C260.279 138.942 261.636 138.935 263.364 140.662C265.931 143.229 265.009 147.326 264.228 149.054L271.015 145.722L258.181 121.411L222.639 132.394L223.133 146.216C225.19 141.608 231.994 132.345 242.755 132.147Z" fill="#004079"/>
<path d="M249.295 139.675C249.295 138.786 250.283 138.564 250.9 138.564C251.64 138.564 253.343 138.614 255.219 139.305C257.095 139.996 258.304 141.32 258.674 141.896C258.921 142.184 259.316 142.908 258.921 143.501C258.526 144.093 257.852 143.747 257.564 143.501C256.823 142.801 255.17 141.353 254.478 141.156C253.787 140.958 251.476 140.827 250.406 140.786C250.036 140.786 249.295 140.564 249.295 139.675Z" fill="#041C42"/>
<path d="M232.759 138.317C232.956 138.91 233.746 138.893 234.116 138.811C235.844 138.482 239.113 137.263 240.78 139.058C242.384 140.786 241.212 142.39 240.41 143.747C239.287 145.648 235.597 148.437 234.116 149.301C232.635 150.165 232.142 150.411 232.142 150.905C232.142 151.399 232.512 151.892 234.363 153.25C236.214 154.607 238.806 154.978 239.299 154.978C239.793 154.978 240.604 155.118 240.78 154.237C240.854 153.867 240.657 153.497 240.287 153.373L237.818 153.126C236.831 152.88 234.807 151.695 234.61 151.399C234.412 151.103 234.692 150.864 234.857 150.782C236.461 149.794 239.827 147.152 241.274 144.981C243.002 142.39 243.231 141.649 243.372 140.662C243.495 139.798 243.248 139.181 243.125 138.935C242.631 137.824 240.928 136.54 238.559 136.343C236.189 136.146 234.116 136.837 233.376 137.207C233.088 137.33 232.561 137.725 232.759 138.317Z" fill="#041C42"/>
<path d="M232.512 143.871C232.611 142.686 233.705 142.39 234.24 142.39C234.774 142.513 235.671 143.204 234.98 144.982C234.289 146.759 233.293 146.38 232.882 145.969C232.718 145.763 232.413 145.056 232.512 143.871Z" fill="#041C42"/>
<path d="M248.944 145.845C249.043 144.661 250.137 144.364 250.672 144.364C251.207 144.488 252.104 145.179 251.413 146.956C250.721 148.733 249.726 148.355 249.315 147.943C249.15 147.738 248.846 147.03 248.944 145.845Z" fill="#041C42"/>
<path d="M243.025 163.999C240.952 164.986 238.829 164.369 238.089 163.875C236.361 162.888 235.447 161.999 235.004 161.777C234.757 161.654 234.263 161.777 234.14 162.148C233.93 162.776 235.168 163.793 235.867 164.246C237.06 165.027 240.039 166.442 242.408 165.85C244.777 165.257 246.275 163.546 246.727 162.765C247.55 161.613 248.998 159.21 248.208 158.816C247.418 158.421 247.056 158.98 246.974 159.309C246.522 160.461 245.098 163.011 243.025 163.999Z" fill="#041C42"/>
<path d="M218.565 212.239V249.755H216.847V212.239C216.805 211.581 216.939 211.005 217.703 211.005C218.466 211.005 218.586 211.581 218.565 212.239Z" fill="#155D9C"/>
<path d="M285.698 212.239V249.755H283.98V212.239C283.937 211.581 284.072 211.005 284.836 211.005C285.599 211.005 285.719 211.581 285.698 212.239Z" fill="#155D9C"/>
</svg>
