<svg width="320" height="210" viewBox="0 0 320 210" fill="none" xmlns="http://www.w3.org/2000/svg">
<path d="M320 0H0V210H320V0Z" fill="#E9F2FF"/>
<path d="M15 30C15 24.4771 19.4771 20 25 20H295C300.523 20 305 24.4771 305 30V131C305 136.523 300.523 141 295 141H25C19.4772 141 15 136.523 15 131V30Z" fill="white"/>
<path d="M31.6094 47H29.1953V40.3906L29.2188 39.3047L29.2578 38.1172C28.8568 38.5182 28.5781 38.7812 28.4219 38.9062L27.1094 39.9609L25.9453 38.5078L29.625 35.5781H31.6094V47Z" fill="black"/>
<path d="M33.625 84H25.6406V82.3203L28.5078 79.4219C29.3568 78.5521 29.9115 77.9505 30.1719 77.6172C30.4323 77.2786 30.6198 76.9661 30.7344 76.6797C30.849 76.3932 30.9062 76.0964 30.9062 75.7891C30.9062 75.3307 30.7786 74.9896 30.5234 74.7656C30.2734 74.5417 29.9375 74.4297 29.5156 74.4297C29.0729 74.4297 28.6432 74.5312 28.2266 74.7344C27.8099 74.9375 27.375 75.2266 26.9219 75.6016L25.6094 74.0469C26.1719 73.5677 26.638 73.2292 27.0078 73.0312C27.3776 72.8333 27.7812 72.6823 28.2188 72.5781C28.6562 72.4688 29.1458 72.4141 29.6875 72.4141C30.401 72.4141 31.0312 72.5443 31.5781 72.8047C32.125 73.0651 32.5495 73.4297 32.8516 73.8984C33.1536 74.3672 33.3047 74.9036 33.3047 75.5078C33.3047 76.0339 33.2109 76.5286 33.0234 76.9922C32.8411 77.4505 32.5547 77.9219 32.1641 78.4062C31.7786 78.8906 31.0964 79.5807 30.1172 80.4766L28.6484 81.8594V81.9688H33.625V84Z" fill="black"/>
<path d="M33.1797 112.133C33.1797 112.846 32.9635 113.453 32.5312 113.953C32.099 114.453 31.4922 114.797 30.7109 114.984V115.031C31.6328 115.146 32.3307 115.427 32.8047 115.875C33.2786 116.318 33.5156 116.917 33.5156 117.672C33.5156 118.771 33.1172 119.628 32.3203 120.242C31.5234 120.852 30.3854 121.156 28.9062 121.156C27.6667 121.156 26.5677 120.951 25.6094 120.539V118.484C26.0521 118.708 26.5391 118.891 27.0703 119.031C27.6016 119.172 28.1276 119.242 28.6484 119.242C29.4453 119.242 30.0339 119.107 30.4141 118.836C30.7943 118.565 30.9844 118.13 30.9844 117.531C30.9844 116.995 30.7656 116.615 30.3281 116.391C29.8906 116.167 29.1927 116.055 28.2344 116.055H27.3672V114.203H28.25C29.1354 114.203 29.7812 114.088 30.1875 113.859C30.599 113.625 30.8047 113.227 30.8047 112.664C30.8047 111.799 30.263 111.367 29.1797 111.367C28.8047 111.367 28.4219 111.43 28.0312 111.555C27.6458 111.68 27.2161 111.896 26.7422 112.203L25.625 110.539C26.6667 109.789 27.9089 109.414 29.3516 109.414C30.5339 109.414 31.4661 109.654 32.1484 110.133C32.8359 110.612 33.1797 111.279 33.1797 112.133Z" fill="black"/>
<path d="M51.4141 47H45.6719L48.0859 35.5781H53.8281L53.5781 36.7734H49.1562L48.3906 40.4375H52.5078L52.2812 41.625H48.1484L47.2578 45.8125H51.6719L51.4141 47Z" fill="#B7B7B7"/>
<path d="M58.9297 44.5703C58.9297 45.3828 58.6406 46.0183 58.0625 46.4767C57.4896 46.9298 56.6797 47.1562 55.6328 47.1562C54.7526 47.1562 53.9583 46.9767 53.25 46.6173V45.3828C53.6146 45.6016 54.0078 45.7708 54.4297 45.8906C54.8516 46.0104 55.2422 46.0703 55.6016 46.0703C56.2578 46.0703 56.7526 45.9402 57.0859 45.6798C57.4193 45.4194 57.5859 45.086 57.5859 44.6798C57.5859 44.3829 57.4948 44.1329 57.3125 43.9298C57.1302 43.7267 56.737 43.4479 56.1328 43.0938C55.4557 42.7135 54.9766 42.3412 54.6953 41.9767C54.4141 41.6121 54.2734 41.1798 54.2734 40.6798C54.2734 39.961 54.5365 39.3828 55.0625 38.9453C55.5885 38.5026 56.2812 38.2812 57.1406 38.2812C58.0312 38.2812 58.8906 38.474 59.7188 38.8594L59.2969 39.9298L58.8594 39.7344C58.3333 39.5104 57.7604 39.3984 57.1406 39.3984C56.6562 39.3984 56.276 39.5131 56 39.7423C55.724 39.9662 55.5859 40.2579 55.5859 40.6173C55.5859 40.909 55.6771 41.159 55.8594 41.3673C56.0469 41.5756 56.4297 41.8438 57.0078 42.1719C57.5651 42.4844 57.9635 42.7527 58.2031 42.9767C58.4479 43.2006 58.6302 43.4427 58.75 43.7031C58.8698 43.9583 58.9297 44.2474 58.9297 44.5703Z" fill="#B7B7B7"/>
<path d="M64 47.1562C62.9896 47.1562 62.2057 46.8776 61.6484 46.3203C61.0911 45.763 60.8125 44.9766 60.8125 43.9609C60.8125 42.9193 61.0052 41.9583 61.3906 41.0781C61.776 40.1979 62.3073 39.513 62.9844 39.0234C63.6667 38.5286 64.4323 38.2812 65.2812 38.2812C65.9948 38.2812 66.6927 38.4142 67.375 38.6798L67.0078 39.7812C66.3828 39.5157 65.8125 39.3828 65.2969 39.3828C64.7135 39.3828 64.1797 39.5833 63.6953 39.9844C63.2161 40.3802 62.8385 40.9349 62.5625 41.6484C62.2917 42.3568 62.1562 43.1276 62.1562 43.9609C62.1562 44.6276 62.3281 45.1458 62.6719 45.5156C63.0208 45.8854 63.5 46.0703 64.1094 46.0703C64.4844 46.0703 64.8385 46.0183 65.1719 45.9142C65.5052 45.81 65.8333 45.6875 66.1562 45.5469V46.6642C65.5104 46.9923 64.7917 47.1562 64 47.1562Z" fill="#B7B7B7"/>
<path d="M73.125 38.2812C73.4844 38.2812 73.7969 38.3177 74.0625 38.3906L73.7812 39.5625C73.5052 39.4948 73.2318 39.4609 72.9609 39.4609C72.487 39.4609 72.0417 39.6173 71.625 39.9298C71.2135 40.2423 70.8516 40.6771 70.5391 41.2344C70.2318 41.7865 70.0052 42.401 69.8594 43.0781L69.0234 47H67.7109L69.5391 38.4375H70.625L70.4531 40.0234H70.5312C70.9062 39.5286 71.2161 39.1745 71.4609 38.9609C71.7057 38.7422 71.9609 38.5755 72.2266 38.4609C72.4974 38.3411 72.7969 38.2812 73.125 38.2812Z" fill="#B7B7B7"/>
<path d="M75.3672 47H74.0547L75.8828 38.4375H77.1953L75.3672 47ZM76.25 36.25C76.25 35.9583 76.3333 35.7214 76.5 35.5391C76.6667 35.3516 76.8828 35.2578 77.1484 35.2578C77.6068 35.2578 77.8359 35.4922 77.8359 35.9609C77.8359 36.2474 77.7474 36.4896 77.5703 36.6875C77.3984 36.8854 77.1979 36.9844 76.9688 36.9844C76.7604 36.9844 76.5885 36.9219 76.4531 36.7969C76.3177 36.6667 76.25 36.4844 76.25 36.25Z" fill="#B7B7B7"/>
<path d="M81.9141 47.1562C81.4089 47.1562 80.9635 47.0233 80.5781 46.7577C80.1979 46.4921 79.9115 46.1302 79.7188 45.6719H79.6406L79.0938 47H78.1172L80.6953 34.8438H82.0078C81.7422 36.1042 81.5365 37.0703 81.3906 37.7422C81.25 38.4089 81.0547 39.19 80.8047 40.0858H80.875C81.3594 39.4713 81.8359 39.0208 82.3047 38.7344C82.7786 38.4427 83.2656 38.2969 83.7656 38.2969C84.5 38.2969 85.0729 38.5546 85.4844 39.0702C85.8958 39.5858 86.1016 40.2942 86.1016 41.1952C86.1016 42.2838 85.9219 43.2916 85.5625 44.2188C85.2083 45.1406 84.7109 45.8619 84.0703 46.3827C83.4349 46.8983 82.7161 47.1562 81.9141 47.1562ZM83.3672 39.3827C82.8672 39.3827 82.3568 39.6302 81.8359 40.125C81.3203 40.6198 80.9089 41.2422 80.6016 41.9922C80.2995 42.7422 80.1484 43.5104 80.1484 44.2969C80.1484 44.8698 80.2917 45.3099 80.5781 45.6172C80.8698 45.9193 81.2891 46.0702 81.8359 46.0702C82.3516 46.0702 82.8307 45.8594 83.2734 45.4375C83.7214 45.0156 84.0807 44.4167 84.3516 43.6406C84.6224 42.8594 84.7578 42.0312 84.7578 41.1562C84.7578 39.974 84.2943 39.3827 83.3672 39.3827Z" fill="#B7B7B7"/>
<path d="M90.7345 47.1562C89.7761 47.1562 89.0235 46.8725 88.4767 46.3048C87.9298 45.7371 87.6562 44.9505 87.6562 43.9453C87.6562 42.9661 87.8491 42.0286 88.2345 41.1328C88.6251 40.2318 89.1406 39.5312 89.7812 39.0312C90.4219 38.5312 91.1277 38.2812 91.8985 38.2812C92.6954 38.2812 93.2944 38.4558 93.6954 38.8048C94.0965 39.1485 94.297 39.6302 94.297 40.25C94.297 41.1875 93.8647 41.9245 93.0001 42.4609C92.1355 42.9922 90.8985 43.2578 89.2892 43.2578H89.0312L89.0001 43.8828C89.0001 44.5651 89.159 45.099 89.4767 45.4844C89.7996 45.8646 90.297 46.0548 90.9689 46.0548C91.297 46.0548 91.6329 46.0079 91.9767 45.9142C92.3256 45.8204 92.7579 45.6484 93.2735 45.3984V46.5392C92.784 46.7683 92.3517 46.9271 91.9767 47.0156C91.6017 47.1094 91.1876 47.1562 90.7345 47.1562ZM91.8204 39.3984C91.284 39.3984 90.7787 39.6432 90.3048 40.1328C89.836 40.6224 89.4767 41.3021 89.2267 42.1719H89.3204C90.5079 42.1719 91.4168 42.0182 92.047 41.7109C92.6824 41.3984 93.0001 40.9479 93.0001 40.3594C93.0001 40.0833 92.9037 39.8542 92.711 39.6719C92.5235 39.4896 92.2267 39.3984 91.8204 39.3984Z" fill="#B7B7B7"/>
<path d="M102.781 47.1562C101.823 47.1562 101.07 46.8725 100.523 46.3048C99.9766 45.7371 99.7031 44.9505 99.7031 43.9453C99.7031 42.9661 99.8958 42.0286 100.281 41.1328C100.672 40.2318 101.188 39.5312 101.828 39.0312C102.469 38.5312 103.175 38.2812 103.945 38.2812C104.742 38.2812 105.341 38.4558 105.742 38.8048C106.143 39.1485 106.344 39.6302 106.344 40.25C106.344 41.1875 105.912 41.9245 105.047 42.4609C104.182 42.9922 102.945 43.2578 101.336 43.2578H101.078L101.047 43.8828C101.047 44.5651 101.206 45.099 101.523 45.4844C101.846 45.8646 102.344 46.0548 103.016 46.0548C103.344 46.0548 103.68 46.0079 104.023 45.9142C104.372 45.8204 104.805 45.6484 105.32 45.3984V46.5392C104.831 46.7683 104.398 46.9271 104.023 47.0156C103.648 47.1094 103.234 47.1562 102.781 47.1562ZM103.867 39.3984C103.331 39.3984 102.826 39.6432 102.352 40.1328C101.883 40.6224 101.523 41.3021 101.273 42.1719H101.367C102.555 42.1719 103.464 42.0182 104.094 41.7109C104.729 41.3984 105.047 40.9479 105.047 40.3594C105.047 40.0833 104.951 39.8542 104.758 39.6719C104.57 39.4896 104.273 39.3984 103.867 39.3984Z" fill="#B7B7B7"/>
<path d="M108.586 47H107.273L109.867 34.8438H111.18L108.586 47Z" fill="#B7B7B7"/>
<path d="M119.305 47.1562C118.799 47.1562 118.357 47.026 117.977 46.7656C117.596 46.5052 117.302 46.1406 117.094 45.6719H117.016L116.984 45.9688C116.969 46.099 116.94 46.2812 116.898 46.5156C116.862 46.75 116.565 48.1927 116.008 50.8438H114.711L117.336 38.4375H118.422L118.219 40.0703H118.281C119.214 38.888 120.182 38.2969 121.188 38.2969C121.901 38.2969 122.464 38.5521 122.875 39.0625C123.286 39.5677 123.492 40.2786 123.492 41.1953C123.492 42.2995 123.312 43.3125 122.953 44.2344C122.594 45.1562 122.096 45.875 121.461 46.3906C120.826 46.901 120.107 47.1562 119.305 47.1562ZM120.758 39.3828C120.258 39.3828 119.747 39.6302 119.227 40.125C118.711 40.6198 118.299 41.2422 117.992 41.9922C117.69 42.7422 117.539 43.5104 117.539 44.2969C117.539 44.8698 117.682 45.3099 117.969 45.6172C118.26 45.9193 118.68 46.0703 119.227 46.0703C119.742 46.0703 120.221 45.8594 120.664 45.4375C121.112 45.0156 121.471 44.4167 121.742 43.6406C122.013 42.8594 122.148 42.0312 122.148 41.1562C122.148 39.974 121.685 39.3828 120.758 39.3828Z" fill="#B7B7B7"/>
<path d="M129.273 38.2812C129.753 38.2812 130.18 38.4115 130.555 38.6719C130.93 38.9271 131.221 39.297 131.43 39.7812H131.516L132.039 38.4375H133.031L131.211 47H130.172L130.375 45.3673H130.312C129.38 46.56 128.398 47.1562 127.367 47.1562C126.643 47.1562 126.076 46.8984 125.664 46.3828C125.253 45.8672 125.047 45.1615 125.047 44.2656C125.047 43.1823 125.232 42.1771 125.602 41.25C125.971 40.3229 126.482 39.5964 127.133 39.0703C127.784 38.5443 128.497 38.2812 129.273 38.2812ZM127.789 46.0703C128.294 46.0703 128.797 45.8308 129.297 45.3517C129.797 44.8673 130.203 44.2396 130.516 43.4688C130.828 42.6927 130.984 41.9167 130.984 41.1406C130.984 40.6042 130.839 40.1771 130.547 39.8594C130.255 39.5417 129.872 39.3828 129.398 39.3828C128.857 39.3828 128.352 39.6069 127.883 40.0548C127.419 40.5027 127.055 41.1094 126.789 41.875C126.523 42.6406 126.391 43.4479 126.391 44.2969C126.391 44.8906 126.513 45.3359 126.758 45.6328C127.003 45.9245 127.346 46.0703 127.789 46.0703Z" fill="#B7B7B7"/>
<path d="M139.07 44.5703C139.07 45.3828 138.781 46.0183 138.203 46.4767C137.63 46.9298 136.82 47.1562 135.773 47.1562C134.893 47.1562 134.099 46.9767 133.391 46.6173V45.3828C133.755 45.6016 134.148 45.7708 134.57 45.8906C134.992 46.0104 135.383 46.0703 135.742 46.0703C136.398 46.0703 136.893 45.9402 137.227 45.6798C137.56 45.4194 137.727 45.086 137.727 44.6798C137.727 44.3829 137.635 44.1329 137.453 43.9298C137.271 43.7267 136.878 43.4479 136.273 43.0938C135.596 42.7135 135.117 42.3412 134.836 41.9767C134.555 41.6121 134.414 41.1798 134.414 40.6798C134.414 39.961 134.677 39.3828 135.203 38.9453C135.729 38.5026 136.422 38.2812 137.281 38.2812C138.172 38.2812 139.031 38.474 139.859 38.8594L139.438 39.9298L139 39.7344C138.474 39.5104 137.901 39.3984 137.281 39.3984C136.797 39.3984 136.417 39.5131 136.141 39.7423C135.865 39.9662 135.727 40.2579 135.727 40.6173C135.727 40.909 135.818 41.159 136 41.3673C136.188 41.5756 136.57 41.8438 137.148 42.1719C137.706 42.4844 138.104 42.7527 138.344 42.9767C138.589 43.2006 138.771 43.4427 138.891 43.7031C139.01 43.9583 139.07 44.2474 139.07 44.5703Z" fill="#B7B7B7"/>
<path d="M145.211 38.3281C146.201 38.3281 146.982 38.6224 147.555 39.2109C148.128 39.7943 148.414 40.599 148.414 41.625C148.414 42.6042 148.227 43.5286 147.852 44.3984C147.477 45.2682 146.969 45.9401 146.328 46.4141C145.688 46.888 144.964 47.125 144.156 47.125C143.156 47.125 142.372 46.8307 141.805 46.2422C141.237 45.6536 140.953 44.849 140.953 43.8281C140.953 42.8385 141.143 41.9089 141.523 41.0391C141.904 40.1641 142.417 39.4948 143.062 39.0312C143.708 38.5625 144.424 38.3281 145.211 38.3281ZM147.055 41.4453C147.055 40.8464 146.891 40.362 146.562 39.9922C146.24 39.6172 145.799 39.4297 145.242 39.4297C144.674 39.4297 144.164 39.6224 143.711 40.0078C143.263 40.3932 142.914 40.9297 142.664 41.6172C142.419 42.2995 142.297 43.0599 142.297 43.8984C142.297 44.5807 142.461 45.1094 142.789 45.4844C143.122 45.8542 143.599 46.0391 144.219 46.0391C144.76 46.0391 145.247 45.849 145.68 45.4688C146.112 45.0885 146.448 44.5495 146.688 43.8516C146.932 43.1484 147.055 42.3464 147.055 41.4453Z" fill="#B7B7B7"/>
<path d="M157.922 47H156.578L158.109 39.8672C158.417 38.5078 158.646 37.5729 158.797 37.0625C158.536 37.3385 158.174 37.6276 157.711 37.9297L156.32 38.7891L155.695 37.7969L159.203 35.5781H160.367L157.922 47Z" fill="#B7B7B7"/>
<path d="M51.4141 84H45.6719L48.0859 72.5781H53.8281L53.5781 73.7734H49.1562L48.3906 77.4375H52.5078L52.2812 78.625H48.1484L47.2578 82.8125H51.6719L51.4141 84Z" fill="#B7B7B7"/>
<path d="M58.9297 81.5704C58.9297 82.3829 58.6406 83.0183 58.0625 83.4767C57.4896 83.9298 56.6797 84.1562 55.6328 84.1562C54.7526 84.1562 53.9583 83.9766 53.25 83.6172V82.3829C53.6146 82.6017 54.0078 82.7708 54.4297 82.8906C54.8516 83.0104 55.2422 83.0704 55.6016 83.0704C56.2578 83.0704 56.7526 82.9401 57.0859 82.6797C57.4193 82.4193 57.5859 82.0859 57.5859 81.6797C57.5859 81.3828 57.4948 81.1328 57.3125 80.9297C57.1302 80.7266 56.737 80.4479 56.1328 80.0938C55.4557 79.7135 54.9766 79.3412 54.6953 78.9767C54.4141 78.6121 54.2734 78.1797 54.2734 77.6797C54.2734 76.9609 54.5365 76.3829 55.0625 75.9454C55.5885 75.5027 56.2812 75.2812 57.1406 75.2812C58.0312 75.2812 58.8906 75.4741 59.7188 75.8595L59.2969 76.9297L58.8594 76.7345C58.3333 76.5105 57.7604 76.3984 57.1406 76.3984C56.6562 76.3984 56.276 76.513 56 76.7422C55.724 76.9661 55.5859 77.2578 55.5859 77.6172C55.5859 77.9089 55.6771 78.1589 55.8594 78.3672C56.0469 78.5755 56.4297 78.8439 57.0078 79.172C57.5651 79.4845 57.9635 79.7527 58.2031 79.9767C58.4479 80.2006 58.6302 80.4427 58.75 80.7031C58.8698 80.9583 58.9297 81.2475 58.9297 81.5704Z" fill="#B7B7B7"/>
<path d="M64 84.1562C62.9896 84.1562 62.2057 83.8777 61.6484 83.3204C61.0911 82.7631 60.8125 81.9766 60.8125 80.9609C60.8125 79.9193 61.0052 78.9583 61.3906 78.0781C61.776 77.1979 62.3073 76.513 62.9844 76.0234C63.6667 75.5286 64.4323 75.2812 65.2812 75.2812C65.9948 75.2812 66.6927 75.4141 67.375 75.6797L67.0078 76.7812C66.3828 76.5157 65.8125 76.3829 65.2969 76.3829C64.7135 76.3829 64.1797 76.5834 63.6953 76.9845C63.2161 77.3803 62.8385 77.9349 62.5625 78.6484C62.2917 79.3568 62.1562 80.1276 62.1562 80.9609C62.1562 81.6276 62.3281 82.1458 62.6719 82.5156C63.0208 82.8854 63.5 83.0704 64.1094 83.0704C64.4844 83.0704 64.8385 83.0183 65.1719 82.9142C65.5052 82.81 65.8333 82.6876 66.1562 82.547V83.6642C65.5104 83.9923 64.7917 84.1562 64 84.1562Z" fill="#B7B7B7"/>
<path d="M73.125 75.2812C73.4844 75.2812 73.7969 75.3177 74.0625 75.3906L73.7812 76.5625C73.5052 76.4948 73.2318 76.4609 72.9609 76.4609C72.487 76.4609 72.0417 76.6172 71.625 76.9297C71.2135 77.2422 70.8516 77.6772 70.5391 78.2345C70.2318 78.7866 70.0052 79.401 69.8594 80.0781L69.0234 84H67.7109L69.5391 75.4375H70.625L70.4531 77.0234H70.5312C70.9062 76.5286 71.2161 76.1745 71.4609 75.9609C71.7057 75.7422 71.9609 75.5755 72.2266 75.4609C72.4974 75.3411 72.7969 75.2812 73.125 75.2812Z" fill="#B7B7B7"/>
<path d="M75.3672 84H74.0547L75.8828 75.4375H77.1953L75.3672 84ZM76.25 73.25C76.25 72.9583 76.3333 72.7214 76.5 72.5391C76.6667 72.3516 76.8828 72.2578 77.1484 72.2578C77.6068 72.2578 77.8359 72.4922 77.8359 72.9609C77.8359 73.2474 77.7474 73.4896 77.5703 73.6875C77.3984 73.8854 77.1979 73.9844 76.9688 73.9844C76.7604 73.9844 76.5885 73.9219 76.4531 73.7969C76.3177 73.6667 76.25 73.4844 76.25 73.25Z" fill="#B7B7B7"/>
<path d="M81.9141 84.1561C81.4089 84.1561 80.9635 84.0234 80.5781 83.7578C80.1979 83.4922 79.9115 83.1302 79.7188 82.6719H79.6406L79.0938 84H78.1172L80.6953 71.8438H82.0078C81.7422 73.1042 81.5365 74.0702 81.3906 74.7421C81.25 75.4088 81.0547 76.19 80.8047 77.0858H80.875C81.3594 76.4713 81.8359 76.0208 82.3047 75.7344C82.7786 75.4427 83.2656 75.2969 83.7656 75.2969C84.5 75.2969 85.0729 75.5547 85.4844 76.0703C85.8958 76.5859 86.1016 77.2943 86.1016 78.1953C86.1016 79.2839 85.9219 80.2916 85.5625 81.2188C85.2083 82.1406 84.7109 82.862 84.0703 83.3828C83.4349 83.8984 82.7161 84.1561 81.9141 84.1561ZM83.3672 76.3828C82.8672 76.3828 82.3568 76.6302 81.8359 77.125C81.3203 77.6198 80.9089 78.2421 80.6016 78.9921C80.2995 79.7421 80.1484 80.5104 80.1484 81.2969C80.1484 81.8698 80.2917 82.3098 80.5781 82.6171C80.8698 82.9192 81.2891 83.0703 81.8359 83.0703C82.3516 83.0703 82.8307 82.8594 83.2734 82.4375C83.7214 82.0156 84.0807 81.4166 84.3516 80.6405C84.6224 79.8593 84.7578 79.0312 84.7578 78.1562C84.7578 76.974 84.2943 76.3828 83.3672 76.3828Z" fill="#B7B7B7"/>
<path d="M90.7345 84.1562C89.7761 84.1562 89.0235 83.8724 88.4767 83.3047C87.9298 82.737 87.6562 81.9506 87.6562 80.9454C87.6562 79.9662 87.8491 79.0287 88.2345 78.1329C88.6251 77.2319 89.1406 76.5312 89.7812 76.0312C90.4219 75.5312 91.1277 75.2812 91.8985 75.2812C92.6954 75.2812 93.2944 75.4557 93.6954 75.8047C94.0965 76.1484 94.297 76.6302 94.297 77.25C94.297 78.1875 93.8647 78.9245 93.0001 79.4609C92.1355 79.9922 90.8985 80.2579 89.2892 80.2579H89.0312L89.0001 80.8829C89.0001 81.5652 89.159 82.0991 89.4767 82.4845C89.7996 82.8647 90.297 83.0547 90.9689 83.0547C91.297 83.0547 91.6329 83.0079 91.9767 82.9142C92.3256 82.8204 92.7579 82.6484 93.2735 82.3984V83.5392C92.784 83.7683 92.3517 83.9272 91.9767 84.0157C91.6017 84.1095 91.1876 84.1562 90.7345 84.1562ZM91.8204 76.3984C91.284 76.3984 90.7787 76.6433 90.3048 77.1329C89.836 77.6225 89.4767 78.3022 89.2267 79.172H89.3204C90.5079 79.172 91.4168 79.0182 92.047 78.7109C92.6824 78.3984 93.0001 77.948 93.0001 77.3595C93.0001 77.0834 92.9037 76.8543 92.711 76.672C92.5235 76.4897 92.2267 76.3984 91.8204 76.3984Z" fill="#B7B7B7"/>
<path d="M102.781 84.1562C101.823 84.1562 101.07 83.8724 100.523 83.3047C99.9766 82.737 99.7031 81.9506 99.7031 80.9454C99.7031 79.9662 99.8958 79.0287 100.281 78.1329C100.672 77.2319 101.188 76.5312 101.828 76.0312C102.469 75.5312 103.175 75.2812 103.945 75.2812C104.742 75.2812 105.341 75.4557 105.742 75.8047C106.143 76.1484 106.344 76.6302 106.344 77.25C106.344 78.1875 105.912 78.9245 105.047 79.4609C104.182 79.9922 102.945 80.2579 101.336 80.2579H101.078L101.047 80.8829C101.047 81.5652 101.206 82.0991 101.523 82.4845C101.846 82.8647 102.344 83.0547 103.016 83.0547C103.344 83.0547 103.68 83.0079 104.023 82.9142C104.372 82.8204 104.805 82.6484 105.32 82.3984V83.5392C104.831 83.7683 104.398 83.9272 104.023 84.0157C103.648 84.1095 103.234 84.1562 102.781 84.1562ZM103.867 76.3984C103.331 76.3984 102.826 76.6433 102.352 77.1329C101.883 77.6225 101.523 78.3022 101.273 79.172H101.367C102.555 79.172 103.464 79.0182 104.094 78.7109C104.729 78.3984 105.047 77.948 105.047 77.3595C105.047 77.0834 104.951 76.8543 104.758 76.672C104.57 76.4897 104.273 76.3984 103.867 76.3984Z" fill="#B7B7B7"/>
<path d="M108.586 84H107.273L109.867 71.8438H111.18L108.586 84Z" fill="#B7B7B7"/>
<path d="M119.305 84.1562C118.799 84.1562 118.357 84.026 117.977 83.7656C117.596 83.5052 117.302 83.1406 117.094 82.6719H117.016L116.984 82.9688C116.969 83.099 116.94 83.2812 116.898 83.5156C116.862 83.75 116.565 85.1927 116.008 87.8438H114.711L117.336 75.4375H118.422L118.219 77.0703H118.281C119.214 75.888 120.182 75.2969 121.188 75.2969C121.901 75.2969 122.464 75.5521 122.875 76.0625C123.286 76.5677 123.492 77.2786 123.492 78.1953C123.492 79.2995 123.312 80.3125 122.953 81.2344C122.594 82.1562 122.096 82.875 121.461 83.3906C120.826 83.901 120.107 84.1562 119.305 84.1562ZM120.758 76.3828C120.258 76.3828 119.747 76.6302 119.227 77.125C118.711 77.6198 118.299 78.2422 117.992 78.9922C117.69 79.7422 117.539 80.5104 117.539 81.2969C117.539 81.8698 117.682 82.3099 117.969 82.6172C118.26 82.9193 118.68 83.0703 119.227 83.0703C119.742 83.0703 120.221 82.8594 120.664 82.4375C121.112 82.0156 121.471 81.4167 121.742 80.6406C122.013 79.8594 122.148 79.0312 122.148 78.1562C122.148 76.974 121.685 76.3828 120.758 76.3828Z" fill="#B7B7B7"/>
<path d="M129.273 75.2812C129.753 75.2812 130.18 75.4116 130.555 75.672C130.93 75.9272 131.221 76.297 131.43 76.7812H131.516L132.039 75.4375H133.031L131.211 84H130.172L130.375 82.3672H130.312C129.38 83.5599 128.398 84.1562 127.367 84.1562C126.643 84.1562 126.076 83.8985 125.664 83.3829C125.253 82.8673 125.047 82.1615 125.047 81.2656C125.047 80.1823 125.232 79.1771 125.602 78.25C125.971 77.3229 126.482 76.5965 127.133 76.0704C127.784 75.5444 128.497 75.2812 129.273 75.2812ZM127.789 83.0704C128.294 83.0704 128.797 82.8308 129.297 82.3517C129.797 81.8673 130.203 81.2396 130.516 80.4688C130.828 79.6927 130.984 78.9167 130.984 78.1406C130.984 77.6042 130.839 77.1772 130.547 76.8595C130.255 76.5418 129.872 76.3829 129.398 76.3829C128.857 76.3829 128.352 76.6068 127.883 77.0547C127.419 77.5026 127.055 78.1094 126.789 78.875C126.523 79.6406 126.391 80.448 126.391 81.297C126.391 81.8907 126.513 82.336 126.758 82.6329C127.003 82.9246 127.346 83.0704 127.789 83.0704Z" fill="#B7B7B7"/>
<path d="M139.07 81.5704C139.07 82.3829 138.781 83.0183 138.203 83.4767C137.63 83.9298 136.82 84.1562 135.773 84.1562C134.893 84.1562 134.099 83.9766 133.391 83.6172V82.3829C133.755 82.6017 134.148 82.7708 134.57 82.8906C134.992 83.0104 135.383 83.0704 135.742 83.0704C136.398 83.0704 136.893 82.9401 137.227 82.6797C137.56 82.4193 137.727 82.0859 137.727 81.6797C137.727 81.3828 137.635 81.1328 137.453 80.9297C137.271 80.7266 136.878 80.4479 136.273 80.0938C135.596 79.7135 135.117 79.3412 134.836 78.9767C134.555 78.6121 134.414 78.1797 134.414 77.6797C134.414 76.9609 134.677 76.3829 135.203 75.9454C135.729 75.5027 136.422 75.2812 137.281 75.2812C138.172 75.2812 139.031 75.4741 139.859 75.8595L139.438 76.9297L139 76.7345C138.474 76.5105 137.901 76.3984 137.281 76.3984C136.797 76.3984 136.417 76.513 136.141 76.7422C135.865 76.9661 135.727 77.2578 135.727 77.6172C135.727 77.9089 135.818 78.1589 136 78.3672C136.188 78.5755 136.57 78.8439 137.148 79.172C137.706 79.4845 138.104 79.7527 138.344 79.9767C138.589 80.2006 138.771 80.4427 138.891 80.7031C139.01 80.9583 139.07 81.2475 139.07 81.5704Z" fill="#B7B7B7"/>
<path d="M145.211 75.3281C146.201 75.3281 146.982 75.6224 147.555 76.2109C148.128 76.7943 148.414 77.599 148.414 78.625C148.414 79.6042 148.227 80.5286 147.852 81.3984C147.477 82.2682 146.969 82.9401 146.328 83.4141C145.688 83.888 144.964 84.125 144.156 84.125C143.156 84.125 142.372 83.8307 141.805 83.2422C141.237 82.6536 140.953 81.849 140.953 80.8281C140.953 79.8385 141.143 78.9089 141.523 78.0391C141.904 77.1641 142.417 76.4948 143.062 76.0312C143.708 75.5625 144.424 75.3281 145.211 75.3281ZM147.055 78.4453C147.055 77.8464 146.891 77.362 146.562 76.9922C146.24 76.6172 145.799 76.4297 145.242 76.4297C144.674 76.4297 144.164 76.6224 143.711 77.0078C143.263 77.3932 142.914 77.9297 142.664 78.6172C142.419 79.2995 142.297 80.0599 142.297 80.8984C142.297 81.5807 142.461 82.1094 142.789 82.4844C143.122 82.8542 143.599 83.0391 144.219 83.0391C144.76 83.0391 145.247 82.849 145.68 82.4688C146.112 82.0885 146.448 81.5495 146.688 80.8516C146.932 80.1484 147.055 79.3464 147.055 78.4453Z" fill="#B7B7B7"/>
<path d="M160.445 84H153.422L153.664 82.8516L157.297 79.5703C157.828 79.0859 158.286 78.6615 158.672 78.2969C159.062 77.9271 159.383 77.5807 159.633 77.2578C159.888 76.9297 160.076 76.6068 160.195 76.2891C160.32 75.9661 160.383 75.6094 160.383 75.2188C160.383 74.7031 160.227 74.2943 159.914 73.9922C159.602 73.6901 159.177 73.5391 158.641 73.5391C158.24 73.5391 157.846 73.6146 157.461 73.7656C157.081 73.9115 156.659 74.1615 156.195 74.5156L155.555 73.6172C156.549 72.8151 157.625 72.4141 158.781 72.4141C159.698 72.4141 160.422 72.6458 160.953 73.1094C161.49 73.5677 161.758 74.2005 161.758 75.0078C161.758 75.5859 161.654 76.1172 161.445 76.6016C161.242 77.0859 160.901 77.599 160.422 78.1406C159.948 78.6823 159.182 79.4141 158.125 80.3359L155.375 82.7344V82.7969H160.672L160.445 84Z" fill="#B7B7B7"/>
<path d="M51.4141 121H45.6719L48.0859 109.578H53.8281L53.5781 110.773H49.1562L48.3906 114.438H52.5078L52.2812 115.625H48.1484L47.2578 119.813H51.6719L51.4141 121Z" fill="#B7B7B7"/>
<path d="M58.9297 118.57C58.9297 119.383 58.6406 120.018 58.0625 120.477C57.4896 120.93 56.6797 121.156 55.6328 121.156C54.7526 121.156 53.9583 120.977 53.25 120.617V119.383C53.6146 119.602 54.0078 119.771 54.4297 119.891C54.8516 120.01 55.2422 120.07 55.6016 120.07C56.2578 120.07 56.7526 119.94 57.0859 119.68C57.4193 119.419 57.5859 119.086 57.5859 118.68C57.5859 118.383 57.4948 118.133 57.3125 117.93C57.1302 117.727 56.737 117.448 56.1328 117.094C55.4557 116.714 54.9766 116.341 54.6953 115.977C54.4141 115.612 54.2734 115.18 54.2734 114.68C54.2734 113.961 54.5365 113.383 55.0625 112.945C55.5885 112.503 56.2812 112.281 57.1406 112.281C58.0312 112.281 58.8906 112.474 59.7188 112.859L59.2969 113.93L58.8594 113.734C58.3333 113.51 57.7604 113.398 57.1406 113.398C56.6562 113.398 56.276 113.513 56 113.742C55.724 113.966 55.5859 114.258 55.5859 114.617C55.5859 114.909 55.6771 115.159 55.8594 115.367C56.0469 115.576 56.4297 115.844 57.0078 116.172C57.5651 116.484 57.9635 116.753 58.2031 116.977C58.4479 117.201 58.6302 117.443 58.75 117.703C58.8698 117.958 58.9297 118.247 58.9297 118.57Z" fill="#B7B7B7"/>
<path d="M64 121.156C62.9896 121.156 62.2057 120.878 61.6484 120.32C61.0911 119.763 60.8125 118.977 60.8125 117.961C60.8125 116.919 61.0052 115.958 61.3906 115.078C61.776 114.198 62.3073 113.513 62.9844 113.023C63.6667 112.529 64.4323 112.281 65.2812 112.281C65.9948 112.281 66.6927 112.414 67.375 112.68L67.0078 113.781C66.3828 113.516 65.8125 113.383 65.2969 113.383C64.7135 113.383 64.1797 113.583 63.6953 113.984C63.2161 114.38 62.8385 114.935 62.5625 115.648C62.2917 116.357 62.1562 117.128 62.1562 117.961C62.1562 118.628 62.3281 119.146 62.6719 119.516C63.0208 119.885 63.5 120.07 64.1094 120.07C64.4844 120.07 64.8385 120.018 65.1719 119.914C65.5052 119.81 65.8333 119.688 66.1562 119.547V120.664C65.5104 120.992 64.7917 121.156 64 121.156Z" fill="#B7B7B7"/>
<path d="M73.125 112.281C73.4844 112.281 73.7969 112.318 74.0625 112.391L73.7812 113.563C73.5052 113.495 73.2318 113.461 72.9609 113.461C72.487 113.461 72.0417 113.617 71.625 113.93C71.2135 114.242 70.8516 114.677 70.5391 115.234C70.2318 115.787 70.0052 116.401 69.8594 117.078L69.0234 121H67.7109L69.5391 112.438H70.625L70.4531 114.023H70.5312C70.9062 113.529 71.2161 113.175 71.4609 112.961C71.7057 112.742 71.9609 112.576 72.2266 112.461C72.4974 112.341 72.7969 112.281 73.125 112.281Z" fill="#B7B7B7"/>
<path d="M75.3672 121H74.0547L75.8828 112.438H77.1953L75.3672 121ZM76.25 110.25C76.25 109.958 76.3333 109.721 76.5 109.539C76.6667 109.352 76.8828 109.258 77.1484 109.258C77.6068 109.258 77.8359 109.492 77.8359 109.961C77.8359 110.247 77.7474 110.49 77.5703 110.688C77.3984 110.885 77.1979 110.984 76.9688 110.984C76.7604 110.984 76.5885 110.922 76.4531 110.797C76.3177 110.667 76.25 110.484 76.25 110.25Z" fill="#B7B7B7"/>
<path d="M81.9141 121.156C81.4089 121.156 80.9635 121.023 80.5781 120.758C80.1979 120.492 79.9115 120.13 79.7188 119.672H79.6406L79.0938 121H78.1172L80.6953 108.844H82.0078C81.7422 110.104 81.5365 111.07 81.3906 111.742C81.25 112.409 81.0547 113.19 80.8047 114.086H80.875C81.3594 113.471 81.8359 113.021 82.3047 112.734C82.7786 112.443 83.2656 112.297 83.7656 112.297C84.5 112.297 85.0729 112.555 85.4844 113.07C85.8958 113.586 86.1016 114.294 86.1016 115.195C86.1016 116.284 85.9219 117.292 85.5625 118.219C85.2083 119.141 84.7109 119.862 84.0703 120.383C83.4349 120.898 82.7161 121.156 81.9141 121.156ZM83.3672 113.383C82.8672 113.383 82.3568 113.63 81.8359 114.125C81.3203 114.62 80.9089 115.242 80.6016 115.992C80.2995 116.742 80.1484 117.51 80.1484 118.297C80.1484 118.87 80.2917 119.31 80.5781 119.617C80.8698 119.919 81.2891 120.07 81.8359 120.07C82.3516 120.07 82.8307 119.859 83.2734 119.437C83.7214 119.016 84.0807 118.417 84.3516 117.641C84.6224 116.859 84.7578 116.031 84.7578 115.156C84.7578 113.974 84.2943 113.383 83.3672 113.383Z" fill="#B7B7B7"/>
<path d="M90.7345 121.156C89.7761 121.156 89.0235 120.872 88.4767 120.305C87.9298 119.737 87.6562 118.951 87.6562 117.945C87.6562 116.966 87.8491 116.029 88.2345 115.133C88.6251 114.232 89.1406 113.531 89.7812 113.031C90.4219 112.531 91.1277 112.281 91.8985 112.281C92.6954 112.281 93.2944 112.456 93.6954 112.805C94.0965 113.148 94.297 113.63 94.297 114.25C94.297 115.188 93.8647 115.925 93.0001 116.461C92.1355 116.992 90.8985 117.258 89.2892 117.258H89.0312L89.0001 117.883C89.0001 118.565 89.159 119.099 89.4767 119.484C89.7996 119.865 90.297 120.055 90.9689 120.055C91.297 120.055 91.6329 120.008 91.9767 119.914C92.3256 119.82 92.7579 119.648 93.2735 119.398V120.539C92.784 120.768 92.3517 120.927 91.9767 121.016C91.6017 121.109 91.1876 121.156 90.7345 121.156ZM91.8204 113.398C91.284 113.398 90.7787 113.643 90.3048 114.133C89.836 114.622 89.4767 115.302 89.2267 116.172H89.3204C90.5079 116.172 91.4168 116.018 92.047 115.711C92.6824 115.398 93.0001 114.948 93.0001 114.359C93.0001 114.083 92.9037 113.854 92.711 113.672C92.5235 113.49 92.2267 113.398 91.8204 113.398Z" fill="#B7B7B7"/>
<path d="M102.781 121.156C101.823 121.156 101.07 120.872 100.523 120.305C99.9766 119.737 99.7031 118.951 99.7031 117.945C99.7031 116.966 99.8958 116.029 100.281 115.133C100.672 114.232 101.188 113.531 101.828 113.031C102.469 112.531 103.175 112.281 103.945 112.281C104.742 112.281 105.341 112.456 105.742 112.805C106.143 113.148 106.344 113.63 106.344 114.25C106.344 115.188 105.912 115.925 105.047 116.461C104.182 116.992 102.945 117.258 101.336 117.258H101.078L101.047 117.883C101.047 118.565 101.206 119.099 101.523 119.484C101.846 119.865 102.344 120.055 103.016 120.055C103.344 120.055 103.68 120.008 104.023 119.914C104.372 119.82 104.805 119.648 105.32 119.398V120.539C104.831 120.768 104.398 120.927 104.023 121.016C103.648 121.109 103.234 121.156 102.781 121.156ZM103.867 113.398C103.331 113.398 102.826 113.643 102.352 114.133C101.883 114.622 101.523 115.302 101.273 116.172H101.367C102.555 116.172 103.464 116.018 104.094 115.711C104.729 115.398 105.047 114.948 105.047 114.359C105.047 114.083 104.951 113.854 104.758 113.672C104.57 113.49 104.273 113.398 103.867 113.398Z" fill="#B7B7B7"/>
<path d="M108.586 121H107.273L109.867 108.844H111.18L108.586 121Z" fill="#B7B7B7"/>
<path d="M119.305 121.156C118.799 121.156 118.357 121.026 117.977 120.766C117.596 120.505 117.302 120.141 117.094 119.672H117.016L116.984 119.969C116.969 120.099 116.94 120.281 116.898 120.516C116.862 120.75 116.565 122.193 116.008 124.844H114.711L117.336 112.437H118.422L118.219 114.07H118.281C119.214 112.888 120.182 112.297 121.188 112.297C121.901 112.297 122.464 112.552 122.875 113.062C123.286 113.568 123.492 114.279 123.492 115.195C123.492 116.299 123.312 117.312 122.953 118.234C122.594 119.156 122.096 119.875 121.461 120.391C120.826 120.901 120.107 121.156 119.305 121.156ZM120.758 113.383C120.258 113.383 119.747 113.63 119.227 114.125C118.711 114.62 118.299 115.242 117.992 115.992C117.69 116.742 117.539 117.51 117.539 118.297C117.539 118.87 117.682 119.31 117.969 119.617C118.26 119.919 118.68 120.07 119.227 120.07C119.742 120.07 120.221 119.859 120.664 119.437C121.112 119.016 121.471 118.417 121.742 117.641C122.013 116.859 122.148 116.031 122.148 115.156C122.148 113.974 121.685 113.383 120.758 113.383Z" fill="#B7B7B7"/>
<path d="M129.273 112.281C129.753 112.281 130.18 112.412 130.555 112.672C130.93 112.927 131.221 113.297 131.43 113.781H131.516L132.039 112.438H133.031L131.211 121H130.172L130.375 119.367H130.312C129.38 120.56 128.398 121.156 127.367 121.156C126.643 121.156 126.076 120.898 125.664 120.383C125.253 119.867 125.047 119.162 125.047 118.266C125.047 117.182 125.232 116.177 125.602 115.25C125.971 114.323 126.482 113.596 127.133 113.07C127.784 112.544 128.497 112.281 129.273 112.281ZM127.789 120.07C128.294 120.07 128.797 119.831 129.297 119.352C129.797 118.867 130.203 118.24 130.516 117.469C130.828 116.693 130.984 115.917 130.984 115.141C130.984 114.604 130.839 114.177 130.547 113.859C130.255 113.542 129.872 113.383 129.398 113.383C128.857 113.383 128.352 113.607 127.883 114.055C127.419 114.503 127.055 115.109 126.789 115.875C126.523 116.641 126.391 117.448 126.391 118.297C126.391 118.891 126.513 119.336 126.758 119.633C127.003 119.925 127.346 120.07 127.789 120.07Z" fill="#B7B7B7"/>
<path d="M139.07 118.57C139.07 119.383 138.781 120.018 138.203 120.477C137.63 120.93 136.82 121.156 135.773 121.156C134.893 121.156 134.099 120.977 133.391 120.617V119.383C133.755 119.602 134.148 119.771 134.57 119.891C134.992 120.01 135.383 120.07 135.742 120.07C136.398 120.07 136.893 119.94 137.227 119.68C137.56 119.419 137.727 119.086 137.727 118.68C137.727 118.383 137.635 118.133 137.453 117.93C137.271 117.727 136.878 117.448 136.273 117.094C135.596 116.714 135.117 116.341 134.836 115.977C134.555 115.612 134.414 115.18 134.414 114.68C134.414 113.961 134.677 113.383 135.203 112.945C135.729 112.503 136.422 112.281 137.281 112.281C138.172 112.281 139.031 112.474 139.859 112.859L139.438 113.93L139 113.734C138.474 113.51 137.901 113.398 137.281 113.398C136.797 113.398 136.417 113.513 136.141 113.742C135.865 113.966 135.727 114.258 135.727 114.617C135.727 114.909 135.818 115.159 136 115.367C136.188 115.576 136.57 115.844 137.148 116.172C137.706 116.484 138.104 116.753 138.344 116.977C138.589 117.201 138.771 117.443 138.891 117.703C139.01 117.958 139.07 118.247 139.07 118.57Z" fill="#B7B7B7"/>
<path d="M145.211 112.328C146.201 112.328 146.982 112.622 147.555 113.211C148.128 113.794 148.414 114.599 148.414 115.625C148.414 116.604 148.227 117.529 147.852 118.398C147.477 119.268 146.969 119.94 146.328 120.414C145.688 120.888 144.964 121.125 144.156 121.125C143.156 121.125 142.372 120.831 141.805 120.242C141.237 119.654 140.953 118.849 140.953 117.828C140.953 116.839 141.143 115.909 141.523 115.039C141.904 114.164 142.417 113.495 143.062 113.031C143.708 112.563 144.424 112.328 145.211 112.328ZM147.055 115.445C147.055 114.846 146.891 114.362 146.562 113.992C146.24 113.617 145.799 113.43 145.242 113.43C144.674 113.43 144.164 113.622 143.711 114.008C143.263 114.393 142.914 114.93 142.664 115.617C142.419 116.3 142.297 117.06 142.297 117.898C142.297 118.581 142.461 119.109 142.789 119.484C143.122 119.854 143.599 120.039 144.219 120.039C144.76 120.039 145.247 119.849 145.68 119.469C146.112 119.089 146.448 118.55 146.688 117.852C146.932 117.148 147.055 116.346 147.055 115.445Z" fill="#B7B7B7"/>
<path d="M161.711 111.945C161.711 112.758 161.448 113.448 160.922 114.016C160.396 114.578 159.667 114.943 158.734 115.109V115.18C159.38 115.299 159.888 115.578 160.258 116.016C160.628 116.448 160.812 116.99 160.812 117.641C160.812 118.333 160.651 118.945 160.328 119.477C160.005 120.003 159.534 120.414 158.914 120.711C158.294 121.008 157.557 121.156 156.703 121.156C155.609 121.156 154.607 120.951 153.695 120.539V119.258C154.185 119.513 154.703 119.711 155.25 119.852C155.797 119.987 156.292 120.055 156.734 120.055C157.578 120.055 158.234 119.849 158.703 119.437C159.172 119.021 159.406 118.453 159.406 117.734C159.406 117.052 159.201 116.536 158.789 116.187C158.378 115.833 157.805 115.656 157.07 115.656H156.047L156.289 114.539H157.375C158.234 114.539 158.948 114.312 159.516 113.859C160.083 113.406 160.367 112.815 160.367 112.086C160.367 111.607 160.216 111.227 159.914 110.945C159.612 110.664 159.203 110.523 158.688 110.523C158.271 110.523 157.862 110.594 157.461 110.734C157.06 110.875 156.604 111.117 156.094 111.461L155.469 110.539C156.484 109.789 157.589 109.414 158.781 109.414C159.714 109.414 160.435 109.641 160.945 110.094C161.456 110.547 161.711 111.164 161.711 111.945Z" fill="#B7B7B7"/>
<path d="M45 56.5H295" stroke="#B7B7B7"/>
<path d="M45 93.5H295" stroke="#B7B7B7"/>
<path d="M45 130.5H295" stroke="#B7B7B7"/>
<path d="M202.856 121.216C205.173 129.317 212.003 134.752 215.128 136.457L185.383 168.412C184.458 167.767 181.516 165.616 177.147 162.172C171.686 157.867 164.441 159.998 157.315 157.163C151.614 154.895 146.099 149.248 144.053 146.708C140.608 145.088 134.197 140.406 136.117 134.633C138.036 128.86 144.367 129.837 147.292 131.047C143.122 129.277 135.522 124.348 138.485 118.792C141.449 113.235 147.751 114.205 150.531 115.385C146.651 113.675 139.475 108.744 141.814 102.695C144.154 96.6461 149.49 97.0237 151.865 97.9686L130.097 82.5791C126.541 80.0291 120.588 73.7171 125.22 68.8683C129.852 64.0195 135.861 67.1373 138.286 69.3023L175.912 97.9517C173.601 91.5763 171.17 84.7224 170.03 78.1354C168.808 71.0779 173.728 67.2863 180.95 73.5892C195.938 86.6691 199.96 111.091 202.856 121.216Z" fill="#A1C9FF"/>
<path d="M211.378 129.385L220.111 137.451C239.49 133.001 257.541 141.939 276.373 156.908C297.257 173.508 319.922 209.999 319.922 209.999H197.007C187.477 195.644 187.41 186.097 187.41 174.081L178.331 166.293L211.378 129.385Z" fill="#004079"/>
</svg>
