<svg width="320" height="210" viewBox="0 0 320 210" fill="none" xmlns="http://www.w3.org/2000/svg">
<path d="M320 0H0V210H320V0Z" fill="#E9F2FF"/>
<path d="M251.973 87H246.319V77.0059H251.973V78.3867H247.953V81.1074H251.72V82.4746H247.953V85.6123H251.973V87ZM260.62 87H259.007V82.3516C259.007 81.7682 258.888 81.333 258.651 81.0459C258.419 80.7588 258.048 80.6152 257.537 80.6152C256.858 80.6152 256.361 80.8158 256.047 81.2168C255.732 81.6178 255.575 82.29 255.575 83.2334V87H253.969V79.4395H255.227L255.452 80.4307H255.534C255.762 80.0706 256.086 79.7926 256.505 79.5967C256.924 79.4007 257.389 79.3027 257.899 79.3027C259.713 79.3027 260.62 80.2256 260.62 82.0713V87ZM264.578 87L261.707 79.4395H263.402L264.94 83.835C265.205 84.5732 265.364 85.1702 265.419 85.626H265.474C265.515 85.2979 265.674 84.7008 265.952 83.835L267.49 79.4395H269.199L266.314 87H264.578ZM271.954 87H270.348V79.4395H271.954V87ZM270.252 77.4365C270.252 77.1494 270.329 76.9284 270.484 76.7734C270.644 76.6185 270.869 76.541 271.161 76.541C271.444 76.541 271.662 76.6185 271.817 76.7734C271.977 76.9284 272.057 77.1494 272.057 77.4365C272.057 77.71 271.977 77.9264 271.817 78.0859C271.662 78.2409 271.444 78.3184 271.161 78.3184C270.869 78.3184 270.644 78.2409 270.484 78.0859C270.329 77.9264 270.252 77.71 270.252 77.4365ZM278.988 87L278.667 85.9473H278.612C278.248 86.4076 277.881 86.722 277.512 86.8906C277.143 87.0547 276.669 87.1367 276.09 87.1367C275.347 87.1367 274.766 86.9362 274.347 86.5352C273.932 86.1341 273.725 85.5667 273.725 84.833C273.725 84.0537 274.014 83.4658 274.593 83.0693C275.172 82.6729 276.053 82.4564 277.238 82.4199L278.544 82.3789V81.9756C278.544 81.4925 278.43 81.1325 278.202 80.8955C277.979 80.654 277.63 80.5332 277.156 80.5332C276.769 80.5332 276.397 80.5902 276.042 80.7041C275.687 80.818 275.345 80.9525 275.017 81.1074L274.497 79.959C274.907 79.7448 275.356 79.583 275.844 79.4736C276.331 79.3597 276.792 79.3027 277.225 79.3027C278.186 79.3027 278.911 79.5124 279.398 79.9316C279.891 80.3509 280.137 81.0094 280.137 81.9072V87H278.988ZM276.596 85.9062C277.179 85.9062 277.646 85.7445 277.997 85.4209C278.353 85.0928 278.53 84.6348 278.53 84.0469V83.3906L277.56 83.4316C276.803 83.459 276.252 83.5866 275.905 83.8145C275.563 84.0378 275.393 84.3818 275.393 84.8467C275.393 85.1839 275.493 85.446 275.693 85.6328C275.894 85.8151 276.195 85.9062 276.596 85.9062ZM286.214 79.3027C286.537 79.3027 286.804 79.3255 287.014 79.3711L286.856 80.8682C286.629 80.8135 286.392 80.7861 286.146 80.7861C285.503 80.7861 284.981 80.9958 284.58 81.415C284.184 81.8343 283.985 82.3789 283.985 83.0488V87H282.379V79.4395H283.637L283.849 80.7725H283.931C284.181 80.3213 284.507 79.9635 284.908 79.6992C285.314 79.4349 285.749 79.3027 286.214 79.3027Z" fill="#041C42"/>
<path d="M20 69C20 66.2386 22.2386 64 25 64H217C219.761 64 222 66.2386 222 69V94C222 96.7614 219.761 99 217 99H25C22.2386 99 20 96.7614 20 94V69Z" fill="white"/>
<path d="M232.5 69C232.5 66.5147 234.515 64.5 237 64.5H295C297.485 64.5 299.5 66.5147 299.5 69V94C299.5 96.4853 297.485 98.5 295 98.5H237C234.515 98.5 232.5 96.4853 232.5 94V69Z" stroke="#041C42"/>
<path d="M40.6123 87H35.5879L37.7002 77.0059H42.7246L42.5059 78.0518H38.6367L37.9668 81.2578H41.5693L41.3711 82.2969H37.7549L36.9756 85.9609H40.8379L40.6123 87Z" fill="#041C42"/>
<path d="M47.1884 84.874C47.1884 85.585 46.9355 86.141 46.4297 86.542C45.9284 86.9385 45.2196 87.1367 44.3036 87.1367C43.5334 87.1367 42.8385 86.9795 42.2188 86.665V85.585C42.5378 85.7764 42.8817 85.9245 43.2509 86.0293C43.62 86.1341 43.9619 86.1865 44.2764 86.1865C44.8505 86.1865 45.2834 86.0726 45.5751 85.8447C45.8668 85.6169 46.0126 85.3252 46.0126 84.9697C46.0126 84.71 45.9328 84.4912 45.7733 84.3135C45.6138 84.1357 45.2698 83.8919 44.7411 83.582C44.1487 83.2493 43.7295 82.9235 43.4834 82.6045C43.2373 82.2855 43.1143 81.9072 43.1143 81.4697C43.1143 80.8408 43.3444 80.335 43.8047 79.9521C44.265 79.5648 44.871 79.3711 45.6229 79.3711C46.4022 79.3711 47.1543 79.5397 47.8789 79.877L47.5098 80.8135L47.127 80.6426C46.6667 80.4466 46.1653 80.3486 45.6229 80.3486C45.1991 80.3486 44.8665 80.4489 44.625 80.6494C44.3835 80.8454 44.2626 81.1006 44.2626 81.415C44.2626 81.6702 44.3424 81.889 44.502 82.0713C44.666 82.2536 45.001 82.4883 45.5068 82.7754C45.9945 83.0488 46.3431 83.2835 46.5527 83.4795C46.7669 83.6755 46.9264 83.8874 47.0312 84.1152C47.1361 84.3385 47.1884 84.5915 47.1884 84.874Z" fill="#041C42"/>
<path d="M51.625 87.1367C50.7409 87.1367 50.055 86.8929 49.5674 86.4053C49.0798 85.9176 48.8359 85.2295 48.8359 84.3408C48.8359 83.4294 49.0046 82.5885 49.3418 81.8184C49.679 81.0482 50.1439 80.4489 50.7363 80.0205C51.3333 79.5876 52.0033 79.3711 52.7461 79.3711C53.3704 79.3711 53.9811 79.4873 54.5781 79.7197L54.2568 80.6836C53.71 80.4512 53.2109 80.335 52.7598 80.335C52.2493 80.335 51.7822 80.5104 51.3584 80.8613C50.9391 81.2077 50.6087 81.693 50.3672 82.3174C50.1302 82.9372 50.0117 83.6117 50.0117 84.3408C50.0117 84.9242 50.1621 85.3776 50.4629 85.7012C50.7682 86.0247 51.1875 86.1865 51.7207 86.1865C52.0488 86.1865 52.3587 86.141 52.6504 86.0498C52.9421 85.9587 53.2292 85.8516 53.5117 85.7285V86.7061C52.9466 86.9932 52.3177 87.1367 51.625 87.1367Z" fill="#041C42"/>
<path d="M59.6094 79.3711C59.9238 79.3711 60.1973 79.403 60.4297 79.4668L60.1836 80.4922C59.9421 80.4329 59.7028 80.4033 59.4658 80.4033C59.0511 80.4033 58.6615 80.54 58.2969 80.8135C57.9368 81.0869 57.6201 81.4674 57.3467 81.9551C57.0778 82.4382 56.8796 82.9759 56.752 83.5684L56.0205 87H54.8721L56.4717 79.5078H57.4219L57.2715 80.8955H57.3398C57.668 80.4626 57.9391 80.1527 58.1533 79.9658C58.3675 79.7744 58.5908 79.6286 58.8232 79.5283C59.0602 79.4235 59.3223 79.3711 59.6094 79.3711Z" fill="#041C42"/>
<path d="M61.5713 87H60.4229L62.0224 79.5078H63.1708L61.5713 87ZM62.3438 77.5938C62.3438 77.3385 62.4167 77.1312 62.5625 76.9717C62.7083 76.8076 62.8975 76.7256 63.1299 76.7256C63.5309 76.7256 63.7313 76.9307 63.7313 77.3408C63.7313 77.5915 63.654 77.8034 63.499 77.9766C63.3486 78.1497 63.1731 78.2363 62.9726 78.2363C62.7903 78.2363 62.64 78.1816 62.5215 78.0723C62.403 77.9583 62.3438 77.7988 62.3438 77.5938Z" fill="#041C42"/>
<path d="M67.2998 87.1367C66.8577 87.1367 66.4681 87.0205 66.1309 86.7881C65.7982 86.5557 65.5475 86.2389 65.3789 85.8379H65.3105L64.832 87H63.9775L66.2334 76.3633H67.3818C67.1494 77.4661 66.9694 78.3115 66.8418 78.8994C66.7188 79.4827 66.5479 80.1663 66.3291 80.9502H66.3906C66.8145 80.4124 67.2314 80.0182 67.6416 79.7676C68.0563 79.5124 68.4824 79.3848 68.9199 79.3848C69.5625 79.3848 70.0638 79.6104 70.4238 80.0615C70.7839 80.5127 70.9639 81.1325 70.9639 81.9209C70.9639 82.8734 70.8066 83.7552 70.4922 84.5664C70.1823 85.373 69.7471 86.0042 69.1865 86.46C68.6305 86.9111 68.0016 87.1367 67.2998 87.1367ZM68.5713 80.335C68.1338 80.335 67.6872 80.5514 67.2314 80.9844C66.7803 81.4173 66.4202 81.9619 66.1514 82.6182C65.887 83.2744 65.7549 83.9466 65.7549 84.6348C65.7549 85.1361 65.8802 85.5212 66.1309 85.79C66.3861 86.0544 66.7529 86.1865 67.2314 86.1865C67.6826 86.1865 68.1019 86.002 68.4893 85.6328C68.8812 85.2637 69.1956 84.7396 69.4326 84.0605C69.6696 83.377 69.7881 82.6523 69.7881 81.8867C69.7881 80.8522 69.3825 80.335 68.5713 80.335Z" fill="#041C42"/>
<path d="M75.0176 87.1367C74.179 87.1367 73.5205 86.8883 73.042 86.3916C72.5635 85.8949 72.3242 85.2067 72.3242 84.3271C72.3242 83.4704 72.4928 82.6501 72.8301 81.8662C73.1719 81.0778 73.623 80.4648 74.1836 80.0273C74.7441 79.5898 75.3617 79.3711 76.0361 79.3711C76.7334 79.3711 77.2575 79.5238 77.6084 79.8291C77.9593 80.1299 78.1348 80.5514 78.1348 81.0938C78.1348 81.9141 77.7565 82.5589 77 83.0283C76.2435 83.4932 75.1611 83.7256 73.7529 83.7256H73.5273L73.5 84.2725C73.5 84.8695 73.639 85.3366 73.917 85.6738C74.1995 86.0065 74.6348 86.1729 75.2227 86.1729C75.5098 86.1729 75.8037 86.1318 76.1045 86.0498C76.4098 85.9678 76.7881 85.8174 77.2393 85.5986V86.5967C76.8109 86.7972 76.4326 86.9362 76.1045 87.0137C75.7764 87.0957 75.4141 87.1367 75.0176 87.1367ZM75.9678 80.3486C75.4984 80.3486 75.0563 80.5628 74.6416 80.9912C74.2314 81.4196 73.917 82.0143 73.6982 82.7754H73.7803C74.8193 82.7754 75.6146 82.641 76.166 82.3721C76.722 82.0986 77 81.7044 77 81.1895C77 80.9479 76.9157 80.7474 76.7471 80.5879C76.583 80.4284 76.3232 80.3486 75.9678 80.3486Z" fill="#041C42"/>
<path d="M84.8955 86.2002C85.1462 86.2002 85.4743 86.141 85.8799 86.0225V86.9043C85.7249 86.9681 85.5335 87.0228 85.3057 87.0684C85.0778 87.1139 84.8955 87.1367 84.7588 87.1367C84.1891 87.1367 83.7516 87.0023 83.4463 86.7334C83.1455 86.46 82.9951 86.0544 82.9951 85.5166C82.9951 85.2158 83.0361 84.874 83.1182 84.4912L83.9863 80.376H82.8105L82.9062 79.877L84.1709 79.3438L85.0254 77.7852H85.6953L85.3193 79.5078H87.1924L87.0146 80.376H85.1484L84.2666 84.5049C84.1846 84.9014 84.1436 85.2021 84.1436 85.4072C84.1436 85.6624 84.2096 85.8584 84.3418 85.9951C84.474 86.1318 84.6585 86.2002 84.8955 86.2002Z" fill="#041C42"/>
<path d="M89.8174 79.5078L88.792 84.2588C88.71 84.6644 88.6689 84.9811 88.6689 85.209C88.6689 85.8607 89.0039 86.1865 89.6738 86.1865C90.0749 86.1865 90.4691 86.0498 90.8564 85.7764C91.2438 85.5029 91.5856 85.111 91.8818 84.6006C92.1781 84.0902 92.4036 83.4749 92.5586 82.7549L93.2422 79.5078H94.377L92.7979 87H91.8477L91.998 85.6123H91.916C91.4694 86.182 91.0433 86.5785 90.6377 86.8018C90.2321 87.0251 89.8128 87.1367 89.3799 87.1367C88.7966 87.1367 88.3385 86.9795 88.0059 86.665C87.6732 86.346 87.5068 85.8926 87.5068 85.3047C87.5068 85.0221 87.557 84.6302 87.6572 84.1289L88.6553 79.5078H89.8174Z" fill="#041C42"/>
<path d="M103.209 87L104.221 82.2695C104.303 81.8411 104.344 81.5335 104.344 81.3467C104.344 81.0277 104.273 80.7793 104.132 80.6016C103.991 80.4238 103.749 80.335 103.407 80.335C103.024 80.335 102.651 80.4717 102.286 80.7451C101.926 81.0186 101.607 81.4105 101.329 81.9209C101.056 82.4268 100.844 83.0374 100.693 83.7529L100.003 87H98.8545L100.454 79.5078H101.404L101.254 80.8955H101.322C101.719 80.3532 102.113 79.9635 102.505 79.7266C102.901 79.4896 103.309 79.3711 103.728 79.3711C104.243 79.3711 104.64 79.5192 104.918 79.8154C105.196 80.1117 105.36 80.5241 105.41 81.0527H105.465C105.857 80.4831 106.274 80.0615 106.716 79.7881C107.158 79.5101 107.604 79.3711 108.056 79.3711C108.634 79.3711 109.081 79.526 109.395 79.8359C109.714 80.1458 109.874 80.597 109.874 81.1895C109.874 81.4993 109.824 81.9049 109.724 82.4062L108.739 87H107.577L108.589 82.2695C108.68 81.7956 108.726 81.4629 108.726 81.2715C108.726 80.9889 108.646 80.7633 108.486 80.5947C108.331 80.4215 108.085 80.335 107.748 80.335C107.379 80.335 107.014 80.4671 106.654 80.7314C106.294 80.9958 105.977 81.3717 105.704 81.8594C105.435 82.3424 105.23 82.9167 105.089 83.582L104.357 87H103.209Z" fill="#041C42"/>
<path d="M115.028 79.3711C115.448 79.3711 115.821 79.485 116.149 79.7129C116.477 79.9362 116.733 80.2598 116.915 80.6836H116.99L117.448 79.5078H118.316L116.724 87H115.814L115.992 85.5713H115.937C115.122 86.6149 114.263 87.1367 113.36 87.1367C112.727 87.1367 112.23 86.9111 111.87 86.46C111.51 86.0088 111.33 85.3913 111.33 84.6074C111.33 83.6595 111.492 82.7799 111.815 81.9688C112.139 81.1576 112.586 80.5218 113.155 80.0615C113.725 79.6012 114.349 79.3711 115.028 79.3711ZM113.729 86.1865C114.171 86.1865 114.611 85.9769 115.049 85.5576C115.486 85.1338 115.842 84.5846 116.115 83.9102C116.389 83.2311 116.525 82.5521 116.525 81.873C116.525 81.4036 116.398 81.0299 116.143 80.752C115.887 80.474 115.552 80.335 115.138 80.335C114.664 80.335 114.222 80.5309 113.811 80.9229C113.406 81.3148 113.087 81.8457 112.854 82.5156C112.622 83.1855 112.506 83.8919 112.506 84.6348C112.506 85.1543 112.613 85.5439 112.827 85.8037C113.041 86.0589 113.342 86.1865 113.729 86.1865Z" fill="#041C42"/>
<path d="M120.128 87H118.979L120.579 79.5078H121.728L120.128 87ZM120.9 77.5938C120.9 77.3385 120.973 77.1312 121.119 76.9717C121.265 76.8076 121.454 76.7256 121.687 76.7256C122.088 76.7256 122.288 76.9307 122.288 77.3408C122.288 77.5915 122.211 77.8034 122.056 77.9766C121.905 78.1497 121.73 78.2363 121.529 78.2363C121.347 78.2363 121.197 78.1816 121.078 78.0723C120.96 77.9583 120.9 77.7988 120.9 77.5938Z" fill="#041C42"/>
<path d="M123.669 87H122.521L124.79 76.3633H125.938L123.669 87Z" fill="#041C42"/>
<path d="M133.69 79.3711C134.11 79.3711 134.483 79.485 134.812 79.7129C135.14 79.9362 135.395 80.2598 135.577 80.6836H135.652L136.11 79.5078H136.979L135.386 87H134.477L134.654 85.5713H134.6C133.784 86.6149 132.925 87.1367 132.022 87.1367C131.389 87.1367 130.892 86.9111 130.532 86.46C130.172 86.0088 129.992 85.3913 129.992 84.6074C129.992 83.6595 130.154 82.7799 130.478 81.9688C130.801 81.1576 131.248 80.5218 131.817 80.0615C132.387 79.6012 133.011 79.3711 133.69 79.3711ZM132.392 86.1865C132.834 86.1865 133.273 85.9769 133.711 85.5576C134.148 85.1338 134.504 84.5846 134.777 83.9102C135.051 83.2311 135.188 82.5521 135.188 81.873C135.188 81.4036 135.06 81.0299 134.805 80.752C134.549 80.474 134.215 80.335 133.8 80.335C133.326 80.335 132.884 80.5309 132.474 80.9229C132.068 81.3148 131.749 81.8457 131.517 82.5156C131.284 83.1855 131.168 83.8919 131.168 84.6348C131.168 85.1543 131.275 85.5439 131.489 85.8037C131.703 86.0589 132.004 86.1865 132.392 86.1865Z" fill="#041C42"/>
<path d="M141.62 79.3711C142.049 79.3711 142.424 79.4873 142.748 79.7197C143.076 79.9476 143.325 80.2689 143.493 80.6836H143.582L144.04 79.5078H144.895L142.598 90.3633H141.463L142.153 87.082C142.194 86.877 142.324 86.3734 142.543 85.5713H142.488C142.055 86.1227 141.634 86.5215 141.224 86.7676C140.813 87.0137 140.39 87.1367 139.952 87.1367C139.314 87.1367 138.813 86.9157 138.448 86.4736C138.088 86.027 137.908 85.4049 137.908 84.6074C137.908 83.6413 138.072 82.748 138.4 81.9277C138.733 81.1074 139.18 80.4762 139.74 80.0342C140.305 79.5921 140.932 79.3711 141.62 79.3711ZM140.308 86.1865C140.727 86.1865 141.16 85.9769 141.606 85.5576C142.053 85.1383 142.413 84.5983 142.687 83.9375C142.965 83.2767 143.104 82.5931 143.104 81.8867C143.104 81.4082 142.978 81.0299 142.728 80.752C142.481 80.474 142.135 80.335 141.688 80.335C141.228 80.335 140.798 80.5286 140.396 80.916C139.995 81.2988 139.676 81.8298 139.439 82.5088C139.202 83.1833 139.084 83.8919 139.084 84.6348C139.084 85.6693 139.492 86.1865 140.308 86.1865Z" fill="#041C42"/>
<path d="M148.401 79.5078L147.376 84.2588C147.294 84.6644 147.253 84.9811 147.253 85.209C147.253 85.8607 147.588 86.1865 148.258 86.1865C148.659 86.1865 149.053 86.0498 149.44 85.7764C149.828 85.5029 150.17 85.111 150.466 84.6006C150.762 84.0902 150.988 83.4749 151.143 82.7549L151.826 79.5078H152.961L151.382 87H150.432L150.582 85.6123H150.5C150.053 86.182 149.627 86.5785 149.222 86.8018C148.816 87.0251 148.397 87.1367 147.964 87.1367C147.381 87.1367 146.923 86.9795 146.59 86.665C146.257 86.346 146.091 85.8926 146.091 85.3047C146.091 85.0221 146.141 84.6302 146.241 84.1289L147.239 79.5078H148.401Z" fill="#041C42"/>
<path d="M154.95 87H153.802L155.401 79.5078H156.55L154.95 87ZM155.613 78.332C155.868 78.0586 156.153 77.7145 156.468 77.2998C156.787 76.8805 157.031 76.5387 157.199 76.2744H158.498V76.418C158.325 76.6413 158.006 76.9854 157.541 77.4502C157.076 77.915 156.673 78.2705 156.331 78.5166H155.613V78.332Z" fill="#041C42"/>
<path d="M20.5 24C20.5 21.5147 22.5147 19.5 25 19.5H295C297.485 19.5 299.5 21.5147 299.5 24V49C299.5 51.4853 297.485 53.5 295 53.5H25C22.5147 53.5 20.5 51.4853 20.5 49V24Z" stroke="#041C42"/>
<path d="M130.128 39.2861C130.128 40.1748 129.807 40.8721 129.164 41.3779C128.521 41.8838 127.635 42.1367 126.505 42.1367C125.375 42.1367 124.45 41.9613 123.729 41.6104V40.0654C124.185 40.2796 124.668 40.4482 125.179 40.5713C125.694 40.6943 126.172 40.7559 126.614 40.7559C127.261 40.7559 127.738 40.6328 128.043 40.3867C128.353 40.1406 128.508 39.8102 128.508 39.3955C128.508 39.0218 128.367 38.7051 128.084 38.4453C127.801 38.1855 127.218 37.8779 126.334 37.5225C125.423 37.1533 124.78 36.7318 124.406 36.2578C124.033 35.7839 123.846 35.2142 123.846 34.5488C123.846 33.7148 124.142 33.0586 124.734 32.5801C125.327 32.1016 126.122 31.8623 127.12 31.8623C128.077 31.8623 129.03 32.0719 129.978 32.4912L129.458 33.8242C128.569 33.4505 127.776 33.2637 127.079 33.2637C126.55 33.2637 126.149 33.3799 125.876 33.6123C125.603 33.8402 125.466 34.1432 125.466 34.5215C125.466 34.7812 125.521 35.0046 125.63 35.1914C125.739 35.3737 125.919 35.5469 126.17 35.7109C126.421 35.875 126.872 36.0915 127.523 36.3604C128.257 36.6657 128.795 36.9505 129.137 37.2148C129.479 37.4792 129.729 37.7777 129.889 38.1104C130.048 38.443 130.128 38.835 130.128 39.2861Z" fill="#041C42"/>
<path d="M133.498 42H131.892V34.4395H133.498V42ZM131.81 33.5166V33.3457C132.069 33.0267 132.336 32.6712 132.609 32.2793C132.887 31.8874 133.106 31.5524 133.266 31.2744H135.132V31.418C134.895 31.696 134.539 32.056 134.065 32.498C133.596 32.9355 133.2 33.2751 132.876 33.5166H131.81Z" fill="#041C42"/>
<path d="M137.47 40.5303C137.251 41.3779 136.85 42.4694 136.267 43.8047H135.084C135.398 42.5742 135.633 41.4303 135.788 40.373H137.367L137.47 40.5303Z" fill="#041C42"/>
<path d="M147.915 42L147.594 40.9473H147.539C147.174 41.4076 146.808 41.722 146.438 41.8906C146.069 42.0547 145.595 42.1367 145.017 42.1367C144.274 42.1367 143.693 41.9362 143.273 41.5352C142.859 41.1341 142.651 40.5667 142.651 39.833C142.651 39.0537 142.941 38.4658 143.52 38.0693C144.098 37.6729 144.98 37.4564 146.165 37.4199L147.471 37.3789V36.9756C147.471 36.4925 147.357 36.1325 147.129 35.8955C146.906 35.654 146.557 35.5332 146.083 35.5332C145.696 35.5332 145.324 35.5902 144.969 35.7041C144.613 35.818 144.271 35.9525 143.943 36.1074L143.424 34.959C143.834 34.7448 144.283 34.583 144.771 34.4736C145.258 34.3597 145.718 34.3027 146.151 34.3027C147.113 34.3027 147.838 34.5124 148.325 34.9316C148.817 35.3509 149.063 36.0094 149.063 36.9072V42H147.915ZM145.522 40.9062C146.106 40.9062 146.573 40.7445 146.924 40.4209C147.279 40.0928 147.457 39.6348 147.457 39.0469V38.3906L146.486 38.4316C145.73 38.459 145.178 38.5866 144.832 38.8145C144.49 39.0378 144.319 39.3818 144.319 39.8467C144.319 40.1839 144.42 40.446 144.62 40.6328C144.821 40.8151 145.121 40.9062 145.522 40.9062Z" fill="#041C42"/>
<path d="M153.028 42L150.157 34.4395H151.853L153.391 38.835C153.655 39.5732 153.814 40.1702 153.869 40.626H153.924C153.965 40.2979 154.124 39.7008 154.402 38.835L155.94 34.4395H157.649L154.765 42H153.028Z" fill="#041C42"/>
<path d="M160.404 42H158.798V34.4395H160.404V42ZM158.716 33.5166V33.3457C158.976 33.0267 159.242 32.6712 159.516 32.2793C159.794 31.8874 160.012 31.5524 160.172 31.2744H162.038V31.418C161.801 31.696 161.446 32.056 160.972 32.498C160.502 32.9355 160.106 33.2751 159.782 33.5166H158.716Z" fill="#041C42"/>
<path d="M167.787 39.8467C167.787 40.585 167.518 41.1523 166.98 41.5488C166.443 41.9408 165.673 42.1367 164.67 42.1367C163.663 42.1367 162.854 41.984 162.243 41.6787V40.291C163.132 40.7012 163.959 40.9062 164.725 40.9062C165.714 40.9062 166.208 40.6077 166.208 40.0107C166.208 39.8193 166.153 39.6598 166.044 39.5322C165.935 39.4046 165.755 39.2725 165.504 39.1357C165.253 38.999 164.905 38.8441 164.458 38.6709C163.588 38.3337 162.997 37.9964 162.688 37.6592C162.382 37.3219 162.229 36.8844 162.229 36.3467C162.229 35.6995 162.489 35.1982 163.009 34.8428C163.533 34.4827 164.244 34.3027 165.142 34.3027C166.03 34.3027 166.871 34.4827 167.664 34.8428L167.145 36.0527C166.329 35.7155 165.643 35.5469 165.087 35.5469C164.239 35.5469 163.815 35.7884 163.815 36.2715C163.815 36.5085 163.925 36.709 164.144 36.873C164.367 37.0371 164.85 37.2627 165.593 37.5498C166.217 37.7913 166.671 38.0124 166.953 38.2129C167.236 38.4134 167.445 38.6458 167.582 38.9102C167.719 39.1699 167.787 39.4821 167.787 39.8467Z" fill="#041C42"/>
<path d="M174.261 42L173.939 40.9473H173.885C173.52 41.4076 173.153 41.722 172.784 41.8906C172.415 42.0547 171.941 42.1367 171.362 42.1367C170.619 42.1367 170.038 41.9362 169.619 41.5352C169.204 41.1341 168.997 40.5667 168.997 39.833C168.997 39.0537 169.286 38.4658 169.865 38.0693C170.444 37.6729 171.326 37.4564 172.511 37.4199L173.816 37.3789V36.9756C173.816 36.4925 173.702 36.1325 173.475 35.8955C173.251 35.654 172.903 35.5332 172.429 35.5332C172.041 35.5332 171.67 35.5902 171.314 35.7041C170.959 35.818 170.617 35.9525 170.289 36.1074L169.77 34.959C170.18 34.7448 170.629 34.583 171.116 34.4736C171.604 34.3597 172.064 34.3027 172.497 34.3027C173.459 34.3027 174.183 34.5124 174.671 34.9316C175.163 35.3509 175.409 36.0094 175.409 36.9072V42H174.261ZM171.868 40.9062C172.451 40.9062 172.919 40.7445 173.27 40.4209C173.625 40.0928 173.803 39.6348 173.803 39.0469V38.3906L172.832 38.4316C172.076 38.459 171.524 38.5866 171.178 38.8145C170.836 39.0378 170.665 39.3818 170.665 39.8467C170.665 40.1839 170.765 40.446 170.966 40.6328C171.166 40.8151 171.467 40.9062 171.868 40.9062Z" fill="#041C42"/>
<path d="M184.022 42H182.409V37.3379C182.409 36.7591 182.3 36.3285 182.081 36.0459C181.862 35.7588 181.521 35.6152 181.056 35.6152C180.436 35.6152 179.98 35.818 179.688 36.2236C179.401 36.6247 179.258 37.2946 179.258 38.2334V42H177.651V34.4395H178.909L179.135 35.4307H179.217C179.426 35.0706 179.729 34.7926 180.126 34.5967C180.527 34.4007 180.967 34.3027 181.445 34.3027C182.607 34.3027 183.378 34.6992 183.756 35.4922H183.865C184.089 35.1185 184.403 34.8268 184.809 34.6172C185.214 34.4076 185.679 34.3027 186.203 34.3027C187.105 34.3027 187.762 34.5306 188.172 34.9863C188.587 35.4421 188.794 36.137 188.794 37.0713V42H187.188V37.3379C187.188 36.7591 187.076 36.3285 186.853 36.0459C186.634 35.7588 186.292 35.6152 185.827 35.6152C185.203 35.6152 184.745 35.8112 184.453 36.2031C184.166 36.5905 184.022 37.1875 184.022 37.9941V42Z" fill="#041C42"/>
<path d="M194.338 42.1367C193.162 42.1367 192.242 41.7949 191.576 41.1113C190.915 40.4232 190.585 39.4775 190.585 38.2744C190.585 37.0394 190.893 36.0687 191.508 35.3623C192.123 34.6559 192.968 34.3027 194.044 34.3027C195.042 34.3027 195.83 34.6058 196.409 35.2119C196.988 35.818 197.277 36.652 197.277 37.7139V38.582H192.239C192.262 39.3158 192.46 39.8809 192.834 40.2773C193.208 40.6693 193.734 40.8652 194.413 40.8652C194.86 40.8652 195.274 40.8242 195.657 40.7422C196.045 40.6556 196.459 40.5143 196.901 40.3184V41.624C196.509 41.8109 196.113 41.943 195.712 42.0205C195.311 42.098 194.853 42.1367 194.338 42.1367ZM194.044 35.5195C193.534 35.5195 193.123 35.6813 192.813 36.0049C192.508 36.3285 192.326 36.8001 192.267 37.4199H195.698C195.689 36.7956 195.539 36.3239 195.247 36.0049C194.955 35.6813 194.554 35.5195 194.044 35.5195Z" fill="#041C42"/>
<path d="M68.624 109.236C77.035 107.963 79.4382 114.395 79.933 115.597L73.2889 122.736C69.1611 120.587 68.459 123.018 68.624 124.503C72.3936 140.736 78.883 165.569 66.5742 165.569C53.4275 165.569 56.2783 134.469 57.8097 122.736C58.6108 118.66 61.8951 110.253 68.624 109.236Z" fill="#8DADF1"/>
<path d="M80.9669 115.071C83.4549 114.732 83.5585 116.626 83.2994 117.616C83.0873 119.265 80.5605 122.09 76.5139 126.027C73.8987 128.572 71.557 124.967 72.5557 123.412C74.417 120.514 78.4789 115.411 80.9669 115.071Z" fill="#041C42"/>
<path d="M100.147 115.455C116.192 119.227 113.577 138.945 109.053 147.827C101.655 149.524 86.7746 152.916 86.4353 152.916C75.5222 150.824 73.6891 137.578 74.1368 131.217C75.2676 124.337 82.1095 111.214 100.147 115.455Z" fill="#8DADF1"/>
<path d="M80.0743 119.979C81.7706 124.955 85.6817 126.246 87.4251 126.269L86.6476 127.683C81.9544 127.457 79.5559 123.254 78.9434 121.18C79.1695 120.784 79.7915 120.214 80.0743 119.979Z" fill="#738EC9"/>
<path d="M76.7526 124.22C77.6008 128.687 82.4778 132.018 84.8103 133.125L84.4569 134.751C79.7071 133.959 76.6348 128.767 75.6924 126.269C75.9186 125.647 76.4935 124.644 76.7526 124.22Z" fill="#738EC9"/>
<path d="M82.4775 117.929C85.7006 117.929 89.3807 121.322 90.8179 123.018L92.3022 122.17C90.1535 118.89 86.1294 117.222 84.3859 116.798C83.7074 117.024 82.8309 117.646 82.4775 117.929Z" fill="#738EC9"/>
<path d="M93.3623 114.677C96.1895 115.639 98.0272 119.696 98.5927 121.604L100.572 121.958C100.063 119.187 97.3911 116.044 96.1188 114.819C95.2707 114.593 93.9277 114.63 93.3623 114.677Z" fill="#738EC9"/>
<path d="M105.237 117.505C106.481 119.993 105.944 123.112 105.52 124.361L106.792 125.421C107.81 123.272 107.405 120.191 107.075 118.918C106.849 118.636 105.756 117.858 105.237 117.505Z" fill="#738EC9"/>
<path d="M74.2785 130.864C75.1267 134.087 81.1817 137.531 84.1032 138.851V140.547C79.0707 139.699 75.3152 135.246 74.0664 133.125C74.0664 131.994 74.2078 131.146 74.2785 130.864Z" fill="#738EC9"/>
<path d="M66.1501 114.678C70.9565 110.437 75.9042 114.254 77.8832 116.869L76.9644 117.717C69.8962 111.893 66.8805 115.832 66.1501 118.424C62.4182 127.867 63.5585 153.552 64.5951 165.215C63.3512 164.989 62.4747 164.272 62.192 163.942C61.5087 149.288 61.3438 118.919 66.1501 114.678Z" fill="#738EC9"/>
<path d="M68.342 117.929C71.0985 115.667 74.0672 118.047 75.2687 119.555L74.4206 120.615C70.0666 117.109 69.1633 119.201 68.9074 120.332C66.476 131.076 67.8943 154.73 68.9074 165.215C68.1158 165.611 66.7398 165.568 66.1508 165.497C65.6325 150.466 65.5655 120.207 68.342 117.929Z" fill="#738EC9"/>
<path d="M182.35 173.202C181.954 179.762 177.709 181.543 175.635 181.613V190.449C177.191 192.216 186.308 194.902 188.923 194.902C190.761 194.902 192.587 194.902 192.74 193.135C192.82 192.216 192.222 191.415 191.821 191.367C192.882 191.226 194.083 191.085 194.366 189.954C194.649 188.823 193.282 187.527 192.74 187.197C193.329 186.773 194.762 185.925 194.366 184.511C193.97 183.098 192.787 182.697 192.246 182.674C193.433 181.939 193.73 180.907 193.73 180.483C193.612 179.823 192.972 178.928 190.832 178.928C188.146 178.928 186.026 180.483 186.026 180.483C187.439 177.585 186.897 174.074 186.026 172.001C185.372 170.446 182.746 166.643 182.35 173.202Z" fill="#5B7FA1"/>
<path d="M91.3826 165.003C84.0317 165.215 67.775 169.06 61.555 182.744C55.3351 196.428 52.9319 206.21 52.5078 209.391H123.543C121.47 201.498 117.21 185.119 116.757 182.744C124.556 186.938 143.362 195.848 156.198 197.94C164.326 199.265 168.499 195.502 170.437 191.151L175.211 192.003C177.869 186.518 176.319 180.718 175.211 178.503L170.489 179.139C169.159 176.582 166.767 174.265 162.771 174.333C154.502 174.474 126.017 168.82 116.757 166.558C107.498 164.296 104.176 162.269 91.3826 165.003Z" fill="#041C42"/>
<path d="M73.9247 183.522V209.391H72.4404V183.522C72.4639 183.239 72.6383 182.674 73.1472 182.674C73.6561 182.674 73.8775 183.239 73.9247 183.522Z" fill="#8DADF1"/>
<path d="M92.3027 169.88C97.6479 169.346 99.5122 166.158 99.7243 163.802C94.1263 163.802 87.0723 165.262 84.2451 165.993C84.7163 167.618 87.355 170.375 92.3027 169.88Z" fill="#8DADF1"/>
<path d="M125.946 176.595C125.169 173.273 121.706 167.901 121.494 167.689L132.661 170.021C134.527 171.887 136.407 177.631 137.114 180.27C135.771 183.592 129.41 188.61 129.198 188.822C129.028 188.992 121.776 185.218 118.172 183.309C121.508 181.726 124.745 178.173 125.946 176.595Z" fill="#8DADF1"/>
<path d="M151.816 182.461C151.533 181.047 145.478 174.757 142.486 171.788L156.764 174.05C159.251 175.859 163.031 182.485 164.609 185.571C163.309 188.455 157.093 194.783 154.148 197.587C150.869 197.135 143.97 194.713 140.931 193.558C144.606 192.314 149.719 185.642 151.816 182.461Z" fill="#8DADF1"/>
<path d="M108.488 192.286C109.676 191.551 114.449 185.618 116.688 182.744L119.232 193.417C117.762 196.696 112.211 201.663 109.619 203.736C106.566 202.04 101.185 197.987 98.8759 196.173C97.9711 198.322 93.4098 202.676 91.2423 204.584C88.8108 201.814 83.9621 197.21 81.8417 195.254C79.7495 197.629 74.6086 201.71 72.2997 203.453C68.6808 202.04 61.0849 195.419 57.7393 192.286C58.2482 190.194 60.7315 184.723 61.9095 182.249C65.7546 186.207 71.7107 189.977 74.2081 191.367C77.205 189.953 81.394 185.642 83.1139 183.663L92.0198 191.862C92.4721 190.052 96.2607 186.113 98.0984 184.37C100.643 186.518 106.085 190.542 108.488 192.286Z" fill="#8DADF1"/>
<path d="M84.1038 142.597C83.5854 141.042 82.1247 138.073 80.4283 138.639C78.732 139.204 78.0723 141.325 77.9545 142.314C77.9309 143.869 78.8309 146.711 82.6195 145.636C83.2665 147.521 84.5235 150.279 86.3707 152.916L88.0619 165.498C88.6274 167.689 95.8369 167.83 96.3316 164.296V160.372C97.1025 160.534 97.9036 160.621 98.7348 160.621C107.924 160.621 110.751 143.728 110.751 133.903C110.751 130.369 107.287 120.997 95.9782 121.393C84.6692 121.788 83.3498 135.694 84.1038 142.597Z" fill="#5B7FA1"/>
<path d="M95.0099 133.172C95.0974 132.514 94.4004 132.254 93.9511 132.194C93.4119 132.122 92.1671 131.994 90.7332 132.325C89.2994 132.656 88.2885 133.521 87.9622 133.913C87.7542 134.102 87.3954 134.601 87.6247 135.078C87.8539 135.555 88.3791 135.364 88.6131 135.209C89.221 134.762 90.5676 133.849 91.0902 133.769C91.6128 133.69 93.3091 133.816 94.0919 133.888C94.3615 133.924 94.9225 133.831 95.0099 133.172Z" fill="#041C42"/>
<path d="M107.067 133.78C106.866 134.192 106.292 134.103 106.03 134.008C104.803 133.601 102.539 132.398 101.151 133.543C99.8149 134.645 100.514 135.925 100.968 136.99C101.602 138.482 104.022 140.868 105.017 141.639C106.013 142.411 106.349 142.639 106.301 142.998C106.253 143.357 105.936 143.68 104.456 144.489C102.976 145.297 101.052 145.316 100.692 145.268C100.333 145.22 99.728 145.244 99.6847 144.586C99.6665 144.31 99.8461 144.06 100.128 144.006L101.95 144.065C102.693 143.981 104.282 143.314 104.455 143.118C104.627 142.922 104.447 142.721 104.335 142.645C103.261 141.772 101.064 139.524 100.219 137.805C99.2104 135.752 99.115 135.191 99.1076 134.459C99.1011 133.819 99.3404 133.394 99.4542 133.226C99.9211 132.466 101.286 131.697 103.032 131.782C104.777 131.868 106.221 132.571 106.725 132.912C106.922 133.03 107.268 133.368 107.067 133.78Z" fill="#041C42"/>
<path d="M106.698 137.846C106.743 136.984 106.019 136.671 105.651 136.622C105.271 136.662 104.588 137.078 104.894 138.421C105.199 139.764 105.92 139.583 106.242 139.324C106.375 139.191 106.652 138.709 106.698 137.846Z" fill="#041C42"/>
<path d="M94.6601 137.754C94.7006 136.891 93.9227 136.571 93.5286 136.519C93.1227 136.555 92.3958 136.965 92.7352 138.313C93.0745 139.66 93.8442 139.485 94.1867 139.229C94.3276 139.097 94.6196 138.617 94.6601 137.754Z" fill="#041C42"/>
<path d="M89.6162 156.168C91.7366 157.935 95.1529 159.938 96.3309 160.338V164.014L89.6162 156.168Z" fill="#405A72"/>
<path d="M92.7142 147.009C94.4605 148.324 95.5956 148.499 96.2068 148.587C97.4641 148.798 99.1756 148.529 100.049 148.762C100.922 148.996 102.476 150.078 101.708 152.533C100.939 154.989 98.5935 155.602 97.5166 155.602C96.1195 155.602 92.6967 155.076 90.182 152.972C87.6673 150.867 88.4939 148.529 89.2215 147.622C89.8036 146.979 91.3171 145.956 92.7142 147.009Z" fill="#041C42"/>
<path d="M89.7578 151.278C90.3704 152.495 93.8708 154.755 97.1087 154.755C97.1087 152.929 93.0832 149.54 89.7578 151.278Z" fill="#5B7FA1"/>
</svg>
