<svg width="320" height="210" viewBox="0 0 320 210" fill="none" xmlns="http://www.w3.org/2000/svg">
<path d="M320 0H0V210H320V0Z" fill="#E9F2FF"/>
<g clip-path="url(#clip0)">
<path fill-rule="evenodd" clip-rule="evenodd" d="M33 46C40.1797 46 46 40.1797 46 33C46 25.8203 40.1797 20 33 20C25.8203 20 20 25.8203 20 33C20 40.1797 25.8203 46 33 46ZM32.7198 40H35.4356V27.1504H33.2031L29.0635 30.4463L30.3731 32.0811L31.8496 30.8945C31.9517 30.813 32.1004 30.6787 32.2954 30.4922C32.4361 30.3579 32.6009 30.1958 32.7901 30.0068L32.7461 31.3428L32.7198 32.5645V40Z" fill="#041C42"/>
<path fill-rule="evenodd" clip-rule="evenodd" d="M65 46C72.1797 46 78 40.1797 78 33C78 25.8203 72.1797 20 65 20C57.8203 20 52 25.8203 52 33C52 40.1797 57.8203 46 65 46ZM60.7207 40H69.7031V37.7148H64.1045V37.5918L65.7569 36.0361C66.8584 35.0283 67.626 34.252 68.0596 33.707C68.499 33.1621 68.8213 32.6318 69.0264 32.1162C69.2373 31.5947 69.3428 31.0381 69.3428 30.4463C69.3428 29.7666 69.1729 29.1631 68.833 28.6357C68.4932 28.1084 68.0156 27.6982 67.4004 27.4053C66.7852 27.1123 66.0762 26.9658 65.2735 26.9658C64.6641 26.9658 64.1133 27.0273 63.6211 27.1504C63.1289 27.2676 62.6748 27.4375 62.2588 27.6602C61.8428 27.8828 61.3184 28.2637 60.6856 28.8027L62.1621 30.5518C62.4536 30.3105 62.7385 30.1006 63.0166 29.9228C63.2249 29.7895 63.4292 29.6738 63.6299 29.5762C64.0987 29.3477 64.5821 29.2334 65.0801 29.2334C65.5547 29.2334 65.9326 29.3594 66.2139 29.6113C66.501 29.8633 66.6446 30.2471 66.6446 30.7627C66.6446 31.1084 66.5801 31.4424 66.4512 31.7646C66.3223 32.0869 66.1114 32.4385 65.8184 32.8193C65.5254 33.1943 64.9014 33.8711 63.9463 34.8496L60.7207 38.1104V40Z" fill="#041C42"/>
<path fill-rule="evenodd" clip-rule="evenodd" d="M96.5 46C103.956 46 110 40.1797 110 33C110 25.8203 103.956 20 96.5 20C89.0442 20 83 25.8203 83 33C83 40.1797 89.0442 46 96.5 46ZM99.4727 32.0723C99.959 31.5098 100.202 30.8271 100.202 30.0244C100.202 29.0635 99.8155 28.3135 99.042 27.7744C98.2744 27.2353 97.2256 26.9658 95.8955 26.9658C94.2725 26.9658 92.875 27.3877 91.7031 28.2315L92.96 30.1035C93.4932 29.7578 93.9766 29.5146 94.4102 29.374C94.8496 29.2334 95.2803 29.1631 95.7022 29.1631C96.9209 29.1631 97.5303 29.6494 97.5303 30.6221C97.5303 31.2549 97.2989 31.7031 96.836 31.9668C96.3789 32.2246 95.6524 32.3535 94.6563 32.3535H93.6631V34.4365H94.6387C95.7168 34.4365 96.502 34.5625 96.9942 34.8145C97.4864 35.0664 97.7324 35.4941 97.7324 36.0977C97.7324 36.7715 97.5186 37.2607 97.0908 37.5654C96.6631 37.8701 96.001 38.0225 95.1045 38.0225C94.5186 38.0225 93.9268 37.9434 93.3291 37.7852C92.7315 37.627 92.1836 37.4219 91.6856 37.1699V39.4814C92.7637 39.9443 94 40.1758 95.3946 40.1758C97.0586 40.1758 98.3389 39.833 99.2354 39.1475C100.132 38.4561 100.58 37.4922 100.58 36.2559C100.58 35.4062 100.313 34.7324 99.7803 34.2344C99.2471 33.7305 98.4619 33.4141 97.4248 33.2852V33.2324C98.3037 33.0215 98.9864 32.6348 99.4727 32.0723Z" fill="#041C42"/>
<path d="M128.792 33.0479V35.2275H125.698L128.054 31.668C128.358 31.2109 128.619 30.7422 128.836 30.2617H128.906C128.889 30.373 128.865 30.7744 128.836 31.4658C128.807 32.1572 128.792 32.6846 128.792 33.0479Z" fill="#041C42"/>
<path fill-rule="evenodd" clip-rule="evenodd" d="M128 46C135.18 46 141 40.1797 141 33C141 25.8203 135.18 20 128 20C120.82 20 115 25.8203 115 33C115 40.1797 120.82 46 128 46ZM131.446 37.3369H132.993V35.2275H131.446V27.1504H128.941L123.308 35.4473V37.3369H128.792V40H131.446V37.3369Z" fill="#041C42"/>
<path fill-rule="evenodd" clip-rule="evenodd" d="M160 46C167.18 46 173 40.1797 173 33C173 25.8203 167.18 20 160 20C152.82 20 147 25.8203 147 33C147 40.1797 152.82 46 160 46ZM163.358 32.8369C162.626 32.1396 161.639 31.791 160.396 31.791C159.869 31.791 159.427 31.832 159.069 31.9141L158.762 31.9756L158.999 29.4531H163.587V27.1504H156.617L156.134 33.6982L157.215 34.2783C157.449 34.208 157.754 34.1436 158.129 34.085C158.504 34.0205 158.847 33.9883 159.157 33.9883C160.874 33.9883 161.732 34.6357 161.732 35.9307C161.732 37.29 160.903 37.9697 159.245 37.9697C158.694 37.9697 158.111 37.8936 157.496 37.7412C156.881 37.583 156.342 37.3809 155.879 37.1348V39.4814C156.758 39.9443 157.912 40.1758 159.342 40.1758C160.988 40.1758 162.254 39.7891 163.139 39.0156C164.023 38.2422 164.466 37.1377 164.466 35.7021C164.466 34.4893 164.097 33.5342 163.358 32.8369Z" fill="#041C42"/>
<path d="M193.609 37.4248C193.299 37.8115 192.853 38.0049 192.273 38.0049C191.988 38.0049 191.728 37.9434 191.493 37.8198C191.264 37.6997 191.058 37.521 190.876 37.2842C190.513 36.8037 190.331 36.2148 190.331 35.5176C190.331 35.043 190.524 34.627 190.911 34.2695C191.304 33.9121 191.775 33.7334 192.326 33.7334C192.912 33.7334 193.349 33.915 193.636 34.2783C193.929 34.6357 194.075 35.1279 194.075 35.7549C194.075 36.4756 193.92 37.0322 193.609 37.4248Z" fill="#041C42"/>
<path fill-rule="evenodd" clip-rule="evenodd" d="M192 46C199.18 46 205 40.1797 205 33C205 25.8203 199.18 20 192 20C184.82 20 179 25.8203 179 33C179 40.1797 184.82 46 192 46ZM189.241 28.8643C188.169 30.1064 187.633 31.999 187.633 34.542C187.633 35.7314 187.823 36.748 188.204 37.5918C188.591 38.4355 189.136 39.0771 189.839 39.5166C190.548 39.9561 191.377 40.1758 192.326 40.1758C193.697 40.1758 194.769 39.7773 195.543 38.9805C196.316 38.1777 196.703 37.0908 196.703 35.7197C196.703 34.4482 196.378 33.4521 195.727 32.7314C195.077 32.0107 194.178 31.6504 193.029 31.6504C191.752 31.6504 190.823 32.1484 190.243 33.1445H190.129C190.182 32.1309 190.354 31.3486 190.647 30.7979C190.94 30.2471 191.38 29.831 191.966 29.5498C192.558 29.2685 193.319 29.1279 194.251 29.1279C194.442 29.1279 194.633 29.1362 194.826 29.1528C195.148 29.1802 195.472 29.2305 195.798 29.3037V27.1328C195.382 27.0449 194.808 27.001 194.075 27.001C191.931 27.001 190.319 27.6221 189.241 28.8643Z" fill="#041C42"/>
<path fill-rule="evenodd" clip-rule="evenodd" d="M223.5 46C230.956 46 237 40.1797 237 33C237 25.8203 230.956 20 223.5 20C216.044 20 210 25.8203 210 33C210 40.1797 216.044 46 223.5 46ZM224.82 29.4531L219.995 40H222.843L227.703 28.873V27.168H218.483V29.4531H224.82Z" fill="#041C42"/>
<path d="M253.674 37.7588C253.322 37.4775 253.146 37.085 253.146 36.5811C253.146 35.7021 253.77 34.9756 255.018 34.4014C255.763 34.7881 256.3 35.1543 256.628 35.5C256.962 35.8398 257.128 36.2061 257.128 36.5986C257.128 37.0732 256.962 37.457 256.628 37.75C256.294 38.0371 255.789 38.1807 255.115 38.1807C254.506 38.1807 254.025 38.04 253.674 37.7588Z" fill="#041C42"/>
<path d="M254.008 29.3301C254.295 29.0898 254.67 28.9697 255.133 28.9697C255.59 28.9697 255.965 29.0869 256.258 29.3213C256.551 29.5557 256.697 29.875 256.697 30.2793C256.697 30.6484 256.583 30.9736 256.354 31.2549C256.126 31.5361 255.725 31.8115 255.15 32.0811C254.559 31.7881 254.148 31.5039 253.92 31.2285C253.697 30.9473 253.586 30.6309 253.586 30.2793C253.586 29.8809 253.726 29.5644 254.008 29.3301Z" fill="#041C42"/>
<path fill-rule="evenodd" clip-rule="evenodd" d="M255 46C262.18 46 268 40.1797 268 33C268 25.8203 262.18 20 255 20C247.82 20 242 25.8203 242 33C242 40.1797 247.82 46 255 46ZM258.121 27.8271C257.371 27.2646 256.381 26.9834 255.15 26.9834C253.926 26.9834 252.933 27.2676 252.171 27.8359C251.409 28.4043 251.028 29.1484 251.028 30.0684C251.028 30.6953 251.189 31.2725 251.512 31.7998C251.834 32.3271 252.361 32.8223 253.094 33.2852C252.232 33.7188 251.605 34.2197 251.213 34.7881C250.826 35.3564 250.633 36.0068 250.633 36.7393C250.633 37.835 251.034 38.6816 251.837 39.2793C252.64 39.877 253.744 40.1758 255.15 40.1758C256.498 40.1758 257.585 39.8564 258.411 39.2178C259.237 38.5732 259.65 37.7236 259.65 36.6689C259.65 36.001 259.439 35.3887 259.018 34.832C258.601 34.2695 257.913 33.7305 256.952 33.2148C257.761 32.8105 258.347 32.3535 258.71 31.8438C259.073 31.3281 259.255 30.7422 259.255 30.0859C259.255 29.1367 258.877 28.3838 258.121 27.8271Z" fill="#041C42"/>
<path d="M285.683 29.7607C285.999 29.374 286.438 29.1807 287.001 29.1807C287.297 29.1807 287.564 29.2456 287.805 29.3755C288.026 29.4956 288.224 29.6709 288.398 29.9014C288.768 30.3818 288.952 30.9707 288.952 31.668C288.952 31.8838 288.911 32.0884 288.828 32.2822C288.73 32.5088 288.575 32.7202 288.363 32.916C287.971 33.2734 287.499 33.4521 286.948 33.4521C286.362 33.4521 285.926 33.2705 285.639 32.9072C285.351 32.5439 285.208 32.0518 285.208 31.4307C285.208 30.7041 285.366 30.1475 285.683 29.7607Z" fill="#041C42"/>
<path fill-rule="evenodd" clip-rule="evenodd" d="M287 46C294.18 46 300 40.1797 300 33C300 25.8203 294.18 20 287 20C279.82 20 274 25.8203 274 33C274 40.1797 279.82 46 287 46ZM290.051 38.3037C291.117 37.0557 291.65 35.166 291.65 32.6348C291.65 31.4629 291.46 30.4551 291.079 29.6113C290.698 28.7617 290.15 28.1143 289.435 27.669C288.726 27.2236 287.897 27.001 286.948 27.001C285.601 27.001 284.534 27.4023 283.749 28.2051C282.97 29.002 282.58 30.0889 282.58 31.4658C282.58 32.7432 282.902 33.7422 283.547 34.4629C284.191 35.1777 285.073 35.5352 286.192 35.5352C286.86 35.5352 287.417 35.4238 287.862 35.2012C288.308 34.9785 288.7 34.5918 289.04 34.041H289.145C289.099 35.043 288.92 35.8311 288.609 36.4053C288.299 36.9736 287.851 37.3926 287.265 37.6621C286.679 37.9258 285.932 38.0576 285.023 38.0576C284.484 38.0576 283.969 37.9961 283.476 37.873V40.0527C283.869 40.1348 284.446 40.1758 285.208 40.1758C287.37 40.1758 288.984 39.5518 290.051 38.3037Z" fill="#041C42"/>
<path d="M20 76C20 73.2386 22.2386 71 25 71H295C297.761 71 300 73.2386 300 76V115C300 117.761 297.761 120 295 120H25C22.2386 120 20 117.761 20 115V76Z" fill="#041C42"/>
<path d="M143 102V90.5781H144.867V100.398H149.703V102H143Z" fill="white"/>
<path d="M153.312 102H151.476V93.3594H153.312V102ZM151.367 91.0703C151.367 90.7422 151.456 90.4896 151.633 90.3125C151.815 90.1354 152.073 90.0469 152.406 90.0469C152.729 90.0469 152.979 90.1354 153.156 90.3125C153.338 90.4896 153.43 90.7422 153.43 91.0703C153.43 91.3828 153.338 91.6302 153.156 91.8125C152.979 91.9896 152.729 92.0781 152.406 92.0781C152.073 92.0781 151.815 91.9896 151.633 91.8125C151.456 91.6302 151.367 91.3828 151.367 91.0703Z" fill="white"/>
<path d="M161.75 99.5391C161.75 100.383 161.443 101.031 160.828 101.484C160.213 101.932 159.333 102.156 158.187 102.156C157.036 102.156 156.112 101.982 155.414 101.633V100.047C156.43 100.516 157.375 100.75 158.25 100.75C159.38 100.75 159.945 100.409 159.945 99.7266C159.945 99.5078 159.883 99.3255 159.758 99.1797C159.633 99.0339 159.427 98.8828 159.141 98.7266C158.854 98.5703 158.456 98.3932 157.945 98.1953C156.95 97.8099 156.276 97.4245 155.922 97.0391C155.573 96.6536 155.398 96.1536 155.398 95.5391C155.398 94.7995 155.695 94.2266 156.289 93.8203C156.888 93.4089 157.7 93.2031 158.726 93.2031C159.742 93.2031 160.703 93.4089 161.609 93.8203L161.016 95.2031C160.083 94.8177 159.299 94.625 158.664 94.625C157.695 94.625 157.211 94.901 157.211 95.4531C157.211 95.724 157.336 95.9531 157.586 96.1406C157.841 96.3281 158.393 96.5859 159.242 96.9141C159.956 97.1901 160.474 97.4427 160.797 97.6719C161.12 97.901 161.359 98.1667 161.516 98.4688C161.672 98.7656 161.75 99.1224 161.75 99.5391Z" fill="white"/>
<path d="M166.961 100.672C167.409 100.672 167.857 100.602 168.305 100.461V101.844C168.101 101.932 167.838 102.005 167.516 102.062C167.198 102.125 166.867 102.156 166.523 102.156C164.784 102.156 163.914 101.24 163.914 99.4062V94.75H162.734V93.9375L164 93.2656L164.625 91.4375H165.758V93.3594H168.219V94.75H165.758V99.375C165.758 99.8177 165.867 100.146 166.086 100.359C166.31 100.568 166.601 100.672 166.961 100.672Z" fill="white"/>
<path d="M177.703 97.6641C177.703 99.0755 177.341 100.177 176.617 100.969C175.893 101.76 174.885 102.156 173.594 102.156C172.786 102.156 172.073 101.974 171.453 101.609C170.833 101.245 170.357 100.721 170.023 100.039C169.69 99.3568 169.523 98.5651 169.523 97.6641C169.523 96.263 169.883 95.1693 170.601 94.3828C171.32 93.5964 172.333 93.2031 173.641 93.2031C174.891 93.2031 175.88 93.6068 176.609 94.4141C177.338 95.2161 177.703 96.2995 177.703 97.6641ZM171.414 97.6641C171.414 99.6589 172.151 100.656 173.625 100.656C175.083 100.656 175.812 99.6589 175.812 97.6641C175.812 95.6901 175.078 94.7031 173.609 94.7031C172.838 94.7031 172.279 94.9583 171.93 95.4688C171.586 95.9792 171.414 96.7109 171.414 97.6641Z" fill="white"/>
<path d="M86.5716 144.062C84.8583 150.052 79.8074 154.071 77.4961 155.332L99.4928 178.963C100.177 178.486 102.353 176.896 105.584 174.349C109.622 171.165 114.98 172.741 120.25 170.645C124.465 168.968 128.545 164.792 130.057 162.913C132.605 161.716 137.346 158.252 135.926 153.984C134.507 149.715 129.825 150.437 127.662 151.332C130.746 150.023 136.366 146.378 134.175 142.269C131.983 138.159 127.323 138.877 125.267 139.75C128.136 138.485 133.443 134.838 131.713 130.365C129.983 125.892 126.037 126.171 124.28 126.87L140.378 115.489C143.007 113.604 147.41 108.936 143.984 105.35C140.559 101.764 136.115 104.07 134.322 105.671L106.497 126.857C108.206 122.143 110.004 117.074 110.847 112.203C111.751 106.984 108.112 104.18 102.771 108.841C91.6878 118.514 88.7133 136.574 86.5716 144.062Z" fill="#A1C9FF"/>
<path d="M80.2698 150.103L73.8115 156.068C59.4807 152.776 46.1321 159.386 32.2052 170.456C16.7612 182.732 0 209.718 0 209.718H90.8976C97.9452 199.102 97.9941 192.042 97.9941 183.156L104.709 177.397L80.2698 150.103Z" fill="#004079"/>
</g>
<defs>
<clipPath id="clip0">
<rect width="300" height="190" fill="white" transform="translate(0 20)"/>
</clipPath>
</defs>
</svg>
