<svg width="320" height="210" viewBox="0 0 320 210" fill="none" xmlns="http://www.w3.org/2000/svg">
<path d="M320 0H0V210H320V0Z" fill="#E9F2FF"/>
<path d="M20.5 25C20.5 22.5147 22.5147 20.5 25 20.5H295C297.485 20.5 299.5 22.5147 299.5 25V55C299.5 57.4853 297.485 59.5 295 59.5H25C22.5147 59.5 20.5 57.4853 20.5 55V25Z" fill="white" stroke="#B7B7B7"/>
<path d="M286.833 48L283.333 44.5C282.146 45.4375 280.646 46 279 46C275.146 46.0208 272 42.875 272 39C272 35.1458 275.146 32 279 32C282.854 32 286.021 35.1458 286.021 39C286.021 40.625 285.458 42.125 284.521 43.3333L288 46.8333L286.833 48ZM279 33.6667C276.063 33.6667 273.667 36.0625 273.667 39C273.667 41.9375 276.063 44.3333 279 44.3333C281.938 44.3333 284.354 41.9583 284.354 39C284.354 36.0625 281.958 33.6667 279 33.6667Z" fill="#B7B7B7"/>
<path d="M41.4141 46H35.6719L38.0859 34.5781H43.8281L43.5781 35.7734H39.1562L38.3906 39.4375H42.5078L42.2812 40.625H38.1484L37.2578 44.8125H41.6719L41.4141 46Z" fill="#727272"/>
<path d="M42.1328 49.8438C41.7734 49.8438 41.4531 49.7891 41.1719 49.6797V48.5781C41.4896 48.6927 41.7995 48.75 42.1016 48.75C42.7526 48.75 43.1901 48.2161 43.4141 47.1484L45.4766 37.4375H46.7734L44.6953 47.2656C44.5078 48.1562 44.2083 48.8073 43.7969 49.2188C43.3906 49.6354 42.8359 49.8438 42.1328 49.8438ZM45.8438 35.25C45.8438 34.9583 45.9271 34.7214 46.0938 34.5391C46.2604 34.3516 46.4766 34.2578 46.7422 34.2578C47.1901 34.2578 47.4141 34.4922 47.4141 34.9609C47.4141 35.2474 47.3255 35.4896 47.1484 35.6875C46.9766 35.8854 46.776 35.9844 46.5469 35.9844C46.349 35.9844 46.1823 35.9219 46.0469 35.7969C45.9115 35.6667 45.8438 35.4844 45.8438 35.25Z" fill="#727272"/>
<path d="M51.0938 46.1562C50.1354 46.1562 49.3828 45.8725 48.8359 45.3048C48.2891 44.7371 48.0156 43.9505 48.0156 42.9453C48.0156 41.9661 48.2083 41.0286 48.5938 40.1328C48.9844 39.2318 49.5 38.5312 50.1406 38.0312C50.7812 37.5312 51.487 37.2812 52.2578 37.2812C53.0547 37.2812 53.6536 37.4558 54.0547 37.8048C54.4557 38.1485 54.6562 38.6302 54.6562 39.25C54.6562 40.1875 54.224 40.9245 53.3594 41.4609C52.4948 41.9922 51.2578 42.2578 49.6484 42.2578H49.3906L49.3594 42.8828C49.3594 43.5651 49.5182 44.099 49.8359 44.4844C50.1589 44.8646 50.6562 45.0548 51.3281 45.0548C51.6562 45.0548 51.9922 45.0079 52.3359 44.9142C52.6849 44.8204 53.1172 44.6484 53.6328 44.3984V45.5392C53.1432 45.7683 52.7109 45.9271 52.3359 46.0156C51.9609 46.1094 51.5469 46.1562 51.0938 46.1562ZM52.1797 38.3984C51.6432 38.3984 51.138 38.6432 50.6641 39.1328C50.1953 39.6224 49.8359 40.3021 49.5859 41.1719H49.6797C50.8672 41.1719 51.776 41.0182 52.4062 40.7109C53.0417 40.3984 53.3594 39.9479 53.3594 39.3594C53.3594 39.0833 53.263 38.8542 53.0703 38.6719C52.8828 38.4896 52.5859 38.3984 52.1797 38.3984Z" fill="#727272"/>
<path d="M60.5781 46L61.7344 40.5938C61.8281 40.1042 61.875 39.7527 61.875 39.5392C61.875 39.1746 61.7943 38.8906 61.6328 38.6875C61.4714 38.4844 61.1953 38.3828 60.8047 38.3828C60.3672 38.3828 59.9401 38.5392 59.5234 38.8517C59.112 39.1642 58.7474 39.612 58.4297 40.1953C58.1172 40.7734 57.875 41.4715 57.7031 42.2892L56.9141 46H55.6016L57.4297 37.4375H58.5156L58.3438 39.0234H58.4219C58.875 38.4036 59.3255 37.9583 59.7734 37.6875C60.2266 37.4167 60.6927 37.2812 61.1719 37.2812C61.7604 37.2812 62.2135 37.4506 62.5312 37.7892C62.849 38.1277 63.0365 38.599 63.0938 39.2031H63.1562C63.6042 38.5521 64.0807 38.0703 64.5859 37.7578C65.0911 37.4401 65.6016 37.2812 66.1172 37.2812C66.7786 37.2812 67.2891 37.4583 67.6484 37.8125C68.013 38.1667 68.1953 38.6823 68.1953 39.3594C68.1953 39.7135 68.138 40.1771 68.0234 40.75L66.8984 46H65.5703L66.7266 40.5938C66.8307 40.0521 66.8828 39.6719 66.8828 39.4531C66.8828 39.1302 66.7917 38.8725 66.6094 38.6798C66.4323 38.4819 66.151 38.3828 65.7656 38.3828C65.3438 38.3828 64.9271 38.5339 64.5156 38.8359C64.1042 39.138 63.7422 39.5677 63.4297 40.125C63.1224 40.6771 62.888 41.3333 62.7266 42.0938L61.8906 46H60.5781Z" fill="#727272"/>
<path d="M73.3516 46.1562C72.8464 46.1562 72.4036 46.026 72.0234 45.7656C71.6432 45.5052 71.349 45.1406 71.1406 44.6719H71.0625L71.0312 44.9688C71.0156 45.099 70.987 45.2812 70.9453 45.5156C70.9089 45.75 70.612 47.1927 70.0547 49.8438H68.7578L71.3828 37.4375H72.4688L72.2656 39.0703H72.3281C73.2604 37.888 74.2292 37.2969 75.2344 37.2969C75.9479 37.2969 76.5104 37.5521 76.9219 38.0625C77.3333 38.5677 77.5391 39.2786 77.5391 40.1953C77.5391 41.2995 77.3594 42.3125 77 43.2344C76.6406 44.1562 76.1432 44.875 75.5078 45.3906C74.8724 45.901 74.1536 46.1562 73.3516 46.1562ZM74.8047 38.3828C74.3047 38.3828 73.7943 38.6302 73.2734 39.125C72.7578 39.6198 72.3464 40.2422 72.0391 40.9922C71.737 41.7422 71.5859 42.5104 71.5859 43.2969C71.5859 43.8698 71.7292 44.3099 72.0156 44.6172C72.3073 44.9193 72.7266 45.0703 73.2734 45.0703C73.7891 45.0703 74.2682 44.8594 74.7109 44.4375C75.1589 44.0156 75.5182 43.4167 75.7891 42.6406C76.0599 41.8594 76.1953 41.0312 76.1953 40.1562C76.1953 38.974 75.7318 38.3828 74.8047 38.3828Z" fill="#727272"/>
<path d="M80.0859 46H78.7734L81.3672 33.8438H82.6797L80.0859 46Z" fill="#727272"/>
<path d="M87.4142 37.3281C88.4037 37.3281 89.1849 37.6224 89.7578 38.2109C90.3307 38.7943 90.6173 39.599 90.6173 40.625C90.6173 41.6042 90.4298 42.5286 90.0548 43.3984C89.6798 44.2682 89.1719 44.9401 88.5312 45.4141C87.8906 45.888 87.1667 46.125 86.3594 46.125C85.3594 46.125 84.5755 45.8307 84.0078 45.2422C83.4401 44.6536 83.1562 43.849 83.1562 42.8281C83.1562 41.8385 83.3465 40.9089 83.7267 40.0391C84.1069 39.1641 84.6199 38.4948 85.2657 38.0312C85.9116 37.5625 86.6277 37.3281 87.4142 37.3281ZM89.2578 40.4453C89.2578 39.8464 89.0939 39.362 88.7657 38.9922C88.4428 38.6172 88.0026 38.4297 87.4453 38.4297C86.8776 38.4297 86.3673 38.6224 85.9142 39.0078C85.4662 39.3932 85.1173 39.9297 84.8673 40.6172C84.6225 41.2995 84.5 42.0599 84.5 42.8984C84.5 43.5807 84.6642 44.1094 84.9923 44.4844C85.3256 44.8542 85.8021 45.0391 86.4219 45.0391C86.9635 45.0391 87.4505 44.849 87.8828 44.4688C88.3151 44.0885 88.6511 43.5495 88.8907 42.8516C89.1355 42.1484 89.2578 41.3464 89.2578 40.4453Z" fill="#727272"/>
<path d="M91.7109 45.4219C91.7109 45.0208 91.8151 44.7031 92.0234 44.4688C92.237 44.2291 92.5286 44.1094 92.8984 44.1094C93.1224 44.1094 93.3021 44.1771 93.4375 44.3125C93.5781 44.4479 93.6484 44.6536 93.6484 44.9297C93.6484 45.2995 93.5443 45.6094 93.3359 45.8594C93.1276 46.1042 92.8464 46.2266 92.4922 46.2266C92.2526 46.2266 92.0625 46.1588 91.9219 46.0233C91.7812 45.8879 91.7109 45.6875 91.7109 45.4219ZM92.9609 38.5312C92.9609 38.1302 93.0651 37.8125 93.2734 37.5781C93.4818 37.3385 93.7708 37.2188 94.1406 37.2188C94.6458 37.2188 94.8984 37.4896 94.8984 38.0312C94.8984 38.4115 94.7891 38.7239 94.5703 38.9688C94.3568 39.2083 94.0807 39.3281 93.7422 39.3281C93.5026 39.3281 93.3125 39.2604 93.1719 39.125C93.0312 38.9844 92.9609 38.7865 92.9609 38.5312Z" fill="#727272"/>
<path d="M103.383 46H102.039L104.203 35.7578H101.031L101.289 34.5781H108.984L108.75 35.7578H105.563L103.383 46Z" fill="#727272"/>
<path d="M111.391 46.1562C110.432 46.1562 109.68 45.8725 109.133 45.3048C108.586 44.7371 108.312 43.9505 108.312 42.9453C108.312 41.9661 108.505 41.0286 108.891 40.1328C109.281 39.2318 109.797 38.5312 110.438 38.0312C111.078 37.5312 111.784 37.2812 112.555 37.2812C113.352 37.2812 113.951 37.4558 114.352 37.8048C114.753 38.1485 114.953 38.6302 114.953 39.25C114.953 40.1875 114.521 40.9245 113.656 41.4609C112.792 41.9922 111.555 42.2578 109.945 42.2578H109.688L109.656 42.8828C109.656 43.5651 109.815 44.099 110.133 44.4844C110.456 44.8646 110.953 45.0548 111.625 45.0548C111.953 45.0548 112.289 45.0079 112.633 44.9142C112.982 44.8204 113.414 44.6484 113.93 44.3984V45.5392C113.44 45.7683 113.008 45.9271 112.633 46.0156C112.258 46.1094 111.844 46.1562 111.391 46.1562ZM112.477 38.3984C111.94 38.3984 111.435 38.6432 110.961 39.1328C110.492 39.6224 110.133 40.3021 109.883 41.1719H109.977C111.164 41.1719 112.073 41.0182 112.703 40.7109C113.339 40.3984 113.656 39.9479 113.656 39.3594C113.656 39.0833 113.56 38.8542 113.367 38.6719C113.18 38.4896 112.883 38.3984 112.477 38.3984Z" fill="#727272"/>
<path d="M121.312 37.2812C121.672 37.2812 121.984 37.3177 122.25 37.3906L121.969 38.5625C121.693 38.4948 121.419 38.4609 121.148 38.4609C120.674 38.4609 120.229 38.6173 119.813 38.9298C119.401 39.2423 119.039 39.6771 118.727 40.2344C118.419 40.7865 118.193 41.401 118.047 42.0781L117.211 46H115.898L117.727 37.4375H118.813L118.641 39.0234H118.719C119.094 38.5286 119.404 38.1745 119.648 37.9609C119.893 37.7422 120.148 37.5755 120.414 37.4609C120.685 37.3411 120.984 37.2812 121.312 37.2812Z" fill="#727272"/>
<path d="M127.219 46L128.375 40.5938C128.469 40.1042 128.516 39.7527 128.516 39.5392C128.516 39.1746 128.435 38.8906 128.273 38.6875C128.112 38.4844 127.836 38.3828 127.445 38.3828C127.008 38.3828 126.581 38.5392 126.164 38.8517C125.753 39.1642 125.388 39.612 125.07 40.1953C124.758 40.7734 124.516 41.4715 124.344 42.2892L123.555 46H122.242L124.07 37.4375H125.156L124.984 39.0234H125.062C125.516 38.4036 125.966 37.9583 126.414 37.6875C126.867 37.4167 127.333 37.2812 127.812 37.2812C128.401 37.2812 128.854 37.4506 129.172 37.7892C129.49 38.1277 129.677 38.599 129.734 39.2031H129.797C130.245 38.5521 130.721 38.0703 131.227 37.7578C131.732 37.4401 132.242 37.2812 132.758 37.2812C133.419 37.2812 133.93 37.4583 134.289 37.8125C134.654 38.1667 134.836 38.6823 134.836 39.3594C134.836 39.7135 134.779 40.1771 134.664 40.75L133.539 46H132.211L133.367 40.5938C133.471 40.0521 133.523 39.6719 133.523 39.4531C133.523 39.1302 133.432 38.8725 133.25 38.6798C133.073 38.4819 132.792 38.3828 132.406 38.3828C131.984 38.3828 131.568 38.5339 131.156 38.8359C130.745 39.138 130.383 39.5677 130.07 40.125C129.763 40.6771 129.529 41.3333 129.367 42.0938L128.531 46H127.219Z" fill="#727272"/>
<path d="M137.508 46H136.195L138.023 37.4375H139.336L137.508 46ZM138.391 35.25C138.391 34.9583 138.474 34.7214 138.641 34.5391C138.807 34.3516 139.023 34.2578 139.289 34.2578C139.747 34.2578 139.977 34.4922 139.977 34.9609C139.977 35.2474 139.888 35.4896 139.711 35.6875C139.539 35.8854 139.339 35.9844 139.109 35.9844C138.901 35.9844 138.729 35.9219 138.594 35.7969C138.458 35.6667 138.391 35.4844 138.391 35.25Z" fill="#727272"/>
<path d="M145.492 46L146.648 40.5938C146.753 40.0521 146.805 39.6771 146.805 39.4688C146.805 39.1406 146.711 38.8777 146.523 38.6798C146.341 38.4819 146.047 38.3828 145.641 38.3828C145.177 38.3828 144.724 38.5392 144.281 38.8517C143.844 39.1642 143.456 39.6094 143.117 40.1875C142.784 40.7656 142.531 41.4662 142.359 42.2892L141.57 46H140.258L142.086 37.4375H143.172L143 39.0234H143.078C143.578 38.388 144.06 37.9402 144.523 37.6798C144.992 37.4142 145.477 37.2812 145.977 37.2812C146.638 37.2812 147.159 37.4635 147.539 37.8281C147.924 38.1875 148.117 38.6927 148.117 39.3438C148.117 39.7552 148.057 40.224 147.938 40.75L146.82 46H145.492Z" fill="#727272"/>
<path d="M154.023 37.2812C154.503 37.2812 154.93 37.4115 155.305 37.6719C155.68 37.9271 155.971 38.297 156.18 38.7812H156.266L156.789 37.4375H157.781L155.961 46H154.922L155.125 44.3673H155.062C154.13 45.56 153.148 46.1562 152.117 46.1562C151.393 46.1562 150.826 45.8984 150.414 45.3828C150.003 44.8672 149.797 44.1615 149.797 43.2656C149.797 42.1823 149.982 41.1771 150.352 40.25C150.721 39.3229 151.232 38.5964 151.883 38.0703C152.534 37.5443 153.247 37.2812 154.023 37.2812ZM152.539 45.0703C153.044 45.0703 153.547 44.8308 154.047 44.3517C154.547 43.8673 154.953 43.2396 155.266 42.4688C155.578 41.6927 155.734 40.9167 155.734 40.1406C155.734 39.6042 155.589 39.1771 155.297 38.8594C155.005 38.5417 154.622 38.3828 154.148 38.3828C153.607 38.3828 153.102 38.6069 152.633 39.0548C152.169 39.5027 151.805 40.1094 151.539 40.875C151.273 41.6406 151.141 42.4479 151.141 43.2969C151.141 43.8906 151.263 44.3359 151.508 44.6328C151.753 44.9245 152.096 45.0703 152.539 45.0703Z" fill="#727272"/>
<path d="M159.836 46H158.523L161.117 33.8438H162.43L159.836 46Z" fill="#727272"/>
<path d="M171.289 37.2969C172.299 37.2969 173.031 37.7917 173.484 38.7812H173.562C173.651 37.974 173.768 37.2604 173.914 36.6406L174.523 33.8438H175.82L173.242 46H172.156L172.328 44.3672H172.266C171.74 45.0182 171.247 45.4792 170.789 45.75C170.331 46.0208 169.857 46.1562 169.367 46.1562C168.643 46.1562 168.078 45.901 167.672 45.3906C167.266 44.8802 167.062 44.1719 167.062 43.2656C167.062 42.151 167.25 41.1302 167.625 40.2031C168 39.276 168.505 38.5599 169.141 38.0547C169.781 37.5495 170.497 37.2969 171.289 37.2969ZM169.805 45.0702C170.294 45.0702 170.799 44.828 171.32 44.3438C171.841 43.8541 172.253 43.2318 172.555 42.4766C172.862 41.7161 173.016 40.9427 173.016 40.1562C173.016 39.5781 172.875 39.1379 172.594 38.8358C172.312 38.5338 171.904 38.3827 171.367 38.3827C170.841 38.3827 170.352 38.599 169.898 39.0312C169.451 39.4583 169.089 40.0624 168.812 40.8438C168.542 41.6198 168.406 42.4375 168.406 43.2969C168.406 44.4792 168.872 45.0702 169.805 45.0702Z" fill="#727272"/>
<path d="M179.375 46.1562C178.417 46.1562 177.664 45.8725 177.117 45.3048C176.57 44.7371 176.297 43.9505 176.297 42.9453C176.297 41.9661 176.49 41.0286 176.875 40.1328C177.266 39.2318 177.781 38.5312 178.422 38.0312C179.062 37.5312 179.768 37.2812 180.539 37.2812C181.336 37.2812 181.935 37.4558 182.336 37.8048C182.737 38.1485 182.938 38.6302 182.938 39.25C182.938 40.1875 182.505 40.9245 181.641 41.4609C180.776 41.9922 179.539 42.2578 177.93 42.2578H177.672L177.641 42.8828C177.641 43.5651 177.799 44.099 178.117 44.4844C178.44 44.8646 178.938 45.0548 179.609 45.0548C179.938 45.0548 180.273 45.0079 180.617 44.9142C180.966 44.8204 181.398 44.6484 181.914 44.3984V45.5392C181.424 45.7683 180.992 45.9271 180.617 46.0156C180.242 46.1094 179.828 46.1562 179.375 46.1562ZM180.461 38.3984C179.924 38.3984 179.419 38.6432 178.945 39.1328C178.477 39.6224 178.117 40.3021 177.867 41.1719H177.961C179.148 41.1719 180.057 41.0182 180.688 40.7109C181.323 40.3984 181.641 39.9479 181.641 39.3594C181.641 39.0833 181.544 38.8542 181.352 38.6719C181.164 38.4896 180.867 38.3984 180.461 38.3984Z" fill="#727272"/>
<path d="M191.836 46.1562C191.331 46.1562 190.885 46.0233 190.5 45.7577C190.12 45.4921 189.833 45.1302 189.641 44.6719H189.562L189.016 46H188.039L190.617 33.8438H191.93C191.664 35.1042 191.458 36.0703 191.312 36.7422C191.172 37.4089 190.977 38.19 190.727 39.0858H190.797C191.281 38.4713 191.758 38.0208 192.227 37.7344C192.701 37.4427 193.188 37.2969 193.688 37.2969C194.422 37.2969 194.995 37.5546 195.406 38.0702C195.818 38.5858 196.023 39.2942 196.023 40.1952C196.023 41.2838 195.844 42.2916 195.484 43.2188C195.13 44.1406 194.633 44.8619 193.992 45.3827C193.357 45.8983 192.638 46.1562 191.836 46.1562ZM193.289 38.3827C192.789 38.3827 192.279 38.6302 191.758 39.125C191.242 39.6198 190.831 40.2422 190.523 40.9922C190.221 41.7422 190.07 42.5104 190.07 43.2969C190.07 43.8698 190.214 44.3099 190.5 44.6172C190.792 44.9193 191.211 45.0702 191.758 45.0702C192.273 45.0702 192.753 44.8594 193.195 44.4375C193.643 44.0156 194.003 43.4167 194.273 42.6406C194.544 41.8594 194.68 41.0312 194.68 40.1562C194.68 38.974 194.216 38.3827 193.289 38.3827Z" fill="#727272"/>
<path d="M200.336 37.4375L199.164 42.8672C199.07 43.3307 199.023 43.6927 199.023 43.9531C199.023 44.6979 199.406 45.0703 200.172 45.0703C200.63 45.0703 201.081 44.9141 201.523 44.6016C201.966 44.2891 202.357 43.8411 202.695 43.2578C203.034 42.6745 203.292 41.9714 203.469 41.1484L204.25 37.4375H205.547L203.742 46H202.656L202.828 44.4141H202.734C202.224 45.0651 201.737 45.5182 201.273 45.7734C200.81 46.0286 200.331 46.1562 199.836 46.1562C199.169 46.1562 198.646 45.9766 198.266 45.6172C197.885 45.2526 197.695 44.7344 197.695 44.0625C197.695 43.7396 197.753 43.2917 197.867 42.7188L199.008 37.4375H200.336Z" fill="#727272"/>
<path d="M211.789 43.5703C211.789 44.3828 211.5 45.0183 210.922 45.4767C210.349 45.9298 209.539 46.1562 208.492 46.1562C207.612 46.1562 206.818 45.9767 206.109 45.6173V44.3828C206.474 44.6016 206.867 44.7708 207.289 44.8906C207.711 45.0104 208.102 45.0703 208.461 45.0703C209.117 45.0703 209.612 44.9402 209.945 44.6798C210.279 44.4194 210.445 44.086 210.445 43.6798C210.445 43.3829 210.354 43.1329 210.172 42.9298C209.99 42.7267 209.596 42.4479 208.992 42.0938C208.315 41.7135 207.836 41.3412 207.555 40.9767C207.273 40.6121 207.133 40.1798 207.133 39.6798C207.133 38.961 207.396 38.3828 207.922 37.9453C208.448 37.5026 209.141 37.2812 210 37.2812C210.891 37.2812 211.75 37.474 212.578 37.8594L212.156 38.9298L211.719 38.7344C211.193 38.5104 210.62 38.3984 210 38.3984C209.516 38.3984 209.135 38.5131 208.859 38.7423C208.583 38.9662 208.445 39.2579 208.445 39.6173C208.445 39.909 208.536 40.159 208.719 40.3673C208.906 40.5756 209.289 40.8438 209.867 41.1719C210.424 41.4844 210.823 41.7527 211.062 41.9767C211.307 42.2006 211.49 42.4427 211.609 42.7031C211.729 42.9583 211.789 43.2474 211.789 43.5703Z" fill="#727272"/>
<path d="M216.75 46.1562C215.792 46.1562 215.039 45.8725 214.492 45.3048C213.945 44.7371 213.672 43.9505 213.672 42.9453C213.672 41.9661 213.865 41.0286 214.25 40.1328C214.641 39.2318 215.156 38.5312 215.797 38.0312C216.438 37.5312 217.143 37.2812 217.914 37.2812C218.711 37.2812 219.31 37.4558 219.711 37.8048C220.112 38.1485 220.312 38.6302 220.312 39.25C220.312 40.1875 219.88 40.9245 219.016 41.4609C218.151 41.9922 216.914 42.2578 215.305 42.2578H215.047L215.016 42.8828C215.016 43.5651 215.174 44.099 215.492 44.4844C215.815 44.8646 216.312 45.0548 216.984 45.0548C217.312 45.0548 217.648 45.0079 217.992 44.9142C218.341 44.8204 218.773 44.6484 219.289 44.3984V45.5392C218.799 45.7683 218.367 45.9271 217.992 46.0156C217.617 46.1094 217.203 46.1562 216.75 46.1562ZM217.836 38.3984C217.299 38.3984 216.794 38.6432 216.32 39.1328C215.852 39.6224 215.492 40.3021 215.242 41.1719H215.336C216.523 41.1719 217.432 41.0182 218.062 40.7109C218.698 40.3984 219.016 39.9479 219.016 39.3594C219.016 39.0833 218.919 38.8542 218.727 38.6719C218.539 38.4896 218.242 38.3984 217.836 38.3984Z" fill="#727272"/>
<path d="M226.539 43.5703C226.539 44.3828 226.25 45.0183 225.672 45.4767C225.099 45.9298 224.289 46.1562 223.242 46.1562C222.362 46.1562 221.568 45.9767 220.859 45.6173V44.3828C221.224 44.6016 221.617 44.7708 222.039 44.8906C222.461 45.0104 222.852 45.0703 223.211 45.0703C223.867 45.0703 224.362 44.9402 224.695 44.6798C225.029 44.4194 225.195 44.086 225.195 43.6798C225.195 43.3829 225.104 43.1329 224.922 42.9298C224.74 42.7267 224.346 42.4479 223.742 42.0938C223.065 41.7135 222.586 41.3412 222.305 40.9767C222.023 40.6121 221.883 40.1798 221.883 39.6798C221.883 38.961 222.146 38.3828 222.672 37.9453C223.198 37.5026 223.891 37.2812 224.75 37.2812C225.641 37.2812 226.5 37.474 227.328 37.8594L226.906 38.9298L226.469 38.7344C225.943 38.5104 225.37 38.3984 224.75 38.3984C224.266 38.3984 223.885 38.5131 223.609 38.7423C223.333 38.9662 223.195 39.2579 223.195 39.6173C223.195 39.909 223.286 40.159 223.469 40.3673C223.656 40.5756 224.039 40.8438 224.617 41.1719C225.174 41.4844 225.573 41.7527 225.812 41.9767C226.057 42.2006 226.24 42.4427 226.359 42.7031C226.479 42.9583 226.539 43.2474 226.539 43.5703Z" fill="#727272"/>
<path d="M158.926 109.189C156.295 118.387 148.54 124.559 144.991 126.494L178.766 162.779C179.816 162.046 183.157 159.604 188.118 155.693C194.318 150.805 202.545 153.225 210.636 150.006C217.109 147.431 223.373 141.019 225.695 138.135C229.607 136.296 236.887 130.978 234.707 124.424C232.527 117.869 225.339 118.978 222.017 120.352C226.753 118.342 235.382 112.745 232.017 106.436C228.652 100.126 221.496 101.228 218.339 102.568C222.746 100.627 230.894 95.0268 228.237 88.1587C225.58 81.2905 219.522 81.7193 216.825 82.7922L241.542 65.3178C245.579 62.4224 252.339 55.2552 247.079 49.7496C241.82 44.2439 234.997 47.784 232.243 50.2423L189.52 82.7729C192.144 75.5339 194.904 67.7515 196.199 60.2722C197.587 52.2585 192 47.9532 183.799 55.11C166.781 69.9619 162.214 97.6921 158.926 109.189Z" fill="#A1C9FF"/>
<path d="M149.249 118.465L139.333 127.624C117.329 122.57 96.8329 132.719 75.4491 149.717C51.7357 168.566 26 210 26 210H165.567C176.389 193.7 176.464 182.86 176.464 169.216L186.773 160.373L149.249 118.465Z" fill="#004079"/>
</svg>
