<svg width="320" height="210" viewBox="0 0 320 210" fill="none" xmlns="http://www.w3.org/2000/svg">
<path d="M320 0H0V210H320V0Z" fill="#E9F2FF"/>
<path d="M20 20C20 17.2386 22.2386 15 25 15H295C297.761 15 300 17.2386 300 20V59C300 61.7614 297.761 64 295 64H25C22.2386 64 20 61.7614 20 59V20Z" fill="#041C42"/>
<path d="M92.5195 45L91.5215 42.2246H87.7002L86.7227 45H85L88.7393 34.9648H90.5166L94.2559 45H92.5195ZM91.0908 40.8164L90.1543 38.0957C90.0859 37.9134 89.9902 37.6263 89.8672 37.2344C89.7487 36.8424 89.6667 36.5553 89.6211 36.373C89.498 36.9336 89.318 37.5465 89.0811 38.2119L88.1787 40.8164H91.0908Z" fill="white"/>
<path d="M101.789 37.4395V38.3213L100.497 38.5605C100.616 38.7201 100.713 38.916 100.791 39.1484C100.868 39.3809 100.907 39.627 100.907 39.8867C100.907 40.666 100.638 41.279 100.101 41.7256C99.5628 42.1722 98.8223 42.3955 97.8789 42.3955C97.6374 42.3955 97.4186 42.3773 97.2227 42.3408C96.8763 42.555 96.7031 42.8057 96.7031 43.0928C96.7031 43.266 96.7829 43.3958 96.9424 43.4824C97.1064 43.569 97.4049 43.6123 97.8379 43.6123H99.1572C99.9912 43.6123 100.625 43.79 101.058 44.1455C101.491 44.501 101.707 45.0137 101.707 45.6836C101.707 46.5404 101.354 47.2012 100.647 47.666C99.9411 48.1309 98.9202 48.3633 97.585 48.3633C96.555 48.3633 95.7689 48.181 95.2266 47.8164C94.6842 47.4518 94.4131 46.9323 94.4131 46.2578C94.4131 45.793 94.5589 45.401 94.8506 45.082C95.1468 44.7676 95.5592 44.5488 96.0879 44.4258C95.8737 44.3346 95.696 44.1888 95.5547 43.9883C95.418 43.7832 95.3496 43.569 95.3496 43.3457C95.3496 43.0632 95.4294 42.8239 95.5889 42.6279C95.7484 42.432 95.9854 42.2383 96.2998 42.0469C95.9079 41.8783 95.5889 41.6048 95.3428 41.2266C95.1012 40.8438 94.9805 40.3971 94.9805 39.8867C94.9805 39.0664 95.238 38.4307 95.7529 37.9795C96.2725 37.5283 97.0107 37.3027 97.9678 37.3027C98.182 37.3027 98.4053 37.3187 98.6377 37.3506C98.8747 37.3779 99.0524 37.4076 99.1709 37.4395H101.789ZM95.8486 46.1758C95.8486 46.5221 96.0036 46.7887 96.3135 46.9756C96.6279 47.1624 97.0677 47.2559 97.6328 47.2559C98.5078 47.2559 99.1595 47.1305 99.5879 46.8799C100.016 46.6292 100.23 46.2965 100.23 45.8818C100.23 45.5537 100.112 45.319 99.875 45.1777C99.6426 45.041 99.2074 44.9727 98.5693 44.9727H97.3525C96.8923 44.9727 96.5254 45.0798 96.252 45.2939C95.9831 45.5127 95.8486 45.8066 95.8486 46.1758ZM96.5391 39.8867C96.5391 40.3607 96.6598 40.7253 96.9014 40.9805C97.1475 41.2357 97.4984 41.3633 97.9541 41.3633C98.8838 41.3633 99.3486 40.8665 99.3486 39.873C99.3486 39.3809 99.2324 39.0026 99 38.7383C98.7721 38.4694 98.4235 38.335 97.9541 38.335C97.4893 38.335 97.1361 38.4671 96.8945 38.7314C96.6576 38.9958 96.5391 39.3809 96.5391 39.8867Z" fill="white"/>
<path d="M107.032 37.3027C107.356 37.3027 107.622 37.3255 107.832 37.3711L107.675 38.8682C107.447 38.8135 107.21 38.7861 106.964 38.7861C106.321 38.7861 105.799 38.9958 105.398 39.415C105.002 39.8343 104.804 40.3789 104.804 41.0488V45H103.197V37.4395H104.455L104.667 38.7725H104.749C105 38.3213 105.325 37.9635 105.727 37.6992C106.132 37.4349 106.567 37.3027 107.032 37.3027Z" fill="white"/>
<path d="M112.542 45.1367C111.366 45.1367 110.446 44.7949 109.78 44.1113C109.119 43.4232 108.789 42.4775 108.789 41.2744C108.789 40.0394 109.097 39.0687 109.712 38.3623C110.327 37.6559 111.172 37.3027 112.248 37.3027C113.246 37.3027 114.034 37.6058 114.613 38.2119C115.192 38.818 115.481 39.652 115.481 40.7139V41.582H110.443C110.466 42.3158 110.664 42.8809 111.038 43.2773C111.412 43.6693 111.938 43.8652 112.617 43.8652C113.064 43.8652 113.478 43.8242 113.861 43.7422C114.249 43.6556 114.663 43.5143 115.105 43.3184V44.624C114.713 44.8109 114.317 44.943 113.916 45.0205C113.515 45.098 113.057 45.1367 112.542 45.1367ZM112.248 38.5195C111.738 38.5195 111.327 38.6813 111.018 39.0049C110.712 39.3285 110.53 39.8001 110.471 40.4199H113.902C113.893 39.7956 113.743 39.3239 113.451 39.0049C113.159 38.6813 112.758 38.5195 112.248 38.5195Z" fill="white"/>
<path d="M123.691 37.4395V38.3213L122.399 38.5605C122.518 38.7201 122.616 38.916 122.693 39.1484C122.771 39.3809 122.81 39.627 122.81 39.8867C122.81 40.666 122.541 41.279 122.003 41.7256C121.465 42.1722 120.725 42.3955 119.781 42.3955C119.54 42.3955 119.321 42.3773 119.125 42.3408C118.779 42.555 118.606 42.8057 118.606 43.0928C118.606 43.266 118.685 43.3958 118.845 43.4824C119.009 43.569 119.307 43.6123 119.74 43.6123H121.06C121.894 43.6123 122.527 43.79 122.96 44.1455C123.393 44.501 123.609 45.0137 123.609 45.6836C123.609 46.5404 123.256 47.2012 122.55 47.666C121.843 48.1309 120.823 48.3633 119.487 48.3633C118.457 48.3633 117.671 48.181 117.129 47.8164C116.587 47.4518 116.315 46.9323 116.315 46.2578C116.315 45.793 116.461 45.401 116.753 45.082C117.049 44.7676 117.462 44.5488 117.99 44.4258C117.776 44.3346 117.598 44.1888 117.457 43.9883C117.32 43.7832 117.252 43.569 117.252 43.3457C117.252 43.0632 117.332 42.8239 117.491 42.6279C117.651 42.432 117.888 42.2383 118.202 42.0469C117.81 41.8783 117.491 41.6048 117.245 41.2266C117.004 40.8438 116.883 40.3971 116.883 39.8867C116.883 39.0664 117.14 38.4307 117.655 37.9795C118.175 37.5283 118.913 37.3027 119.87 37.3027C120.084 37.3027 120.308 37.3187 120.54 37.3506C120.777 37.3779 120.955 37.4076 121.073 37.4395H123.691ZM117.751 46.1758C117.751 46.5221 117.906 46.7887 118.216 46.9756C118.53 47.1624 118.97 47.2559 119.535 47.2559C120.41 47.2559 121.062 47.1305 121.49 46.8799C121.919 46.6292 122.133 46.2965 122.133 45.8818C122.133 45.5537 122.014 45.319 121.777 45.1777C121.545 45.041 121.11 44.9727 120.472 44.9727H119.255C118.795 44.9727 118.428 45.0798 118.154 45.2939C117.885 45.5127 117.751 45.8066 117.751 46.1758ZM118.441 39.8867C118.441 40.3607 118.562 40.7253 118.804 40.9805C119.05 41.2357 119.401 41.3633 119.856 41.3633C120.786 41.3633 121.251 40.8665 121.251 39.873C121.251 39.3809 121.135 39.0026 120.902 38.7383C120.674 38.4694 120.326 38.335 119.856 38.335C119.392 38.335 119.038 38.4671 118.797 38.7314C118.56 38.9958 118.441 39.3809 118.441 39.8867Z" fill="white"/>
<path d="M129.83 45L129.509 43.9473H129.454C129.09 44.4076 128.723 44.722 128.354 44.8906C127.984 45.0547 127.51 45.1367 126.932 45.1367C126.189 45.1367 125.608 44.9362 125.188 44.5352C124.774 44.1341 124.566 43.5667 124.566 42.833C124.566 42.0537 124.856 41.4658 125.435 41.0693C126.013 40.6729 126.895 40.4564 128.08 40.4199L129.386 40.3789V39.9756C129.386 39.4925 129.272 39.1325 129.044 38.8955C128.821 38.654 128.472 38.5332 127.998 38.5332C127.611 38.5332 127.239 38.5902 126.884 38.7041C126.528 38.818 126.187 38.9525 125.858 39.1074L125.339 37.959C125.749 37.7448 126.198 37.583 126.686 37.4736C127.173 37.3597 127.633 37.3027 128.066 37.3027C129.028 37.3027 129.753 37.5124 130.24 37.9316C130.732 38.3509 130.979 39.0094 130.979 39.9072V45H129.83ZM127.438 43.9062C128.021 43.9062 128.488 43.7445 128.839 43.4209C129.194 43.0928 129.372 42.6348 129.372 42.0469V41.3906L128.401 41.4316C127.645 41.459 127.093 41.5866 126.747 41.8145C126.405 42.0378 126.234 42.3818 126.234 42.8467C126.234 43.1839 126.335 43.446 126.535 43.6328C126.736 43.8151 127.036 43.9062 127.438 43.9062Z" fill="white"/>
<path d="M137.056 37.3027C137.379 37.3027 137.646 37.3255 137.855 37.3711L137.698 38.8682C137.47 38.8135 137.233 38.7861 136.987 38.7861C136.345 38.7861 135.823 38.9958 135.422 39.415C135.025 39.8343 134.827 40.3789 134.827 41.0488V45H133.221V37.4395H134.479L134.69 38.7725H134.772C135.023 38.3213 135.349 37.9635 135.75 37.6992C136.156 37.4349 136.591 37.3027 137.056 37.3027Z" fill="white"/>
<path d="M148.232 45L148.007 44.0088H147.925C147.701 44.3597 147.382 44.6354 146.968 44.8359C146.558 45.0365 146.088 45.1367 145.56 45.1367C144.644 45.1367 143.96 44.9089 143.509 44.4531C143.058 43.9974 142.832 43.307 142.832 42.3818V37.4395H144.452V42.1016C144.452 42.6803 144.571 43.1156 144.808 43.4072C145.045 43.6943 145.416 43.8379 145.922 43.8379C146.596 43.8379 147.091 43.6374 147.405 43.2363C147.724 42.8307 147.884 42.154 147.884 41.2061V37.4395H149.497V45H148.232Z" fill="white"/>
<path d="M158.438 45H156.825V40.3516C156.825 39.7682 156.707 39.333 156.47 39.0459C156.237 38.7588 155.866 38.6152 155.355 38.6152C154.676 38.6152 154.18 38.8158 153.865 39.2168C153.551 39.6178 153.394 40.29 153.394 41.2334V45H151.787V37.4395H153.045L153.271 38.4307H153.353C153.58 38.0706 153.904 37.7926 154.323 37.5967C154.743 37.4007 155.207 37.3027 155.718 37.3027C157.532 37.3027 158.438 38.2256 158.438 40.0713V45Z" fill="white"/>
<path d="M165.404 45L165.083 43.9473H165.028C164.664 44.4076 164.297 44.722 163.928 44.8906C163.559 45.0547 163.085 45.1367 162.506 45.1367C161.763 45.1367 161.182 44.9362 160.763 44.5352C160.348 44.1341 160.141 43.5667 160.141 42.833C160.141 42.0537 160.43 41.4658 161.009 41.0693C161.588 40.6729 162.469 40.4564 163.654 40.4199L164.96 40.3789V39.9756C164.96 39.4925 164.846 39.1325 164.618 38.8955C164.395 38.654 164.046 38.5332 163.572 38.5332C163.185 38.5332 162.813 38.5902 162.458 38.7041C162.103 38.818 161.761 38.9525 161.433 39.1074L160.913 37.959C161.323 37.7448 161.772 37.583 162.26 37.4736C162.747 37.3597 163.208 37.3027 163.641 37.3027C164.602 37.3027 165.327 37.5124 165.814 37.9316C166.307 38.3509 166.553 39.0094 166.553 39.9072V45H165.404ZM163.012 43.9062C163.595 43.9062 164.062 43.7445 164.413 43.4209C164.769 43.0928 164.946 42.6348 164.946 42.0469V41.3906L163.976 41.4316C163.219 41.459 162.668 41.5866 162.321 41.8145C161.979 42.0378 161.809 42.3818 161.809 42.8467C161.809 43.1839 161.909 43.446 162.109 43.6328C162.31 43.8151 162.611 43.9062 163.012 43.9062Z" fill="white"/>
<path d="M175.248 43.8379C175.64 43.8379 176.032 43.7764 176.424 43.6533V44.8633C176.246 44.9408 176.016 45.0046 175.733 45.0547C175.455 45.1094 175.166 45.1367 174.865 45.1367C173.343 45.1367 172.582 44.3346 172.582 42.7305V38.6562H171.55V37.9453L172.657 37.3574L173.204 35.7578H174.195V37.4395H176.349V38.6562H174.195V42.7031C174.195 43.0905 174.291 43.3776 174.482 43.5645C174.678 43.7467 174.934 43.8379 175.248 43.8379Z" fill="white"/>
<path d="M182.672 45L182.351 43.9473H182.296C181.931 44.4076 181.564 44.722 181.195 44.8906C180.826 45.0547 180.352 45.1367 179.773 45.1367C179.031 45.1367 178.45 44.9362 178.03 44.5352C177.616 44.1341 177.408 43.5667 177.408 42.833C177.408 42.0537 177.698 41.4658 178.276 41.0693C178.855 40.6729 179.737 40.4564 180.922 40.4199L182.228 40.3789V39.9756C182.228 39.4925 182.114 39.1325 181.886 38.8955C181.662 38.654 181.314 38.5332 180.84 38.5332C180.452 38.5332 180.081 38.5902 179.726 38.7041C179.37 38.818 179.028 38.9525 178.7 39.1074L178.181 37.959C178.591 37.7448 179.04 37.583 179.527 37.4736C180.015 37.3597 180.475 37.3027 180.908 37.3027C181.87 37.3027 182.594 37.5124 183.082 37.9316C183.574 38.3509 183.82 39.0094 183.82 39.9072V45H182.672ZM180.279 43.9062C180.863 43.9062 181.33 43.7445 181.681 43.4209C182.036 43.0928 182.214 42.6348 182.214 42.0469V41.3906L181.243 41.4316C180.487 41.459 179.935 41.5866 179.589 41.8145C179.247 42.0378 179.076 42.3818 179.076 42.8467C179.076 43.1839 179.176 43.446 179.377 43.6328C179.577 43.8151 179.878 43.9062 180.279 43.9062Z" fill="white"/>
<path d="M189.897 37.3027C190.221 37.3027 190.488 37.3255 190.697 37.3711L190.54 38.8682C190.312 38.8135 190.075 38.7861 189.829 38.7861C189.187 38.7861 188.665 38.9958 188.264 39.415C187.867 39.8343 187.669 40.3789 187.669 41.0488V45H186.062V37.4395H187.32L187.532 38.7725H187.614C187.865 38.3213 188.191 37.9635 188.592 37.6992C188.997 37.4349 189.433 37.3027 189.897 37.3027Z" fill="white"/>
<path d="M195.407 45.1367C194.231 45.1367 193.311 44.7949 192.646 44.1113C191.985 43.4232 191.654 42.4775 191.654 41.2744C191.654 40.0394 191.962 39.0687 192.577 38.3623C193.192 37.6559 194.038 37.3027 195.113 37.3027C196.111 37.3027 196.9 37.6058 197.479 38.2119C198.057 38.818 198.347 39.652 198.347 40.7139V41.582H193.309C193.331 42.3158 193.53 42.8809 193.903 43.2773C194.277 43.6693 194.803 43.8652 195.482 43.8652C195.929 43.8652 196.344 43.8242 196.727 43.7422C197.114 43.6556 197.529 43.5143 197.971 43.3184V44.624C197.579 44.8109 197.182 44.943 196.781 45.0205C196.38 45.098 195.922 45.1367 195.407 45.1367ZM195.113 38.5195C194.603 38.5195 194.193 38.6813 193.883 39.0049C193.577 39.3285 193.395 39.8001 193.336 40.4199H196.768C196.758 39.7956 196.608 39.3239 196.316 39.0049C196.025 38.6813 195.624 38.5195 195.113 38.5195Z" fill="white"/>
<path d="M204.902 45L204.581 43.9473H204.526C204.162 44.4076 203.795 44.722 203.426 44.8906C203.057 45.0547 202.583 45.1367 202.004 45.1367C201.261 45.1367 200.68 44.9362 200.261 44.5352C199.846 44.1341 199.639 43.5667 199.639 42.833C199.639 42.0537 199.928 41.4658 200.507 41.0693C201.086 40.6729 201.967 40.4564 203.152 40.4199L204.458 40.3789V39.9756C204.458 39.4925 204.344 39.1325 204.116 38.8955C203.893 38.654 203.544 38.5332 203.07 38.5332C202.683 38.5332 202.312 38.5902 201.956 38.7041C201.601 38.818 201.259 38.9525 200.931 39.1074L200.411 37.959C200.821 37.7448 201.27 37.583 201.758 37.4736C202.245 37.3597 202.706 37.3027 203.139 37.3027C204.1 37.3027 204.825 37.5124 205.312 37.9316C205.805 38.3509 206.051 39.0094 206.051 39.9072V45H204.902ZM202.51 43.9062C203.093 43.9062 203.56 43.7445 203.911 43.4209C204.267 43.0928 204.444 42.6348 204.444 42.0469V41.3906L203.474 41.4316C202.717 41.459 202.166 41.5866 201.819 41.8145C201.478 42.0378 201.307 42.3818 201.307 42.8467C201.307 43.1839 201.407 43.446 201.607 43.6328C201.808 43.8151 202.109 43.9062 202.51 43.9062Z" fill="white"/>
<path d="M218.581 45H216.968V40.3516C216.968 39.7682 216.849 39.333 216.612 39.0459C216.38 38.7588 216.008 38.6152 215.498 38.6152C214.819 38.6152 214.322 38.8158 214.008 39.2168C213.693 39.6178 213.536 40.29 213.536 41.2334V45H211.93V37.4395H213.188L213.413 38.4307H213.495C213.723 38.0706 214.047 37.7926 214.466 37.5967C214.885 37.4007 215.35 37.3027 215.86 37.3027C217.674 37.3027 218.581 38.2256 218.581 40.0713V45Z" fill="white"/>
<path d="M226.148 45L225.923 44.0088H225.841C225.618 44.3597 225.299 44.6354 224.884 44.8359C224.474 45.0365 224.004 45.1367 223.476 45.1367C222.56 45.1367 221.876 44.9089 221.425 44.4531C220.974 43.9974 220.748 43.307 220.748 42.3818V37.4395H222.368V42.1016C222.368 42.6803 222.487 43.1156 222.724 43.4072C222.961 43.6943 223.332 43.8379 223.838 43.8379C224.512 43.8379 225.007 43.6374 225.321 43.2363C225.64 42.8307 225.8 42.154 225.8 41.2061V37.4395H227.413V45H226.148Z" fill="white"/>
<path d="M233.005 45.1367C231.829 45.1367 230.909 44.7949 230.243 44.1113C229.582 43.4232 229.252 42.4775 229.252 41.2744C229.252 40.0394 229.56 39.0687 230.175 38.3623C230.79 37.6559 231.635 37.3027 232.711 37.3027C233.709 37.3027 234.497 37.6058 235.076 38.2119C235.655 38.818 235.944 39.652 235.944 40.7139V41.582H230.906C230.929 42.3158 231.127 42.8809 231.501 43.2773C231.875 43.6693 232.401 43.8652 233.08 43.8652C233.527 43.8652 233.941 43.8242 234.324 43.7422C234.712 43.6556 235.126 43.5143 235.568 43.3184V44.624C235.176 44.8109 234.78 44.943 234.379 45.0205C233.978 45.098 233.52 45.1367 233.005 45.1367ZM232.711 38.5195C232.201 38.5195 231.79 38.6813 231.48 39.0049C231.175 39.3285 230.993 39.8001 230.934 40.4199H234.365C234.356 39.7956 234.206 39.3239 233.914 39.0049C233.622 38.6813 233.221 38.5195 232.711 38.5195Z" fill="white"/>
<path d="M239.492 45L236.621 37.4395H238.316L239.854 41.835C240.119 42.5732 240.278 43.1702 240.333 43.626H240.388C240.429 43.2979 240.588 42.7008 240.866 41.835L242.404 37.4395H244.113L241.229 45H239.492Z" fill="white"/>
<path d="M249.992 45L249.671 43.9473H249.616C249.252 44.4076 248.885 44.722 248.516 44.8906C248.146 45.0547 247.673 45.1367 247.094 45.1367C246.351 45.1367 245.77 44.9362 245.351 44.5352C244.936 44.1341 244.729 43.5667 244.729 42.833C244.729 42.0537 245.018 41.4658 245.597 41.0693C246.175 40.6729 247.057 40.4564 248.242 40.4199L249.548 40.3789V39.9756C249.548 39.4925 249.434 39.1325 249.206 38.8955C248.983 38.654 248.634 38.5332 248.16 38.5332C247.773 38.5332 247.401 38.5902 247.046 38.7041C246.69 38.818 246.349 38.9525 246.021 39.1074L245.501 37.959C245.911 37.7448 246.36 37.583 246.848 37.4736C247.335 37.3597 247.796 37.3027 248.229 37.3027C249.19 37.3027 249.915 37.5124 250.402 37.9316C250.895 38.3509 251.141 39.0094 251.141 39.9072V45H249.992ZM247.6 43.9062C248.183 43.9062 248.65 43.7445 249.001 43.4209C249.356 43.0928 249.534 42.6348 249.534 42.0469V41.3906L248.563 41.4316C247.807 41.459 247.256 41.5866 246.909 41.8145C246.567 42.0378 246.396 42.3818 246.396 42.8467C246.396 43.1839 246.497 43.446 246.697 43.6328C246.898 43.8151 247.199 43.9062 247.6 43.9062Z" fill="white"/>
<path d="M73.5 33.5C73.1119 33.5 72.7973 33.8146 72.7973 34.2027V39.2973H67.7027C67.3146 39.2973 67 39.6119 67 40C67 40.3881 67.3146 40.7027 67.7027 40.7027H72.7973V45.7973C72.7973 46.1854 73.1119 46.5 73.5 46.5C73.8881 46.5 74.2027 46.1854 74.2027 45.7973V40.7027H79.2973C79.6854 40.7027 80 40.3881 80 40C80 39.6119 79.6854 39.2973 79.2973 39.2973H74.2027V34.2027C74.2027 33.8146 73.8881 33.5 73.5 33.5Z" fill="white"/>
<path d="M112.378 88.9658C105.559 93.6438 99.4273 103.469 97.2139 107.797L103.359 110.671L106.233 105.616C108.777 105.418 114.558 104.13 117.333 100.562C120.108 96.9937 116.705 94.1856 114.657 93.2275C119.811 89.0253 120.637 86.455 120.405 85.6952C120.571 84.8363 119.196 84.2879 112.378 88.9658Z" fill="#A1C9FF"/>
<path d="M188.868 80.3806C196.386 83.8258 204.104 92.4599 207.024 96.3462L201.46 100.227L197.765 95.7375C195.225 95.9765 189.309 95.694 185.965 92.6522C182.622 89.6104 185.495 86.2626 187.35 84.9689C181.554 81.7082 180.302 79.3167 180.4 78.5285C180.091 77.7104 181.351 76.9354 188.868 80.3806Z" fill="#A1C9FF"/>
<path d="M132.596 112.355C135.609 107.201 140.062 108.622 141.912 109.976C146.59 100.938 156.085 99.0744 160.247 99.2726C162.626 99.5038 169.147 101.711 176.204 108.688C183.261 115.665 194.473 152.527 198.999 169.739C184.172 176.558 166.855 167.46 160.247 162.405C145.024 169.938 126.815 170.631 119.612 170.037C122.685 152.957 129.583 117.509 132.596 112.355Z" fill="#041C42"/>
<path d="M116.243 168.147C124.489 172.984 147.363 166.132 157.77 162.102H163.32C172.603 166.925 193.132 174.887 200.981 168.147C208.831 161.408 210.265 146.244 210 139.505C209.934 137.556 208.434 131.16 202.963 121.17C199.756 115.312 200.276 110.418 201.934 106.898L197.711 102.834C199.376 99.1871 204.483 95.1699 206.829 93.6172C207.859 93.985 210.674 97.4522 212.236 99.5078C215.109 99.2659 218.538 99.9763 221.893 102.834C228.316 108.305 232.498 121.104 233.786 126.819C234.976 135.342 234.797 156.353 224.569 172.211C211.784 192.033 186.908 190.348 187.701 191.438C188.335 192.31 191.929 204.488 193.647 210.467H129.325L132.596 189.456C122.685 190.011 110.891 185.723 106.233 183.509C101.641 181.032 90.5935 173.777 83.1405 164.58C75.6874 155.382 75.6081 139.736 76.5001 133.063C77.7885 127.975 82.2088 116.789 89.5826 112.745C90.7005 112.132 91.8052 111.744 92.8837 111.538C93.6564 109.83 95.0397 107.018 95.8264 106.303C98.8327 107.393 105.4 110.208 107.62 112.745L105.167 116.513C105.58 116.962 105.937 117.398 106.233 117.8C106.398 118.923 106.352 122.537 104.845 128.008C103.339 133.479 104.218 143.238 104.845 147.434C105.209 152.323 107.997 163.311 116.243 168.147Z" fill="#004079"/>
<path d="M141.963 173.396C141.36 173.183 140.853 174.101 140.697 174.453L138.558 178.117C138.14 178.768 137.393 179.661 137.993 179.985C138.592 180.31 139.169 179.539 139.382 179.112L141.766 175.019C142.098 174.478 142.59 173.617 141.963 173.396Z" fill="#5B7FA1"/>
<path d="M160.446 170.533C154.816 170.533 152.352 166.37 151.823 164.289L156.779 162.307H163.518L168.672 164.685C168.275 166.634 166.075 170.533 160.446 170.533Z" fill="#5B7FA1"/>
<path d="M147.66 166.172C147.089 165.886 146.471 166.733 146.273 167.064L143.696 170.433C143.2 171.028 142.348 171.821 142.903 172.217C143.458 172.614 144.125 171.92 144.39 171.524L147.264 167.757C147.66 167.262 148.255 166.469 147.66 166.172Z" fill="#5B7FA1"/>
<path d="M137.008 181.919C136.405 181.707 135.897 182.624 135.741 182.977L133.602 186.64C133.185 187.291 132.437 188.184 133.037 188.508C133.637 188.833 134.213 188.062 134.426 187.636L136.811 183.542C137.143 183.001 137.635 182.141 137.008 181.919Z" fill="#5B7FA1"/>
<path d="M183.944 183.156C184.562 182.995 184.992 183.951 185.117 184.315L186.944 188.144C187.306 188.828 187.977 189.78 187.352 190.053C186.727 190.327 186.217 189.51 186.04 189.068L184.004 184.79C183.719 184.223 183.3 183.325 183.944 183.156Z" fill="#5B7FA1"/>
<path d="M178.388 175.04C178.981 174.802 179.528 175.697 179.698 176.042L181.992 179.611C182.437 180.244 183.222 181.104 182.637 181.454C182.051 181.804 181.442 181.058 181.211 180.641L178.654 176.653C178.299 176.127 177.771 175.288 178.388 175.04Z" fill="#5B7FA1"/>
<path d="M173.291 167.241C173.884 167.003 174.43 167.898 174.601 168.243L176.894 171.812C177.339 172.445 178.124 173.305 177.539 173.655C176.953 174.004 176.345 173.258 176.114 172.842L173.556 168.854C173.202 168.328 172.673 167.489 173.291 167.241Z" fill="#5B7FA1"/>
<path fill-rule="evenodd" clip-rule="evenodd" d="M145.357 138.035C147.608 142.39 150.372 146.254 153.563 148.478H153.496L155.926 162.879C156.826 168.46 164.117 168.19 164.927 162.879L166.691 148.768C170.981 146.62 173.594 142.614 175.344 137.654C176.124 139.126 178.153 139.109 179.419 138.397C180.859 137.587 182.119 134.796 180.499 131.916C179.404 129.969 177.932 130.627 177.049 131.457C177.808 127.934 178.35 124.17 178.879 120.395C176.997 110.571 157.274 101.354 138.84 118.005C139.3 121.641 140.752 127.346 143.035 132.965C141.535 132.371 139.691 132.39 139.634 135.336C139.562 139.081 141.644 139.897 142.694 139.837C143.383 140.03 144.796 139.899 145.357 138.035Z" fill="#A1C9FF"/>
<path d="M158.15 150.44C162.909 150.801 165.815 149.449 166.674 148.728L165.431 158.639L158.15 150.44Z" fill="#638BC0"/>
<path d="M144.885 127.519C146.392 122.127 144.819 116.617 143.795 114.337C146.141 113.478 152.517 111.463 159.653 111.859C168.573 112.355 172.537 116.914 175.213 121.176C177.354 124.585 176.105 130.327 175.213 132.772C176.244 132.296 176.898 131.715 177.096 131.483L181.259 122.167L173.924 111.364L159.653 105.021L137.155 116.419L142.705 132.673L145.678 136.141C144.885 134.457 143.379 132.911 144.885 127.519Z" fill="#041C42"/>
<path d="M166.874 137.751C165.977 141.069 162.476 141.593 160.322 141.593C152.279 141.593 152.064 137.576 152.961 135.656C153.533 134.433 155.564 134.049 157.719 134.957C159.873 135.865 161.937 135.489 163.284 134.957C165.079 134.248 167.828 134.225 166.874 137.751Z" fill="#041C42"/>
<path d="M156.168 140.218C158.741 140.978 163.532 141.454 165.484 138.601C164.242 136.605 157.765 136.51 156.168 140.218Z" fill="#A1C9FF"/>
<path d="M156.764 127.763C156.846 126.346 158.806 126.18 159.794 126.18C160.65 126.18 161.55 126.319 161.901 126.43C162.406 126.652 163.35 126.846 163.35 127.763C163.35 128.513 162.889 128.763 162.691 129.263C162.56 129.763 163.02 130.013 163.218 129.846C163.429 129.58 163.718 129.027 163.877 128.596C164.338 127.346 163.547 126.346 162.823 125.93C161.308 125.263 159.254 125.096 157.62 125.763C155.987 126.43 155.974 127.874 156.172 128.513C156.303 128.939 156.791 129.78 157.159 129.846C157.423 129.894 157.59 129.451 157.423 129.263C156.83 128.596 156.74 128.18 156.764 127.763Z" fill="#041C42"/>
<path d="M151.711 122.197C152.294 121.118 153.119 120.87 153.887 121.611C154.655 122.352 154.47 124.561 153.191 124.669C151.911 124.777 151.129 123.276 151.711 122.197Z" fill="#041C42"/>
<path d="M167.535 121.837C166.952 120.759 166.128 120.51 165.36 121.251C164.592 121.992 164.776 124.201 166.056 124.309C167.335 124.417 168.118 122.916 167.535 121.837Z" fill="#041C42"/>
</svg>
