<svg width="320" height="211" viewBox="0 0 320 211" fill="none" xmlns="http://www.w3.org/2000/svg">
<path d="M320 0H0V210.732H320V0Z" fill="#E9F2FF"/>
<path d="M119.547 93.0133C111.766 85.1733 115.796 73.1121 118.783 68.0615L127.049 72.8573C124.548 75.0119 120.089 80.6834 122.256 86.1324C124.965 92.9438 138.025 96.9055 140.387 97.8786C142.276 98.657 145.319 96.7133 147.611 96.4885C148.792 96.3726 151.084 96.4468 151.918 98.5041C152.65 100.311 151.015 101.052 149.904 100.937C151.594 101.933 155.086 104.37 155.53 106.149C155.975 107.929 154.882 107.632 154.28 107.261L149.904 103.925C149.626 106.358 147.935 107.609 146.847 107.887C145.944 108.165 143.818 108.026 142.54 105.246C141.081 102.073 140.109 102.596 138.303 102.327C135.038 101.84 127.327 100.853 119.547 93.0133Z" fill="#8DADF1"/>
<path d="M197.575 87.6713C203.499 78.3553 196.988 67.4424 192.992 63.1504L185.942 69.5986C188.845 71.1674 194.412 75.7508 193.459 81.5333C192.268 88.7615 180.359 95.4198 178.26 96.8744C176.58 98.0381 173.193 96.7909 170.906 97.0613C169.728 97.2006 167.505 97.7629 167.13 99.9494C166.801 101.87 168.557 102.244 169.617 101.894C168.179 103.227 165.289 106.353 165.235 108.185C165.181 110.017 166.185 109.494 166.694 109.003L170.256 104.811C171.047 107.127 172.965 107.987 174.087 108.025C175.029 108.104 177.075 107.514 177.73 104.527C178.477 101.118 179.539 101.42 181.245 100.772C184.33 99.5986 191.65 96.9873 197.575 87.6713Z" fill="#8DADF1"/>
<path d="M116.111 66.2978C127.626 47.0153 146.961 48.261 155.189 51.2942C176.994 42.8476 191.902 56.5269 196.631 64.4224C192.236 70.2572 184.509 73.1977 181.194 73.9386C178.246 70.271 174.913 68.0575 173.615 67.4092L181.194 93.2489H132.173L138.848 67.4092C137.736 68.2983 133.935 74.0312 132.173 76.7865C122.883 73.3412 117.594 68.3585 116.111 66.2978Z" fill="#004079"/>
<path d="M155.922 59.6175C151.693 59.7846 148.966 53.0939 148.131 49.7276L151.053 50.1455L159.748 49.7276L162.601 49.1704C162.137 52.5831 160.152 59.4503 155.922 59.6175Z" fill="#041C42"/>
<path d="M130.549 52.6543C129.935 59.3494 135.137 65.957 137.815 68.4238L135.3 71.8129C128.202 68.5483 126.427 59.2941 126.427 55.075C127.657 54.0237 129.688 53.0232 130.549 52.6543Z" fill="#041C42"/>
<path d="M181.909 51.7163C181.63 58.8037 176.781 65.3743 174.391 67.7737L178.01 70.473C184.136 67.2062 186.456 58.453 186.851 54.4848C184.623 52.9345 182.628 51.9932 181.909 51.7163Z" fill="#041C42"/>
<path d="M139.513 34.223C139.901 32.7227 141.525 33.3201 142.289 33.8063C140.438 26.1891 140.137 10.8298 153.74 10.3297C167.342 9.82957 168.846 24.7073 167.897 32.2087C168.453 30.9307 169.609 31.2595 170.118 31.5836C170.512 32.1161 171.062 33.5423 170.118 34.987C169.174 36.4317 168.244 35.589 167.897 34.987C166.891 38.1028 164.444 43.2301 160.888 46.0784C160.287 49.6048 158.362 56.491 155.475 55.8242C152.588 55.1574 150.35 49.11 149.593 46.1697C145.94 43.7007 143.715 39.5323 142.913 37.1402C142.358 38.5849 141.155 38.3441 140.623 38.0432C140.091 37.3949 139.124 35.7233 139.513 34.223Z" fill="#8DADF1"/>
<path d="M160.859 46.0889C156.802 48.9488 151.666 47.3722 149.605 46.2264C150.879 47.9451 153.926 51.2174 155.927 50.5574C157.928 49.8975 160.049 47.3034 160.859 46.0889Z" fill="#7491CD"/>
<path d="M155.12 19.9322C155.007 19.6436 155.357 19.4753 155.547 19.4272C155.665 19.4512 155.902 19.5859 155.902 19.9322C155.902 20.2784 155.665 20.365 155.547 20.365C155.452 20.341 155.234 20.2207 155.12 19.9322Z" fill="#1A4571"/>
<path d="M152.441 17.6549C152.327 17.3664 152.678 17.198 152.867 17.1499C152.986 17.174 153.222 17.3087 153.222 17.6549C153.222 18.0012 152.986 18.0878 152.867 18.0878C152.772 18.0637 152.554 17.9435 152.441 17.6549Z" fill="#1A4571"/>
<path d="M150.565 19.9322C150.451 19.6436 150.802 19.4753 150.991 19.4272C151.11 19.4512 151.347 19.5859 151.347 19.9322C151.347 20.2784 151.11 20.365 150.991 20.365C150.896 20.341 150.679 20.2207 150.565 19.9322Z" fill="#1A4571"/>
<path d="M149.761 16.5836C149.647 16.295 149.998 16.1267 150.188 16.0786C150.306 16.1026 150.543 16.2373 150.543 16.5836C150.543 16.9298 150.306 17.0164 150.188 17.0164C150.093 16.9924 149.875 16.8721 149.761 16.5836Z" fill="#1A4571"/>
<path d="M150.565 14.3675C150.451 14.1202 150.802 13.9759 150.991 13.9346C151.11 13.9553 151.347 14.0707 151.347 14.3675C151.347 14.6643 151.11 14.7385 150.991 14.7385C150.896 14.7179 150.679 14.6148 150.565 14.3675Z" fill="#1A4571"/>
<path d="M153.646 12.4298C153.533 12.1412 153.883 11.9729 154.073 11.9248C154.191 11.9489 154.428 12.0835 154.428 12.4298C154.428 12.7761 154.191 12.8626 154.073 12.8626C153.978 12.8386 153.76 12.7184 153.646 12.4298Z" fill="#1A4571"/>
<path d="M150.565 11.6261C150.451 11.3375 150.802 11.1692 150.991 11.1211C151.11 11.1451 151.347 11.2798 151.347 11.6261C151.347 11.9724 151.11 12.0589 150.991 12.0589C150.896 12.0349 150.679 11.9146 150.565 11.6261Z" fill="#1A4571"/>
<path d="M147.618 12.8321C147.504 12.5435 147.855 12.3752 148.044 12.3271C148.162 12.3512 148.399 12.4858 148.399 12.8321C148.399 13.1784 148.162 13.265 148.044 13.265C147.949 13.2409 147.731 13.1207 147.618 12.8321Z" fill="#1A4571"/>
<path d="M144.402 15.6456C144.288 15.357 144.639 15.1887 144.828 15.1406C144.947 15.1646 145.184 15.2993 145.184 15.6456C145.184 15.9919 144.947 16.0784 144.828 16.0784C144.734 16.0544 144.516 15.9342 144.402 15.6456Z" fill="#1A4571"/>
<path d="M147.618 15.6456C147.504 15.357 147.855 15.1887 148.044 15.1406C148.162 15.1646 148.399 15.2993 148.399 15.6456C148.399 15.9919 148.162 16.0784 148.044 16.0784C147.949 16.0544 147.731 15.9342 147.618 15.6456Z" fill="#1A4571"/>
<path d="M142.795 18.2531C142.681 18.0058 143.031 17.8615 143.221 17.8203C143.339 17.8409 143.576 17.9563 143.576 18.2531C143.576 18.5499 143.339 18.6241 143.221 18.6241C143.126 18.6035 142.908 18.5005 142.795 18.2531Z" fill="#1A4571"/>
<path d="M143.595 20.3346C143.5 20.046 143.792 19.8777 143.95 19.8296C144.049 19.8537 144.246 19.9883 144.246 20.3346C144.246 20.6809 144.049 20.7674 143.95 20.7674C143.871 20.7434 143.689 20.6232 143.595 20.3346Z" fill="#1A4571"/>
<path d="M147.212 17.6549C147.117 17.3664 147.41 17.198 147.567 17.1499C147.666 17.174 147.864 17.3087 147.864 17.6549C147.864 18.0012 147.666 18.0878 147.567 18.0878C147.488 18.0637 147.307 17.9435 147.212 17.6549Z" fill="#1A4571"/>
<path d="M146.144 20.3346C146.03 20.046 146.38 19.8777 146.57 19.8296C146.688 19.8537 146.925 19.9883 146.925 20.3346C146.925 20.6809 146.688 20.7674 146.57 20.7674C146.475 20.7434 146.257 20.6232 146.144 20.3346Z" fill="#1A4571"/>
<path d="M141.99 22.2722C141.877 22.0249 142.227 21.8806 142.417 21.8394C142.535 21.86 142.772 21.9754 142.772 22.2722C142.772 22.569 142.535 22.6432 142.417 22.6432C142.322 22.6226 142.104 22.5196 141.99 22.2722Z" fill="#1A4571"/>
<path d="M144 22.2722C143.886 22.0249 144.237 21.8806 144.426 21.8394C144.544 21.86 144.781 21.9754 144.781 22.2722C144.781 22.569 144.544 22.6432 144.426 22.6432C144.331 22.6226 144.113 22.5196 144 22.2722Z" fill="#1A4571"/>
<path d="M141.589 24.3541C141.475 24.0655 141.825 23.8972 142.015 23.8491C142.133 23.8732 142.37 24.0078 142.37 24.3541C142.37 24.7004 142.133 24.787 142.015 24.787C141.92 24.7629 141.702 24.6427 141.589 24.3541Z" fill="#1A4571"/>
<path d="M142.392 26.0232C142.279 25.7758 142.629 25.6316 142.819 25.5903C142.937 25.6109 143.174 25.7264 143.174 26.0232C143.174 26.32 142.937 26.3942 142.819 26.3942C142.724 26.3736 142.506 26.2705 142.392 26.0232Z" fill="#1A4571"/>
<path d="M141.722 27.5695C141.609 27.281 141.959 27.1126 142.149 27.0645C142.267 27.0886 142.504 27.2232 142.504 27.5695C142.504 27.9158 142.267 28.0024 142.149 28.0024C142.054 27.9783 141.836 27.8581 141.722 27.5695Z" fill="#1A4571"/>
<path d="M142.124 29.6413C142.011 29.394 142.361 29.2497 142.551 29.2085C142.669 29.2291 142.906 29.3445 142.906 29.6413C142.906 29.9381 142.669 30.0123 142.551 30.0123C142.456 29.9917 142.238 29.8886 142.124 29.6413Z" fill="#1A4571"/>
<path d="M142.526 32.3927C142.412 32.1041 142.763 31.9358 142.952 31.8877C143.071 31.9118 143.308 32.0464 143.308 32.3927C143.308 32.739 143.071 32.8256 142.952 32.8256C142.858 32.8015 142.64 32.6813 142.526 32.3927Z" fill="#1A4571"/>
<path d="M158.871 13.9039C158.758 13.6153 159.108 13.447 159.298 13.3989C159.416 13.423 159.653 13.5576 159.653 13.9039C159.653 14.2502 159.416 14.3367 159.298 14.3367C159.203 14.3127 158.985 14.1925 158.871 13.9039Z" fill="#1A4571"/>
<path d="M157.13 11.6261C157.016 11.3375 157.367 11.1692 157.556 11.1211C157.675 11.1451 157.912 11.2798 157.912 11.6261C157.912 11.9724 157.675 12.0589 157.556 12.0589C157.462 12.0349 157.244 11.9146 157.13 11.6261Z" fill="#1A4571"/>
<path d="M154.982 15.1717C154.888 14.9244 155.18 14.7801 155.338 14.7388C155.436 14.7595 155.634 14.8749 155.634 15.1717C155.634 15.4685 155.436 15.5427 155.338 15.5427C155.259 15.5221 155.077 15.419 154.982 15.1717Z" fill="#1A4571"/>
<path d="M160.345 17.2535C160.232 16.9649 160.582 16.7966 160.772 16.7485C160.89 16.7725 161.127 16.9072 161.127 17.2535C161.127 17.5998 160.89 17.6863 160.772 17.6863C160.677 17.6623 160.459 17.542 160.345 17.2535Z" fill="#1A4571"/>
<path d="M157.13 17.3878C157.016 17.0992 157.367 16.9309 157.556 16.8828C157.675 16.9068 157.912 17.0415 157.912 17.3878C157.912 17.734 157.675 17.8206 157.556 17.8206C157.462 17.7966 157.244 17.6763 157.13 17.3878Z" fill="#1A4571"/>
<path d="M160.211 19.9322C160.098 19.6436 160.448 19.4753 160.638 19.4272C160.756 19.4512 160.993 19.5859 160.993 19.9322C160.993 20.2784 160.756 20.365 160.638 20.365C160.543 20.341 160.325 20.2207 160.211 19.9322Z" fill="#1A4571"/>
<path d="M163.427 21.8699C163.313 21.6225 163.664 21.4783 163.853 21.437C163.971 21.4576 164.208 21.5731 164.208 21.8699C164.208 22.1667 163.971 22.2409 163.853 22.2409C163.758 22.2203 163.54 22.1172 163.427 21.8699Z" fill="#1A4571"/>
<path d="M165.57 24.3541C165.456 24.0655 165.807 23.8972 165.997 23.8491C166.115 23.8732 166.352 24.0078 166.352 24.3541C166.352 24.7004 166.115 24.787 165.997 24.787C165.902 24.7629 165.684 24.6427 165.57 24.3541Z" fill="#1A4571"/>
<path d="M166.91 27.5695C166.797 27.281 167.147 27.1126 167.337 27.0645C167.455 27.0886 167.692 27.2232 167.692 27.5695C167.692 27.9158 167.455 28.0024 167.337 28.0024C167.242 27.9783 167.024 27.8581 166.91 27.5695Z" fill="#1A4571"/>
<path d="M166.91 30.7843C166.797 30.4958 167.147 30.3274 167.337 30.2793C167.455 30.3034 167.692 30.4381 167.692 30.7843C167.692 31.1306 167.455 31.2172 167.337 31.2172C167.242 31.1931 167.024 31.0729 166.91 30.7843Z" fill="#1A4571"/>
<path d="M165.57 21.4064C165.456 21.1178 165.807 20.9495 165.997 20.9014C166.115 20.9254 166.352 21.0601 166.352 21.4064C166.352 21.7527 166.115 21.8392 165.997 21.8392C165.902 21.8152 165.684 21.6949 165.57 21.4064Z" fill="#1A4571"/>
<path d="M163.829 19.5309C163.715 19.2423 164.065 19.074 164.255 19.0259C164.373 19.0499 164.61 19.1846 164.61 19.5309C164.61 19.8772 164.373 19.9637 164.255 19.9637C164.16 19.9397 163.942 19.8195 163.829 19.5309Z" fill="#1A4571"/>
<path d="M164.231 16.5836C164.117 16.295 164.468 16.1267 164.657 16.0786C164.776 16.1026 165.012 16.2373 165.012 16.5836C165.012 16.9298 164.776 17.0164 164.657 17.0164C164.562 16.9924 164.345 16.8721 164.231 16.5836Z" fill="#1A4571"/>
<path d="M161.551 14.7697C161.437 14.5224 161.788 14.3781 161.977 14.3369C162.096 14.3575 162.332 14.4729 162.332 14.7697C162.332 15.0665 162.096 15.1408 161.977 15.1408C161.882 15.1201 161.664 15.0171 161.551 14.7697Z" fill="#1A4571"/>
<path d="M166.91 25.1578C166.797 24.8693 167.147 24.7009 167.337 24.6528C167.455 24.6769 167.692 24.8115 167.692 25.1578C167.692 25.5041 167.455 25.5907 167.337 25.5907C167.242 25.5666 167.024 25.4464 166.91 25.1578Z" fill="#1A4571"/>
<path d="M151.156 41.3152C153.112 43.5764 155.594 43.0133 156.59 42.4492C156.996 42.1612 157.891 41.6504 158.22 41.9107C158.549 42.1711 158.414 42.5104 158.306 42.6475C158.069 42.8908 157.143 43.475 155.336 43.8647C153.53 44.2545 151.726 43.4309 151.05 42.9704C150.395 42.5407 149.213 41.5168 149.734 40.8587C150.255 40.2006 150.899 40.8888 151.156 41.3152Z" fill="#041C42"/>
<path d="M152.919 27.27C152.294 27.8016 151.787 27.3355 151.518 27.0414C151.315 26.8054 150.61 26.5985 149.604 26.6568C148.348 26.7295 147.514 27.5829 146.367 28.4544C145.449 29.1517 145.325 28.2464 145.378 27.7066C145.62 27.1765 146.471 25.8968 147.933 25.0194C149.761 23.9227 151.131 24.7104 151.39 24.8193C151.648 24.9282 153.7 26.6054 152.919 27.27Z" fill="#041C42"/>
<path d="M158.356 24.2475C157.413 24.4509 156.165 25.2623 156.414 26.5295C156.582 27.3795 157.74 26.6387 158.231 26.4243C158.721 26.21 159.97 26.0757 160.736 26.2793C161.502 26.4829 163.135 27.5661 163.511 27.5443C163.887 27.5226 164.248 27.2537 164.22 26.7594C164.184 26.1416 163.126 25.6036 162.564 25.3056C161.592 24.7897 159.473 24.0066 158.356 24.2475Z" fill="#041C42"/>
<path d="M155.59 29.2068C155.659 27.7907 156.183 26.4197 156.41 26.0073L157.084 26.7878C157.028 26.9171 156.608 28.1266 156.463 29.0932C156.318 30.0598 156.654 32.3813 156.84 33.4213C157.008 34.168 157.415 35.9852 157.691 37.2805C157.967 38.5758 157.422 39.1453 157.115 39.2681C156.56 39.4473 155.257 39.7287 154.486 39.4204C153.521 39.0349 153.445 37.7155 153.426 37.4013C153.412 37.15 153.648 36.8842 154.034 37.0509C154.267 37.1513 154.185 37.4835 154.196 37.672C154.211 37.931 154.379 38.4431 154.685 38.5262C155.068 38.6301 155.444 38.6084 156.376 38.4284C157.121 38.2843 156.931 37.3876 156.778 36.7029C156.354 34.7943 155.522 30.6229 155.59 29.2068Z" fill="#041C42"/>
<path d="M161.54 31.8287C161.533 30.8696 160.924 30.5388 160.62 30.4932C160.303 30.5537 159.683 30.9515 159.748 32.0588C159.812 33.1661 160.423 33.3243 160.72 33.265C160.997 33.1859 161.548 32.7878 161.54 31.8287Z" fill="#041C42"/>
<path d="M151.412 32.3451C151.412 31.4336 150.758 31.1236 150.432 31.0825C150.089 31.1423 149.42 31.5249 149.481 32.5768C149.542 33.6288 150.199 33.7747 150.519 33.7161C150.817 33.6389 151.413 33.2566 151.412 32.3451Z" fill="#041C42"/>
<path d="M251.973 183H246.319V173.006H251.973V174.387H247.953V177.107H251.72V178.475H247.953V181.612H251.973V183ZM260.62 183H259.007V178.352C259.007 177.768 258.888 177.333 258.651 177.046C258.419 176.759 258.048 176.615 257.537 176.615C256.858 176.615 256.361 176.816 256.047 177.217C255.732 177.618 255.575 178.29 255.575 179.233V183H253.969V175.439H255.227L255.452 176.431H255.534C255.762 176.071 256.086 175.793 256.505 175.597C256.924 175.401 257.389 175.303 257.899 175.303C259.713 175.303 260.62 176.226 260.62 178.071V183ZM264.578 183L261.707 175.439H263.402L264.94 179.835C265.205 180.573 265.364 181.17 265.419 181.626H265.474C265.515 181.298 265.674 180.701 265.952 179.835L267.49 175.439H269.199L266.314 183H264.578ZM271.954 183H270.348V175.439H271.954V183ZM270.252 173.437C270.252 173.149 270.329 172.928 270.484 172.773C270.644 172.618 270.869 172.541 271.161 172.541C271.444 172.541 271.662 172.618 271.817 172.773C271.977 172.928 272.057 173.149 272.057 173.437C272.057 173.71 271.977 173.926 271.817 174.086C271.662 174.241 271.444 174.318 271.161 174.318C270.869 174.318 270.644 174.241 270.484 174.086C270.329 173.926 270.252 173.71 270.252 173.437ZM278.988 183L278.667 181.947H278.612C278.248 182.408 277.881 182.722 277.512 182.891C277.143 183.055 276.669 183.137 276.09 183.137C275.347 183.137 274.766 182.936 274.347 182.535C273.932 182.134 273.725 181.567 273.725 180.833C273.725 180.054 274.014 179.466 274.593 179.069C275.172 178.673 276.053 178.456 277.238 178.42L278.544 178.379V177.976C278.544 177.493 278.43 177.132 278.202 176.896C277.979 176.654 277.63 176.533 277.156 176.533C276.769 176.533 276.397 176.59 276.042 176.704C275.687 176.818 275.345 176.952 275.017 177.107L274.497 175.959C274.907 175.745 275.356 175.583 275.844 175.474C276.331 175.36 276.792 175.303 277.225 175.303C278.186 175.303 278.911 175.512 279.398 175.932C279.891 176.351 280.137 177.009 280.137 177.907V183H278.988ZM276.596 181.906C277.179 181.906 277.646 181.744 277.997 181.421C278.353 181.093 278.53 180.635 278.53 180.047V179.391L277.56 179.432C276.803 179.459 276.252 179.587 275.905 179.814C275.563 180.038 275.393 180.382 275.393 180.847C275.393 181.184 275.493 181.446 275.693 181.633C275.894 181.815 276.195 181.906 276.596 181.906ZM286.214 175.303C286.537 175.303 286.804 175.326 287.014 175.371L286.856 176.868C286.629 176.813 286.392 176.786 286.146 176.786C285.503 176.786 284.981 176.996 284.58 177.415C284.184 177.834 283.985 178.379 283.985 179.049V183H282.379V175.439H283.637L283.849 176.772H283.931C284.181 176.321 284.507 175.964 284.908 175.699C285.314 175.435 285.749 175.303 286.214 175.303Z" fill="#041C42"/>
<path d="M20 165C20 162.239 22.2386 160 25 160H217C219.761 160 222 162.239 222 165V190C222 192.761 219.761 195 217 195H25C22.2386 195 20 192.761 20 190V165Z" fill="white"/>
<path d="M232.5 165C232.5 162.515 234.515 160.5 237 160.5H295C297.485 160.5 299.5 162.515 299.5 165V190C299.5 192.485 297.485 194.5 295 194.5H237C234.515 194.5 232.5 192.485 232.5 190V165Z" stroke="#041C42"/>
<path d="M40.6123 183H35.5879L37.7002 173.006H42.7246L42.5059 174.052H38.6367L37.9668 177.258H41.5693L41.3711 178.297H37.7549L36.9756 181.961H40.8379L40.6123 183Z" fill="#041C42"/>
<path d="M47.1884 180.874C47.1884 181.585 46.9354 182.141 46.4296 182.542C45.9283 182.938 45.2196 183.137 44.3036 183.137C43.5334 183.137 42.8385 182.979 42.2188 182.665V181.585C42.5378 181.776 42.8817 181.924 43.2509 182.029C43.62 182.134 43.9619 182.187 44.2764 182.187C44.8506 182.187 45.2834 182.073 45.5751 181.845C45.8668 181.617 46.0126 181.325 46.0126 180.97C46.0126 180.71 45.9328 180.491 45.7733 180.313C45.6138 180.136 45.2698 179.892 44.7411 179.582C44.1487 179.249 43.7294 178.924 43.4833 178.604C43.2372 178.285 43.1143 177.907 43.1143 177.47C43.1143 176.841 43.3443 176.335 43.8046 175.952C44.2649 175.565 44.8711 175.371 45.623 175.371C46.4023 175.371 47.1542 175.54 47.8788 175.877L47.5098 176.813L47.1269 176.643C46.6666 176.447 46.1654 176.349 45.623 176.349C45.1992 176.349 44.8665 176.449 44.625 176.649C44.3835 176.845 44.2626 177.101 44.2626 177.415C44.2626 177.67 44.3423 177.889 44.5019 178.071C44.6659 178.254 45.001 178.488 45.5068 178.775C45.9945 179.049 46.3431 179.284 46.5527 179.479C46.7669 179.675 46.9264 179.887 47.0312 180.115C47.1361 180.339 47.1884 180.591 47.1884 180.874Z" fill="#041C42"/>
<path d="M51.625 183.137C50.7409 183.137 50.055 182.893 49.5674 182.405C49.0798 181.918 48.8359 181.229 48.8359 180.341C48.8359 179.429 49.0046 178.589 49.3418 177.818C49.679 177.048 50.1439 176.449 50.7363 176.021C51.3333 175.588 52.0033 175.371 52.7461 175.371C53.3704 175.371 53.9811 175.487 54.5781 175.72L54.2568 176.684C53.71 176.451 53.2109 176.335 52.7598 176.335C52.2493 176.335 51.7822 176.51 51.3584 176.861C50.9391 177.208 50.6087 177.693 50.3672 178.317C50.1302 178.937 50.0117 179.612 50.0117 180.341C50.0117 180.924 50.1621 181.378 50.4629 181.701C50.7682 182.025 51.1875 182.187 51.7207 182.187C52.0488 182.187 52.3587 182.141 52.6504 182.05C52.9421 181.959 53.2292 181.852 53.5117 181.729V182.706C52.9466 182.993 52.3177 183.137 51.625 183.137Z" fill="#041C42"/>
<path d="M59.6094 175.371C59.9238 175.371 60.1973 175.403 60.4297 175.467L60.1836 176.492C59.9421 176.433 59.7028 176.403 59.4658 176.403C59.0511 176.403 58.6615 176.54 58.2969 176.813C57.9368 177.087 57.6201 177.467 57.3467 177.955C57.0778 178.438 56.8796 178.976 56.752 179.568L56.0205 183H54.8721L56.4717 175.508H57.4219L57.2715 176.896H57.3398C57.668 176.463 57.9391 176.153 58.1533 175.966C58.3675 175.774 58.5908 175.629 58.8232 175.528C59.0602 175.424 59.3223 175.371 59.6094 175.371Z" fill="#041C42"/>
<path d="M61.5713 183H60.4229L62.0224 175.508H63.1708L61.5713 183ZM62.3438 173.594C62.3438 173.339 62.4167 173.131 62.5625 172.972C62.7083 172.808 62.8975 172.726 63.1299 172.726C63.5309 172.726 63.7313 172.931 63.7313 173.341C63.7313 173.591 63.654 173.803 63.499 173.977C63.3486 174.15 63.1731 174.236 62.9726 174.236C62.7903 174.236 62.64 174.182 62.5215 174.072C62.403 173.958 62.3438 173.799 62.3438 173.594Z" fill="#041C42"/>
<path d="M67.2998 183.137C66.8577 183.137 66.4681 183.021 66.1309 182.788C65.7982 182.556 65.5475 182.239 65.3789 181.838H65.3105L64.832 183H63.9775L66.2334 172.363H67.3818C67.1494 173.466 66.9694 174.312 66.8418 174.899C66.7188 175.483 66.5479 176.166 66.3291 176.95H66.3906C66.8145 176.412 67.2314 176.018 67.6416 175.768C68.0563 175.512 68.4824 175.385 68.9199 175.385C69.5625 175.385 70.0638 175.61 70.4238 176.062C70.7839 176.513 70.9639 177.132 70.9639 177.921C70.9639 178.873 70.8066 179.755 70.4922 180.566C70.1823 181.373 69.7471 182.004 69.1865 182.46C68.6305 182.911 68.0016 183.137 67.2998 183.137ZM68.5713 176.335C68.1338 176.335 67.6872 176.551 67.2314 176.984C66.7803 177.417 66.4202 177.962 66.1514 178.618C65.887 179.274 65.7549 179.947 65.7549 180.635C65.7549 181.136 65.8802 181.521 66.1309 181.79C66.3861 182.054 66.7529 182.187 67.2314 182.187C67.6826 182.187 68.1019 182.002 68.4893 181.633C68.8812 181.264 69.1956 180.74 69.4326 180.061C69.6696 179.377 69.7881 178.652 69.7881 177.887C69.7881 176.852 69.3825 176.335 68.5713 176.335Z" fill="#041C42"/>
<path d="M75.0176 183.137C74.179 183.137 73.5205 182.888 73.042 182.392C72.5635 181.895 72.3242 181.207 72.3242 180.327C72.3242 179.47 72.4928 178.65 72.8301 177.866C73.1719 177.078 73.623 176.465 74.1836 176.027C74.7441 175.59 75.3617 175.371 76.0361 175.371C76.7334 175.371 77.2575 175.524 77.6084 175.829C77.9593 176.13 78.1348 176.551 78.1348 177.094C78.1348 177.914 77.7565 178.559 77 179.028C76.2435 179.493 75.1611 179.726 73.7529 179.726H73.5273L73.5 180.272C73.5 180.869 73.639 181.337 73.917 181.674C74.1995 182.007 74.6348 182.173 75.2227 182.173C75.5098 182.173 75.8037 182.132 76.1045 182.05C76.4098 181.968 76.7881 181.817 77.2393 181.599V182.597C76.8109 182.797 76.4326 182.936 76.1045 183.014C75.7764 183.096 75.4141 183.137 75.0176 183.137ZM75.9678 176.349C75.4984 176.349 75.0563 176.563 74.6416 176.991C74.2314 177.42 73.917 178.014 73.6982 178.775H73.7803C74.8193 178.775 75.6146 178.641 76.166 178.372C76.722 178.099 77 177.704 77 177.189C77 176.948 76.9157 176.747 76.7471 176.588C76.583 176.428 76.3232 176.349 75.9678 176.349Z" fill="#041C42"/>
<path d="M84.8955 182.2C85.1462 182.2 85.4743 182.141 85.8799 182.022V182.904C85.7249 182.968 85.5335 183.023 85.3057 183.068C85.0778 183.114 84.8955 183.137 84.7588 183.137C84.1891 183.137 83.7516 183.002 83.4463 182.733C83.1455 182.46 82.9951 182.054 82.9951 181.517C82.9951 181.216 83.0361 180.874 83.1182 180.491L83.9863 176.376H82.8105L82.9062 175.877L84.1709 175.344L85.0254 173.785H85.6953L85.3193 175.508H87.1924L87.0146 176.376H85.1484L84.2666 180.505C84.1846 180.901 84.1436 181.202 84.1436 181.407C84.1436 181.662 84.2096 181.858 84.3418 181.995C84.474 182.132 84.6585 182.2 84.8955 182.2Z" fill="#041C42"/>
<path d="M89.8174 175.508L88.792 180.259C88.71 180.664 88.6689 180.981 88.6689 181.209C88.6689 181.861 89.0039 182.187 89.6738 182.187C90.0749 182.187 90.4691 182.05 90.8564 181.776C91.2438 181.503 91.5856 181.111 91.8818 180.601C92.1781 180.09 92.4036 179.475 92.5586 178.755L93.2422 175.508H94.377L92.7979 183H91.8477L91.998 181.612H91.916C91.4694 182.182 91.0433 182.578 90.6377 182.802C90.2321 183.025 89.8128 183.137 89.3799 183.137C88.7966 183.137 88.3385 182.979 88.0059 182.665C87.6732 182.346 87.5068 181.893 87.5068 181.305C87.5068 181.022 87.557 180.63 87.6572 180.129L88.6553 175.508H89.8174Z" fill="#041C42"/>
<path d="M103.209 183L104.221 178.27C104.303 177.841 104.344 177.534 104.344 177.347C104.344 177.028 104.273 176.779 104.132 176.602C103.991 176.424 103.749 176.335 103.407 176.335C103.024 176.335 102.651 176.472 102.286 176.745C101.926 177.019 101.607 177.41 101.329 177.921C101.056 178.427 100.844 179.037 100.693 179.753L100.003 183H98.8545L100.454 175.508H101.404L101.254 176.896H101.322C101.719 176.353 102.113 175.964 102.505 175.727C102.901 175.49 103.309 175.371 103.729 175.371C104.243 175.371 104.64 175.519 104.918 175.815C105.196 176.112 105.36 176.524 105.41 177.053H105.465C105.857 176.483 106.274 176.062 106.716 175.788C107.158 175.51 107.604 175.371 108.056 175.371C108.634 175.371 109.081 175.526 109.396 175.836C109.715 176.146 109.874 176.597 109.874 177.189C109.874 177.499 109.824 177.905 109.724 178.406L108.739 183H107.577L108.589 178.27C108.68 177.796 108.726 177.463 108.726 177.271C108.726 176.989 108.646 176.763 108.486 176.595C108.331 176.422 108.085 176.335 107.748 176.335C107.379 176.335 107.014 176.467 106.654 176.731C106.294 176.996 105.978 177.372 105.704 177.859C105.435 178.342 105.23 178.917 105.089 179.582L104.357 183H103.209Z" fill="#041C42"/>
<path d="M115.028 175.371C115.448 175.371 115.821 175.485 116.149 175.713C116.478 175.936 116.733 176.26 116.915 176.684H116.99L117.448 175.508H118.316L116.724 183H115.814L115.992 181.571H115.938C115.122 182.615 114.263 183.137 113.36 183.137C112.727 183.137 112.23 182.911 111.87 182.46C111.51 182.009 111.33 181.391 111.33 180.607C111.33 179.66 111.492 178.78 111.815 177.969C112.139 177.158 112.586 176.522 113.155 176.062C113.725 175.601 114.349 175.371 115.028 175.371ZM113.729 182.187C114.172 182.187 114.611 181.977 115.049 181.558C115.486 181.134 115.842 180.585 116.115 179.91C116.389 179.231 116.525 178.552 116.525 177.873C116.525 177.404 116.398 177.03 116.143 176.752C115.887 176.474 115.552 176.335 115.138 176.335C114.664 176.335 114.222 176.531 113.812 176.923C113.406 177.315 113.087 177.846 112.854 178.516C112.622 179.186 112.506 179.892 112.506 180.635C112.506 181.154 112.613 181.544 112.827 181.804C113.041 182.059 113.342 182.187 113.729 182.187Z" fill="#041C42"/>
<path d="M120.128 183H118.979L120.579 175.508H121.728L120.128 183ZM120.9 173.594C120.9 173.339 120.973 173.131 121.119 172.972C121.265 172.808 121.454 172.726 121.687 172.726C122.088 172.726 122.288 172.931 122.288 173.341C122.288 173.591 122.211 173.803 122.056 173.977C121.905 174.15 121.73 174.236 121.529 174.236C121.347 174.236 121.197 174.182 121.078 174.072C120.96 173.958 120.9 173.799 120.9 173.594Z" fill="#041C42"/>
<path d="M123.669 183H122.521L124.79 172.363H125.938L123.669 183Z" fill="#041C42"/>
<path d="M133.69 175.371C134.11 175.371 134.483 175.485 134.812 175.713C135.14 175.936 135.395 176.26 135.577 176.684H135.652L136.11 175.508H136.979L135.386 183H134.477L134.654 181.571H134.6C133.784 182.615 132.925 183.137 132.022 183.137C131.389 183.137 130.892 182.911 130.532 182.46C130.172 182.009 129.992 181.391 129.992 180.607C129.992 179.66 130.154 178.78 130.478 177.969C130.801 177.158 131.248 176.522 131.817 176.062C132.387 175.601 133.011 175.371 133.69 175.371ZM132.392 182.187C132.834 182.187 133.273 181.977 133.711 181.558C134.148 181.134 134.504 180.585 134.777 179.91C135.051 179.231 135.188 178.552 135.188 177.873C135.188 177.404 135.06 177.03 134.805 176.752C134.549 176.474 134.215 176.335 133.8 176.335C133.326 176.335 132.884 176.531 132.474 176.923C132.068 177.315 131.749 177.846 131.517 178.516C131.284 179.186 131.168 179.892 131.168 180.635C131.168 181.154 131.275 181.544 131.489 181.804C131.703 182.059 132.004 182.187 132.392 182.187Z" fill="#041C42"/>
<path d="M141.62 175.371C142.049 175.371 142.424 175.487 142.748 175.72C143.076 175.948 143.325 176.269 143.493 176.684H143.582L144.04 175.508H144.895L142.598 186.363H141.463L142.153 183.082C142.194 182.877 142.324 182.373 142.543 181.571H142.488C142.055 182.123 141.634 182.521 141.224 182.768C140.813 183.014 140.39 183.137 139.952 183.137C139.314 183.137 138.813 182.916 138.448 182.474C138.088 182.027 137.908 181.405 137.908 180.607C137.908 179.641 138.072 178.748 138.4 177.928C138.733 177.107 139.18 176.476 139.74 176.034C140.305 175.592 140.932 175.371 141.62 175.371ZM140.308 182.187C140.727 182.187 141.16 181.977 141.606 181.558C142.053 181.138 142.413 180.598 142.687 179.938C142.965 179.277 143.104 178.593 143.104 177.887C143.104 177.408 142.978 177.03 142.728 176.752C142.481 176.474 142.135 176.335 141.688 176.335C141.228 176.335 140.798 176.529 140.396 176.916C139.995 177.299 139.676 177.83 139.439 178.509C139.202 179.183 139.084 179.892 139.084 180.635C139.084 181.669 139.492 182.187 140.308 182.187Z" fill="#041C42"/>
<path d="M148.401 175.508L147.376 180.259C147.294 180.664 147.253 180.981 147.253 181.209C147.253 181.861 147.588 182.187 148.258 182.187C148.659 182.187 149.053 182.05 149.44 181.776C149.828 181.503 150.17 181.111 150.466 180.601C150.762 180.09 150.988 179.475 151.143 178.755L151.826 175.508H152.961L151.382 183H150.432L150.582 181.612H150.5C150.053 182.182 149.627 182.578 149.222 182.802C148.816 183.025 148.397 183.137 147.964 183.137C147.381 183.137 146.923 182.979 146.59 182.665C146.257 182.346 146.091 181.893 146.091 181.305C146.091 181.022 146.141 180.63 146.241 180.129L147.239 175.508H148.401Z" fill="#041C42"/>
<path d="M154.95 183H153.802L155.401 175.508H156.55L154.95 183ZM155.613 174.332C155.868 174.059 156.153 173.715 156.468 173.3C156.787 172.881 157.031 172.539 157.199 172.274H158.498V172.418C158.325 172.641 158.006 172.985 157.541 173.45C157.076 173.915 156.673 174.271 156.331 174.517H155.613V174.332Z" fill="#041C42"/>
<path d="M20.5 120C20.5 117.515 22.5147 115.5 25 115.5H295C297.485 115.5 299.5 117.515 299.5 120V145C299.5 147.485 297.485 149.5 295 149.5H25C22.5147 149.5 20.5 147.485 20.5 145V120Z" stroke="#041C42"/>
<path d="M130.128 135.286C130.128 136.175 129.807 136.872 129.164 137.378C128.521 137.884 127.635 138.137 126.505 138.137C125.375 138.137 124.45 137.961 123.729 137.61V136.065C124.185 136.28 124.668 136.448 125.179 136.571C125.694 136.694 126.172 136.756 126.614 136.756C127.261 136.756 127.738 136.633 128.043 136.387C128.353 136.141 128.508 135.81 128.508 135.396C128.508 135.022 128.367 134.705 128.084 134.445C127.801 134.186 127.218 133.878 126.334 133.522C125.423 133.153 124.78 132.732 124.406 132.258C124.033 131.784 123.846 131.214 123.846 130.549C123.846 129.715 124.142 129.059 124.734 128.58C125.327 128.102 126.122 127.862 127.12 127.862C128.077 127.862 129.03 128.072 129.978 128.491L129.458 129.824C128.569 129.451 127.776 129.264 127.079 129.264C126.55 129.264 126.149 129.38 125.876 129.612C125.603 129.84 125.466 130.143 125.466 130.521C125.466 130.781 125.521 131.005 125.63 131.191C125.739 131.374 125.919 131.547 126.17 131.711C126.421 131.875 126.872 132.091 127.523 132.36C128.257 132.666 128.795 132.951 129.137 133.215C129.479 133.479 129.729 133.778 129.889 134.11C130.048 134.443 130.128 134.835 130.128 135.286Z" fill="#041C42"/>
<path d="M133.498 138H131.892V130.439H133.498V138ZM131.81 129.517V129.346C132.069 129.027 132.336 128.671 132.609 128.279C132.887 127.887 133.106 127.552 133.266 127.274H135.132V127.418C134.895 127.696 134.539 128.056 134.065 128.498C133.596 128.936 133.2 129.275 132.876 129.517H131.81Z" fill="#041C42"/>
<path d="M137.47 136.53C137.251 137.378 136.85 138.469 136.267 139.805H135.084C135.398 138.574 135.633 137.43 135.788 136.373H137.367L137.47 136.53Z" fill="#041C42"/>
<path d="M147.915 138L147.594 136.947H147.539C147.174 137.408 146.808 137.722 146.438 137.891C146.069 138.055 145.595 138.137 145.017 138.137C144.274 138.137 143.693 137.936 143.273 137.535C142.859 137.134 142.651 136.567 142.651 135.833C142.651 135.054 142.941 134.466 143.52 134.069C144.098 133.673 144.98 133.456 146.165 133.42L147.471 133.379V132.976C147.471 132.493 147.357 132.132 147.129 131.896C146.906 131.654 146.557 131.533 146.083 131.533C145.696 131.533 145.324 131.59 144.969 131.704C144.613 131.818 144.271 131.952 143.943 132.107L143.424 130.959C143.834 130.745 144.283 130.583 144.771 130.474C145.258 130.36 145.718 130.303 146.151 130.303C147.113 130.303 147.838 130.512 148.325 130.932C148.817 131.351 149.063 132.009 149.063 132.907V138H147.915ZM145.522 136.906C146.106 136.906 146.573 136.744 146.924 136.421C147.279 136.093 147.457 135.635 147.457 135.047V134.391L146.486 134.432C145.73 134.459 145.178 134.587 144.832 134.814C144.49 135.038 144.319 135.382 144.319 135.847C144.319 136.184 144.42 136.446 144.62 136.633C144.821 136.815 145.121 136.906 145.522 136.906Z" fill="#041C42"/>
<path d="M153.028 138L150.157 130.439H151.853L153.391 134.835C153.655 135.573 153.814 136.17 153.869 136.626H153.924C153.965 136.298 154.124 135.701 154.402 134.835L155.94 130.439H157.649L154.765 138H153.028Z" fill="#041C42"/>
<path d="M160.404 138H158.798V130.439H160.404V138ZM158.716 129.517V129.346C158.976 129.027 159.242 128.671 159.516 128.279C159.794 127.887 160.012 127.552 160.172 127.274H162.038V127.418C161.801 127.696 161.446 128.056 160.972 128.498C160.502 128.936 160.106 129.275 159.782 129.517H158.716Z" fill="#041C42"/>
<path d="M167.787 135.847C167.787 136.585 167.518 137.152 166.98 137.549C166.443 137.941 165.673 138.137 164.67 138.137C163.663 138.137 162.854 137.984 162.243 137.679V136.291C163.132 136.701 163.959 136.906 164.725 136.906C165.714 136.906 166.208 136.608 166.208 136.011C166.208 135.819 166.153 135.66 166.044 135.532C165.935 135.405 165.755 135.272 165.504 135.136C165.253 134.999 164.905 134.844 164.458 134.671C163.588 134.334 162.997 133.996 162.688 133.659C162.382 133.322 162.229 132.884 162.229 132.347C162.229 131.7 162.489 131.198 163.009 130.843C163.533 130.483 164.244 130.303 165.142 130.303C166.03 130.303 166.871 130.483 167.664 130.843L167.145 132.053C166.329 131.715 165.643 131.547 165.087 131.547C164.239 131.547 163.815 131.788 163.815 132.271C163.815 132.508 163.925 132.709 164.144 132.873C164.367 133.037 164.85 133.263 165.593 133.55C166.217 133.791 166.671 134.012 166.953 134.213C167.236 134.413 167.445 134.646 167.582 134.91C167.719 135.17 167.787 135.482 167.787 135.847Z" fill="#041C42"/>
<path d="M174.261 138L173.939 136.947H173.885C173.52 137.408 173.153 137.722 172.784 137.891C172.415 138.055 171.941 138.137 171.362 138.137C170.619 138.137 170.038 137.936 169.619 137.535C169.204 137.134 168.997 136.567 168.997 135.833C168.997 135.054 169.286 134.466 169.865 134.069C170.444 133.673 171.326 133.456 172.511 133.42L173.816 133.379V132.976C173.816 132.493 173.702 132.132 173.475 131.896C173.251 131.654 172.903 131.533 172.429 131.533C172.041 131.533 171.67 131.59 171.314 131.704C170.959 131.818 170.617 131.952 170.289 132.107L169.77 130.959C170.18 130.745 170.629 130.583 171.116 130.474C171.604 130.36 172.064 130.303 172.497 130.303C173.459 130.303 174.183 130.512 174.671 130.932C175.163 131.351 175.409 132.009 175.409 132.907V138H174.261ZM171.868 136.906C172.451 136.906 172.919 136.744 173.27 136.421C173.625 136.093 173.803 135.635 173.803 135.047V134.391L172.832 134.432C172.076 134.459 171.524 134.587 171.178 134.814C170.836 135.038 170.665 135.382 170.665 135.847C170.665 136.184 170.765 136.446 170.966 136.633C171.166 136.815 171.467 136.906 171.868 136.906Z" fill="#041C42"/>
<path d="M184.022 138H182.409V133.338C182.409 132.759 182.3 132.328 182.081 132.046C181.862 131.759 181.521 131.615 181.056 131.615C180.436 131.615 179.98 131.818 179.688 132.224C179.401 132.625 179.258 133.295 179.258 134.233V138H177.651V130.439H178.909L179.135 131.431H179.217C179.426 131.071 179.729 130.793 180.126 130.597C180.527 130.401 180.967 130.303 181.445 130.303C182.607 130.303 183.378 130.699 183.756 131.492H183.865C184.089 131.118 184.403 130.827 184.809 130.617C185.214 130.408 185.679 130.303 186.203 130.303C187.105 130.303 187.762 130.531 188.172 130.986C188.587 131.442 188.794 132.137 188.794 133.071V138H187.188V133.338C187.188 132.759 187.076 132.328 186.853 132.046C186.634 131.759 186.292 131.615 185.827 131.615C185.203 131.615 184.745 131.811 184.453 132.203C184.166 132.59 184.022 133.188 184.022 133.994V138Z" fill="#041C42"/>
<path d="M194.338 138.137C193.162 138.137 192.242 137.795 191.576 137.111C190.915 136.423 190.585 135.478 190.585 134.274C190.585 133.039 190.893 132.069 191.508 131.362C192.123 130.656 192.968 130.303 194.044 130.303C195.042 130.303 195.83 130.606 196.409 131.212C196.988 131.818 197.277 132.652 197.277 133.714V134.582H192.239C192.262 135.316 192.46 135.881 192.834 136.277C193.208 136.669 193.734 136.865 194.413 136.865C194.86 136.865 195.274 136.824 195.657 136.742C196.045 136.656 196.459 136.514 196.901 136.318V137.624C196.509 137.811 196.113 137.943 195.712 138.021C195.311 138.098 194.853 138.137 194.338 138.137ZM194.044 131.52C193.534 131.52 193.123 131.681 192.813 132.005C192.508 132.328 192.326 132.8 192.267 133.42H195.698C195.689 132.796 195.539 132.324 195.247 132.005C194.955 131.681 194.554 131.52 194.044 131.52Z" fill="#041C42"/>
</svg>
