<svg width="320" height="210" viewBox="0 0 320 210" fill="none" xmlns="http://www.w3.org/2000/svg">
<path d="M320 0H0V210H320V0Z" fill="#E9F2FF"/>
<path d="M91.0205 51.771H195.049V191.528H91.0205V51.771Z" fill="#A1C9FF"/>
<path d="M195.048 121.528H233.451V191.528H195.048V121.528Z" fill="#A1C9FF"/>
<path fill-rule="evenodd" clip-rule="evenodd" d="M106.455 22.604C105.112 22.604 104.024 23.6922 104.024 25.0346V42.0485H90.2917C86.2646 42.0485 83 45.3131 83 49.3402V191.649H125.17V156.528C125.17 155.186 126.258 154.097 127.601 154.097H141.455V191.649H143.885V154.097H157.497C158.839 154.097 159.927 155.186 159.927 156.528V191.649H237.705V120.798C237.705 116.771 234.44 113.507 230.413 113.507H201.125V49.3402C201.125 45.3131 197.86 42.0485 193.833 42.0485H108.885V25.0346C108.885 23.6922 107.797 22.604 106.455 22.604ZM97.7049 63.9235C97.7049 62.5811 98.7931 61.4929 100.135 61.4929H112.045C113.387 61.4929 114.476 62.5811 114.476 63.9235V80.2082C114.476 81.5506 113.387 82.6388 112.045 82.6388H100.135C98.7931 82.6388 97.7049 81.5506 97.7049 80.2082V63.9235ZM100.378 92.361C99.0361 92.361 97.9479 93.4492 97.9479 94.7915V111.076C97.9479 112.419 99.0361 113.507 100.378 113.507H112.288C113.631 113.507 114.719 112.419 114.719 111.076V94.7915C114.719 93.4492 113.631 92.361 112.288 92.361H100.378ZM97.9479 125.66C97.9479 124.317 99.0361 123.229 100.378 123.229H112.288C113.631 123.229 114.719 124.317 114.719 125.66V141.945C114.719 143.287 113.631 144.375 112.288 144.375H100.378C99.0361 144.375 97.9479 143.287 97.9479 141.945V125.66ZM100.622 154.097C99.2792 154.097 98.191 155.186 98.191 156.528V172.813C98.191 174.155 99.2792 175.243 100.622 175.243H112.531C113.874 175.243 114.962 174.155 114.962 172.813V156.528C114.962 155.186 113.874 154.097 112.531 154.097H100.622ZM133.92 63.9235C133.92 62.5811 135.008 61.4929 136.351 61.4929H148.26C149.603 61.4929 150.691 62.5811 150.691 63.9235V80.2082C150.691 81.5506 149.603 82.6388 148.26 82.6388H136.351C135.008 82.6388 133.92 81.5506 133.92 80.2082V63.9235ZM136.594 92.361C135.251 92.361 134.163 93.4492 134.163 94.7915V111.076C134.163 112.419 135.251 113.507 136.594 113.507H148.503C149.846 113.507 150.934 112.419 150.934 111.076V94.7915C150.934 93.4492 149.846 92.361 148.503 92.361H136.594ZM134.163 125.66C134.163 124.317 135.251 123.229 136.594 123.229H148.503C149.846 123.229 150.934 124.317 150.934 125.66V141.945C150.934 143.287 149.846 144.375 148.503 144.375H136.594C135.251 144.375 134.163 143.287 134.163 141.945V125.66ZM172.323 61.4929C170.981 61.4929 169.892 62.5811 169.892 63.9235V80.2082C169.892 81.5506 170.981 82.6388 172.323 82.6388H184.233C185.575 82.6388 186.663 81.5506 186.663 80.2082V63.9235C186.663 62.5811 185.575 61.4929 184.233 61.4929H172.323ZM170.135 94.7915C170.135 93.4492 171.224 92.361 172.566 92.361H184.476C185.818 92.361 186.906 93.4492 186.906 94.7915V111.076C186.906 112.419 185.818 113.507 184.476 113.507H172.566C171.224 113.507 170.135 112.419 170.135 111.076V94.7915ZM172.566 123.229C171.224 123.229 170.135 124.317 170.135 125.66V141.945C170.135 143.287 171.224 144.375 172.566 144.375H184.476C185.818 144.375 186.906 143.287 186.906 141.945V125.66C186.906 124.317 185.818 123.229 184.476 123.229H172.566ZM206.351 125.66C206.351 124.317 207.439 123.229 208.781 123.229H220.691C222.033 123.229 223.122 124.317 223.122 125.66V141.945C223.122 143.287 222.033 144.375 220.691 144.375H208.781C207.439 144.375 206.351 143.287 206.351 141.945V125.66ZM172.809 154.097C171.467 154.097 170.378 155.186 170.378 156.528V172.813C170.378 174.155 171.467 175.243 172.809 175.243H184.719C186.061 175.243 187.149 174.155 187.149 172.813V156.528C187.149 155.186 186.061 154.097 184.719 154.097H172.809ZM206.594 156.528C206.594 155.186 207.682 154.097 209.024 154.097H220.934C222.276 154.097 223.365 155.186 223.365 156.528V172.813C223.365 174.155 222.276 175.243 220.934 175.243H209.024C207.682 175.243 206.594 174.155 206.594 172.813V156.528Z" fill="#041C42"/>
<path d="M0 210C0 199.507 8.50659 191 19 191H301C311.493 191 320 199.507 320 210H0Z" fill="#041C42"/>
</svg>
