<svg width="320" height="210" viewBox="0 0 320 210" fill="none" xmlns="http://www.w3.org/2000/svg">
<path d="M320 0H0V210H320V0Z" fill="#E9F2FF"/>
<path d="M25.5 35C25.5 32.5147 27.5147 30.5 30 30.5H268C270.485 30.5 272.5 32.5147 272.5 35V65C272.5 67.4853 270.485 69.5 268 69.5H30C27.5147 69.5 25.5 67.4853 25.5 65V35Z" fill="white" stroke="#5B7FA1"/>
<path d="M291.5 41.5C290.992 41.5 290.581 41.9114 290.581 42.4189V49.0811H283.919C283.411 49.0811 283 49.4925 283 50C283 50.5075 283.411 50.9189 283.919 50.9189H290.581V57.5811C290.581 58.0886 290.992 58.5 291.5 58.5C292.008 58.5 292.419 58.0886 292.419 57.5811V50.9189H299.081C299.589 50.9189 300 50.5075 300 50C300 49.4925 299.589 49.0811 299.081 49.0811H292.419V42.4189C292.419 41.9114 292.008 41.5 291.5 41.5Z" fill="#5B7FA1"/>
<path d="M48.0938 44.5781H49.5234L45.4062 56H44.0938L40 44.5781H41.4062L44.0312 51.9688C44.3333 52.8177 44.5729 53.6432 44.75 54.4453C44.9375 53.6016 45.1823 52.7604 45.4844 51.9219L48.0938 44.5781Z" fill="#1D1D1B"/>
<path d="M52.2031 56H50.9062V47.4375H52.2031V56ZM50.7969 45.1172C50.7969 44.8203 50.8698 44.6042 51.0156 44.4688C51.1615 44.3281 51.3438 44.2578 51.5625 44.2578C51.7708 44.2578 51.9505 44.3281 52.1016 44.4688C52.2526 44.6094 52.3281 44.8255 52.3281 45.1172C52.3281 45.4089 52.2526 45.6276 52.1016 45.7734C51.9505 45.9141 51.7708 45.9844 51.5625 45.9844C51.3438 45.9844 51.1615 45.9141 51.0156 45.7734C50.8698 45.6276 50.7969 45.4089 50.7969 45.1172Z" fill="#1D1D1B"/>
<path d="M60.2188 56L59.9609 54.7812H59.8984C59.4714 55.3177 59.0443 55.6823 58.6172 55.875C58.1953 56.0625 57.6667 56.1562 57.0312 56.1562C56.1823 56.1562 55.5156 55.9375 55.0312 55.5C54.5521 55.0625 54.3125 54.4401 54.3125 53.6328C54.3125 51.9036 55.6953 50.9974 58.4609 50.9141L59.9141 50.8672V50.3359C59.9141 49.6641 59.7682 49.1693 59.4766 48.8516C59.1901 48.5286 58.7292 48.3672 58.0938 48.3672C57.3802 48.3672 56.5729 48.5859 55.6719 49.0234L55.2734 48.0312C55.6953 47.8021 56.1562 47.6224 56.6562 47.4922C57.1615 47.362 57.6667 47.2969 58.1719 47.2969C59.1927 47.2969 59.9479 47.5234 60.4375 47.9766C60.9323 48.4297 61.1797 49.1562 61.1797 50.1562V56H60.2188ZM57.2891 55.0859C58.0964 55.0859 58.7292 54.8646 59.1875 54.4219C59.651 53.9792 59.8828 53.3594 59.8828 52.5625V51.7891L58.5859 51.8438C57.5547 51.8802 56.8099 52.0417 56.3516 52.3281C55.8984 52.6094 55.6719 53.0495 55.6719 53.6484C55.6719 54.1172 55.8125 54.474 56.0938 54.7188C56.3802 54.9635 56.7786 55.0859 57.2891 55.0859Z" fill="#1D1D1B"/>
<path d="M62.8203 59.8438C62.3255 59.8438 61.9245 59.7786 61.6172 59.6484V58.5938C61.9766 58.6979 62.3307 58.75 62.6797 58.75C63.0859 58.75 63.3828 58.638 63.5703 58.4141C63.763 58.1953 63.8594 57.8594 63.8594 57.4062V47.4375H65.1562V57.3125C65.1562 59 64.3776 59.8438 62.8203 59.8438ZM63.75 45.1172C63.75 44.8203 63.8229 44.6042 63.9688 44.4688C64.1146 44.3281 64.2969 44.2578 64.5156 44.2578C64.724 44.2578 64.9036 44.3281 65.0547 44.4688C65.2057 44.6094 65.2812 44.8255 65.2812 45.1172C65.2812 45.4089 65.2057 45.6276 65.0547 45.7734C64.9036 45.9141 64.724 45.9844 64.5156 45.9844C64.2969 45.9844 64.1146 45.9141 63.9688 45.7734C63.8229 45.6276 63.75 45.4089 63.75 45.1172Z" fill="#1D1D1B"/>
<path d="M73.1719 56L72.9141 54.7812H72.8516C72.4245 55.3177 71.9974 55.6823 71.5703 55.875C71.1484 56.0625 70.6198 56.1562 69.9844 56.1562C69.1354 56.1562 68.4688 55.9375 67.9844 55.5C67.5052 55.0625 67.2656 54.4401 67.2656 53.6328C67.2656 51.9036 68.6484 50.9974 71.4141 50.9141L72.8672 50.8672V50.3359C72.8672 49.6641 72.7214 49.1693 72.4297 48.8516C72.1432 48.5286 71.6823 48.3672 71.0469 48.3672C70.3333 48.3672 69.526 48.5859 68.625 49.0234L68.2266 48.0312C68.6484 47.8021 69.1094 47.6224 69.6094 47.4922C70.1146 47.362 70.6198 47.2969 71.125 47.2969C72.1458 47.2969 72.901 47.5234 73.3906 47.9766C73.8854 48.4297 74.1328 49.1562 74.1328 50.1562V56H73.1719ZM70.2422 55.0859C71.0495 55.0859 71.6823 54.8646 72.1406 54.4219C72.6042 53.9792 72.8359 53.3594 72.8359 52.5625V51.7891L71.5391 51.8438C70.5078 51.8802 69.763 52.0417 69.3047 52.3281C68.8516 52.6094 68.625 53.0495 68.625 53.6484C68.625 54.1172 68.7656 54.474 69.0469 54.7188C69.3333 54.9635 69.7318 55.0859 70.2422 55.0859Z" fill="#1D1D1B"/>
<path d="M80.7188 47.2812C81.099 47.2812 81.4401 47.3125 81.7422 47.375L81.5625 48.5781C81.2083 48.5 80.8958 48.4609 80.625 48.4609C79.9323 48.4609 79.3385 48.7423 78.8438 49.3048C78.3542 49.8673 78.1094 50.5677 78.1094 51.4062V56H76.8125V47.4375H77.8828L78.0312 49.0234H78.0938C78.4115 48.4661 78.7943 48.0365 79.2422 47.7344C79.6901 47.4323 80.1823 47.2812 80.7188 47.2812Z" fill="#1D1D1B"/>
<path d="M93.3281 54.8516H93.2578C92.6589 55.7214 91.763 56.1562 90.5703 56.1562C89.4505 56.1562 88.5781 55.7733 87.9531 55.0077C87.3333 54.2421 87.0234 53.1536 87.0234 51.7422C87.0234 50.3307 87.3359 49.2344 87.9609 48.4531C88.5859 47.6719 89.4557 47.2812 90.5703 47.2812C91.7318 47.2812 92.6224 47.7031 93.2422 48.5469H93.3438L93.2891 47.9297L93.2578 47.3281V43.8438H94.5547V56H93.5L93.3281 54.8516ZM90.7344 55.0702C91.6198 55.0702 92.2604 54.8307 92.6562 54.3516C93.0573 53.8672 93.2578 53.0885 93.2578 52.0156V51.7422C93.2578 50.5286 93.0547 49.664 92.6484 49.1483C92.2474 48.6275 91.6042 48.3672 90.7188 48.3672C89.9583 48.3672 89.375 48.664 88.9688 49.2577C88.5677 49.8463 88.3672 50.6796 88.3672 51.7577C88.3672 52.8515 88.5677 53.6771 88.9688 54.2344C89.3698 54.7916 89.9583 55.0702 90.7344 55.0702Z" fill="#1D1D1B"/>
<path d="M100.93 56.1562C99.6641 56.1562 98.6641 55.7708 97.9297 55C97.2005 54.2292 96.8359 53.159 96.8359 51.7892C96.8359 50.409 97.1745 49.3125 97.8516 48.5C98.5339 47.6875 99.4479 47.2812 100.594 47.2812C101.667 47.2812 102.516 47.6354 103.141 48.3438C103.766 49.0469 104.078 49.9766 104.078 51.1328V51.9531H98.1797C98.2057 52.9583 98.4583 53.7215 98.9375 54.2423C99.4219 54.7631 100.102 55.0234 100.977 55.0234C101.898 55.0234 102.81 54.8307 103.711 54.4453V55.6017C103.253 55.7996 102.818 55.9401 102.406 56.0234C102 56.112 101.508 56.1562 100.93 56.1562ZM100.578 48.3673C99.8906 48.3673 99.3411 48.5912 98.9297 49.0392C98.5234 49.4871 98.2839 50.1068 98.2109 50.8984H102.688C102.688 50.0807 102.505 49.4557 102.141 49.0234C101.776 48.5859 101.255 48.3673 100.578 48.3673Z" fill="#1D1D1B"/>
<path d="M111.672 47.4375V52.9922C111.672 53.6901 111.831 54.2109 112.148 54.5547C112.466 54.8984 112.963 55.0703 113.641 55.0703C114.536 55.0703 115.19 54.8255 115.602 54.3359C116.018 53.8464 116.227 53.0469 116.227 51.9375V47.4375H117.523V56H116.453L116.266 54.8516H116.195C115.93 55.2734 115.56 55.5964 115.086 55.8203C114.617 56.0443 114.081 56.1562 113.477 56.1562C112.435 56.1562 111.654 55.9089 111.133 55.4141C110.617 54.9193 110.359 54.1276 110.359 53.0391V47.4375H111.672Z" fill="#1D1D1B"/>
<path d="M126.141 56V50.4609C126.141 49.763 125.982 49.2422 125.664 48.8984C125.346 48.5547 124.849 48.3828 124.172 48.3828C123.276 48.3828 122.62 48.625 122.203 49.1094C121.787 49.5938 121.578 50.3932 121.578 51.5078V56H120.281V47.4375H121.336L121.547 48.6094H121.609C121.875 48.1875 122.247 47.862 122.727 47.6328C123.206 47.3984 123.74 47.2812 124.328 47.2812C125.359 47.2812 126.135 47.5312 126.656 48.0312C127.177 48.526 127.438 49.3204 127.438 50.4142V56H126.141Z" fill="#1D1D1B"/>
<path d="M138.25 56.1562C137.693 56.1562 137.182 56.0548 136.719 55.8517C136.26 55.6433 135.875 55.3255 135.562 54.8984H135.469C135.531 55.3984 135.562 55.8724 135.562 56.3203V59.8438H134.266V47.4375H135.32L135.5 48.6094H135.562C135.896 48.1406 136.284 47.8021 136.727 47.5938C137.169 47.3854 137.677 47.2812 138.25 47.2812C139.385 47.2812 140.26 47.6693 140.875 48.4453C141.495 49.2214 141.805 50.3099 141.805 51.7109C141.805 53.1172 141.49 54.211 140.859 54.9923C140.234 55.7683 139.365 56.1562 138.25 56.1562ZM138.062 48.3828C137.188 48.3828 136.555 48.625 136.164 49.1094C135.773 49.5938 135.573 50.3646 135.562 51.4219V51.7109C135.562 52.9141 135.763 53.776 136.164 54.2969C136.565 54.8125 137.208 55.0703 138.094 55.0703C138.833 55.0703 139.411 54.7708 139.828 54.1719C140.25 53.5729 140.461 52.7474 140.461 51.6953C140.461 50.6276 140.25 49.81 139.828 49.2423C139.411 48.6694 138.823 48.3828 138.062 48.3828Z" fill="#1D1D1B"/>
<path d="M145.297 47.4375V52.9922C145.297 53.6901 145.456 54.2109 145.773 54.5547C146.091 54.8984 146.589 55.0703 147.266 55.0703C148.161 55.0703 148.815 54.8255 149.227 54.3359C149.643 53.8464 149.852 53.0469 149.852 51.9375V47.4375H151.148V56H150.078L149.891 54.8516H149.82C149.555 55.2734 149.185 55.5964 148.711 55.8203C148.242 56.0443 147.706 56.1562 147.102 56.1562C146.06 56.1562 145.279 55.9089 144.758 55.4141C144.242 54.9193 143.984 54.1276 143.984 53.0391V47.4375H145.297Z" fill="#1D1D1B"/>
<path d="M159.766 56V50.4609C159.766 49.763 159.607 49.2422 159.289 48.8984C158.971 48.5547 158.474 48.3828 157.797 48.3828C156.901 48.3828 156.245 48.625 155.828 49.1094C155.411 49.5938 155.203 50.3932 155.203 51.5078V56H153.906V47.4375H154.961L155.172 48.6094H155.234C155.5 48.1875 155.872 47.862 156.352 47.6328C156.831 47.3984 157.365 47.2812 157.953 47.2812C158.984 47.2812 159.76 47.5312 160.281 48.0312C160.802 48.526 161.062 49.3204 161.062 50.4142V56H159.766Z" fill="#1D1D1B"/>
<path d="M166.5 55.0859C166.729 55.0859 166.951 55.0703 167.164 55.0391C167.378 55.0026 167.547 54.9661 167.672 54.9297V55.9219C167.531 55.9896 167.323 56.0443 167.047 56.0859C166.776 56.1328 166.531 56.1562 166.312 56.1562C164.656 56.1562 163.828 55.2839 163.828 53.5391V48.4453H162.602V47.8203L163.828 47.2812L164.375 45.4531H165.125V47.4375H167.609V48.4453H165.125V53.4844C165.125 54 165.247 54.3958 165.492 54.6719C165.737 54.9479 166.073 55.0859 166.5 55.0859Z" fill="#1D1D1B"/>
<path d="M176.781 51.7109C176.781 53.1068 176.43 54.1979 175.727 54.9844C175.023 55.7656 174.052 56.1562 172.812 56.1562C172.047 56.1562 171.367 55.9767 170.773 55.6173C170.18 55.2579 169.721 54.7422 169.398 54.0703C169.076 53.3984 168.914 52.612 168.914 51.7109C168.914 50.3151 169.263 49.2292 169.961 48.4531C170.659 47.6719 171.628 47.2812 172.867 47.2812C174.065 47.2812 175.016 47.6798 175.719 48.4767C176.427 49.2735 176.781 50.3516 176.781 51.7109ZM170.258 51.7109C170.258 52.8047 170.477 53.638 170.914 54.2109C171.352 54.7839 171.995 55.0703 172.844 55.0703C173.693 55.0703 174.336 54.7865 174.773 54.2188C175.216 53.6458 175.438 52.8099 175.438 51.7109C175.438 50.6224 175.216 49.7969 174.773 49.2344C174.336 48.6667 173.688 48.3828 172.828 48.3828C171.979 48.3828 171.339 48.6615 170.906 49.2188C170.474 49.776 170.258 50.6068 170.258 51.7109Z" fill="#1D1D1B"/>
<path d="M188.484 56L188.227 54.7812H188.164C187.737 55.3177 187.31 55.6823 186.883 55.875C186.461 56.0625 185.932 56.1562 185.297 56.1562C184.448 56.1562 183.781 55.9375 183.297 55.5C182.818 55.0625 182.578 54.4401 182.578 53.6328C182.578 51.9036 183.961 50.9974 186.727 50.9141L188.18 50.8672V50.3359C188.18 49.6641 188.034 49.1693 187.742 48.8516C187.456 48.5286 186.995 48.3672 186.359 48.3672C185.646 48.3672 184.839 48.5859 183.938 49.0234L183.539 48.0312C183.961 47.8021 184.422 47.6224 184.922 47.4922C185.427 47.362 185.932 47.2969 186.438 47.2969C187.458 47.2969 188.214 47.5234 188.703 47.9766C189.198 48.4297 189.445 49.1562 189.445 50.1562V56H188.484ZM185.555 55.0859C186.362 55.0859 186.995 54.8646 187.453 54.4219C187.917 53.9792 188.148 53.3594 188.148 52.5625V51.7891L186.852 51.8438C185.82 51.8802 185.076 52.0417 184.617 52.3281C184.164 52.6094 183.938 53.0495 183.938 53.6484C183.938 54.1172 184.078 54.474 184.359 54.7188C184.646 54.9635 185.044 55.0859 185.555 55.0859Z" fill="#1D1D1B"/>
<path d="M203.672 51.7109C203.672 53.1068 203.32 54.1979 202.617 54.9844C201.914 55.7656 200.943 56.1562 199.703 56.1562C198.938 56.1562 198.258 55.9767 197.664 55.6173C197.07 55.2579 196.612 54.7422 196.289 54.0703C195.966 53.3984 195.805 52.612 195.805 51.7109C195.805 50.3151 196.154 49.2292 196.852 48.4531C197.549 47.6719 198.518 47.2812 199.758 47.2812C200.956 47.2812 201.906 47.6798 202.609 48.4767C203.318 49.2735 203.672 50.3516 203.672 51.7109ZM197.148 51.7109C197.148 52.8047 197.367 53.638 197.805 54.2109C198.242 54.7839 198.885 55.0703 199.734 55.0703C200.583 55.0703 201.227 54.7865 201.664 54.2188C202.107 53.6458 202.328 52.8099 202.328 51.7109C202.328 50.6224 202.107 49.7969 201.664 49.2344C201.227 48.6667 200.578 48.3828 199.719 48.3828C198.87 48.3828 198.229 48.6615 197.797 49.2188C197.365 49.776 197.148 50.6068 197.148 51.7109Z" fill="#1D1D1B"/>
<path d="M208.719 55.0859C208.948 55.0859 209.169 55.0703 209.383 55.0391C209.596 55.0026 209.766 54.9661 209.891 54.9297V55.9219C209.75 55.9896 209.542 56.0443 209.266 56.0859C208.995 56.1328 208.75 56.1562 208.531 56.1562C206.875 56.1562 206.047 55.2839 206.047 53.5391V48.4453H204.82V47.8203L206.047 47.2812L206.594 45.4531H207.344V47.4375H209.828V48.4453H207.344V53.4844C207.344 54 207.466 54.3958 207.711 54.6719C207.956 54.9479 208.292 55.0859 208.719 55.0859Z" fill="#1D1D1B"/>
<path d="M215.516 47.2812C215.896 47.2812 216.237 47.3125 216.539 47.375L216.359 48.5781C216.005 48.5 215.693 48.4609 215.422 48.4609C214.729 48.4609 214.135 48.7423 213.641 49.3048C213.151 49.8673 212.906 50.5677 212.906 51.4062V56H211.609V47.4375H212.68L212.828 49.0234H212.891C213.208 48.4661 213.591 48.0365 214.039 47.7344C214.487 47.4323 214.979 47.2812 215.516 47.2812Z" fill="#1D1D1B"/>
<path d="M225.531 51.7109C225.531 53.1068 225.18 54.1979 224.477 54.9844C223.773 55.7656 222.802 56.1562 221.562 56.1562C220.797 56.1562 220.117 55.9767 219.523 55.6173C218.93 55.2579 218.471 54.7422 218.148 54.0703C217.826 53.3984 217.664 52.612 217.664 51.7109C217.664 50.3151 218.013 49.2292 218.711 48.4531C219.409 47.6719 220.378 47.2812 221.617 47.2812C222.815 47.2812 223.766 47.6798 224.469 48.4767C225.177 49.2735 225.531 50.3516 225.531 51.7109ZM219.008 51.7109C219.008 52.8047 219.227 53.638 219.664 54.2109C220.102 54.7839 220.745 55.0703 221.594 55.0703C222.443 55.0703 223.086 54.7865 223.523 54.2188C223.966 53.6458 224.188 52.8099 224.188 51.7109C224.188 50.6224 223.966 49.7969 223.523 49.2344C223.086 48.6667 222.438 48.3828 221.578 48.3828C220.729 48.3828 220.089 48.6615 219.656 49.2188C219.224 49.776 219.008 50.6068 219.008 51.7109Z" fill="#1D1D1B"/>
<path d="M196.67 113.934C194.163 122.699 186.773 128.579 183.391 130.424L215.576 165.001C216.577 164.303 219.761 161.975 224.488 158.249C230.397 153.591 238.237 155.896 245.947 152.829C252.116 150.376 258.084 144.265 260.297 141.517C264.026 139.764 270.962 134.697 268.885 128.451C266.808 122.205 259.958 123.261 256.793 124.57C261.305 122.655 269.529 117.322 266.322 111.31C263.115 105.297 256.296 106.347 253.288 107.624C257.487 105.774 265.252 100.437 262.72 93.8925C260.188 87.3475 254.415 87.7561 251.845 88.7785L275.399 72.1264C279.246 69.3673 285.687 62.5374 280.675 57.2909C275.663 52.0443 269.162 55.4178 266.537 57.7604L225.825 88.7602C228.325 81.8618 230.956 74.4457 232.19 67.3183C233.512 59.6818 228.188 55.579 220.373 62.399C204.156 76.552 199.804 102.977 196.67 113.934Z" fill="#A1C9FF"/>
<path d="M187.449 122.772L177.999 131.5C157.031 126.684 137.499 136.356 117.122 152.553C94.5246 170.515 70 210 70 210H202.999C213.311 194.467 213.383 184.137 213.383 171.135L223.207 162.708L187.449 122.772Z" fill="#004079"/>
</svg>
