<svg width="320" height="210" viewBox="0 0 320 210" fill="none" xmlns="http://www.w3.org/2000/svg">
<path d="M320 0H0V210H320V0Z" fill="#E9F2FF"/>
<g clip-path="url(#clip0)">
<path d="M251.973 83H246.319V73.0059H251.973V74.3867H247.953V77.1074H251.72V78.4746H247.953V81.6123H251.973V83ZM260.62 83H259.007V78.3516C259.007 77.7682 258.888 77.333 258.651 77.0459C258.419 76.7588 258.048 76.6152 257.537 76.6152C256.858 76.6152 256.361 76.8158 256.047 77.2168C255.732 77.6178 255.575 78.29 255.575 79.2334V83H253.969V75.4395H255.227L255.452 76.4307H255.534C255.762 76.0706 256.086 75.7926 256.505 75.5967C256.924 75.4007 257.389 75.3027 257.899 75.3027C259.713 75.3027 260.62 76.2256 260.62 78.0713V83ZM264.578 83L261.707 75.4395H263.402L264.94 79.835C265.205 80.5732 265.364 81.1702 265.419 81.626H265.474C265.515 81.2979 265.674 80.7008 265.952 79.835L267.49 75.4395H269.199L266.314 83H264.578ZM271.954 83H270.348V75.4395H271.954V83ZM270.252 73.4365C270.252 73.1494 270.329 72.9284 270.484 72.7734C270.644 72.6185 270.869 72.541 271.161 72.541C271.444 72.541 271.662 72.6185 271.817 72.7734C271.977 72.9284 272.057 73.1494 272.057 73.4365C272.057 73.71 271.977 73.9264 271.817 74.0859C271.662 74.2409 271.444 74.3184 271.161 74.3184C270.869 74.3184 270.644 74.2409 270.484 74.0859C270.329 73.9264 270.252 73.71 270.252 73.4365ZM278.988 83L278.667 81.9473H278.612C278.248 82.4076 277.881 82.722 277.512 82.8906C277.143 83.0547 276.669 83.1367 276.09 83.1367C275.347 83.1367 274.766 82.9362 274.347 82.5352C273.932 82.1341 273.725 81.5667 273.725 80.833C273.725 80.0537 274.014 79.4658 274.593 79.0693C275.172 78.6729 276.053 78.4564 277.238 78.4199L278.544 78.3789V77.9756C278.544 77.4925 278.43 77.1325 278.202 76.8955C277.979 76.654 277.63 76.5332 277.156 76.5332C276.769 76.5332 276.397 76.5902 276.042 76.7041C275.687 76.818 275.345 76.9525 275.017 77.1074L274.497 75.959C274.907 75.7448 275.356 75.583 275.844 75.4736C276.331 75.3597 276.792 75.3027 277.225 75.3027C278.186 75.3027 278.911 75.5124 279.398 75.9316C279.891 76.3509 280.137 77.0094 280.137 77.9072V83H278.988ZM276.596 81.9062C277.179 81.9062 277.646 81.7445 277.997 81.4209C278.353 81.0928 278.53 80.6348 278.53 80.0469V79.3906L277.56 79.4316C276.803 79.459 276.252 79.5866 275.905 79.8145C275.563 80.0378 275.393 80.3818 275.393 80.8467C275.393 81.1839 275.493 81.446 275.693 81.6328C275.894 81.8151 276.195 81.9062 276.596 81.9062ZM286.214 75.3027C286.537 75.3027 286.804 75.3255 287.014 75.3711L286.856 76.8682C286.629 76.8135 286.392 76.7861 286.146 76.7861C285.503 76.7861 284.981 76.9958 284.58 77.415C284.184 77.8343 283.985 78.3789 283.985 79.0488V83H282.379V75.4395H283.637L283.849 76.7725H283.931C284.181 76.3213 284.507 75.9635 284.908 75.6992C285.314 75.4349 285.749 75.3027 286.214 75.3027Z" fill="#041C42"/>
<path d="M20 65C20 62.2386 22.2386 60 25 60H217C219.761 60 222 62.2386 222 65V90C222 92.7614 219.761 95 217 95H25C22.2386 95 20 92.7614 20 90V65Z" fill="white"/>
<path d="M232.5 65C232.5 62.5147 234.515 60.5 237 60.5H295C297.485 60.5 299.5 62.5147 299.5 65V90C299.5 92.4853 297.485 94.5 295 94.5H237C234.515 94.5 232.5 92.4853 232.5 90V65Z" stroke="#041C42"/>
<path d="M40.6123 83H35.5879L37.7002 73.0059H42.7246L42.5059 74.0518H38.6367L37.9668 77.2578H41.5693L41.3711 78.2969H37.7549L36.9756 81.9609H40.8379L40.6123 83Z" fill="#041C42"/>
<path d="M47.1884 80.874C47.1884 81.585 46.9355 82.141 46.4297 82.542C45.9284 82.9385 45.2196 83.1367 44.3036 83.1367C43.5334 83.1367 42.8385 82.9795 42.2188 82.665V81.585C42.5378 81.7764 42.8817 81.9245 43.2509 82.0293C43.62 82.1341 43.9619 82.1865 44.2764 82.1865C44.8505 82.1865 45.2834 82.0726 45.5751 81.8447C45.8668 81.6169 46.0126 81.3252 46.0126 80.9697C46.0126 80.71 45.9328 80.4912 45.7733 80.3135C45.6138 80.1357 45.2698 79.8919 44.7411 79.582C44.1487 79.2493 43.7295 78.9235 43.4834 78.6045C43.2373 78.2855 43.1143 77.9072 43.1143 77.4697C43.1143 76.8408 43.3444 76.335 43.8047 75.9521C44.265 75.5648 44.871 75.3711 45.6229 75.3711C46.4022 75.3711 47.1543 75.5397 47.8789 75.877L47.5098 76.8135L47.127 76.6426C46.6667 76.4466 46.1653 76.3486 45.6229 76.3486C45.1991 76.3486 44.8665 76.4489 44.625 76.6494C44.3835 76.8454 44.2626 77.1006 44.2626 77.415C44.2626 77.6702 44.3424 77.889 44.502 78.0713C44.666 78.2536 45.001 78.4883 45.5068 78.7754C45.9945 79.0488 46.3431 79.2835 46.5527 79.4795C46.7669 79.6755 46.9264 79.8874 47.0312 80.1152C47.1361 80.3385 47.1884 80.5915 47.1884 80.874Z" fill="#041C42"/>
<path d="M51.625 83.1367C50.7409 83.1367 50.055 82.8929 49.5674 82.4053C49.0798 81.9176 48.8359 81.2295 48.8359 80.3408C48.8359 79.4294 49.0046 78.5885 49.3418 77.8184C49.679 77.0482 50.1439 76.4489 50.7363 76.0205C51.3333 75.5876 52.0033 75.3711 52.7461 75.3711C53.3704 75.3711 53.9811 75.4873 54.5781 75.7197L54.2568 76.6836C53.71 76.4512 53.2109 76.335 52.7598 76.335C52.2493 76.335 51.7822 76.5104 51.3584 76.8613C50.9391 77.2077 50.6087 77.693 50.3672 78.3174C50.1302 78.9372 50.0117 79.6117 50.0117 80.3408C50.0117 80.9242 50.1621 81.3776 50.4629 81.7012C50.7682 82.0247 51.1875 82.1865 51.7207 82.1865C52.0488 82.1865 52.3587 82.141 52.6504 82.0498C52.9421 81.9587 53.2292 81.8516 53.5117 81.7285V82.7061C52.9466 82.9932 52.3177 83.1367 51.625 83.1367Z" fill="#041C42"/>
<path d="M59.6094 75.3711C59.9238 75.3711 60.1973 75.403 60.4297 75.4668L60.1836 76.4922C59.9421 76.4329 59.7028 76.4033 59.4658 76.4033C59.0511 76.4033 58.6615 76.54 58.2969 76.8135C57.9368 77.0869 57.6201 77.4674 57.3467 77.9551C57.0778 78.4382 56.8796 78.9759 56.752 79.5684L56.0205 83H54.8721L56.4717 75.5078H57.4219L57.2715 76.8955H57.3398C57.668 76.4626 57.9391 76.1527 58.1533 75.9658C58.3675 75.7744 58.5908 75.6286 58.8232 75.5283C59.0602 75.4235 59.3223 75.3711 59.6094 75.3711Z" fill="#041C42"/>
<path d="M61.5713 83H60.4229L62.0224 75.5078H63.1708L61.5713 83ZM62.3438 73.5938C62.3438 73.3385 62.4167 73.1312 62.5625 72.9717C62.7083 72.8076 62.8975 72.7256 63.1299 72.7256C63.5309 72.7256 63.7313 72.9307 63.7313 73.3408C63.7313 73.5915 63.654 73.8034 63.499 73.9766C63.3486 74.1497 63.1731 74.2363 62.9726 74.2363C62.7903 74.2363 62.64 74.1816 62.5215 74.0723C62.403 73.9583 62.3438 73.7988 62.3438 73.5938Z" fill="#041C42"/>
<path d="M67.2998 83.1367C66.8577 83.1367 66.4681 83.0205 66.1309 82.7881C65.7982 82.5557 65.5475 82.2389 65.3789 81.8379H65.3105L64.832 83H63.9775L66.2334 72.3633H67.3818C67.1494 73.4661 66.9694 74.3115 66.8418 74.8994C66.7188 75.4827 66.5479 76.1663 66.3291 76.9502H66.3906C66.8145 76.4124 67.2314 76.0182 67.6416 75.7676C68.0563 75.5124 68.4824 75.3848 68.9199 75.3848C69.5625 75.3848 70.0638 75.6104 70.4238 76.0615C70.7839 76.5127 70.9639 77.1325 70.9639 77.9209C70.9639 78.8734 70.8066 79.7552 70.4922 80.5664C70.1823 81.373 69.7471 82.0042 69.1865 82.46C68.6305 82.9111 68.0016 83.1367 67.2998 83.1367ZM68.5713 76.335C68.1338 76.335 67.6872 76.5514 67.2314 76.9844C66.7803 77.4173 66.4202 77.9619 66.1514 78.6182C65.887 79.2744 65.7549 79.9466 65.7549 80.6348C65.7549 81.1361 65.8802 81.5212 66.1309 81.79C66.3861 82.0544 66.7529 82.1865 67.2314 82.1865C67.6826 82.1865 68.1019 82.002 68.4893 81.6328C68.8812 81.2637 69.1956 80.7396 69.4326 80.0605C69.6696 79.377 69.7881 78.6523 69.7881 77.8867C69.7881 76.8522 69.3825 76.335 68.5713 76.335Z" fill="#041C42"/>
<path d="M75.0176 83.1367C74.179 83.1367 73.5205 82.8883 73.042 82.3916C72.5635 81.8949 72.3242 81.2067 72.3242 80.3271C72.3242 79.4704 72.4928 78.6501 72.8301 77.8662C73.1719 77.0778 73.623 76.4648 74.1836 76.0273C74.7441 75.5898 75.3617 75.3711 76.0361 75.3711C76.7334 75.3711 77.2575 75.5238 77.6084 75.8291C77.9593 76.1299 78.1348 76.5514 78.1348 77.0938C78.1348 77.9141 77.7565 78.5589 77 79.0283C76.2435 79.4932 75.1611 79.7256 73.7529 79.7256H73.5273L73.5 80.2725C73.5 80.8695 73.639 81.3366 73.917 81.6738C74.1995 82.0065 74.6348 82.1729 75.2227 82.1729C75.5098 82.1729 75.8037 82.1318 76.1045 82.0498C76.4098 81.9678 76.7881 81.8174 77.2393 81.5986V82.5967C76.8109 82.7972 76.4326 82.9362 76.1045 83.0137C75.7764 83.0957 75.4141 83.1367 75.0176 83.1367ZM75.9678 76.3486C75.4984 76.3486 75.0563 76.5628 74.6416 76.9912C74.2314 77.4196 73.917 78.0143 73.6982 78.7754H73.7803C74.8193 78.7754 75.6146 78.641 76.166 78.3721C76.722 78.0986 77 77.7044 77 77.1895C77 76.9479 76.9157 76.7474 76.7471 76.5879C76.583 76.4284 76.3232 76.3486 75.9678 76.3486Z" fill="#041C42"/>
<path d="M84.8955 82.2002C85.1462 82.2002 85.4743 82.141 85.8799 82.0225V82.9043C85.7249 82.9681 85.5335 83.0228 85.3057 83.0684C85.0778 83.1139 84.8955 83.1367 84.7588 83.1367C84.1891 83.1367 83.7516 83.0023 83.4463 82.7334C83.1455 82.46 82.9951 82.0544 82.9951 81.5166C82.9951 81.2158 83.0361 80.874 83.1182 80.4912L83.9863 76.376H82.8105L82.9062 75.877L84.1709 75.3438L85.0254 73.7852H85.6953L85.3193 75.5078H87.1924L87.0146 76.376H85.1484L84.2666 80.5049C84.1846 80.9014 84.1436 81.2021 84.1436 81.4072C84.1436 81.6624 84.2096 81.8584 84.3418 81.9951C84.474 82.1318 84.6585 82.2002 84.8955 82.2002Z" fill="#041C42"/>
<path d="M89.8174 75.5078L88.792 80.2588C88.71 80.6644 88.6689 80.9811 88.6689 81.209C88.6689 81.8607 89.0039 82.1865 89.6738 82.1865C90.0749 82.1865 90.4691 82.0498 90.8564 81.7764C91.2438 81.5029 91.5856 81.111 91.8818 80.6006C92.1781 80.0902 92.4036 79.4749 92.5586 78.7549L93.2422 75.5078H94.377L92.7979 83H91.8477L91.998 81.6123H91.916C91.4694 82.182 91.0433 82.5785 90.6377 82.8018C90.2321 83.0251 89.8128 83.1367 89.3799 83.1367C88.7966 83.1367 88.3385 82.9795 88.0059 82.665C87.6732 82.346 87.5068 81.8926 87.5068 81.3047C87.5068 81.0221 87.557 80.6302 87.6572 80.1289L88.6553 75.5078H89.8174Z" fill="#041C42"/>
<path d="M103.209 83L104.221 78.2695C104.303 77.8411 104.344 77.5335 104.344 77.3467C104.344 77.0277 104.273 76.7793 104.132 76.6016C103.991 76.4238 103.749 76.335 103.407 76.335C103.024 76.335 102.651 76.4717 102.286 76.7451C101.926 77.0186 101.607 77.4105 101.329 77.9209C101.056 78.4268 100.844 79.0374 100.693 79.7529L100.003 83H98.8545L100.454 75.5078H101.404L101.254 76.8955H101.322C101.719 76.3532 102.113 75.9635 102.505 75.7266C102.901 75.4896 103.309 75.3711 103.728 75.3711C104.243 75.3711 104.64 75.5192 104.918 75.8154C105.196 76.1117 105.36 76.5241 105.41 77.0527H105.465C105.857 76.4831 106.274 76.0615 106.716 75.7881C107.158 75.5101 107.604 75.3711 108.056 75.3711C108.634 75.3711 109.081 75.526 109.395 75.8359C109.714 76.1458 109.874 76.597 109.874 77.1895C109.874 77.4993 109.824 77.9049 109.724 78.4062L108.739 83H107.577L108.589 78.2695C108.68 77.7956 108.726 77.4629 108.726 77.2715C108.726 76.9889 108.646 76.7633 108.486 76.5947C108.331 76.4215 108.085 76.335 107.748 76.335C107.379 76.335 107.014 76.4671 106.654 76.7314C106.294 76.9958 105.977 77.3717 105.704 77.8594C105.435 78.3424 105.23 78.9167 105.089 79.582L104.357 83H103.209Z" fill="#041C42"/>
<path d="M115.028 75.3711C115.448 75.3711 115.821 75.485 116.149 75.7129C116.477 75.9362 116.733 76.2598 116.915 76.6836H116.99L117.448 75.5078H118.316L116.724 83H115.814L115.992 81.5713H115.937C115.122 82.6149 114.263 83.1367 113.36 83.1367C112.727 83.1367 112.23 82.9111 111.87 82.46C111.51 82.0088 111.33 81.3913 111.33 80.6074C111.33 79.6595 111.492 78.7799 111.815 77.9688C112.139 77.1576 112.586 76.5218 113.155 76.0615C113.725 75.6012 114.349 75.3711 115.028 75.3711ZM113.729 82.1865C114.171 82.1865 114.611 81.9769 115.049 81.5576C115.486 81.1338 115.842 80.5846 116.115 79.9102C116.389 79.2311 116.525 78.5521 116.525 77.873C116.525 77.4036 116.398 77.0299 116.143 76.752C115.887 76.474 115.552 76.335 115.138 76.335C114.664 76.335 114.222 76.5309 113.811 76.9229C113.406 77.3148 113.087 77.8457 112.854 78.5156C112.622 79.1855 112.506 79.8919 112.506 80.6348C112.506 81.1543 112.613 81.5439 112.827 81.8037C113.041 82.0589 113.342 82.1865 113.729 82.1865Z" fill="#041C42"/>
<path d="M120.128 83H118.979L120.579 75.5078H121.728L120.128 83ZM120.9 73.5938C120.9 73.3385 120.973 73.1312 121.119 72.9717C121.265 72.8076 121.454 72.7256 121.687 72.7256C122.088 72.7256 122.288 72.9307 122.288 73.3408C122.288 73.5915 122.211 73.8034 122.056 73.9766C121.905 74.1497 121.73 74.2363 121.529 74.2363C121.347 74.2363 121.197 74.1816 121.078 74.0723C120.96 73.9583 120.9 73.7988 120.9 73.5938Z" fill="#041C42"/>
<path d="M123.669 83H122.521L124.79 72.3633H125.938L123.669 83Z" fill="#041C42"/>
<path d="M133.69 75.3711C134.11 75.3711 134.483 75.485 134.812 75.7129C135.14 75.9362 135.395 76.2598 135.577 76.6836H135.652L136.11 75.5078H136.979L135.386 83H134.477L134.654 81.5713H134.6C133.784 82.6149 132.925 83.1367 132.022 83.1367C131.389 83.1367 130.892 82.9111 130.532 82.46C130.172 82.0088 129.992 81.3913 129.992 80.6074C129.992 79.6595 130.154 78.7799 130.478 77.9688C130.801 77.1576 131.248 76.5218 131.817 76.0615C132.387 75.6012 133.011 75.3711 133.69 75.3711ZM132.392 82.1865C132.834 82.1865 133.273 81.9769 133.711 81.5576C134.148 81.1338 134.504 80.5846 134.777 79.9102C135.051 79.2311 135.188 78.5521 135.188 77.873C135.188 77.4036 135.06 77.0299 134.805 76.752C134.549 76.474 134.215 76.335 133.8 76.335C133.326 76.335 132.884 76.5309 132.474 76.9229C132.068 77.3148 131.749 77.8457 131.517 78.5156C131.284 79.1855 131.168 79.8919 131.168 80.6348C131.168 81.1543 131.275 81.5439 131.489 81.8037C131.703 82.0589 132.004 82.1865 132.392 82.1865Z" fill="#041C42"/>
<path d="M141.62 75.3711C142.049 75.3711 142.424 75.4873 142.748 75.7197C143.076 75.9476 143.325 76.2689 143.493 76.6836H143.582L144.04 75.5078H144.895L142.598 86.3633H141.463L142.153 83.082C142.194 82.877 142.324 82.3734 142.543 81.5713H142.488C142.055 82.1227 141.634 82.5215 141.224 82.7676C140.813 83.0137 140.39 83.1367 139.952 83.1367C139.314 83.1367 138.813 82.9157 138.448 82.4736C138.088 82.027 137.908 81.4049 137.908 80.6074C137.908 79.6413 138.072 78.748 138.4 77.9277C138.733 77.1074 139.18 76.4762 139.74 76.0342C140.305 75.5921 140.932 75.3711 141.62 75.3711ZM140.308 82.1865C140.727 82.1865 141.16 81.9769 141.606 81.5576C142.053 81.1383 142.413 80.5983 142.687 79.9375C142.965 79.2767 143.104 78.5931 143.104 77.8867C143.104 77.4082 142.978 77.0299 142.728 76.752C142.481 76.474 142.135 76.335 141.688 76.335C141.228 76.335 140.798 76.5286 140.396 76.916C139.995 77.2988 139.676 77.8298 139.439 78.5088C139.202 79.1833 139.084 79.8919 139.084 80.6348C139.084 81.6693 139.492 82.1865 140.308 82.1865Z" fill="#041C42"/>
<path d="M148.401 75.5078L147.376 80.2588C147.294 80.6644 147.253 80.9811 147.253 81.209C147.253 81.8607 147.588 82.1865 148.258 82.1865C148.659 82.1865 149.053 82.0498 149.44 81.7764C149.828 81.5029 150.17 81.111 150.466 80.6006C150.762 80.0902 150.988 79.4749 151.143 78.7549L151.826 75.5078H152.961L151.382 83H150.432L150.582 81.6123H150.5C150.053 82.182 149.627 82.5785 149.222 82.8018C148.816 83.0251 148.397 83.1367 147.964 83.1367C147.381 83.1367 146.923 82.9795 146.59 82.665C146.257 82.346 146.091 81.8926 146.091 81.3047C146.091 81.0221 146.141 80.6302 146.241 80.1289L147.239 75.5078H148.401Z" fill="#041C42"/>
<path d="M154.95 83H153.802L155.401 75.5078H156.55L154.95 83ZM155.613 74.332C155.868 74.0586 156.153 73.7145 156.468 73.2998C156.787 72.8805 157.031 72.5387 157.199 72.2744H158.498V72.418C158.325 72.6413 158.006 72.9854 157.541 73.4502C157.076 73.915 156.673 74.2705 156.331 74.5166H155.613V74.332Z" fill="#041C42"/>
<path d="M20.5 20C20.5 17.5147 22.5147 15.5 25 15.5H295C297.485 15.5 299.5 17.5147 299.5 20V45C299.5 47.4853 297.485 49.5 295 49.5H25C22.5147 49.5 20.5 47.4853 20.5 45V20Z" stroke="#041C42"/>
<path d="M130.128 35.2861C130.128 36.1748 129.807 36.8721 129.164 37.3779C128.521 37.8838 127.635 38.1367 126.505 38.1367C125.375 38.1367 124.45 37.9613 123.729 37.6104V36.0654C124.185 36.2796 124.668 36.4482 125.179 36.5713C125.694 36.6943 126.172 36.7559 126.614 36.7559C127.261 36.7559 127.738 36.6328 128.043 36.3867C128.353 36.1406 128.508 35.8102 128.508 35.3955C128.508 35.0218 128.367 34.7051 128.084 34.4453C127.801 34.1855 127.218 33.8779 126.334 33.5225C125.423 33.1533 124.78 32.7318 124.406 32.2578C124.033 31.7839 123.846 31.2142 123.846 30.5488C123.846 29.7148 124.142 29.0586 124.734 28.5801C125.327 28.1016 126.122 27.8623 127.12 27.8623C128.077 27.8623 129.03 28.0719 129.978 28.4912L129.458 29.8242C128.569 29.4505 127.776 29.2637 127.079 29.2637C126.55 29.2637 126.149 29.3799 125.876 29.6123C125.603 29.8402 125.466 30.1432 125.466 30.5215C125.466 30.7812 125.521 31.0046 125.63 31.1914C125.739 31.3737 125.919 31.5469 126.17 31.7109C126.421 31.875 126.872 32.0915 127.523 32.3604C128.257 32.6657 128.795 32.9505 129.137 33.2148C129.479 33.4792 129.729 33.7777 129.889 34.1104C130.048 34.443 130.128 34.835 130.128 35.2861Z" fill="#041C42"/>
<path d="M133.498 38H131.892V30.4395H133.498V38ZM131.81 29.5166V29.3457C132.069 29.0267 132.336 28.6712 132.609 28.2793C132.887 27.8874 133.106 27.5524 133.266 27.2744H135.132V27.418C134.895 27.696 134.539 28.056 134.065 28.498C133.596 28.9355 133.2 29.2751 132.876 29.5166H131.81Z" fill="#041C42"/>
<path d="M137.47 36.5303C137.251 37.3779 136.85 38.4694 136.267 39.8047H135.084C135.398 38.5742 135.633 37.4303 135.788 36.373H137.367L137.47 36.5303Z" fill="#041C42"/>
<path d="M147.915 38L147.594 36.9473H147.539C147.174 37.4076 146.808 37.722 146.438 37.8906C146.069 38.0547 145.595 38.1367 145.017 38.1367C144.274 38.1367 143.693 37.9362 143.273 37.5352C142.859 37.1341 142.651 36.5667 142.651 35.833C142.651 35.0537 142.941 34.4658 143.52 34.0693C144.098 33.6729 144.98 33.4564 146.165 33.4199L147.471 33.3789V32.9756C147.471 32.4925 147.357 32.1325 147.129 31.8955C146.906 31.654 146.557 31.5332 146.083 31.5332C145.696 31.5332 145.324 31.5902 144.969 31.7041C144.613 31.818 144.271 31.9525 143.943 32.1074L143.424 30.959C143.834 30.7448 144.283 30.583 144.771 30.4736C145.258 30.3597 145.718 30.3027 146.151 30.3027C147.113 30.3027 147.838 30.5124 148.325 30.9316C148.817 31.3509 149.063 32.0094 149.063 32.9072V38H147.915ZM145.522 36.9062C146.106 36.9062 146.573 36.7445 146.924 36.4209C147.279 36.0928 147.457 35.6348 147.457 35.0469V34.3906L146.486 34.4316C145.73 34.459 145.178 34.5866 144.832 34.8145C144.49 35.0378 144.319 35.3818 144.319 35.8467C144.319 36.1839 144.42 36.446 144.62 36.6328C144.821 36.8151 145.121 36.9062 145.522 36.9062Z" fill="#041C42"/>
<path d="M153.028 38L150.157 30.4395H151.853L153.391 34.835C153.655 35.5732 153.814 36.1702 153.869 36.626H153.924C153.965 36.2979 154.124 35.7008 154.402 34.835L155.94 30.4395H157.649L154.765 38H153.028Z" fill="#041C42"/>
<path d="M160.404 38H158.798V30.4395H160.404V38ZM158.716 29.5166V29.3457C158.976 29.0267 159.242 28.6712 159.516 28.2793C159.794 27.8874 160.012 27.5524 160.172 27.2744H162.038V27.418C161.801 27.696 161.446 28.056 160.972 28.498C160.502 28.9355 160.106 29.2751 159.782 29.5166H158.716Z" fill="#041C42"/>
<path d="M167.787 35.8467C167.787 36.585 167.518 37.1523 166.98 37.5488C166.443 37.9408 165.673 38.1367 164.67 38.1367C163.663 38.1367 162.854 37.984 162.243 37.6787V36.291C163.132 36.7012 163.959 36.9062 164.725 36.9062C165.714 36.9062 166.208 36.6077 166.208 36.0107C166.208 35.8193 166.153 35.6598 166.044 35.5322C165.935 35.4046 165.755 35.2725 165.504 35.1357C165.253 34.999 164.905 34.8441 164.458 34.6709C163.588 34.3337 162.997 33.9964 162.688 33.6592C162.382 33.3219 162.229 32.8844 162.229 32.3467C162.229 31.6995 162.489 31.1982 163.009 30.8428C163.533 30.4827 164.244 30.3027 165.142 30.3027C166.03 30.3027 166.871 30.4827 167.664 30.8428L167.145 32.0527C166.329 31.7155 165.643 31.5469 165.087 31.5469C164.239 31.5469 163.815 31.7884 163.815 32.2715C163.815 32.5085 163.925 32.709 164.144 32.873C164.367 33.0371 164.85 33.2627 165.593 33.5498C166.217 33.7913 166.671 34.0124 166.953 34.2129C167.236 34.4134 167.445 34.6458 167.582 34.9102C167.719 35.1699 167.787 35.4821 167.787 35.8467Z" fill="#041C42"/>
<path d="M174.261 38L173.939 36.9473H173.885C173.52 37.4076 173.153 37.722 172.784 37.8906C172.415 38.0547 171.941 38.1367 171.362 38.1367C170.619 38.1367 170.038 37.9362 169.619 37.5352C169.204 37.1341 168.997 36.5667 168.997 35.833C168.997 35.0537 169.286 34.4658 169.865 34.0693C170.444 33.6729 171.326 33.4564 172.511 33.4199L173.816 33.3789V32.9756C173.816 32.4925 173.702 32.1325 173.475 31.8955C173.251 31.654 172.903 31.5332 172.429 31.5332C172.041 31.5332 171.67 31.5902 171.314 31.7041C170.959 31.818 170.617 31.9525 170.289 32.1074L169.77 30.959C170.18 30.7448 170.629 30.583 171.116 30.4736C171.604 30.3597 172.064 30.3027 172.497 30.3027C173.459 30.3027 174.183 30.5124 174.671 30.9316C175.163 31.3509 175.409 32.0094 175.409 32.9072V38H174.261ZM171.868 36.9062C172.451 36.9062 172.919 36.7445 173.27 36.4209C173.625 36.0928 173.803 35.6348 173.803 35.0469V34.3906L172.832 34.4316C172.076 34.459 171.524 34.5866 171.178 34.8145C170.836 35.0378 170.665 35.3818 170.665 35.8467C170.665 36.1839 170.765 36.446 170.966 36.6328C171.166 36.8151 171.467 36.9062 171.868 36.9062Z" fill="#041C42"/>
<path d="M184.022 38H182.409V33.3379C182.409 32.7591 182.3 32.3285 182.081 32.0459C181.862 31.7588 181.521 31.6152 181.056 31.6152C180.436 31.6152 179.98 31.818 179.688 32.2236C179.401 32.6247 179.258 33.2946 179.258 34.2334V38H177.651V30.4395H178.909L179.135 31.4307H179.217C179.426 31.0706 179.729 30.7926 180.126 30.5967C180.527 30.4007 180.967 30.3027 181.445 30.3027C182.607 30.3027 183.378 30.6992 183.756 31.4922H183.865C184.089 31.1185 184.403 30.8268 184.809 30.6172C185.214 30.4076 185.679 30.3027 186.203 30.3027C187.105 30.3027 187.762 30.5306 188.172 30.9863C188.587 31.4421 188.794 32.137 188.794 33.0713V38H187.188V33.3379C187.188 32.7591 187.076 32.3285 186.853 32.0459C186.634 31.7588 186.292 31.6152 185.827 31.6152C185.203 31.6152 184.745 31.8112 184.453 32.2031C184.166 32.5905 184.022 33.1875 184.022 33.9941V38Z" fill="#041C42"/>
<path d="M194.338 38.1367C193.162 38.1367 192.242 37.7949 191.576 37.1113C190.915 36.4232 190.585 35.4775 190.585 34.2744C190.585 33.0394 190.893 32.0687 191.508 31.3623C192.123 30.6559 192.968 30.3027 194.044 30.3027C195.042 30.3027 195.83 30.6058 196.409 31.2119C196.988 31.818 197.277 32.652 197.277 33.7139V34.582H192.239C192.262 35.3158 192.46 35.8809 192.834 36.2773C193.208 36.6693 193.734 36.8652 194.413 36.8652C194.86 36.8652 195.274 36.8242 195.657 36.7422C196.045 36.6556 196.459 36.5143 196.901 36.3184V37.624C196.509 37.8109 196.113 37.943 195.712 38.0205C195.311 38.098 194.853 38.1367 194.338 38.1367ZM194.044 31.5195C193.534 31.5195 193.123 31.6813 192.813 32.0049C192.508 32.3285 192.326 32.8001 192.267 33.4199H195.698C195.689 32.7956 195.539 32.3239 195.247 32.0049C194.955 31.6813 194.554 31.5195 194.044 31.5195Z" fill="#041C42"/>
<path d="M87.2624 129.616C88.4785 129.737 91.6405 129.981 92.8262 132.264C93.4901 133.542 92.2485 136.434 91.6405 137.104C91.1844 137.621 90.6736 138.985 92.2789 140.3C93.6142 141.394 93.9482 141.679 93.9528 141.691C94.2835 141.924 94.698 142.556 93.9207 143.405C92.9174 144.501 91.6405 145.779 91.6405 146.693C91.6405 147.423 92.0661 148.154 92.2789 148.428C92.7046 148.732 93.3005 149.578 92.2789 150.528C91.2574 151.478 90.5155 152.628 90.2723 153.085C89.8467 153.633 88.6853 154.4 87.4448 153.085C86.2044 151.77 84.4957 152.842 83.7964 153.542C83.0971 154.242 81.4979 155.131 80.6953 153.085L87.2624 129.616Z" fill="#155D9C"/>
<path d="M108.182 117.64C108.091 117.548 104.068 113.782 105.622 110.475C106.468 108.676 107.639 108.835 109.005 109.649C109.584 107.385 111.887 101.398 112.663 100.464C113.577 99.3615 114.948 100.464 114.765 101.29C114.686 101.649 113.668 106.71 113.12 109.19C113.729 108.118 114.125 107.536 115.405 107.536C116.542 107.536 116.839 109.138 116.868 110.019C117.386 109.467 118.66 108.491 119.611 109.006C120.348 109.404 120.255 110.782 120.019 111.853C120.371 111.363 121.331 110.457 122.355 110.751C123.379 111.045 122.964 113.323 122.629 114.425C122.233 115.435 121.111 117.125 119.794 115.803C119.154 116.874 117.545 119.054 116.228 119.201L108.182 117.64Z" fill="#A1C9FF"/>
<path d="M107.056 112.042C107.398 113.04 111.439 115.742 112.558 112.57C113.024 115.478 108.025 115.354 107.056 112.042Z" fill="#5581BC"/>
<path d="M119.749 115.784C119.524 115.603 119.134 115.025 119.374 114.157C119.099 114.639 118.789 115.639 119.749 115.784Z" fill="#4E75AA"/>
<path d="M119.26 114.19C117.917 114.982 115.856 114.894 115.677 112.692C114.96 113.837 116.753 116.568 119.26 114.19Z" fill="#466A99"/>
<path d="M30.6517 175.073C39.8113 162.2 54.8025 162.395 61.1531 164.101H67.9313C81.4875 166.808 91.2882 161.206 94.4941 158.067C97.6694 154.714 103.434 145.413 101.089 135.026C98.8889 125.281 103.236 121.642 106.127 120.878L106.401 116.923L117.851 119.026L117.027 122.286C119.734 124.054 120.899 126.723 121.148 128.535C122.034 130.394 122.504 137.97 117.301 153.404C112.099 168.837 94.9826 177.999 87.0748 180.65L93.5781 210H46.681L48.9709 180.65C40.8372 188.257 38.4985 203.386 38.3458 210H20.0266C19.7518 203.721 21.4921 187.947 30.6517 175.073Z" fill="#041C42"/>
<path d="M120.784 127.09C112.542 121.78 104.1 124.693 100.909 126.813C100.253 129.542 100.636 132.129 100.909 133.081C109.078 127.698 118.11 131.023 121.605 133.358C121.969 129.966 121.21 127.766 120.784 127.09Z" fill="#004079"/>
<path d="M120.887 140.253C112.91 136.507 104.755 139.304 101.676 141.171C101.895 142.493 101.34 145.15 101.035 146.313C107.915 142.346 116.221 145.027 119.515 146.864L120.887 140.253Z" fill="#004079"/>
<path d="M115.68 157.277C111.795 151.142 102.761 151.008 98.7289 151.708L96.8047 155.36C103.842 154.849 109.022 161.416 110.732 164.763C113.225 161.769 115.07 158.525 115.68 157.277Z" fill="#004079"/>
<path d="M102.825 172.067C102.172 164.985 96.6892 160.233 94.0293 158.742L90.9463 160.841C95.9517 165.222 97.0217 172.766 96.931 175.991C98.5269 175.188 101.525 173.04 102.825 172.067Z" fill="#004079"/>
<path d="M80.207 164.504C83.6423 168.442 86.3284 176.84 87.242 180.547L89.8916 179.545C91.061 172.252 87.6989 165.567 85.8716 163.136C83.2403 164.157 80.9988 164.473 80.207 164.504Z" fill="#004079"/>
<path d="M45.8502 164.438C44.1535 170.896 47.1105 178.014 48.8012 180.766L46.6802 183.151C40.9997 178.307 39.764 170.247 39.8562 166.823C43.1022 165.135 45.2047 164.53 45.8502 164.438Z" fill="#004079"/>
<path d="M31.76 174.039C33.8034 180.68 41.3688 184.59 44.896 185.715L41.7945 192.101C32.1614 189.619 27.807 184.134 26.834 181.701C29.5342 176.739 31.243 174.525 31.76 174.039Z" fill="#004079"/>
<path d="M39.8525 199.388C30.9593 199.534 24.6325 194.699 22.5807 192.263C21.3312 197.305 20.7739 200.879 20.6514 202.036C25.7962 206.64 34.8608 206.573 38.75 205.964L39.8525 199.388Z" fill="#004079"/>
<path d="M87.1036 180.873C69.1229 187.995 54.212 183.932 49.0955 180.964L48.6387 185.921C64.0612 194.585 81.3171 188.919 88.0173 185.003L87.1036 180.873Z" fill="#004079"/>
<path d="M89.1859 189.985C67.1167 204.864 48.3442 194.302 47.9779 193.935L47.3369 202.936C68.7284 212.194 85.6451 203.762 91.109 198.435L89.1859 189.985Z" fill="#004079"/>
<path d="M54.3939 132.602C59.114 130.069 72.1721 124.398 87.7394 129.672C88.318 135.196 87.045 150.31 76.2283 158.881C76.0086 158.881 72.4851 158.815 67.8234 157.069L69.2852 164.649C65.4116 167.213 61.8852 165.718 60.6062 164.649L57.6828 150.915L53.8457 144.872L54.3939 132.602Z" fill="#A1C9FF"/>
<path d="M70.0585 130.352L70.4281 131.611C70.5205 132.33 70.2433 132.87 68.8572 132.96C66.2744 133.127 62.1113 135.148 60.3555 136.287C60.4294 134.705 60.9407 133.949 61.1872 133.769C63.5898 131.341 66.6393 130.352 68.2103 129.902C69.4671 129.542 69.9661 130.052 70.0585 130.352Z" fill="#041C42"/>
<path d="M82.1294 129.145C82.6695 129.414 84.0515 130.514 84.6008 131.245C83.5939 131.153 82.7378 130.985 81.9463 130.879C77.8663 130.336 76.3206 131.472 75.6307 131.701C74.2577 134.257 77.0974 141.133 77.5529 142.382C77.919 143.387 78.3767 144.299 78.3767 144.299C78.3767 144.299 79.3103 146.071 77.919 146.582C76.5277 147.093 74.4103 146.795 73.5255 146.582L73.5237 146.581C73.2493 146.515 72.8848 146.428 72.8848 146.034C72.8848 145.64 73.0679 145.304 73.5255 145.395C74.9562 145.68 76.8206 145.76 77.5529 145.486C77.0952 144.665 76.1799 141.816 75.0815 138.092C73.9832 134.367 73.8916 130.971 74.4152 129.693C74.6066 129.17 75.1405 128.986 75.4477 128.962L77.0037 128.597C80.2073 128.232 81.3971 128.78 82.1294 129.145Z" fill="#041C42"/>
<path d="M69.1614 164.441C64.7643 165.53 61.4665 164.592 60.3672 163.987L58.0771 163.624C58.5351 164.985 60.4772 167.635 64.5811 167.345C68.6851 167.054 70.1996 165.409 70.4439 164.622L69.1614 164.441Z" fill="#004079"/>
<path d="M58.6752 134.79C59.0395 133.326 57.4304 131.832 56.5803 131.405L50.5687 134.607C49.5364 135.156 47.4172 136.785 47.1986 138.175C46.98 139.566 48.322 141.256 49.0203 141.926C49.4757 142.445 50.2408 143.665 49.6579 144.397C48.9292 145.312 49.0203 146.043 49.1114 146.775C49.1843 147.361 50.1133 148.3 50.5687 148.697C50.9331 149.093 51.516 150.197 50.9331 151.441C50.3502 152.686 51.4796 152.805 52.0261 152.722C52.7547 152.612 53.7559 151.622 54.2121 152.722C54.6675 153.82 55.6998 154.186 56.307 154.186C58.493 154.186 58.4323 152.692 58.1287 151.716C57.9579 151.167 57.4729 150.344 58.1287 149.246C58.7845 148.148 57.3697 146.897 56.5803 146.409C56.0641 145.952 55.3415 144.781 56.5803 143.756C57.819 142.732 57.7947 142.079 57.6733 141.835C57.5518 141.591 56.981 140.81 55.6694 139.639C54.3578 138.468 55.7302 137.443 56.5803 137.077C57.1268 136.925 58.3109 136.254 58.6752 134.79Z" fill="#155D9C"/>
<path d="M59.2827 111.597C61.8144 110.236 60.9636 114.557 60.5634 115.15L55.71 118.127C54.9084 118.393 53.0057 118.512 51.8078 116.866C50.61 115.22 52.036 114.879 52.8988 114.914C52.555 114.55 52.0748 113.506 52.9043 112.244C53.7337 110.982 54.7078 111.57 55.0912 112.022C55.0749 111.257 55.5182 109.696 57.4209 109.577C59.3236 109.458 59.4549 110.874 59.2827 111.597Z" fill="#004079"/>
<path d="M61.8193 154.024C63.0518 155.123 66.3205 156.498 67.8008 157.047L68.979 163.462L61.8193 154.024Z" fill="#7796C0"/>
<path d="M59.9516 114.567C78.4718 109.284 85.4833 118.515 87.0016 122.596L50.9782 130.482C50.0454 121.279 55.5676 115.818 59.9516 114.567Z" fill="#041C42"/>
<path d="M91.2188 127.876C90.94 126.578 88.7557 125.977 87.6983 125.839C90.1398 125.223 89.6974 123.764 89.171 123.112C87.4927 121.993 81.2586 120.25 69.7494 122.227C58.2401 124.204 52.5602 127.928 51.1589 129.543C50.2974 130.428 48.7386 132.366 49.3956 133.036C50.0527 133.705 51.0666 133.173 51.4914 132.823L50.6818 133.918C49.4308 136.107 50.6429 136.561 51.4053 136.514C55.1907 134.504 64.0844 130.276 69.3763 129.445C75.9912 128.406 88.5973 130.167 89.4081 129.992C90.219 129.818 91.5673 129.497 91.2188 127.876Z" fill="#004079"/>
<path d="M109.009 109.601C109.758 109.929 111.426 110.746 112.101 111.39C111.851 110.794 110.883 109.601 109.009 109.601Z" fill="#40608A"/>
<path d="M115.681 112.599C114.3 113.787 112.827 113.239 112.643 111.228C112.275 112.69 113.839 115.066 115.681 112.599Z" fill="#40608A"/>
<path d="M68.4705 148.773C70.762 151.422 73.669 150.762 74.8361 150.101C75.3119 149.764 76.3598 149.166 76.7453 149.471C77.1307 149.776 76.9729 150.173 76.8459 150.334C76.5681 150.619 75.4834 151.303 73.3672 151.76C71.2511 152.216 69.1384 151.251 68.3466 150.712C67.5784 150.209 66.1945 149.009 66.8044 148.238C67.4144 147.467 68.1693 148.274 68.4705 148.773Z" fill="#041C42"/>
<path d="M66.5647 136.5C66.283 135.119 67.1167 134.489 67.5687 134.346C67.9001 134.24 68.5816 134.448 68.6567 136.131C68.7319 137.815 68.1379 138.202 67.8316 138.185C67.5266 138.199 66.8463 137.881 66.5647 136.5Z" fill="#041C42"/>
<path d="M78.1877 134.532C77.906 133.151 78.7397 132.521 79.1917 132.379C79.5231 132.272 80.2047 132.48 80.2798 134.164C80.355 135.847 79.761 136.234 79.4547 136.217C79.1497 136.231 78.4694 135.913 78.1877 134.532Z" fill="#041C42"/>
</g>
<defs>
<clipPath id="clip0">
<rect width="280" height="195" fill="white" transform="translate(20 15)"/>
</clipPath>
</defs>
</svg>
