<svg width="320" height="210" viewBox="0 0 320 210" fill="none" xmlns="http://www.w3.org/2000/svg">
<path d="M320 0H0V210H320V0Z" fill="#E9F2FF"/>
<g clip-path="url(#clip0)">
<g filter="url(#filter0_d)">
<path d="M100 129C130.376 129 155 104.376 155 74C155 43.6243 130.376 19 100 19C69.6243 19 45 43.6243 45 74C45 104.376 69.6243 129 100 129Z" fill="#041C42"/>
<path fill-rule="evenodd" clip-rule="evenodd" d="M117 66C117 80 100 92 100 92C100 92 83 80 83 66C83 56.0589 90.6112 48 100 48C109.389 48 117 56.0589 117 66Z" fill="#F6C254" stroke="#F6C254" stroke-width="2" stroke-linecap="round" stroke-linejoin="round"/>
<path fill-rule="evenodd" clip-rule="evenodd" d="M100.167 71.3333C103.572 71.3333 106.333 68.5724 106.333 65.1667C106.333 61.7609 103.572 59 100.167 59C96.7609 59 94 61.7609 94 65.1667C94 68.5724 96.7609 71.3333 100.167 71.3333Z" fill="#041C42"/>
<path d="M100 100C105.523 100 110 99.1046 110 98C110 96.8954 105.523 96 100 96C94.4772 96 90 96.8954 90 98C90 99.1046 94.4772 100 100 100Z" fill="#F6C254"/>
</g>
<path d="M265.826 134.483C254.315 105.706 238.91 103.871 228.987 106.848L215.343 105.732C209.1 101.886 198.428 99.3553 186.62 109.477C174.811 119.598 166.273 141.224 162.635 155.405C160.526 162.227 152.939 176.328 165.697 182.962C168.154 184.24 172.395 185.22 175.393 185.734L172.841 209.549H265.826L263.593 181.633C271.332 167.653 274.261 155.571 265.826 134.483Z" fill="#041C42"/>
<path d="M260.616 30.3781C253.675 25.4791 247.858 28.3368 245.816 30.3781C235.61 14.5582 221.321 9.96489 201.929 17.6202C186.318 23.7828 174.542 68.8221 170.8 91.1059H274.904C273.033 72.9046 267.556 35.2772 260.616 30.3781Z" fill="#155D9C"/>
<path d="M253.174 65.6676C251.388 61.897 248.13 64.0965 246.724 65.6676L253.174 39.3721L212.614 25.8523L206.041 33.2944C192.645 50.5353 190.784 86.3815 211.374 91.9631C212.94 92.3876 217.448 92.7459 218.94 92.8314L215.467 106.227C223.108 110.296 230.145 108.542 232.708 107.343L241.718 77.451C242.97 75.6715 243.986 73.9673 244.74 72.4896C245.732 76.5579 248.791 75.5905 250.197 74.5982C251.933 73.1925 254.96 69.4383 253.174 65.6676Z" fill="#A1C9FF"/>
<path d="M229.867 59.0475C229.075 57.2265 227.768 56.7124 226.41 57.8033C225.052 58.8942 225.032 62.4854 227.1 62.8349C229.169 63.1844 230.66 60.8684 229.867 59.0475Z" fill="#041C42"/>
<path d="M210.734 51.9023C209.95 50.1099 208.655 49.6055 207.306 50.6822C205.958 51.7588 205.933 55.2962 207.984 55.6373C210.034 55.9783 211.517 53.6948 210.734 51.9023Z" fill="#041C42"/>
<path d="M210.519 43.3095C215.935 41.8181 219.233 43.7142 219.987 47.2006C220.742 50.6871 215.947 58.1229 212.17 61.6675C210.817 62.9367 210.13 64.0618 209.806 64.9843C209.2 66.7054 210.055 68.7026 211.596 69.6796C214.452 71.4906 219.224 70.9172 220.424 70.6573C221.947 70.3277 221.633 68.2871 220.064 68.6269C219.192 68.8156 218.451 69.3185 215.611 69.1346C213.589 69.0036 212.257 68.1932 211.705 67.1328C210.651 65.1074 213.095 63.2074 214.628 61.515C219.03 56.653 222.734 50.0307 221.951 46.4141C220.705 40.658 215.316 39.0826 212.822 39.2239C211.118 39.3272 207.504 40.0131 207.442 41.9829C207.391 43.5881 209.376 43.5567 210.519 43.3095Z" fill="#041C42"/>
<path d="M230.306 49.215C230.134 49.186 229.949 49.1834 229.759 49.1923C227.88 49.2799 227.126 46.7911 228.855 46.0524C230.455 45.3693 233.242 45.9188 236.429 47.5481C241.022 49.8959 242.152 51.8889 241.257 53.2783C239.385 55.6763 237.537 53.2192 236.528 52.2419C235.183 50.9389 233.022 49.6737 230.306 49.215Z" fill="#041C42"/>
<path d="M226.63 197.518C226.829 194.045 223.488 192.35 221.793 191.936L224.646 183.75L240.895 191.44C242.796 193.631 246.427 198.857 245.732 202.231C245.037 205.605 243.458 204.05 242.755 202.851C241.465 198.386 238.001 194.375 236.43 192.928C238.414 200.246 236.678 203.719 236.43 205.208C236.181 206.696 232.833 207.937 233.205 202.851C233.502 198.783 231.84 195.285 230.972 194.045C232.832 200.246 229.98 204.96 228.367 204.712C226.755 204.464 226.382 201.859 226.63 197.518Z" fill="#A1C9FF"/>
<path d="M228.491 184.494C240.994 193.821 257.267 186.561 263.841 181.765V185.858C258.483 190.919 246.972 192.267 241.887 192.308C238.331 192.101 229.905 190.373 224.646 185.114C219.387 179.855 214.764 167.46 213.111 161.919C212.408 159.356 210.779 151.649 209.886 141.329C208.993 131.01 212.16 123.386 213.855 120.864C215.881 117.639 222.116 112.231 230.848 116.398C241.763 121.608 244.74 129.918 248.585 140.089C252.43 150.26 250.321 158.074 250.321 158.942C250.321 159.637 249.825 159.976 249.577 160.059C248.957 160.1 247.741 159.811 247.841 158.322C247.94 156.834 247.965 153.154 247.965 151.5C247.667 144.654 243.789 134.59 241.887 130.414C239.82 126.032 233.328 117.341 223.902 117.639C214.475 117.936 211.953 130.58 211.87 136.864C212.201 148.854 215.988 175.166 228.491 184.494Z" fill="#123060"/>
<path d="M236.801 95.3124C237.893 102.457 233.532 108.129 231.464 110.073H219.433L221.79 104.987C220.053 108.46 217.816 108.212 216.208 107.096C212.458 104.491 213.777 98.19 216.953 92.8317C220.128 87.4734 226.297 91.5913 228.488 93.824C224.891 86.754 219.929 83.6531 221.79 80.9243C223.531 78.3709 226.71 79.9734 227.868 80.9243C230.224 82.7435 235.71 88.168 236.801 95.3124Z" fill="#A1C9FF"/>
<path d="M232.161 111.48L232.308 117.341L234.331 118.45L234.425 109.68L216.041 109.728L215.338 119.579L217.448 117.55L217.792 111.624L232.161 111.48Z" fill="#123060"/>
<path d="M173.171 157.95C188.949 147.333 206.826 156.131 213.483 161.671L212.863 157.95C210.68 156.362 206.247 154.312 204.304 153.485C191.156 149.019 186.567 150.632 182.722 151.252L190.908 124.957C191.405 123.923 192.099 121.781 190.908 121.484C189.718 121.186 189.172 122.021 189.048 122.476C188.056 125.701 186.021 132.448 185.823 133.639C185.625 134.83 181.606 146.454 179.621 152.117C176.953 153.077 174.037 154.529 172.551 155.345C171.807 155.717 170.443 156.71 170.939 157.702C171.435 158.694 172.634 158.281 173.171 157.95Z" fill="#123060"/>
<path d="M218.817 175.067C218.982 179.821 217.551 189.529 210.506 190.323C203.461 191.117 184.252 187.76 175.528 185.982L175.404 188.462C182.722 190.034 200.087 193.3 210.506 192.804C211.909 192.698 213.742 192.058 215.467 190.794C217.438 191.767 219.348 192.126 220.057 192.184C220.842 192.39 222.661 192.308 223.654 190.323C224.646 188.338 224.977 185.444 225.018 184.245L222.909 181.516C223.116 183.212 223.182 187.098 221.793 189.083C220.404 191.067 218.255 189.91 217.354 189.083C219.488 186.7 221.046 183.096 220.676 178.043L218.817 175.067Z" fill="#123060"/>
<path d="M217.135 78.2331C216.524 75.8044 214.781 75.2568 213.986 75.2865C212.841 75.3294 210.608 77.1081 211.219 79.7511C211.829 82.3941 213.413 82.4298 214.177 82.4298C215.513 82.4298 217.746 80.6619 217.135 78.2331Z" fill="#041C42"/>
<path d="M226.631 81.7922C229.111 83.0822 234.362 90.5987 236.677 94.1958L237.298 91.9631C235.437 88.4901 230.724 82.9085 227.623 80.3038C224.522 77.6991 222.041 79.4356 220.801 80.5519C219.561 81.6682 219.437 84.645 221.173 86.1335C221.968 86.8152 223.57 88.9282 225.109 91.066C220.698 88.7587 217.682 91.5813 216.832 93.0794C220.651 90.3885 225.002 92.2473 227.277 94.1389C228.128 95.3643 228.747 96.2741 228.863 96.4284C229.235 96.9245 230.476 96.8005 230.352 95.4361C230.228 94.0717 223.158 86.2575 222.041 84.645C221.148 83.3551 221.917 81.9576 222.413 81.4201C222.785 81.0067 224.15 80.5022 226.631 81.7922Z" fill="#80AAE3"/>
<path d="M220.801 104.243C221.198 105.83 219.891 107.22 219.188 107.716L220.305 108.088C221.694 106.798 221.214 104.987 220.801 104.243Z" fill="#80AAE3"/>
<path d="M220.305 99.2813C217.576 98.0409 215.467 99.2813 214.103 100.025C216.088 95.4362 221.421 96.9246 223.778 99.2813C224.481 99.8188 225.688 101.043 224.894 101.638C223.902 102.382 224.31 101.102 220.305 99.2813Z" fill="#80AAE3"/>
<path d="M220.801 95.4361C219.188 95.2211 217.328 95.5601 215.219 96.1803C216.584 94.1958 218.94 93.0794 221.421 93.5756C222.413 93.774 224.894 95.188 226.01 96.4284C226.879 97.0899 228.317 98.2393 227.623 99.0331C226.928 99.827 225.928 98.8264 225.638 98.537C224.563 97.5034 222.657 95.6836 220.801 95.4361Z" fill="#80AAE3"/>
<path d="M247.858 48.7488C242.55 44.6662 241.564 39.7332 241.734 36.5012C237.141 33.4393 224.894 31.9083 218.259 35.4805C210.376 39.7255 196.316 51.3004 191.213 51.3004L214.177 19.1504L253.982 38.5424L249.899 63.0377L239.182 74.7749C244.286 67.8006 253.165 52.8313 247.858 48.7488Z" fill="#155D9C"/>
</g>
<defs>
<filter id="filter0_d" x="42" y="16" width="116" height="116" filterUnits="userSpaceOnUse" color-interpolation-filters="sRGB">
<feFlood flood-opacity="0" result="BackgroundImageFix"/>
<feColorMatrix in="SourceAlpha" type="matrix" values="0 0 0 0 0 0 0 0 0 0 0 0 0 0 0 0 0 0 127 0"/>
<feOffset/>
<feGaussianBlur stdDeviation="1.5"/>
<feColorMatrix type="matrix" values="0 0 0 0 0.0392157 0 0 0 0 0.188235 0 0 0 0 0.333333 0 0 0 0.1 0"/>
<feBlend mode="normal" in2="BackgroundImageFix" result="effect1_dropShadow"/>
<feBlend mode="normal" in="SourceGraphic" in2="effect1_dropShadow" result="shape"/>
</filter>
<clipPath id="clip0">
<rect width="233" height="196" fill="white" transform="translate(42 14)"/>
</clipPath>
</defs>
</svg>
