<svg width="320" height="210" viewBox="0 0 320 210" fill="none" xmlns="http://www.w3.org/2000/svg">
<path d="M320 0H0V210H320V0Z" fill="#E9F2FF"/>
<path d="M176.281 22.8552C176.281 18.8268 179.546 15.561 183.575 15.561H296.392C300.42 15.561 303.686 18.8268 303.686 22.8552V188.191C303.686 192.219 300.42 195.485 296.392 195.485H183.575C179.546 195.485 176.281 192.219 176.281 188.191V22.8552Z" fill="#041C42"/>
<path d="M201.081 53.0044C208.063 53.0044 213.724 47.3438 213.724 40.3611C213.724 33.3784 208.063 27.7178 201.081 27.7178C194.098 27.7178 188.438 33.3784 188.438 40.3611C188.438 47.3438 194.098 53.0044 201.081 53.0044Z" fill="#D8E8FF"/>
<path d="M201.081 85.5854C208.063 85.5854 213.724 79.9248 213.724 72.9421C213.724 65.9594 208.063 60.2988 201.081 60.2988C194.098 60.2988 188.438 65.9594 188.438 72.9421C188.438 79.9248 194.098 85.5854 201.081 85.5854Z" fill="#D8E8FF"/>
<path d="M201.081 118.166C208.063 118.166 213.724 112.505 213.724 105.523C213.724 98.54 208.063 92.8794 201.081 92.8794C194.098 92.8794 188.438 98.54 188.438 105.523C188.438 112.505 194.098 118.166 201.081 118.166Z" fill="#D8E8FF"/>
<path d="M201.081 150.748C208.063 150.748 213.724 145.087 213.724 138.104C213.724 131.122 208.063 125.461 201.081 125.461C194.098 125.461 188.438 131.122 188.438 138.104C188.438 145.087 194.098 150.748 201.081 150.748Z" fill="#D8E8FF"/>
<path d="M201.081 183.327C208.063 183.327 213.724 177.667 213.724 170.684C213.724 163.701 208.063 158.041 201.081 158.041C194.098 158.041 188.438 163.701 188.438 170.684C188.438 177.667 194.098 183.327 201.081 183.327Z" fill="#D8E8FF"/>
<path d="M202.992 48.2019H199.69V39.1625L199.722 37.6773L199.776 36.0532C199.227 36.6017 198.846 36.9614 198.633 37.1324L196.837 38.5748L195.245 36.5874L200.278 32.5806H202.992V48.2019Z" fill="#041C42"/>
<path d="M206.451 80.7641H195.531V78.4669L199.453 74.5028C200.614 73.3132 201.372 72.4905 201.729 72.0346C202.085 71.5716 202.341 71.1442 202.498 70.7524C202.655 70.3606 202.733 69.9546 202.733 69.5343C202.733 68.9075 202.558 68.4409 202.209 68.1346C201.867 67.8283 201.408 67.6752 200.831 67.6752C200.226 67.6752 199.638 67.8141 199.068 68.0919C198.498 68.3697 197.903 68.765 197.284 69.2779L195.489 67.1516C196.258 66.4963 196.895 66.0332 197.401 65.7626C197.907 65.4919 198.459 65.2853 199.057 65.1428C199.656 64.9933 200.325 64.9185 201.066 64.9185C202.042 64.9185 202.904 65.0965 203.652 65.4527C204.4 65.8089 204.98 66.3075 205.393 66.9486C205.807 67.5897 206.013 68.3234 206.013 69.1497C206.013 69.8691 205.885 70.5458 205.629 71.1798C205.379 71.8066 204.987 72.4513 204.453 73.1138C203.926 73.7762 202.993 74.72 201.654 75.9452L199.645 77.8365V77.9861H206.451V80.7641Z" fill="#041C42"/>
<path d="M206.085 101.218C206.085 102.194 205.79 103.024 205.199 103.707C204.607 104.391 203.777 104.861 202.709 105.118V105.182C203.97 105.339 204.924 105.723 205.572 106.336C206.221 106.941 206.545 107.761 206.545 108.793C206.545 110.296 206 111.468 204.91 112.309C203.82 113.142 202.264 113.559 200.241 113.559C198.545 113.559 197.042 113.278 195.732 112.715V109.905C196.337 110.211 197.003 110.46 197.73 110.653C198.456 110.845 199.176 110.941 199.888 110.941C200.978 110.941 201.783 110.756 202.303 110.385C202.823 110.015 203.083 109.42 203.083 108.601C203.083 107.867 202.784 107.347 202.185 107.041C201.587 106.735 200.633 106.582 199.322 106.582H198.136V104.049H199.343C200.554 104.049 201.437 103.893 201.993 103.579C202.556 103.259 202.837 102.714 202.837 101.944C202.837 100.762 202.096 100.171 200.615 100.171C200.102 100.171 199.578 100.256 199.044 100.427C198.517 100.598 197.929 100.894 197.281 101.314L195.753 99.0381C197.178 98.0123 198.877 97.4995 200.85 97.4995C202.467 97.4995 203.742 97.8271 204.675 98.4825C205.615 99.1378 206.085 100.05 206.085 101.218Z" fill="#041C42"/>
<path d="M206.291 142.707H204.41V145.944H201.183V142.707H194.516V140.41L201.365 130.323H204.41V140.143H206.291V142.707ZM201.183 140.143V137.493C201.183 137.051 201.201 136.41 201.237 135.569C201.272 134.729 201.301 134.241 201.322 134.106H201.237C200.973 134.69 200.656 135.26 200.286 135.815L197.422 140.143H201.183Z" fill="#041C42"/>
<path d="M201.467 168.303C202.977 168.303 204.177 168.726 205.068 169.574C205.965 170.422 206.414 171.583 206.414 173.057C206.414 174.802 205.876 176.145 204.801 177.085C203.725 178.026 202.186 178.496 200.185 178.496C198.447 178.496 197.043 178.215 195.975 177.652V174.799C196.538 175.098 197.193 175.344 197.941 175.536C198.689 175.721 199.398 175.814 200.067 175.814C202.083 175.814 203.091 174.988 203.091 173.335C203.091 171.761 202.047 170.974 199.96 170.974C199.583 170.974 199.166 171.013 198.71 171.091C198.254 171.162 197.884 171.241 197.599 171.326L196.285 170.621L196.872 162.661H205.345V165.46H199.768L199.479 168.527L199.853 168.452C200.288 168.352 200.826 168.303 201.467 168.303Z" fill="#041C42"/>
<path d="M224.537 40.4399H225.264C225.943 40.4399 226.451 40.3069 226.788 40.041C227.125 39.7703 227.294 39.3785 227.294 38.8656C227.294 38.348 227.151 37.9657 226.866 37.7188C226.586 37.4719 226.145 37.3484 225.542 37.3484H224.537V40.4399ZM229.523 38.7873C229.523 39.908 229.172 40.7652 228.469 41.3588C227.771 41.9524 226.776 42.2492 225.485 42.2492H224.537V45.9533H222.329V35.5391H225.656C226.919 35.5391 227.878 35.8121 228.533 36.3583C229.193 36.8996 229.523 37.7093 229.523 38.7873Z" fill="#D8E8FF"/>
<path d="M234.617 39.386C234.156 39.386 233.795 39.5333 233.534 39.8277C233.273 40.1174 233.123 40.5305 233.085 41.0671H236.134C236.124 40.5305 235.984 40.1174 235.714 39.8277C235.443 39.5333 235.077 39.386 234.617 39.386ZM234.923 46.0961C233.641 46.0961 232.639 45.7424 231.917 45.0348C231.195 44.3272 230.834 43.3252 230.834 42.0288C230.834 40.6943 231.167 39.6638 231.831 38.9373C232.501 38.206 233.425 37.8403 234.602 37.8403C235.728 37.8403 236.604 38.1608 237.231 38.8019C237.858 39.443 238.171 40.3287 238.171 41.4589V42.5131H233.035C233.059 43.1305 233.242 43.6125 233.584 43.9592C233.926 44.3058 234.405 44.4792 235.023 44.4792C235.502 44.4792 235.956 44.4293 236.383 44.3296C236.811 44.2299 237.257 44.0708 237.722 43.8523V45.5334C237.342 45.7234 236.936 45.8634 236.504 45.9537C236.072 46.0487 235.545 46.0961 234.923 46.0961ZM233.363 37.1137V36.9214C234.18 35.9716 234.738 35.2569 235.037 34.7773H237.473V34.9269C237.226 35.1738 236.803 35.5419 236.205 36.031C235.611 36.5154 235.146 36.8763 234.809 37.1137H233.363Z" fill="#D8E8FF"/>
<path d="M245.494 43.5888C245.494 44.4056 245.209 45.0277 244.639 45.4551C244.074 45.8824 243.226 46.0961 242.096 46.0961C241.517 46.0961 241.023 46.0558 240.614 45.975C240.206 45.8991 239.824 45.7851 239.468 45.6331V43.8381C239.871 44.028 240.325 44.1871 240.828 44.3153C241.336 44.4435 241.783 44.5077 242.167 44.5077C242.956 44.5077 243.35 44.2797 243.35 43.8238C243.35 43.6529 243.297 43.5152 243.193 43.4107C243.089 43.3015 242.908 43.1804 242.652 43.0474C242.395 42.9097 242.053 42.7506 241.626 42.5701C241.013 42.3137 240.562 42.0763 240.272 41.8578C239.988 41.6394 239.779 41.39 239.646 41.1099C239.517 40.8249 239.453 40.4759 239.453 40.0628C239.453 39.3552 239.726 38.8091 240.272 38.4244C240.823 38.035 241.602 37.8403 242.609 37.8403C243.568 37.8403 244.501 38.0492 245.408 38.4671L244.753 40.0343C244.354 39.8633 243.981 39.7232 243.635 39.614C243.288 39.5048 242.934 39.4502 242.573 39.4502C241.932 39.4502 241.612 39.6235 241.612 39.9701C241.612 40.1649 241.714 40.3334 241.918 40.4759C242.127 40.6184 242.58 40.8297 243.278 41.1099C243.901 41.3616 244.356 41.5966 244.646 41.8151C244.936 42.0335 245.149 42.2852 245.287 42.5701C245.425 42.8551 245.494 43.1946 245.494 43.5888Z" fill="#D8E8FF"/>
<path d="M247.097 35.931C247.097 35.2234 247.491 34.8696 248.279 34.8696C249.067 34.8696 249.461 35.2234 249.461 35.931C249.461 36.2681 249.362 36.5317 249.162 36.7216C248.968 36.9069 248.673 36.9995 248.279 36.9995C247.491 36.9995 247.097 36.6433 247.097 35.931ZM249.362 45.9534H247.189V37.9896H249.362V45.9534Z" fill="#D8E8FF"/>
<path d="M258.779 45.9537H256.606V41.3022C256.606 40.7276 256.509 40.2978 256.314 40.0129C256.124 39.7232 255.822 39.5784 255.409 39.5784C254.854 39.5784 254.45 39.7826 254.198 40.191C253.947 40.5994 253.821 41.2713 253.821 42.2068V45.9537H251.648V37.9899H253.308L253.6 39.0085H253.721C253.935 38.6428 254.244 38.3579 254.647 38.1537C255.051 37.9448 255.514 37.8403 256.036 37.8403C257.228 37.8403 258.035 38.2297 258.458 39.0085H258.65C258.864 38.6381 259.178 38.3508 259.591 38.1466C260.009 37.9424 260.479 37.8403 261.001 37.8403C261.903 37.8403 262.585 38.073 263.045 38.5384C263.511 38.999 263.744 39.7398 263.744 40.7608V45.9537H261.564V41.3022C261.564 40.7276 261.466 40.2978 261.272 40.0129C261.082 39.7232 260.78 39.5784 260.367 39.5784C259.835 39.5784 259.436 39.7683 259.17 40.1482C258.909 40.5281 258.779 41.1312 258.779 41.9575V45.9537Z" fill="#D8E8FF"/>
<path d="M267.711 41.9575C267.711 42.7458 267.839 43.3418 268.096 43.7455C268.357 44.1491 268.78 44.3509 269.364 44.3509C269.943 44.3509 270.359 44.1515 270.61 43.7526C270.867 43.3489 270.995 42.7506 270.995 41.9575C270.995 41.1692 270.867 40.578 270.61 40.1838C270.354 39.7897 269.934 39.5926 269.35 39.5926C268.77 39.5926 268.352 39.7897 268.096 40.1838C267.839 40.5733 267.711 41.1645 267.711 41.9575ZM273.217 41.9575C273.217 43.254 272.876 44.2678 272.192 44.9992C271.508 45.7305 270.556 46.0961 269.335 46.0961C268.571 46.0961 267.896 45.9299 267.312 45.5975C266.728 45.2603 266.279 44.7783 265.966 44.1515C265.653 43.5246 265.496 42.7933 265.496 41.9575C265.496 40.6564 265.835 39.6449 266.514 38.923C267.194 38.2012 268.148 37.8403 269.378 37.8403C270.143 37.8403 270.817 38.0065 271.401 38.3389C271.985 38.6713 272.434 39.1486 272.747 39.7707C273.061 40.3928 273.217 41.1217 273.217 41.9575Z" fill="#D8E8FF"/>
<path d="M226.738 78.5343L224.231 70.364H224.167C224.257 72.0261 224.302 73.1349 224.302 73.6905V78.5343H222.329V68.1201H225.335L227.8 76.0839H227.842L230.457 68.1201H233.463V78.5343H231.404V73.605C231.404 73.3724 231.406 73.104 231.411 72.8001C231.421 72.4962 231.454 71.6889 231.511 70.3782H231.447L228.761 78.5343H226.738Z" fill="#D8E8FF"/>
<path d="M240.978 78.5343L240.557 77.4516H240.5C240.135 77.9122 239.757 78.2328 239.368 78.4132C238.983 78.5889 238.48 78.6768 237.858 78.6768C237.093 78.6768 236.49 78.4584 236.048 78.0215C235.611 77.5846 235.393 76.9625 235.393 76.1552C235.393 75.3099 235.687 74.6878 236.276 74.2889C236.87 73.8852 237.763 73.662 238.955 73.6193L240.337 73.5766V73.2275C240.337 72.4202 239.923 72.0166 239.097 72.0166C238.461 72.0166 237.713 72.2089 236.853 72.5935L236.134 71.1262C237.05 70.6465 238.067 70.4067 239.183 70.4067C240.251 70.4067 241.07 70.6394 241.64 71.1048C242.21 71.5702 242.495 72.2778 242.495 73.2275V78.5343H240.978ZM240.337 74.8445L239.496 74.873C238.864 74.892 238.394 75.006 238.086 75.2149C237.777 75.4239 237.623 75.742 237.623 76.1694C237.623 76.782 237.974 77.0883 238.677 77.0883C239.18 77.0883 239.581 76.9435 239.881 76.6538C240.185 76.3641 240.337 75.9795 240.337 75.4998V74.8445Z" fill="#D8E8FF"/>
<path d="M246.911 78.5344H244.739V67.4507H246.911V78.5344Z" fill="#D8E8FF"/>
<path d="M250.929 74.5381C250.929 75.3264 251.057 75.9224 251.313 76.326C251.575 76.7297 251.997 76.9315 252.581 76.9315C253.161 76.9315 253.576 76.7321 253.828 76.3332C254.084 75.9295 254.213 75.3311 254.213 74.5381C254.213 73.7498 254.084 73.1586 253.828 72.7644C253.572 72.3703 253.151 72.1732 252.567 72.1732C251.988 72.1732 251.57 72.3703 251.313 72.7644C251.057 73.1538 250.929 73.745 250.929 74.5381ZM256.435 74.5381C256.435 75.8345 256.093 76.8484 255.409 77.5797C254.726 78.311 253.773 78.6767 252.553 78.6767C251.788 78.6767 251.114 78.5105 250.53 78.1781C249.946 77.8409 249.497 77.3589 249.184 76.7321C248.87 76.1052 248.713 75.3739 248.713 74.5381C248.713 73.2369 249.053 72.2254 249.732 71.5036C250.411 70.7818 251.366 70.4209 252.596 70.4209C253.36 70.4209 254.035 70.5871 254.619 70.9195C255.203 71.2519 255.652 71.7292 255.965 72.3513C256.278 72.9734 256.435 73.7023 256.435 74.5381Z" fill="#D8E8FF"/>
<path d="M224.537 105.324H225.25C225.948 105.324 226.463 105.208 226.795 104.975C227.128 104.742 227.294 104.377 227.294 103.878C227.294 103.384 227.123 103.033 226.781 102.824C226.444 102.615 225.919 102.51 225.207 102.51H224.537V105.324ZM224.537 107.119V111.115H222.329V100.701H225.363C226.779 100.701 227.826 100.96 228.505 101.478C229.184 101.99 229.523 102.772 229.523 103.821C229.523 104.434 229.355 104.98 229.018 105.459C228.681 105.934 228.203 106.307 227.586 106.578C229.153 108.919 230.174 110.431 230.649 111.115H228.199L225.713 107.119H224.537Z" fill="#D8E8FF"/>
<path d="M235.087 104.548C234.626 104.548 234.265 104.695 234.004 104.989C233.743 105.279 233.593 105.692 233.555 106.229H236.604C236.594 105.692 236.454 105.279 236.184 104.989C235.913 104.695 235.547 104.548 235.087 104.548ZM235.393 111.258C234.111 111.258 233.109 110.904 232.387 110.196C231.665 109.489 231.304 108.487 231.304 107.19C231.304 105.856 231.637 104.825 232.302 104.099C232.971 103.368 233.895 103.002 235.072 103.002C236.198 103.002 237.074 103.322 237.701 103.964C238.328 104.605 238.641 105.49 238.641 106.621V107.675H233.505C233.529 108.292 233.712 108.774 234.054 109.121C234.396 109.467 234.875 109.641 235.493 109.641C235.972 109.641 236.426 109.591 236.853 109.491C237.281 109.391 237.727 109.232 238.192 109.014V110.695C237.813 110.885 237.407 111.025 236.974 111.115C236.542 111.21 236.015 111.258 235.393 111.258Z" fill="#D8E8FF"/>
<path d="M247.339 103.152V104.256L246.092 104.576C246.32 104.932 246.434 105.331 246.434 105.773C246.434 106.628 246.135 107.295 245.537 107.774C244.943 108.249 244.117 108.487 243.058 108.487L242.666 108.465L242.345 108.43C242.122 108.601 242.011 108.791 242.011 109C242.011 109.313 242.409 109.47 243.207 109.47H244.561C245.434 109.47 246.099 109.657 246.555 110.033C247.016 110.408 247.246 110.959 247.246 111.685C247.246 112.616 246.857 113.338 246.078 113.851C245.304 114.363 244.19 114.62 242.737 114.62C241.626 114.62 240.776 114.425 240.187 114.036C239.603 113.651 239.311 113.11 239.311 112.412C239.311 111.932 239.46 111.531 239.76 111.208C240.059 110.885 240.498 110.655 241.077 110.517C240.854 110.422 240.659 110.268 240.493 110.054C240.327 109.835 240.244 109.605 240.244 109.363C240.244 109.059 240.332 108.807 240.508 108.608C240.683 108.404 240.937 108.204 241.27 108.01C240.852 107.829 240.519 107.539 240.272 107.141C240.03 106.742 239.909 106.271 239.909 105.73C239.909 104.861 240.192 104.189 240.757 103.714C241.322 103.239 242.129 103.002 243.179 103.002C243.402 103.002 243.665 103.023 243.969 103.066C244.278 103.104 244.475 103.133 244.561 103.152H247.339ZM241.191 112.241C241.191 112.54 241.334 112.775 241.619 112.946C241.908 113.117 242.312 113.202 242.83 113.202C243.608 113.202 244.219 113.096 244.66 112.882C245.102 112.668 245.323 112.376 245.323 112.006C245.323 111.707 245.192 111.5 244.931 111.386C244.67 111.272 244.266 111.215 243.72 111.215H242.595C242.196 111.215 241.861 111.308 241.59 111.493C241.324 111.683 241.191 111.932 241.191 112.241ZM241.982 105.759C241.982 106.191 242.079 106.533 242.274 106.784C242.474 107.036 242.775 107.162 243.179 107.162C243.587 107.162 243.886 107.036 244.076 106.784C244.266 106.533 244.361 106.191 244.361 105.759C244.361 104.799 243.967 104.32 243.179 104.32C242.381 104.32 241.982 104.799 241.982 105.759Z" fill="#D8E8FF"/>
<path d="M254.298 111.115L254.006 110.096H253.892C253.659 110.467 253.329 110.754 252.902 110.958C252.475 111.158 251.988 111.258 251.442 111.258C250.506 111.258 249.801 111.008 249.326 110.51C248.851 110.006 248.614 109.284 248.614 108.344V103.151H250.786V107.803C250.786 108.377 250.888 108.81 251.093 109.099C251.297 109.384 251.622 109.527 252.069 109.527C252.676 109.527 253.116 109.325 253.386 108.921C253.657 108.513 253.792 107.838 253.792 106.898V103.151H255.965V111.115H254.298Z" fill="#D8E8FF"/>
<path d="M260.417 111.115H258.244V100.031H260.417V111.115Z" fill="#D8E8FF"/>
<path d="M267.761 111.115L267.341 110.032H267.284C266.918 110.493 266.541 110.813 266.151 110.994C265.767 111.17 265.263 111.257 264.641 111.257C263.877 111.257 263.273 111.039 262.832 110.602C262.395 110.165 262.176 109.543 262.176 108.736C262.176 107.891 262.471 107.268 263.06 106.869C263.653 106.466 264.546 106.243 265.738 106.2L267.12 106.157V105.808C267.12 105.001 266.707 104.597 265.881 104.597C265.244 104.597 264.496 104.79 263.637 105.174L262.917 103.707C263.834 103.227 264.85 102.987 265.966 102.987C267.034 102.987 267.854 103.22 268.424 103.685C268.993 104.151 269.278 104.858 269.278 105.808V111.115H267.761ZM267.12 107.425L266.279 107.454C265.648 107.473 265.178 107.587 264.869 107.796C264.56 108.005 264.406 108.323 264.406 108.75C264.406 109.363 264.757 109.669 265.46 109.669C265.964 109.669 266.365 109.524 266.664 109.234C266.968 108.945 267.12 108.56 267.12 108.08V107.425Z" fill="#D8E8FF"/>
<path d="M275.967 103.002C276.261 103.002 276.506 103.023 276.701 103.066L276.537 105.103C276.361 105.056 276.147 105.032 275.896 105.032C275.202 105.032 274.661 105.21 274.272 105.566C273.887 105.922 273.695 106.421 273.695 107.062V111.115H271.522V103.152H273.168L273.488 104.491H273.595C273.842 104.044 274.174 103.686 274.592 103.415C275.015 103.14 275.473 103.002 275.967 103.002Z" fill="#D8E8FF"/>
<path d="M222.329 133.282H225.57C227.047 133.282 228.118 133.493 228.783 133.916C229.452 134.334 229.787 135.001 229.787 135.917C229.787 136.539 229.64 137.05 229.345 137.449C229.056 137.848 228.669 138.088 228.184 138.168V138.24C228.844 138.387 229.319 138.662 229.609 139.066C229.903 139.469 230.051 140.006 230.051 140.676C230.051 141.625 229.706 142.366 229.018 142.898C228.334 143.43 227.403 143.696 226.225 143.696H222.329V133.282ZM224.537 137.406H225.819C226.418 137.406 226.85 137.313 227.116 137.128C227.386 136.943 227.522 136.637 227.522 136.209C227.522 135.81 227.375 135.526 227.08 135.355C226.791 135.179 226.33 135.091 225.698 135.091H224.537V137.406ZM224.537 139.158V141.872H225.976C226.584 141.872 227.033 141.756 227.322 141.523C227.612 141.291 227.757 140.934 227.757 140.455C227.757 139.591 227.14 139.158 225.905 139.158H224.537Z" fill="#D8E8FF"/>
<path d="M237.601 143.696L237.309 142.677H237.195C236.963 143.048 236.632 143.335 236.205 143.539C235.778 143.739 235.291 143.838 234.745 143.838C233.809 143.838 233.104 143.589 232.629 143.09C232.154 142.587 231.917 141.865 231.917 140.925V135.732H234.089V140.384C234.089 140.958 234.192 141.39 234.396 141.68C234.6 141.965 234.925 142.107 235.372 142.107C235.979 142.107 236.419 141.906 236.689 141.502C236.96 141.094 237.095 140.419 237.095 139.479V135.732H239.268V143.696H237.601Z" fill="#D8E8FF"/>
<path d="M244.846 137.128C244.385 137.128 244.024 137.276 243.763 137.57C243.502 137.86 243.352 138.273 243.314 138.809H246.363C246.353 138.273 246.213 137.86 245.943 137.57C245.672 137.276 245.306 137.128 244.846 137.128ZM245.152 143.838C243.87 143.838 242.868 143.485 242.146 142.777C241.424 142.069 241.063 141.067 241.063 139.771C241.063 138.437 241.396 137.406 242.06 136.68C242.73 135.948 243.654 135.583 244.831 135.583C245.957 135.583 246.833 135.903 247.46 136.544C248.087 137.185 248.4 138.071 248.4 139.201V140.255H243.264C243.288 140.873 243.471 141.355 243.813 141.701C244.155 142.048 244.634 142.221 245.252 142.221C245.731 142.221 246.185 142.172 246.612 142.072C247.04 141.972 247.486 141.813 247.951 141.595V143.276C247.571 143.466 247.165 143.606 246.733 143.696C246.301 143.791 245.774 143.838 245.152 143.838Z" fill="#D8E8FF"/>
<path d="M257.518 143.696H255.345V139.044C255.345 138.47 255.243 138.04 255.039 137.755C254.835 137.465 254.509 137.321 254.063 137.321C253.455 137.321 253.016 137.525 252.745 137.933C252.475 138.337 252.339 139.009 252.339 139.949V143.696H250.167V135.732H251.826L252.118 136.751H252.24C252.482 136.366 252.814 136.076 253.237 135.882C253.664 135.682 254.149 135.583 254.69 135.583C255.616 135.583 256.319 135.834 256.798 136.338C257.278 136.836 257.518 137.558 257.518 138.503V143.696Z" fill="#D8E8FF"/>
<path d="M261.485 139.7C261.485 140.488 261.614 141.084 261.87 141.488C262.131 141.891 262.554 142.093 263.138 142.093C263.717 142.093 264.133 141.894 264.385 141.495C264.641 141.091 264.769 140.493 264.769 139.7C264.769 138.911 264.641 138.32 264.385 137.926C264.128 137.532 263.708 137.335 263.124 137.335C262.544 137.335 262.127 137.532 261.87 137.926C261.614 138.316 261.485 138.907 261.485 139.7ZM266.992 139.7C266.992 140.996 266.65 142.01 265.966 142.741C265.282 143.473 264.33 143.838 263.11 143.838C262.345 143.838 261.671 143.672 261.087 143.34C260.502 143.003 260.054 142.521 259.74 141.894C259.427 141.267 259.27 140.536 259.27 139.7C259.27 138.399 259.61 137.387 260.289 136.665C260.968 135.943 261.922 135.583 263.152 135.583C263.917 135.583 264.591 135.749 265.175 136.081C265.759 136.414 266.208 136.891 266.522 137.513C266.835 138.135 266.992 138.864 266.992 139.7Z" fill="#D8E8FF"/>
<path d="M228.327 176.277H222.329V165.862H228.327V167.672H224.537V169.958H228.063V171.768H224.537V174.453H228.327V176.277Z" fill="#D8E8FF"/>
<path d="M231.967 172.209L229.402 168.313H231.867L233.413 170.849L234.973 168.313H237.437L234.845 172.209L237.558 176.277H235.087L233.413 173.548L231.732 176.277H229.267L231.967 172.209Z" fill="#D8E8FF"/>
<path d="M242.003 176.419C239.525 176.419 238.285 175.059 238.285 172.337C238.285 170.984 238.622 169.951 239.297 169.239C239.971 168.522 240.937 168.163 242.196 168.163C243.117 168.163 243.943 168.344 244.675 168.705L244.034 170.386C243.692 170.248 243.373 170.136 243.079 170.051C242.785 169.961 242.49 169.916 242.196 169.916C241.066 169.916 240.5 170.718 240.5 172.323C240.5 173.881 241.066 174.66 242.196 174.66C242.614 174.66 243.001 174.605 243.357 174.496C243.713 174.382 244.069 174.206 244.425 173.969V175.828C244.074 176.051 243.718 176.205 243.357 176.291C243.001 176.376 242.55 176.419 242.003 176.419Z" fill="#D8E8FF"/>
<path d="M249.575 169.709C249.115 169.709 248.754 169.856 248.493 170.151C248.231 170.44 248.082 170.853 248.044 171.39H251.093C251.083 170.853 250.943 170.44 250.672 170.151C250.402 169.856 250.036 169.709 249.575 169.709ZM249.882 176.419C248.6 176.419 247.598 176.065 246.876 175.358C246.154 174.65 245.793 173.648 245.793 172.352C245.793 171.017 246.125 169.987 246.79 169.26C247.46 168.529 248.383 168.163 249.561 168.163C250.687 168.163 251.563 168.484 252.19 169.125C252.816 169.766 253.13 170.652 253.13 171.782V172.836H247.994C248.018 173.453 248.201 173.935 248.543 174.282C248.884 174.629 249.364 174.802 249.981 174.802C250.461 174.802 250.915 174.752 251.342 174.653C251.769 174.553 252.216 174.394 252.681 174.175V175.856C252.301 176.046 251.895 176.186 251.463 176.277C251.031 176.372 250.504 176.419 249.882 176.419Z" fill="#D8E8FF"/>
<path d="M257.069 176.277H254.896V165.193H257.069V176.277Z" fill="#D8E8FF"/>
<path d="M262.654 169.709C262.193 169.709 261.832 169.856 261.571 170.151C261.31 170.44 261.16 170.853 261.122 171.39H264.171C264.161 170.853 264.021 170.44 263.751 170.151C263.48 169.856 263.114 169.709 262.654 169.709ZM262.96 176.419C261.678 176.419 260.676 176.065 259.954 175.358C259.232 174.65 258.871 173.648 258.871 172.352C258.871 171.017 259.204 169.987 259.869 169.26C260.538 168.529 261.462 168.163 262.639 168.163C263.765 168.163 264.641 168.484 265.268 169.125C265.895 169.766 266.208 170.652 266.208 171.782V172.836H261.072C261.096 173.453 261.279 173.935 261.621 174.282C261.963 174.629 262.442 174.802 263.06 174.802C263.539 174.802 263.993 174.752 264.42 174.653C264.848 174.553 265.294 174.394 265.759 174.175V175.856C265.38 176.046 264.973 176.186 264.541 176.277C264.109 176.372 263.582 176.419 262.96 176.419Z" fill="#D8E8FF"/>
<path d="M275.326 176.277H273.153V171.625C273.153 171.051 273.051 170.621 272.847 170.336C272.643 170.046 272.318 169.901 271.871 169.901C271.263 169.901 270.824 170.106 270.553 170.514C270.283 170.918 270.147 171.59 270.147 172.53V176.277H267.975V168.313H269.634L269.927 169.331H270.048C270.29 168.947 270.622 168.657 271.045 168.462C271.472 168.263 271.957 168.163 272.498 168.163C273.424 168.163 274.127 168.415 274.607 168.918C275.086 169.417 275.326 170.139 275.326 171.084V176.277Z" fill="#D8E8FF"/>
<path d="M280.918 174.688C281.298 174.688 281.754 174.605 282.285 174.439V176.056C281.744 176.298 281.079 176.419 280.291 176.419C279.422 176.419 278.788 176.201 278.389 175.764C277.995 175.322 277.798 174.662 277.798 173.784V169.944H276.758V169.025L277.954 168.299L278.581 166.618H279.97V168.313H282.2V169.944H279.97V173.784C279.97 174.092 280.056 174.32 280.227 174.467C280.402 174.615 280.633 174.688 280.918 174.688Z" fill="#D8E8FF"/>
<path d="M287.2 169.709C286.74 169.709 286.379 169.856 286.118 170.151C285.856 170.44 285.707 170.853 285.669 171.39H288.718C288.708 170.853 288.568 170.44 288.297 170.151C288.027 169.856 287.661 169.709 287.2 169.709ZM287.507 176.419C286.225 176.419 285.223 176.065 284.501 175.358C283.779 174.65 283.418 173.648 283.418 172.352C283.418 171.017 283.75 169.987 284.415 169.26C285.085 168.529 286.008 168.163 287.186 168.163C288.312 168.163 289.188 168.484 289.815 169.125C290.441 169.766 290.755 170.652 290.755 171.782V172.836H285.619C285.643 173.453 285.826 173.935 286.168 174.282C286.509 174.629 286.989 174.802 287.606 174.802C288.086 174.802 288.54 174.752 288.967 174.653C289.394 174.553 289.841 174.394 290.306 174.175V175.856C289.926 176.046 289.52 176.186 289.088 176.277C288.656 176.372 288.129 176.419 287.507 176.419Z" fill="#D8E8FF"/>
<path d="M31.0811 103.018L85.2669 109.612H94.5845L145.33 103.018C139.692 86.246 128.272 52.3011 127.698 50.6956C126.981 48.6887 117.52 21.0224 104.476 16.5786C96.4617 13.8487 89.424 17.1998 86.7003 19.7323C79.4756 15.0305 72.2221 15.6708 69.4985 16.5786C66.6315 17.152 59.0914 21.0511 51.8666 32.0603C44.6419 43.0694 34.9993 83.9524 31.0811 103.018Z" fill="#155D9C"/>
<path d="M68.3523 92.123L66.9189 105.598L63.4785 105.168L65.7721 92.123C65.8198 91.0718 66.2308 89.0553 67.4922 89.3993C68.7537 89.7433 68.5913 91.3585 68.3523 92.123Z" fill="#D8E8FF"/>
<path d="M109.801 91.8364L111.235 105.311L114.676 104.881L112.382 91.8364C112.334 90.7852 111.923 88.7686 110.661 89.1127C109.4 89.4567 109.562 91.0719 109.801 91.8364Z" fill="#D8E8FF"/>
<path d="M48.283 89.4384L46.8496 102.913L43.4092 102.483L45.7028 89.4384C45.7506 88.3872 46.1615 86.3708 47.423 86.7148C48.6844 87.0588 48.522 88.6739 48.283 89.4384Z" fill="#D8E8FF"/>
<path d="M129.871 89.1518L131.304 102.627L134.745 102.196L132.451 89.1518C132.403 88.1006 131.992 86.0842 130.731 86.4282C129.469 86.7722 129.632 88.3873 129.871 89.1518Z" fill="#D8E8FF"/>
<path d="M59.1779 83.9916L57.1711 104.595L53.874 104.165L56.5977 83.9916C56.6454 82.9404 57.0564 80.9239 58.3178 81.268C59.5793 81.612 59.4169 83.2271 59.1779 83.9916Z" fill="#D8E8FF"/>
<path d="M118.976 83.7046L120.983 104.308L124.28 103.878L121.556 83.7046C121.509 82.6533 121.098 80.6369 119.836 80.9809C118.575 81.325 118.737 82.94 118.976 83.7046Z" fill="#D8E8FF"/>
<path d="M37.9626 135.414C57.0279 115.632 78.1957 111.093 89.568 110.758C100.94 110.424 123.971 113.195 147.48 135.414C166.288 153.19 170.703 191.846 170.559 208.952H15.3135C17.0337 192.324 21.6322 152.359 37.9626 135.414Z" fill="white" stroke="#041C42" stroke-width="2"/>
<path d="M58.0305 56.7163C60.8974 55.4548 62.4743 57.9108 62.9043 59.2965V45.105C84.4638 37.6509 103.998 41.9992 111.07 45.105V59.2965C114.052 54.8241 116.039 57.433 116.66 59.2965C116.708 60.3956 116.288 63.3103 114.224 66.1773C112.159 69.0442 110.21 67.3718 109.493 66.1773C109.733 73.6615 107.117 87.5753 96.018 92.4364L97.3081 110.902C92.6063 117.439 86.6525 114.295 84.2634 111.906L80.823 93.0645C69.3516 88.9506 65.2225 74.2688 64.6246 66.1773C60.2668 69.7323 57.5527 66.7985 56.7403 64.8871C55.9758 62.6891 55.1635 57.9777 58.0305 56.7163Z" fill="#D8E8FF"/>
<path d="M88.2773 93.9865C92.6351 94.2159 95.2536 93.0309 96.0182 92.4097L97.3083 110.758L88.2773 93.9865Z" fill="#A2B7D4"/>
<path d="M90.5713 209.239V114.199H93.0082L93.5816 209.239H90.5713Z" fill="#041C42"/>
<path d="M82.9741 131.544C78.1576 122.828 81.636 113.864 83.9773 110.759C90.428 116.779 96.1621 113.291 97.3088 110.615C104.878 114.514 103.76 126.192 102.326 131.544L91.7182 114.772L82.9741 131.544Z" fill="#041C42"/>
<path d="M83.0321 47.586C83.2348 49.4233 82.4834 50.6236 82.0824 50.9941C81.2175 50.437 78.6462 49.3422 75.2804 49.4199C71.073 49.5169 69.3937 50.6809 67.4229 51.3877C65.8462 51.9532 65.8921 50.9856 66.1122 50.4312C66.9092 48.9159 69.4873 45.63 73.4239 44.6085C77.3606 43.587 80.6213 44.3039 81.7596 44.7901C82.0993 44.9565 82.8294 45.7487 83.0321 47.586Z" fill="#041C42"/>
<path d="M90.6709 47.7888C90.5571 48.4928 90.8388 50.034 90.9938 50.7166C92.4376 50.0634 95.8688 48.6971 98.0442 48.4571C100.22 48.2172 104.226 49.1746 105.958 49.6833C107.976 49.757 107.462 48.4885 106.952 47.845C104.834 46.0042 102.148 44.7941 101.069 44.4191C96.9029 43.1006 92.8701 44.5827 91.3745 45.4886C91.1873 45.9619 90.7847 47.0847 90.6709 47.7888Z" fill="#041C42"/>
<path d="M90.0797 59.99C89.5001 55.6206 90.2173 50.1765 90.588 48.0073L92.4856 49.7255C90.7277 51.4856 91.235 58.2965 91.2612 58.5345C91.2875 58.7726 92.7161 70.8478 92.9728 71.8385C93.1852 72.6583 92.8316 73.1391 92.6482 73.3199C91.682 74.2939 89.918 74.7455 89.1502 74.79C88.5475 74.8565 87.2036 74.6193 86.2727 74.1437C85.3418 73.6681 85.0836 72.9497 85.1377 72.7028C85.1648 72.5793 85.2912 72.3244 85.5805 72.2925C85.8698 72.2606 86.0487 72.4818 86.102 72.5964C86.3554 73.0503 87.2831 73.7913 89.0189 73.5998C90.7546 73.4083 91.3509 72.6197 91.5526 72.2361C91.7543 71.8524 90.6593 64.3594 90.0797 59.99Z" fill="#041C42"/>
<path d="M75.6631 57.4331C75.6631 55.4835 77.001 54.9006 77.6699 54.8528C78.3867 54.7095 79.8488 55.0535 79.9635 57.5764C80.0782 60.0994 78.4822 60.539 77.6699 60.4434C77.001 60.2523 75.6631 59.3826 75.6631 57.4331Z" fill="#041C42"/>
<path d="M96.4482 56.8872C96.4482 54.9376 97.7861 54.3547 98.4551 54.3069C99.1718 54.1636 100.634 54.5076 100.749 57.0305C100.863 59.5535 99.2674 59.9931 98.4551 59.8975C97.7861 59.7064 96.4482 58.8367 96.4482 56.8872Z" fill="#041C42"/>
<path d="M115.657 47.5416C92.3773 42.1517 66.7753 45.2959 57.1709 47.5416L66.4886 36.2171L86.2707 31.0566L105.049 36.2171L115.657 47.5416Z" fill="#155D9C"/>
<path d="M69.6419 43.0979L72.0789 42.9545C72.0789 35.7871 72.3656 33.6369 73.0823 31.4866C73.7991 29.3364 74.5157 28.333 75.6626 26.7561C76.8095 25.1793 78.5296 25.1793 77.5261 24.3192C76.7234 23.6311 75.1847 24.6059 74.5157 25.1793C69.3552 29.0784 69.1163 38.7496 69.6419 43.0979Z" fill="#D8E8FF"/>
<path d="M84.8373 42.9546H87.1309C85.7425 36.7318 85.6352 34.6762 85.841 32.6705C86.0469 30.6648 86.4748 29.6548 87.1652 28.0636C87.8556 26.4723 89.3493 26.1391 88.3113 25.5868C87.481 25.1449 86.3337 26.2893 85.8639 26.9167C82.1381 31.3018 83.5386 39.2813 84.8373 42.9546Z" fill="#D8E8FF"/>
<path d="M103.275 43.6755L100.822 43.4368C101.098 36.2059 100.892 34.0256 100.252 31.8287C99.6114 29.6318 98.9271 28.5918 97.8307 26.9567C96.7343 25.3217 94.9988 25.2553 96.0444 24.4264C96.881 23.7632 98.3959 24.806 99.0488 25.4102C104.105 29.543 103.973 39.309 103.275 43.6755Z" fill="#D8E8FF"/>
<path d="M56.8837 47.3985C58.7185 46.9398 60.4196 46.7295 61.0408 46.6817V49.262C59.8462 49.4531 56.9982 49.8927 55.1634 50.1221C53.3285 50.3514 53.1565 47.064 53.2999 45.3916C53.7777 41.33 56.1668 31.8882 61.9008 26.6129C67.6347 21.3377 72.5086 20.0189 74.2287 20.0189C74.7544 19.8755 75.8629 19.7609 76.0923 20.4489C76.3216 21.137 75.4233 21.4046 74.9455 21.4524C73.1297 21.7391 68.3801 23.3732 63.9076 27.6164C59.4352 31.8595 56.9792 38.8453 56.3103 41.8079C55.7369 43.8625 55.0488 47.8572 56.8837 47.3985Z" fill="#D8E8FF"/>
<path d="M115.12 47.3638C113.286 46.9051 113.125 46.8728 112.503 46.825V49.2619C113.698 49.4531 115.006 49.8581 116.84 50.0874C118.675 50.3168 118.847 47.0293 118.704 45.3569C118.226 41.2954 115.837 31.8535 110.103 26.5783C104.369 21.303 99.4955 19.9842 97.7754 19.9842C97.2498 19.8409 96.1412 19.7262 95.9118 20.4143C95.6825 21.1024 96.5808 21.3699 97.0586 21.4177C98.8744 21.7044 103.624 23.3386 108.096 27.5817C112.569 31.8248 115.025 38.8107 115.694 41.7732C116.267 43.8279 116.955 47.8225 115.12 47.3638Z" fill="#D8E8FF"/>
<path d="M87.6543 83.8806C88.6864 84.9127 89.5178 84.5973 90.2346 84.1673C91.8325 83.2085 91.9548 80.5836 92.0981 79.7235C92.2176 79.0068 93.6749 78.0033 93.6749 80.7269C93.6749 82.9058 92.337 84.5973 91.6681 85.1707C91.1424 85.6964 89.6038 86.5756 87.6543 85.8875C85.7048 85.1994 84.5484 82.6383 84.2139 81.4437C84.0706 80.8225 83.9846 79.5515 84.7873 79.4368C85.5901 79.3221 85.8863 80.2491 85.9341 80.7269C86.0775 81.3481 86.6222 82.8485 87.6543 83.8806Z" fill="#041C42"/>
<path d="M44.126 152.33V209.239H46.9929V152.33C46.9929 151.756 46.7063 150.609 45.5595 150.609C44.4127 150.609 44.126 151.756 44.126 152.33Z" fill="#041C42"/>
<path d="M135.726 152.33V209.239H138.593V152.33C138.593 151.756 138.306 150.609 137.159 150.609C136.013 150.609 135.726 151.756 135.726 152.33Z" fill="#041C42"/>
<path d="M67.2051 131.974V143.299H70.6455V131.974C70.6455 131.401 70.3014 130.254 68.9253 130.254C67.5491 130.254 67.2051 131.401 67.2051 131.974Z" fill="#041C42"/>
<path d="M66.4883 131.974H67.2082V132.978H66.7783C64.625 135.988 66.3452 140.288 66.9216 141.148L66.3451 141.435C66.1062 141.005 65.3288 139.467 65.0551 137.278C64.7324 134.698 65.9627 132.786 66.4883 131.974Z" fill="#041C42"/>
<path d="M96.8779 136.848C96.8779 135.472 98.4069 135.223 99.1715 135.271C99.9838 135.367 101.465 136.045 100.892 137.995C100.318 139.944 98.5503 139.572 97.738 139.142C97.4513 138.95 96.8779 138.224 96.8779 136.848Z" fill="#041C42"/>
<path d="M97.0215 146.458C97.0215 145.082 98.5506 144.833 99.3151 144.881C100.127 144.976 101.609 145.655 101.035 147.605C100.462 149.554 98.6939 149.181 97.8816 148.751C97.5949 148.56 97.0215 147.834 97.0215 146.458Z" fill="#041C42"/>
<path d="M97.0215 157.066C97.0215 155.689 98.5506 155.441 99.3151 155.489C100.127 155.584 101.609 156.263 101.035 158.212C100.462 160.162 98.6939 159.789 97.8816 159.359C97.5949 159.168 97.0215 158.442 97.0215 157.066Z" fill="#041C42"/>
<path d="M97.0215 169.394C97.0215 168.017 98.5506 167.769 99.3151 167.817C100.127 167.912 101.609 168.591 101.035 170.54C100.462 172.49 98.6939 172.117 97.8816 171.687C97.5949 171.496 97.0215 170.77 97.0215 169.394Z" fill="#041C42"/>
<path d="M97.0215 178.568C97.0215 177.192 98.5506 176.943 99.3151 176.991C100.127 177.087 101.609 177.765 101.035 179.715C100.462 181.664 98.6939 181.291 97.8816 180.861C97.5949 180.67 97.0215 179.944 97.0215 178.568Z" fill="#041C42"/>
<path d="M97.0215 189.176C97.0215 187.799 98.5506 187.551 99.3151 187.599C100.127 187.694 101.609 188.373 101.035 190.322C100.462 192.272 98.6939 191.899 97.8816 191.469C97.5949 191.278 97.0215 190.552 97.0215 189.176Z" fill="#041C42"/>
<path d="M97.0215 200.07C97.0215 198.694 98.5506 198.446 99.3151 198.493C100.127 198.589 101.609 199.267 101.035 201.217C100.462 203.166 98.6939 202.794 97.8816 202.364C97.5949 202.173 97.0215 201.446 97.0215 200.07Z" fill="#041C42"/>
<path d="M83.26 143.155H60.3242V161.695L71.5757 170.965L83.26 161.695V143.155Z" fill="#041C42"/>
<path d="M83.26 147.742H60.3242V150.609H83.26V147.742Z" fill="#004079"/>
<path d="M76.379 69.7609C81.6041 69.7609 85.84 65.1399 85.84 59.4398C85.84 53.7396 81.6041 49.1187 76.379 49.1187C71.1538 49.1187 66.918 53.7396 66.918 59.4398C66.918 65.1399 71.1538 69.7609 76.379 69.7609Z" fill="white" fill-opacity="0.5"/>
<path fill-rule="evenodd" clip-rule="evenodd" d="M76.5224 70.6208C82.1434 70.6208 86.7001 65.5506 86.7001 59.2963C86.7001 53.0419 82.1434 47.9717 76.5224 47.9717C70.9014 47.9717 66.3447 53.0419 66.3447 59.2963C66.3447 65.5506 70.9014 70.6208 76.5224 70.6208ZM76.5223 69.1872C81.5099 69.1872 85.5532 64.7588 85.5532 59.2962C85.5532 53.8335 81.5099 49.4051 76.5223 49.4051C71.5346 49.4051 67.4913 53.8335 67.4913 59.2962C67.4913 64.7588 71.5346 69.1872 76.5223 69.1872Z" fill="#041C42"/>
<path d="M100.175 69.7609C105.4 69.7609 109.636 65.1399 109.636 59.4398C109.636 53.7396 105.4 49.1187 100.175 49.1187C94.9497 49.1187 90.7139 53.7396 90.7139 59.4398C90.7139 65.1399 94.9497 69.7609 100.175 69.7609Z" fill="white" fill-opacity="0.5"/>
<path fill-rule="evenodd" clip-rule="evenodd" d="M100.318 70.6208C105.939 70.6208 110.496 65.5506 110.496 59.2963C110.496 53.0419 105.939 47.9717 100.318 47.9717C94.6974 47.9717 90.1406 53.0419 90.1406 59.2963C90.1406 65.5506 94.6974 70.6208 100.318 70.6208ZM100.319 69.1872C105.306 69.1872 109.35 64.7588 109.35 59.2962C109.35 53.8335 105.306 49.4051 100.319 49.4051C95.3309 49.4051 91.2876 53.8335 91.2876 59.2962C91.2876 64.7588 95.3309 69.1872 100.319 69.1872Z" fill="#041C42"/>
<path d="M86.2701 58.1498C88.1049 57.2323 89.806 57.7675 90.4272 58.1498L90.8572 56.5729C89.0224 55.9995 86.8435 56.334 85.9834 56.5729L86.2701 58.1498Z" fill="#041C42"/>
</svg>
