<svg width="320" height="210" viewBox="0 0 320 210" fill="none" xmlns="http://www.w3.org/2000/svg">
<path d="M320 0H0V210H320V0Z" fill="#E9F2FF"/>
<path d="M108.655 78.3342L100.709 103.468L74.6113 97.9894C73.104 97.5855 70.3124 96.1711 71.205 93.7445C72.0975 91.318 74.2048 91.2162 75.1469 91.4687L92.8211 95.5986L68.2004 52.9544C68.2004 52.9544 66.5002 50.9997 69.0002 48.9998C71.5001 46.9999 73.2174 50.0578 73.2174 50.0578L97.8381 92.7021L102.796 76.4613C103.287 75.3813 104.835 73.3727 107.096 73.9785C109.357 74.5844 109.078 77.1348 108.655 78.3342Z" fill="#F6C254"/>
<path d="M212.251 77.9932L220.197 103.126L246.295 97.6483C247.802 97.2444 250.594 95.83 249.701 93.4035C248.809 90.9769 246.701 90.8752 245.759 91.1276L228.085 95.2576L252.706 52.6133C252.706 52.6133 254.406 50.6586 251.906 48.6587C249.406 46.6588 247.689 49.7167 247.689 49.7167L223.068 92.361L218.11 76.1202C217.619 75.0402 216.071 73.0316 213.81 73.6375C211.549 74.2433 211.829 76.7937 212.251 77.9932Z" fill="#F6C254"/>
<path d="M180.051 89.2773L160.603 107.07L140.741 89.2773C139.638 88.1739 137.927 85.5532 139.913 83.898C141.9 82.2428 143.775 83.2083 144.465 83.898L157.707 96.3118V47.0704C157.707 47.0704 157.211 44.5275 160.376 44.0455C163.541 43.5635 163.5 47.0704 163.5 47.0704V96.3118L175.913 84.7256C176.879 84.0359 179.224 83.0704 180.879 84.7256C182.534 86.3808 181.017 88.4497 180.051 89.2773Z" fill="#F6C254"/>
<path d="M20 122C20 119.239 22.2386 117 25 117H295C297.761 117 300 119.239 300 122V161C300 163.761 297.761 166 295 166H25C22.2386 166 20 163.761 20 161V122Z" fill="#041C42"/>
<path d="M143 147V135.578H144.867V145.398H149.703V147H143Z" fill="white"/>
<path d="M153.312 147H151.477V138.359H153.312V147ZM151.367 136.07C151.367 135.742 151.456 135.49 151.633 135.312C151.815 135.135 152.073 135.047 152.406 135.047C152.729 135.047 152.979 135.135 153.156 135.312C153.339 135.49 153.43 135.742 153.43 136.07C153.43 136.383 153.339 136.63 153.156 136.812C152.979 136.99 152.729 137.078 152.406 137.078C152.073 137.078 151.815 136.99 151.633 136.812C151.456 136.63 151.367 136.383 151.367 136.07Z" fill="white"/>
<path d="M161.75 144.539C161.75 145.383 161.443 146.031 160.828 146.484C160.214 146.932 159.333 147.156 158.188 147.156C157.036 147.156 156.112 146.982 155.414 146.633V145.047C156.43 145.516 157.375 145.75 158.25 145.75C159.38 145.75 159.945 145.409 159.945 144.727C159.945 144.508 159.883 144.326 159.758 144.18C159.633 144.034 159.427 143.883 159.141 143.727C158.854 143.57 158.456 143.393 157.945 143.195C156.951 142.81 156.276 142.425 155.922 142.039C155.573 141.654 155.398 141.154 155.398 140.539C155.398 139.8 155.695 139.227 156.289 138.82C156.888 138.409 157.701 138.203 158.727 138.203C159.742 138.203 160.703 138.409 161.609 138.82L161.016 140.203C160.083 139.818 159.299 139.625 158.664 139.625C157.695 139.625 157.211 139.901 157.211 140.453C157.211 140.724 157.336 140.953 157.586 141.141C157.841 141.328 158.393 141.586 159.242 141.914C159.956 142.19 160.474 142.443 160.797 142.672C161.12 142.901 161.359 143.167 161.516 143.469C161.672 143.766 161.75 144.122 161.75 144.539Z" fill="white"/>
<path d="M166.961 145.672C167.409 145.672 167.857 145.602 168.305 145.461V146.844C168.102 146.932 167.839 147.005 167.516 147.062C167.198 147.125 166.867 147.156 166.523 147.156C164.784 147.156 163.914 146.24 163.914 144.406V139.75H162.734V138.938L164 138.266L164.625 136.438H165.758V138.359H168.219V139.75H165.758V144.375C165.758 144.818 165.867 145.146 166.086 145.359C166.31 145.568 166.602 145.672 166.961 145.672Z" fill="white"/>
<path d="M177.703 142.664C177.703 144.076 177.341 145.177 176.617 145.969C175.893 146.76 174.885 147.156 173.594 147.156C172.786 147.156 172.073 146.974 171.453 146.609C170.833 146.245 170.357 145.721 170.023 145.039C169.69 144.357 169.523 143.565 169.523 142.664C169.523 141.263 169.883 140.169 170.602 139.383C171.32 138.596 172.333 138.203 173.641 138.203C174.891 138.203 175.88 138.607 176.609 139.414C177.339 140.216 177.703 141.3 177.703 142.664ZM171.414 142.664C171.414 144.659 172.151 145.656 173.625 145.656C175.083 145.656 175.812 144.659 175.812 142.664C175.812 140.69 175.078 139.703 173.609 139.703C172.839 139.703 172.279 139.958 171.93 140.469C171.586 140.979 171.414 141.711 171.414 142.664Z" fill="white"/>
</svg>
