<svg width="320" height="210" viewBox="0 0 320 210" fill="none" xmlns="http://www.w3.org/2000/svg">
<path d="M320 0H0V210H320V0Z" fill="#E9F2FF"/>
<path d="M107.43 158.136C124.325 139.342 149.667 136.21 160.226 136.993C219.826 132.764 245.677 184.173 251.152 210.406H81.6191C83.1835 200.814 90.5357 176.93 107.43 158.136Z" fill="#041C42"/>
<path d="M151.186 136.747C155.279 134.994 170.478 135.773 173.985 136.747C176.324 143.295 173.791 155.065 172.232 160.131C171.764 154.987 165.801 149.024 162.878 146.685C160.54 147.855 155.279 152.181 152.94 160.131C151.576 155.065 149.316 143.295 151.186 136.747Z" fill="#D8E8FF"/>
<path d="M123.126 18.0747C154.46 1.70602 174.18 14.1772 181.001 20.9975C203.8 4.62882 236.147 67.96 243.552 100.503L162.294 109.271L68.1738 102.256C76.553 79.6519 91.7914 34.4433 123.126 18.0747Z" fill="#004079"/>
<path d="M123.125 81.211C124.996 75.5989 128.971 77.7034 130.725 79.4572L117.279 48.4736L157.032 22.7515L197.369 44.3815L190.939 77.7033C194.212 74.8972 196.59 76.5341 197.369 77.7033C197.759 79.4571 197.954 83.6662 195.615 86.4723C193.277 89.2783 189.964 88.4209 188.6 87.6415C187.821 96.8001 181 115.118 159.955 115.118C138.909 115.118 132.868 96.8001 132.479 87.6415C131.076 89.0445 129.556 89.3952 128.971 89.3952C126.243 89.0055 121.254 86.8231 123.125 81.211Z" fill="#A1C9FF"/>
<path d="M154.109 136.747L151.771 113.948L171.062 112.779L170.478 136.747C167.555 140.255 162.878 143.762 162.878 143.762C162.878 143.762 156.447 139.67 154.109 136.747Z" fill="#A1C9FF"/>
<path d="M157.032 114.533C162.177 115.468 168.529 114.143 171.062 113.364L170.478 136.163L157.032 114.533Z" fill="#93B4E1"/>
<path d="M149.432 50.2275C167.204 47.4214 174.765 39.7048 176.324 36.1972C188.6 50.2275 189.185 71.8575 189.769 81.7956L202.046 44.9661L157.032 19.8286L116.11 47.8891L126.633 77.7034L133.064 82.3802C131.115 72.8318 131.661 53.0336 149.432 50.2275Z" fill="#004079"/>
<path d="M162.294 210.406V144.932H163.908L164.288 210.406H162.294Z" fill="#D8E8FF"/>
<path d="M166.471 160.535C166.471 159.587 167.483 159.416 167.99 159.449C168.527 159.515 169.508 159.982 169.129 161.325C168.749 162.668 167.578 162.411 167.04 162.115C166.85 161.983 166.471 161.483 166.471 160.535Z" fill="#D8E8FF"/>
<path d="M166.565 167.155C166.565 166.207 167.578 166.036 168.084 166.069C168.622 166.135 169.603 166.602 169.224 167.945C168.844 169.288 167.673 169.032 167.135 168.735C166.945 168.604 166.565 168.103 166.565 167.155Z" fill="#D8E8FF"/>
<path d="M166.565 174.463C166.565 173.515 167.578 173.344 168.084 173.377C168.622 173.443 169.603 173.91 169.224 175.253C168.844 176.596 167.673 176.34 167.135 176.043C166.945 175.912 166.565 175.411 166.565 174.463Z" fill="#D8E8FF"/>
<path d="M166.565 182.956C166.565 182.008 167.578 181.837 168.084 181.87C168.622 181.936 169.603 182.403 169.224 183.746C168.844 185.089 167.673 184.832 167.135 184.536C166.945 184.405 166.565 183.904 166.565 182.956Z" fill="#D8E8FF"/>
<path d="M166.565 189.276C166.565 188.328 167.578 188.157 168.084 188.19C168.622 188.256 169.603 188.723 169.224 190.066C168.844 191.41 167.673 191.153 167.135 190.856C166.945 190.725 166.565 190.224 166.565 189.276Z" fill="#D8E8FF"/>
<path d="M166.565 196.584C166.565 195.636 167.578 195.465 168.084 195.498C168.622 195.564 169.603 196.031 169.224 197.374C168.844 198.717 167.673 198.461 167.135 198.164C166.945 198.033 166.565 197.532 166.565 196.584Z" fill="#D8E8FF"/>
<path d="M166.565 204.09C166.565 203.142 167.578 202.97 168.084 203.003C168.622 203.069 169.603 203.537 169.224 204.88C168.844 206.223 167.673 205.966 167.135 205.67C166.945 205.538 166.565 205.038 166.565 204.09Z" fill="#D8E8FF"/>
<path d="M116.721 210.406V174.601C116.592 173.797 116.952 172.992 117.877 172.992C118.802 172.992 119.034 173.797 119.034 174.601V210.406H116.721Z" fill="#D8E8FF"/>
<path d="M211.425 210.406V174.601C211.296 173.797 211.656 172.992 212.581 172.992C213.507 172.992 213.738 173.797 213.738 174.601V210.406H211.425Z" fill="#D8E8FF"/>
<path d="M151.233 93.6461C154.068 95.3233 157.286 95.5929 158.763 95.5929C160.775 95.5929 165.111 94.5446 167.916 92.1486C170.825 89.6635 173.181 92.4481 173.673 93.6461C174.264 94.6944 174.411 97.7128 170.425 101.134C166.587 104.428 160.879 105.227 158.763 105.177C156.942 105.127 152.415 104.578 148.871 101.733C145.455 98.9895 145.623 95.8924 146.362 94.5446C146.804 93.5463 148.399 91.9689 151.233 93.6461Z" fill="#041C42"/>
<path d="M159.439 102.831C163.096 102.722 167.107 100.929 168.14 99.9788C166.91 99.2546 163.479 97.8875 159.586 98.2134C155.693 98.5393 152.754 100.703 151.771 101.744C152.803 102.152 155.782 102.939 159.439 102.831Z" fill="#A1C9FF"/>
<path d="M155.1 61.8478C153.685 63.0508 152.555 61.9724 151.955 61.2932C151.503 60.7484 149.92 60.259 147.658 60.3698C144.831 60.5081 142.941 62.4429 140.345 64.4123C138.268 65.9877 138.006 63.9126 138.135 62.6782C138.69 61.47 140.626 58.5599 143.93 56.5842C148.061 54.1146 151.126 55.9486 151.706 56.2037C152.285 56.4587 156.868 60.3441 155.1 61.8478Z" fill="#041C42"/>
<path d="M167.378 55.0115C165.246 55.456 162.872 58.4915 162.955 60.188C163.052 62.1673 165.945 60.4669 167.055 59.9874C168.165 59.5079 170.986 59.2281 172.71 59.7106C174.434 60.1931 178.1 62.7062 178.948 62.6647C179.796 62.6232 180.617 62.0162 180.562 60.8852C180.492 59.4714 178.116 58.2178 176.854 57.5238C174.67 56.3226 169.903 54.4852 167.378 55.0115Z" fill="#041C42"/>
<path d="M161.273 66.3641C161.457 63.1807 162.667 60.1077 163.189 59.1846L164.693 60.9533C164.565 61.243 163.592 63.9548 163.245 66.1259C162.898 68.2969 163.607 73.5246 164.005 75.867C164.371 77.5496 165.252 81.6446 165.848 84.5631C166.444 87.4816 165.203 88.7516 164.508 89.0218C163.251 89.414 160.305 90.0211 158.57 89.3125C156.401 88.4266 156.255 85.4577 156.221 84.7509C156.193 84.1853 156.731 83.5922 157.6 83.9748C158.123 84.205 157.931 84.9506 157.952 85.3747C157.98 85.9576 158.349 87.1125 159.038 87.3055C159.901 87.5468 160.749 87.5052 162.856 87.1187C164.541 86.8095 164.129 84.7889 163.8 83.2462C162.881 78.9453 161.089 69.5476 161.273 66.3641Z" fill="#041C42"/>
<path d="M174.643 70.2448C174.651 68.0903 173.225 67.3381 172.511 67.2314C171.762 67.3625 170.293 68.2469 170.415 70.7351C170.537 73.2233 171.972 73.5877 172.674 73.4588C173.327 73.2852 174.635 72.3992 174.643 70.2448Z" fill="#041C42"/>
<path d="M151.585 71.2312C151.593 69.0768 150.168 68.3246 149.454 68.2178C148.704 68.349 147.236 69.2333 147.358 71.7216C147.48 74.2098 148.915 74.5741 149.617 74.4453C150.27 74.2716 151.577 73.3857 151.585 71.2312Z" fill="#041C42"/>
<path d="M172.647 78.7038C172.846 78.1271 172.132 77.8313 171.75 77.7554C171.517 77.8141 171.059 78.1011 171.092 78.7799C171.125 79.4587 171.605 79.6053 171.84 79.5937C172.027 79.5374 172.449 79.2805 172.647 78.7038Z" fill="#1A4571"/>
<path d="M179.969 84.4391C180.168 83.8624 179.454 83.5665 179.073 83.4907C178.839 83.5494 178.381 83.8364 178.414 84.5152C178.447 85.1939 178.927 85.3406 179.163 85.329C179.349 85.2727 179.771 85.0158 179.969 84.4391Z" fill="#1A4571"/>
<path d="M174.156 87.2745C174.355 86.6978 173.641 86.402 173.259 86.3262C173.026 86.3848 172.567 86.6719 172.601 87.3506C172.634 88.0294 173.114 88.176 173.349 88.1645C173.535 88.1081 173.958 87.8512 174.156 87.2745Z" fill="#1A4571"/>
<path d="M151.867 83.547C152.065 82.9703 151.352 82.6745 150.97 82.5986C150.736 82.6573 150.278 82.9443 150.311 83.6231C150.344 84.3019 150.824 84.4485 151.06 84.4369C151.246 84.3806 151.668 84.1237 151.867 83.547Z" fill="#1A4571"/>
<path d="M144.631 80.5001C144.83 79.9234 144.116 79.6276 143.735 79.5518C143.501 79.6104 143.043 79.8975 143.076 80.5762C143.109 81.255 143.589 81.4016 143.825 81.3901C144.011 81.3337 144.433 81.0768 144.631 80.5001Z" fill="#1A4571"/>
<path d="M149.205 87.0783C149.403 86.5016 148.689 86.2057 148.308 86.1299C148.074 86.1886 147.616 86.4756 147.649 87.1544C147.682 87.8332 148.162 87.9798 148.398 87.9682C148.584 87.9119 149.006 87.655 149.205 87.0783Z" fill="#1A4571"/>
</svg>
