<svg width="320" height="250" viewBox="0 0 320 250" fill="none" xmlns="http://www.w3.org/2000/svg">
<rect width="320" height="250" fill="#E9F2FF"/>
<path d="M121.591 21.835C121.591 18.3398 124.425 15.5064 127.92 15.5064H298.655C302.15 15.5064 304.984 18.3398 304.984 21.835V159.671C304.984 163.167 302.15 166 298.655 166H127.92C124.425 166 121.591 163.167 121.591 159.671V21.835Z" fill="#041C42"/>
<path d="M139.09 38.4637C139.09 35.4493 141.534 33.0056 144.548 33.0056H165.131C168.145 33.0056 170.589 35.4493 170.589 38.4637V59.0462C170.589 62.0606 168.145 64.5043 165.131 64.5043H144.548C141.534 64.5043 139.09 62.0606 139.09 59.0462V38.4637Z" fill="white"/>
<path d="M139.09 80.4619C139.09 77.4475 141.534 75.0038 144.548 75.0038H165.131C168.145 75.0038 170.589 77.4475 170.589 80.4619V101.044C170.589 104.059 168.145 106.503 165.131 106.503H144.548C141.534 106.503 139.09 104.059 139.09 101.044V80.4619Z" fill="white"/>
<path d="M139.114 121.906C139.114 119.285 141.239 117.16 143.86 117.16H165.694C168.315 117.16 170.44 119.285 170.44 121.906V143.74C170.44 146.361 168.315 148.486 165.694 148.486H143.86C141.239 148.486 139.114 146.361 139.114 143.74V121.906Z" fill="white"/>
<path d="M185.289 41.4053H279.085V55.4047H185.289V41.4053Z" fill="white"/>
<path d="M185.289 83.4036H263.686V97.403H185.289V83.4036Z" fill="white"/>
<path d="M185.289 125.402H287.485V139.401H185.289V125.402Z" fill="white"/>
<path d="M149.808 42.8265L155.408 49.1263L177.107 26.0272C178.508 24.6272 180.88 23.8493 182.707 25.6771C184.457 27.4272 183.058 30.5769 181.308 32.3269L155.408 59.2758L143.859 47.0263C142.459 45.6263 141.899 43.3865 143.859 41.4265C145.819 39.4666 148.409 41.0765 149.808 42.8265Z" fill="#F6C254"/>
<path d="M55.4959 194.116L46.4636 156.809L75.1313 173.302L73.1677 194.116L127.362 212.573C128.278 210.217 127.519 196.315 118.722 186.262C109.925 176.208 108.512 166.626 108.904 163.092C107.019 128.848 93.4577 111.123 86.9125 106.542C56.7525 82.9791 39.002 99.8656 33.8968 111.254C26.6971 112.301 14.1042 119.108 21.3301 137.958C28.5559 156.808 25.6499 167.543 23.2937 170.553C11.6695 193.802 14.9157 210.217 17.7956 214.537L55.4959 194.116Z" fill="#041C42"/>
<path d="M25.4167 190.892C21.8964 200.638 26.7359 208.921 29.5958 211.845L23.2651 211.989C17.5399 202.325 21.4701 190.884 26.4527 180.734C30.4388 172.614 30.7017 167.418 30.6773 158.664C30.6506 149.1 25.0794 143.882 25.645 134.466C25.8416 133.828 26.4613 132.655 27.3671 133.063C28.2728 133.471 28.1059 134.849 27.9093 135.487C26.7742 140.424 32.7375 149.06 33.101 158.122C33.6278 171.256 29.8172 178.709 25.4167 190.892Z" fill="#102F61"/>
<path d="M85.3415 212.624C82.8282 222.677 88.4832 230.427 91.6249 233.045L85.3415 233.83C78.6655 224.798 81.4145 213.016 85.3415 202.413C88.4832 193.931 88.2175 188.735 87.3051 180.029C86.3082 170.517 80.2363 165.891 79.8436 156.466C79.9745 155.812 80.472 154.581 81.4145 154.895C82.357 155.21 82.3307 156.597 82.1998 157.252C81.5715 162.278 88.3803 170.265 89.6613 179.243C91.518 192.256 88.4832 200.057 85.3415 212.624Z" fill="#102F61"/>
<path d="M106.803 192.055C113.073 200.306 110.927 209.656 109.07 213.3L115.155 211.547C117.734 200.616 110.567 190.869 102.782 182.669C96.5534 176.11 94.7513 171.229 92.1613 162.867C89.3315 153.732 93.0909 147.089 89.74 138.271C89.3619 137.721 88.42 136.785 87.6774 137.445C86.9348 138.105 87.5054 139.37 87.8835 139.92C90.4408 144.293 87.3278 154.316 89.6862 163.073C93.1044 175.766 98.9662 181.741 106.803 192.055Z" fill="#102F61"/>
<path d="M42.9291 207.911C40.4157 217.965 46.0707 225.714 49.2124 228.332L42.9291 229.118C36.253 220.085 39.002 208.304 42.9291 197.701C46.0707 189.218 45.8051 184.022 44.8926 175.316C43.8958 165.804 37.8239 161.179 37.4312 151.754C37.5621 151.099 38.0595 149.869 39.002 150.183C39.9445 150.497 39.9183 151.885 39.7873 152.539C39.159 157.566 45.9678 165.553 47.2488 174.531C49.1055 187.544 46.0707 195.345 42.9291 207.911Z" fill="#102F61"/>
<path d="M0 226.148C17.0344 201.705 44.6647 192.431 60.6008 190.974C119.321 190.974 144.567 223.826 153 250H4.89869e-05L5.09857e-05 246.85L0 226.148Z" fill="#004079"/>
<path d="M37.0384 114.003C54.6317 94.5248 73.4294 103.269 80.6291 110.076C93.7521 125.386 107.89 170.337 77.1868 173.695L75.1311 194.901C73.1676 214.144 58.2446 208.646 55.4957 194.901L46.0706 157.594C43.7144 160.997 37.5066 163.485 35.4675 157.594C32.64 149.426 39.0018 148.954 42.1435 149.74C32.0901 137.173 34.2894 120.679 37.0384 114.003Z" fill="#A1C9FF"/>
<path d="M75.524 191.76C68.6123 216.579 58.7684 202.101 54.7104 191.76L51.176 192.545C53.2705 198.043 56.2812 209.432 66.8844 209.432C75.524 209.432 78.1421 198.174 79.0584 192.152L75.524 191.76Z" fill="#041C42"/>
<path d="M81.4147 111.254C59.7371 123.821 45.9399 120.679 41.751 117.538C53.3752 127.591 46.9871 143.064 42.1437 149.74C33.5039 143.064 31.9334 132.853 36.6458 112.825C42.1789 89.3089 73.9532 99.4729 87.3053 106.934L81.4147 111.254Z" fill="#041C42"/>
<path d="M67.6695 172.517C70.8112 174.088 75.131 173.957 77.0945 173.695C77.0945 173.695 77.0945 174.873 75.9164 187.047L67.6695 172.517Z" fill="#638BC0"/>
<path d="M78.2004 163.004C77.8392 163.365 77.4461 163.629 77.041 163.816C74.3461 165.06 71.4546 162.686 69.6331 160.343C69.2403 159.95 68.769 160.028 68.4549 160.343C68.1407 160.657 67.9984 161.286 68.4549 161.913C69.5021 163.353 72.382 166.233 75.5236 166.233C78.6653 166.233 81.5452 162.044 82.5924 159.95C82.8542 159.426 83.1423 158.301 82.1998 157.987C81.5294 157.763 81.1456 158.922 81.0216 159.164C80.8977 159.407 80.0854 161.119 78.2004 163.004Z" fill="#041C42"/>
<path d="M63.3497 139.922C63.7425 137.958 64.9207 137.173 66.4913 137.958C68.062 138.744 68.8475 142.278 66.8841 143.064C64.9208 143.849 62.9568 141.885 63.3497 139.922Z" fill="#041C42"/>
<path d="M80.679 128.8C81.0688 126.866 82.2377 126.093 83.7961 126.866C85.3545 127.639 86.1338 131.12 84.1858 131.893C82.2378 132.667 80.2892 130.733 80.679 128.8Z" fill="#041C42"/>
<path d="M79.0581 120.287C73.4031 119.972 70.558 122.544 70.558 126.141C70.558 129.737 76.8691 136.041 81.3472 138.728C82.9629 139.697 83.8818 140.667 84.396 141.511C85.3451 143.069 84.9319 145.199 83.6378 146.485C81.2151 148.892 76.372 149.347 75.131 149.347C73.5602 149.347 73.4344 147.269 75.0535 147.269C75.9526 147.269 76.7899 147.607 79.549 146.82C81.5284 146.255 82.6705 145.16 82.9777 143.987C83.5562 141.779 80.7722 140.447 78.9153 139.118C73.5317 135.267 68.455 129.521 68.455 125.785C68.455 119.847 73.4293 117.145 75.9164 116.752C77.6182 116.49 81.3251 116.395 81.8071 118.323C82.1998 119.894 80.2362 120.287 79.0581 120.287Z" fill="#041C42"/>
<path d="M60.8206 130.327C60.99 130.259 61.1796 130.216 61.3774 130.184C63.2336 129.881 63.4416 127.276 61.5977 126.905C59.8765 126.559 57.2366 127.695 54.4311 129.991C50.4063 133.284 49.7186 135.488 50.8969 136.667C53.253 138.63 54.5498 135.815 55.3353 134.637C56.3826 133.066 58.2423 131.358 60.8206 130.327Z" fill="#041C42"/>
<path d="M25.2422 250V231.904C25.2422 231.298 25.4948 230.64 26.5637 230.64C27.6327 230.64 27.9145 231.54 27.9145 231.904V250H25.2422Z" fill="#041C42"/>
<path d="M109.886 250V231.904C109.886 231.182 110.139 230.64 111.208 230.64C112.277 230.64 112.558 231.54 112.558 231.904V250H109.886Z" fill="#041C42"/>
</svg>
