<svg width="320" height="250" viewBox="0 0 320 250" fill="none" xmlns="http://www.w3.org/2000/svg">
<rect width="320" height="250" fill="#E9F2FF"/>
<path d="M184.903 13.5794C186.32 8.28886 191.758 5.1492 197.049 6.5668L293.801 32.4915C299.092 33.9091 302.232 39.3471 300.814 44.6377L249.478 236.226C248.06 241.517 242.622 244.657 237.332 243.239L140.579 217.314C135.289 215.897 132.149 210.459 133.567 205.168L184.903 13.5794Z" fill="#004079"/>
<rect x="191.026" y="21.3805" width="104.132" height="170.579" transform="rotate(15 191.026 21.3805)" fill="#041C42"/>
<path d="M230.899 93.6171C224.046 96.5732 217.195 99.5287 210.342 102.484L201.514 100.119L196.609 118.427L205.436 120.793L218.805 138.751L223.371 121.71C223.922 119.656 223.457 121.392 223.922 119.656C224.387 117.92 224.649 116.932 224.977 115.716C225.303 114.498 225.317 114.448 225.782 112.712C226.248 110.976 226.248 110.976 226.589 109.701L230.899 93.6171ZM241.875 100.279L238.978 102.177C241.953 107.534 242.702 114.034 241.058 120.177C239.409 126.316 235.511 131.569 230.258 134.719L231.817 137.818C237.878 134.183 242.381 128.126 244.282 121.041C246.178 113.955 245.307 106.458 241.875 100.279ZM234.18 102.026L231.499 104.272C234.34 108.193 235.242 113.371 233.937 118.269C232.616 123.161 229.248 127.191 224.829 129.165L226.025 132.458C231.425 130.046 235.549 125.112 237.161 119.133C238.754 113.149 237.65 106.815 234.18 102.026Z" fill="#F6C254"/>
<path d="M102.606 130.845C98.0807 139.484 89.0644 144.043 85.1219 145.243L111.348 188.439C112.548 187.925 116.388 186.177 122.147 183.297C129.346 179.697 137.06 183.811 145.802 182.268C152.796 181.034 160.372 175.926 163.286 173.526C167.571 172.498 175.936 168.692 175.113 161.699C174.291 154.705 166.886 154.328 163.286 155.014C168.428 153.985 178.199 150.18 176.142 143.186C174.085 136.193 166.714 135.816 163.286 136.501C168.086 135.473 177.376 131.564 176.142 124.159C174.908 116.754 168.771 115.932 165.857 116.446L194.14 104.104C198.768 102.047 206.996 96.2878 202.882 89.7055C198.768 83.1233 191.226 85.2488 187.969 87.1344L138.603 110.789C142.717 104.104 147.079 96.9048 149.916 89.7055C152.956 81.992 148.267 76.5404 138.603 81.992C118.547 93.3052 108.263 120.046 102.606 130.845Z" fill="#A1C9FF"/>
<path d="M89.2358 140.982L77.9226 147.152C56.6169 138.447 21.5472 146.277 0 156V250H89.2358C105.691 240.127 108.777 210.232 108.263 196.519L120.09 189.32L89.2358 140.982Z" fill="#004079"/>
</svg>
