<svg width="320" height="250" viewBox="0 0 320 250" fill="none" xmlns="http://www.w3.org/2000/svg">
<rect width="319.629" height="249.855" fill="#E9F2FF"/>
<path d="M88.8927 88.5962C88.0022 83.2532 84.7053 80.9633 83.1681 80.4863L76.1713 119.923C78.3339 126.665 83.7511 128.563 86.1894 128.669C83.2635 123.453 86.7725 115.046 88.8927 111.495C92.4548 115.82 96.5256 114.675 98.1158 113.562C93.9813 111.813 94.2994 107.837 95.8896 105.452C97.1617 103.544 94.6174 99.7805 93.1862 98.1373C92.1261 97.1832 89.7832 93.9392 88.8927 88.5962Z" fill="#041C42"/>
<path d="M11.9278 218.355C10.1468 225.607 8.95938 242.791 8.58833 250H0.00134277L0.28954 217.517L11.9278 218.355Z" fill="#5B7FA1"/>
<path d="M148.843 170.968C139.556 169.95 124.513 166.197 118.152 164.448L111.314 181.94C114.749 184.612 126.209 186.658 131.51 187.347L148.843 170.968Z" fill="#5B7FA1"/>
<path d="M9.70146 250L13.0408 219.376L0.416199 218.324V191.951C17.3128 153.374 52.6546 148.94 53.5906 149.341C71.7823 149.341 104.741 159.094 118.947 163.971L109.883 197.365L86.8254 189.414C88.7336 201.118 92.073 234.681 93.5042 250H9.70146Z" fill="#CAE0FF"/>
<path d="M57.7251 175.579C52.8909 170.236 44.3675 157.981 40.7101 152.522L44.3675 151.25L63.2907 149.977L68.5383 150.772C66.3757 160.441 60.4284 171.339 57.7251 175.579Z" fill="#8DADF1"/>
<path d="M56.2939 166.038L55.1808 164.607L53.2726 170.173L54.7037 171.922L56.2939 166.038Z" fill="#A1C9FF"/>
<path d="M53.5906 162.54L52.4774 161.109L50.5692 166.674L52.0004 168.424L53.5906 162.54Z" fill="#A1C9FF"/>
<path d="M50.7282 158.723L49.6151 157.292L47.8659 162.858L49.1381 164.607L50.7282 158.723Z" fill="#A1C9FF"/>
<path d="M48.184 155.225L47.0709 153.794L45.3217 159.2L46.4348 160.791L48.184 155.225Z" fill="#A1C9FF"/>
<path d="M46.2491 152.043L45.2969 150.501L43.0954 156.02L44.2034 157.61L46.2491 152.043Z" fill="#A1C9FF"/>
<path d="M25.9213 107.36C29.1016 101.636 33.9252 105.717 35.9394 108.473L33.0772 95.275C45.5442 77.8465 71.6656 78.154 83.168 80.4862C87.1116 88.2463 87.1434 98.2433 86.6664 102.272C85.5002 114.357 79.1925 138.369 63.2907 137.733C61.9448 137.679 60.6487 137.522 59.402 137.274L63.2907 150.136L57.248 167.151L44.3675 151.249L35.9394 114.516C34.6672 116.806 32.335 117.167 31.3279 117.06C28.8896 116.53 24.3947 113.848 25.9213 107.36Z" fill="#385E85"/>
<path d="M34.9855 126.92C37.5298 125.393 37.6887 123.368 37.8477 122.308L35.9395 114.516C33.2069 118.078 29.9774 116.902 28.6246 115.788C27.6175 115.046 25.1415 112.379 26.0804 107.996C27.0344 103.544 31.116 105.028 33.0771 105.929C33.0771 105.929 35.0059 108.735 36.5756 110.223C38.1892 111.753 41.1871 113.562 41.1871 113.562C39.8619 111.23 37.5596 106.502 37.2116 103.544C36.8936 100.841 37.4841 98.3853 38.3248 97.0242C41.6641 91.6176 40.71 88.1192 40.233 85.7339L21.4689 108.633C20.0695 113.721 22.0519 116.477 23.2181 117.22C24.6492 118.227 27.3525 120.941 26.7165 123.739C26.0804 126.538 26.0274 127.026 26.0804 126.92C26.8437 134.298 32.3352 134.977 34.9855 134.394C33.9254 132.538 32.4412 128.446 34.9855 126.92Z" fill="#041C42"/>
<path d="M85.2353 81.7584C50.6329 75.9065 28.0947 97.9783 21.1509 109.746C16.6983 94.2149 14.7265 61.4359 42.4593 54.5663C70.1921 47.6967 82.532 69.832 85.2353 81.7584Z" fill="#A1C9FF"/>
<path d="M87.4615 81.5994C63.7995 82.3627 42.8303 91.1405 32.9182 96.0701C53.5906 69.832 83.9631 70.7861 90.0058 71.5812C96.0485 72.3763 96.2075 75.7157 96.2075 77.4649C96.2075 80.1682 94.2993 81.5994 87.4615 81.5994Z" fill="#8DADF1"/>
<path d="M69.3334 73.1715C61.5733 57.1424 52.3185 53.2942 48.661 53.4532L50.8873 53.2942H53.1136C60.6192 54.0574 68.5383 66.7047 71.5597 72.8534L69.3334 73.1715Z" fill="#8DADF1"/>
<path d="M41.8232 87.1651C37.7524 69.2278 43.9965 57.3226 47.3889 53.6122L45.4806 53.9302L43.8904 54.2482C35.4943 68.1146 37.6887 83.0306 39.915 88.7552L41.8232 87.1651Z" fill="#8DADF1"/>
<path d="M60.7464 170.332L57.7251 165.72L58.3611 164.13L61.7005 168.424L60.7464 170.332Z" fill="#A1C9FF"/>
<path d="M62.5955 166.725L58.9973 162.222L59.6333 160.473L63.6088 164.607L62.5955 166.725Z" fill="#A1C9FF"/>
<path d="M64.556 162.612L60.4283 158.087L61.0645 156.338L65.358 160.632L64.556 162.612Z" fill="#A1C9FF"/>
<path d="M66.3124 158.246L62.0186 153.794L62.6552 152.045L66.9485 156.338L66.3124 158.246Z" fill="#A1C9FF"/>
<path d="M67.5843 154.271L62.8137 151.568L63.2905 150.136L68.0613 152.522L67.5843 154.271Z" fill="#A1C9FF"/>
<path d="M55.6579 89.7094L56.2939 91.9356C56.453 93.2078 55.9759 94.1619 53.5906 94.3209C49.1462 94.6172 41.9823 98.1904 38.9609 100.205C39.0882 97.4059 39.9681 96.0701 40.3921 95.7521C44.5266 91.4586 49.7742 89.7094 52.4775 88.9143C54.6402 88.2782 55.4989 89.1793 55.6579 89.7094Z" fill="#041C42"/>
<path d="M76.9663 85.5749C77.9046 86.044 80.3056 87.9601 81.2598 89.2323C79.5106 89.0733 78.0232 88.7798 76.6482 88.5962C69.5598 87.65 66.8746 89.6278 65.676 90.0274C63.2906 94.4799 68.2241 106.457 69.0154 108.633C69.6515 110.382 70.4466 111.972 70.4466 111.972C70.4466 111.972 72.0686 115.057 69.6515 115.947C67.2344 116.838 63.5558 116.318 62.0186 115.947L62.0155 115.947C61.5388 115.832 60.9055 115.679 60.9055 114.993C60.9055 114.306 61.2235 113.721 62.0186 113.88C64.5041 114.377 67.7433 114.516 69.0154 114.039C68.2203 112.608 66.6301 107.647 64.7219 101.159C62.8137 94.6707 62.6547 88.7552 63.5643 86.529C63.8968 85.6186 64.8244 85.2979 65.3579 85.2568L68.0613 84.6207C73.6269 83.9847 75.6941 84.9388 76.9663 85.5749Z" fill="#041C42"/>
<path d="M51.3643 102.272C51.3596 102.201 51.357 102.133 51.3562 102.065C51.3293 99.7748 54.9587 99.804 55.1668 102.085C55.1724 102.146 55.177 102.208 55.1808 102.272C55.1844 102.334 55.1869 102.395 55.1881 102.455C55.2384 104.816 51.5214 104.628 51.3643 102.272Z" fill="#041C42"/>
<path d="M70.6141 98.6144C70.6094 98.5439 70.6067 98.4751 70.6059 98.408C70.579 96.1173 74.2084 96.1465 74.4165 98.4279C74.4221 98.4887 74.4267 98.5508 74.4305 98.6144C74.4341 98.6767 74.4366 98.7376 74.4379 98.7973C74.4881 101.158 70.7712 100.971 70.6141 98.6144Z" fill="#041C42"/>
<path d="M53.9086 123.262C54.5447 122.881 55.2338 123.633 55.4988 124.057C58.8382 128.033 60.5874 127.744 62.6547 127.556C65.3182 127.314 68.0083 125.224 69.0154 124.057C69.3334 123.633 69.8105 122.785 70.4466 123.262C70.9863 123.667 70.6056 124.375 70.4466 124.693C70.3194 124.948 69.5455 125.86 69.1744 126.284C68.1143 127.291 65.3262 129.464 61.3825 129.464C57.4389 129.464 54.5447 126.231 53.7496 124.693C53.5376 124.375 53.2725 123.644 53.9086 123.262Z" fill="#041C42"/>
<path d="M49.6151 133.598C52.5411 135.761 57.301 136.938 59.3152 137.256L63.2907 150.136C56.5483 143.267 51.3643 136.249 49.6151 133.598Z" fill="#2C4D70"/>
<path d="M258.088 146.552L308.497 139.231L299.274 100.398C299.274 100.398 294.026 60.1329 266.039 59.0189C238.052 57.9048 231.214 72.1223 228.67 79.0719L204.976 137.48L258.088 146.552Z" fill="#5B7FA1"/>
<path d="M299.91 126.658L302.136 140.027L299.433 140.504L297.684 126.976C297.631 126.552 297.747 125.671 298.638 125.544C299.528 125.417 299.857 126.234 299.91 126.658Z" fill="#385E85"/>
<path d="M293.549 121.406L296.412 140.823L293.549 141.3L291.005 121.724C290.846 121.035 290.814 119.624 291.959 119.496C293.104 119.369 293.496 120.716 293.549 121.406Z" fill="#385E85"/>
<path d="M286.871 127.613L288.779 141.937L285.916 142.414L284.326 128.09C284.167 127.242 284.135 125.512 285.28 125.385C286.425 125.258 286.818 126.817 286.871 127.613Z" fill="#385E85"/>
<path d="M276.216 107.242C278.867 103.74 284.422 98.8385 285.439 107.242C286.712 117.746 280.669 118.064 276.216 115.517L266.357 154.828C262.117 155.836 252.554 156.897 248.229 153.077L252.841 132.163C250.695 132.831 248.508 133.254 246.321 133.342C233.727 133.852 227.822 116.154 226.444 107.242C225.596 102.785 225.012 91.4538 229.465 81.7775L280.987 76.3663L276.216 107.242Z" fill="#8DADF1"/>
<path d="M274.944 108.674L279.079 103.899L287.348 77.7987C283.213 71.3796 270.937 58.7642 254.908 59.6555C238.879 60.5467 228.193 73.8199 224.853 80.3451C236.812 89.0029 259.731 90.2125 269.697 89.735C274.149 83.1143 276.216 81.5653 276.693 81.6183C276.948 84.9287 275.633 101.035 274.944 108.674Z" fill="#5B7FA1"/>
<path d="M266.993 76.3663C263.813 79.9313 263.442 86.7642 263.654 89.735H262.064C261.936 82.8597 263.919 78.2761 264.926 76.8438C265.403 76.1011 266.484 74.7111 266.993 75.0931C267.502 75.4751 267.205 76.1011 266.993 76.3663Z" fill="#385E85"/>
<path d="M260.371 74.1999C256.976 77.5612 256.197 86.3778 256.225 89.3561L255.791 89.3561L254.59 89.2576C254.59 80.9818 256.994 75.8238 258.088 74.4566C258.61 73.7448 259.965 72.5164 260.449 72.9292C260.934 73.3419 260.599 73.9483 260.371 74.1999Z" fill="#385E85"/>
<path d="M254.196 73.0139C250.625 76.1877 248.987 85.5109 248.855 88.4864L248.388 88.4864L247.275 88.3027C247.752 80.3451 250.922 74.5558 252.087 73.2494C252.647 72.5667 253.881 71.311 254.342 71.7492C254.804 72.1874 254.437 72.7749 254.196 73.0139Z" fill="#385E85"/>
<path d="M247.343 71.8347C243.506 74.6805 241.149 84.0773 240.755 87.0295L240.119 86.8703L239.165 86.552C239.801 80.5043 243.945 73.0812 245.222 71.8829C245.839 71.2524 247.18 70.1107 247.601 70.5879C248.022 71.0652 247.604 71.618 247.343 71.8347Z" fill="#385E85"/>
<path d="M240.89 70.9366C236.652 73.1389 233.08 81.3999 232.224 84.2525L230.737 83.6873C233.917 74.6157 237.338 71.6293 238.788 70.6482C239.497 70.1235 241.001 69.2084 241.341 69.7464C241.682 70.2843 241.182 70.764 240.89 70.9366Z" fill="#385E85"/>
<path d="M266.834 151.963C257.42 154.637 250.72 152.653 248.547 151.326C241.868 153.873 225.998 159.73 215.948 162.785C205.898 165.841 189.498 167.029 182.554 167.242L196.707 189.364C206.375 190.891 226.497 188.727 235.349 187.454L226.762 249.841H319.666V204.98C317.314 197.774 314.462 190.532 311.041 183.793C299.083 160.239 276.587 152.759 266.834 151.963Z" fill="#041C42"/>
<path d="M292.595 249.841V188.09C292.595 188.09 292.595 186.499 291.323 186.499C290.051 186.499 290.21 188.09 290.21 188.09V249.841H292.595Z" fill="#004079"/>
<path d="M251.728 170.902C251.728 169.12 253 168.992 253.636 169.151C255.671 170.043 254.696 171.645 253.954 172.334C253.212 172.6 251.728 172.685 251.728 170.902Z" fill="#155D9C"/>
<path d="M250.614 183.684C250.614 181.902 251.886 181.775 252.523 181.934C254.558 182.825 253.583 184.427 252.841 185.117C252.098 185.382 250.614 185.467 250.614 183.684Z" fill="#155D9C"/>
<path d="M250.296 196.417C250.296 194.634 251.568 194.507 252.204 194.666C254.24 195.557 253.265 197.159 252.523 197.849C251.78 198.114 250.296 198.199 250.296 196.417Z" fill="#155D9C"/>
<path d="M249.978 209.785C249.978 208.003 251.25 207.875 251.887 208.035C253.922 208.926 252.947 210.528 252.205 211.218C251.463 211.483 249.978 211.568 249.978 209.785Z" fill="#155D9C"/>
<path d="M249.024 222.517C249.024 220.735 250.296 220.607 250.932 220.767C252.968 221.658 251.992 223.26 251.25 223.95C250.508 224.215 249.024 224.3 249.024 222.517Z" fill="#155D9C"/>
<path d="M248.706 235.249C248.706 233.467 249.978 233.34 250.614 233.499C252.65 234.39 251.675 235.992 250.932 236.682C250.19 236.947 248.706 237.032 248.706 235.249Z" fill="#155D9C"/>
<path d="M255.703 164.059C262.572 162.276 266.039 155.252 266.993 151.963C262.382 153.077 256.498 153.395 255.703 153.236C257.102 155.528 256.286 161.406 255.703 164.059Z" fill="white"/>
<path d="M250.137 164.059C246.957 160.876 247.752 154.191 248.547 151.326C250.932 152.6 253.636 152.918 254.113 153.077C251.696 154.478 250.402 160.982 250.137 164.059Z" fill="white"/>
<path d="M230.101 131.433L227.239 141.141L225.012 140.823L228.193 130.796C228.352 130.053 228.893 128.663 229.783 129.045C230.674 129.427 230.366 130.796 230.101 131.433Z" fill="#385E85"/>
<path d="M224.535 124.112L218.811 139.868L216.266 139.39L222.309 123.634L222.309 123.634C222.574 122.945 223.104 121.565 224.217 122.043C225.33 122.52 224.535 124.112 224.535 124.112Z" fill="#385E85"/>
<path d="M215.153 128.409L211.337 138.435L208.792 137.958L212.927 127.931C213.192 127.348 213.913 126.276 214.676 126.658C215.439 127.04 215.312 127.984 215.153 128.409Z" fill="#385E85"/>
<path d="M252.364 94.987C252.618 95.4963 253.477 95.6009 254.749 95.4645C259.201 94.987 266.675 96.9499 269.379 98.4883C269.379 96.1011 267.311 94.0128 266.516 93.5546C261.269 90.5308 256.498 90.0533 254.431 90.0533C252.777 90.0533 252.046 91.0082 252.046 92.2814C252.046 93.2363 252.109 94.4777 252.364 94.987Z" fill="#041C42"/>
<path d="M246.321 90.5308C246.448 91.9314 245.897 93.3955 245.367 94.0321C244.89 94.3504 244.519 94.1382 244.413 94.0321C239.483 90.8491 237.257 90.69 237.257 90.69C237.257 90.69 232.221 90.0534 230.578 90.0534C235.031 86.6157 239.801 87.5069 242.027 88.1435C243.459 88.5528 246.194 89.1303 246.321 90.5308Z" fill="#041C42"/>
<path d="M244.89 98.3292C246.289 94.5095 246.321 91.9631 246.162 91.1674L244.254 93.2363C245.049 96.101 239.642 105.014 239.483 105.332C239.324 105.65 236.144 110.584 235.985 111.061L235.985 111.061C235.826 111.539 235.189 113.449 238.37 115.836C240.914 117.746 244.307 117.268 245.685 116.791C246.109 116.685 246.893 116.281 246.639 115.517C246.384 114.754 245.685 114.881 245.367 115.04C243.331 115.804 241.444 115.464 240.755 115.199C239.96 114.775 238.243 113.671 237.734 112.653C237.225 111.634 237.946 110.531 238.37 110.106C239.96 107.772 243.49 102.149 244.89 98.3292Z" fill="#041C42"/>
<path d="M252.364 100.716C252.872 99.4433 253.848 99.3372 254.272 99.4433C254.855 99.6024 255.957 100.366 255.703 102.149C255.448 103.931 253.901 103.846 253.159 103.581C252.417 103.316 251.855 101.99 252.364 100.716Z" fill="#041C42"/>
<path d="M235.862 98.8378C236.371 97.5646 237.346 97.4585 237.77 97.5646C238.353 97.7237 239.456 98.4876 239.202 100.27C238.947 102.053 237.399 101.968 236.657 101.703C235.915 101.437 235.353 100.111 235.862 98.8378Z" fill="#041C42"/>
<path d="M242.345 121.884C242.6 122.775 243.299 123.634 243.618 123.953C245.271 125.48 246.003 125.544 246.957 125.703C249.183 125.703 249.66 125.385 250.614 124.748C251.561 124.117 252.735 122.308 253.159 121.406C253.318 120.982 253.795 120.197 254.431 120.451C255.067 120.706 254.696 121.831 254.431 122.361C252.904 125.799 250.19 127.082 249.024 127.295C248.176 127.454 246.098 127.581 244.572 126.817C242.663 125.862 241.391 123.316 241.073 122.52C240.819 121.884 241.073 121.512 241.232 121.406C241.497 121.194 242.091 120.992 242.345 121.884Z" fill="#041C42"/>
<path d="M266.357 123.952C260.156 130.478 253 132.069 252.841 132.228L250.773 141.777C257.389 137.703 263.919 128.196 266.357 123.952Z" fill="#7E9BD9"/>
<path d="M187.961 160.958C183.127 162.487 179.056 157.347 177.625 154.586L160.928 151.559C160.822 154.002 159.688 159.301 155.999 160.958C152.309 162.614 150.433 159.099 149.956 157.135C149.32 159.418 147.539 163.761 145.503 162.869C143.468 161.977 142.959 156.444 142.959 153.79C142.8 158.462 141.178 166.66 135.962 162.073C130.746 157.485 132.305 149.223 133.736 145.666C132.358 147.259 129.029 149.903 126.739 147.737C124.449 145.57 125.785 141.312 126.739 139.453C124.195 138.657 118.725 135.917 117.198 131.33C115.671 126.742 117.304 121.879 118.311 120.02C116.244 118.799 112.555 114.764 114.336 108.392C116.117 102.02 120.908 101.277 123.082 101.702C120.484 100.268 115.64 95.6489 117.039 88.6402C118.438 81.6315 125.679 81.8969 129.124 82.9058C127.587 81.3129 125.785 77.3944 130.874 74.4634C135.74 71.6602 141.771 75.8219 144.513 78.559C137.097 70.7037 142.953 62.5216 152.818 62.8353C160.833 63.0902 170.151 72.7112 173.809 77.4899C176.883 73.4015 184.113 66.6583 188.438 72.3927C192.764 78.1271 188.438 83.4898 185.735 85.4544C187.325 84.7642 190.983 84.0845 192.891 86.888C194.799 89.6915 193.686 93.6844 192.891 95.3303C196.018 93.2596 202.591 90.488 203.863 95.9675C205.135 101.447 199.517 108.233 196.548 110.941C198.615 111.259 202.654 112.948 202.273 117.153C201.891 121.358 197.343 123.578 195.117 124.162C197.29 124.215 201.287 125.85 199.888 131.967C198.488 138.084 192.838 139.4 190.187 139.294C192.891 139.454 197.948 141.429 196.548 148.055C195.149 154.682 189.922 153.683 187.484 152.356C189.657 154.586 192.795 159.428 187.961 160.958Z" fill="#004079"/>
<path d="M206.247 184.851C193.653 166.373 179.851 163.984 168.719 163.984C158.702 163.984 147.443 165.866 133.736 178.161C120.062 190.426 114.389 232.85 114.972 249.841H222.945C222.415 238.054 218.841 203.329 206.247 184.851Z" fill="#385E85"/>
<path d="M194.64 218.939V192.656C194.64 192.656 177.922 197.594 167.209 197.594C156.497 197.594 139.779 192.656 139.779 192.656V218.939C139.779 218.939 156.335 225.556 167.209 225.629C178.385 225.704 194.64 218.939 194.64 218.939Z" fill="#004079"/>
<path d="M195.594 249.682V190.267C195.594 190.267 195.594 189.311 194.799 189.311C194.004 189.311 194.004 190.267 194.004 190.267L194.163 249.682H195.594Z" fill="#041C42"/>
<path d="M140.256 249.682V190.267C140.256 190.267 140.256 189.311 139.46 189.311C138.665 189.311 138.665 190.267 138.665 190.267L138.824 249.682H140.256Z" fill="#041C42"/>
<path d="M179.692 126.551C181.229 123.737 184.59 120.052 185.735 127.825C186.88 135.599 182.184 135.312 179.692 134.197L176.671 164.462C174.551 167.595 168.148 172.203 159.497 165.577L160.928 151.623C159.242 152.294 157.488 152.772 155.68 152.993C141.369 154.745 132.464 129.418 131.669 116.994C131.033 107.054 135.432 96.0737 137.711 91.826H181.76L179.692 126.551Z" fill="#CAE0FF"/>
<path d="M168.084 173.541C158.797 173.669 155.203 168.285 154.567 165.896C156.603 165.131 158.808 164.727 159.656 164.621C160.504 166.055 163.377 168.922 168.084 168.922C172.791 168.922 175.664 166.055 176.512 164.621C178.42 164.621 181.229 165.471 182.396 165.896C181.495 168.179 177.371 173.414 168.084 173.541Z" fill="#004079"/>
<path d="M175.717 127.188C177.116 129.864 179.056 127.772 179.851 126.392L185.735 91.826L134.531 85.2952L129.124 115.56C130.291 115.56 133.259 114.891 135.803 112.215C138.348 109.539 136.015 103.879 134.531 101.383C135.591 102.711 138.634 105.111 142.323 104.091C146.012 103.072 145.98 97.5073 145.503 94.8525C146.033 97.4011 148.302 102.275 153.136 101.383C157.97 100.491 159.815 95.1711 160.133 92.6225C160.186 95.2773 161.437 100.746 166.017 101.383C170.596 102.021 174.604 95.8082 176.035 92.6225C175.293 94.3746 173.65 98.8985 173.014 102.976C172.377 107.054 177.837 107.012 180.646 106.481C179.48 106.905 177.18 108.647 177.307 112.215C177.434 115.783 179.586 117.843 180.646 118.427C178.42 120.233 174.317 124.512 175.717 127.188Z" fill="#004079"/>
<path d="M158.861 111.419C158.988 108.36 160.716 107.702 161.564 107.755C171.582 108.074 173.014 112.534 174.286 115.401C175.303 117.695 173.862 117.525 173.014 117.153C168.084 115.879 165.381 116.038 164.268 116.038C163.154 116.038 161.087 116.675 160.133 116.038C159.179 115.401 158.702 115.242 158.861 111.419Z" fill="#041C42"/>
<path d="M153.136 115.082C154.536 115.21 154.249 112.852 154.249 112.852C154.249 112.852 153.825 108.817 153.613 108.711C153.242 108.233 151.61 107.468 148.048 108.233C144.486 108.997 142.005 110.675 141.21 111.419C140.256 112.48 138.348 114.923 138.348 116.197C138.348 117.472 139.408 117.472 139.938 117.312C140.68 117.1 142.959 116.42 146.139 115.401C150.115 114.126 151.387 114.923 153.136 115.082Z" fill="#041C42"/>
<path d="M154.249 118.109C154.885 115.815 154.514 113.861 154.249 113.171L152.818 114.445C153.581 115.847 152.606 118.746 152.023 120.02C150.91 121.932 148.493 125.978 147.73 126.87C146.775 127.985 145.503 130.055 146.298 132.126C147.093 134.197 148.843 134.515 151.387 134.834C153.422 135.089 154.355 134.622 154.567 134.356C154.726 134.144 154.981 133.655 154.726 133.4C154.472 133.146 153.984 133.188 153.772 133.241C152.606 133.4 149.892 133.464 148.366 132.445C146.839 131.425 147.518 129.684 148.048 128.94C149.85 126.286 153.613 120.402 154.249 118.109Z" fill="#041C42"/>
<path d="M161.882 120.339C163.154 120.466 163.26 121.985 163.154 122.728C162.995 123.79 162.359 125.85 161.087 125.595C159.815 125.34 159.815 123.578 159.974 122.728C160.08 121.879 160.61 120.211 161.882 120.339Z" fill="#041C42"/>
<path d="M145.417 119.549C146.689 119.677 146.795 121.195 146.689 121.939C146.53 123.001 145.894 125.061 144.621 124.806C143.349 124.551 143.349 122.788 143.508 121.939C143.614 121.089 144.144 119.422 145.417 119.549Z" fill="#041C42"/>
<path d="M163.154 136.427C161.628 138.211 158.172 138.657 156.635 138.657C152.5 138.657 153.295 138.179 150.433 137.064C148.143 136.172 146.828 137.33 146.457 138.02C145.98 138.869 145.344 140.951 146.616 142.48C148.207 144.391 150.115 146.462 154.567 146.94C159.02 147.418 162.512 146.456 164.745 144.391C166.812 142.48 167.766 140.728 167.766 137.542C167.766 135.471 164.745 134.569 163.154 136.427Z" fill="#041C42"/>
<path d="M164.903 142.799C160.292 146.94 155.044 145.825 154.726 145.825C154.885 144.71 156.03 142.321 159.338 141.684C162.645 141.046 164.426 142.161 164.903 142.799Z" fill="#CAE0FF"/>
<path d="M172.695 142.321C169.038 147.259 163.578 150.763 160.928 151.719L159.815 162.391C168.72 155.765 171.423 147.737 172.695 142.321Z" fill="#B1C5E0"/>
<path d="M21.1349 219.745L13.0284 219.456L12.7389 221.917L23.4511 222.351V190.938C23.4993 190.407 23.3353 189.346 22.293 189.346C21.2507 189.346 21.0867 190.407 21.1349 190.938V219.745Z" fill="#A0B6CB"/>
</svg>
