<?xml version="1.0" encoding="UTF-8"?>
<svg width="320px" height="250px" viewBox="0 0 320 250" version="1.1" xmlns="http://www.w3.org/2000/svg" xmlns:xlink="http://www.w3.org/1999/xlink">
    <!-- Generator: Sketch 59.1 (86144) - https://sketch.com -->
    <title>onboarding-tu-puedes-ayudar</title>
    <desc>Created with Sketch.</desc>
    <g id="Page-1" stroke="none" stroke-width="1" fill="none" fill-rule="evenodd">
        <g id="onboarding-tu-puedes-ayudar" fill-rule="nonzero">
            <rect id="Rectangle" fill="#E9F2FF" x="0" y="0" width="319.629" height="249.855"></rect>
            <path d="M90.7788,94.7935 C89.9269,89.6821 86.7728,87.4915 85.3022,87.0351 L78.6087,124.7622 C80.6776,131.2123 85.86,133.0276 88.1926,133.1291 C85.3935,128.1394 88.7504,120.097 90.7788,116.6995 C94.1864,120.8373 98.0808,119.742 99.602,118.6772 C95.6468,117.0038 95.951,113.2006 97.4723,110.9188 C98.6893,109.0933 96.2553,105.493 94.8861,103.921 C93.872,103.0083 91.6307,99.9049 90.7788,94.7935 Z" id="Path" fill="#041C42"></path>
            <path d="M17.2199,219.393 C15.2752,226.224 13.9787,242.41 13.5736,249.201 L2.0125,249.201 C2.0125,249.201 1.78978,239.725 2.0125,233.659 C2.22888,227.765 3.1044,218.588 3.1044,218.588 L17.2199,219.393 Z" id="Path" fill="#5B7FA1"></path>
            <path d="M148.13,173.594 C139.246,172.621 124.855,169.03 118.77,167.357 L112.228,184.091 C115.514,186.647 126.477,188.604 131.548,189.263 L148.13,173.594 Z" id="Path" fill="#5B7FA1"></path>
            <path d="M15.0207,249.201 L18.2153,219.904 L6.13789,219.31 L-2.84217094e-14,218.897 C0.79721,212.895 3.14088,199.445 6.13789,193.668 C22.302,156.7631 56.1118,152.5216 57.0072,152.9054 C74.4104,152.9054 105.941,162.236 119.531,166.901 L110.86,198.847 L88.8014,191.241 C90.6269,202.437 93.8215,234.546 95.1907,249.201 L15.0207,249.201 Z" id="Path" fill="#CAE0FF"></path>
            <path d="M60.9625,178.006 C56.3379,172.895 48.184,161.171 44.6851,155.9479 L48.184,154.7309 L66.2869,153.5139 L71.307,154.2745 C69.2381,163.524 63.5487,173.949 60.9625,178.006 Z" id="Path" fill="#8DADF1"></path>
            <polygon id="Path" fill="#A1C9FF" points="59.5937 168.878 58.5288 167.509 56.7033 172.834 58.0724 174.507"></polygon>
            <polygon id="Path" fill="#A1C9FF" points="57.0071 165.532 55.9422 164.163 54.1167 169.487 55.4859 171.16"></polygon>
            <polygon id="Path" fill="#A1C9FF" points="54.2689 161.881 53.204 160.5116 51.5306 165.836 52.7476 167.509"></polygon>
            <polygon id="Path" fill="#A1C9FF" points="51.835 158.534 50.7701 157.1648 49.0967 162.337 50.1616 163.858"></polygon>
            <polygon id="Path" fill="#A1C9FF" points="49.9843 155.4904 49.0734 154.0143 46.9674 159.2945 48.0273 160.8153"></polygon>
            <path d="M30.5375,112.7442 C33.58,107.2676 38.1945,111.1722 40.1214,113.809 L37.3832,101.1826 C49.3098,84.5097 74.2989,84.8038 85.3027,87.035 C89.0754,94.4587 89.1058,104.0223 88.6494,107.8762 C87.5338,119.4377 81.4995,142.4086 66.287,141.8001 C64.9995,141.7486 63.7595,141.5979 62.5669,141.3609 L66.287,153.6659 L60.5062,169.943 L48.1841,154.7308 L40.1214,119.5898 C38.9043,121.7804 36.6732,122.1252 35.7098,122.0238 C33.3772,121.5167 29.0771,118.9509 30.5375,112.7442 Z" id="Path" fill="#385E85"></path>
            <path d="M39.2088,131.4556 C41.6428,129.9952 41.7948,128.0581 41.9469,127.0439 L40.1214,119.5898 C37.5073,122.9974 34.4177,121.8717 33.1237,120.8068 C32.1602,120.0969 29.7915,117.5448 30.6897,113.3527 C31.6024,109.0932 35.507,110.513 37.3832,111.375 C37.3832,111.375 39.2283,114.0589 40.7299,115.4824 C42.2736,116.9459 45.1415,118.6771 45.1415,118.6771 C43.8738,116.4459 41.6713,111.9226 41.3384,109.0932 C41.0342,106.507 41.5991,104.1581 42.4033,102.856 C45.5979,97.6838 44.6852,94.337 44.2288,92.0551 L26.2781,113.9612 C24.9394,118.8292 26.8359,121.466 27.9514,122.1759 C29.3206,123.1394 31.9067,125.7357 31.2982,128.4131 C30.6897,131.0905 30.639,131.557 30.6897,131.4556 C31.4199,138.5142 36.6733,139.1633 39.2088,138.6055 C38.1946,136.8307 36.7748,132.916 39.2088,131.4556 Z" id="Path" fill="#041C42"></path>
            <path d="M87.2801,88.2521 C54.1776,82.6539 32.6164,103.7688 25.9736,115.0261 C21.7141,100.1685 19.8277,68.81046 46.3584,62.23865 C72.889,55.66684 84.694,76.8427 87.2801,88.2521 Z" id="Path" fill="#A1C9FF"></path>
            <path d="M89.4097,88.0999 C66.7735,88.8301 46.7133,97.2275 37.2308,101.9433 C57.0071,76.8427 86.063,77.7554 91.8438,78.516 C97.6245,79.2767 97.7766,82.4713 97.7766,84.1447 C97.7766,86.7308 95.9511,88.0999 89.4097,88.0999 Z" id="Path" fill="#8DADF1"></path>
            <path d="M72.0675,80.0373 C64.6438,64.70311 55.7901,61.0216713 52.2912,61.173801 L54.421,61.0216713 L56.5507,61.0216713 C63.731,61.751876 71.3069,73.8509 74.1972,79.7331 L72.0675,80.0373 Z" id="Path" fill="#8DADF1"></path>
            <path d="M45.75,93.4243 C41.8556,76.2646 47.8291,64.8755 51.0744,61.325905 L49.2489,61.630155 L47.7276,61.934406 C39.6954,75.1997 41.7947,89.4691 43.9245,94.9456 L45.75,93.4243 Z" id="Path" fill="#8DADF1"></path>
            <polygon id="Path" fill="#A1C9FF" points="63.8531 172.986 60.9627 168.574 61.5712 167.053 64.7658 171.16"></polygon>
            <polygon id="Path" fill="#A1C9FF" points="65.6219 169.536 62.1797 165.227 62.7881 163.554 66.5913 167.509"></polygon>
            <polygon id="Path" fill="#A1C9FF" points="67.4976 165.6 63.5488 161.272 64.1574 159.5987 68.2648 163.706"></polygon>
            <polygon id="Path" fill="#A1C9FF" points="69.1779 161.424 65.0702 157.1647 65.6793 155.4913 69.7864 159.5988"></polygon>
            <polygon id="Path" fill="#A1C9FF" points="70.3945 157.6212 65.8307 155.035 66.2869 153.6659 70.8509 155.9478"></polygon>
            <path d="M58.9849,95.8584 L59.5934,97.9881 C59.7456,99.2051 59.2892,100.1179 57.0073,100.27 C52.7555,100.5534 45.9022,103.9717 43.0118,105.8986 C43.1335,103.2212 43.9752,101.9434 44.3809,101.6391 C48.3362,97.5317 53.3563,95.8584 55.9424,95.0977 C58.0113,94.4892 58.8328,95.3513 58.9849,95.8584 Z" id="Path" fill="#041C42"></path>
            <path d="M79.3695,91.903 C80.2672,92.3518 82.5642,94.1849 83.477,95.4019 C81.8035,95.2498 80.3807,94.969 79.0653,94.7934 C72.2842,93.8883 69.7153,95.7803 68.5686,96.1626 C66.2867,100.4221 71.0064,111.8796 71.7633,113.9612 C72.3718,115.6346 73.1325,117.1558 73.1325,117.1558 C73.1325,117.1558 74.6841,120.1071 72.3718,120.959 C70.0595,121.8109 66.5404,121.3139 65.0698,120.959 L65.0668,120.9582 C64.6108,120.8482 64.0049,120.7019 64.0049,120.0462 C64.0049,119.3891 64.3092,118.8292 65.0698,118.9813 C67.4476,119.4569 70.5463,119.5898 71.7633,119.1335 C71.0027,117.7643 69.4815,113.018 67.656,106.8113 C65.8304,100.6046 65.6783,94.9455 66.5485,92.8158 C66.8666,91.9449 67.754,91.6381 68.2644,91.5988 L70.8506,90.9903 C76.1749,90.3818 78.1525,91.2945 79.3695,91.903 Z" id="Path" fill="#041C42"></path>
            <path d="M54.8777,107.8762 C54.8766,107.8599 54.8757,107.8437 54.8748,107.8277 C54.7522,105.5401 58.3942,105.5893 58.5287,107.8762 C58.5322,107.9358 58.5345,107.9941 58.5357,108.0512 C58.5838,110.3098 55.028,110.1303 54.8777,107.8762 Z" id="Path" fill="#041C42"></path>
            <path d="M73.2929,104.3773 C73.2918,104.3611 73.2908,104.3449 73.29,104.3288 C73.1673,102.0412 76.8093,102.0904 76.9438,104.3773 C76.9474,104.437 76.9497,104.4953 76.9509,104.5524 C76.999,106.8109 73.4431,106.6314 73.2929,104.3773 Z" id="Path" fill="#041C42"></path>
            <path d="M57.3117,127.9568 C57.9202,127.5917 58.5794,128.3117 58.8329,128.7174 C62.0275,132.5205 63.7009,132.2439 65.6786,132.0641 C68.2267,131.8325 70.8001,129.833 71.7636,128.7174 C72.0678,128.3117 72.5242,127.5004 73.1327,127.9568 C73.649,128.344 73.2848,129.0216 73.1327,129.3259 C73.011,129.5693 72.2707,130.4415 71.9157,130.8471 C70.9015,131.8106 68.2343,133.8897 64.4616,133.8897 C60.6889,133.8897 57.9202,130.7964 57.1595,129.3259 C56.9567,129.0216 56.7031,128.3219 57.3117,127.9568 Z" id="Path" fill="#041C42"></path>
            <path d="M53.2039,137.8449 C56.0031,139.9138 60.5567,141.0396 62.4836,141.3438 L66.2867,153.666 C59.8366,147.0942 54.8773,140.3804 53.2039,137.8449 Z" id="Path" fill="#2C4D70"></path>
            <path d="M25.9588,220.257 L18.2036,219.98 L17.9267,222.335 L28.1745,222.75 L28.1745,192.699 C28.2207,192.191 28.0637,191.176 27.0667,191.176 C26.0696,191.176 25.9126,192.191 25.9588,192.699 L25.9588,220.257 Z" id="Path" fill="#A0B6CB"></path>
            <path d="M252.64,150.2368 L300.863,143.2333 L292.04,106.0837 C292.04,106.0837 287.02,67.56397 260.246,66.49819 C233.472,65.43241 226.931,79.0336 224.497,85.682 L201.83,141.5585 L252.64,150.2368 Z" id="Path" fill="#5B7FA1"></path>
            <path d="M292.649,131.2053 L294.779,143.9945 L292.193,144.4513 L290.519,131.5098 C290.469,131.1038 290.58,130.2614 291.432,130.1396 C292.284,130.0178 292.598,130.7993 292.649,131.2053 Z" id="Path" fill="#385E85"></path>
            <path d="M286.564,126.1811 L289.302,144.7558 L286.564,145.2126 L284.13,126.4856 C283.978,125.8258 283.948,124.4759 285.043,124.3541 C286.138,124.2323 286.513,125.5213 286.564,126.1811 Z" id="Path" fill="#385E85"></path>
            <path d="M280.174,132.1188 L282,145.8215 L279.262,146.2783 L277.74,132.5756 C277.588,131.7636 277.558,130.1091 278.653,129.9873 C279.748,129.8655 280.124,131.3576 280.174,132.1188 Z" id="Path" fill="#385E85"></path>
            <path d="M269.982,112.6306 C272.518,109.281 277.832,104.5917 278.806,112.6306 C280.023,122.6792 274.242,122.9837 269.982,120.5477 L260.55,158.154 C256.494,159.1182 247.346,160.1332 243.208,156.4792 L247.62,136.4721 C245.567,137.1111 243.475,137.5153 241.383,137.5999 C229.334,138.0871 223.685,121.1567 222.367,112.6306 C221.556,108.3675 220.998,97.5272 225.257,88.2702 L274.546,83.0937 L269.982,112.6306 Z" id="Path" fill="#8DADF1"></path>
            <path d="M268.765,114.0009 L272.72,109.4333 L280.631,84.464 C276.676,78.3231 264.932,66.25461 249.597,67.10722 C234.263,67.95983 224.04,80.6577 220.846,86.9 C232.286,95.1825 254.212,96.3396 263.745,95.8829 C268.005,89.5492 269.982,88.0673 270.439,88.118 C270.682,91.2848 269.424,106.6928 268.765,114.0009 Z" id="Path" fill="#5B7FA1"></path>
            <path d="M261.159,83.0937 C258.116,86.5041 257.762,93.0408 257.964,95.8828 L256.443,95.8828 C256.321,89.3056 258.218,84.9207 259.181,83.5504 C259.638,82.8399 260.672,81.5102 261.159,81.8756 C261.646,82.2411 261.362,82.8399 261.159,83.0937 Z" id="Path" fill="#385E85"></path>
            <path d="M254.823,81.0211 C251.576,84.2367 250.83,92.6711 250.857,95.5203 L250.443,95.5203 L249.293,95.4261 C249.293,87.509 251.594,82.5746 252.64,81.2666 C253.139,80.5858 254.435,79.4106 254.899,79.8054 C255.362,80.2003 255.042,80.7804 254.823,81.0211 Z" id="Path" fill="#385E85"></path>
            <path d="M248.916,79.8865 C245.501,82.9228 243.933,91.8418 243.807,94.6883 L243.36,94.6883 L242.296,94.5126 C242.752,86.9 245.784,81.3616 246.899,80.1118 C247.434,79.4588 248.615,78.2575 249.057,78.6767 C249.498,79.0959 249.147,79.6579 248.916,79.8865 Z" id="Path" fill="#385E85"></path>
            <path d="M242.36,78.7585 C238.69,81.481 236.436,90.4704 236.059,93.2946 L235.45,93.1424 L234.537,92.8379 C235.146,87.0523 239.11,79.951 240.331,78.8046 C240.922,78.2014 242.204,77.1092 242.607,77.5658 C243.01,78.0224 242.61,78.5512 242.36,78.7585 Z" id="Path" fill="#385E85"></path>
            <path d="M236.187,77.8993 C232.133,80.0061 228.716,87.909 227.897,90.6379 L226.475,90.0972 C229.517,81.4189 232.79,78.5619 234.176,77.6234 C234.855,77.1214 236.294,76.246 236.619,76.7607 C236.945,77.2753 236.467,77.7342 236.187,77.8993 Z" id="Path" fill="#385E85"></path>
            <path d="M243.513,154.8044 C245.592,156.0732 252.001,157.9712 261.007,155.4134 C270.337,156.1747 291.858,163.331 303.298,185.864 C306.571,192.31 309.299,199.239 311.549,206.132 C314.431,214.963 318.884,238.257 320,249.048 L311.549,249.048 L222.671,249.048 L230.886,189.366 C222.418,190.584 203.169,192.654 193.92,191.193 L180.381,170.03 C187.023,169.827 202.713,168.69 212.327,165.767 C221.941,162.843 237.123,157.2404 243.513,154.8044 Z" id="Path" fill="#041C42"></path>
            <path d="M285.651,249.048 L285.651,189.975 C285.651,189.975 285.651,188.452 284.434,188.452 C283.217,188.452 283.369,189.975 283.369,189.975 L283.369,249.048 L285.651,249.048 Z" id="Path" fill="#004079"></path>
            <path d="M246.555,173.531 C246.555,171.826 247.772,171.704 248.38,171.857 C250.328,172.709 249.395,174.242 248.685,174.902 C247.975,175.155 246.555,175.237 246.555,173.531 Z" id="Path" fill="#155D9C"></path>
            <path d="M245.49,185.76 C245.49,184.055 246.707,183.933 247.316,184.085 C249.263,184.938 248.33,186.47 247.62,187.13 C246.91,187.384 245.49,187.465 245.49,185.76 Z" id="Path" fill="#155D9C"></path>
            <path d="M245.185,197.94 C245.185,196.235 246.402,196.113 247.011,196.265 C248.958,197.118 248.025,198.65 247.315,199.31 C246.605,199.564 245.185,199.645 245.185,197.94 Z" id="Path" fill="#155D9C"></path>
            <path d="M244.882,210.729 C244.882,209.024 246.099,208.902 246.707,209.054 C248.654,209.907 247.721,211.44 247.011,212.099 C246.301,212.353 244.882,212.434 244.882,210.729 Z" id="Path" fill="#155D9C"></path>
            <path d="M243.969,222.909 C243.969,221.204 245.186,221.082 245.794,221.234 C247.742,222.087 246.808,223.62 246.099,224.279 C245.389,224.533 243.969,224.614 243.969,222.909 Z" id="Path" fill="#155D9C"></path>
            <path d="M243.665,235.089 C243.665,233.384 244.882,233.262 245.49,233.415 C247.438,234.267 246.505,235.8 245.795,236.46 C245.085,236.713 243.665,236.795 243.665,235.089 Z" id="Path" fill="#155D9C"></path>
            <path d="M250.358,166.985 C256.93,165.279 260.246,158.5599 261.159,155.4133 C256.747,156.4791 251.119,156.7836 250.358,156.6314 C251.697,158.8238 250.916,164.447 250.358,166.985 Z" id="Path" fill="#FFFFFF"></path>
            <path d="M245.034,166.985 C241.992,163.94 242.752,157.5449 243.513,154.8044 C245.795,156.0224 248.381,156.3269 248.837,156.4792 C246.525,157.819 245.288,164.041 245.034,166.985 Z" id="Path" fill="#FFFFFF"></path>
            <path d="M225.866,135.7729 L223.128,145.0603 L220.998,144.7558 L224.04,135.1639 C224.193,134.4534 224.71,133.1237 225.562,133.4891 C226.414,133.8545 226.119,135.1639 225.866,135.7729 Z" id="Path" fill="#385E85"></path>
            <path d="M220.542,128.7693 L215.065,143.8423 L212.631,143.3855 L218.412,128.3126 L218.412,128.3126 C218.666,127.6528 219.173,126.3333 220.238,126.79 C221.302,127.2468 220.542,128.7693 220.542,128.7693 Z" id="Path" fill="#385E85"></path>
            <path d="M211.566,132.8801 L207.915,142.472 L205.481,142.0152 L209.437,132.4234 C209.69,131.8651 210.38,130.8399 211.11,131.2053 C211.84,131.5707 211.719,132.4741 211.566,132.8801 Z" id="Path" fill="#385E85"></path>
            <path d="M247.164,100.9072 C247.407,101.3944 248.228,101.4944 249.445,101.3639 C253.705,100.9072 260.855,102.7849 263.441,104.2567 C263.441,101.9729 261.463,99.9752 260.703,99.5369 C255.683,96.6441 251.119,96.1873 249.141,96.1873 C247.559,96.1873 246.859,97.1009 246.859,98.3189 C246.859,99.2324 246.92,100.42 247.164,100.9072 Z" id="Path" fill="#041C42"></path>
            <path d="M241.383,96.6441 C241.504,97.9839 240.977,99.3847 240.47,99.9937 C240.014,100.2982 239.659,100.0952 239.557,99.9937 C234.841,96.9486 232.712,96.7964 232.712,96.7964 C232.712,96.7964 227.894,96.1874 226.322,96.1874 C230.582,92.8987 235.146,93.7513 237.275,94.3603 C238.644,94.7518 241.261,95.3043 241.383,96.6441 Z" id="Path" fill="#041C42"></path>
            <path d="M240.013,104.1044 C241.352,100.4504 241.383,98.0144 241.23,97.2531 L239.405,99.2324 C240.166,101.9729 234.993,110.499 234.841,110.8035 C234.689,111.108 231.647,115.8278 231.494,116.2846 L231.494,116.2846 C231.342074,116.7414 230.734,118.5684 233.776,120.8522 C236.21,122.6792 239.456,122.2224 240.774,121.7657 C241.18,121.6642 241.93,121.2785 241.687,120.5477 C241.443,119.8169 240.774,119.9387 240.47,120.0909 C238.523,120.8217 236.717,120.4969 236.058,120.2432 C235.298,119.8372 233.655,118.7815 233.168,117.8071 C232.681,116.8327 233.371,115.7771 233.776,115.3711 C235.298,113.1381 238.675,107.7585 240.013,104.1044 Z" id="Path" fill="#041C42"></path>
            <path d="M247.164,106.3883 C247.651,105.1703 248.584,105.0688 248.989,105.1703 C249.547,105.3225 250.602,106.0533 250.358,107.7585 C250.115,109.4638 248.634,109.3826 247.925,109.1288 C247.215,108.8751 246.677,107.6063 247.164,106.3883 Z" id="Path" fill="#041C42"></path>
            <path d="M231.378,104.591 C231.864,103.373 232.797,103.2715 233.203,103.373 C233.761,103.5252 234.816,104.256 234.572,105.9613 C234.329,107.6665 232.848,107.5853 232.138,107.3315 C231.428,107.0778 230.891,105.809 231.378,104.591 Z" id="Path" fill="#041C42"></path>
            <path d="M237.579,126.6378 C237.823,127.4905 238.492,128.3126 238.796,128.6171 C240.378,130.0787 241.078,130.1396 241.991,130.2919 C244.121,130.2919 244.577,129.9874 245.49,129.3784 C246.396,128.7741 247.518,127.0438 247.924,126.1811 C248.076,125.7751 248.532,125.024 249.141,125.2676 C249.749,125.5112 249.394,126.5871 249.141,127.0946 C247.68,130.3832 245.084,131.6114 243.969,131.8144 C243.157,131.9667 241.169,132.0885 239.709,131.3577 C237.884,130.4441 236.667,128.0081 236.362,127.2468 C236.119,126.6378 236.362,126.2826 236.514,126.1811 C236.768,125.9781 237.336,125.7852 237.579,126.6378 Z" id="Path" fill="#041C42"></path>
            <path d="M260.551,128.617 C254.618,134.8593 247.772,136.3819 247.62,136.5341 L245.643,145.6692 C251.971,141.7716 258.218,132.6771 260.551,128.617 Z" id="Path" fill="#7E9BD9"></path>
            <path d="M185.553,164.018 C180.929,165.481 177.034,160.5639 175.665,157.9226 L159.692,155.0273 C159.591,157.3639 158.505,162.433 154.976,164.018 C151.447,165.603 149.652,162.24 149.195,160.3608 C148.587,162.545 146.883,166.7 144.936,165.847 C142.989,164.993 142.502,159.7004 142.502,157.1607 C142.35,161.631 140.798,169.473 135.808,165.085 C130.819,160.696 132.309,152.7923 133.679,149.3891 C132.36,150.9129 129.176,153.4425 126.985,151.3701 C124.794,149.2976 126.072,145.2239 126.985,143.4461 C124.551,142.6842 119.318,140.0632 117.858,135.6745 C116.397,131.2858 117.959,126.633 118.922,124.8552 C116.945,123.6869 113.415,119.8265 115.119,113.7311 C116.823,107.6357 121.407,106.9246 123.486,107.331 C121.001,105.9595 116.367,101.5404 117.705,94.8355 C119.044,88.1305 125.971,88.3845 129.267,89.3496 C127.796,87.8258 126.072,84.0771 130.94,81.2732 C135.596,78.5916 141.365,82.5728 143.989,85.1913 C136.894,77.6765 142.496,69.84905 151.934,70.14917 C159.601,70.39299 168.515,79.597 172.014,84.1685 C174.955,80.2573 181.872,73.8064 186.01,79.2922 C190.147,84.7781 186.01,89.9084 183.423,91.7878 C184.945,91.1274 188.444,90.4773 190.269,93.1592 C192.095,95.8412 191.03,99.661 190.269,101.2356 C193.261,99.2546 199.549,96.6031 200.766,101.8451 C201.983,107.0872 196.608,113.5788 193.768,116.1693 C195.746,116.4741 199.61,118.0893 199.245,122.1123 C198.879,126.1352 194.529,128.2584 192.399,128.8172 C194.478,128.868 198.301,130.4325 196.963,136.284 C195.624,142.1356 190.218,143.3953 187.683,143.2937 C190.269,143.4461 195.107,145.3357 193.768,151.6749 C192.429,158.014 187.429,157.0591 185.097,155.7892 C187.176,157.9226 190.178,162.555 185.553,164.018 Z" id="Path" fill="#004079"></path>
            <path d="M203.047,186.876 C190.998,169.199 177.795,166.913 167.145,166.913 C157.562,166.913 146.791,168.714 133.679,180.475 C120.597,192.209 115.17,232.794 115.728,249.048 L219.021,249.048 C218.514,237.772 215.095,204.552 203.047,186.876 Z" id="Path" fill="#385E85"></path>
            <path d="M191.942,219.486 L191.942,194.342 C191.942,194.342 175.949,199.066 165.701,199.066 C155.453,199.066 139.459,194.342 139.459,194.342 L139.459,219.486 C139.459,219.486 155.298,225.817 165.701,225.886 C176.392,225.957 191.942,219.486 191.942,219.486 Z" id="Path" fill="#004079"></path>
            <path d="M192.855,248.896 L192.855,192.057 C192.855,192.057 192.855,191.142 192.095,191.142 C191.334,191.142 191.334,192.057 191.334,192.057 L191.486,248.896 L192.855,248.896 Z" id="Path" fill="#041C42"></path>
            <path d="M139.915,248.896 L139.915,192.057 C139.915,192.057 139.915,191.142 139.155,191.142 C138.394,191.142 138.394,192.057 138.394,192.057 L138.546,248.896 L139.915,248.896 Z" id="Path" fill="#041C42"></path>
            <path d="M177.643,131.103 C179.113,128.4109 182.328,124.8857 183.424,132.3221 C184.519,139.7584 180.026,139.4841 177.643,138.4174 L174.753,167.37 C172.724,170.367 166.599,174.776 158.323,168.437 L159.692,155.0879 C158.079,155.7297 156.401,156.1871 154.672,156.3988 C140.981,158.075 132.462,133.8459 131.701,121.9599 C131.092,112.4511 135.301,101.9468 137.482,97.8832 L179.621,97.8832 L177.643,131.103 Z" id="Path" fill="#CAE0FF"></path>
            <path d="M166.538,176.056 C157.653,176.178 154.215,171.028 153.607,168.742 C155.554,168.01 157.664,167.624 158.475,167.523 C159.286,168.894 162.035,171.637 166.538,171.637 C171.04,171.637 173.789,168.894 174.6,167.523 C176.426,167.523 179.113,168.336 180.229,168.742 C179.367,170.926 175.422,175.934 166.538,176.056 Z" id="Path" fill="#004079"></path>
            <path d="M173.84,131.7125 C175.178,134.2725 177.034,132.2712 177.795,130.9506 L183.424,97.8831 L134.439,91.6354 L129.267,120.5884 C130.383,120.5884 133.222,119.9484 135.656,117.3883 C138.09,114.8283 135.859,109.4136 134.439,107.0262 C135.453,108.2961 138.364,110.592 141.893,109.6167 C145.423,108.6415 145.392,103.3182 144.936,100.7784 C145.443,103.2166 147.613,107.8796 152.238,107.0262 C156.863,106.1728 158.627,101.0832 158.931,98.6451 C158.982,101.1848 160.179,106.4167 164.56,107.0262 C168.941,107.6357 172.775,101.6927 174.144,98.6451 C173.434,100.3213 171.862,104.649 171.254,108.55 C170.645,112.4511 175.868,112.4104 178.556,111.9025 C177.44,112.3089 175.239,113.9749 175.361,117.3883 C175.483,120.8018 177.541,122.7726 178.556,123.3313 C176.426,125.0584 172.501,129.1524 173.84,131.7125 Z" id="Path" fill="#004079"></path>
            <path d="M157.714,116.6265 C157.836,113.7007 159.489,113.0708 160.301,113.1216 C169.884,113.4264 171.254,117.6931 172.471,120.4361 C173.444,122.6304 172.065,122.4678 171.254,122.1123 C166.538,120.8932 163.952,121.0456 162.887,121.0456 C161.822,121.0456 159.844,121.6551 158.931,121.0456 C158.019,120.4361 157.562,120.2837 157.714,116.6265 Z" id="Path" fill="#041C42"></path>
            <path d="M152.237,120.1313 C153.576,120.2532 153.302,117.9979 153.302,117.9979 C153.302,117.9979 152.897,114.1375 152.694,114.0359 C152.339,113.5787 150.777,112.8473 147.369,113.5787 C143.962,114.3102 141.589,115.9153 140.828,116.6264 C139.915,117.6423 138.09,119.9789 138.09,121.198 C138.09,122.417 139.104,122.417 139.611,122.2647 C140.321,122.0615 142.501,121.4113 145.544,120.436 C149.347,119.217 150.564,119.9789 152.237,120.1313 Z" id="Path" fill="#041C42"></path>
            <path d="M153.303,123.0265 C153.911,120.8322 153.556,118.963 153.303,118.3026 L151.933,119.5217 C152.664,120.8627 151.731,123.6361 151.173,124.8552 C150.108,126.6838 147.796,130.5543 147.065,131.4077 C146.153,132.4744 144.936,134.4554 145.696,136.4364 C146.457,138.4174 148.13,138.7221 150.564,139.0269 C152.511,139.2707 153.404,138.8237 153.607,138.5698 C153.759,138.3666 154.002,137.8993 153.759,137.6555 C153.516,137.4116 153.049,137.4523 152.846,137.5031 C151.731,137.6555 149.134,137.7164 147.674,136.7411 C146.214,135.7659 146.863,134.0998 147.37,133.3887 C149.094,130.8489 152.694,125.2209 153.303,123.0265 Z" id="Path" fill="#041C42"></path>
            <path d="M160.605,125.16 C161.822,125.2819 161.924,126.7346 161.822,127.4457 C161.67,128.4616 161.062,130.4325 159.845,130.1887 C158.628,129.9448 158.628,128.2585 158.78,127.4457 C158.881,126.633 159.388,125.0381 160.605,125.16 Z" id="Path" fill="#041C42"></path>
            <path d="M144.853,124.4047 C146.07,124.5266 146.171,125.9793 146.07,126.6904 C145.918,127.7063 145.309,129.6771 144.092,129.4333 C142.875,129.1895 142.875,127.5031 143.027,126.6904 C143.129,125.8777 143.636,124.2827 144.853,124.4047 Z" id="Path" fill="#041C42"></path>
            <path d="M161.822,140.5507 C160.361,142.2574 157.055,142.6841 155.584,142.6841 C151.629,142.6841 152.39,142.227 149.652,141.1603 C147.461,140.3069 146.203,141.4142 145.848,142.0746 C145.392,142.8873 144.784,144.8784 146.001,146.3413 C147.522,148.1699 149.347,150.1509 153.607,150.6081 C157.866,151.0653 161.207,150.1446 163.343,148.1699 C165.321,146.3413 166.233,144.6651 166.233,141.6174 C166.233,139.6364 163.343,138.7729 161.822,140.5507 Z" id="Path" fill="#041C42"></path>
            <path d="M163.495,146.6461 C159.083,150.6081 154.063,149.5414 153.759,149.5414 C153.911,148.4747 155.006,146.189 158.171,145.5794 C161.335,144.9699 163.039,146.0366 163.495,146.6461 Z" id="Path" fill="#CAE0FF"></path>
            <path d="M170.949,146.189 C167.451,150.913 162.228,154.2654 159.692,155.1797 L158.627,165.389 C167.146,159.0503 169.732,151.3701 170.949,146.189 Z" id="Path" fill="#B1C5E0"></path>
        </g>
    </g>
</svg>