<?xml version="1.0" encoding="UTF-8"?>
<svg width="320px" height="250px" viewBox="0 0 320 250" version="1.1" xmlns="http://www.w3.org/2000/svg" xmlns:xlink="http://www.w3.org/1999/xlink">
    <!-- Generator: Sketch 59.1 (86144) - https://sketch.com -->
    <title>onboarding-activar-audio</title>
    <desc>Created with Sketch.</desc>
    <g id="Page-1" stroke="none" stroke-width="1" fill="none" fill-rule="evenodd">
        <g id="onboarding-activar-audio" fill-rule="nonzero">
            <rect id="Rectangle" fill="#E9F2FF" x="0" y="0" width="320" height="250"></rect>
            <path d="M112.912,15.96807 C111.585,11.01515 106.494,8.07586 101.541,9.40299 L10.96365,33.6731 C6.01073,35.0003 3.07144,40.0913 4.39857,45.0442 L52.4583,224.405 C53.7854,229.358 58.8764,232.298 63.8293,230.971 L154.407,206.7 C159.36,205.373 162.299,200.282 160.972,195.329 L112.912,15.96807 Z" id="Path" fill="#004079"></path>
            <rect id="Rectangle" fill="#041C42" transform="translate(79.833338, 113.322994) scale(-1, 1) rotate(14.999995) translate(-79.833338, -113.322994) " x="31.0901301" y="33.4769812" width="97.4864152" height="159.692025"></rect>
            <path d="M75.7913,85.2535 C71.619,90.858 67.4482,96.461 63.2756,102.0652 L55.0113,104.2796 L59.6039,121.42 L67.8682,119.205 L87.113,127.507 L82.8385,111.554 C82.3231,109.63 82.7585,111.255 82.3231,109.63 C81.8876,108.005 81.6382,107.082 81.3348,105.942 C81.0285,104.802 81.0167,104.7549 80.5813,103.1298 C80.1458,101.5047 80.1458,101.5047 79.8261,100.3112 L75.7913,85.2535 Z M87.8091,85.517 L86.3483,88.4122 C91.2673,91.3622 94.9178,96.2818 96.4609,102.0319 C97.9971,107.781 97.2953,113.864 94.5113,118.877 L97.2256,120.66 C100.4383,114.876 101.254,107.857 99.479,101.2232 C97.699,94.5905 93.4836,88.9202 87.8091,85.517 Z M82.3872,90.535 L81.2656,93.6115 C85.404,95.4602 88.5586,99.236 89.794,103.8183 C91.0129,108.402 90.1682,113.247 87.5099,116.915 L90.0211,119.025 C93.27,114.542 94.3038,108.611 92.8121,103.0096 C91.303,97.4124 87.4424,92.7933 82.3872,90.535 Z" class="main-path" fill="#F6C254"></path>
            <circle id="Oval" fill="#041C42" cx="108.496" cy="202.5" r="7.5"></circle>
            <path d="M188.716,153.933 C191.223,162.699 198.613,168.579 201.995,170.424 L169.81,205.001 C168.809,204.303 165.625,201.975 160.898,198.249 C154.989,193.591 147.149,195.896 139.439,192.829 C133.27,190.376 127.302,184.265 125.089,181.517 C121.36,179.764 114.424,174.697 116.501,168.451 C118.578,162.205 125.428,163.261 128.593,164.57 C124.081,162.655 115.857,157.322 119.064,151.31 C122.271,145.297 129.09,146.347 132.098,147.624 C127.899,145.774 120.134,140.437 122.666,133.892 C125.198,127.347 130.971,127.756 133.541,128.778 L109.987,112.126 C106.14,109.367 99.6986,102.5373 104.711,97.2908 C109.723,92.0442 116.224,95.4177 118.849,97.7603 L159.561,128.76 C157.061,121.862 154.43,114.446 153.196,107.318 C151.874,99.6817 157.198,95.5789 165.013,102.3989 C181.23,116.552 185.582,142.977 188.716,153.933 Z" id="Path" fill="#A1C9FF"></path>
            <path d="M197.937,162.772 L207.387,171.5 C228.355,166.684 247.887,176.356 268.264,192.553 C290.861,210.515 315.386,250 315.386,250 L182.387,250 C172.075,234.467 172.003,224.137 172.003,211.135 L162.179,202.708 L197.937,162.772 Z" id="Path" fill="#004079"></path>
        </g>
    </g>
</svg>