<?xml version="1.0" encoding="UTF-8"?>
<svg width="320px" height="250px" viewBox="0 0 320 250" version="1.1" xmlns="http://www.w3.org/2000/svg" xmlns:xlink="http://www.w3.org/1999/xlink">
    <!-- Generator: Sketch 59.1 (86144) - https://sketch.com -->
    <title>onboarding-para-que-sirve</title>
    <desc>Created with Sketch.</desc>
    <g id="Page-1" stroke="none" stroke-width="1" fill="none" fill-rule="evenodd">
        <g id="onboarding-para-que-sirve" fill-rule="nonzero">
            <rect id="Rectangle" fill="#E9F2FF" x="0" y="0" width="320" height="250"></rect>
            <path d="M131.591,16.83498 C131.591,13.3398 134.425,10.506409 137.92,10.506409 L308.655,10.506409 C312.15,10.506409 314.984,13.33981 314.984,16.83498 L314.984,154.671 C314.984,158.167 312.15,161 308.655,161 L137.92,161 C134.425,161 131.591,158.167 131.591,154.671 L131.591,16.83498 Z" id="Path" fill="#041C42"></path>
            <path d="M149.09,33.4637 C149.09,30.4493 151.534,28.0056 154.548,28.0056 L175.131,28.0056 C178.145,28.0056 180.589,30.4493 180.589,33.4637 L180.589,54.0462 C180.589,57.0606 178.145,59.5043 175.131,59.5043 L154.548,59.5043 C151.534,59.5043 149.09,57.0606 149.09,54.0462 L149.09,33.4637 Z" id="Path" fill="#FFFFFF"></path>
            <path d="M149.09,75.4619 C149.09,72.4475 151.534,70.0038 154.548,70.0038 L175.131,70.0038 C178.145,70.0038 180.589,72.4475 180.589,75.4619 L180.589,96.0444 C180.589,99.0588 178.145,101.5025 175.131,101.5025 L154.548,101.5025 C151.534,101.5025 149.09,99.0588 149.09,96.0444 L149.09,75.4619 Z" id="Path" fill="#FFFFFF"></path>
            <path d="M149.114,116.906 C149.114,114.285 151.239,112.16 153.86,112.16 L175.694,112.16 C178.315,112.16 180.44,114.285 180.44,116.906 L180.44,138.74 C180.44,141.361 178.315,143.486 175.694,143.486 L153.86,143.486 C151.239,143.486 149.114,141.361 149.114,138.74 L149.114,116.906 Z" id="Path" fill="#FFFFFF"></path>
            <polygon id="Path" fill="#FFFFFF" points="195.289 36.4053 289.085 36.4053 289.085 50.4047 195.289 50.4047"></polygon>
            <polygon id="Path" fill="#FFFFFF" points="195.289 78.4036 273.685 78.4036 273.685 92.403 195.289 92.403"></polygon>
            <polygon id="Path" fill="#FFFFFF" points="195.289 120.402 297.484 120.402 297.484 134.401 195.289 134.401"></polygon>
            <path d="M159.808,37.8265 L165.408,44.1263 L187.107,21.0272 C188.508,19.6272 190.88,18.84929 192.707,20.6771 C194.457,22.4272 193.058,25.5769 191.307,27.3269 L165.408,54.2758 L153.859,42.0263 C152.459,40.6263 151.899,38.3865 153.859,36.4265 C155.819,34.4666 158.409,36.0765 159.808,37.8265 Z" class="main-path" fill="#F6C254"></path>
            <path d="M72.4959,194.116 L63.4636,156.808 L92.1313,173.302 L90.1677,194.116 L144.362,212.573 C145.278,210.217 144.519,196.315 135.722,186.262 C126.925,176.208 125.512,166.626 125.904,163.092 C124.019,128.848 110.458,111.123 103.9125,106.5417 C73.7525,82.9791 56.002,99.8656 50.8968,111.254 C43.6971,112.301 31.1042,119.108 38.3301,137.958 C45.5559,156.808 42.6499,167.543 40.2937,170.553 C28.6695,193.802 31.9157,210.217 34.7956,214.537 L72.4959,194.116 Z" id="Path" fill="#041C42"></path>
            <path d="M42.4167,190.892 C38.8964,200.638 43.7359,208.921 46.5958,211.845 L40.2651,211.989 C34.5399,202.325 38.4701,190.884 43.4527,180.734 C47.4388,172.614 47.7017,167.418 47.6773,158.664 C47.6506,149.1 42.0794,143.882 42.645,134.466 C42.8416,133.828 43.4613,132.655 44.3671,133.063 C45.2728,133.471 45.1059,134.849 44.9093,135.487 C43.7742,140.424 49.7375,149.06 50.101,158.122 C50.6278,171.256 46.8172,178.709 42.4167,190.892 Z" id="Path" fill="#102F61"></path>
            <path d="M102.3415,212.624 C99.8282,222.677 105.483,230.427 108.625,233.045 L102.3415,233.83 C95.6655,224.798 98.4145,213.016 102.3415,202.413 C105.483,193.931 105.218,188.735 104.3051,180.029 C103.3082,170.517 97.2363,165.891 96.8436,156.466 C96.9745,155.812 97.472,154.581 98.4145,154.895 C99.357,155.21 99.3307,156.597 99.1998,157.252 C98.5715,162.278 105.38,170.265 106.661,179.243 C108.518,192.256 105.483,200.057 102.3415,212.624 Z" id="Path" fill="#102F61"></path>
            <path d="M123.803,192.055 C130.073,200.306 127.927,209.656 126.07,213.3 L132.155,211.547 C134.734,200.616 127.567,190.869 119.782,182.669 C113.553,176.11 111.751,171.229 109.161,162.867 C106.331,153.732 110.091,147.089 106.74,138.271 C106.362,137.721 105.42,136.785 104.6774,137.445 C103.9348,138.105 104.5054,139.37 104.8835,139.92 C107.441,144.293 104.3278,154.316 106.686,163.073 C110.104,175.766 115.966,181.741 123.803,192.055 Z" id="Path" fill="#102F61"></path>
            <path d="M59.9291,207.911 C57.4157,217.965 63.0707,225.714 66.2124,228.332 L59.9291,229.118 C53.253,220.085 56.002,208.304 59.9291,197.701 C63.0707,189.218 62.8051,184.022 61.8926,175.316 C60.8958,165.804 54.8239,161.179 54.4312,151.754 C54.5621,151.099 55.0595,149.869 56.002,150.183 C56.9445,150.497 56.9183,151.885 56.7873,152.539 C56.159,157.566 62.9678,165.553 64.2488,174.531 C66.1055,187.544 63.0707,195.344 59.9291,207.911 Z" id="Path" fill="#102F61"></path>
            <path d="M17,226.148 C34.0344,201.705 61.6647,192.431 77.6008,190.974 C136.321,190.974 161.567,223.826 170,250 L17,250 L5.5,250 C6.66667,245.833 10.6,235.229 17,226.148 Z" id="Path" fill="#004079"></path>
            <path d="M54.0384,114.003 C71.6317,94.5247 90.4294,103.2691 97.6291,110.076 C110.752,125.386 124.89,170.337 94.1868,173.695 L92.1311,194.901 C90.1676,214.144 75.2446,208.646 72.4957,194.901 L63.0706,157.594 C60.7144,160.997 54.5066,163.485 52.4675,157.594 C49.64,149.426 56.0018,148.954 59.1435,149.74 C49.0901,137.173 51.2894,120.679 54.0384,114.003 Z" id="Path" fill="#A1C9FF"></path>
            <path d="M92.524,191.76 C85.6123,216.579 75.7684,202.101 71.7104,191.76 L68.176,192.545 C70.2705,198.043 73.2812,209.432 83.8844,209.432 C92.524,209.432 95.1421,198.174 96.0584,192.152 L92.524,191.76 Z" id="Path" fill="#041C42"></path>
            <path d="M98.4147,111.254 C76.7371,123.821 62.9399,120.679 58.751,117.537 C70.3752,127.591 63.9871,143.064 59.1437,149.74 C50.5039,143.064 48.9334,132.853 53.6458,112.825 C59.1789,89.3089 90.9532,99.4729 104.3053,106.9343 L98.4147,111.254 Z" id="Path" fill="#041C42"></path>
            <path d="M84.6695,172.517 C87.8112,174.088 92.131,173.957 94.0945,173.695 C94.0945,173.695 94.0945,174.873 92.9164,187.047 L84.6695,172.517 Z" id="Path" fill="#638BC0"></path>
            <path d="M95.2004,163.004 C94.8392,163.365 94.4461,163.629 94.041,163.816 C91.3461,165.06 88.4546,162.686 86.6331,160.343 C86.2403,159.95 85.769,160.028 85.4549,160.343 C85.1407,160.657 84.9984,161.286 85.4549,161.913 C86.5021,163.353 89.382,166.233 92.5236,166.233 C95.6653,166.233 98.5452,162.044 99.5924,159.95 C99.8542,159.426 100.1423,158.301 99.1998,157.987 C98.5294,157.763 98.1456,158.922 98.0216,159.164 C97.8977,159.407 97.0854,161.119 95.2004,163.004 Z" id="Path" fill="#041C42"></path>
            <path d="M80.3497,139.922 C80.7425,137.958 81.9207,137.173 83.4913,137.958 C85.062,138.744 85.8475,142.278 83.8841,143.064 C81.9208,143.849 79.9568,141.885 80.3497,139.922 Z" id="Path" fill="#041C42"></path>
            <path d="M97.679,128.8 C98.0688,126.866 99.2377,126.093 100.7961,126.866 C102.3545,127.639 103.1338,131.12 101.1858,131.893 C99.2378,132.667 97.2892,130.733 97.679,128.8 Z" id="Path" fill="#041C42"></path>
            <path d="M96.0581,120.287 C90.4031,119.972 87.558,122.544 87.558,126.141 C87.558,129.737 93.8691,136.041 98.3472,138.728 C99.9629,139.697 100.8818,140.667 101.396,141.511 C102.3451,143.069 101.9319,145.199 100.6378,146.485 C98.2151,148.892 93.372,149.347 92.131,149.347 C90.5602,149.347 90.4344,147.269 92.0535,147.269 C92.9526,147.269 93.7899,147.607 96.549,146.82 C98.5284,146.255 99.6705,145.16 99.9777,143.987 C100.5562,141.779 97.7722,140.447 95.9153,139.118 C90.5317,135.267 85.455,129.521 85.455,125.785 C85.455,119.847 90.4293,117.145 92.9164,116.752 C94.6182,116.49 98.3251,116.395 98.8071,118.323 C99.1998,119.894 97.2362,120.287 96.0581,120.287 Z" id="Path" fill="#041C42"></path>
            <path d="M77.8206,130.327 C77.99,130.259 78.1796,130.216 78.3774,130.184 C80.2336,129.881 80.4416,127.276 78.5977,126.905 C76.8765,126.559 74.2366,127.695 71.4311,129.991 C67.4063,133.284 66.7186,135.488 67.8969,136.667 C70.253,138.63 71.5498,135.815 72.3353,134.637 C73.3826,133.066 75.2423,131.358 77.8206,130.327 Z" id="Path" fill="#041C42"></path>
            <path d="M42.2422,250 L42.2422,231.903 C42.2422,231.298 42.4948,230.64 43.5637,230.64 C44.6327,230.64 44.9145,231.54 44.9145,231.903 L44.9145,250 L42.2422,250 Z" id="Path" fill="#041C42"></path>
            <path d="M126.886,250 L126.886,231.903 C126.886,231.182 127.139,230.64 128.208,230.64 C129.277,230.64 129.558,231.54 129.558,231.903 L129.558,250 L126.886,250 Z" id="Path" fill="#041C42"></path>
        </g>
    </g>
</svg>