<svg width="320" height="250" viewBox="0 0 320 250" fill="none" xmlns="http://www.w3.org/2000/svg">
<rect width="319.896" height="250" fill="#E9F2FF"/>
<path d="M132.258 142.767C131.968 144.798 130.025 148.51 124.573 147.118C119.12 145.726 117.95 139.867 118.047 137.112C116.162 137.789 111.696 138.185 108.911 134.357C106.127 130.528 108.718 124.061 110.362 121.306C108.621 122.949 103.981 125.105 99.3407 120.581C94.7004 116.056 101.854 111.832 106.011 110.285C101.419 108.641 92.0612 103.353 91.3652 95.3486C90.6691 87.3439 97.8424 84.9561 101.516 84.7627C96.3923 83.9893 86.9279 80.1804 90.0602 71.1316C93.1924 62.0829 102.483 65.6212 106.737 68.5214C102.821 64.1227 96.8758 53.5562 104.416 46.4797C111.957 39.4031 119.159 43.5311 121.818 46.4797C118.628 41.6459 114.857 30.9054 125.298 26.613C135.739 22.3207 140.669 33.0419 141.829 38.939C144.053 32.3168 150.443 19.7395 158.216 22.4077C165.988 25.0759 161.454 36.4738 158.216 41.8393C162.324 36.0871 172.456 25.3079 180.112 28.2082C187.769 31.1084 184.559 37.3439 181.998 40.0991C185.285 38.0206 192.815 35.1977 196.644 40.5342C200.472 45.8706 193.792 53.7785 189.973 57.0655C194.082 55.567 203.256 54.0492 207.085 59.9657C210.913 65.8822 205.876 71.7117 202.879 73.8868C206.891 74.1285 214.596 76.294 213.32 83.0226C212.193 88.965 206.082 89.7648 202.139 89.3378C204.457 89.8334 207.696 91.1197 208.825 93.7534C210.217 97.0017 204.958 99.2639 202.154 99.9889C204.184 100.086 208.361 101.033 208.825 104.049C209.289 107.065 201.767 110.526 197.949 111.88C202.734 112.508 211.232 115.766 206.94 123.771C202.647 131.775 193.357 128.943 189.248 126.526C191.133 128.798 193.976 134.096 190.263 137.112C186.551 140.128 182.916 136.435 181.563 134.212C183.254 137.209 185.362 143.782 180.257 146.103C175.153 148.423 171.557 143.106 170.397 140.157L132.258 142.767Z" fill="#004079"/>
<path d="M88.1752 249.931C87.4791 186.126 132.065 173.268 154.445 174.815C211.522 171.103 229.658 223.345 231.592 249.931H88.1752Z" fill="#004079"/>
<path d="M120.078 208.313V249.786H121.528V208.313C121.528 208.023 121.383 207.443 120.803 207.443C120.223 207.443 120.078 208.023 120.078 208.313Z" fill="#041C42"/>
<path d="M190.843 208.313V249.786H192.293V208.313C192.293 208.023 192.148 207.443 191.568 207.443C190.988 207.443 190.843 208.023 190.843 208.313Z" fill="#041C42"/>
<path d="M114.567 116.81C117.583 112.982 119.981 115.215 120.803 116.81L112.537 97.0887L136.174 59.0956L181.127 71.4216L188.958 107.385L184.028 114.635C188.204 110.575 190.215 114.393 190.698 116.81C190.263 118.55 188.784 122.495 186.348 124.351C183.912 126.207 181.853 125.124 181.127 124.351C178.903 131.133 172.66 142.999 162.566 148.804V175.975C154.677 182.704 147.775 178.779 145.31 175.975L142.399 150.743C130.815 146.199 125.005 132.11 123.413 124.351C121.325 127.367 119.063 126.864 118.192 126.236C115.727 124.689 111.551 120.639 114.567 116.81Z" fill="#A1C9FF"/>
<path d="M162.566 174.67C154.329 179.426 147.533 176.845 145.165 174.96L143.134 175.25C143.569 176.797 146.47 180.731 154.01 180.615C161.551 180.499 163.968 176.313 164.306 174.67H162.566Z" fill="#041C42"/>
<path d="M184.027 114.635C183.641 115.07 182.722 115.592 182.142 114.2C181.562 112.808 183.834 108.98 185.042 107.239C183.496 106.853 180.344 105.47 180.112 103.034C179.88 100.598 183.109 96.2186 184.753 94.3335C183.689 94.4301 181.011 94.0434 178.807 91.7233C176.603 89.4031 178.179 83.796 179.242 81.2824C177.26 83.6509 171.847 87.1409 166.046 82.1525C160.646 77.5084 161.865 71.3309 163.385 68.2771C162.2 70.3907 159.835 74.0157 157.636 75.482C155.199 77.1061 154.88 73.4518 155.025 71.4216C154.687 74.3702 152.705 80.1513 147.485 79.6873C142.796 79.2705 140.408 74.455 139.585 71.3773C140.357 75.1129 140.846 81.4697 137.769 83.1676C134.405 85.0237 128.537 82.3942 126.023 80.8474C129.117 83.5059 133.854 89.8091 128.053 93.7534C123.006 97.1856 118.471 96.6943 116.168 95.7763C117.59 96.5481 119.677 98.0188 120.803 99.9889C122.195 102.425 119.063 103.904 117.322 104.339C118.337 104.774 120.455 106.137 120.803 108.11C121.151 110.082 118.821 110.478 117.612 110.43C119.981 111.638 124.631 114.548 124.283 116.52C123.935 118.492 121.141 116.665 119.788 115.505L109.637 107.094V79.6873L137.769 51.12L186.348 70.4065L190.553 109.415L184.027 114.635Z" fill="#004079"/>
<path d="M154.88 94.3335C154.88 96.5376 155.944 97.8621 156.475 98.2488C157.442 97.4754 160.391 95.8416 164.451 95.4936C169.527 95.0585 171.702 96.2186 174.167 96.7987C176.139 97.2627 175.955 96.1219 175.617 95.4936C174.457 93.8017 170.919 90.2441 166.046 89.5481C161.174 88.852 157.346 90.1281 156.04 90.8532C155.654 91.0949 154.88 92.1293 154.88 94.3335Z" fill="#041C42"/>
<path d="M145.745 95.6386C145.977 96.4506 145.841 98.2971 145.745 99.1189C143.908 98.5388 139.567 97.3787 136.899 97.3787C134.231 97.3787 129.503 99.0222 127.473 99.8439C125.037 100.192 125.491 98.6355 126.023 97.8137C128.343 95.3775 131.437 93.6084 132.694 93.0284C137.566 90.9402 142.651 92.1583 144.585 93.0284C144.875 93.5601 145.513 94.8265 145.745 95.6386Z" fill="#041C42"/>
<path d="M147.92 110.285C148.036 104.948 146.47 98.4905 145.745 95.9286L143.714 98.2488C146.035 100.134 146.325 108.4 146.325 108.69C146.325 108.98 146.21 123.704 146.035 124.931C145.89 125.946 146.373 126.478 146.615 126.671C147.891 127.715 150.047 128.024 150.965 127.976C151.69 127.976 153.256 127.512 154.3 126.816C155.344 126.12 155.557 125.221 155.46 124.931C155.412 124.786 155.228 124.496 154.88 124.496C154.532 124.496 154.349 124.786 154.3 124.931C154.059 125.511 153.053 126.526 150.965 126.526C148.877 126.526 148.065 125.656 147.775 125.221C147.485 124.786 147.804 115.621 147.92 110.285Z" fill="#041C42"/>
<path d="M136.174 108.835C135.942 106.166 137.431 105.596 138.204 105.644C139.828 105.412 140.428 107.094 140.524 107.965C140.988 110.517 139.751 111.348 139.074 111.445C138.204 111.687 136.406 111.503 136.174 108.835Z" fill="#041C42"/>
<path d="M158.385 108.276C158.153 105.608 159.642 105.038 160.415 105.086C162.039 104.854 162.639 106.536 162.735 107.406C163.199 109.958 161.962 110.79 161.285 110.887C160.415 111.128 158.617 110.945 158.385 108.276Z" fill="#041C42"/>
<path d="M142.699 131.601C145.483 133.226 148.645 133.487 150.095 133.487C152.072 133.487 156.33 132.472 159.085 130.151C161.943 127.745 164.257 130.441 164.741 131.601C165.321 132.617 165.465 135.539 161.551 138.852C157.781 142.042 152.173 142.816 150.095 142.767C148.306 142.719 143.86 142.187 140.379 139.432C137.023 136.776 137.189 133.777 137.914 132.472C138.349 131.505 139.915 129.977 142.699 131.601Z" fill="#041C42"/>
<path d="M151.255 141.172C154.851 141.056 158.796 139.142 159.811 138.127C158.602 137.354 155.228 135.894 151.4 136.242C147.572 136.59 144.681 138.9 143.714 140.012C144.73 140.447 147.659 141.288 151.255 141.172Z" fill="#A1C9FF"/>
<path d="M152.27 151.468C157.491 151.468 161.309 149.728 162.566 148.858V168.144L152.27 151.468Z" fill="#86A9D9"/>
</svg>
