<?xml version="1.0" encoding="UTF-8"?>
<svg width="320px" height="250px" viewBox="0 0 320 250" version="1.1" xmlns="http://www.w3.org/2000/svg" xmlns:xlink="http://www.w3.org/1999/xlink">
    <!-- Generator: Sketch 59.1 (86144) - https://sketch.com -->
    <title>onboarding-como-funciona</title>
    <desc>Created with Sketch.</desc>
    <g id="Page-1" stroke="none" stroke-width="1" fill="none" fill-rule="evenodd">
        <g id="onboarding-como-funciona">
            <rect id="Rectangle" fill="#E9F2FF" fill-rule="nonzero" x="0" y="0" width="320" height="250"></rect>
            <path d="M234.909,250 L92.0908,250 C95.2245,234.64 118.1799,203.74 163.394,203.02 C208.609,202.3 228.306,234.04 234.909,250 Z" id="Path" fill="#5B7FA1" fill-rule="nonzero"></path>
            <path d="M161.686,218.78 C153.7329,218.78 147.6023,209.575 145.5311,205.11 C155.611,202.625 170.477,202.993 177.427,204.005 C177.427,208.976 169.639,218.78 161.686,218.78 Z" id="Path" fill="#004079" fill-rule="nonzero"></path>
            <path d="M119.7528,250 L119.7528,236.773 C119.6515,236.476 119.935,236.179 120.6642,236.179 C121.3935,236.179 121.5758,236.476 121.5758,236.773 L121.5758,250 L119.7528,250 Z" id="Path" fill="#041C42" fill-rule="nonzero"></path>
            <path d="M202.68,250 L202.68,236.773 C202.578,236.476 202.862,236.179 203.591,236.179 C204.32,236.179 204.503,236.476 204.503,236.773 L204.503,250 L202.68,250 Z" id="Path" fill="#041C42" fill-rule="nonzero"></path>
            <path d="M141.5269,188.265 C127.8297,170.48 128.9159,151.122 131.1711,143.666 C154.4786,115.388 181.477,128.938 192.063,139.247 C197.034,160.345 189.992,180.164 185.85,187.436 L163.619,159.13 L141.5269,188.265 Z" id="Path" fill="#041C42" fill-rule="nonzero"></path>
            <path d="M138.9556,168.656 C141.9323,175.687 146.0188,182.083 151.4021,185.513 L155.059,207.181 C156.439,215.742 167.624,215.328 168.866,207.181 L171.572,185.534 C178.153,182.239 182.162,176.093 184.846,168.484 C186.041,170.742 189.155,170.716 191.097,169.624 C193.306,168.382 195.239,164.101 192.753,159.683 C191.073,156.696 188.815,157.705 187.461,158.978 C188.626,153.574 189.456,147.8 190.268,142.009 C180.419,130.226 155.141,114.449 132.8281,145.599 C133.3961,150.086 134.5702,155.935 136.4544,161.854 C134.0891,160.517 130.1691,159.596 130.0665,164.93 C129.9561,170.674 133.1503,171.925 134.7612,171.833 C135.8668,172.143 138.1877,171.909 138.9556,168.656 Z" id="Path" fill="#A1C9FF"></path>
            <path d="M158.372,188.127 C165.773,188.679 170.293,186.608 171.628,185.503 L169.694,200.692 L158.372,188.127 Z" id="Path" fill="#638BC0" fill-rule="nonzero"></path>
            <path d="M168.176,115.36 L148.7068,117.845 C141.3059,108.3457 149.2821,101 156.439,101 C170.247,101 169.879,110.757 168.176,115.36 Z" id="Path" fill="#004079" fill-rule="nonzero"></path>
            <path d="M188.059,127.373 L132.966,133.034 C132.966,126.82 139.6765,113.427 159.339,112.322 C179.001,111.218 186.402,122.126 188.059,127.373 Z" id="Path" fill="#5B7FA1" fill-rule="nonzero"></path>
            <path d="M192.753,142.561 C156.632,134.277 136.8321,142.699 130.3425,147.118 C126.2554,144.135 127.5349,141.226 129.2379,139.8 C125.2612,137.811 127.5809,133.356 129.2379,132.482 C160.443,116.879 176.874,125.025 186.954,125.302 C195.018,125.522 193.536,131.009 191.787,133.724 C194.88,136.928 193.72,141.318 192.753,142.561 Z" id="Path" fill="#004079" fill-rule="nonzero"></path>
            <path d="M173.975,168.658 C172.594,173.905 167.209,174.733 163.895,174.733 C151.5233,174.733 151.192,168.382 152.5727,165.344 C153.4514,163.411 156.577,162.803 159.891,164.239 C163.205,165.675 166.38,165.081 168.452,164.239 C171.213,163.117 175.442,163.081 173.975,168.658 Z" id="Path" fill="#041C42" fill-rule="nonzero"></path>
            <path d="M146.1587,161.478 C146.7959,161 147.3554,160.925 147.5395,160.925 C147.9077,160.925 148.5337,161.119 148.0918,161.892 C147.7762,162.444 146.8031,162.582 146.4349,162.444 C145.9847,162.275 145.7446,161.788 146.1587,161.478 Z" id="Path" fill="#041C42" fill-rule="nonzero"></path>
            <path d="M181.814,152.578 C182.822,152.357 183.522,152.57 183.739,152.668 C184.173,152.866 184.808,153.43 183.871,154.105 C183.203,154.587 181.981,154.227 181.621,153.866 C181.181,153.425 181.159,152.722 181.814,152.578 Z" id="Path" fill="#041C42" fill-rule="nonzero"></path>
            <path d="M157.406,172.386 C161.41,173.49 168.866,174.181 171.904,170.039 C169.971,167.139 159.891,167.001 157.406,172.386 Z" id="Path" fill="#A1C9FF" fill-rule="nonzero"></path>
            <path d="M141.6947,158.899 C142.1366,158.236 143.0755,158.071 143.4897,158.209 C143.9362,158.358 144.4563,158.789 143.9039,159.452 C143.3516,160.114 142.4772,160.096 142.1089,160.004 C141.7868,159.912 141.2529,159.562 141.6947,158.899 Z" id="Path" fill="#041C42" fill-rule="nonzero"></path>
            <path d="M180.198,157.188 C180.815,156.792 181.675,156.998 181.977,157.267 C182.302,157.556 182.588,158.111 181.876,158.466 C181.165,158.821 180.428,158.484 180.148,158.271 C179.908,158.075 179.581,157.584 180.198,157.188 Z" id="Path" fill="#041C42" fill-rule="nonzero"></path>
            <path d="M147.7403,156.369 C147.3766,155.46 148.1545,155.264 148.8449,155.264 C150.7228,155.264 150.5793,156.153 150.3637,156.369 C149.8114,156.921 148.1821,157.474 147.7403,156.369 Z" id="Path" fill="#041C42" fill-rule="nonzero"></path>
            <path d="M178.181,154.517 C178.189,153.743 177.568,153.814 177.066,154.005 C175.7,154.526 176.055,155.144 176.273,155.244 C176.831,155.5 178.172,155.458 178.181,154.517 Z" id="Path" fill="#041C42" fill-rule="nonzero"></path>
            <path d="M156.853,152.917 C157.024,150.57 161.134,150.293 163.205,150.293 C165,150.293 166.887,150.524 167.623,150.708 C168.682,151.076 170.661,151.398 170.661,152.917 C170.661,154.16 169.695,154.574 169.28,155.402 C169.004,156.231 169.971,156.645 170.385,156.369 C170.827,155.927 171.432,155.012 171.766,154.298 C172.732,152.227 171.075,150.57 169.556,149.879 C166.381,148.775 162.073,148.498 158.648,149.603 C155.224,150.708 155.196,153.101 155.611,154.16 C155.887,154.865 156.909,156.258 157.682,156.369 C158.234,156.448 158.584,155.713 158.234,155.402 C156.992,154.298 156.803,153.607 156.853,152.917 Z" id="Path" fill="#041C42" fill-rule="nonzero"></path>
            <path d="M151.3298,144.47 C152.2238,142.815 153.4889,142.434 154.6669,143.57 C155.845,144.707 155.562,148.096 153.5992,148.262 C151.6362,148.428 150.4357,146.125 151.3298,144.47 Z" id="Path" fill="#041C42" fill-rule="nonzero"></path>
            <path d="M175.604,143.918 C174.71,142.263 173.445,141.881 172.267,143.018 C171.089,144.154 171.372,147.543 173.335,147.709 C175.298,147.875 176.498,145.573 175.604,143.918 Z" id="Path" fill="#041C42" fill-rule="nonzero"></path>
            <path d="M82.4253,35.1346 C83.6667,28.3066 91.6989,14.65056 113.8962,14.65056 C134.1894,14.65056 144.7186,25.753 148.2729,32.7328 L136.4289,29.7343 C136.4289,29.7343 134.5002,29.1757 133.8219,31.224 C133.1292,33.3158 135.1254,34.0173 135.1254,34.0173 L153.7472,38.6728 L159.52,20.7958 C159.52,20.7958 160.451,18.82196 158.402,18.00253 C156.354,17.18311 155.609,19.30608 155.609,19.30608 L151.9988,30.7395 C147.2556,22.1549 135.3875,10.367538 113.8962,10.367538 C88.943,10.367538 79.1975,27.1272 77.5836,35.1346 C77.5836,35.1346 77.2111,37.3692 79.6319,37.7416 C82.0528,38.114 82.4253,35.1346 82.4253,35.1346 Z" id="Path" fill="#041C42"></path>
            <path d="M171.272,34.9483 C172.513,28.1203 180.546,14.46435 202.743,14.46435 C223.036,14.46435 233.565,25.5668 237.119,32.5465 L225.276,29.5481 C225.276,29.5481 223.347,28.9895 222.668,31.0378 C221.976,33.1296 223.972,33.8311 223.972,33.8311 L242.594,38.4865 L248.367,20.6096 C248.367,20.6096 249.297,18.63573 247.249,17.8163 C245.2,16.99688 244.456,19.11985 244.456,19.11985 L240.845,30.5533 C236.102,21.9688 224.234,10.181335 202.743,10.181335 C177.79,10.181335 168.044,26.941 166.43,34.9483 C166.43,34.9483 166.058,37.183 168.479,37.5554 C170.899,37.9278 171.272,34.9483 171.272,34.9483 Z" id="Path" fill="#041C42"></path>
            <path d="M55.96167,51.8942 C55.96167,48.8088 58.46285,46.3077 61.54821,46.3077 L95.0675,46.3077 C98.1528,46.3077 100.654,48.8088 100.654,51.8942 L100.654,85.4135 C100.654,88.4988 98.1528,91 95.0675,91 L61.54821,91 C58.46285,91 55.96167,88.4988 55.96167,85.4135 L55.96167,51.8942 Z" class="main-path-1" fill="#F6C254" fill-rule="nonzero"></path>
            <path d="M137.8976,51.8942 C137.8976,48.8088 140.3988,46.3077 143.4842,46.3077 L177.003,46.3077 C180.089,46.3077 182.59,48.8088 182.59,51.8942 L182.59,85.4135 C182.59,88.4988 180.089,91 177.003,91 L143.4842,91 C140.3988,91 137.8976,88.4988 137.8976,85.4135 L137.8976,51.8942 Z" class="main-path-2" fill="#F6C254" fill-rule="nonzero"></path>
            <path d="M219.834,51.8942 C219.834,48.8088 222.335,46.3077 225.42,46.3077 L258.939,46.3077 C262.025,46.3077 264.526,48.8088 264.526,51.8942 L264.526,85.4135 C264.526,88.4988 262.025,91 258.939,91 L225.42,91 C222.335,91 219.834,88.4988 219.834,85.4135 L219.834,51.8942 Z" class="main-path-3" fill="#F6C254" fill-rule="nonzero"></path>
            <path d="M81.5638,79.082 L77.5179,79.082 L77.5179,68.005 L77.5572,66.185 L77.6227,64.1948 C76.9505,64.8669 76.4835,65.3077 76.2217,65.5172 L74.022,67.2848 L72.071,64.8494 L78.2381,59.9394 L81.5638,59.9394 L81.5638,79.082 Z" id="Path" fill="#041C42" fill-rule="nonzero"></path>
            <path d="M166.878,79.082 L153.4964,79.082 L153.4964,76.2669 L158.302,71.4093 C159.724,69.9515 160.654,68.9433 161.091,68.3847 C161.527,67.8173 161.841,67.2936 162.033,66.8135 C162.225,66.3334 162.321,65.8358 162.321,65.3208 C162.321,64.5527 162.108,63.9809 161.68,63.6056 C161.261,63.2302 160.698,63.0425 159.991,63.0425 C159.249,63.0425 158.529,63.2128 157.83,63.5532 C157.132,63.8936 156.403,64.3781 155.644,65.0066 L153.444,62.401 C154.3867,61.5979 155.168,61.0305 155.788,60.6988 C156.407,60.3671 157.084,60.114 157.817,59.9394 C158.55,59.7561 159.371,59.6644 160.279,59.6644 C161.475,59.6644 162.531,59.8827 163.447,60.3191 C164.364,60.7556 165.075,61.3666 165.582,62.1522 C166.088,62.9378 166.341,63.8369 166.341,64.8494 C166.341,65.7311 166.184,66.5603 165.87,67.3372 C165.564,68.1053 165.084,68.8953 164.429,69.7071 C163.783,70.5189 162.64,71.6755 160.999,73.1769 L158.537,75.4944 L158.537,75.6777 L166.878,75.6777 L166.878,79.082 Z" id="Path" fill="#041C42" fill-rule="nonzero"></path>
            <path d="M248.068,64.221 C248.068,65.4168 247.705,66.4337 246.981,67.2717 C246.256,68.1097 245.239,68.6858 243.93,69.0001 L243.93,69.0786 C245.475,69.2707 246.645,69.742 247.439,70.4927 C248.233,71.2347 248.631,72.2385 248.631,73.5042 C248.631,75.346 247.963,76.7819 246.627,77.812 C245.292,78.8333 243.384,79.3439 240.905,79.3439 C238.828,79.3439 236.986,78.9991 235.38,78.3095 L235.38,74.8659 C236.122,75.2413 236.938,75.5468 237.828,75.7825 C238.719,76.0182 239.6,76.136 240.473,76.136 C241.809,76.136 242.795,75.909 243.432,75.4551 C244.07,75.0012 244.388,74.2724 244.388,73.2685 C244.388,72.3695 244.022,71.7322 243.288,71.3569 C242.555,70.9815 241.385,70.7939 239.779,70.7939 L238.326,70.7939 L238.326,67.6907 L239.806,67.6907 C241.289,67.6907 242.372,67.4987 243.053,67.1146 C243.742,66.7218 244.087,66.054 244.087,65.1113 C244.087,63.6623 243.179,62.9378 241.364,62.9378 C240.735,62.9378 240.094,63.0425 239.439,63.252 C238.793,63.4615 238.073,63.8238 237.279,64.3388 L235.406,61.5499 C237.152,60.2929 239.234,59.6644 241.652,59.6644 C243.633,59.6644 245.196,60.066 246.339,60.869 C247.491,61.6721 248.068,62.7894 248.068,64.221 Z" id="Path" fill="#041C42" fill-rule="nonzero"></path>
        </g>
    </g>
</svg>