<?xml version="1.0" encoding="UTF-8"?>
<svg width="320px" height="250px" viewBox="0 0 320 250" version="1.1" xmlns="http://www.w3.org/2000/svg" xmlns:xlink="http://www.w3.org/1999/xlink">
    <!-- Generator: Sketch 59.1 (86144) - https://sketch.com -->
    <title>onboarding-cuentanos-de-ti</title>
    <desc>Created with Sketch.</desc>
    <g id="Page-1" stroke="none" stroke-width="1" fill="none" fill-rule="evenodd">
        <g id="onboarding-cuentanos-de-ti" fill-rule="nonzero">
            <rect id="Rectangle" fill="#E9F2FF" x="0" y="0" width="319.896" height="250"></rect>
            <path d="M130.7989,137.105 C130.4936,139.242 128.4478,143.151 122.7072,141.685 C116.9667,140.219 115.7351,134.051 115.8369,131.15 C113.8521,131.863 109.1498,132.28 106.2184,128.25 C103.2871,124.219 106.0149,117.41 107.7452,114.509 C105.9131,116.239 101.0276,118.509 96.142,113.746 C91.25647,108.9822 98.7884,104.5343 103.165,102.9058 C98.3304,101.1755 88.4779,95.6079 87.74506,87.1803 C87.01223,78.7527 94.5645,76.2387 98.4322,76.0351 C93.0378,75.2209 83.07333,71.2106 86.37109,61.6838 C89.66885,52.1569 99.4502,55.8822 103.9287,58.9356 C99.8065,54.3045 93.54683,43.1797 101.4859,35.7292 C109.4249,28.2787 117.0077,32.6248 119.8068,35.7292 C116.4479,30.64 112.4784,19.33197 123.4709,14.81282 C134.4635,10.293666 139.6544,21.5814 140.8758,27.7901 C143.2168,20.818 149.9446,7.57606 158.128,10.385258 C166.3113,13.19446 161.5377,25.1946 158.128,30.8436 C162.4537,24.7875 173.1206,13.43874 181.1817,16.49223 C189.243,19.54571 185.864,26.1107 183.1665,29.0115 C186.627,26.8232 194.556,23.8511 198.587,29.4695 C202.617,35.0879 195.584,43.4138 191.564,46.8744 C195.889,45.2967 205.549,43.6987 209.579,49.9278 C213.61,56.1569 208.307,62.2944 205.152,64.5846 C209.376,64.839 217.488,67.1189 216.144,74.203 C214.958,80.4595 208.523,81.3016 204.372,80.852 C206.813,81.3737 210.223,82.728 211.411,85.5009 C212.877,88.9208 207.34,91.3025 204.388,92.0659 C206.526,92.1677 210.923,93.1651 211.411,96.3408 C211.9,99.5164 203.981,103.1602 199.961,104.5852 C204.999,105.2467 213.946,108.6768 209.426,117.104 C204.907,125.532 195.126,122.55 190.8,120.005 C192.785,122.397 195.777,127.975 191.869,131.15 C187.96,134.326 184.133,130.438 182.7085,128.097 C184.49,131.252 186.709,138.173 181.3344,140.616 C175.9603,143.059 172.174,137.461 170.9526,134.357 L130.7989,137.105 Z" id="Path" fill="#004079"></path>
            <path d="M84.386411,249.931 C83.653575,182.754 130.5958,169.217 154.1585,170.846 C214.251,166.937 233.345,221.941 235.381,249.931 L84.386411,249.931 Z" id="Path" fill="#004079"></path>
            <path d="M117.9747,206.113 L117.9747,249.778 L119.5015,249.778 L119.5015,206.113 C119.5015,205.808 119.3488,205.197 118.7381,205.197 C118.1274,205.197 117.9747,205.808 117.9747,206.113 Z" id="Path" fill="#041C42"></path>
            <path d="M192.48,206.113 L192.48,249.778 L194.006,249.778 L194.006,206.113 C194.006,205.808 193.854,205.197 193.243,205.197 C192.632,205.197 192.48,205.808 192.48,206.113 Z" id="Path" fill="#041C42"></path>
            <path d="M112.1732,109.7761 C115.3489,105.7455 117.8731,108.0967 118.7382,109.7761 L110.0358,89.0124 L134.9216,49.0118 L182.2506,61.9891 L190.495,99.8523 L185.304,107.486 C189.701,103.2111 191.818,107.2316 192.327,109.7761 C191.869,111.608 190.312,115.761 187.747,117.715 C185.182,119.669 183.014,118.529 182.2506,117.715 C179.9081,124.856 173.3357,137.349 162.7083,143.461 L162.7083,172.067 C154.4029,179.151 147.1356,175.019 144.5401,172.067 L141.4755,145.502 C129.28,140.717 123.1621,125.885 121.4863,117.715 C119.2878,120.891 116.9061,120.362 115.9901,119.7 C113.3946,118.071 108.9976,113.807 112.1732,109.7761 Z" id="Path" fill="#A1C9FF"></path>
            <path d="M162.708,170.693 C154.0361,175.701 146.8808,172.983 144.3871,170.998 L142.2497,171.304 C142.7077,172.932 145.7612,177.075 153.7003,176.953 C161.6393,176.831 164.1839,172.423 164.5401,170.693 L162.708,170.693 Z" id="Path" fill="#041C42"></path>
            <path d="M185.304,107.486 C184.896,107.944 183.9295,108.4936 183.3188,107.028 C182.7081,105.5623 185.1,101.5317 186.372,99.6996 C184.744,99.2925 181.4257,97.837 181.1814,95.2721 C180.9372,92.7071 184.337,88.0964 186.067,86.1116 C184.947,86.2134 182.1281,85.8063 179.8074,83.3635 C177.4868,80.9207 179.1458,75.0173 180.2654,72.371 C178.1789,74.8646 172.4791,78.539 166.3721,73.287 C160.6867,68.3975 161.9704,61.8936 163.5709,58.6784 C162.3224,60.9037 159.8327,64.7203 157.5172,66.264 C154.9523,67.9739 154.6164,64.1266 154.7691,61.9891 C154.4128,65.0935 152.3263,71.1801 146.83,70.6915 C141.8934,70.2527 139.379,65.1828 138.5126,61.9424 C139.3252,65.8754 139.8408,72.5682 136.6009,74.3557 C133.0588,76.31 126.8806,73.5415 124.2343,71.9129 C127.4913,74.712 132.4787,81.3482 126.3717,85.5009 C121.0577,89.1145 116.2831,88.5972 113.8587,87.6307 C115.3557,88.4433 117.5528,89.9917 118.738,92.0659 C120.2037,94.6308 116.9059,96.1881 115.0738,96.6461 C116.1426,97.1042 118.3716,98.5393 118.738,100.6157 C119.1044,102.692 116.6515,103.1093 115.3792,103.0584 C117.8729,104.3307 122.7686,107.3944 122.4022,109.4708 C122.0358,111.547 119.0943,109.6234 117.6693,108.402 L106.9821,99.5469 L106.9821,70.6915 L136.6009,40.6148 L187.747,60.9204 L192.174,101.9897 L185.304,107.486 Z" id="Path" fill="#004079"></path>
            <path d="M154.6165,86.1116 C154.6165,88.4323 155.7361,89.8267 156.2959,90.2338 C157.3137,89.4195 160.4181,87.6994 164.6929,87.333 C170.0365,86.875 172.3266,88.0964 174.9221,88.7071 C176.9985,89.1956 176.8051,87.9946 176.4488,87.333 C175.2275,85.5518 171.5022,81.8062 166.3724,81.0734 C161.2425,80.3405 157.2119,81.6841 155.8378,82.4474 C155.4307,82.7019 154.6165,83.791 154.6165,86.1116 Z" id="Path" fill="#041C42"></path>
            <path d="M144.9981,87.4857 C145.2424,88.3407 145.0999,90.2847 144.9981,91.1499 C143.0643,90.5392 138.4942,89.3178 135.685,89.3178 C132.8758,89.3178 127.8986,91.0481 125.7612,91.9132 C123.1963,92.2797 123.6746,90.6409 124.2345,89.7758 C126.6772,87.2109 129.9343,85.3483 131.2575,84.7376 C136.3873,82.5391 141.7411,83.8215 143.7767,84.7376 C144.0821,85.2974 144.7538,86.6307 144.9981,87.4857 Z" id="Path" fill="#041C42"></path>
            <path d="M147.288,102.9058 C147.4101,97.2874 145.7612,90.4883 144.9978,87.791 L142.8604,90.2338 C145.3032,92.2186 145.6085,100.921 145.6085,101.2264 C145.6085,101.5317 145.4877,117.035 145.3032,118.326 C145.1505,119.395 145.6594,119.954 145.9139,120.158 C147.2574,121.257 149.5272,121.583 150.4941,121.532 C151.2575,121.532 152.9064,121.043 154.0056,120.311 C155.1049,119.578 155.3288,118.631 155.227,118.326 C155.1761,118.173 154.9827,117.868 154.6163,117.868 C154.2499,117.868 154.0565,118.173 154.0056,118.326 C153.7512,118.937 152.6926,120.005 150.4941,120.005 C148.2956,120.005 147.4406,119.089 147.1353,118.631 C146.8299,118.173 147.1658,108.5242 147.288,102.9058 Z" id="Path" fill="#041C42"></path>
            <path d="M134.9213,101.379 C134.677,98.5698 136.2445,97.9693 137.0587,98.0202 C138.7687,97.7759 139.3998,99.5469 139.5016,100.463 C139.9902,103.15 138.6874,104.0254 137.9749,104.1272 C137.0588,104.3816 135.1656,104.1882 134.9213,101.379 Z" id="Path" fill="#041C42"></path>
            <path d="M158.3059,100.7913 C158.0616,97.982 159.6291,97.3815 160.4433,97.4324 C162.1533,97.1881 162.7844,98.9592 162.8862,99.8752 C163.3748,102.5623 162.0719,103.4376 161.3595,103.5394 C160.4434,103.7938 158.5502,103.6005 158.3059,100.7913 Z" id="Path" fill="#041C42"></path>
            <path d="M141.7912,125.349 C144.7226,127.059 148.0508,127.334 149.5776,127.334 C151.6589,127.334 156.1426,126.265 159.0434,123.822 C162.0519,121.289 164.4887,124.127 164.9977,125.349 C165.6084,126.418 165.7602,129.495 161.6388,132.983 C157.6697,136.341 151.7659,137.156 149.5776,137.105 C147.6946,137.054 143.013,136.494 139.3486,133.593 C135.8157,130.797 135.9896,127.639 136.753,126.265 C137.211,125.247 138.8599,123.639 141.7912,125.349 Z" id="Path" fill="#041C42"></path>
            <path d="M150.7995,135.425 C154.5858,135.303 158.7385,133.288 159.8072,132.219 C158.535,131.405 154.9827,129.868 150.9521,130.234 C146.9215,130.601 143.8782,133.033 142.8604,134.204 C143.9291,134.662 147.0131,135.548 150.7995,135.425 Z" id="Path" fill="#A1C9FF"></path>
            <path d="M151.8682,146.265 C157.3644,146.265 161.3848,144.433 162.708,143.517 L162.708,163.823 L151.8682,146.265 Z" id="Path" fill="#86A9D9"></path>
        </g>
    </g>
</svg>