<svg width="320" height="250" viewBox="0 0 320 250" fill="none" xmlns="http://www.w3.org/2000/svg">
<rect width="320" height="250" fill="#E9F2FF"/>
<path d="M228.554 250H92.4456C95.4321 235.362 117.309 205.913 160.399 205.227C203.49 204.541 222.261 234.79 228.554 250Z" fill="#5B7FA1"/>
<path d="M158.771 220.246C151.192 220.246 145.349 211.474 143.375 207.219C152.981 204.85 167.149 205.201 173.773 206.166C173.773 210.903 166.351 220.246 158.771 220.246Z" fill="#004079"/>
<path d="M118.808 250V237.395C118.712 237.111 118.982 236.828 119.677 236.828C120.372 236.828 120.546 237.111 120.546 237.395V250H118.808Z" fill="#041C42"/>
<path d="M197.839 250V237.395C197.743 237.111 198.013 236.828 198.708 236.828C199.403 236.828 199.576 237.111 199.576 237.395V250H197.839Z" fill="#041C42"/>
<path d="M139.559 191.165C126.505 174.216 127.541 155.767 129.69 148.661C151.902 121.712 177.633 134.625 187.721 144.45C192.458 164.557 185.747 183.445 181.8 190.375L160.614 163.399L139.559 191.165Z" fill="#041C42"/>
<path fill-rule="evenodd" clip-rule="evenodd" d="M137.109 172.477C139.946 179.178 143.84 185.274 148.97 188.543L152.455 209.193C153.771 217.351 164.43 216.957 165.614 209.193L168.193 188.563C174.465 185.422 178.285 179.565 180.843 172.314C181.982 174.466 184.95 174.441 186.8 173.4C188.905 172.216 190.748 168.137 188.379 163.926C186.778 161.079 184.625 162.041 183.335 163.255C184.445 158.104 185.237 152.602 186.011 147.082C176.624 135.853 152.534 120.817 131.269 150.504C131.81 154.78 132.929 160.355 134.725 165.996C132.471 164.72 128.735 163.843 128.637 168.926C128.532 174.4 131.576 175.593 133.111 175.506C134.165 175.801 136.377 175.577 137.109 172.477Z" fill="#A1C9FF"/>
<path d="M155.613 191.033C162.666 191.56 166.974 189.586 168.246 188.533L166.403 203.008L155.613 191.033Z" fill="#638BC0"/>
<path d="M164.956 121.685L146.402 124.054C139.349 115.001 146.95 108 153.771 108C166.93 108 166.579 117.299 164.956 121.685Z" fill="#004079"/>
<path d="M183.905 133.134L131.401 138.529C131.401 132.607 137.796 119.843 156.534 118.79C175.273 117.738 182.326 128.133 183.905 133.134Z" fill="#5B7FA1"/>
<path d="M188.379 147.609C153.955 139.713 135.085 147.74 128.9 151.951C125.005 149.109 126.225 146.337 127.848 144.977C124.058 143.082 126.268 138.836 127.848 138.003C157.587 123.133 173.246 130.897 182.852 131.16C190.537 131.37 189.125 136.599 187.458 139.187C190.405 142.24 189.3 146.424 188.379 147.609Z" fill="#004079"/>
<path d="M170.483 172.479C169.167 177.48 164.035 178.269 160.877 178.269C149.086 178.269 148.77 172.216 150.086 169.321C150.924 167.479 153.902 166.9 157.06 168.268C160.219 169.637 163.245 169.07 165.219 168.268C167.851 167.199 171.881 167.165 170.483 172.479Z" fill="#041C42"/>
<path d="M143.974 165.636C144.581 165.181 145.114 165.11 145.289 165.11C145.64 165.11 146.237 165.294 145.816 166.031C145.515 166.558 144.588 166.689 144.237 166.558C143.808 166.397 143.579 165.933 143.974 165.636Z" fill="#041C42"/>
<path d="M177.954 157.155C178.915 156.944 179.581 157.147 179.788 157.241C180.202 157.43 180.807 157.967 179.914 158.61C179.277 159.069 178.113 158.726 177.77 158.383C177.35 157.962 177.33 157.292 177.954 157.155Z" fill="#041C42"/>
<path d="M154.692 176.032C158.508 177.085 165.614 177.743 168.509 173.795C166.667 171.032 157.061 170.9 154.692 176.032Z" fill="#A1C9FF"/>
<path d="M139.719 163.179C140.14 162.548 141.035 162.39 141.43 162.521C141.855 162.663 142.351 163.074 141.825 163.706C141.298 164.337 140.465 164.32 140.114 164.232C139.807 164.144 139.298 163.811 139.719 163.179Z" fill="#041C42"/>
<path d="M176.414 161.549C177.002 161.171 177.821 161.367 178.109 161.623C178.419 161.899 178.691 162.428 178.013 162.766C177.335 163.105 176.633 162.784 176.366 162.581C176.137 162.394 175.825 161.926 176.414 161.549Z" fill="#041C42"/>
<path d="M145.481 160.768C145.134 159.901 145.875 159.715 146.533 159.715C148.323 159.715 148.186 160.562 147.981 160.768C147.455 161.294 145.902 161.82 145.481 160.768Z" fill="#041C42"/>
<path d="M174.492 159.003C174.499 158.265 173.907 158.333 173.429 158.515C172.127 159.011 172.466 159.601 172.673 159.696C173.204 159.94 174.482 159.899 174.492 159.003Z" fill="#041C42"/>
<path d="M154.166 157.478C154.328 155.241 158.245 154.978 160.219 154.978C161.929 154.978 163.728 155.197 164.43 155.372C165.439 155.723 167.325 156.03 167.325 157.478C167.325 158.662 166.404 159.057 166.009 159.846C165.746 160.636 166.667 161.031 167.061 160.768C167.483 160.346 168.06 159.474 168.377 158.794C169.299 156.82 167.719 155.241 166.272 154.583C163.245 153.53 159.14 153.267 155.876 154.32C152.613 155.372 152.587 157.653 152.981 158.662C153.245 159.335 154.218 160.662 154.955 160.768C155.482 160.843 155.815 160.143 155.482 159.846C154.297 158.794 154.118 158.136 154.166 157.478Z" fill="#041C42"/>
<path d="M148.902 149.428C149.754 147.851 150.959 147.487 152.082 148.57C153.205 149.653 152.935 152.883 151.064 153.041C149.194 153.199 148.05 151.005 148.902 149.428Z" fill="#041C42"/>
<path d="M172.035 148.901C171.183 147.324 169.978 146.961 168.855 148.044C167.732 149.127 168.002 152.357 169.872 152.515C171.743 152.673 172.887 150.479 172.035 148.901Z" fill="#041C42"/>
<path fill-rule="evenodd" clip-rule="evenodd" d="M79.4253 40.1346C80.6668 33.3066 88.699 19.6506 110.896 19.6506C131.189 19.6506 141.719 30.753 145.273 37.7328L133.429 34.7343C133.429 34.7343 131.5 34.1757 130.822 36.224C130.129 38.3158 132.125 39.0173 132.125 39.0173L150.747 43.6728L156.52 25.7958C156.52 25.7958 157.451 23.822 155.402 23.0025C153.354 22.1831 152.609 24.3061 152.609 24.3061L148.999 35.7395C144.256 27.1549 132.388 15.3675 110.896 15.3675C85.943 15.3675 76.1975 32.1272 74.5837 40.1346C74.5837 40.1346 74.2112 42.3692 76.632 42.7416C79.0528 43.114 79.4253 40.1346 79.4253 40.1346Z" fill="#041C42"/>
<path fill-rule="evenodd" clip-rule="evenodd" d="M168.272 39.9483C169.513 33.1203 177.546 19.4644 199.743 19.4644C220.036 19.4644 230.565 30.5668 234.119 37.5465L222.276 34.5481C222.276 34.5481 220.347 33.9895 219.669 36.0378C218.976 38.1296 220.972 38.8311 220.972 38.8311L239.594 43.4865L245.367 25.6096C245.367 25.6096 246.297 23.6357 244.249 22.8163C242.2 21.9969 241.456 24.1198 241.456 24.1198L237.845 35.5533C233.102 26.9688 221.234 15.1813 199.743 15.1813C174.79 15.1813 165.044 31.941 163.43 39.9483C163.43 39.9483 163.058 42.183 165.479 42.5554C167.899 42.9278 168.272 39.9483 168.272 39.9483Z" fill="#041C42"/>
<path d="M134.898 56.8942C134.898 53.8088 137.399 51.3077 140.484 51.3077H174.003C177.089 51.3077 179.59 53.8088 179.59 56.8942V90.4135C179.59 93.4988 177.089 96 174.003 96H140.484C137.399 96 134.898 93.4988 134.898 90.4135V56.8942Z" fill="#F6C254"/>
<path d="M216.834 56.8942C216.834 53.8088 219.335 51.3077 222.42 51.3077H255.939C259.025 51.3077 261.526 53.8088 261.526 56.8942V90.4135C261.526 93.4988 259.025 96 255.939 96H222.42C219.335 96 216.834 93.4988 216.834 90.4135V56.8942Z" fill="#F6C254"/>
<path d="M52.9617 56.8942C52.9617 53.8088 55.4629 51.3077 58.5483 51.3077H92.0675C95.1529 51.3077 97.6541 53.8088 97.6541 56.8942V90.4135C97.6541 93.4988 95.1529 96 92.0675 96H58.5483C55.4629 96 52.9617 93.4988 52.9617 90.4135V56.8942Z" fill="#F6C254"/>
<path d="M78.5638 84.082H74.518V73.005L74.5572 71.185L74.6227 69.1948C73.9506 69.8669 73.4836 70.3077 73.2217 70.5172L71.022 72.2848L69.0711 69.8494L75.2381 64.9394H78.5638V84.082Z" fill="#041C42"/>
<path d="M163.878 84.082H150.496V81.2669L155.302 76.4093C156.725 74.9515 157.654 73.9433 158.091 73.3847C158.527 72.8173 158.841 72.2936 159.033 71.8135C159.225 71.3334 159.321 70.8358 159.321 70.3208C159.321 69.5527 159.108 68.9809 158.68 68.6056C158.261 68.2302 157.698 68.0425 156.991 68.0425C156.249 68.0425 155.529 68.2128 154.83 68.5532C154.132 68.8936 153.403 69.3781 152.644 70.0066L150.444 67.401C151.387 66.5979 152.168 66.0305 152.788 65.6988C153.408 65.3671 154.084 65.114 154.817 64.9394C155.55 64.7561 156.371 64.6644 157.279 64.6644C158.475 64.6644 159.531 64.8827 160.447 65.3191C161.364 65.7556 162.075 66.3666 162.582 67.1522C163.088 67.9378 163.341 68.8369 163.341 69.8494C163.341 70.7311 163.184 71.5603 162.87 72.3372C162.564 73.1054 162.084 73.8953 161.429 74.7071C160.784 75.5189 159.64 76.6755 157.999 78.1769L155.537 80.4944V80.6777H163.878V84.082Z" fill="#041C42"/>
<path d="M245.068 69.221C245.068 70.4168 244.705 71.4338 243.981 72.2717C243.256 73.1097 242.239 73.6858 240.93 74.0001V74.0786C242.475 74.2707 243.645 74.742 244.439 75.4927C245.233 76.2347 245.631 77.2385 245.631 78.5042C245.631 80.346 244.963 81.782 243.627 82.812C242.292 83.8333 240.384 84.3439 237.905 84.3439C235.828 84.3439 233.986 83.9991 232.38 83.3095V79.8659C233.122 80.2413 233.938 80.5468 234.828 80.7825C235.719 81.0182 236.6 81.136 237.473 81.136C238.809 81.136 239.795 80.9091 240.432 80.4551C241.07 80.0012 241.388 79.2724 241.388 78.2685C241.388 77.3695 241.022 76.7322 240.288 76.3569C239.555 75.9815 238.386 75.7939 236.779 75.7939H235.326V72.6907H236.806C238.29 72.6907 239.372 72.4987 240.053 72.1146C240.742 71.7218 241.087 71.054 241.087 70.1113C241.087 68.6623 240.179 67.9378 238.364 67.9378C237.735 67.9378 237.094 68.0425 236.439 68.252C235.793 68.4615 235.073 68.8238 234.279 69.3388L232.406 66.5499C234.152 65.2929 236.234 64.6644 238.652 64.6644C240.633 64.6644 242.196 65.066 243.339 65.869C244.491 66.6721 245.068 67.7894 245.068 69.221Z" fill="#041C42"/>
</svg>
