<svg width="320" height="298" viewBox="0 0 320 298" fill="none" xmlns="http://www.w3.org/2000/svg">
<g clip-path="url(#clip0_707_4261)">
<rect width="320" height="298" fill="#F6C254"/>
<path d="M0 297C0 198.46 0.0300119 98.5397 0 0C106.212 0.0299634 213.788 4.05328e-09 320 4.05328e-09C320 98.3 320 199.007 320 297.307C320 297.307 317.576 297.307 316.986 297.307C271.598 297.307 226.21 297.307 180.822 297.307C177.491 297.307 177.451 297.277 177.451 294.001C177.451 284.363 177.451 274.715 177.451 265.076C177.451 264.537 177.451 263.998 177.481 263.458C177.541 262.52 178.041 262.03 178.981 261.96C179.651 261.92 180.312 261.93 180.982 261.93C214.755 261.93 248.519 261.93 282.292 261.93C284.943 261.93 287.304 261.231 289.265 259.423C291.426 257.426 292.396 254.939 292.396 251.972C292.376 210.034 292.386 168.095 292.386 126.156C292.386 101.137 292.386 76.1171 292.386 51.0876C292.386 47.3722 290.756 44.5356 287.554 42.6579C286.144 41.8289 284.603 41.3895 282.922 41.3895C242.326 41.3895 201.72 41.4094 161.124 41.3895C155.232 41.3895 151.39 46.3634 151.41 51.1276C151.47 72.1619 151.41 93.1862 151.47 114.221C151.47 116.278 150.68 118.006 149.99 119.824C149.87 120.133 149.67 120.503 149.299 120.463C148.939 120.423 148.849 120.004 148.799 119.684C148.649 118.775 148.739 117.856 148.699 116.947C148.679 116.528 148.699 116.058 148.229 115.889C147.679 115.699 147.389 116.148 147.139 116.528C146.608 117.327 146.318 118.256 145.938 119.125C145.738 119.574 145.578 120.273 145.048 120.183C144.437 120.083 144.517 119.344 144.467 118.815C144.427 118.356 144.457 117.896 144.437 117.447C144.427 117.067 144.397 116.658 143.937 116.548C143.477 116.438 143.267 116.797 143.077 117.117C142.016 118.915 141.356 120.892 140.636 122.84C139.115 126.935 137.825 131.1 136.534 135.265C136.334 135.894 136.194 136.563 135.794 137.113C135.444 137.592 135.124 137.552 134.904 137.003C134.684 136.433 134.794 135.854 134.864 135.275C134.994 134.116 135.084 132.968 134.764 131.819C134.654 131.42 134.654 130.94 134.143 130.85C133.593 130.75 133.313 131.2 133.083 131.579C132.223 133.008 131.602 134.556 130.972 136.094C128.401 142.406 125.89 148.738 123.529 155.131C122.899 156.839 121.708 158.097 120.538 159.375C114.275 166.267 107.993 173.129 101.56 179.87C96.5384 185.134 91.5764 190.458 86.7445 195.891C82.1527 201.045 77.6809 206.288 73.3592 211.682C72.0887 213.27 70.8482 214.888 69.5577 216.466C68.4472 217.834 67.7569 217.714 67.1167 216.076C65.486 211.901 64.1855 207.597 62.3448 203.492C61.5645 201.744 60.7842 199.996 59.9538 198.278C59.2736 196.88 59.3236 196.35 60.5741 195.511C62.4148 194.283 62.6849 193.384 60.344 192.036C59.6637 191.646 59.0535 191.117 58.3632 190.727C55.5321 189.119 53.2812 186.962 51.2804 184.385C49.2596 181.778 46.7686 179.601 43.3973 178.772C41.3865 178.282 39.5757 178.972 38.3853 180.649C36.6046 183.156 36.1644 186.083 35.7742 188.999C35.4641 191.346 35.4441 193.714 35.4741 196.081C35.5641 202.233 36.1344 208.336 37.1148 214.408C37.3549 215.926 37.0547 217.085 36.0443 218.284C32.9831 221.899 30.282 225.794 27.591 229.69C21.9087 237.94 16.7567 246.529 11.6746 255.149C10.9444 256.387 10.6642 257.695 10.5442 259.044C10.114 263.848 10.104 268.652 10.4341 273.466C10.7843 278.58 11.7747 283.574 13.2253 288.488C13.8855 290.725 14.7259 292.892 15.7363 294.99C16.5766 296.738 16.2565 297.287 14.3657 297.307C10.114 297.337 4.25169 297.02 0 297Z" fill="#A1C9FF"/>
<path d="M0 297L16.0161 296.828C15.3459 295.299 14.6256 293.871 14.0754 292.383C10.654 283.274 9.47354 273.816 9.74365 264.137C9.81368 261.68 10.1638 259.263 10.3639 256.816C10.4239 256.067 10.9641 255.558 11.3143 254.949C17.2566 244.621 23.4891 234.474 30.4519 224.786C32.3426 222.159 34.2934 219.572 36.3742 217.095C36.7844 216.615 36.9245 216.196 36.8244 215.547C35.674 208.156 34.8136 200.725 35.0537 193.224C35.1738 189.279 35.4239 185.324 37.2146 181.688C38.8752 178.302 41.4563 177.323 44.9477 178.752C47.9689 179.98 50.3798 182.088 52.1605 184.704C54.2513 187.761 57.3226 189.459 60.2637 191.356C63.1049 193.194 63.6551 194.073 60.4438 196.15C60.0336 196.42 59.6435 196.63 59.9936 197.309C63.1949 203.511 65.4358 210.103 67.8268 216.635C67.9068 216.855 68.0168 217.065 68.1769 217.405C69.8475 215.317 71.4482 213.31 73.0388 211.312C81.022 201.294 89.6054 191.816 98.4089 182.517C106.412 174.057 114.365 165.558 122.108 156.878C122.538 156.389 122.729 155.81 122.949 155.23C125.94 147.45 128.801 139.619 132.242 132.029C132.633 131.18 132.993 130.061 134.183 130.281C135.394 130.501 135.284 131.699 135.374 132.628C135.524 134.166 135.244 135.694 135.374 137.272C136.234 134.586 137.074 131.889 137.955 129.202C139.165 125.497 140.386 121.791 141.956 118.226C142.226 117.616 142.536 117.027 142.907 116.478C143.177 116.078 143.507 115.609 144.117 115.809C144.657 115.988 144.887 116.468 144.917 116.977C144.967 117.966 144.927 118.965 145.097 120.013C145.478 119.045 145.798 118.046 146.258 117.127C146.668 116.308 147.018 115.139 148.189 115.329C149.439 115.529 149.229 116.767 149.299 117.676C149.369 118.535 149.309 119.394 149.309 120.503C149.939 118.226 151 116.398 151 114.081C150.91 93.1762 150.95 72.2617 150.95 51.3572C150.95 45.2147 155.222 40.9399 161.384 40.9399C201.78 40.9399 242.166 40.9399 282.562 40.9399C288.545 40.9399 292.876 45.2547 292.876 51.2374C292.876 118.236 292.876 185.244 292.876 252.242C292.876 258.095 288.505 262.41 282.572 262.41C248.218 262.41 213.865 262.42 179.511 262.38C178.201 262.38 177.911 262.719 177.911 263.998C177.971 274.385 177.941 284.782 177.941 295.17C177.941 296.282 178.426 297 179.5 297C225.758 297 273.742 297 320 297V298C214.488 298 105.512 298 0 298V297Z" fill="#041C42"/>
<path d="M154.061 258.175C152.591 256.447 151.94 254.499 151.94 252.302C151.94 246.229 151.94 240.167 151.94 234.094C151.94 203.541 151.94 172.999 151.91 142.446C151.91 140.778 152.361 139.26 152.801 137.712C153.921 133.767 154.932 129.781 155.592 125.726C155.712 124.987 155.722 124.238 155.732 123.489C155.742 122.99 155.742 122.42 155.122 122.271C154.551 122.141 154.211 122.57 153.911 122.98C153.211 123.909 152.851 125.017 152.16 126.376C152.491 124.118 152.791 122.221 153.041 120.323C153.141 119.544 153.181 118.755 153.171 117.966C153.171 117.566 153.111 116.957 152.861 116.807C151.52 116.008 151.95 114.75 151.94 113.641C151.93 92.9464 151.93 72.2417 151.93 51.547C151.93 45.7041 155.682 41.9387 161.504 41.9387C201.77 41.9387 242.036 41.9387 282.302 41.9387C288.064 41.9387 291.856 45.7141 291.856 51.4371C291.856 118.276 291.856 185.104 291.856 251.942C291.856 257.605 288.054 261.421 282.412 261.421C248.019 261.421 213.625 261.421 179.231 261.451C178.121 261.451 177.811 261.191 177.891 260.102C177.991 258.704 177.921 257.296 177.921 255.798C175.93 256.307 174.489 257.496 173.059 258.684C172.999 258.734 172.919 258.794 172.879 258.864C171.098 261.98 168.117 261.521 165.246 261.451C164.425 261.431 164.695 260.881 164.695 260.492C164.675 256.707 164.695 252.931 164.695 249.146C164.695 248.736 164.695 248.337 164.695 247.698C159.563 249.745 156.542 253.65 154.071 258.195L154.061 258.175Z" fill="white"/>
<path d="M11.7847 256.087C19.4877 242.804 27.4209 229.78 37.2348 217.544C37.1147 219.332 37.9751 219.182 38.9555 219.033C47.0187 217.844 54.8718 216.006 61.9646 211.772C62.7449 211.302 63.4752 210.763 64.3656 210.163C65.516 213.26 66.6465 216.306 67.827 219.482C69.5777 217.275 71.2683 215.147 72.949 213.02C81.9626 201.644 91.7565 190.957 101.74 180.43C108.753 173.039 115.686 165.578 122.439 157.957C122.939 157.388 123.369 157.208 124.129 157.328C129.792 158.217 135.464 159.066 141.146 159.865C142.056 159.995 142.147 160.194 141.766 160.984C139.245 166.267 136.514 171.441 133.663 176.545C125.57 190.997 116.636 204.95 107.943 219.043C103.911 225.575 99.9097 232.127 96.3583 238.938C93.9974 243.473 93.127 248.417 91.9766 253.291C90.3759 260.043 89.4255 266.904 88.2551 273.736C88.105 274.615 87.8349 274.725 87.0546 274.525C65.9962 269.351 44.9278 264.198 23.8695 259.044C19.8779 258.065 15.8863 257.086 11.7847 256.077V256.087Z" fill="#A1C9FF"/>
<path d="M90.7264 296.828C66.6668 296.828 42.5972 296.828 18.5377 296.858C17.5473 296.858 17.0571 296.548 16.6269 295.699C13.9258 290.296 12.4653 284.523 11.5649 278.6C10.6345 272.497 10.4445 266.365 11.0047 260.212C11.2948 256.966 11.2448 256.976 14.446 257.765C38.8858 263.748 63.3255 269.721 87.7652 275.713C88.3454 275.853 88.9157 275.873 89.4959 275.873C114.016 275.873 138.545 275.883 163.065 275.853C164.196 275.853 164.496 276.123 164.476 277.261C164.416 283.374 164.416 289.477 164.476 295.589C164.486 296.648 164.196 296.858 163.175 296.858C139.026 296.828 114.876 296.838 90.7364 296.838L90.7264 296.828Z" fill="#CAE0FF"/>
<path d="M124.49 253.251C125.92 252.612 127.441 252.322 128.811 251.633C129.442 251.313 130.212 250.994 130.152 250.165C130.082 249.226 129.162 249.106 128.461 248.976C126.36 248.597 124.23 248.617 122.109 248.657C115.616 248.786 109.124 248.976 102.641 249.096C100.1 249.146 97.559 249.036 95.028 249.076C94.1176 249.086 94.0676 248.796 94.2276 247.997C95.168 243.063 97.519 238.719 99.9599 234.414C106.232 223.318 113.195 212.641 119.858 201.784C127.591 189.199 135.324 176.605 141.747 163.281C143.547 159.545 146.198 156.289 147.719 152.394C148.749 149.747 149.79 147.091 150.96 144.424V145.692C150.96 181.059 150.96 216.426 150.95 251.793C150.95 254.33 151.52 256.637 153.151 258.624C153.511 259.074 153.521 259.443 153.291 259.973C152.431 261.91 151.801 263.928 151.27 265.975C151.04 266.844 149.54 267.364 148.999 266.675C148.029 265.446 146.588 265.326 145.298 264.617C146.368 264.617 147.449 264.687 148.509 264.597C149.43 264.517 150.66 264.537 150.86 263.379C151.06 262.17 149.83 261.92 148.989 261.541C148.279 261.221 147.509 261.051 146.759 260.612C147.669 260.612 148.569 260.642 149.48 260.612C150.34 260.582 151.23 260.452 151.34 259.364C151.44 258.375 150.62 258.015 149.88 257.745C147.639 256.946 145.298 256.577 142.967 256.177C136.835 255.119 130.682 254.19 124.51 253.251H124.49Z" fill="#A1C9FF"/>
<path d="M154.772 123.749C154.502 127.205 153.741 130.301 152.931 133.387C150.93 141.058 148.639 148.629 144.958 155.7C143.137 159.196 143.107 159.186 139.215 158.596C134.324 157.857 129.442 157.108 124.55 156.409C123.789 156.299 123.679 156.109 123.959 155.4C126.901 147.79 129.732 140.129 133.053 132.668C133.273 132.169 133.393 131.549 134.123 131.27C134.764 133.477 134.243 135.644 134.103 137.802C134.003 139.41 133.703 141.008 133.503 142.616C133.453 143.045 133.243 143.675 133.803 143.815C134.474 143.984 134.534 143.275 134.674 142.836C136.614 136.843 138.505 130.83 140.476 124.858C141.356 122.191 142.287 119.544 143.817 116.778C144.217 118.985 143.827 120.833 143.577 122.68C143.007 126.745 141.867 130.711 141.396 134.806C141.346 135.265 141.036 135.924 141.786 136.014C142.387 136.084 142.377 135.445 142.477 135.015C143.687 129.762 144.688 124.468 146.438 119.354C146.798 118.306 147.119 117.227 148.069 116.188C148.509 117.956 148.259 119.534 148.059 121.092C147.449 125.956 146.268 130.711 145.278 135.505C145.168 136.034 144.598 136.913 145.428 137.123C146.288 137.342 146.158 136.304 146.298 135.774C147.759 130.161 149.019 124.488 150.9 118.995C151.11 118.366 151.18 117.217 151.87 117.367C152.541 117.507 152.211 118.615 152.141 119.274C151.56 124.818 150.3 130.231 149.069 135.644C148.959 136.154 148.409 136.933 149.149 137.163C150.08 137.442 149.93 136.384 150.09 135.884C151.19 132.368 152.261 128.833 153.711 125.437C153.931 124.918 154.101 124.358 154.762 123.759L154.772 123.749Z" fill="#CAE0FF"/>
<path d="M149.86 263.219C148.589 263.788 147.429 263.678 146.278 263.658C140.986 263.548 135.764 262.709 130.532 262.05C130.372 262.03 130.202 261.99 130.042 261.97C129.652 261.92 129.242 261.91 129.131 262.38C129.011 262.899 129.492 262.989 129.822 263.059C131.322 263.359 132.833 263.658 134.354 263.898C138.005 264.477 141.676 264.947 145.258 265.886C146.008 266.085 146.768 266.275 147.679 266.814C147.139 266.854 146.808 266.894 146.478 266.894C132.533 266.894 118.587 266.894 104.652 266.924C103.671 266.924 103.411 266.665 103.401 265.706C103.301 260.852 103.141 255.988 103.001 251.134C102.981 250.554 102.881 250.045 103.831 250.045C110.984 250.025 118.137 249.525 125.3 249.685C126.54 249.715 127.771 249.825 129.181 250.185C127.891 251.213 126.47 251.403 125.19 251.883C124.41 252.172 123.609 252.382 122.829 252.652C122.429 252.782 121.979 252.961 122.039 253.471C122.099 254.03 122.579 254.12 123.059 254.19C126.02 254.599 128.991 254.969 131.943 255.438C137.555 256.337 143.217 256.996 148.739 258.425C149.319 258.574 149.94 258.704 150.38 259.294C149.76 259.793 149.069 259.663 148.439 259.643C142.987 259.483 137.575 258.854 132.153 258.305C131.492 258.235 130.832 258.185 130.162 258.125C129.822 258.095 129.402 258.085 129.352 258.495C129.282 258.974 129.722 259.084 130.102 259.144C131.993 259.413 133.893 259.653 135.784 259.933C139.766 260.512 143.767 261.021 147.649 262.15C148.389 262.37 149.159 262.56 149.89 263.239L149.86 263.219Z" fill="#CAE0FF"/>
<path d="M46.1888 201.135C42.7675 199.087 42.1272 197.359 43.8179 194.932C45.0384 193.174 46.3389 193.314 49.16 195.571C49.16 194.073 49.8503 194.063 51.0808 194.353C53.0616 194.812 54.8323 194.083 56.3929 192.695C57.5433 194.483 58.4137 196.39 59.3841 198.248C59.6942 198.847 59.274 198.957 58.8739 199.107C57.3032 199.696 55.8527 199.287 54.4421 198.588C54.142 198.438 53.8619 198.268 53.5718 198.098C53.3117 197.948 53.1016 197.789 52.8715 198.178C52.6414 198.548 52.7114 198.747 53.0716 198.967C55.0223 200.156 57.0632 200.905 59.3241 199.996C59.9643 199.736 60.1944 199.866 60.4245 200.445C61.5049 203.042 62.5954 205.639 63.7258 208.226C64.0159 208.895 63.8559 209.235 63.3056 209.654C59.9843 212.181 56.1928 213.739 52.2813 215.028C48.1296 216.396 43.8779 217.335 39.5462 217.954C39.046 218.024 38.3157 218.483 38.1256 217.395C37.2653 212.451 36.645 207.477 36.2549 202.443C40.6466 204.301 42.8575 204.011 46.1688 201.135H46.1888Z" fill="#CAE0FF"/>
<path d="M120.088 274.874C110.184 274.874 100.28 274.854 90.3761 274.904C89.2857 274.904 89.0356 274.635 89.2557 273.606C89.5758 272.108 89.8059 270.59 90.016 269.072C90.136 268.233 90.3861 267.853 91.3865 267.863C95.9584 267.933 100.54 267.893 105.112 267.893C119.968 267.893 134.824 267.903 149.68 267.863C150.72 267.863 151.03 268.103 150.96 269.151C150.86 270.68 150.87 272.228 150.96 273.756C151.02 274.725 150.69 274.894 149.79 274.894C139.886 274.864 129.982 274.874 120.078 274.874H120.088Z" fill="#CAE0FF"/>
<path d="M176.93 257.166V258.434C176.93 270.809 176.92 283.194 176.96 295.569C176.96 296.598 176.72 296.878 175.68 296.858C172.599 296.778 169.517 296.798 166.446 296.858C165.606 296.868 165.426 296.618 165.426 295.819C165.456 289.217 165.216 282.595 165.526 276.003C165.726 271.698 167.637 267.773 169.878 264.098C171.278 261.81 173.019 259.813 175.21 258.245C175.7 257.895 176.24 257.605 176.93 257.176V257.166Z" fill="#CAE0FF"/>
<path d="M163.685 249.206V250.324C163.685 258.125 163.675 265.925 163.705 273.726C163.705 274.615 163.555 274.924 162.575 274.904C159.333 274.834 156.092 274.874 152.851 274.884C152.321 274.884 151.98 274.914 151.92 274.145C151.35 267.084 153.151 260.692 157.242 254.929C158.913 252.582 160.924 250.594 163.695 249.196L163.685 249.206Z" fill="#CAE0FF"/>
<path d="M48.4791 193.624C47.1686 192.845 45.898 192.295 44.4375 193.044C41.6664 194.473 41.0561 198.558 43.4371 200.535C44.4275 201.364 44.1574 201.594 43.237 202.013C41.9065 202.613 40.5459 202.842 39.1054 202.533C36.9845 202.073 36.1342 201.114 36.0741 198.997C35.9441 194.053 35.8741 189.109 37.2546 184.285C37.4347 183.656 37.6848 183.027 37.9549 182.427C38.7552 180.619 39.8957 179.121 42.0665 179.141C44.3074 179.161 46.1682 180.03 47.2886 182.148C48.6792 184.774 48.8792 187.621 48.8192 190.497C48.7992 191.516 48.8692 192.565 48.4891 193.624H48.4791Z" fill="#CAE0FF"/>
<path d="M102.401 258.585C102.401 261.032 102.361 263.489 102.421 265.936C102.441 266.725 102.231 266.924 101.47 266.914C98.0991 266.874 94.7278 266.884 91.3464 266.914C90.6762 266.914 90.3861 266.824 90.5261 266.035C91.3865 261.041 92.3368 256.078 93.4673 251.134C93.6574 250.325 93.9875 250.075 94.7978 250.095C96.8786 250.145 98.9595 250.115 101.04 250.085C101.711 250.075 101.991 250.245 101.981 250.984C101.941 253.521 101.961 256.048 101.961 258.585C102.101 258.585 102.251 258.585 102.391 258.585H102.401Z" fill="#A1C9FF"/>
<path d="M164.686 273.366C164.686 269.96 164.686 266.554 164.686 263.149C164.686 262.659 164.756 262.379 165.346 262.399C166.746 262.439 168.147 262.409 169.738 262.409C167.417 265.895 165.906 269.541 164.686 273.366Z" fill="#A1C9FF"/>
<path d="M53.6612 188.27C52.1706 188.47 51.0502 189.049 49.8397 189.848C49.8197 187.292 49.5396 184.944 48.7793 182.637C50.7001 184.205 52.1706 186.123 53.6612 188.26V188.27Z" fill="#CAE0FF"/>
<path d="M55.8726 189.688C57.8333 190.987 59.494 192.096 61.1647 193.204C61.6549 193.534 61.7249 193.883 61.2547 194.293C61.2247 194.323 61.1847 194.343 61.1547 194.373C59.9942 195.445 59.0271 195.295 58.2535 193.923C57.5132 192.615 56.7729 191.307 55.8726 189.688Z" fill="#CAE0FF"/>
<path d="M53.0212 193.234C51.5406 193.674 50.07 193.344 49.7999 192.585C49.4798 191.686 50.6603 190.298 52.441 189.589C52.1108 190.907 51.9708 192.175 53.0212 193.234Z" fill="#CAE0FF"/>
<path d="M276.23 115.259C277.67 115.939 278.921 116.638 279.951 117.686C281.882 119.644 282.862 122.001 282.872 124.738C282.892 131.969 282.872 139.2 282.872 146.431C282.872 167.296 282.872 188.16 282.872 209.025C282.872 215.247 278.611 219.502 272.378 219.502C238.695 219.502 205.001 219.502 171.318 219.502C165.256 219.502 160.944 215.207 160.944 209.155C160.944 181.179 160.944 153.213 160.944 125.237C160.944 120.663 162.995 117.407 167.166 115.479C167.266 115.439 167.346 115.359 167.547 115.209C166.106 114.55 164.835 113.811 163.785 112.732C161.964 110.855 160.984 108.607 160.954 106.021C160.904 100.867 160.894 95.7132 160.954 90.5595C161.004 85.1361 165.486 80.8414 171.068 80.8414C186.684 80.8314 202.3 80.8414 217.917 80.8414C236.074 80.8414 254.231 80.8414 272.378 80.8414C278.611 80.8414 282.872 85.0862 282.872 91.3186C282.872 95.9729 282.862 100.627 282.872 105.282C282.892 109.996 280.652 113.212 276.22 115.269L276.23 115.259Z" fill="#041C42"/>
<path d="M221.828 247.438C216.666 247.438 211.514 247.438 206.352 247.438C203.741 247.438 201.91 245.78 201.92 243.432C201.93 241.095 203.751 239.467 206.392 239.467C216.756 239.467 227.11 239.467 237.474 239.467C240.085 239.467 241.916 241.125 241.906 243.472C241.896 245.81 240.075 247.438 237.434 247.438C232.232 247.438 227.03 247.438 221.828 247.438Z" fill="#041C42"/>
<path d="M233.903 65.8697C230.912 65.8498 228.481 63.5725 228.531 60.8259C228.581 58.0393 231.002 55.862 234.023 55.9019C236.934 55.9419 239.335 58.1791 239.355 60.8858C239.375 63.5925 236.864 65.8897 233.903 65.8797V65.8697Z" fill="#041C42"/>
<path d="M193.927 60.8457C193.927 59.4774 193.957 58.1091 193.917 56.7408C193.897 56.1315 194.007 55.8419 194.717 55.8818C195.798 55.9417 196.878 55.8618 197.959 55.9118C199.97 56.0116 201.46 57.5298 201.47 59.4075C201.47 61.2652 199.96 62.7634 197.939 62.8833C196.128 62.9931 196.068 62.9931 196.128 64.8109C196.158 65.6898 195.888 65.9196 195.018 65.9196C194.187 65.9196 193.847 65.7597 193.907 64.8509C193.997 63.5325 193.927 62.1941 193.927 60.8657V60.8457Z" fill="#041C42"/>
<path d="M213.865 65.8694C210.894 65.8894 208.693 64.2913 208.133 62.0041C207.593 59.7968 208.663 57.5895 210.784 56.5308C213.045 55.4022 215.966 55.8816 217.446 57.5895C217.777 57.9691 217.987 58.2188 217.266 58.4185C216.486 58.6382 215.856 58.9678 214.996 58.3486C213.715 57.4197 211.834 57.8492 210.834 59.0477C209.944 60.1164 209.903 61.5447 210.724 62.6034C211.684 63.8519 213.415 64.2114 214.885 63.5323C215.286 63.3425 215.566 62.7832 216.056 62.953C216.626 63.1527 217.517 63.1128 217.677 63.6721C217.827 64.2014 217.056 64.551 216.596 64.8806C215.656 65.5598 214.585 65.8394 213.855 65.8694H213.865Z" fill="#041C42"/>
<path d="M245.458 55.9119C246.258 55.832 246.938 55.9618 247.529 56.2315C247.879 56.3913 248.799 56.2315 248.419 57.1604C248.149 57.8196 247.929 58.5487 246.978 57.8995C246.808 57.7896 246.588 57.7497 246.388 57.6997C245.318 57.45 244.237 57.8495 244.207 58.5687C244.157 59.5974 245.018 59.8171 245.778 60.0169C246.348 60.1667 246.898 60.3065 247.409 60.5962C249.279 61.6649 249.439 63.6225 247.749 64.9609C246.198 66.1894 243.547 66.1494 242.067 64.881C241.746 64.6013 241.386 64.3316 241.866 63.8822C242.217 63.5626 242.367 62.8235 243.097 63.3928C243.817 63.9621 244.638 64.1918 245.558 64.002C246.068 63.8922 246.518 63.6824 246.628 63.1031C246.738 62.4839 246.308 62.1942 245.828 61.9945C245.338 61.7847 244.808 61.6549 244.297 61.4851C242.647 60.9358 241.826 59.947 241.966 58.6885C242.147 57.0905 243.247 56.0517 244.958 55.8919C245.168 55.872 245.378 55.8919 245.458 55.8919V55.9119Z" fill="#041C42"/>
<path d="M223.089 55.8919C224.299 55.8919 225.51 55.9418 226.71 55.8719C227.531 55.822 227.461 56.3114 227.411 56.8108C227.371 57.2702 227.701 57.9394 226.73 57.8995C225.92 57.8695 224.81 57.5099 224.339 58.0593C223.809 58.6985 224.189 59.8071 224.169 60.706C224.139 62.0744 224.099 63.4527 224.179 64.821C224.239 65.7399 223.899 65.8797 223.069 65.8997C222.158 65.9197 221.968 65.6001 221.998 64.7611C222.058 62.8135 221.978 60.8558 222.038 58.8982C222.058 58.0992 221.858 57.7397 221.018 57.8695C220.688 57.9194 220.348 57.8295 220.018 57.8895C218.947 58.0692 218.657 57.6198 218.737 56.601C218.787 55.9518 219.037 55.8619 219.577 55.8819C220.738 55.9119 221.908 55.8819 223.079 55.8819L223.089 55.8919Z" fill="#041C42"/>
<path d="M205.841 60.9157C205.841 62.324 205.801 63.7322 205.851 65.1405C205.891 66.1793 205.171 65.8397 204.671 65.8696C204.161 65.8996 203.621 66.0494 203.641 65.1405C203.701 62.284 203.691 59.4275 203.641 56.571C203.631 55.722 204.141 55.8519 204.601 55.9118C205.071 55.9717 205.851 55.5123 205.841 56.571C205.811 58.0192 205.841 59.4674 205.841 60.9157Z" fill="#041C42"/>
<path d="M221.848 184.095C202.32 184.095 182.803 184.095 163.275 184.125C162.204 184.125 161.904 183.916 161.904 182.787C161.954 172.32 161.944 161.842 161.904 151.375C161.904 150.386 162.164 150.157 163.135 150.157C202.31 150.187 241.476 150.187 280.652 150.157C281.602 150.157 281.892 150.357 281.892 151.365C281.852 161.882 281.852 172.39 281.892 182.907C281.892 183.896 281.632 184.125 280.662 184.125C261.054 184.095 241.446 184.105 221.838 184.105L221.848 184.095Z" fill="#F6C254"/>
<path d="M221.778 149.178C202.3 149.178 182.813 149.178 163.335 149.208C162.214 149.208 161.904 148.948 161.914 147.799C161.974 140.279 161.944 132.758 161.944 125.237C161.944 119.574 165.746 115.759 171.398 115.759C205.071 115.759 238.755 115.759 272.428 115.759C278.08 115.759 281.872 119.574 281.882 125.237C281.882 132.798 281.862 140.359 281.912 147.929C281.912 148.978 281.642 149.208 280.611 149.208C261.004 149.178 241.396 149.188 221.788 149.188L221.778 149.178Z" fill="#F6C254"/>
<path d="M221.978 185.094C241.506 185.094 261.024 185.104 280.552 185.064C281.642 185.064 281.912 185.314 281.912 186.413C281.862 193.973 281.882 201.534 281.882 209.105C281.882 214.678 278.051 218.513 272.489 218.513C238.765 218.513 205.052 218.513 171.328 218.513C165.766 218.513 161.945 214.668 161.945 209.095C161.945 201.494 161.965 193.883 161.915 186.283C161.915 185.274 162.205 185.074 163.155 185.074C182.763 185.104 202.371 185.094 221.978 185.094Z" fill="#F6C254"/>
<path d="M221.778 114.76C205.041 114.76 188.305 114.76 171.568 114.76C165.716 114.76 161.944 111.014 161.944 105.212C161.944 100.517 161.944 95.823 161.944 91.1188C161.944 85.7154 165.816 81.8401 171.208 81.8401C205.011 81.8401 238.815 81.8401 272.628 81.8401C278.01 81.8401 281.872 85.7353 281.882 91.1387C281.882 95.873 281.882 100.617 281.882 105.351C281.882 110.925 278.051 114.76 272.488 114.76C255.582 114.76 238.685 114.76 221.778 114.76Z" fill="white"/>
<path d="M221.838 246.449C216.676 246.449 211.524 246.449 206.362 246.449C204.231 246.449 202.881 245.24 202.911 243.393C202.941 241.605 204.281 240.466 206.362 240.466C216.716 240.466 227.08 240.466 237.434 240.466C239.565 240.466 240.916 241.675 240.886 243.523C240.856 245.31 239.515 246.449 237.434 246.449C232.232 246.449 227.04 246.449 221.838 246.449Z" fill="white"/>
<path d="M179.472 171.6C181.102 171.6 182.383 171.66 183.653 171.58C184.534 171.531 184.554 171.97 184.574 172.629C184.594 173.358 184.424 173.658 183.613 173.628C181.702 173.568 179.782 173.628 177.871 173.588C177.441 173.588 176.761 173.928 176.6 173.248C176.46 172.629 176.47 171.97 177.051 171.411C178.231 170.292 179.332 169.104 180.462 167.945C180.952 167.436 181.432 166.906 181.672 166.227C182.193 164.739 181.412 163.84 179.852 164.12C179.312 164.219 178.831 164.479 178.411 164.819C177.991 165.158 177.741 165.088 177.391 164.699C176.46 163.67 176.46 163.58 177.671 162.821C178.991 161.992 180.432 161.862 181.883 162.202C183.943 162.691 184.814 164.849 183.823 166.876C183.093 168.374 181.753 169.343 180.612 170.492C180.322 170.781 180.012 171.061 179.472 171.58V171.6Z" fill="#041C42"/>
<path d="M187.364 173.848C186.434 173.748 185.944 173.268 185.984 172.389C186.024 171.541 186.594 171.141 187.394 171.181C188.265 171.221 188.755 171.68 188.705 172.609C188.655 173.498 188.075 173.768 187.354 173.848H187.364Z" fill="#041C42"/>
<path d="M263.245 169.902C262.825 169.902 262.415 169.902 261.994 169.902C261.604 169.912 261.364 169.813 261.374 169.353C261.374 168.954 261.494 168.724 261.934 168.724C262.845 168.724 263.765 168.724 264.675 168.724C265.066 168.724 265.286 168.874 265.306 169.303C265.336 169.843 265.016 169.912 264.595 169.902C264.135 169.892 263.685 169.902 263.225 169.902H263.245Z" fill="#041C42"/>
<path d="M196.298 169.902C195.838 169.902 195.388 169.902 194.927 169.902C194.577 169.902 194.397 169.783 194.407 169.393C194.417 169.034 194.437 168.724 194.907 168.724C195.858 168.724 196.818 168.724 197.768 168.724C198.219 168.724 198.309 168.994 198.309 169.383C198.309 169.753 198.129 169.902 197.778 169.902C197.278 169.902 196.788 169.902 196.288 169.902H196.298Z" fill="#041C42"/>
<path d="M258.173 169.902C257.713 169.902 257.262 169.902 256.802 169.902C256.462 169.902 256.242 169.803 256.242 169.413C256.242 169.053 256.292 168.734 256.752 168.734C257.703 168.734 258.663 168.734 259.613 168.734C260.063 168.734 260.133 168.994 260.153 169.373C260.173 169.843 259.923 169.922 259.543 169.912C259.083 169.902 258.633 169.912 258.173 169.912V169.902Z" fill="#041C42"/>
<path d="M216.966 169.902C216.556 169.902 216.136 169.892 215.726 169.902C215.296 169.912 214.996 169.842 215.016 169.303C215.036 168.884 215.236 168.714 215.636 168.714C216.546 168.714 217.457 168.714 218.367 168.714C218.807 168.714 218.917 168.934 218.927 169.333C218.937 169.783 218.737 169.902 218.327 169.892C217.867 169.872 217.417 169.892 216.956 169.892L216.966 169.902Z" fill="#041C42"/>
<path d="M222.088 169.902C221.628 169.902 221.168 169.902 220.718 169.902C220.387 169.902 220.157 169.823 220.167 169.423C220.167 169.063 220.177 168.734 220.658 168.734C221.618 168.734 222.568 168.734 223.529 168.734C223.949 168.734 224.099 168.964 224.109 169.363C224.119 169.843 223.839 169.902 223.469 169.902C223.008 169.902 222.548 169.902 222.098 169.902H222.088Z" fill="#041C42"/>
<path d="M232.412 169.902C231.992 169.902 231.582 169.902 231.162 169.902C230.742 169.912 230.432 169.843 230.452 169.303C230.472 168.874 230.692 168.724 231.092 168.724C232.002 168.724 232.923 168.724 233.833 168.724C234.273 168.724 234.383 168.944 234.393 169.353C234.403 169.813 234.163 169.912 233.773 169.902C233.313 169.892 232.863 169.902 232.402 169.902H232.412Z" fill="#041C42"/>
<path d="M237.524 169.902C237.064 169.902 236.614 169.902 236.154 169.902C235.794 169.902 235.624 169.773 235.634 169.393C235.634 169.034 235.674 168.724 236.144 168.724C237.094 168.724 238.055 168.724 239.005 168.724C239.455 168.724 239.545 169.004 239.545 169.383C239.545 169.753 239.365 169.902 239.015 169.892C238.515 169.892 238.025 169.892 237.524 169.892V169.902Z" fill="#041C42"/>
<path d="M206.572 169.902C206.152 169.902 205.742 169.902 205.322 169.902C204.952 169.902 204.682 169.843 204.692 169.363C204.692 168.954 204.842 168.734 205.262 168.734C206.222 168.734 207.173 168.734 208.133 168.734C208.583 168.734 208.633 169.053 208.633 169.423C208.633 169.833 208.393 169.892 208.073 169.892C207.573 169.892 207.073 169.892 206.572 169.892V169.902Z" fill="#041C42"/>
<path d="M247.858 169.902C247.398 169.902 246.948 169.902 246.488 169.902C246.168 169.902 245.928 169.833 245.928 169.423C245.928 169.054 245.988 168.744 246.438 168.744C247.398 168.744 248.349 168.744 249.309 168.744C249.739 168.744 249.869 168.974 249.869 169.373C249.879 169.853 249.599 169.912 249.229 169.902C248.769 169.902 248.319 169.902 247.858 169.902Z" fill="#041C42"/>
<path d="M227.201 169.902C226.74 169.902 226.29 169.902 225.83 169.902C225.44 169.902 225.34 169.693 225.35 169.353C225.35 169.044 225.4 168.754 225.8 168.754C226.75 168.754 227.711 168.754 228.661 168.744C229.111 168.744 229.191 169.004 229.201 169.393C229.221 169.883 228.931 169.922 228.561 169.912C228.101 169.912 227.651 169.912 227.191 169.912L227.201 169.902Z" fill="#041C42"/>
<path d="M201.48 169.893C201.02 169.893 200.57 169.893 200.11 169.893C199.74 169.893 199.6 169.723 199.6 169.363C199.6 169.034 199.68 168.774 200.07 168.774C201.03 168.774 201.981 168.774 202.941 168.774C203.311 168.774 203.421 168.984 203.441 169.323C203.461 169.763 203.281 169.923 202.861 169.903C202.401 169.883 201.951 169.903 201.49 169.903L201.48 169.893Z" fill="#041C42"/>
<path d="M211.774 169.893C211.354 169.893 210.944 169.893 210.524 169.893C210.153 169.893 209.883 169.843 209.893 169.363C209.893 168.944 210.043 168.754 210.474 168.764C211.344 168.774 212.214 168.764 213.095 168.764C213.475 168.764 213.715 168.864 213.735 169.313C213.765 169.863 213.435 169.903 213.025 169.893C212.604 169.883 212.194 169.893 211.774 169.893Z" fill="#041C42"/>
<path d="M242.687 169.893C242.226 169.893 241.776 169.893 241.316 169.893C240.936 169.893 240.816 169.693 240.826 169.343C240.826 169.004 240.936 168.774 241.316 168.774C242.276 168.774 243.227 168.774 244.187 168.774C244.577 168.774 244.657 169.004 244.667 169.343C244.667 169.683 244.587 169.903 244.197 169.903C243.697 169.903 243.197 169.903 242.697 169.903L242.687 169.893Z" fill="#041C42"/>
<path d="M253.021 169.893C252.56 169.893 252.11 169.893 251.65 169.893C251.29 169.893 251.13 169.763 251.13 169.383C251.13 168.984 251.24 168.754 251.69 168.764C252.6 168.774 253.521 168.764 254.431 168.764C254.881 168.764 254.971 169.034 254.961 169.413C254.961 169.813 254.721 169.893 254.401 169.883C253.941 169.883 253.491 169.883 253.031 169.883L253.021 169.893Z" fill="#041C42"/>
<path d="M180.142 129.961C179.631 130.391 179.261 130.661 178.941 130.97C178.411 131.47 178.041 131.739 177.41 130.95C176.76 130.151 177.26 129.921 177.751 129.532C178.541 128.923 179.351 128.343 180.082 127.664C180.702 127.095 181.402 127.275 182.082 127.285C182.583 127.285 182.503 127.714 182.503 128.024C182.503 131.34 182.483 134.656 182.523 137.972C182.523 139.01 181.812 138.671 181.322 138.671C180.822 138.671 180.122 138.99 180.132 137.952C180.172 135.355 180.142 132.748 180.142 129.951V129.961Z" fill="#041C42"/>
<path d="M187.394 138.93C186.474 138.85 185.964 138.391 185.994 137.502C186.014 136.653 186.564 136.244 187.374 136.264C188.235 136.284 188.755 136.723 188.725 137.662C188.695 138.551 188.135 138.84 187.404 138.94L187.394 138.93Z" fill="#041C42"/>
<path d="M232.482 134.985C232.022 134.985 231.572 134.985 231.112 134.985C230.752 134.985 230.462 134.945 230.452 134.466C230.452 133.966 230.682 133.807 231.142 133.807C232.012 133.807 232.893 133.827 233.763 133.807C234.253 133.807 234.403 134.016 234.393 134.486C234.393 134.985 234.073 134.985 233.723 134.985C233.303 134.985 232.893 134.985 232.472 134.985H232.482Z" fill="#041C42"/>
<path d="M237.524 134.985C237.064 134.985 236.614 134.985 236.154 134.985C235.804 134.985 235.624 134.875 235.634 134.486C235.644 134.126 235.664 133.817 236.134 133.817C237.084 133.817 238.045 133.817 238.995 133.817C239.435 133.817 239.535 134.086 239.545 134.466C239.545 134.935 239.265 134.995 238.895 134.995C238.435 134.995 237.985 134.995 237.524 134.995V134.985Z" fill="#041C42"/>
<path d="M258.223 134.985C257.722 134.985 257.232 134.985 256.732 134.985C256.352 134.985 256.232 134.776 256.242 134.426C256.242 134.106 256.332 133.827 256.702 133.817C257.692 133.797 258.693 133.807 259.683 133.817C260.173 133.817 260.133 134.186 260.143 134.516C260.153 134.925 259.913 134.985 259.583 134.975C259.123 134.975 258.673 134.975 258.213 134.975L258.223 134.985Z" fill="#041C42"/>
<path d="M263.355 134.985C262.855 134.985 262.354 134.985 261.854 134.985C261.464 134.985 261.384 134.756 261.384 134.416C261.384 134.096 261.434 133.827 261.834 133.817C262.835 133.817 263.835 133.807 264.825 133.817C265.186 133.817 265.306 134.066 265.316 134.396C265.336 134.835 265.126 134.985 264.715 134.975C264.255 134.965 263.805 134.975 263.345 134.975L263.355 134.985Z" fill="#041C42"/>
<path d="M222.108 134.985C221.648 134.985 221.188 134.975 220.738 134.985C220.308 134.995 220.157 134.815 220.167 134.396C220.167 133.966 220.368 133.807 220.768 133.807C221.678 133.807 222.598 133.807 223.509 133.807C223.919 133.807 224.089 134.006 224.099 134.426C224.109 134.885 223.859 134.985 223.479 134.985C223.019 134.985 222.568 134.985 222.108 134.985Z" fill="#041C42"/>
<path d="M216.896 134.985C216.486 134.985 216.066 134.985 215.656 134.985C215.276 134.985 215.005 134.915 215.015 134.446C215.015 134.056 215.145 133.807 215.586 133.807C216.536 133.807 217.496 133.807 218.447 133.807C218.927 133.807 218.917 134.146 218.927 134.496C218.937 134.895 218.727 134.985 218.387 134.985C217.887 134.985 217.396 134.985 216.896 134.985Z" fill="#041C42"/>
<path d="M196.308 134.985C195.848 134.985 195.397 134.985 194.937 134.985C194.597 134.985 194.397 134.885 194.407 134.496C194.417 134.146 194.417 133.817 194.897 133.817C195.848 133.817 196.808 133.817 197.758 133.817C198.199 133.817 198.309 134.066 198.319 134.456C198.319 134.925 198.049 134.995 197.678 134.995C197.218 134.995 196.768 134.995 196.308 134.995V134.985Z" fill="#041C42"/>
<path d="M206.632 134.985C206.172 134.985 205.722 134.985 205.262 134.985C204.942 134.985 204.702 134.905 204.702 134.506C204.702 134.136 204.762 133.837 205.212 133.827C206.172 133.827 207.123 133.827 208.083 133.827C208.513 133.827 208.633 134.066 208.643 134.466C208.653 134.955 208.363 134.995 208.003 134.995C207.543 134.995 207.093 134.995 206.632 134.995V134.985Z" fill="#041C42"/>
<path d="M247.808 134.985C247.438 134.985 247.058 134.985 246.688 134.985C246.328 134.985 245.927 135.045 245.917 134.456C245.917 133.946 246.168 133.807 246.608 133.817C247.478 133.817 248.358 133.827 249.229 133.817C249.709 133.817 249.879 134.046 249.859 134.506C249.849 135.015 249.509 134.985 249.169 134.985C248.709 134.985 248.258 134.985 247.798 134.985H247.808Z" fill="#041C42"/>
<path d="M227.25 134.985C226.79 134.985 226.34 134.985 225.88 134.985C225.53 134.985 225.35 134.865 225.35 134.486C225.35 134.106 225.42 133.827 225.88 133.827C226.79 133.827 227.701 133.827 228.621 133.827C229.031 133.827 229.211 134.006 229.211 134.426C229.211 134.865 229.031 135.015 228.621 134.995C228.161 134.975 227.711 134.995 227.25 134.995V134.985Z" fill="#041C42"/>
<path d="M252.961 134.975C252.541 134.975 252.13 134.965 251.71 134.975C251.29 134.995 251.11 134.846 251.12 134.406C251.12 133.957 251.35 133.837 251.74 133.847C252.611 133.847 253.491 133.857 254.361 133.847C254.771 133.847 254.952 134.007 254.962 134.436C254.962 134.905 254.711 134.985 254.331 134.975C253.871 134.965 253.421 134.975 252.961 134.975Z" fill="#041C42"/>
<path d="M242.667 134.975C242.246 134.975 241.836 134.965 241.416 134.975C241.006 134.985 240.806 134.845 240.816 134.406C240.826 133.957 241.066 133.847 241.446 133.847C242.316 133.847 243.197 133.857 244.067 133.847C244.487 133.847 244.647 134.016 244.657 134.446C244.657 134.915 244.417 134.995 244.037 134.985C243.577 134.975 243.127 134.985 242.667 134.985V134.975Z" fill="#041C42"/>
<path d="M211.764 134.975C211.304 134.975 210.854 134.975 210.394 134.975C210.013 134.975 209.893 134.796 209.903 134.436C209.903 134.116 209.963 133.847 210.364 133.847C211.324 133.847 212.274 133.847 213.235 133.847C213.605 133.847 213.725 134.056 213.745 134.396C213.765 134.835 213.565 134.985 213.155 134.965C212.695 134.945 212.244 134.965 211.784 134.965L211.764 134.975Z" fill="#041C42"/>
<path d="M201.43 134.975C201.01 134.975 200.6 134.975 200.18 134.975C199.86 134.975 199.61 134.915 199.6 134.516C199.6 134.146 199.66 133.857 200.12 133.857C201.03 133.857 201.951 133.857 202.861 133.857C203.301 133.857 203.421 134.056 203.431 134.466C203.431 134.945 203.161 134.995 202.791 134.985C202.331 134.985 201.881 134.985 201.42 134.985L201.43 134.975Z" fill="#041C42"/>
<path d="M181.972 202.513C184.013 203.362 184.573 204.121 184.413 205.649C184.253 207.187 183.093 208.256 181.302 208.555C180.352 208.715 179.411 208.725 178.451 208.585C176.43 208.286 176.42 208.296 176.55 206.148C177.781 206.468 178.971 206.947 180.262 206.748C180.962 206.638 181.542 206.368 181.802 205.659C181.982 205.16 181.972 204.66 181.602 204.251C180.972 203.561 180.102 203.571 179.291 203.591C178.561 203.611 178.251 203.452 178.271 202.633C178.291 201.923 178.511 201.664 179.211 201.734C179.841 201.794 180.452 201.684 181.032 201.414C181.612 201.144 181.752 200.655 181.702 200.066C181.652 199.446 181.312 199.087 180.692 198.977C179.841 198.827 179.011 198.937 178.281 199.377C177.23 200.006 177.25 198.917 176.89 198.528C176.33 197.928 177.02 197.749 177.36 197.579C178.841 196.87 180.402 196.77 181.972 197.179C183.093 197.469 183.943 198.108 184.073 199.347C184.203 200.585 183.713 201.524 182.593 202.113C182.413 202.203 182.242 202.313 181.962 202.473L181.972 202.513Z" fill="#041C42"/>
<path d="M187.394 208.765C186.474 208.685 185.964 208.226 185.994 207.337C186.014 206.488 186.564 206.078 187.374 206.098C188.235 206.118 188.755 206.558 188.725 207.497C188.695 208.386 188.125 208.675 187.404 208.775L187.394 208.765Z" fill="#041C42"/>
<path d="M222.088 204.82C221.628 204.82 221.178 204.82 220.718 204.82C220.387 204.82 220.157 204.75 220.167 204.341C220.167 203.981 220.177 203.651 220.658 203.651C221.618 203.651 222.568 203.651 223.529 203.651C223.949 203.651 224.099 203.871 224.109 204.281C224.119 204.76 223.839 204.83 223.469 204.82C223.008 204.82 222.558 204.82 222.098 204.82H222.088Z" fill="#041C42"/>
<path d="M216.996 204.82C216.496 204.82 216.006 204.82 215.505 204.82C215.125 204.82 215.005 204.62 215.015 204.271C215.015 203.951 215.095 203.671 215.475 203.661C216.466 203.641 217.466 203.651 218.457 203.661C218.947 203.661 218.907 204.021 218.927 204.361C218.937 204.77 218.697 204.83 218.377 204.83C217.916 204.83 217.466 204.83 217.006 204.83L216.996 204.82Z" fill="#041C42"/>
<path d="M196.268 204.82C195.858 204.82 195.438 204.81 195.027 204.82C194.637 204.83 194.397 204.75 194.417 204.281C194.427 203.901 194.507 203.641 194.957 203.641C195.868 203.641 196.778 203.651 197.688 203.641C198.179 203.641 198.339 203.881 198.329 204.331C198.319 204.82 197.989 204.82 197.638 204.82C197.178 204.82 196.728 204.82 196.268 204.82Z" fill="#041C42"/>
<path d="M237.575 204.82C237.115 204.82 236.664 204.81 236.204 204.82C235.774 204.84 235.614 204.66 235.634 204.241C235.654 203.921 235.694 203.651 236.094 203.651C237.085 203.651 238.085 203.641 239.075 203.651C239.445 203.651 239.536 203.921 239.546 204.251C239.566 204.69 239.345 204.83 238.935 204.82C238.475 204.81 238.025 204.82 237.565 204.82H237.575Z" fill="#041C42"/>
<path d="M258.273 204.82C257.772 204.82 257.282 204.82 256.782 204.82C256.432 204.82 256.252 204.68 256.252 204.311C256.252 203.931 256.342 203.651 256.792 203.651C257.742 203.651 258.703 203.651 259.653 203.651C260.123 203.651 260.153 203.951 260.163 204.321C260.163 204.7 260.003 204.84 259.653 204.83C259.193 204.83 258.743 204.83 258.283 204.83L258.273 204.82Z" fill="#041C42"/>
<path d="M263.415 203.652C263.875 203.652 264.325 203.652 264.785 203.652C265.226 203.652 265.316 203.941 265.316 204.321C265.316 204.71 265.096 204.82 264.765 204.82C263.855 204.82 262.935 204.82 262.024 204.82C261.664 204.82 261.384 204.79 261.384 204.301C261.384 203.811 261.574 203.622 262.044 203.642C262.504 203.662 262.955 203.642 263.415 203.642V203.652Z" fill="#041C42"/>
<path d="M232.362 204.82C231.942 204.82 231.532 204.82 231.112 204.82C230.752 204.82 230.462 204.78 230.452 204.301C230.452 203.801 230.682 203.641 231.142 203.641C232.012 203.641 232.893 203.651 233.763 203.641C234.253 203.641 234.403 203.851 234.403 204.321C234.403 204.82 234.083 204.82 233.733 204.82C233.273 204.82 232.823 204.82 232.362 204.82Z" fill="#041C42"/>
<path d="M247.828 204.82C247.368 204.82 246.918 204.82 246.458 204.82C246.118 204.82 245.918 204.7 245.928 204.311C245.928 203.921 246.028 203.661 246.468 203.661C247.378 203.661 248.299 203.661 249.209 203.661C249.679 203.661 249.869 203.851 249.869 204.331C249.869 204.83 249.549 204.83 249.199 204.83C248.739 204.83 248.289 204.83 247.828 204.83V204.82Z" fill="#041C42"/>
<path d="M206.602 204.82C206.142 204.82 205.692 204.82 205.232 204.82C204.892 204.82 204.692 204.7 204.702 204.311C204.702 203.921 204.802 203.661 205.242 203.661C206.152 203.661 207.072 203.661 207.983 203.661C208.453 203.661 208.643 203.851 208.643 204.331C208.643 204.83 208.323 204.83 207.973 204.83C207.513 204.83 207.062 204.83 206.602 204.83V204.82Z" fill="#041C42"/>
<path d="M227.271 204.82C226.811 204.82 226.36 204.82 225.9 204.82C225.57 204.82 225.34 204.74 225.35 204.341C225.35 203.981 225.38 203.661 225.85 203.661C226.801 203.661 227.761 203.661 228.711 203.661C229.181 203.661 229.191 204.001 229.201 204.351C229.201 204.76 228.961 204.82 228.641 204.82C228.181 204.82 227.731 204.82 227.271 204.82Z" fill="#041C42"/>
<path d="M253.021 204.81C252.56 204.81 252.11 204.81 251.65 204.81C251.29 204.81 251.13 204.68 251.13 204.301C251.13 203.901 251.24 203.671 251.69 203.681C252.6 203.691 253.521 203.681 254.431 203.681C254.881 203.681 254.971 203.951 254.961 204.331C254.961 204.73 254.721 204.81 254.401 204.8C253.941 204.8 253.491 204.8 253.031 204.8L253.021 204.81Z" fill="#041C42"/>
<path d="M242.716 204.81C242.296 204.81 241.886 204.81 241.466 204.81C241.096 204.81 240.815 204.76 240.825 204.281C240.825 203.861 240.996 203.672 241.416 203.682C242.286 203.682 243.156 203.682 244.037 203.682C244.417 203.682 244.647 203.781 244.667 204.231C244.687 204.79 244.377 204.83 243.957 204.81C243.537 204.8 243.126 204.81 242.706 204.81H242.716Z" fill="#041C42"/>
<path d="M211.734 204.81C211.314 204.81 210.904 204.8 210.484 204.81C210.064 204.83 209.883 204.68 209.893 204.241C209.893 203.791 210.124 203.671 210.514 203.681C211.384 203.681 212.264 203.691 213.135 203.681C213.545 203.681 213.725 203.841 213.735 204.271C213.735 204.74 213.485 204.82 213.105 204.81C212.645 204.8 212.194 204.81 211.734 204.81Z" fill="#041C42"/>
<path d="M201.49 204.81C201.07 204.81 200.66 204.81 200.24 204.81C199.869 204.81 199.589 204.76 199.599 204.281C199.599 203.861 199.769 203.672 200.19 203.682C201.06 203.682 201.93 203.682 202.811 203.682C203.191 203.682 203.421 203.781 203.441 204.231C203.461 204.79 203.151 204.83 202.731 204.81C202.31 204.8 201.9 204.81 201.48 204.81H201.49Z" fill="#041C42"/>
<path d="M181.442 95.104C181.402 96.5523 180.962 97.6709 180.412 98.7396C179.241 101.057 177.631 103.054 175.92 104.982C175.67 105.272 175.45 105.571 175.049 105.112C172.849 102.615 170.688 100.068 169.687 96.8219C168.957 94.4448 169.667 92.3574 171.528 90.7693C173.469 89.1113 175.73 88.8117 178.041 89.9203C180.262 90.989 181.322 92.8767 181.432 95.094L181.442 95.104Z" fill="#041C42"/>
<path d="M255.672 99.5385C255.272 99.2289 254.211 100.138 254.201 99.0491C254.191 98.0304 255.212 98.6796 255.742 98.5398C256.132 98.4399 256.572 98.5298 256.982 98.5198C257.332 98.5198 257.513 98.6296 257.523 99.0192C257.523 99.3887 257.393 99.5585 257.022 99.5485C256.602 99.5385 256.192 99.5485 255.672 99.5485V99.5385Z" fill="#041C42"/>
<path d="M251.36 99.5384C250.95 99.5384 250.54 99.5284 250.129 99.5384C249.769 99.5484 249.619 99.4186 249.619 99.049C249.619 98.6994 249.699 98.5097 250.099 98.5197C250.88 98.5297 251.66 98.5297 252.44 98.5197C252.84 98.5197 253.05 98.6295 253.03 99.079C253.01 99.4785 252.8 99.5484 252.47 99.5384C252.1 99.5384 251.73 99.5384 251.36 99.5384Z" fill="#041C42"/>
<path d="M260.213 99.5486C259.803 99.199 258.653 100.158 258.693 98.9793C258.723 97.9905 259.773 98.5798 260.303 98.5798C260.854 98.5798 261.794 97.9705 261.984 99.0991C262.054 99.5286 261.964 99.5486 260.213 99.5486Z" fill="#041C42"/>
<path d="M264.845 99.5383C264.475 99.5383 264.095 99.5283 263.725 99.5383C263.335 99.5583 263.115 99.4784 263.125 99.0089C263.125 98.4996 263.425 98.5195 263.775 98.5195C264.475 98.5195 265.185 98.5195 265.886 98.5195C266.216 98.5195 266.546 98.4796 266.576 98.989C266.606 99.5782 266.226 99.5383 265.846 99.5383C265.516 99.5383 265.185 99.5383 264.855 99.5383H264.845Z" fill="#041C42"/>
<path d="M269.237 99.5385C268.827 99.1989 267.696 100.128 267.716 98.9891C267.736 97.9904 268.757 98.6895 269.307 98.5397C269.687 98.4298 270.127 98.5197 270.537 98.5197C270.868 98.5197 271.068 98.6296 271.068 99.0091C271.068 99.3787 270.938 99.5385 270.567 99.5385C270.157 99.5385 269.747 99.5385 269.237 99.5385Z" fill="#041C42"/>
<path d="M215.216 98.5197C215.626 98.5197 216.036 98.5297 216.446 98.5197C216.826 98.5097 216.926 98.6895 216.926 99.039C216.926 99.4086 216.786 99.5484 216.426 99.5384C215.686 99.5284 214.946 99.5384 214.205 99.5384C213.885 99.5384 213.545 99.6083 213.515 99.089C213.485 98.5297 213.815 98.5097 214.225 98.5197C214.556 98.5197 214.886 98.5197 215.216 98.5197Z" fill="#041C42"/>
<path d="M210.594 99.5385C210.183 99.2389 209.113 100.118 209.093 99.0491C209.073 98.0104 210.113 98.6795 210.654 98.5397C211.044 98.4398 211.484 98.5397 211.894 98.5197C212.254 98.5097 212.414 98.6296 212.414 99.0191C212.414 99.3787 212.324 99.5685 211.934 99.5485C211.524 99.5285 211.104 99.5485 210.584 99.5485L210.594 99.5385Z" fill="#041C42"/>
<path d="M206.072 99.5385C205.642 99.2588 204.581 100.068 204.551 99.0791C204.521 97.9804 205.622 98.6895 206.192 98.5297C206.542 98.4299 206.932 98.5297 207.302 98.5098C207.683 98.4998 207.923 98.5497 207.923 99.0291C207.923 99.5285 207.643 99.5385 207.282 99.5285C206.912 99.5285 206.542 99.5285 206.072 99.5285V99.5385Z" fill="#041C42"/>
<path d="M201.78 99.5385C201.41 99.5385 201.03 99.5385 200.66 99.5385C200.33 99.5385 200 99.5684 199.99 99.059C199.98 98.5796 200.23 98.5197 200.61 98.5197C201.36 98.5197 202.1 98.5397 202.851 98.5197C203.261 98.5097 203.441 98.6096 203.441 99.069C203.441 99.5884 203.111 99.5485 202.781 99.5385C202.451 99.5385 202.12 99.5385 201.79 99.5385H201.78Z" fill="#041C42"/>
<path d="M197.218 99.5483C196.848 99.5483 196.478 99.5483 196.108 99.5483C195.738 99.5483 195.478 99.4984 195.488 99.0189C195.498 98.5196 195.808 98.5295 196.148 98.5295C196.848 98.5295 197.548 98.5295 198.249 98.5295C198.579 98.5295 198.899 98.4896 198.919 98.999C198.939 99.5783 198.599 99.5583 198.209 99.5483C197.879 99.5483 197.548 99.5483 197.218 99.5483Z" fill="#041C42"/>
<path d="M192.497 99.5385C192.096 99.2288 191.016 100.128 191.026 99.0291C191.026 97.9804 192.056 98.6995 192.607 98.5397C192.987 98.4298 193.437 98.5397 193.847 98.5197C194.277 98.4997 194.427 98.6695 194.417 99.099C194.407 99.5285 194.147 99.5485 193.847 99.5385C193.427 99.5385 193.017 99.5385 192.507 99.5385H192.497Z" fill="#041C42"/>
<path d="M188.065 99.5487C187.645 99.2291 186.514 100.108 186.534 98.9993C186.544 98.0106 187.575 98.7097 188.125 98.5499C188.465 98.45 188.865 98.5299 189.236 98.5299C189.576 98.5299 189.886 98.5199 189.896 99.0193C189.906 99.4987 189.646 99.5587 189.276 99.5487C188.905 99.5487 188.535 99.5487 188.065 99.5487Z" fill="#041C42"/>
<path d="M242.086 99.5385C241.696 99.2588 240.646 100.088 240.656 98.9992C240.666 98.0104 241.626 98.6995 242.136 98.5497C242.517 98.4398 242.957 98.5497 243.377 98.5197C243.777 98.4998 243.987 98.6196 243.967 99.0691C243.957 99.4686 243.747 99.5485 243.417 99.5385C243.007 99.5385 242.587 99.5385 242.076 99.5385H242.086Z" fill="#041C42"/>
<path d="M246.638 99.5385C246.248 99.2389 245.188 100.118 245.188 99.0391C245.188 98.0403 246.198 98.6895 246.738 98.5497C247.128 98.4498 247.558 98.5497 247.969 98.5297C248.339 98.5197 248.469 98.6696 248.469 99.0391C248.469 99.4087 248.339 99.5585 247.969 99.5485C247.558 99.5385 247.148 99.5485 246.638 99.5485V99.5385Z" fill="#041C42"/>
<path d="M237.964 98.5298C238.364 98.8095 239.435 97.9905 239.405 99.0592C239.375 100.068 238.364 99.3688 237.814 99.5286C237.474 99.6285 237.074 99.5286 236.704 99.5486C236.324 99.5686 236.084 99.4987 236.094 99.0192C236.094 98.5099 236.404 98.5298 236.744 98.5298C237.114 98.5298 237.494 98.5298 237.964 98.5298Z" fill="#041C42"/>
<path d="M233.453 98.5298C233.853 98.8094 234.904 97.9904 234.884 99.0491C234.864 100.048 233.853 99.3687 233.313 99.5186C232.973 99.6184 232.573 99.5186 232.203 99.5385C231.822 99.5585 231.592 99.4886 231.592 99.0092C231.592 98.5098 231.882 98.5098 232.233 98.5198C232.603 98.5198 232.973 98.5198 233.443 98.5198L233.453 98.5298Z" fill="#041C42"/>
<path d="M228.971 98.5295C229.361 98.8091 230.422 97.9801 230.392 99.0888C230.362 100.048 229.411 99.3784 228.901 99.5283C228.521 99.6381 228.081 99.5283 227.661 99.5582C227.251 99.5782 227.061 99.4384 227.081 98.9989C227.091 98.5894 227.311 98.5295 227.641 98.5395C228.051 98.5395 228.471 98.5395 228.981 98.5395L228.971 98.5295Z" fill="#041C42"/>
<path d="M224.119 99.5385C223.719 99.2288 222.669 100.118 222.649 99.049C222.639 98.0403 223.649 98.6795 224.189 98.5397C224.579 98.4398 225.009 98.5397 225.42 98.5197C225.77 98.5097 225.94 98.6296 225.93 99.0091C225.93 99.3587 225.84 99.5484 225.45 99.5385C225.039 99.5185 224.629 99.5385 224.119 99.5385Z" fill="#041C42"/>
<path d="M219.618 99.5385C219.217 99.2288 218.167 100.118 218.147 99.049C218.137 98.0403 219.147 98.6795 219.688 98.5397C220.078 98.4398 220.508 98.5397 220.918 98.5197C221.268 98.5097 221.438 98.6296 221.428 99.0091C221.428 99.3587 221.338 99.5484 220.948 99.5385C220.538 99.5185 220.128 99.5385 219.618 99.5385Z" fill="#041C42"/>
<path d="M170.418 95.174C170.578 93.1964 171.468 91.6583 173.359 90.7993C175.29 89.9204 177.12 90.1801 178.701 91.5584C180.192 92.8568 180.792 94.5148 180.222 96.4924C179.411 99.279 177.571 101.436 175.81 103.634C175.6 103.903 175.39 104.013 175.11 103.684C173.189 101.376 171.318 99.0592 170.508 96.0928C170.428 95.8132 170.448 95.5136 170.408 95.184L170.418 95.174Z" fill="white"/>
<path d="M178.451 95.3336C178.431 96.9716 177.07 98.2999 175.41 98.2999C173.769 98.2999 172.409 96.9316 172.419 95.2936C172.419 93.5757 173.789 92.2573 175.51 92.2973C177.18 92.3372 178.461 93.6656 178.441 95.3336H178.451Z" fill="#041C42"/>
<path d="M177.44 95.3937C177.38 96.4724 176.46 97.3214 175.38 97.2914C174.249 97.2615 173.359 96.2926 173.419 95.164C173.479 94.0254 174.439 93.2064 175.61 93.2963C176.71 93.3862 177.5 94.2851 177.44 95.3937Z" fill="#FDFDFD"/>
</g>
<defs>
<clipPath id="clip0_707_4261">
<rect width="320" height="298" fill="white"/>
</clipPath>
</defs>
</svg>
