<?xml version="1.0" encoding="UTF-8"?>
<svg width="14px" height="14px" viewBox="0 0 14 14" version="1.1" xmlns="http://www.w3.org/2000/svg" xmlns:xlink="http://www.w3.org/1999/xlink">
    <!-- Generator: Sketch 59.1 (86144) - https://sketch.com -->
    <title>audio</title>
    <desc>Created with Sketch.</desc>
    <g id="Page-1" stroke="none" stroke-width="1" fill="none" fill-rule="evenodd">
        <path d="M8,0 C6.24591,1.38697 4.49242,2.77359 2.73829,4.16045 L0,4.16045 L0,9.83954 L2.73829,9.83954 L8,14 L8,8.71424 C8,8.07692 8,8.61538 8,8.07692 C8,7.53846 7.99938,7.2323 8,6.85486 C7.99972,6.47707 8,6.46154 8,5.92307 C8,5.38461 8,5.38461 8,4.98918 L8,0 Z M11.6934,1.07692 L11.0019,1.85096 C12.2783,3.17041 12.9993,4.99364 13,6.89903 C12.9987,8.80357 12.2778,10.6261 11.0019,11.945 L11.6934,12.7211 C13.1657,11.199 13.9991,9.09693 14,6.89903 C13.9991,4.70114 13.1657,2.59904 11.6934,1.07692 Z M9.60156,2.17909 L9,3.03726 C10.1262,3.95157 10.7887,5.38014 10.791,6.89903 C10.7881,8.41706 10.1257,9.84483 9,10.7587 L9.60156,11.619 C10.9773,10.5022 11.7882,8.75436 11.791,6.89903 C11.7881,5.04371 10.9773,3.29596 9.60156,2.17909 Z" id="audio" fill="#000000" fill-rule="nonzero"></path>
    </g>
</svg>