<svg width="116" height="116" viewBox="0 0 116 116" fill="none" xmlns="http://www.w3.org/2000/svg">
<g filter="url(#filter0_d)">
<path d="M58 113C88.3757 113 113 88.3757 113 58C113 27.6243 88.3757 3 58 3C27.6243 3 3 27.6243 3 58C3 88.3757 27.6243 113 58 113Z" fill="#041C42"/>
<path fill-rule="evenodd" clip-rule="evenodd" d="M58 65C60.7614 65 63 62.7614 63 60C63 57.2386 60.7614 55 58 55C55.2386 55 53 57.2386 53 60C53 62.7614 55.2386 65 58 65Z" fill="#F6C254"/>
<path fill-rule="evenodd" clip-rule="evenodd" d="M65.2857 45.5H71.9643C73.6409 45.5 75 46.8991 75 48.625V69.875C75 71.6009 73.6409 73 71.9643 73H44.0357C42.3591 73 41 71.6009 41 69.875V48.625C41 46.8991 42.3591 45.5 44.0357 45.5H50.7143L53.1429 43H62.8571L65.2857 45.5ZM49.5 59.875C49.5 64.7074 53.3056 68.625 58 68.625C62.6944 68.625 66.5 64.7074 66.5 59.875C66.5 55.0426 62.6944 51.125 58 51.125C53.3056 51.125 49.5 55.0426 49.5 59.875Z" fill="#F6C254"/>
</g>
<defs>
<filter id="filter0_d" x="0" y="0" width="116" height="116" filterUnits="userSpaceOnUse" color-interpolation-filters="sRGB">
<feFlood flood-opacity="0" result="BackgroundImageFix"/>
<feColorMatrix in="SourceAlpha" type="matrix" values="0 0 0 0 0 0 0 0 0 0 0 0 0 0 0 0 0 0 127 0"/>
<feOffset/>
<feGaussianBlur stdDeviation="1.5"/>
<feColorMatrix type="matrix" values="0 0 0 0 0.0392157 0 0 0 0 0.188235 0 0 0 0 0.333333 0 0 0 0.1 0"/>
<feBlend mode="normal" in2="BackgroundImageFix" result="effect1_dropShadow"/>
<feBlend mode="normal" in="SourceGraphic" in2="effect1_dropShadow" result="shape"/>
</filter>
</defs>
</svg>
