<?xml version="1.0" encoding="UTF-8"?>
<svg width="33px" height="50px" viewBox="0 0 33 50" version="1.1" xmlns="http://www.w3.org/2000/svg" xmlns:xlink="http://www.w3.org/1999/xlink">
    <!-- Generator: Sketch 59.1 (86144) - https://sketch.com -->
    <title>completed-support</title>
    <desc>Created with Sketch.</desc>
    <g id="Page-1" stroke="none" stroke-width="1" fill="none" fill-rule="evenodd">
        <path d="M19.3032221,0 C19.3098221,0.00497876 19.3159221,0.0132767 19.3231221,0.0143831 C19.9255221,0.0968092 20.4184221,0.397747 20.8720221,0.781112 C21.3456221,1.18163 21.7638221,1.63856 22.1770221,2.09772 C22.9244221,2.92862 23.8189221,3.49564 24.9170221,3.74624 C25.4979221,3.87901 26.0743221,4.03556 26.6435221,4.21867 C27.8235221,4.59871 28.5404221,5.37484 28.7683221,6.6046 C28.8829221,7.22141 28.9592221,7.84265 29.0405221,8.46389 C29.1644221,9.40764 29.4698221,10.2723 30.0733221,11.0208 C30.4694221,11.5114 30.8683221,12.001 31.2527221,12.5017 C31.6245221,12.9857 31.9337221,13.5035 32.0333221,14.1214 C32.0477221,14.2121 32.0267221,14.3078 32.0698221,14.3941 L32.0698221,14.5214 L32.0698221,14.5214 C32.0626221,14.5402 32.0499221,14.5595 32.0499221,14.5789 C32.0377221,14.9789 31.9227221,15.3539 31.7750221,15.7213 C31.5316221,16.3287 31.2090221,16.8973 30.8777221,17.4583 C30.2786221,18.4728 30.0927221,19.5599 30.1972221,20.7205 C30.2559221,21.3694 30.2941221,22.021 30.2437221,22.6749 C30.1724221,23.6026 29.7680221,24.3273 28.9902221,24.8462 C28.4442221,25.2097 27.8478221,25.4735 27.2603221,25.7557 C26.7403221,26.0057 26.2242221,26.2618 25.7750221,26.6314 C25.2959221,27.0241 24.9596221,27.5342 24.6266221,28.0464 C24.5895221,28.104 24.6172221,28.151 24.6338221,28.2024 C24.9900221,29.2884 25.3463221,30.3748 25.7025221,31.4608 C26.6662221,34.3966 27.6293221,37.3329 28.5930221,40.2687 C29.1157221,41.8614 29.6396221,43.454 30.1624221,45.0467 C30.2127221,45.1999 30.2465221,45.3565 30.2387221,45.5202 C30.2255221,45.7852 30.0512221,45.9218 29.7945221,45.8621 C29.7492221,45.8516 29.7043221,45.8378 29.6606221,45.8217 C28.0818221,45.2464 26.4991221,44.6805 24.9264221,44.0891 C24.3809221,43.8839 23.8178221,44.1721 23.5910221,44.6124 C22.7241221,46.2997 21.8506221,47.9842 20.9816221,49.6703 C20.9058221,49.8174 20.8101221,49.9397 20.6502221,50 L20.5993221,50 L20.5993221,50 C20.4256221,49.943 20.3238221,49.8119 20.2519221,49.6537 C20.2276221,49.6 20.2071221,49.5442 20.1883221,49.4877 C19.3076221,46.8053 18.4264221,44.1229 17.5462221,41.4404 C17.0074221,39.7991 16.4686221,38.1583 15.9298221,36.5175 C15.8512221,36.278 15.7710221,36.0396 15.6836221,35.7757 C15.6643221,35.8327 15.6532221,35.8603 15.6460221,35.8891 L15.0043221,38.3071 L15.0043221,38.3071 L12.1000221,49.2294 L12.1000221,49.2294 C12.0607221,49.3777 12.0076221,49.5204 11.9053221,49.6393 C11.7781221,49.7876 11.6160221,49.7981 11.4721221,49.6681 C11.4052221,49.6072 11.3549221,49.5353 11.3095221,49.4579 C10.6899221,48.4073 10.0692221,47.3563 9.44913207,46.3063 C9.10891207,45.7299 8.76427207,45.1562 8.42848207,44.577 C8.17456207,44.1378 7.60367207,43.8667 7.05047207,44.1206 C6.17698207,44.5223 5.28744207,44.8874 4.40454207,45.2669 C3.73185207,45.5562 3.05972207,45.8472 2.38593207,46.1337 C2.05291207,46.2753 1.83605207,46.1276 1.82941207,45.7647 C1.82665207,45.6231 1.85099207,45.4865 1.88695207,45.3509 L4.61420207,35.1041 L4.61420207,35.1041 C5.26642207,32.654 5.91697207,30.2039 6.57251207,27.7538 C6.60072207,27.6487 6.57694207,27.6155 6.47459207,27.5912 C6.12055207,27.5065 5.76982207,27.4097 5.42518207,27.2908 C5.14029207,27.1923 4.86535207,27.0723 4.60313207,26.9229 C3.89007207,26.5185 3.51998207,25.8763 3.33134207,25.1046 C3.16096207,24.407 3.10121207,23.6922 3.00219207,22.9842 C2.87661207,22.0913 2.59116207,21.267 2.02912207,20.549 C1.77078207,20.2182 1.50635207,19.8929 1.24137207,19.5676 C0.86630307,19.1074 0.49621507,18.6443 0.24119207,18.1022 C0.12668107,17.8599 0.06638347,17.6021 0,17.3454 L0,16.7347 L0,16.7347 C0.00774473,16.7159 0.02046817,16.6982 0.02323407,16.6788 C0.05863857,16.4216 0.12944807,16.1738 0.21906507,15.9309 C0.44864107,15.3075 0.79217507,14.7415 1.10583207,14.1607 C1.36584207,13.68 1.61920207,13.1954 1.75418207,12.661 C1.91737207,12.0148 1.88307207,11.3588 1.84656207,10.7027 C1.81282207,10.1025 1.76303207,9.50389 1.80120207,8.90036 C1.86261207,7.93337 2.27252207,7.17715 3.08904207,6.64277 C3.67653207,6.25774 4.31160207,5.96566 4.94888207,5.68021 C5.97008207,5.22216 6.78217207,4.54284 7.35584207,3.57364 C7.65290207,3.07079 7.96490207,2.57512 8.32061207,2.10989 C8.66414207,1.66069 9.05193207,1.26184 9.57359207,1.01954 C10.1555221,0.749579 10.7690221,0.73409 11.3919221,0.802133 C12.0408221,0.873495 12.6759221,1.02728 13.3187221,1.1335 C13.7878221,1.2115 14.2591221,1.26073 14.7349221,1.20541 C15.2953221,1.13958 15.8203221,0.94707 16.3425221,0.747367 C16.9670221,0.50894 17.5800221,0.236767 18.2355221,0.0890643 C18.3793221,0.056979 18.5237221,0.0298725 18.6675221,0 L19.3032221,0 L19.3032221,0 Z M16.1328221,5.27361 C10.2518221,5.23101 5.54246207,9.90828 5.54523085,15.7473 C5.54799207,21.511 10.1406221,26.1999 15.9674221,26.2354985 C21.8036221,26.2707 26.5113221,21.5663 26.5113221,15.7655 C26.5074221,10.0233 21.9308221,5.3151 16.1328221,5.27361 Z M15.7081221,7.18305 L18.2424221,12.2379 L23.8435221,13.0177 L19.8183221,16.9701 L20.8224221,22.552 L15.7860221,19.9598 L10.8185221,22.6238 L11.7198221,17.054 L7.66080207,13.1131 L13.2405221,12.2738 L15.7081221,7.18305 Z" id="completed-support" fill="#000000" fill-rule="nonzero"></path>
    </g>
</svg>