<?xml version="1.0" encoding="UTF-8"?>
<svg width="30px" height="50px" viewBox="0 0 30 50" version="1.1" xmlns="http://www.w3.org/2000/svg" xmlns:xlink="http://www.w3.org/1999/xlink">
    <!-- Generator: Sketch 59.1 (86144) - https://sketch.com -->
    <title>create-support</title>
    <desc>Created with Sketch.</desc>
    <g id="Page-1" stroke="none" stroke-width="1" fill="none" fill-rule="evenodd">
        <path d="M12.0197417,11.4763 C12.7927417,11.4763 13.5342417,11.7831 14.0811417,12.3293 C14.6281417,12.8755 14.9360417,13.6165 14.9370417,14.3895 L14.9370417,14.3895 L14.937,24.436 L14.9429228,24.3051004 C15.031653,23.155919 16.1669263,22.2569809 17.5273725,22.3197 L17.6985417,22.3326 C18.2647417,22.3707 18.7970417,22.616 19.1938417,23.0219 C19.5905417,23.4277 19.8238417,23.9654 19.8490417,24.5324 L19.8490417,24.5324 L19.8500417,26.4535 C19.8500417,25.2744 20.9498417,24.3189 22.3185417,24.3189 L22.3185417,24.3189 L22.3884417,24.3188 C22.9763417,24.2804 23.5555417,24.4757 24.0002417,24.8621 C24.4449417,25.2485 24.7191417,25.7948 24.7631417,26.3823 L24.7631417,26.3823 L24.7631417,28.3848 C24.8103417,27.7949 25.0882417,27.2473 25.5366417,26.8609 C25.9849417,26.4745 26.5675417,26.2806 27.1580417,26.321 L27.1580417,26.321 L27.2196417,26.321 C27.5512417,26.3134 27.8808417,26.3744 28.1877417,26.5002 C28.4947417,26.6261 28.7722417,26.814 29.0031417,27.0522 C29.2339417,27.2904 29.4130417,27.5738 29.5292417,27.8845 C29.6453417,28.1952 29.6959417,28.5266 29.6779417,28.8578 L29.6779417,28.8578 L29.6757417,35.8289 C29.6650417,38.0175 28.9259417,40.1403 27.5750417,41.8624 C26.8366417,42.7997 26.4290417,43.955 26.4160417,45.1482 L26.4160417,45.1482 L26.4160417,48.6925 C26.4160417,48.8644 26.3821417,49.0346 26.3163417,49.1934 C26.2506417,49.3522 26.1542417,49.4965 26.0326417,49.618 C25.9111417,49.7396 25.7668417,49.836 25.6079417,49.9018 C25.4491417,49.9676 25.2789417,50.0014 25.1070417,50.0014 L25.1070417,50.0014 L12.8047417,50.0014 C12.6328417,50.0014 12.4626417,49.9676 12.3038417,49.9018 C12.1450417,49.836 12.0007417,49.7396 11.8791417,49.618 C11.7576417,49.4965 11.6612417,49.3522 11.5954417,49.1934 C11.5296417,49.0346 11.4958417,48.8644 11.4958417,48.6925 L11.4958417,48.6925 L11.4958417,46.8243 C11.4993417,46.4533 11.4043417,46.0881 11.2204417,45.7659 C11.0366417,45.4438 10.7705417,45.1762 10.4493417,44.9906 C8.77888168,44.0636 7.34488168,42.7636 6.25897168,41.1919 L6.25897168,41.1919 L0.423371676,32.6553 C-0.436317324,31.3977 0.0426076756,29.7363 1.59334168,29.0029 C2.11390168,28.7713 2.68344168,28.6712 3.25178168,28.7116 C3.82012168,28.752 4.36980168,28.9315 4.85240168,29.2344 L4.85240168,29.2344 L9.10252168,31.9003 L9.10252168,14.3896 C9.10358168,13.6166 9.41144168,12.8756 9.95834168,12.3294 C10.5053417,11.7831 11.2467417,11.4763 12.0197417,11.4763 Z M22.9367417,10.3613 C23.2436417,10.3613 23.4923417,10.6101 23.4923417,10.9169 L23.4923417,10.9169 L23.4923417,12.028 C23.4923417,12.3348 23.2436417,12.5836 22.9367417,12.5836 L22.9367417,12.5836 L19.1200417,12.5836 C18.8131417,12.5836 18.5644417,12.3348 18.5644417,12.028 L18.5644417,12.028 L18.5644417,10.9169 C18.5644417,10.6101 18.8131417,10.3613 19.1200417,10.3613 L19.1200417,10.3613 Z M4.92511168,10.3613 C5.23193168,10.3613 5.48067168,10.6101 5.48067168,10.9169 L5.48067168,10.9169 L5.48067168,12.028 C5.48067168,12.3348 5.23193168,12.5836 4.92511168,12.5836 L4.92511168,12.5836 L1.10292168,12.5836 C0.796091676,12.5836 0.547361676,12.3348 0.547361676,12.028 L0.547361676,12.028 L0.547361676,10.9169 C0.547361676,10.6101 0.796091676,10.3613 1.10292168,10.3613 L1.10292168,10.3613 Z M4.69424168,2.80602 C4.84159168,2.80602 4.98289168,2.86455 5.08708168,2.96874 L7.79008168,5.67174 C7.89426168,5.77592 7.95279168,5.91722 7.95279168,6.06455 C7.95279168,6.21189 7.89426168,6.35319 7.79008168,6.45737 L7.00456168,7.24288 C6.90037168,7.34708 6.75905168,7.40561 6.61170168,7.40561 C6.46435168,7.40561 6.32303168,7.34708 6.21883168,7.24288 L3.51586168,4.53991 C3.41168168,4.43573 3.35315168,4.29443 3.35315168,4.1471 C3.35315168,3.99976 3.41168168,3.85846 3.51586168,3.75428 L4.30140168,2.96874 C4.40559168,2.86455 4.54690168,2.80602 4.69424168,2.80602 Z M19.3449417,2.80634 C19.4922417,2.80634 19.6335417,2.86486 19.7377417,2.96905 L20.5233417,3.75453 C20.6274417,3.85871 20.6860417,4.00002 20.6860417,4.14736 C20.6860417,4.29471 20.6275417,4.43602 20.5233417,4.54021 L17.8259417,7.23785 C17.7217417,7.34204 17.5804417,7.40058 17.4330417,7.40058 C17.2857417,7.40058 17.1444417,7.34206 17.0402417,7.23788 L16.2546417,6.4524 C16.2030417,6.40081 16.1621417,6.33958 16.1342417,6.27218 C16.1063417,6.20478 16.0919417,6.13254 16.0919417,6.05959 C16.0919417,5.98663 16.1062417,5.91439 16.1342417,5.84699 C16.1621417,5.77959 16.2030417,5.71834 16.2546417,5.66675 L18.9520417,2.96908 C19.0562417,2.86489 19.1975417,2.80634 19.3449417,2.80634 Z M12.5753417,0 C12.8822417,0 13.1309417,0.248733 13.1309417,0.55556 L13.1309417,0.55556 L13.1309417,4.37205 C13.1309417,4.67888 12.8822417,4.92761 12.5753417,4.92761 L12.5753417,4.92761 L11.4642417,4.92761 C11.1574417,4.92761 10.9086417,4.67888 10.9086417,4.37205 L10.9086417,4.37205 L10.9086417,0.55556 C10.9086417,0.248733 11.1574417,0 11.4642417,0 L11.4642417,0 Z" id="create-support" fill="#000000" fill-rule="nonzero"></path>
    </g>
</svg>