<?xml version="1.0" encoding="UTF-8"?>
<svg width="25px" height="25px" viewBox="0 0 25 25" version="1.1" xmlns="http://www.w3.org/2000/svg" xmlns:xlink="http://www.w3.org/1999/xlink">
    <!-- Generator: Sketch 59.1 (86144) - https://sketch.com -->
    <title>dislike</title>
    <desc>Created with Sketch.</desc>
    <g id="Page-1" stroke="none" stroke-width="1" fill="none" fill-rule="evenodd">
        <path d="M1.64993129,14.9242002 C2.22093129,14.9529002 6.69005129,14.8989002 8.68235129,14.9791002 C9.10234129,14.9760002 9.38348129,15.3648002 9.28774129,15.8296002 C9.18274129,16.8338002 8.72678129,20.0394002 8.72678129,20.6386002 C8.72678129,21.3122002 8.83231129,21.9916002 8.95106129,22.6580002 C9.06663129,23.3079002 9.31365129,23.9206002 9.77358129,24.4139002 C10.2695013,24.9456002 10.8804013,25.1328002 11.5765013,24.9042002 C12.2618013,24.6792002 12.7148013,24.2234002 12.7511013,23.4657002 C12.8008013,22.4317002 12.8190013,21.3964002 12.8603013,20.3618002 C12.8658013,20.2237002 12.9005013,20.0726002 12.9674013,19.9536002 C13.9978013,18.1228002 15.0483013,16.3034002 16.0623013,14.4639002 C16.3011013,14.0302002 16.5682013,13.9151002 17.0832013,13.7948002 C17.5669013,13.7388002 18.4788013,13.6626002 18.9768013,13.6134002 L18.9768013,3.05442021 C18.3712013,3.05442021 17.6232013,2.65655021 17.4198013,2.53730021 C16.2379013,1.84328021 15.0509013,1.15776021 13.8621013,0.475959214 C13.7563013,0.415135214 13.6230013,0.372107214 13.5024013,0.371842214 C10.5916013,0.366265214 8.11663129,0.371842214 5.20581129,0.371842214 C4.78291129,0.371842214 3.39970129,0.552717214 3.04451129,2.04274021 C2.68720129,3.54339021 4.13812129,4.00607021 4.13812129,4.00607021 C4.13812129,4.00607021 2.34127129,3.79094021 2.04479129,5.44829021 C1.76656129,7.00312021 3.13126129,7.46899021 3.19262129,7.49369021 C2.63748129,7.58612021 1.37567129,7.85332021 1.10934129,9.00736021 C0.837986289,10.1845002 1.66976129,10.9388002 2.11937129,11.2400002 C1.44020129,11.2546002 0.132365289,11.6676002 0.0125564892,12.9917002 C-0.148244711,14.7736002 1.28178129,14.9058002 1.64993129,14.9242002 Z M22.5536013,15.9361002 C23.9045013,15.9361002 25.0000013,14.8360002 25.0000013,13.4793002 L25.0000013,2.45682021 C25.0000013,1.10012021 23.9045013,0 22.5536013,0 C21.2027013,0 20.1072013,1.10012021 20.1072013,2.45682021 L20.1072013,13.4793002 C20.1072013,14.8363002 21.2024013,15.9361002 22.5536013,15.9361002 Z M22.5536013,1.39441021 C23.1561013,1.39441021 23.6446013,1.88498021 23.6446013,2.49002021 C23.6446013,3.09506021 23.1561013,3.58563021 22.5536013,3.58563021 C21.9511013,3.58563021 21.4626013,3.09506021 21.4626013,2.49002021 C21.4626013,1.88498021 21.9509013,1.39441021 22.5536013,1.39441021 Z" id="dislike" fill="#000000" fill-rule="nonzero"></path>
    </g>
</svg>