<?xml version="1.0" encoding="UTF-8"?>
<svg width="15px" height="7px" viewBox="0 0 15 7" version="1.1" xmlns="http://www.w3.org/2000/svg" xmlns:xlink="http://www.w3.org/1999/xlink">
    <!-- Generator: Sketch 59.1 (86144) - https://sketch.com -->
    <title>drag</title>
    <desc>Created with Sketch.</desc>
    <g id="Page-1" stroke="none" stroke-width="1" fill="none" fill-rule="evenodd">
        <path d="M0.583333333,5.83333333 L14,5.83333333 C14.3221661,5.83333333 14.5833333,6.09450056 14.5833333,6.41666667 C14.5833333,6.70661616 14.3717879,6.94715657 14.0946197,6.99236515 L14,7 L0.583333333,7 C0.261167229,7 7.10542736e-15,6.73883277 7.10542736e-15,6.41666667 C7.10542736e-15,6.12671717 0.211545456,5.88617677 0.488713637,5.84096818 L0.583333333,5.83333333 L14,5.83333333 L0.583333333,5.83333333 Z M0.583333333,2.91666667 L14,2.91666667 C14.3221661,2.91666667 14.5833333,3.1778339 14.5833333,3.5 C14.5833333,3.78994949 14.3717879,4.0304899 14.0946197,4.07569848 L14,4.08333333 L0.583333333,4.08333333 C0.261167229,4.08333333 7.10542736e-15,3.8221661 7.10542736e-15,3.5 C7.10542736e-15,3.21005051 0.211545456,2.9695101 0.488713637,2.92430152 L0.583333333,2.91666667 L14,2.91666667 L0.583333333,2.91666667 Z M0.583333333,0 L14,0 C14.3221661,0 14.5833333,0.261167229 14.5833333,0.583333333 C14.5833333,0.873282827 14.3717879,1.11382323 14.0946197,1.15903182 L14,1.16666667 L0.583333333,1.16666667 C0.261167229,1.16666667 7.10542736e-15,0.905499437 7.10542736e-15,0.583333333 C7.10542736e-15,0.29338384 0.211545456,0.0528434346 0.488713637,0.00763484852 L0.583333333,0 L14,0 L0.583333333,0 Z" id="drag" fill="#000000" fill-rule="nonzero"></path>
    </g>
</svg>