<?xml version="1.0" encoding="UTF-8"?>
<svg width="10px" height="10px" viewBox="0 0 10 10" version="1.1" xmlns="http://www.w3.org/2000/svg" xmlns:xlink="http://www.w3.org/1999/xlink">
    <!-- Generator: Sketch 59.1 (86144) - https://sketch.com -->
    <title>edit</title>
    <desc>Created with Sketch.</desc>
    <g id="Page-1" stroke="none" stroke-width="1" fill="none" fill-rule="evenodd">
        <path d="M0.758011001,7.55429003 L2.44576,9.24111003 C2.49406,9.28945003 2.51203,9.36035003 2.49259,9.42586003 C2.47315,9.49137003 2.41942,9.54100003 2.35257,9.55517003 L0.225870001,9.99505003 C0.164065001,10.0084 0.0996845009,9.98959003 0.0548732009,9.94497002 C0.0100618009,9.90034003 -0.00906665906,9.83604003 0.00406749094,9.77418002 L0.443945001,7.64748003 C0.458122001,7.58063003 0.507744001,7.52690003 0.573256001,7.50746003 C0.638769001,7.48802002 0.709666001,7.50599003 0.758011001,7.55429003 Z M6.84949,1.59312002 L8.40535,3.14898002 C8.51454,3.25817002 8.51454,3.43519002 8.40535,3.54437002 L3.36742,8.58231002 C3.29463,8.65510002 3.17661,8.65510002 3.10382,8.58231002 L1.41616,6.89465002 C1.34337,6.82186003 1.34337,6.70385003 1.41616,6.63106002 L6.4541,1.59312002 C6.56329,1.48393002 6.74031,1.48393002 6.84949,1.59312002 Z M8.80877,0.191072025 L9.80911,1.19141003 C10.0639,1.44617003 10.0639,1.85923003 9.80911,2.11399002 L9.43942,2.48368002 C9.36663,2.55647002 9.24862,2.55647002 9.17583,2.48368002 L7.51651,0.824356025 C7.44372,0.751567025 7.44372,0.633552025 7.51651,0.560763025 L7.8862,0.191072025 C8.14096,-0.063690675 8.55401,-0.063690675 8.80877,0.191072025 Z" id="edit" fill="#000000" fill-rule="nonzero"></path>
    </g>
</svg>