<?xml version="1.0" encoding="UTF-8"?>
<svg width="5px" height="11px" viewBox="0 0 5 11" version="1.1" xmlns="http://www.w3.org/2000/svg" xmlns:xlink="http://www.w3.org/1999/xlink">
    <!-- Generator: Sketch 59.1 (86144) - https://sketch.com -->
    <title>graphic-support</title>
    <desc>Created with Sketch.</desc>
    <g id="Page-1" stroke="none" stroke-width="1" fill="none" fill-rule="evenodd">
        <path d="M3.22178,2.34716653 C3.3041,2.34689 3.44852,2.3634 3.61307,2.44638 C3.77771,2.52851 3.95599,2.67688 4.10835,2.90807 C4.41319,3.37385 4.63678,4.14861 4.63864,5.5484 C4.63864,5.81999 4.62992,6.11533 4.61123,6.43692 C4.59963,6.63412 4.4362,6.78634 4.24118,6.78634 C4.23385,6.78634 4.22657,6.7861 4.21919,6.78569 C4.01448,6.77367 3.85832,6.59823 3.87038,6.39365 C3.88842,6.08514 3.89658,5.80422 3.89658,5.5484 C3.89695,4.62046 3.78704,4.02603 3.65634,3.66372 C3.62898,3.58821 3.60124,3.52352 3.57374,3.46707 L3.57374,3.46707 L3.57374,10.4265 C3.57374,10.7433 3.31694,10.9999 3.00027,10.9999 C2.68369,10.9999 2.42689,10.7433 2.42689,10.4265 L2.42689,10.4265 L2.42689,6.23986 L2.21193,6.23986 L2.21193,10.4265 C2.21193,10.7433 1.95513,10.9999 1.63846,10.9999 C1.32188,10.9999 1.06508,10.7433 1.06508,10.4265 L1.06508,10.4265 L1.06508,3.46517 C0.904195,3.79446 0.740526,4.42539 0.742056,5.5484 C0.742056,5.80413 0.750265,6.08505 0.768353,6.39346 C0.780318,6.59804 0.624208,6.77358 0.419633,6.78559 C0.412259,6.78606 0.404931,6.78624 0.397696,6.78624 C0.202674,6.78624 0.0390971,6.63412 0.0275952,6.43697 C0.0086264,6.11538 0,5.82004 0,5.54845 C0.000602921,4.49751 0.128468,3.80155 0.318945,3.32019 C0.507149,2.84069 0.776005,2.57002 1.02548,2.44633 C1.19003,2.36336 1.33445,2.34694 1.41677,2.34716653 C1.44622,2.34716653 1.46839,2.34921 1.4823,2.35088 L1.4823,2.35088 L1.48265125,2.35100125 L3.15531,2.35107 C3.15559,2.35102 3.15583,2.35097 3.1561,2.35093 C3.17011,2.34917 3.19228,2.34716653 3.22178,2.34716653 Z M2.31915,0 C2.89547,0 3.36267,0.467198 3.36267,1.04352 C3.36267,1.61983 2.89547,2.08703 2.31915,2.08703 C1.74283,2.08703 1.27563,1.61983 1.27563,1.04352 C1.27563,0.467198 1.74283,0 2.31915,0 Z" id="graphic-support" fill="#000000" fill-rule="nonzero"></path>
    </g>
</svg>