<?xml version="1.0" encoding="UTF-8"?>
<svg width="25px" height="25px" viewBox="0 0 25 25" version="1.1" xmlns="http://www.w3.org/2000/svg" xmlns:xlink="http://www.w3.org/1999/xlink">
    <!-- Generator: Sketch 59.1 (86144) - https://sketch.com -->
    <title>health</title>
    <desc>Created with Sketch.</desc>
    <g id="Page-1" stroke="none" stroke-width="1" fill="none" fill-rule="evenodd">
        <path d="M22.1481,8.35757 L16.6424,8.35757 L16.6424,2.85164 C16.6424,2.09937 16.6424,2.85164 16.6424,0 C13.7908,0 14.6134,0 13.7908,0 L11.2089,0 C10.6607,0 9.71016333,0 8.35729,0 C8.35729,1.39952 8.35729,2.35006667 8.35729,2.85164 L8.35729,8.35757 L2.85164,8.35757 C2.08437,8.35757 2.85164,8.35757 0,8.35757 C0,11.2092 0,10.4018 0,11.2092 L0,13.7908 C0,14.5982 0,13.7908 0,16.6424 C2.85164,16.6424 2.08437,16.6424 2.85164,16.6424 L8.35758,16.6424 L8.35758,22.1484 C8.35758,22.9157 8.35758,22.1484 8.35758,25 C11.2092,25 10.4019,25 11.2092,25 L13.7911,25 C14.5985,25 13.7911,25 16.6427,25 C16.6427,22.1484 16.6427,22.9157 16.6427,22.1484 L16.6427,16.6421 L22.1484,16.6421 C22.9006,16.6421 22.1484,16.6421 25,16.6421 C25,13.7905 25,14.6132 25,13.7905 L25,11.2089 C25,10.3863 25,11.2089 25,8.35757" id="health" fill="#000000" fill-rule="nonzero"></path>
    </g>
</svg>