<?xml version="1.0" encoding="UTF-8"?>
<svg width="25px" height="25px" viewBox="0 0 25 25" version="1.1" xmlns="http://www.w3.org/2000/svg" xmlns:xlink="http://www.w3.org/1999/xlink">
    <!-- Generator: Sketch 59.1 (86144) - https://sketch.com -->
    <title>leisure</title>
    <desc>Created with Sketch.</desc>
    <g id="Page-1" stroke="none" stroke-width="1" fill="none" fill-rule="evenodd">
        <path d="M12.5,25 C19.4036,25 25,19.4036 25,12.5 C25,5.59644 19.4036,0 12.5,0 C5.59644,0 0,5.59644 0,12.5 C0,19.4036 5.59644,25 12.5,25 Z M9.61621,9.28613 C9.61621,10.1146 8.94464,10.7861 8.11621,10.7861 C7.28778,10.7861 6.61621,10.1146 6.61621,9.28613 C6.61621,8.45771 7.28778,7.78613 8.11621,7.78613 C8.94464,7.78613 9.61621,8.45771 9.61621,9.28613 Z M16.9019,10.7861 C17.7303,10.7861 18.4019,10.1146 18.4019,9.28613 C18.4019,8.45771 17.7303,7.78613 16.9019,7.78613 C16.0734,7.78613 15.4019,8.45771 15.4019,9.28613 C15.4019,10.1146 16.0734,10.7861 16.9019,10.7861 Z M18.4019,13.6426 C18.6519,13.6426 18.9019,13.7497 19.0804,13.9283 C19.259,14.1069 19.3304,14.3569 19.2947,14.6069 C19.0447,16.6069 17.3304,20.3569 12.509,20.3569 C7.68757,20.3569 5.97328,16.6069 5.72328,14.6426 C5.68757,14.3569 5.759,14.1069 5.93757,13.9283 C6.11614,13.7497 6.36614,13.6426 6.61614,13.6426 L18.4019,13.6426 Z" id="leisure" fill="#000000"></path>
    </g>
</svg>