<?xml version="1.0" encoding="UTF-8"?>
<svg width="25px" height="25px" viewBox="0 0 25 25" version="1.1" xmlns="http://www.w3.org/2000/svg" xmlns:xlink="http://www.w3.org/1999/xlink">
    <!-- Generator: Sketch 59.1 (86144) - https://sketch.com -->
    <title>like</title>
    <desc>Created with Sketch.</desc>
    <g id="Page-1" stroke="none" stroke-width="1" fill="none" fill-rule="evenodd">
        <path d="M23.3501,10.0758001 C22.7791,10.0471001 18.3099,10.1011001 16.3176,10.0208001 C15.8977,10.0240001 15.6165,9.63520012 15.7123,9.17039012 C15.8173,8.16615012 16.2732,4.96060012 16.2732,4.36140012 C16.2732,3.68784012 16.1677,3.00843012 16.0489,2.34203012 C15.9334,1.69211012 15.6863,1.07936012 15.2264,0.58614012 C14.7305,0.0544046197 14.1196,-0.13284488 13.4235,0.0958386197 C12.7382,0.32080312 12.2852,0.77657612 12.2489,1.53434012 C12.1992,2.56833012 12.181,3.60364012 12.1397,4.63816012 C12.1342,4.77627012 12.0995,4.92740012 12.0326,5.04639012 C11.0022,6.87719012 9.95171,8.69656012 8.93771,10.5361001 C8.69888,10.9698001 8.43176,11.0849001 7.91683,11.2052001 C7.4331,11.2612001 6.52119,11.3374001 6.02318,11.3866001 L6.02318,21.9456001 C6.62883,21.9456001 7.37677,22.3434001 7.58015,22.4627001 C8.7621,23.1567001 9.94906,23.8422001 11.1379,24.5240001 C11.2437,24.5849001 11.377,24.6279001 11.4976,24.6282001 C14.4084,24.6337001 16.8834,24.6282001 19.7942,24.6282001 C20.2171,24.6282001 21.6003,24.4473001 21.9555,22.9573001 C22.3128,21.4566001 20.8619,20.9939001 20.8619,20.9939001 C20.8619,20.9939001 22.6587,21.2091001 22.9552,19.5517001 C23.2334,17.9969001 21.8687,17.5310001 21.8074,17.5063001 C22.3625,17.4139001 23.6243,17.1467001 23.8907,15.9926001 C24.162,14.8155001 23.3302,14.0612001 22.8806,13.7600001 C23.5598,13.7454001 24.8676,13.3324001 24.9874,12.0083001 C25.1482,10.2264001 23.7182,10.0942001 23.3501,10.0758001 Z M2.4464,9.06389012 C1.09546,9.06389012 0,10.1640001 0,11.5207001 L0,22.5432001 C0,23.8999001 1.09546,25.0000001 2.4464,25.0000001 C3.79735,25.0000001 4.89281,23.8999001 4.89281,22.5432001 L4.89281,11.5207001 C4.89281,10.1637001 3.79761,9.06389012 2.4464,9.06389012 Z M2.4464,23.6056001 C1.84393,23.6056001 1.35544,23.1150001 1.35544,22.5100001 C1.35544,21.9049001 1.84393,21.4144001 2.4464,21.4144001 C3.04888,21.4144001 3.53737,21.9049001 3.53737,22.5100001 C3.53737,23.1150001 3.04915,23.6056001 2.4464,23.6056001 Z" id="like" fill="#000000" fill-rule="nonzero"></path>
    </g>
</svg>