<?xml version="1.0" encoding="UTF-8"?>
<svg width="51px" height="10px" viewBox="0 0 51 10" version="1.1" xmlns="http://www.w3.org/2000/svg" xmlns:xlink="http://www.w3.org/1999/xlink">
    <!-- Generator: Sketch 59.1 (86144) - https://sketch.com -->
    <title>logo-pictos</title>
    <desc>Created with Sketch.</desc>
    <g id="Page-1" stroke="none" stroke-width="1" fill="none" fill-rule="evenodd">
        <path d="M12,0 L12,10 L10,10 L10,0 L12,0 Z M29,3 L29,10 L27,10 L27,3 L29,3 Z M2,0 L2,10 L0,10 L0,0 L2,0 Z M19,0 C20.7657,0 22.3177,0.915274 23.2073,2.29726 L21.2603,3.02738 C20.7104,2.39776 19.9016,2 19,2 C17.3431,2 16,3.34315 16,5 C16,6.65685 17.3431,8 19,8 C19.9016,8 20.7104,7.60224 21.2603,6.97262 L23.2073,7.70273 C22.3177,9.08473 20.7657,10 19,10 C16.2386,10 14,7.76142 14,5 C14,2.23858 16.2386,0 19,0 Z M38,0 C40.7614237,0 43,2.23857625 43,5 C43,7.76142375 40.7614237,10 38,10 C35.2385763,10 33,7.76142375 33,5 C33,2.23857625 35.2385763,0 38,0 Z M48,4.03038 C49.6961,4.23834 51,5.48865 51,7 C51,8.65685 49.433,10 47.5,10 C45.567,10 44,8.65685 44,7 L46,7 C46,7.55228 46.6716,8 47.5,8 C48.3284,8 49,7.55228 49,7 C49,6.56459 48.5826,6.19418 48,6.0569 L48,4.03038 Z M4.50004,0 C6.43303,0 8.00004,1.567 8.00004,3.5 C8.00004,5.433 6.43303,7 4.50004,7 L4.50004,7 L3,7 L3,0 Z M47.5,6.47695e-07 C49.433,6.47695e-07 51,1.34315 51,3.00000065 L49,3.00000065 C49,2.44772 48.3284,2.00000065 47.5,2.00000065 C46.6716,2.00000065 46,2.44772 46,3.00000065 C46,3.43541 46.4174,3.80582 47,3.9431 L47,5.96962 C45.3039,5.76166 44,4.51135 44,3.00000065 C44,1.34315 45.567,6.47695e-07 47.5,6.47695e-07 Z M32,0 L32,2 L24,2 L24,0 L32,0 Z" id="logo-pictos" fill="#000000" fill-rule="nonzero"></path>
    </g>
</svg>