<?xml version="1.0" encoding="UTF-8"?>
<svg width="185px" height="47px" viewBox="0 0 185 47" version="1.1" xmlns="http://www.w3.org/2000/svg" xmlns:xlink="http://www.w3.org/1999/xlink">
    <!-- Generator: Sketch 59.1 (86144) - https://sketch.com -->
    <title>logo-pictos</title>
    <desc>Created with Sketch.</desc>
    <g id="Page-1" stroke="none" stroke-width="1" fill="none" fill-rule="evenodd">
        <g id="logo-pictos" transform="translate(0.857420, 0.000000)" fill-rule="nonzero">
            <path d="M25.90328,20.6592 C25.90328,24.6468 24.72328,27.7311 22.36328,29.9121 C20.01958,32.0768 16.68298,33.1592 12.35348,33.1592 L9.64358,33.1592 L9.64358,45 L0,45 L0,9.3066 L12.35348,9.3066 C16.86198,9.3066 20.24738,10.2913 22.50978,12.2607 C24.77218,14.2301 25.90328,17.0296 25.90328,20.6592 Z M9.64358,25.2979 L11.40138,25.2979 C12.84998,25.2979 13.99738,24.891 14.84378,24.0771 C15.70638,23.2633 16.13768,22.1403 16.13768,20.708 C16.13768,18.2992 14.80308,17.0947 12.13378,17.0947 L9.64358,17.0947 L9.64358,25.2979 Z M31.59178,45 L31.59178,9.3066 L41.28418,9.3066 L41.28418,45 L31.59178,45 Z M64.91698,16.7041 C62.62208,16.7041 60.83168,17.6481 59.54588,19.5361 C58.26008,21.4079 57.61718,23.9958 57.61718,27.2998 C57.61718,34.1683 60.22948,37.6025 65.45408,37.6025 C67.03288,37.6025 68.56278,37.3828 70.04398,36.9434 C71.52508,36.5039 73.01428,35.9749 74.51168,35.3564 L74.51168,43.5107 C71.53318,44.8291 68.16408,45.4883 64.40428,45.4883 C59.01688,45.4883 54.88278,43.9258 52.00198,40.8008 C49.13738,37.6758 47.70508,33.1592 47.70508,27.251 C47.70508,23.5563 48.39678,20.3092 49.78028,17.5098 C51.17998,14.7103 53.18198,12.5618 55.78618,11.0645 C58.40658,9.5508 61.48278,8.7939 65.01468,8.7939 C68.87208,8.7939 72.55858,9.6322 76.07418,11.3086 L73.12008,18.9014 C71.80178,18.2829 70.48338,17.762 69.16508,17.3389 C67.84668,16.9157 66.43068,16.7041 64.91698,16.7041 Z M97.24158,45 L87.59768,45 L87.59768,17.1924 L78.88188,17.1924 L78.88188,9.3066 L105.93258,9.3066 L105.93258,17.1924 L97.24158,17.1924 L97.24158,45 Z" id="Shape" fill="#1D1D1B"></path>
            <path d="M183.33958,34.1602 C183.33958,36.3737 182.77858,38.3431 181.65558,40.0684 C180.53258,41.7773 178.91258,43.112 176.79658,44.0723 C174.68058,45.0163 172.19858,45.4883 169.35058,45.4883 C166.97458,45.4883 164.98058,45.3255 163.36958,45 C161.75758,44.6582 160.08158,44.0723 158.33958,43.2422 L158.33958,34.6484 C160.17858,35.5924 162.09158,36.333 164.07758,36.8701 C166.06258,37.391 167.88558,37.6514 169.54558,37.6514 C170.97858,37.6514 172.02758,37.4072 172.69558,36.9189 C173.36258,36.4144 173.69658,35.7715 173.69658,34.9902 C173.69658,34.502 173.55758,34.0788 173.28158,33.7207 C173.02058,33.3464 172.58958,32.972 171.98758,32.5977 C171.40158,32.2233 169.82258,31.4583 167.25058,30.3027 C164.92358,29.2448 163.17358,28.2194 162.00158,27.2266 C160.84658,26.2337 159.98358,25.0944 159.41358,23.8086 C158.86058,22.5228 158.58358,21.001 158.58358,19.2432 C158.58358,15.9554 159.78058,13.3919 162.17258,11.5527 C164.56558,9.7135 167.85358,8.7939 172.03658,8.7939 C175.73058,8.7939 179.49858,9.6484 183.33958,11.3574 L180.38558,18.8037 C177.04958,17.2738 174.16858,16.5088 171.74358,16.5088 C170.48958,16.5088 169.57858,16.7285 169.00858,17.168 C168.43958,17.6074 168.15458,18.1527 168.15458,18.8037 C168.15458,19.5036 168.51258,20.1302 169.22858,20.6836 C169.96058,21.237 171.93058,22.2461 175.13658,23.7109 C178.21258,25.0944 180.34458,26.5837 181.53358,28.1787 C182.73758,29.7575 183.33958,31.7513 183.33958,34.1602 Z" id="Path" fill="#1D1D1B"></path>
            <path d="M130.66158,45.9322 L130.66158,37.0862 L136.67658,37.0862 C135.37858,41.8232 133.17758,45.2222 130.66158,45.9322 Z" id="Path" fill="#0099B4"></path>
            <path d="M122.20358,19.8283 L128.70158,19.8283 L128.70158,26.4962 L121.46058,26.4962 C121.51858,24.1422 121.77658,21.8913 122.20358,19.8283 Z" id="Path" fill="#0099B4"></path>
            <path d="M137.88658,26.4962 L130.66058,26.4962 L130.66058,19.8283 L137.14658,19.8283 C137.57158,21.8913 137.82958,24.1422 137.88658,26.4962 Z" id="Path" fill="#0099B4"></path>
            <path d="M137.14658,35.1273 L130.66058,35.1273 L130.66058,28.4603 L137.88658,28.4603 C137.82958,30.814 137.57158,33.0646 137.14658,35.1273 Z" id="Path" fill="#0099B4"></path>
            <path d="M136.67658,17.8696 L130.66158,17.8696 L130.66158,9.0237 C133.17758,9.7338 135.37858,13.1328 136.67658,17.8696 Z" id="Path" fill="#0099B4"></path>
            <path d="M120.18258,35.1273 L111.65158,35.1273 C110.77158,33.0634 110.26058,30.8131 110.14258,28.4603 L119.50058,28.4603 C119.55258,30.8164 119.78658,33.0573 120.18258,35.1273 Z" id="Path" fill="#0099B4"></path>
            <path d="M128.70158,9.0237 L128.70158,17.8681 L122.67458,17.8681 C123.97558,13.134 126.18058,9.7364 128.70158,9.0237 Z" id="Path" fill="#0099B4"></path>
            <path d="M139.84658,28.4603 L149.20258,28.4603 C149.08458,30.8131 148.57358,33.0634 147.69458,35.1273 L139.16658,35.1273 C139.56158,33.0573 139.79458,30.8164 139.84658,28.4603 Z" id="Path" fill="#0099B4"></path>
            <path d="M125.83258,46.668 C120.17258,45.5364 115.39558,41.956 112.63558,37.0862 L120.61658,37.0862 C121.72158,41.4402 123.56358,44.8429 125.83258,46.668 Z" id="Path" fill="#0099B4"></path>
            <path d="M138.73358,37.0862 L146.71158,37.0862 C143.95558,41.9534 139.18458,45.533 133.53058,46.6665 C135.79458,44.8411 137.63158,41.439 138.73358,37.0862 Z" id="Path" fill="#0099B4"></path>
            <path d="M120.61658,17.8674 L112.63458,17.8674 C115.39458,12.9958 120.17358,9.4143 125.83558,8.2832 C123.56458,10.1076 121.72258,13.5112 120.61658,17.8674 Z" id="Path" fill="#0099B4"></path>
            <path d="M121.46058,28.4603 L128.70158,28.4603 L128.70158,35.1273 L122.20358,35.1273 C121.77658,33.0646 121.51858,30.814 121.46058,28.4603 Z" id="Path" fill="#0099B4"></path>
            <path d="M119.50058,26.4962 L110.14258,26.4962 C110.25958,24.1432 110.77158,21.8925 111.65158,19.8283 L120.18258,19.8283 C119.78558,21.8985 119.55258,24.1397 119.50058,26.4962 Z" id="Path" fill="#0099B4"></path>
            <path d="M128.70158,37.0862 L128.70158,45.9307 C126.18058,45.218 123.97558,41.8205 122.67458,37.0862 L128.70158,37.0862 Z" id="Path" fill="#0099B4"></path>
            <path d="M145.67058,26.4072 C145.69558,26.4403 145.72858,26.4643 145.75358,26.4962 L139.84758,26.4962 C139.79558,24.1397 139.56258,21.8985 139.16658,19.8283 L141.28458,19.8283 C143.00058,22.6814 144.77858,25.1868 145.67058,26.4072 Z" id="Path" fill="#0099B4"></path>
            <path d="M138.73458,17.8677 C137.63358,13.5219 135.80158,10.1231 133.54258,8.2954 C134.72658,8.5318 135.87958,8.8809 136.99658,9.3287 C137.07958,11.6471 138.46858,14.8249 140.15458,17.8677 L138.73458,17.8677 Z" id="Path" fill="#0099B4"></path>
            <path d="M148.04658,25.6514 C147.73358,25.6514 147.43958,25.5044 147.25258,25.2496 C146.40058,24.0832 138.94058,13.7716 138.94058,9.1059 C138.94058,4.0874 143.01858,0 148.04658,0 C153.06558,0 157.14258,4.0874 157.14258,9.1059 C157.14258,13.7716 149.68358,24.0832 148.83158,25.2496 C148.65458,25.4946 148.36058,25.6514 148.04658,25.6514 Z M152.25458,9.106 C152.25458,6.7838 150.36658,4.8952 148.04458,4.8952 C145.72258,4.8952 143.83358,6.7838 143.83358,9.106 C143.83358,11.4234 145.72258,13.3091 148.04458,13.3091 C150.36658,13.3091 152.25458,11.4234 152.25458,9.106 Z" id="Shape" fill="#1D1D1B"></path>
        </g>
    </g>
</svg>