<svg width="169" height="33" viewBox="0 0 169 33" fill="none" xmlns="http://www.w3.org/2000/svg">
<rect x="33.5764" y="0.0999527" width="6.58001" height="32.9" fill="black"/>
<rect x="89.5065" y="9.96997" width="6.58001" height="23.03" fill="black"/>
<rect x="79.6365" y="0.0999527" width="26.32" height="6.58001" fill="black"/>
<rect x="0.676422" y="0.0999527" width="6.58001" height="32.9" fill="black"/>
<path fill-rule="evenodd" clip-rule="evenodd" d="M15.4814 0.0999527H10.5464V23.13H15.4814C15.4814 23.13 15.4815 23.13 15.4815 23.13C21.841 23.13 26.9965 17.9745 26.9965 11.615C26.9965 5.2554 21.841 0.0999527 15.4815 0.0999527C15.4815 0.0999527 15.4814 0.0999527 15.4814 0.0999527Z" fill="black"/>
<path fill-rule="evenodd" clip-rule="evenodd" d="M77.0285 25.442C74.1016 29.9887 68.9957 33 63.1865 33C54.1014 33 46.7365 25.6351 46.7365 16.55C46.7365 7.46488 54.1014 0.0999527 63.1865 0.0999527C68.9957 0.0999527 74.1017 3.11121 77.0285 7.65797L70.6229 10.0601C68.8137 7.9886 66.1529 6.67997 63.1865 6.67997C57.7354 6.67997 53.3165 11.0989 53.3165 16.55C53.3165 22.001 57.7354 26.42 63.1865 26.42C66.1529 26.42 68.8137 25.1114 70.6229 23.0399L77.0285 25.442ZM79.6365 16.5696C79.6365 16.563 79.6365 16.5565 79.6365 16.55C79.6365 16.5434 79.6365 16.5369 79.6365 16.5304V16.5696Z" fill="black"/>
<circle cx="125.697" cy="16.55" r="16.45" fill="#004079"/>
<path fill-rule="evenodd" clip-rule="evenodd" d="M168.467 23.13C168.467 28.581 163.311 33 156.952 33C150.592 33 145.437 28.581 145.437 23.13L152.017 23.13C152.017 24.947 154.226 26.42 156.952 26.42C159.677 26.42 161.887 24.947 161.887 23.13C161.887 21.6975 160.513 20.4788 158.597 20.0272V13.3599C164.177 14.0441 168.467 18.1577 168.467 23.13Z" fill="black"/>
<path fill-rule="evenodd" clip-rule="evenodd" d="M145.437 9.87001C145.437 4.41895 150.592 -3.46999e-06 156.952 -2.91402e-06C163.311 -2.35805e-06 168.467 4.41895 168.467 9.87001L161.887 9.87C161.887 8.05299 159.677 6.58 156.952 6.58C154.226 6.58 152.017 8.05298 152.017 9.87C152.017 11.3025 153.39 12.5212 155.307 12.9728L155.307 19.6401C149.726 18.9559 145.437 14.8423 145.437 9.87001ZM156.942 19.74C156.945 19.74 156.948 19.74 156.952 19.74C156.955 19.74 156.958 19.74 156.962 19.74L156.942 19.74Z" fill="black"/>
</svg>
