<svg width="153" height="85" viewBox="0 0 153 85" fill="none" xmlns="http://www.w3.org/2000/svg">
<path d="M73.3813 32.4782C73.1948 32.4782 73.0082 32.4517 72.8216 32.3986V32.2396H73.0082C73.1948 32.2396 73.408 32.1865 73.5679 32.0805C73.8345 31.8949 73.9678 31.5237 73.9678 30.9935C73.9678 29.8269 73.3014 29.8004 72.8749 29.8004H72.5284V33.3531C72.5284 33.9894 72.5284 34.2545 72.6617 34.4136C72.8216 34.5992 73.0348 34.6787 73.2747 34.6522V34.8113L71.9686 34.7583C71.5955 34.7583 71.2489 34.7583 70.8758 34.8113V34.6522C71.0357 34.6522 71.169 34.5992 71.2756 34.4666C71.4089 34.3341 71.4355 34.0955 71.4355 33.4061V30.6488C71.4355 30.1185 71.4089 29.9595 71.3289 29.8269C71.2223 29.7209 71.0624 29.6413 70.9024 29.6148V29.4822H73.1148C73.4346 29.4822 73.7279 29.5088 74.0477 29.5618C74.7141 29.6678 75.1939 30.2511 75.1672 30.9139C75.1672 32.001 74.3409 32.4782 73.3813 32.4782Z" fill="#A5A5A5"/>
<path d="M78.5525 34.8908C76.8732 34.8908 75.8603 33.8833 75.8603 32.2396C75.8603 30.5958 76.9531 29.4292 78.6324 29.4292C80.3117 29.4292 81.3246 30.4632 81.3246 32.0805C81.3246 33.6978 80.2584 34.8908 78.5525 34.8908ZM78.6058 29.8004C77.4862 29.8004 77.0864 30.8344 77.0864 32.1335C77.0864 33.4326 77.5662 34.5462 78.6058 34.5462C79.6453 34.5462 80.0984 33.4857 80.0984 32.1865C80.0984 30.8874 79.6453 29.8004 78.6058 29.8004Z" fill="#A5A5A5"/>
<path d="M87.1887 29.8004C87.0554 29.9595 87.0287 30.1716 87.0287 30.8874V34.8643H86.5756L83.4836 30.7549L83.2704 30.4367V33.6713C83.2704 34.175 83.297 34.3606 83.377 34.4666C83.4836 34.5992 83.6436 34.6787 83.8035 34.6787V34.8378L83.0305 34.7848C82.7639 34.7848 82.4974 34.7848 82.2308 34.8378V34.6787C82.3908 34.6787 82.524 34.6257 82.6307 34.4932C82.7639 34.3606 82.7639 34.122 82.7639 33.4326V30.6488C82.7639 30.1185 82.7373 29.9595 82.6573 29.8269C82.5507 29.6943 82.4174 29.6148 82.2575 29.6148V29.4822H83.9101L86.2557 32.6107C86.3624 32.7433 86.4423 32.8759 86.5223 33.0084V30.6488C86.5223 30.1185 86.4956 29.9595 86.4157 29.8269C86.3091 29.6943 86.1758 29.6148 86.0159 29.6148V29.4822H87.5885V29.6148C87.4286 29.6148 87.2953 29.6678 87.1887 29.8004Z" fill="#A5A5A5"/>
<path d="M92.1465 30.5427C92.1465 30.3306 92.0399 30.1185 91.8533 29.986C91.6934 29.8799 91.5335 29.8799 91.027 29.8799H90.7072V33.6712C90.7072 34.175 90.7338 34.3606 90.8138 34.4666C90.8938 34.5727 91.3202 34.6787 91.4002 34.6787V34.8378L90.1474 34.7848L88.8946 34.8378V34.6787C89.1079 34.6787 89.2944 34.5992 89.4544 34.4931C89.5876 34.3341 89.5876 34.1219 89.5876 33.4326V29.8799H89.2944C88.788 29.8799 88.6281 29.8799 88.4415 29.986C88.2549 30.1185 88.1483 30.3306 88.1749 30.5427H87.9883C88.015 30.1715 88.015 29.5087 88.015 29.5087H92.2798C92.2798 29.5087 92.2798 30.1715 92.3065 30.5427H92.1465Z" fill="#A5A5A5"/>
<path d="M94.6254 29.8004C94.4922 29.9595 94.4655 30.1716 94.4655 30.8874V33.6713C94.4655 34.175 94.4922 34.3606 94.5721 34.4666C94.6787 34.5992 94.8387 34.6788 94.9986 34.6788V34.8378L93.9057 34.7848L92.8129 34.8378V34.6788C92.9728 34.6788 93.1061 34.6257 93.2127 34.4932C93.346 34.3606 93.346 34.122 93.346 33.4326V30.6488C93.346 30.1185 93.3193 29.9595 93.2394 29.8269C93.1328 29.6943 92.9995 29.6148 92.8395 29.6148V29.4822H95.0253V29.6148C94.8653 29.6148 94.7321 29.6678 94.6254 29.8004Z" fill="#A5A5A5"/>
<path d="M99.37 30.5428C99.3967 30.3306 99.2901 30.1185 99.1035 29.986C98.9169 29.8799 98.757 29.8799 98.2505 29.8799H97.5841V31.8684H98.2772C98.5171 31.8949 98.757 31.8419 98.9435 31.7093C99.0768 31.5768 99.1568 31.4177 99.1568 31.2321H99.3167C99.3167 31.4177 99.2901 31.5237 99.2901 32.054C99.2901 32.5842 99.3167 32.6373 99.3167 32.8229H99.1568C99.1568 32.6638 99.0768 32.5047 98.9702 32.3986C98.757 32.2661 98.4904 32.2131 98.2505 32.2396H97.5841V33.6713C97.5841 34.175 97.6108 34.3606 97.6908 34.4666C97.7707 34.5727 98.1972 34.6788 98.2772 34.6788V34.8378L97.0244 34.7848L95.9049 34.8378V34.6788C96.0648 34.6788 96.1981 34.6257 96.3047 34.4932C96.4646 34.3606 96.4646 34.122 96.4646 33.4326V30.6488C96.4646 30.1185 96.438 29.9595 96.358 29.8269C96.2514 29.6943 96.0915 29.6148 95.9315 29.6148V29.4822H99.53C99.53 29.4822 99.53 30.1451 99.5566 30.5162L99.37 30.5428Z" fill="#A5A5A5"/>
<path d="M102.116 29.8004C101.956 29.9595 101.956 30.1716 101.956 30.8874V33.6713C101.956 34.175 101.982 34.3606 102.062 34.4666C102.142 34.5992 102.329 34.7053 102.489 34.6788V34.8378L101.369 34.7848L100.276 34.8378V34.6788C100.436 34.6788 100.57 34.6257 100.676 34.4932C100.836 34.3606 100.836 34.122 100.836 33.4326V30.6488C100.836 30.1185 100.809 29.9595 100.729 29.8269C100.623 29.6943 100.463 29.6413 100.303 29.6148V29.4822H102.515V29.6148C102.355 29.6148 102.222 29.6678 102.116 29.8004Z" fill="#A5A5A5"/>
<path d="M107.58 30.5427C107.58 30.3571 107.5 30.1716 107.367 30.0655C107.1 29.8799 106.754 29.8004 106.434 29.8269C105.714 29.8269 104.621 29.9595 104.621 32.1865C104.621 33.5387 105.074 34.4666 106.46 34.4666C106.754 34.4666 107.153 34.4401 107.367 34.175C107.5 34.0424 107.553 33.8568 107.553 33.6712H107.713C107.686 33.9629 107.686 34.2545 107.686 34.5462V34.6787C107.233 34.8113 106.78 34.8643 106.3 34.8643C105.287 34.8643 104.408 34.5727 103.901 33.9364C103.555 33.4591 103.368 32.8759 103.395 32.2661C103.342 31.073 104.088 29.986 105.234 29.6148C105.634 29.4822 106.06 29.4292 106.487 29.4292C106.913 29.4292 107.34 29.4822 107.766 29.5353C107.74 29.6943 107.74 29.8799 107.74 30.039C107.74 30.1981 107.74 30.3837 107.766 30.5427H107.58Z" fill="#A5A5A5"/>
<path d="M110.485 29.8004C110.325 29.9595 110.325 30.1716 110.325 30.8874V33.6713C110.325 34.175 110.352 34.3606 110.432 34.4666C110.538 34.5992 110.698 34.6788 110.858 34.6788V34.8378L109.739 34.7848L108.646 34.8378V34.6788C108.806 34.6788 108.939 34.6257 109.046 34.4932C109.206 34.3606 109.206 34.122 109.206 33.4326V30.6488C109.206 30.1185 109.179 29.9595 109.099 29.8269C108.993 29.6943 108.833 29.6148 108.673 29.6148V29.4822H110.885V29.6148C110.725 29.6148 110.592 29.6678 110.485 29.8004Z" fill="#A5A5A5"/>
<path d="M115.496 34.7848L114.43 34.8378V34.6787C114.617 34.6787 114.75 34.6522 114.803 34.5727C114.857 34.5462 114.883 34.4666 114.883 34.4136C114.857 34.2545 114.803 34.0954 114.75 33.9364L114.377 32.8228H112.831L112.431 33.9629C112.351 34.0954 112.324 34.2545 112.298 34.4136C112.298 34.4931 112.298 34.5462 112.351 34.5727C112.458 34.6522 112.591 34.7052 112.724 34.6787V34.8378L111.951 34.7848L111.205 34.8378V34.6787C111.365 34.6787 111.525 34.5727 111.605 34.4401C111.765 34.1485 111.898 33.8568 112.005 33.5652L113.684 29.4822L114.297 29.3762L115.763 33.4856C115.949 34.0424 116.109 34.3871 116.136 34.4666C116.216 34.5992 116.376 34.6787 116.536 34.6787V34.8378L115.496 34.7848ZM113.87 31.3911C113.764 31.1525 113.71 30.9139 113.657 30.6488L112.964 32.4782H114.244L113.87 31.3911Z" fill="#A5A5A5"/>
<path d="M75.807 39.1859C75.6737 39.345 75.647 39.5836 75.647 40.2729V41.9167C75.647 42.5265 75.647 42.9242 75.5138 43.2158C75.1406 44.1968 74.101 44.2763 73.4347 44.2763C72.0486 44.2763 71.5955 43.7991 71.3822 43.2423C71.249 42.7916 71.2223 42.3409 71.249 41.8902V40.0343C71.249 39.504 71.2223 39.345 71.1423 39.2124C71.0357 39.1063 70.8758 39.0268 70.7159 39.0003V38.8677H72.9016V39.0003C72.7416 39.0003 72.6084 39.0798 72.5017 39.1859C72.3685 39.345 72.3685 39.5836 72.3685 40.2729V42.4204C72.3685 43.1628 72.4218 43.9052 73.6213 43.9052C74.8207 43.9052 74.874 43.0568 74.874 42.4204V40.0343C74.874 39.504 74.8474 39.345 74.7674 39.2124C74.6608 39.1063 74.5009 39.0268 74.3409 39.0003V38.8677H76.2068V39.0003C76.0469 39.0003 75.9136 39.0533 75.807 39.1859Z" fill="#A5A5A5"/>
<path d="M81.911 39.1859C81.7777 39.345 81.7777 39.5836 81.7777 40.2729V44.2498H81.2979L78.2059 40.1403C78.1259 40.0343 78.0726 39.9282 78.0193 39.8222V43.0568C78.0193 43.5605 78.0193 43.7461 78.1259 43.8787C78.2326 44.0112 78.3658 44.0642 78.5258 44.0642V44.2233H76.9531V44.0642C77.1131 44.0642 77.2463 44.0112 77.353 43.9052C77.4862 43.7461 77.4862 43.5075 77.4862 42.8181V40.0343C77.4862 39.504 77.4596 39.345 77.3796 39.2124C77.273 39.0798 77.1397 39.0003 76.9798 39.0003V38.8677H78.6324L80.978 41.9962C81.0847 42.1288 81.1646 42.2614 81.2446 42.3939V40.0343C81.2446 39.504 81.2179 39.345 81.138 39.2124C81.0313 39.0798 80.8981 39.0003 80.7381 39.0003V38.8677H82.3108V39.0003C82.1509 39.0003 82.0176 39.0533 81.911 39.1859Z" fill="#A5A5A5"/>
<path d="M84.8963 39.1859C84.7631 39.345 84.7631 39.5836 84.7631 40.2729V43.0568C84.7631 43.5605 84.7897 43.7461 84.8697 43.8787C84.9763 44.0112 85.1096 44.0642 85.2695 44.0642V44.2233H83.0838V44.0642C83.2437 44.0642 83.377 44.0112 83.4836 43.9052C83.6169 43.7461 83.6436 43.5075 83.6436 42.8181V40.0343C83.6436 39.504 83.6169 39.345 83.5369 39.2124C83.4303 39.1063 83.2704 39.0268 83.1104 39.0003V38.8677H85.2962V39.0003C85.1362 39.0003 85.003 39.0533 84.8963 39.1859Z" fill="#A5A5A5"/>
<path d="M90.7338 39.2389C90.5739 39.5306 90.4406 39.8222 90.334 40.1403L88.6547 44.2233L88.015 44.3294L86.549 40.1934C86.4423 39.8752 86.3091 39.5571 86.1758 39.2389C86.0958 39.1064 85.9625 39.0003 85.8026 39.0003V38.8677H87.9084V39.0003C87.7751 39.0003 87.6152 39.0268 87.5085 39.1064C87.4819 39.1594 87.4552 39.2389 87.4552 39.2919C87.4552 39.451 87.5085 39.6101 87.5618 39.7427L88.4681 42.2879C88.628 42.7916 88.6814 43.0302 88.6814 43.0302C88.6814 43.0302 88.788 42.7651 88.9479 42.2879L89.9075 39.7427C89.9608 39.5836 90.0141 39.4245 90.0408 39.2654C90.0408 39.2124 90.0141 39.1594 89.9608 39.1064C89.8808 39.0268 89.6942 39.0268 89.5876 39.0003V38.8677H91.1336V39.0003C90.9737 39.0003 90.8138 39.0798 90.7338 39.2389Z" fill="#A5A5A5"/>
<path d="M95.0519 44.1703H91.4268V44.0112C91.5867 44.0112 91.72 43.9582 91.8266 43.8521C91.9599 43.6931 91.9599 43.4545 91.9599 42.7651V40.0343C91.9599 39.504 91.9333 39.345 91.8533 39.2124C91.7467 39.0798 91.6134 39.0003 91.4535 39.0003V38.8677H95.0252C95.0252 38.8677 95.0252 39.5306 95.0519 39.9017H94.892C94.892 39.6896 94.7853 39.4775 94.5988 39.345C94.4122 39.2389 94.2523 39.2389 93.7458 39.2389H93.0794V41.2274H93.7725C94.0124 41.2539 94.2256 41.2009 94.4388 41.0948C94.5721 40.9622 94.6254 40.8032 94.6521 40.6176H94.812V42.2084H94.6521C94.6521 42.0493 94.5721 41.8902 94.4655 41.7576C94.3056 41.5986 94.039 41.5986 93.7458 41.5986H93.0794V43.3749C93.0794 43.7461 93.1594 43.7991 93.5859 43.7991H93.7192C94.1723 43.7991 94.5188 43.7726 94.7054 43.587C94.8387 43.4279 94.9186 43.2424 94.9186 43.0303H95.0786C95.0519 43.3749 95.0519 44.1438 95.0519 44.1703Z" fill="#A5A5A5"/>
<path d="M100.596 44.2233C99.7432 44.2233 99.5566 43.8786 99.2634 43.534C98.9702 43.1893 98.4638 42.5 98.0639 41.9167H97.7174V43.0302C97.7174 43.534 97.7441 43.7196 97.824 43.8521C97.9307 43.9582 98.0906 44.0377 98.2505 44.0377V44.1968H96.0915V44.0377C96.2514 44.0377 96.3847 43.9847 96.4913 43.8786C96.6246 43.7196 96.6512 43.481 96.6512 42.7916V40.0343C96.6512 39.504 96.6246 39.345 96.5446 39.2124C96.438 39.1063 96.278 39.0268 96.1181 39.0003V38.8677H98.2505C98.5704 38.8677 98.8636 38.8942 99.1834 38.9473C99.8232 39.0533 100.276 39.6101 100.25 40.2464C100.25 40.6441 100.116 41.413 99.0768 41.7046L100.463 43.2954C100.863 43.7461 101.129 44.0642 101.476 44.0642V44.1968C101.183 44.2233 100.889 44.2498 100.596 44.2233ZM98.0639 39.1859H97.7174V41.572H98.4371C98.5437 41.519 99.0768 41.4395 99.0768 40.3259C99.0768 39.2124 98.3838 39.1594 98.0639 39.1859Z" fill="#A5A5A5"/>
<path d="M103.208 44.2233C102.782 44.2233 102.355 44.1703 101.929 44.0643V43.9317C101.929 43.6401 101.902 43.3219 101.876 43.0303H102.062C102.062 43.2424 102.169 43.4545 102.329 43.6135C102.569 43.7726 102.862 43.8522 103.155 43.8522C104.221 43.8522 104.221 43.1628 104.221 42.9772C104.221 42.7916 103.901 42.2614 103.448 41.9963L102.995 41.7046C102.409 41.3334 102.009 40.9888 102.009 40.2199C102.009 39.451 102.222 38.7882 103.901 38.7882C104.328 38.7882 104.728 38.8147 105.154 38.8943C105.128 39.0268 105.128 39.1859 105.128 39.3185C105.128 39.5041 105.128 39.7162 105.154 39.9017H104.994C104.968 39.7162 104.888 39.5571 104.754 39.4245C104.514 39.2389 104.221 39.1329 103.928 39.1594C103.102 39.1594 102.995 39.6366 102.995 39.9283C102.995 40.2199 103.235 40.5381 103.688 40.8032L104.195 41.1213C104.861 41.519 105.261 41.8637 105.261 42.6856C105.261 43.5075 104.381 44.2233 103.208 44.2233Z" fill="#A5A5A5"/>
<path d="M108.06 39.1859C107.926 39.345 107.9 39.5836 107.9 40.2729V43.0568C107.9 43.5605 107.926 43.7461 108.006 43.8787C108.113 43.9847 108.273 44.0642 108.433 44.0642V44.2233H106.247V44.0642C106.407 44.0642 106.54 44.0112 106.647 43.9052C106.78 43.7461 106.78 43.5075 106.78 42.8181V40.0343C106.78 39.504 106.754 39.345 106.674 39.2124C106.567 39.0798 106.434 39.0003 106.274 39.0003V38.8677H108.459V39.0003C108.3 39.0003 108.166 39.0533 108.06 39.1859Z" fill="#A5A5A5"/>
<path d="M112.698 44.0642C112.271 44.1703 111.818 44.2233 111.391 44.1968H109.339V44.0377C109.499 44.0377 109.632 43.9847 109.739 43.8786C109.899 43.7196 109.899 43.481 109.899 42.7916V40.0343C109.899 39.504 109.872 39.345 109.792 39.2124C109.686 39.0798 109.526 39.0268 109.366 39.0003V38.8677H111.605C112.351 38.8677 114.59 38.9473 114.59 41.3864C114.59 43.2689 113.471 43.8521 112.698 44.0642ZM111.605 39.2389H111.018V43.3749C111.018 43.6135 111.045 43.7461 111.205 43.7991H111.605C112.858 43.7991 113.391 43.1363 113.391 41.466C113.391 39.7957 112.298 39.1859 111.605 39.1859" fill="#A5A5A5"/>
<path d="M119.148 44.1703H118.055V44.0112C118.188 44.0378 118.322 43.9847 118.455 43.9317C118.508 43.8787 118.508 43.8257 118.508 43.7461C118.508 43.587 118.455 43.428 118.402 43.2689L118.002 42.1553H116.483L116.056 43.2954C116.003 43.428 115.949 43.587 115.949 43.7461C115.949 43.8257 115.949 43.8787 116.003 43.9317C116.109 44.0112 116.243 44.0378 116.376 44.0112V44.1703H114.857V44.0112C115.017 44.0112 115.176 43.9317 115.256 43.7726C115.416 43.481 115.55 43.1893 115.656 42.8977L117.336 38.8147L117.922 38.7087L119.415 42.8182C119.601 43.3749 119.761 43.7461 119.788 43.7991C119.814 43.8522 119.948 44.0378 120.161 44.0112V44.1703H119.148ZM117.522 40.7767C117.415 40.5381 117.336 40.2994 117.282 40.0343L116.616 41.8637H117.895L117.522 40.7767Z" fill="#A5A5A5"/>
<path d="M124.053 44.0642C123.626 44.1703 123.173 44.2233 122.72 44.1968H120.694V44.0377C120.854 44.0377 120.987 43.9847 121.094 43.8786C121.227 43.7196 121.254 43.481 121.254 42.7916V40.0343C121.254 39.504 121.227 39.345 121.147 39.2124C121.041 39.1063 120.881 39.0268 120.721 39.0003V38.8677H122.96C123.706 38.8677 125.945 38.9473 125.945 41.3864C125.918 43.2689 124.826 43.8521 124.053 44.0642ZM122.96 39.2389H122.373V43.3749C122.373 43.6135 122.4 43.7461 122.56 43.7991H122.96C124.186 43.7991 124.719 43.1363 124.719 41.466C124.719 39.7957 123.653 39.1859 122.96 39.1859" fill="#A5A5A5"/>
<path d="M76.9265 49.632C76.9265 49.3668 76.8199 49.1282 76.6333 48.9691C76.2601 48.651 75.6737 48.598 75.3005 48.598C74.2876 48.598 72.715 48.8101 72.715 51.9386C72.715 53.874 73.3814 55.1997 75.3538 55.1997C75.7537 55.1997 76.3134 55.1466 76.6333 54.7755C76.7932 54.5899 76.8732 54.3247 76.8732 54.0861H77.1131C77.0864 54.4043 77.0598 54.7755 77.0598 55.3057V55.5178C76.42 55.6769 75.7803 55.7564 75.1139 55.7564C73.6479 55.7564 72.4218 55.3587 71.7021 54.4573C71.1957 53.768 70.9558 52.9461 70.9824 52.0977C70.9824 50.1092 72.1286 48.8366 73.5946 48.3063C74.1544 48.1207 74.7674 48.0412 75.3538 48.0677C76.2601 48.0677 77.0864 48.1738 77.193 48.1738C77.1664 48.4124 77.1664 48.651 77.1664 48.8896C77.1664 49.1282 77.1664 49.3934 77.193 49.632H76.9265Z" fill="#A5A5A5"/>
<path d="M83.7502 55.6768L82.2308 55.7299V55.5178C82.4174 55.5443 82.604 55.4912 82.7639 55.3852C82.8439 55.3057 82.8706 55.2261 82.8706 55.1201C82.8439 54.8814 82.7906 54.6693 82.684 54.4572L82.1509 52.8665H79.9652L79.3788 54.4838C79.2988 54.6959 79.2188 54.908 79.1922 55.1201C79.1922 55.2261 79.2188 55.3057 79.2988 55.3852C79.4054 55.4912 79.672 55.4912 79.8319 55.5178V55.7299L78.7124 55.6768C78.3659 55.6768 77.9927 55.6768 77.6462 55.7299V55.5178C77.8861 55.5178 78.0993 55.3852 78.2059 55.1731C78.4192 54.7754 78.6324 54.3512 78.7924 53.927L81.1913 48.1207L82.0443 47.9616L84.1234 53.8209C84.4166 54.6163 84.6298 55.1201 84.6565 55.1996C84.7631 55.3852 84.9763 55.5178 85.2162 55.5178V55.7299L83.7502 55.6768ZM81.4312 50.825C81.1913 50.1091 81.1113 49.791 81.1113 49.791L80.1518 52.3627H81.9643L81.4312 50.825Z" fill="#A5A5A5"/>
<path d="M91.107 49.6319C91.1336 49.3138 90.9737 49.0221 90.7071 48.8631C90.4672 48.704 90.2274 48.6775 89.5077 48.6775H89.0812V54.0596C89.0812 54.7754 89.1078 55.0405 89.2411 55.1996C89.3744 55.3587 89.9341 55.4912 90.0408 55.4912V55.7299L88.2815 55.6768L86.469 55.7299V55.5178C86.7622 55.5178 87.0554 55.4117 87.2686 55.2261C87.4819 55.014 87.4819 54.7224 87.4819 53.7149V48.6775H87.0554C86.3357 48.6775 86.0958 48.704 85.8559 48.8631C85.5894 49.0221 85.4295 49.3138 85.4561 49.6319H85.2162C85.2695 49.1017 85.2429 48.1472 85.2429 48.1472H91.3202C91.3202 48.1472 91.2936 49.1017 91.3469 49.6319H91.107Z" fill="#A5A5A5"/>
<path d="M95.8516 55.8094C93.4526 55.8094 92.0399 54.3512 92.0399 52.0446C92.0399 49.738 93.5859 48.0677 95.9848 48.0677C98.3838 48.0677 99.7965 49.4994 99.7965 51.8325C99.7965 54.1656 98.2772 55.8094 95.8516 55.8094ZM95.9315 48.5714C94.3589 48.5714 93.7725 50.0562 93.7725 51.8855C93.7725 53.7149 94.4388 55.3057 95.9049 55.3057C97.3709 55.3057 98.0639 53.7945 98.0639 51.9651C98.0639 50.1357 97.3976 48.5714 95.9315 48.5714ZM97.5042 46.689L94.9986 47.564L94.8653 47.3519L96.4913 45.7876H96.5712L97.5575 46.53L97.5042 46.689Z" fill="#A5A5A5"/>
<path d="M106.167 55.7034H102.995C102.355 55.7034 101.716 55.6769 101.076 55.7299V55.5178C101.289 55.5178 101.502 55.4117 101.636 55.2527C101.822 55.0406 101.849 54.7224 101.849 53.7149V49.7645C101.849 49.0487 101.822 48.7835 101.689 48.598C101.556 48.4124 101.343 48.3328 101.103 48.3328V48.1207L102.809 48.1738L104.514 48.1207V48.3328C104.035 48.3593 103.768 48.4654 103.608 48.6775C103.448 48.8896 103.448 49.2608 103.448 50.1622V54.5898C103.448 55.0936 103.528 55.1731 104.168 55.1731H104.355C104.994 55.1731 105.394 55.1466 105.687 54.855C105.874 54.6429 105.954 54.3777 105.954 54.0861H106.194C106.167 54.6164 106.167 55.7034 106.167 55.7034Z" fill="#A5A5A5"/>
<path d="M109.952 48.5714C109.739 48.7835 109.739 49.1282 109.739 50.1092V54.0596C109.739 54.8019 109.766 55.0406 109.872 55.2261C110.032 55.4117 110.245 55.5178 110.485 55.5178V55.7299L108.913 55.6769L107.367 55.7299V55.5178C107.58 55.5178 107.793 55.4117 107.926 55.2527C108.113 55.0406 108.14 54.7224 108.14 53.7149V49.7645C108.14 49.0487 108.113 48.7835 107.98 48.598C107.846 48.4124 107.633 48.3328 107.393 48.3328V48.1207L108.966 48.1738L110.512 48.1207V48.3328C110.299 48.3328 110.085 48.4389 109.952 48.5714Z" fill="#A5A5A5"/>
<path d="M117.735 49.632C117.735 49.3668 117.629 49.1282 117.416 48.9691C117.069 48.651 116.456 48.598 116.109 48.598C115.097 48.598 113.524 48.8101 113.524 51.9386C113.524 53.874 114.19 55.1997 116.136 55.1997C116.563 55.1997 117.122 55.1466 117.416 54.7755C117.602 54.5899 117.682 54.3512 117.682 54.0861H117.922C117.895 54.4043 117.869 54.7755 117.869 55.3057V55.5178C117.229 55.6769 116.563 55.7564 115.896 55.7564C114.457 55.7564 113.231 55.3587 112.511 54.4573C112.005 53.768 111.765 52.9461 111.791 52.0977C111.791 50.1092 112.911 48.8366 114.404 48.3063C114.963 48.1207 115.576 48.0412 116.163 48.0677C117.042 48.0677 117.869 48.1738 117.975 48.1738C117.949 48.4124 117.949 48.651 117.949 48.8896C117.949 49.2078 117.975 49.4729 117.975 49.632H117.735Z" fill="#A5A5A5"/>
<path d="M124.559 55.6768L123.013 55.7299V55.5178C123.2 55.5443 123.413 55.4912 123.573 55.3852C123.626 55.3057 123.679 55.2261 123.679 55.1201C123.653 54.8814 123.573 54.6693 123.493 54.4572L122.933 52.8665H120.774L120.188 54.4838C120.081 54.6959 120.028 54.908 120.001 55.1201C120.001 55.2261 120.028 55.3057 120.081 55.3852C120.241 55.4647 120.427 55.5178 120.614 55.5178V55.7299L119.521 55.6768C119.175 55.6768 118.802 55.6768 118.455 55.7299V55.5178C118.695 55.4912 118.908 55.3852 119.015 55.1731C119.228 54.7754 119.415 54.3512 119.575 53.927L122 48.1207L122.826 47.9616L124.932 53.8209C125.065 54.2982 125.252 54.7489 125.465 55.1996C125.572 55.3852 125.785 55.5178 125.998 55.5178V55.7299L124.559 55.6768ZM122.24 50.825C122.107 50.4803 122 50.1357 121.92 49.791L120.961 52.3627H122.773L122.24 50.825Z" fill="#A5A5A5"/>
<path d="M132.049 55.5708C131.623 55.6768 131.17 55.7298 130.716 55.7033H128.691V55.5708C128.851 55.5708 128.984 55.4912 129.09 55.3852C129.224 55.2261 129.25 55.014 129.25 54.2982V51.5143C129.25 51.0106 129.224 50.825 129.144 50.7189C129.037 50.5864 128.877 50.5068 128.717 50.5068V50.3743H130.956C131.703 50.3743 133.942 50.4273 133.942 52.893C133.942 54.8019 132.822 55.3852 132.049 55.5708ZM130.93 50.7454H130.37V54.8814C130.37 55.12 130.397 55.2526 130.556 55.2791H130.956C132.182 55.2791 132.716 54.6428 132.716 52.946C132.716 51.2492 131.649 50.6924 130.93 50.6924" fill="#A5A5A5"/>
<path d="M138.473 55.7033H134.848V55.5708C135.008 55.5708 135.141 55.4912 135.248 55.3852C135.381 55.2261 135.381 55.014 135.381 54.2982V51.5143C135.381 51.0106 135.354 50.825 135.274 50.7189C135.194 50.5864 135.034 50.5068 134.875 50.5068V50.3743H138.446C138.446 50.3743 138.446 51.0636 138.473 51.4348H138.313C138.313 51.2227 138.206 51.0106 138.02 50.878C137.86 50.772 137.673 50.7454 137.167 50.7454H136.501V52.7339H137.194C137.433 52.7604 137.673 52.7339 137.86 52.6013C137.993 52.4688 138.073 52.3097 138.073 52.1241H138.233V53.7149H138.073C138.073 53.5558 137.993 53.3967 137.887 53.2907C137.673 53.1316 137.433 53.0786 137.167 53.1051H136.501V54.908C136.501 55.2791 136.58 55.3322 137.007 55.3322H137.167C137.593 55.3322 137.94 55.3056 138.127 55.0935C138.26 54.9345 138.34 54.7489 138.34 54.5633H138.5C138.473 54.9345 138.473 55.7033 138.473 55.7033Z" fill="#A5A5A5"/>
<path d="M77.3796 60.2371C77.1664 60.6348 76.9798 61.059 76.8199 61.4832L74.4209 67.2365L73.5679 67.3955L71.4889 61.5892C71.1956 60.7938 70.9824 60.2901 70.9558 60.2106C70.8491 60.025 70.6359 59.8924 70.396 59.8924V59.6803L71.8354 59.7333L73.3814 59.6803V59.8924C73.1948 59.8659 73.0082 59.9189 72.8483 60.025C72.7683 60.1045 72.7416 60.184 72.7416 60.2901C72.7683 60.5287 72.8216 60.7408 72.9016 60.9529L74.181 64.5321C74.4209 65.2215 74.5009 65.5661 74.5009 65.5661C74.5009 65.5661 74.6075 65.195 74.874 64.5056L76.2068 60.9264C76.2868 60.7143 76.3667 60.5022 76.3934 60.2636C76.3934 60.184 76.3667 60.078 76.2868 60.025C76.1801 59.9189 75.9402 59.9189 75.7537 59.8924V59.6803L76.8732 59.7333C77.2197 59.7333 77.5928 59.7333 77.9394 59.6803V59.8924C77.6995 59.8924 77.4862 60.025 77.3796 60.2371Z" fill="#A5A5A5"/>
<path d="M83.2704 67.1834L81.7244 67.2364V67.0243C81.911 67.0508 82.1242 66.9978 82.2842 66.8918C82.3375 66.8387 82.3908 66.7327 82.3908 66.6531C82.3641 66.4145 82.2842 66.2024 82.2042 65.9903L81.6444 64.4261H79.512L78.9256 66.0168C78.819 66.2289 78.7657 66.441 78.739 66.6531C78.739 66.7327 78.7657 66.8387 78.819 66.8918C78.9789 66.9978 79.1655 67.0508 79.3521 67.0243V67.2364L78.2593 67.1834L77.1931 67.2364V67.0243C77.4329 67.0508 77.6462 66.9183 77.7528 66.7062C77.9661 66.3085 78.1526 65.8843 78.3126 65.4601L80.7115 59.6803L81.5378 59.5477L83.6169 65.354C83.9101 66.1494 84.1234 66.6266 84.15 66.7062C84.2566 66.9183 84.4699 67.0243 84.7098 67.0243V67.2364L83.2704 67.1834ZM80.9514 62.3846C80.7115 61.6687 80.6316 61.3506 80.6316 61.3506L79.6986 63.9223H81.4845L80.9514 62.3846Z" fill="#A5A5A5"/>
<path d="M90.4939 67.2099H85.4561V66.9978C85.6694 66.9978 85.8559 66.9183 86.0159 66.7592C86.2025 66.5471 86.2291 66.229 86.2291 65.248V61.3241C86.2291 60.6082 86.1758 60.3696 86.0692 60.184C85.9359 59.9984 85.7227 59.8924 85.4828 59.8924V59.6803L87.162 59.7333L88.868 59.6803V59.9189C88.3882 59.9454 88.1216 60.025 87.9617 60.2636C87.8018 60.5022 87.8018 60.8469 87.8018 61.7218V66.0964C87.8018 66.6266 87.9084 66.6797 88.5215 66.6797H88.708C89.3478 66.6797 89.7476 66.6797 90.0141 66.388C90.2007 66.1759 90.3073 65.9108 90.3073 65.6192H90.5472C90.4939 66.1494 90.4939 67.2099 90.4939 67.2099Z" fill="#A5A5A5"/>
<path d="M95.1852 63.9223C94.9453 63.9223 94.6787 63.8958 94.4388 63.8163V63.6042H94.6787C94.9719 63.6307 95.2651 63.5247 95.505 63.3656C95.8782 63.1004 96.0648 62.5702 96.0648 61.8543C96.0648 60.184 95.1052 60.1575 94.5188 60.1575H94.0124V65.195C94.0124 66.0699 94.0124 66.4411 94.1989 66.6532C94.3855 66.8653 94.5988 66.9978 95.0786 66.9978V67.2099L93.2394 67.1569C92.8395 67.1569 92.1732 67.1569 91.6934 67.2099V66.9978C91.9066 66.9978 92.1198 66.9183 92.2531 66.7592C92.4397 66.5471 92.4664 66.229 92.4664 65.248V61.3241C92.4664 60.6082 92.4397 60.3696 92.3064 60.184C92.1731 59.9984 91.9599 59.8924 91.72 59.8924V59.6803L93.1061 59.7333H94.8387C95.2651 59.7333 95.7183 59.7598 96.1448 59.8394C96.9711 60.0515 97.7441 60.5552 97.7441 61.7483C97.7441 62.9414 96.5713 63.9489 95.1852 63.9223Z" fill="#A5A5A5"/>
<path d="M103.528 67.1834L102.009 67.2364V67.0243C102.195 67.0508 102.382 66.9978 102.542 66.8918C102.622 66.8387 102.649 66.7327 102.649 66.6531C102.622 66.4145 102.569 66.2024 102.489 65.9903L101.929 64.4261H99.7699L99.1835 66.0168C99.1035 66.2289 99.0235 66.441 98.9969 66.6531C98.9969 66.7327 99.0235 66.8387 99.1035 66.8918C99.2101 67.0243 99.4767 67.0243 99.6366 67.0243V67.2364L98.5438 67.1834L97.4509 67.2364V67.0243C97.6908 67.0243 97.904 66.9183 98.0373 66.7062C98.2505 66.3085 98.4371 65.8843 98.5971 65.4601L100.969 59.6803L101.822 59.5477L103.901 65.354C104.035 65.8047 104.221 66.282 104.435 66.7062C104.514 66.9183 104.728 67.0508 104.968 67.0243V67.2364L103.528 67.1834ZM101.236 62.3846C101.103 62.0399 100.996 61.6953 100.916 61.3506L99.9565 63.9223H101.742L101.236 62.3846Z" fill="#A5A5A5"/>
<path d="M112.058 67.263C110.858 67.263 110.592 66.7857 110.192 66.3085C109.792 65.8313 109.072 64.8768 108.513 64.0549H108.006V65.6192C108.006 66.335 108.06 66.5736 108.166 66.7592C108.326 66.9183 108.539 67.0243 108.753 67.0243V67.2364L107.26 67.1834L105.714 67.2364V67.0243C105.927 67.0243 106.14 66.9448 106.274 66.7857C106.487 66.5736 106.487 66.2555 106.487 65.2745V61.3241C106.487 60.6082 106.46 60.3696 106.327 60.184C106.194 59.9984 105.981 59.8924 105.767 59.8924V59.6803L106.993 59.7333L108.753 59.6803C109.179 59.6803 109.632 59.7068 110.059 59.8129C111.445 60.1575 111.605 61.165 111.605 61.6157C111.605 62.0664 111.391 63.286 109.925 63.7102L111.871 65.9373C112.431 66.5736 112.831 67.0243 113.311 67.0243V67.2364L112.058 67.263ZM108.513 60.1045L108.006 60.1575V63.5247H108.566C108.726 63.5247 108.859 63.5247 109.019 63.4716C109.179 63.4451 109.925 63.3125 109.925 61.7483C109.925 60.184 108.966 60.078 108.513 60.1045Z" fill="#A5A5A5"/>
<path d="M119.681 67.1834L118.162 67.2364V67.0243C118.348 67.0508 118.535 66.9978 118.695 66.8918C118.775 66.8387 118.802 66.7327 118.802 66.6531C118.775 66.4145 118.722 66.2024 118.642 65.9903L118.082 64.4261H115.923L115.336 66.0168C115.256 66.2289 115.176 66.441 115.15 66.6531C115.15 66.7327 115.176 66.8387 115.256 66.8918C115.416 66.9978 115.603 67.0508 115.79 67.0243V67.2364L114.697 67.1834L113.63 67.2364V67.0243C113.87 67.0243 114.084 66.9183 114.19 66.7062C114.403 66.3085 114.59 65.8843 114.75 65.4601L117.149 59.6803L117.975 59.5477L120.054 65.354C120.188 65.8047 120.374 66.282 120.587 66.7062C120.694 66.8918 120.907 67.0243 121.121 67.0243V67.2364L119.681 67.1834ZM117.389 62.3846C117.256 62.0399 117.149 61.6953 117.069 61.3506L116.109 63.9223H117.895L117.389 62.3846Z" fill="#A5A5A5"/>
<path d="M124.426 60.1575C124.239 60.3696 124.239 60.6878 124.239 61.6687V65.6191C124.239 66.335 124.266 66.5736 124.372 66.7592C124.532 66.9183 124.746 67.0243 124.959 67.0243V67.2364L123.413 67.1834L121.867 67.2364V67.0243C122.08 67.0243 122.293 66.9448 122.427 66.7857C122.64 66.5736 122.64 66.2554 122.64 65.2745V61.3241C122.64 60.6082 122.613 60.3696 122.507 60.184C122.347 59.9984 122.16 59.8924 121.92 59.8924V59.6803L123.466 59.7333L125.012 59.6803V59.8924C124.772 59.8924 124.559 59.9984 124.426 60.1575ZM124.986 58.2751L122.507 59.15L122.347 58.9379L123.973 57.3737H124.053L125.039 58.1425L124.986 58.2751Z" fill="#A5A5A5"/>
<path d="M128.104 67.2895C127.491 67.2895 126.878 67.2099 126.292 67.0508V66.8653C126.292 66.335 126.265 65.9373 126.238 65.6192H126.478C126.505 65.9373 126.638 66.229 126.878 66.4411C127.225 66.6532 127.624 66.7857 128.051 66.7592C129.517 66.7592 129.544 65.7782 129.544 65.5396C129.544 64.7973 129.064 64.5321 128.424 64.1344L127.784 63.7367C126.958 63.233 126.425 62.7293 126.425 61.6422C126.425 61.059 126.691 59.6273 129.09 59.6273C129.677 59.6273 130.263 59.6803 130.85 59.7598C130.85 59.7598 130.823 60.025 130.823 60.3696C130.823 60.6347 130.823 60.9264 130.85 61.1915H130.61C130.583 60.9264 130.476 60.6878 130.29 60.5287C129.97 60.2636 129.544 60.131 129.117 60.1575C127.944 60.1575 127.811 60.8468 127.811 61.218C127.811 61.5892 128.158 62.1195 128.771 62.4641L129.517 62.9148C130.45 63.4451 131.01 63.9488 131.01 65.1154C131.01 66.282 129.783 67.2895 128.104 67.2895Z" fill="#A5A5A5"/>
<path d="M136.154 67.3425C133.782 67.3425 132.369 65.8843 132.369 63.6042C132.369 61.3241 133.888 59.6273 136.287 59.6273C138.686 59.6273 140.072 61.0855 140.072 63.3656C140.072 65.6457 138.553 67.3425 136.154 67.3425ZM136.234 60.131C134.661 60.131 134.102 61.6157 134.102 63.4451C134.102 65.2745 134.768 66.8387 136.234 66.8387C137.7 66.8387 138.34 65.354 138.34 63.5246C138.34 61.6953 137.7 60.131 136.234 60.131Z" fill="#A5A5A5"/>
<path d="M41.6885 20.8126L41.5552 21.3428C54.9094 23.1192 65.2249 34.6257 65.2249 48.2268C65.2249 63.127 53.0169 75.3229 38.0368 75.3229C23.0566 75.3229 10.8486 63.127 10.8486 48.2268C10.8753 34.6522 20.9509 23.1722 34.4916 21.3428L34.3584 20.8126C20.7909 22.5094 10.2355 34.2811 10.2355 48.2268C10.2355 63.5512 22.7101 76.0122 38.0368 76.0122C53.3634 76.0122 65.838 63.5247 65.838 48.2003C65.838 34.2811 55.2559 22.5094 41.6885 20.8126Z" fill="#A5A5A5"/>
<path d="M37.7169 16.9152V17.9492H36.5441V18.5855H37.7169V20.627H38.3566V18.5855H39.5028V17.9492H38.3566V16.9152H37.7169Z" fill="#A5A5A5"/>
<path d="M47.2061 20.5474L41.9817 19.9641L41.9018 20.3883L46.673 21.1042L47.2061 20.5474ZM41.9817 19.4869L47.5526 19.9111C47.6859 19.699 47.8725 19.5134 48.0324 19.3278L47.5526 18.9832L41.9817 19.0627V19.4869ZM41.9018 18.3468L41.9817 18.6915L46.9929 18.1878C46.9929 18.1878 46.593 17.631 46.4598 17.4984L41.9018 18.3468ZM41.7152 17.5515L41.8484 17.9757L45.98 16.7826L45.6335 16.0668L41.7152 17.5515ZM41.2887 16.8621L41.5019 17.2068L45.2869 15.1388C45.207 14.8737 45.1803 14.582 45.1537 14.2904L41.2887 16.8621ZM40.7822 16.1993L41.1021 16.5705L44.9671 13.3624V12.514H44.2207L40.7822 16.1993ZM40.0892 15.7221L40.4357 15.9342L43.0479 12.3815L42.0883 12.3019L40.0892 15.7221ZM39.4761 15.2979L39.796 15.51L41.262 12.1694L40.489 11.8777L39.4761 15.2979ZM38.6498 15.1388L39.0497 15.2183L39.876 11.5331L39.3962 11.1619L38.6498 15.1388ZM28.9474 20.5474L29.4805 21.1042L34.2251 20.3883L34.1718 19.9641L28.9474 20.5474ZM34.1718 19.4869V19.0627L28.6009 18.9832L28.1211 19.3278C28.281 19.5134 28.441 19.699 28.6009 19.9111L34.1718 19.4869ZM34.2251 18.3468L29.6937 17.4984C29.5605 17.631 29.134 18.1878 29.134 18.1878L34.1718 18.6915L34.2251 18.3468ZM34.4383 17.5515L30.52 16.0668L30.1735 16.7826L34.3051 17.9757L34.4383 17.5515ZM34.8648 16.8621L30.9998 14.2904C30.9732 14.582 30.9465 14.8737 30.8666 15.1388L34.6516 17.2068L34.8648 16.8621ZM35.3979 16.1993L31.9594 12.514H31.2131V13.3624L35.0514 16.5705L35.3979 16.1993ZM36.091 15.7221L34.0918 12.3019L33.1322 12.3815L35.7444 15.9342L36.091 15.7221ZM36.704 15.2979L35.6911 11.8777L34.9181 12.1694L36.3575 15.51L36.704 15.2979ZM37.5303 15.1388L36.784 11.1619C36.6241 11.2679 36.4641 11.4005 36.3042 11.5331L37.1305 15.2183L37.5303 15.1388ZM38.3033 15.0858L38.6498 10.6847C38.4366 10.6051 38.25 10.4726 38.0901 10.3135C37.9302 10.4726 37.7436 10.6051 37.5303 10.6847L37.8768 15.0858H38.3033Z" fill="#A5A5A5"/>
<path d="M20.5777 66.4941C20.3378 66.335 20.1246 66.1759 19.938 65.9903L19.4848 65.5131L19.0583 65.1154L19.1117 65.0359C19.1916 65.1154 19.2716 65.1419 19.3782 65.1419C19.5115 65.1419 19.5914 65.0359 19.9113 64.7442L21.1108 63.5246C21.3507 63.286 21.404 63.2065 21.4306 63.1004C21.4306 62.9944 21.404 62.9149 21.324 62.8353L21.404 62.7823L21.7772 63.18L22.3902 63.7633C22.7101 64.0549 23.643 65.0624 22.5768 66.1494C21.5106 67.2364 21.0042 66.7327 20.5777 66.4941ZM22.2036 63.8958L21.9371 63.6572L20.1512 65.4866C20.0446 65.5926 19.9913 65.6457 20.0446 65.7517L20.2045 65.9108C20.7376 66.4676 21.2707 66.388 21.9904 65.6722C22.7101 64.9563 22.5235 64.214 22.2036 63.8958Z" fill="#A5A5A5"/>
<path d="M23.9629 69.3044L22.8167 68.4825L22.1504 68.0053L22.2037 67.9257C22.2836 67.9788 22.3903 68.0053 22.4702 67.9788C22.6035 67.9523 22.6835 67.8462 22.9234 67.5015L23.9629 66.1229C24.1495 65.8577 24.2028 65.7782 24.2028 65.6722C24.2028 65.5661 24.1495 65.4866 24.0695 65.4335L24.1228 65.354L24.7359 65.8312L25.8821 66.6796C25.8821 66.6796 25.6422 66.9978 25.5356 67.1834L25.4289 67.1304C25.5089 67.0243 25.5356 66.8917 25.5089 66.7592C25.4556 66.6531 25.3756 66.5736 25.1357 66.388L24.7892 66.1494L24.0695 67.1304L24.416 67.3955C24.5227 67.5015 24.6559 67.5546 24.7892 67.5546C24.8958 67.5546 25.0025 67.475 25.0558 67.3955L25.1624 67.4485L24.8425 67.8462L24.576 68.2439L24.496 68.1909C24.5493 68.1113 24.576 68.0053 24.5493 67.8992C24.496 67.7402 24.3894 67.6341 24.2561 67.5546L23.9363 67.3159L23.2699 68.2174C23.1366 68.403 23.1633 68.4295 23.3765 68.5886L23.4565 68.6416C23.6697 68.8272 23.8296 68.9332 24.0162 68.9067C24.1228 68.8802 24.2295 68.8007 24.3094 68.6946L24.3894 68.7476L23.9629 69.3044Z" fill="#A5A5A5"/>
<path d="M29.987 69.0393L29.5338 69.437L27.508 71.2663L27.1349 71.1868L27.4014 68.509C27.4281 68.2969 27.4547 68.0848 27.4281 67.8727C27.4281 67.7667 27.3748 67.6871 27.2948 67.6341V67.5546L27.8545 67.8462L28.4676 68.1113V68.1909C28.361 68.1378 28.281 68.1113 28.2277 68.1378C28.1744 68.1378 28.1477 68.1644 28.1477 68.2174C28.0944 68.2969 28.0944 68.403 28.0944 68.509L27.9079 70.1528C27.8812 70.471 27.8545 70.63 27.8545 70.63C27.9612 70.4975 28.0678 70.3914 28.2011 70.2854L29.3739 69.1188L29.5871 68.8802C29.5871 68.8537 29.6138 68.8007 29.5871 68.7742C29.5605 68.7476 29.4538 68.6681 29.4005 68.6151L29.4538 68.5355L29.8803 68.7476L30.3068 68.9332L30.2535 69.0128C30.1469 68.9863 30.0669 68.9863 29.987 69.0393Z" fill="#A5A5A5"/>
<path d="M31.5596 72.7245L30.9199 72.539V72.4594C30.9998 72.4859 31.0798 72.4859 31.1598 72.4594L31.2397 72.3799V71.3459L30.3335 71.0808L29.907 71.664C29.827 71.7436 29.7737 71.8231 29.7204 71.9292C29.7204 71.9557 29.7204 72.0087 29.747 72.0352C29.8004 72.0882 29.8537 72.1413 29.9336 72.1678V72.2473L29.5072 72.0882L29.054 71.9557V71.8761C29.134 71.9027 29.2406 71.8761 29.3206 71.8231L29.7204 71.3724L31.453 69.2779H31.8261L31.9328 71.9822C31.9594 72.3269 31.9861 72.5655 31.9861 72.6185C31.9861 72.6715 32.0394 72.7776 32.1727 72.8041V72.9101L31.5596 72.7245ZM31.2397 70.3914C31.2131 70.2324 31.2131 70.0733 31.2397 69.9142L30.52 70.8687L31.2664 71.1073L31.2397 70.3914Z" fill="#A5A5A5"/>
<path d="M35.078 73.4139L33.7186 73.2018L32.8923 73.0692V72.9897C32.999 72.9897 33.0789 72.9632 33.1589 72.9102C33.2388 72.8306 33.2655 72.6981 33.3455 72.2739L33.6387 70.577C33.6653 70.2589 33.692 70.1528 33.6387 70.0733C33.5854 69.9938 33.5054 69.9407 33.3988 69.9142V69.8082L34.1185 69.9407C34.3584 69.9938 34.6249 70.0203 34.8648 70.0468V70.1528C34.6516 70.1263 34.5449 70.1528 34.465 70.2324C34.385 70.3119 34.3317 70.471 34.2784 70.8687L33.9585 72.7511C33.9319 72.9632 33.9585 72.9897 34.2251 73.0427H34.3317C34.5983 73.0692 34.7582 73.0958 34.9181 72.9897C34.9981 72.9102 35.0514 72.8041 35.078 72.6716H35.1847C35.1314 72.8837 35.0514 73.3609 35.0514 73.3609" fill="#A5A5A5"/>
<path d="M37.5836 72.1148C37.477 72.1148 37.3704 72.1148 37.2638 72.0617V71.9557H37.3704C37.5037 71.9557 37.6369 71.9292 37.7436 71.8496C37.9302 71.6906 38.0368 71.4254 38.0101 71.1868C38.0101 70.471 37.6103 70.4445 37.3437 70.4445H37.1305L37.0772 72.645C37.0505 73.0427 37.0505 73.1753 37.1305 73.2813C37.2105 73.3874 37.2904 73.4404 37.5037 73.4404V73.5465L36.704 73.4934H36.011V73.4139C36.1176 73.4139 36.1976 73.3874 36.2775 73.3078C36.3575 73.2018 36.3575 73.0692 36.3842 72.645L36.4375 70.9217C36.4375 70.6035 36.4375 70.4975 36.3842 70.418C36.3308 70.3384 36.2509 70.2854 36.1443 70.2854V70.2324H37.5037C37.6903 70.2324 37.8768 70.2324 38.0634 70.2854C38.4366 70.3914 38.7565 70.6035 38.7298 71.1338C38.7032 71.6641 38.1967 72.0883 37.5836 72.0617" fill="#A5A5A5"/>
<path d="M41.5552 73.3344L40.9155 73.4139V73.3344C41.0488 73.3079 41.1287 73.2814 41.1554 73.2283C41.182 73.1753 41.182 73.1753 41.182 73.1223C41.182 73.0162 41.1287 72.9367 41.0754 72.8572L40.7822 72.1943L39.8493 72.2739L39.6627 72.9897C39.6361 73.0958 39.6094 73.1753 39.6094 73.2814C39.6094 73.3344 39.6094 73.3609 39.6627 73.3874C39.716 73.4404 39.796 73.4404 39.876 73.4139V73.52H39.3962L38.943 73.573V73.4935C39.0496 73.4935 39.1296 73.4139 39.1829 73.3344L39.3695 72.7511L40.1692 70.1529L40.5157 70.0468L41.6618 72.486L41.955 73.0428C42.0084 73.1223 42.115 73.1753 42.2216 73.1753V73.2548L41.5552 73.3344ZM40.4091 71.3194L40.2225 70.8687L39.9293 72.0353L40.7023 71.9557L40.4091 71.3194Z" fill="#A5A5A5"/>
<path d="M45.6601 72.4595C45.3402 72.592 44.9937 72.486 44.7538 72.2474C44.6206 72.1413 44.1408 71.7701 43.8209 71.4785L43.6077 71.5315L43.7676 72.1943C43.7942 72.3534 43.8476 72.539 43.9542 72.6716C44.0341 72.7246 44.1408 72.7511 44.2474 72.7246V72.8041L43.6077 72.9632C43.3944 72.9897 43.1812 73.0692 42.9679 73.1488V73.0427C43.0479 73.0162 43.1279 72.9632 43.1812 72.8837C43.2345 72.7776 43.2078 72.645 43.1012 72.2208L42.6481 70.5505C42.5681 70.2589 42.5415 70.1528 42.4615 70.0998C42.3815 70.0468 42.3016 70.0203 42.1949 70.0203V69.9407L42.728 69.8347L43.4744 69.6226C43.661 69.5696 43.8476 69.5165 44.0341 69.5165C44.434 69.49 44.7805 69.7551 44.8871 70.1263C44.9937 70.5505 44.8071 71.0013 44.4073 71.1868L45.4735 71.9292C45.7667 72.1413 45.98 72.2739 46.1932 72.2208V72.3004L45.6601 72.4595ZM43.3944 69.8347L43.1812 69.9142L43.5544 71.3459L43.7943 71.2929L43.9542 71.2134C44.0341 71.1868 44.3274 71.0278 44.1674 70.3915C44.0075 69.7551 43.581 69.7817 43.3944 69.8347Z" fill="#A5A5A5"/>
<path d="M49.2052 71.0278L48.5922 71.2929V71.2134L48.7787 71.0808C48.8054 71.0278 48.8054 71.0013 48.7787 70.9482L48.5922 70.7096L48.0857 70.1794L47.2328 70.5771L47.2861 71.2929C47.2861 71.399 47.2861 71.505 47.3394 71.5845C47.3394 71.6376 47.366 71.6641 47.4193 71.6906C47.4726 71.7171 47.5793 71.6641 47.6326 71.6376L47.6859 71.7171L47.2328 71.9027L46.8063 72.0883V72.0088C46.8862 71.9822 46.9662 71.9027 46.9662 71.7966C46.9929 71.5845 46.9929 71.399 46.9662 71.1869L46.9129 68.456L47.2061 68.2704L49.072 70.2059L49.5251 70.6566C49.5784 70.6831 49.685 70.7627 49.7916 70.7096L49.845 70.7892L49.2585 71.0278H49.2052ZM47.4727 69.49L47.1794 69.1454L47.2594 70.3384L47.9524 70.0203L47.4727 69.49Z" fill="#A5A5A5"/>
<path d="M49.5784 66.3615L48.8321 67.2364L48.7255 67.1834L48.992 66.2289H49.0187L49.5518 66.3085L49.5784 66.3615ZM49.7917 67.1834C49.765 67.2895 49.8183 67.422 50.0582 67.7932L50.9378 69.2779C51.0978 69.543 51.1511 69.6226 51.231 69.6756C51.3377 69.7021 51.4443 69.7021 51.5242 69.6491L51.5775 69.7286L50.9645 70.0468C50.7779 70.1528 50.5913 70.2854 50.4047 70.418L50.3514 70.3384C50.4314 70.2854 50.4847 70.2059 50.5113 70.0998C50.538 69.9938 50.4847 69.8612 50.2448 69.49L49.3652 68.0053C49.2053 67.7402 49.1519 67.6606 49.072 67.6076C48.9654 67.5811 48.8587 67.5811 48.7788 67.6341L48.7255 67.5546L49.3385 67.2364L49.8983 66.8918L49.9516 66.9448C49.8716 66.9978 49.8183 67.1039 49.7917 67.1834Z" fill="#A5A5A5"/>
<path d="M53.0169 68.7477C52.8036 68.9067 52.5638 69.0393 52.3239 69.1454L52.2705 69.0658C52.1373 68.8802 52.0307 68.7742 51.9507 68.6416L52.0307 68.5886C52.1106 68.6947 52.2439 68.7742 52.3772 68.7742C52.5638 68.7742 52.7237 68.6947 52.857 68.5886C53.3901 68.1909 53.1502 67.8462 53.0702 67.7667C52.9902 67.6872 52.6437 67.5281 52.3239 67.5546H51.9773C51.6042 67.6607 51.2043 67.5016 50.9644 67.1834C50.8045 66.9713 50.538 66.4145 51.3643 65.8048C51.5775 65.6457 51.7908 65.4866 52.0307 65.3806L52.1639 65.5927L52.4038 65.8843L52.3239 65.9373C52.2439 65.8578 52.1373 65.8048 52.0307 65.7782C51.8441 65.7782 51.6575 65.8578 51.5242 65.9638C51.0977 66.282 51.231 66.5471 51.3376 66.6797C51.4442 66.8122 51.6841 66.8918 52.004 66.8653H52.3772C52.8303 66.8122 53.1768 66.8388 53.47 67.2364C53.7632 67.6341 53.6033 68.3235 53.0169 68.7477Z" fill="#A5A5A5"/>
<path d="M56.0556 66.2024C55.3359 66.9183 54.4563 66.9183 53.7366 66.2024C53.0169 65.4866 52.9636 64.5056 53.7099 63.7898C54.4563 63.0739 55.3359 63.0739 56.0289 63.7632C56.7219 64.4526 56.8019 65.4601 56.0556 66.2024ZM53.8432 63.9488C53.3634 64.4261 53.6566 65.0624 54.2164 65.6191C54.7761 66.1759 55.4692 66.4676 55.9223 66.0168C56.3754 65.5661 56.1089 64.9033 55.5491 64.3465C54.9894 63.7898 54.2963 63.4981 53.8432 63.9488Z" fill="#A5A5A5"/>
<path d="M16.0463 56.7639C16.0996 56.8699 16.153 56.976 16.153 57.082H16.0463C16.0463 57.0555 16.0463 57.0025 16.0197 56.976C15.9664 56.8699 15.8864 56.7639 15.7798 56.6843C15.5665 56.6048 15.3 56.6048 15.0867 56.7108C14.3937 56.976 14.5536 57.3737 14.6336 57.6123C14.6603 57.6653 14.6869 57.7448 14.7402 57.7979L16.7927 56.976C17.1392 56.8434 17.2991 56.7904 17.3524 56.6843C17.4057 56.5518 17.4057 56.3927 17.3524 56.2601H17.4324C17.5124 56.5253 17.619 56.7639 17.7256 57.0025C17.8056 57.2146 17.8855 57.4267 17.9921 57.6123H17.9122C17.8589 57.5327 17.7789 57.4797 17.6989 57.4267C17.5923 57.4002 17.459 57.4532 17.0592 57.6123L15.4599 58.2486L15.0068 58.4872C14.9535 58.5933 14.9535 58.6728 15.0068 58.7788H14.9002C14.8469 58.5933 14.7669 58.4077 14.6869 58.2221L14.3937 57.5327C14.3138 57.3737 14.2604 57.1881 14.2338 57.0025C14.1272 56.6048 14.3404 56.1806 14.7402 56.0215C15.3533 55.7829 15.8331 56.1541 16.0463 56.7108" fill="#A5A5A5"/>
<path d="M16.4995 53.1582C16.7394 54.1656 16.2596 54.8815 15.2733 55.1201C14.4204 55.3852 13.5141 54.908 13.2475 54.0596C13.2209 54.0066 13.2209 53.927 13.1942 53.8475C12.9543 52.84 13.4341 52.1242 14.4204 51.8855C15.4066 51.6469 16.2596 52.1242 16.4995 53.1582ZM13.4075 53.821C13.5674 54.4838 14.2604 54.5898 15.0334 54.4043C15.8064 54.2187 16.4195 53.7945 16.2862 53.1847C16.153 52.5749 15.4333 52.4158 14.6603 52.6014C13.8873 52.787 13.2742 53.2112 13.4075 53.821Z" fill="#A5A5A5"/>
<path d="M12.7145 48.0677C12.8211 48.1472 12.9544 48.1472 13.3808 48.1472L15.8598 47.9882V48.2798L13.4341 50.3213L13.2476 50.4539L15.2467 50.3478C15.4333 50.3478 15.5932 50.3213 15.7531 50.2418C15.8331 50.1622 15.8598 50.0827 15.8598 49.9766H15.9397V50.4539C15.9664 50.6129 15.9664 50.7455 15.993 50.9576H15.9131C15.9131 50.8515 15.8598 50.772 15.7798 50.719C15.6732 50.6394 15.5399 50.6394 15.1134 50.666L13.3808 50.7455C13.061 50.772 12.9544 50.7985 12.901 50.8516C12.8211 50.9046 12.7678 51.0106 12.7678 51.1167H12.6878V50.5334C12.6612 50.4539 12.6612 50.2418 12.6345 50.1092L14.5003 48.5449L14.7136 48.3858L13.2476 48.4654C13.0876 48.4389 12.9277 48.4654 12.7678 48.5449C12.6878 48.6245 12.6612 48.704 12.6612 48.8101H12.5545V48.3328C12.5545 48.1737 12.5279 48.0147 12.5012 47.8556H12.6078C12.6078 47.9616 12.6345 48.0412 12.7145 48.0677Z" fill="#A5A5A5"/>
<path d="M13.4608 44.5945C13.3275 44.5945 13.1676 44.6475 13.0876 44.7536C13.0077 44.9126 12.981 45.0717 12.981 45.2573V45.4429L15.3266 45.655C15.6199 45.6815 15.7531 45.6815 15.8064 45.6285C15.8598 45.5755 15.9664 45.3368 15.9664 45.3103H16.073C16.0463 45.5755 16.0197 45.8141 15.993 46.0792C15.9664 46.3443 15.9397 46.5829 15.9397 46.8481H15.8331C15.8331 46.795 15.8597 46.5829 15.7531 46.4769C15.6465 46.3708 15.5399 46.3708 15.1134 46.3178L12.9277 46.1322V46.3178C12.901 46.4769 12.901 46.6625 12.9544 46.8216C13.0077 46.9541 13.1409 47.0337 13.2742 47.0337V47.1397L12.6345 47.0602L12.8744 44.4619L13.5141 44.5149L13.4608 44.5945Z" fill="#A5A5A5"/>
<path d="M13.3808 42.6856C13.4341 42.7917 13.5941 42.8182 13.9939 42.8977L15.6998 43.2424C15.8597 43.2954 16.0463 43.3219 16.2063 43.2954C16.2862 43.2424 16.3395 43.1628 16.3662 43.0568H16.4728C16.4195 43.2689 16.3662 43.5075 16.3129 43.7196C16.2596 43.8787 16.2329 44.1703 16.1796 44.3824H16.0996C16.1263 44.3029 16.0996 44.1968 16.0463 44.1173C15.9664 44.0112 15.8331 43.9847 15.4066 43.9052L13.7273 43.5605C13.4075 43.481 13.3009 43.481 13.2209 43.5075C13.1409 43.534 13.0876 43.6135 13.0343 43.7461H12.9543C13.0077 43.5605 13.061 43.2689 13.1143 43.0833C13.1676 42.8977 13.1942 42.6326 13.2209 42.4205H13.3009C13.3009 42.5265 13.3275 42.6326 13.3808 42.6856Z" fill="#A5A5A5"/>
<path d="M14.7136 39.6631C14.5803 39.6366 14.447 39.6631 14.3404 39.7427C14.2338 39.8752 14.1538 40.0343 14.1272 40.1934L13.9939 40.5911L15.1667 40.9623L15.3 40.5646C15.3533 40.432 15.38 40.2994 15.3267 40.1669C15.3 40.0608 15.22 40.0078 15.0868 39.9283V39.8487L15.5665 40.0078L16.0463 40.1404L15.993 40.2464C15.8864 40.2199 15.7798 40.2199 15.6998 40.2729C15.5932 40.326 15.5399 40.485 15.4866 40.6441L15.3533 41.0418L16.2063 41.3069C16.4995 41.413 16.6061 41.413 16.6861 41.3865C16.766 41.36 16.8993 41.1479 16.926 41.0948H17.0059C16.9526 41.2804 16.8193 41.6516 16.766 41.8107L16.5794 42.4735H16.4995C16.4995 42.4205 16.5261 42.2879 16.4462 42.2084C16.3662 42.1288 16.2596 42.0493 15.8598 41.9167L14.2071 41.3865C14.0472 41.3069 13.8606 41.2804 13.7007 41.3069C13.6207 41.36 13.5408 41.4395 13.5141 41.519L13.4341 41.466L13.674 40.7502L14.1005 39.398L14.7402 39.5836L14.7136 39.6631Z" fill="#A5A5A5"/>
<path d="M15.0868 37.6481C15.1401 37.7542 15.2733 37.8072 15.6732 37.9928L17.2458 38.6821C17.539 38.8147 17.6456 38.8412 17.7256 38.8147C17.8056 38.7882 17.8855 38.7617 17.9655 38.6291L18.0455 38.6821C17.9388 38.8677 17.8322 39.0798 17.7523 39.2919L17.4857 39.9017H17.4057C17.4591 39.8222 17.4591 39.7161 17.4057 39.6366C17.3524 39.504 17.2192 39.451 16.8193 39.2654L15.2467 38.5761C14.9535 38.47 14.8469 38.417 14.7669 38.4435C14.6869 38.47 14.607 38.4966 14.5537 38.6291L14.4737 38.5761L14.7669 37.9663C14.8202 37.8072 14.9535 37.5421 15.0068 37.3565H15.0868C15.0601 37.436 15.0601 37.5421 15.0868 37.6481Z" fill="#A5A5A5"/>
<path d="M17.3258 34.5727C17.2458 34.5197 17.1125 34.4932 17.0059 34.5197C16.8193 34.5992 16.6594 34.7583 16.5794 34.9439C16.3395 35.3151 16.073 35.9514 17.2458 36.6407C17.9655 37.0649 18.6319 37.1179 19.0584 36.3756C19.165 36.2165 19.2183 36.0044 19.165 35.8188C19.1383 35.7128 19.085 35.6332 18.9784 35.5802L19.0317 35.4741C19.165 35.5802 19.3249 35.6862 19.4848 35.7658L19.5382 35.8188C19.4582 36.0839 19.3516 36.3491 19.2183 36.5877C18.9784 37.0914 18.5253 37.4626 17.9655 37.5686C17.5923 37.6217 17.2192 37.5156 16.926 37.3035C16.2862 36.9589 15.9397 36.2165 16.073 35.5006C16.153 35.262 16.2329 35.0234 16.3662 34.8113C16.5794 34.4667 16.7927 34.2015 16.8193 34.1485L17.0859 34.3076L17.3791 34.4667L17.3258 34.5727Z" fill="#A5A5A5"/>
<path d="M18.2321 32.5577C18.2587 32.6903 18.3653 32.7698 18.7119 33.0349L20.0713 34.0954C20.3378 34.281 20.4178 34.334 20.5244 34.334C20.631 34.334 20.711 34.281 20.7643 34.2015L20.8443 34.2545L20.4178 34.7848L20.018 35.3415L19.938 35.2885C20.018 35.209 20.0446 35.1294 20.018 35.0234C19.9913 34.8908 19.8847 34.8113 19.5382 34.5462L18.1521 33.5122C17.9122 33.3001 17.8056 33.247 17.7256 33.247C17.619 33.247 17.5124 33.3001 17.4591 33.3796L17.4058 33.3266C17.5124 33.1675 17.7256 32.9289 17.8322 32.7963L18.2054 32.2661L18.2854 32.3191C18.2321 32.3721 18.2054 32.4516 18.2321 32.5577Z" fill="#A5A5A5"/>
<path d="M22.7901 32.107C22.7101 32.2395 22.4436 32.5047 22.3636 32.6107L22.2836 32.5577C22.3636 32.4517 22.4169 32.3986 22.4169 32.3456C22.4169 32.2926 22.3903 32.2661 22.3636 32.2395L22.0971 32.0805L21.4307 31.7623L20.791 32.4517L21.1108 33.1145L21.2441 33.3796H21.3507C21.4307 33.3796 21.5106 33.3001 21.564 33.2735L21.6173 33.3266L21.2708 33.6712L20.9775 34.0159L20.8976 33.9629C20.9775 33.8833 21.0042 33.8038 20.9775 33.6978L20.7643 33.141L19.6714 30.6223L19.8847 30.3306L22.337 31.4442C22.5235 31.5502 22.7101 31.6298 22.9234 31.6828C23.0033 31.7358 23.1366 31.7093 23.1899 31.6298L23.2432 31.6828L22.7901 32.107ZM20.5777 31.3646L20.1779 31.1525L20.6843 32.2395L21.2174 31.6828L20.5777 31.3646Z" fill="#A5A5A5"/>
<path d="M25.3489 26.3802C25.3489 26.5128 25.4022 26.6453 25.6421 26.99L26.2019 27.8384C26.3618 28.0505 26.4951 28.2891 26.5751 28.5542C26.735 29.1906 26.2019 29.5882 25.8554 29.8004C25.5089 30.0125 24.7625 30.1715 24.4693 29.9594C24.2561 29.7738 24.0695 29.5617 23.9362 29.3231L23.2965 28.3421C23.1099 28.1035 23.0566 27.9975 22.9766 27.971C22.87 27.9445 22.7634 27.9445 22.6834 27.9975L22.6301 27.9445L23.2165 27.5733L23.7496 27.2021L23.8029 27.2816C23.723 27.3347 23.6697 27.4142 23.6697 27.4937C23.643 27.6263 23.723 27.7324 23.9629 28.1035L24.6826 29.2171C24.9491 29.5882 25.2157 29.9594 25.8287 29.5617C26.4418 29.164 26.2019 28.6868 25.962 28.3687L25.1624 27.1226C24.9758 26.8839 24.9225 26.7779 24.8425 26.7514C24.7359 26.7249 24.6293 26.7249 24.5493 26.7779L24.496 26.7249L24.9758 26.4332L25.4556 26.0886L25.5089 26.1681C25.4289 26.1946 25.3756 26.2742 25.3489 26.3802Z" fill="#A5A5A5"/>
<path d="M29.2672 24.5773C29.2139 24.6834 29.2672 24.816 29.4272 25.2137L30.4134 27.4672L30.1735 27.5733L27.4014 26.009L27.2148 25.903L28.0145 27.7059C28.0678 27.8649 28.1477 28.024 28.2544 28.1566C28.361 28.2096 28.4409 28.2096 28.5476 28.1566V28.2361L28.1211 28.4217L27.6679 28.6338V28.5543C27.7479 28.5012 27.8012 28.4217 27.8279 28.3422C27.8812 28.2361 27.8279 28.1035 27.6413 27.7059L26.9749 26.1151C26.8416 25.85 26.7883 25.7439 26.7084 25.6909C26.6284 25.6379 26.4951 25.6379 26.4152 25.6909V25.6113L26.9483 25.3992L27.3481 25.1871L29.4538 26.3802L29.6937 26.5393L29.1073 25.2137C29.0007 24.922 28.9207 24.816 28.8674 24.7894C28.7875 24.7099 28.6808 24.7099 28.5742 24.7629L28.5209 24.6834L29.0007 24.4978C29.1606 24.4448 29.2939 24.3652 29.4272 24.2857V24.3652C29.3472 24.3918 29.2672 24.4713 29.2672 24.5773Z" fill="#A5A5A5"/>
<path d="M31.453 23.9145C31.3997 24.0206 31.4263 24.1797 31.5329 24.5774L32.0127 26.2212C32.1193 26.5393 32.146 26.6454 32.226 26.6984C32.3059 26.7514 32.4125 26.7779 32.4925 26.7514V26.8309L31.8528 26.99L31.2131 27.2021V27.1226C31.293 27.0961 31.373 27.0165 31.4263 26.937C31.4796 26.8309 31.4263 26.6984 31.3197 26.2742L30.8399 24.6304C30.7599 24.3387 30.7066 24.2327 30.6267 24.1797C30.5467 24.1266 30.4401 24.1001 30.3601 24.1266V24.0206L30.9998 23.8615L31.6395 23.6494V23.7555C31.5329 23.7555 31.453 23.8085 31.453 23.9145Z" fill="#A5A5A5"/>
<path d="M35.3713 23.1722C35.318 23.3578 35.2647 23.5699 35.238 23.7555L34.6249 26.4067L34.2518 26.5393L32.9457 24.1797L32.5991 23.6229C32.5458 23.5699 32.4392 23.5168 32.3593 23.5434V23.4373L32.999 23.3578L33.6387 23.2252V23.3312C33.5587 23.3312 33.4788 23.3578 33.4255 23.4108C33.3988 23.4373 33.3721 23.4903 33.3988 23.5434C33.3988 23.6494 33.4521 23.7289 33.5054 23.8085L34.3051 25.2667C34.385 25.3992 34.465 25.5318 34.5183 25.6909L34.5983 25.2137L34.9181 23.5699C34.9448 23.4108 34.9715 23.3312 34.9448 23.2782C34.9181 23.2252 34.9448 23.1987 34.8915 23.1722C34.8382 23.1457 34.7316 23.1457 34.6516 23.1457V23.0661L35.1314 23.0131L35.5845 22.907V22.9866C35.4779 23.0131 35.3979 23.0661 35.3713 23.1722Z" fill="#A5A5A5"/>
<path d="M38.5698 26.1151H36.3308V26.0356C36.4108 26.0356 36.5174 26.0091 36.5707 25.9295C36.6773 25.8235 36.6773 25.6909 36.6507 25.2402V23.5964C36.624 23.2782 36.624 23.1722 36.5707 23.0927C36.4908 23.0131 36.4108 22.9866 36.3042 22.9601V22.8806H38.5165C38.5165 22.8806 38.5165 23.2782 38.5432 23.5169H38.4099C38.4099 23.3843 38.3566 23.2517 38.2233 23.1722C38.0634 23.1192 37.8768 23.0927 37.7169 23.1192H37.2904V24.3653H37.7169C37.8502 24.3653 37.9834 24.3388 38.1167 24.2857C38.1967 24.2062 38.25 24.1001 38.25 23.9676H38.3566V24.4713C38.3566 24.7895 38.3833 24.8425 38.3833 24.9486H38.2766C38.25 24.816 38.2233 24.7365 38.1434 24.6834C38.0101 24.6039 37.8768 24.5774 37.7169 24.6039H37.3437V25.7174C37.3437 25.9295 37.3704 25.956 37.6369 25.956H37.7435C38.0101 25.956 38.2233 25.9295 38.33 25.797C38.4099 25.7174 38.4366 25.5849 38.4366 25.4788H38.5432V26.1681" fill="#A5A5A5"/>
<path d="M41.9817 26.4863C41.6352 26.4598 41.342 26.2742 41.2087 25.956L40.5956 24.8955H40.4091L40.3024 25.5583C40.2758 25.8765 40.2758 25.9826 40.3291 26.0621C40.3824 26.1416 40.4091 26.1947 40.5423 26.2212V26.3272L39.9026 26.2212L39.2362 26.1416V26.0621C39.3429 26.0621 39.4228 26.0356 39.5028 25.9826C39.5828 25.903 39.6094 25.7704 39.6627 25.3462L39.876 23.6229C39.9293 23.3313 39.9293 23.1987 39.876 23.1192C39.8227 23.0396 39.7427 22.9866 39.6361 22.9866V22.8806L40.1692 22.9601L40.9155 23.0396C41.1021 23.0661 41.2887 23.1192 41.4753 23.1722C41.8751 23.2782 42.115 23.6494 42.0617 24.0471C42.0084 24.4713 41.6352 24.816 41.2087 24.8425L41.9284 25.9295C42.1416 26.2212 42.3016 26.4333 42.4882 26.4598V26.5658L41.9817 26.4863ZM40.8355 23.2252H40.5956L40.4357 24.6834H40.649C40.7289 24.7099 40.7822 24.7099 40.8622 24.6834C40.9155 24.6834 41.262 24.6569 41.342 23.9941C41.422 23.3313 41.0221 23.2252 40.8355 23.2252Z" fill="#A5A5A5"/>
<path d="M43.5543 26.884C43.3144 26.8044 43.0746 26.6984 42.8347 26.5658V26.4863L42.9413 25.956H43.0479C43.0212 26.0886 43.0479 26.2477 43.1279 26.3537C43.2345 26.4863 43.3944 26.5923 43.581 26.6188C44.1941 26.7779 44.3273 26.3802 44.354 26.2742C44.3807 26.1681 44.274 25.7969 44.0341 25.5583L43.8209 25.3197C43.5277 25.0015 43.3678 24.7364 43.4744 24.2857C43.581 23.835 43.8209 23.4638 44.8338 23.7289C45.1003 23.8085 45.3402 23.888 45.5801 23.9941L45.4735 24.2592C45.4469 24.3652 45.4202 24.4978 45.3936 24.6039H45.3136C45.3402 24.4978 45.3136 24.3918 45.2603 24.2857C45.1537 24.1266 44.9937 24.0206 44.8071 23.9941C44.3273 23.8615 44.1941 24.1266 44.1408 24.2857C44.0875 24.4448 44.1941 24.6834 44.4073 24.922L44.6739 25.1871C44.9937 25.5318 45.1803 25.7969 45.047 26.2742C44.9138 26.7514 44.274 27.0695 43.5543 26.884Z" fill="#A5A5A5"/>
<path d="M47.5793 24.922C47.4726 24.9751 47.4193 25.1076 47.2594 25.5053L46.6463 27.1226C46.5131 27.4142 46.4864 27.5203 46.5131 27.5998C46.5397 27.7059 46.6197 27.7589 46.6997 27.8119V27.8915L46.0866 27.6263L45.4469 27.4142V27.3347C45.5268 27.3612 45.6335 27.3347 45.7134 27.3082C45.82 27.2551 45.9 27.1226 46.0333 26.7249L46.673 25.1341C46.753 24.9751 46.7796 24.816 46.8063 24.6304C46.753 24.5508 46.673 24.4713 46.593 24.4183L46.6463 24.3387L47.2594 24.6039L47.8991 24.8425V24.922C47.8192 24.869 47.7125 24.869 47.5793 24.922Z" fill="#A5A5A5"/>
<path d="M49.0986 29.0315L48.3523 28.6869L47.7659 28.3687L47.2594 28.1036V28.024C47.3394 28.0506 47.446 28.0771 47.5526 28.0506C47.6593 27.9975 47.7392 27.8915 47.9525 27.4938L48.7788 26.0091C48.8587 25.85 48.9387 25.6909 48.9653 25.5318C48.9387 25.4258 48.8854 25.3462 48.8054 25.2932V25.2137L49.2852 25.5053L50.0049 25.8765C50.4047 26.0886 51.6042 26.8045 50.8845 28.1301C50.1648 29.4557 49.5251 29.1376 49.0453 29.0315H49.0986ZM49.8983 26.0886L49.5784 25.9295L48.3523 28.1566C48.2723 28.2892 48.2457 28.3687 48.3256 28.4217C48.4056 28.4748 48.4323 28.5013 48.5389 28.5543C49.2052 28.9255 49.685 28.7399 50.1915 27.8119C50.6979 26.884 50.2714 26.2742 49.8983 26.0886Z" fill="#A5A5A5"/>
<path d="M52.3505 31.3381L51.8174 30.9404L51.8707 30.8609C51.924 30.9139 52.004 30.9669 52.084 30.9669L52.1906 30.9139C52.2439 30.8344 52.2705 30.7548 52.2972 30.6488L52.5371 29.9594L51.7907 29.3762L51.1777 29.7738L50.9378 29.9329C50.9111 29.9859 50.8845 30.0125 50.8845 30.0655L51.0444 30.2511L50.9911 30.3041L50.6179 30.0125L50.2448 29.7473L50.2981 29.6678C50.378 29.7208 50.4846 29.7473 50.5913 29.6943L51.0977 29.4292L53.47 28.077L53.8165 28.2361L52.9636 30.8078C52.8569 31.1525 52.8036 31.3646 52.777 31.4176C52.777 31.4972 52.8036 31.6032 52.8836 31.6563L52.8303 31.7358L52.3505 31.3381ZM52.8303 29.058C52.8836 28.8989 52.9369 28.7664 53.0169 28.6338L52.004 29.2436L52.6171 29.7208L52.8303 29.058Z" fill="#A5A5A5"/>
<path d="M54.5629 33.4061C54.323 33.247 54.1364 33.0879 53.9498 32.8758L53.4967 32.3721C53.3901 32.2395 53.2301 32.107 53.0969 31.9744L53.1502 31.8949C53.2301 31.9744 53.3101 32.0009 53.4167 32.0009C53.5233 32.0009 53.63 31.9214 53.9498 31.6297L55.2293 30.4367C55.4425 30.2246 55.5225 30.145 55.5491 30.0655C55.5491 29.9594 55.5225 29.8799 55.4692 29.8004L55.5225 29.7208C55.6291 29.8799 55.7624 30.0125 55.8956 30.145L56.4554 30.7283C56.7753 31.073 57.6815 32.107 56.5887 33.141C55.4958 34.175 54.9894 33.6712 54.5629 33.4061ZM56.2955 30.8874L56.0289 30.6223L54.1631 32.3721C54.0564 32.4782 54.0031 32.5312 54.0564 32.6372L54.2164 32.8228C54.7228 33.3796 55.2559 33.3266 56.0023 32.6372C56.7486 31.9479 56.5887 31.2055 56.2955 30.8874Z" fill="#A5A5A5"/>
<path d="M60.0005 36.6937C60.0805 36.6406 60.1605 36.5611 60.1871 36.4551C60.1871 36.243 60.1338 36.0574 60.0272 35.8718C59.814 35.5006 59.3875 34.9703 58.188 35.6597C57.4683 36.0839 57.1218 36.6141 57.5483 37.33C57.6549 37.5156 57.8148 37.6481 58.0014 37.7277C58.108 37.7542 58.2413 37.7277 58.3213 37.6481L58.3746 37.7542L57.8948 37.9928L57.8148 38.0458C57.6016 37.8602 57.4416 37.6216 57.2817 37.383C56.9619 36.8262 56.8552 36.296 57.0418 35.8187C57.4417 34.9438 58.4812 34.5461 59.3608 34.9438C59.4941 34.9969 59.6274 35.0764 59.7606 35.1824C59.9472 35.3415 60.1072 35.5536 60.2404 35.7657C60.427 36.1104 60.5603 36.4285 60.587 36.4816L60.3204 36.6141L60.0539 36.7997L60.0005 36.6937Z" fill="#A5A5A5"/>
<path d="M58.9077 40.7767C58.8544 40.6176 58.6944 40.2994 58.6411 40.1669L58.7211 40.1138C58.7477 40.1934 58.8011 40.2729 58.8544 40.3259H58.9876L59.2275 40.1404L59.7606 39.6631L59.4141 38.7882H58.6678L58.3746 38.8412L58.2946 38.8943C58.2679 38.9738 58.3213 39.0798 58.3213 39.1329L58.2413 39.1859C58.2146 39.0268 58.1613 38.8677 58.0814 38.7352C58.0281 38.5761 57.9747 38.4435 57.8948 38.311H57.9747C58.0281 38.3905 58.108 38.4701 58.2146 38.4701H61.5465L61.7331 38.7617L59.7073 40.5646L59.2542 40.9888C59.2009 41.0683 59.1742 41.1744 59.2009 41.2804H59.1209L58.9077 40.6971V40.7767ZM60.4803 38.9738L60.8535 38.6822H59.654L59.9472 39.398L60.4803 38.9738Z" fill="#A5A5A5"/>
<path d="M62.3195 43.1628C62.4528 43.1363 62.5594 43.0567 62.6127 42.9242C62.6394 42.7386 62.6127 42.553 62.5594 42.3939L62.5061 42.2349L60.2404 42.8181C59.9206 42.8977 59.8406 42.9242 59.7873 43.0037C59.734 43.0833 59.734 43.3219 59.734 43.3749H59.654C59.6007 43.1893 59.5207 42.7916 59.4674 42.6325L59.2542 41.8637H59.3341C59.3608 41.8902 59.4141 42.1023 59.5474 42.1553C59.6807 42.2083 59.7873 42.1818 60.2138 42.0758L62.3462 41.519L62.2929 41.3599C62.2129 41.0418 62.1862 40.9622 62.0796 40.8562C61.973 40.7766 61.8397 40.7501 61.7064 40.7766V40.6971L62.3462 40.538L63.0125 43.0833C62.7993 43.1098 62.5861 43.1628 62.3728 43.2423L62.3195 43.1628Z" fill="#A5A5A5"/>
<path d="M60.0005 45.8936C59.8939 44.8596 60.4537 44.1968 61.4666 44.0908C62.4795 43.9847 63.2525 44.568 63.3591 45.602C63.4657 46.636 62.9059 47.2988 61.8931 47.4049C60.8802 47.5109 60.1072 46.9276 60.0005 45.8936ZM63.1458 45.602C63.0659 44.9392 62.3995 44.7536 61.5998 44.8331C60.8002 44.9127 60.1605 45.2573 60.2138 45.8936C60.2671 46.53 60.9601 46.7421 61.7598 46.6625C62.5594 46.583 63.1991 46.2383 63.1458 45.602ZM64.0255 46.1853L63.5457 45.1513L63.6256 45.0983L64.372 45.7081V45.7611L64.0788 46.2118L64.0255 46.1853Z" fill="#A5A5A5"/>
<path d="M60.0805 50.3478L60.1604 48.9956C60.1604 48.704 60.1871 48.4389 60.1871 48.1472H60.2671C60.2671 48.2268 60.3204 48.3328 60.3737 48.3858C60.4536 48.4654 60.6136 48.4919 61.0401 48.5184L62.7726 48.5979C63.0658 48.5979 63.1991 48.5979 63.2524 48.5449C63.3057 48.4919 63.3857 48.4389 63.4124 48.3063H63.4923C63.4657 48.5449 63.439 48.81 63.439 49.0486C63.439 49.2077 63.4124 49.5789 63.4124 49.7645H63.3324C63.359 49.6319 63.3057 49.4729 63.1991 49.3668C63.0925 49.2873 62.9326 49.2873 62.5594 49.2608L60.6402 49.1812C60.4003 49.1547 60.3737 49.2077 60.347 49.4729V49.5524C60.347 49.844 60.347 50.0031 60.4536 50.1357C60.5336 50.2152 60.6669 50.2682 60.8002 50.2682V50.3743L60.0805 50.3478Z" fill="#A5A5A5"/>
<path d="M62.8793 52.5219C62.7993 52.4158 62.666 52.3893 62.2396 52.3098L60.5336 52.0446C60.2404 51.9916 60.1072 51.9916 60.0272 52.0446C59.9472 52.0977 59.8939 52.1772 59.8673 52.2567H59.7873L59.8939 51.5939C59.9472 51.3818 59.9739 51.1432 60.0005 50.9311H60.0805C60.0805 51.0371 60.1072 51.1167 60.1605 51.1962C60.2404 51.3023 60.3737 51.3288 60.8002 51.3818L62.5061 51.6469C62.666 51.7 62.8526 51.7 63.0125 51.6734C63.0925 51.6204 63.1458 51.5409 63.1725 51.4348H63.2524L63.1458 52.0977C63.1192 52.2567 63.0659 52.5484 63.0392 52.7605H62.9592C62.9859 52.6809 62.9326 52.6014 62.8793 52.5219Z" fill="#A5A5A5"/>
<path d="M61.5199 56.048C61.6265 56.0745 61.7331 56.048 61.8397 55.995C61.9997 55.8624 62.1063 55.7033 62.1596 55.4912C62.2929 55.067 62.3728 54.4042 61.0668 54.033C60.2404 53.7944 59.6274 53.927 59.3875 54.7224C59.3075 54.908 59.3075 55.1201 59.4141 55.3057C59.4674 55.4117 59.5741 55.4647 59.6807 55.4912V55.5973L59.1742 55.4382H59.0676C59.0943 55.1466 59.1209 54.8549 59.2009 54.5898C59.3875 53.98 59.7073 53.5293 60.1605 53.3437C60.507 53.2111 60.8802 53.1846 61.2267 53.3172C61.9464 53.4763 62.4795 54.1126 62.5061 54.8549C62.5061 55.0935 62.4795 55.3587 62.3995 55.5973C62.3195 55.8624 62.2396 56.101 62.133 56.3396L61.8397 56.2601L61.5199 56.1806V56.048Z" fill="#A5A5A5"/>
<path d="M57.8148 58.063C57.9214 57.8774 58.0014 57.6653 58.0813 57.4532H58.1613C58.108 57.5858 58.108 57.6653 58.1347 57.6918C58.1613 57.7183 58.1613 57.7714 58.2146 57.7979L58.5078 57.8509L59.2275 57.9039L59.6007 57.0555L59.0942 56.5253L58.8543 56.3397H58.7477C58.6678 56.3662 58.6145 56.4722 58.5878 56.5253H58.5078L58.7211 56.1011C58.801 55.9685 58.8543 55.8094 58.9077 55.6503L58.9876 55.7034C58.9343 55.7829 58.9343 55.8889 59.0143 55.9685C59.1209 56.1276 59.2542 56.2866 59.4141 56.4192L61.28 58.4077L61.2 58.7523L58.5078 58.5402H57.8681C57.7615 58.5402 57.6815 58.5933 57.6282 58.6993L57.5482 58.6463C57.6549 58.4872 57.7615 58.3016 57.8148 58.063ZM60.1604 58.0365C60.3204 58.0365 60.4803 58.063 60.6402 58.116L59.7873 57.2676L59.4674 57.9835L60.1604 58.0365Z" fill="#A5A5A5"/>
<path d="M52.8836 45.3369H52.9103C53.4967 45.3104 53.9498 44.8597 53.9232 44.2764C53.9232 43.587 52.9903 43.1894 52.9903 42.5265C52.9903 42.2614 53.0702 41.9963 53.2035 41.7842C52.6437 41.7842 52.2173 42.1023 52.2173 42.8712C52.2173 43.6401 53.1502 43.9847 53.1502 44.7006C53.1502 44.9392 53.0436 45.1778 52.8836 45.3369Z" fill="#A5A5A5"/>
<path d="M46.7796 42.5265C46.7796 42.2614 46.8596 41.9963 46.9929 41.7842C46.4331 41.7842 46.0066 42.1023 46.0066 42.8712C46.0066 43.6401 46.9396 43.9847 46.9396 44.7006C46.9129 44.9392 46.8329 45.1513 46.6997 45.3369C46.7263 45.3369 46.7263 45.3369 46.753 45.3369C47.3127 45.3104 47.7392 44.8331 47.7125 44.2764C47.7125 43.587 46.7796 43.1894 46.7796 42.5265Z" fill="#A5A5A5"/>
<path d="M50.0848 41.8107C49.5251 41.8107 49.0986 42.1288 49.0986 42.8977C49.0986 43.6666 50.0582 44.0112 50.0582 44.7271C50.0315 44.9657 49.9516 45.1778 49.7916 45.3634H49.8183C50.4047 45.3369 50.8578 44.8862 50.8312 44.3029C50.8312 43.6135 49.8716 43.2159 49.8716 42.553C49.8716 42.2879 49.9516 42.0228 50.0848 41.8107Z" fill="#A5A5A5"/>
<path d="M42.2482 38.5496C42.2482 38.0194 43.6343 37.7808 43.6343 37.1445H40.0625C40.0625 37.7808 41.4219 38.0459 41.4219 38.5496C41.4219 39.0534 40.3824 38.9473 40.3824 39.7162H43.2878C43.2878 38.9473 42.2482 39.0799 42.2482 38.5496Z" fill="#A5A5A5"/>
<path d="M58.0547 47.8821C57.9214 37.3831 48.992 28.3687 38.33 28.2361V41.7312C39.6094 42.1554 41.6618 42.447 44.3807 42.1819V47.8821H58.0547ZM46.6996 45.7346C46.4597 45.7611 46.1932 45.6816 46.0066 45.5225C46.2732 45.3634 46.4331 45.0983 46.4598 44.7801C46.4598 44.1968 45.5268 43.8787 45.5268 42.8977C45.5268 42.8712 45.5268 42.8447 45.5268 42.8182C45.5535 42.0228 46.1932 41.3865 46.9929 41.413C47.2061 41.413 47.4193 41.466 47.6059 41.5721C47.3927 41.7842 47.2594 42.0758 47.2594 42.394C47.2594 42.9773 48.1657 43.3749 48.1657 44.2234C48.1657 44.2499 48.1657 44.3029 48.1657 44.3294C48.1657 45.1248 47.4993 45.7611 46.6996 45.7346ZM49.7916 45.7346C49.5517 45.7611 49.2852 45.6816 49.0986 45.5225C49.3652 45.3634 49.5517 45.0983 49.5784 44.7801C49.5784 44.1968 48.6188 43.8787 48.6188 42.8977V42.8712C48.6188 42.0758 49.2852 41.413 50.0848 41.413C50.2981 41.3865 50.5113 41.4395 50.6979 41.5721C50.4847 41.8107 50.378 42.1023 50.3514 42.394C50.3514 42.9773 51.2577 43.3749 51.2577 44.2234C51.2577 44.2499 51.2577 44.3029 51.2577 44.3294C51.2577 45.1248 50.5913 45.7611 49.7916 45.7346ZM53.7899 41.5986C53.5767 41.8372 53.47 42.1288 53.4434 42.4205C53.4434 43.0038 54.3496 43.4015 54.3496 44.2499C54.3496 44.2764 54.3496 44.3294 54.3496 44.3559C54.323 45.1513 53.6833 45.7611 52.8836 45.7611C52.6437 45.7876 52.4038 45.7081 52.2172 45.549C52.4838 45.3899 52.6437 45.1248 52.6704 44.8066C52.6704 44.2234 51.7375 43.9052 51.7375 42.9242C51.7375 42.8977 51.7375 42.8712 51.7375 42.8447C51.7641 42.0493 52.4038 41.413 53.2035 41.4395C53.4167 41.413 53.63 41.466 53.7899 41.5986ZM39.5294 33.088C39.5294 32.5312 39.8493 32.2661 39.8493 31.8949C39.8226 31.6563 39.7693 31.4442 39.6361 31.2586H40.1158C40.2491 31.4442 40.3291 31.6563 40.3291 31.8949C40.3291 32.2661 39.9826 32.5577 39.9826 33.0615C39.9826 33.5652 40.3824 33.8834 40.3824 34.4401C40.3824 34.9969 39.8493 35.2885 39.8493 35.7127C39.8759 35.9249 39.9826 36.1104 40.1692 36.243H39.6361C39.5028 36.1104 39.4228 35.8983 39.4228 35.7127C39.4228 35.209 39.9559 34.8643 39.9559 34.4401C39.9559 34.0159 39.5294 33.6448 39.5294 33.088ZM39.9026 40.2199V39.6632C39.9026 38.8678 41.0488 38.8147 41.0488 38.5496C41.0488 38.2845 39.4761 37.7807 39.4761 36.7733H44.2474C44.2474 37.7807 42.7014 38.2845 42.7014 38.5496C42.7014 38.8147 43.8742 38.8147 43.8742 39.7162H48.5922C47.3394 39.4511 46.753 38.6557 46.753 37.6747C46.7796 37.0119 47.0995 36.4286 47.6592 36.0574C47.366 35.6862 46.673 35.0764 45.2869 35.0764C44.8338 35.0764 44.3807 35.1295 43.9542 35.2885C43.8476 35.3946 43.7942 35.5537 43.7942 35.7127C43.8209 35.9249 43.9275 36.1104 44.0874 36.243H43.581C43.4211 36.1104 43.3411 35.9249 43.3411 35.7127C43.3411 35.6597 43.3678 35.6332 43.3678 35.5802C43.1279 35.7658 42.9146 35.9779 42.7547 36.243H42.2216C42.4881 35.6067 43.6077 34.5992 45.2869 34.5992C46.9662 34.5992 48.0057 35.4741 48.3523 36.243C47.7392 36.4551 47.366 37.0119 47.366 37.6482C47.366 38.3905 48.1657 39.239 49.2052 39.239C50.2448 39.239 51.2044 38.7882 51.2044 37.1444C51.2044 35.5007 48.9653 33.4857 46.0333 33.4857C43.1012 33.4857 41.7685 34.9704 41.3153 36.243H40.8622C40.7289 36.1104 40.6489 35.9249 40.6489 35.7127C40.6489 35.209 41.1554 34.8643 41.1554 34.4401C41.1554 34.0159 40.7289 33.6448 40.7289 33.088C40.7289 32.5312 41.0754 32.2661 41.0754 31.8949C41.0488 31.6828 40.9688 31.4442 40.8622 31.2586H41.3153C41.4486 31.4442 41.5552 31.6563 41.5552 31.8949C41.5552 32.2661 41.2087 32.5312 41.2087 33.0615C41.2087 33.5917 41.5819 34.0159 41.5819 34.4401C41.5819 34.8643 41.0754 35.2885 41.0754 35.6332V35.7393C41.3686 35.0764 41.8218 34.5197 42.4082 34.0955C42.3016 33.7508 42.0617 33.6448 42.0617 33.088C42.0617 32.5312 42.4082 32.2661 42.4082 31.8949C42.3815 31.6828 42.3016 31.4442 42.1949 31.2586H42.6747C42.808 31.4442 42.8613 31.6563 42.888 31.8949C42.888 32.2661 42.5415 32.5842 42.5415 33.0615C42.5681 33.3266 42.6481 33.6182 42.7814 33.8569C43.0212 33.6978 43.2611 33.5652 43.5277 33.4857C43.4744 33.3531 43.4477 33.2205 43.4477 33.088C43.4477 32.5312 43.7942 32.2661 43.7942 31.8949C43.7676 31.6828 43.6876 31.4442 43.581 31.2586H44.0341C44.1674 31.4442 44.2474 31.6563 44.2474 31.8949C44.2474 32.2661 43.9009 32.6108 43.9009 33.0615C43.9009 33.141 43.9275 33.2471 43.9542 33.3266C44.6472 33.1145 45.3402 33.035 46.0599 33.035C49.4185 33.035 51.7641 35.103 51.7641 37.171C51.8174 38.4171 50.9378 39.5041 49.7117 39.7162H53.1502V40.2199H39.9026Z" fill="#A5A5A5"/>
<path d="M28.5209 40.7237C27.5613 40.7237 26.3885 40.8563 25.8288 41.36V45.7611C26.6817 45.3899 27.588 45.2043 28.5209 45.2309V40.7237Z" fill="#7C7C7C"/>
<path d="M28.9474 45.5755C27.668 45.5755 26.7084 45.7346 25.8554 46.2118H25.349C24.5227 45.7346 23.6164 45.5755 22.2836 45.5755V41.3335C22.0971 41.254 21.9105 41.2274 21.6972 41.2009V45.9997C23.4831 45.9997 24.576 46.2914 25.3223 46.7951H25.9087C26.6551 46.2914 27.7479 45.9997 29.5072 45.9997V41.2009C29.3206 41.2274 29.134 41.254 28.9474 41.3335V45.5755Z" fill="#7C7C7C"/>
<path d="M25.4023 41.36C24.8159 40.8563 23.6697 40.7237 22.7101 40.7237V45.2309C23.643 45.2043 24.5493 45.3899 25.4023 45.7611V41.36Z" fill="#7C7C7C"/>
<path d="M18.0721 47.8821H31.6662V42.1819C34.3584 42.447 36.2775 42.1554 37.7169 41.7577V28.2361C26.895 28.3952 18.2321 37.277 18.0721 47.8821ZM27.6147 32.8759H35.318C35.5845 32.8759 35.6645 33.0615 35.6645 33.141C35.6645 33.2205 35.6112 33.2471 35.5845 33.2471H27.3748C27.3214 33.2471 27.2681 33.194 27.2681 33.141C27.2681 33.0084 27.3748 32.8759 27.6147 32.8759ZM29.9336 46.5035C27.7746 46.5035 26.735 46.7951 26.0153 47.2193H25.2157C24.4694 46.7951 23.4298 46.5035 21.2708 46.5035V40.7767C21.6173 40.7767 21.9638 40.8297 22.2836 40.9093V40.3525C23.6164 40.3525 24.6293 40.432 25.6155 40.9888C26.5218 40.432 27.668 40.3525 28.9474 40.3525V40.9093C29.2673 40.8297 29.5871 40.7767 29.9336 40.7767V46.5035ZM34.6516 37.7807C34.7049 37.8073 34.7316 37.9133 34.7316 38.0724C34.7049 38.3905 34.4383 38.6557 34.1185 38.6557C34.2251 38.7352 34.2784 38.8678 34.2518 39.0003C34.2251 39.292 33.9852 39.5041 33.692 39.4776C33.6653 39.4776 33.6653 39.4776 33.6387 39.4776C33.4255 39.4511 33.2922 39.292 33.2922 39.0799C33.3988 39.1329 33.5054 39.1594 33.612 39.1594C33.772 39.1594 33.9586 39.0799 33.9586 38.8943C33.9586 38.8147 33.9319 38.7352 33.8786 38.6557C33.692 38.6026 33.612 38.5496 33.612 38.3375C33.7453 38.3905 33.8786 38.3905 34.0119 38.3905C34.2251 38.4171 34.4117 38.258 34.4383 38.0459C34.4383 37.9663 34.4117 37.8868 34.3584 37.8073C34.1185 37.9133 33.8253 37.8868 33.612 37.7277C33.4255 38.7352 32.6791 40.1934 31.4796 40.2464C30.2802 40.2995 29.5072 38.7352 29.3206 37.7277C29.1073 37.8868 28.8141 37.9133 28.5742 37.8073C28.5209 37.8868 28.4943 37.9663 28.4943 38.0459C28.4943 38.258 28.7075 38.3905 28.9474 38.3905C29.0807 38.3905 29.214 38.3905 29.3206 38.3375C29.3206 38.5496 29.2406 38.6026 29.054 38.6557C29.0007 38.7352 28.9741 38.8147 28.9741 38.8943C28.9741 39.0799 29.1606 39.1594 29.3206 39.1594C29.4272 39.1594 29.5338 39.1329 29.6404 39.0799C29.6404 39.1064 29.6404 39.1064 29.6404 39.1329C29.6138 39.345 29.4538 39.4776 29.2406 39.4776C28.9474 39.5041 28.7075 39.292 28.6809 39.0003C28.6542 38.8678 28.7075 38.7352 28.8141 38.6557C28.4943 38.6557 28.2277 38.3905 28.2011 38.0724C28.2011 37.9133 28.2277 37.8073 28.281 37.7807C28.0678 37.6747 27.9079 37.4626 27.8812 37.224C27.8812 37.1975 27.8812 37.171 27.8812 37.1444C27.9079 36.9058 28.1211 36.7467 28.361 36.7733C28.281 36.8528 28.2277 36.9588 28.2277 37.0914C28.2277 37.33 28.4676 37.5156 28.8141 37.5156C28.9741 37.5156 29.1606 37.4626 29.2939 37.3831C29.2406 37.171 29.4272 37.0384 29.5871 36.9588C29.5338 37.1444 29.5605 37.33 29.6404 37.5156C29.7737 37.9133 30.3335 37.9133 30.3335 38.0459C30.3335 38.1784 30.2002 38.205 30.1202 38.205C29.9336 38.205 29.7737 38.0989 29.6671 37.9398C29.8537 38.6822 30.4934 39.9018 31.4796 39.9018C32.4659 39.9018 33.0789 38.6822 33.2655 37.9398C33.1589 38.0989 32.999 38.205 32.8124 38.205C32.7324 38.205 32.5991 38.0989 32.5991 38.0459C32.5991 37.9929 33.1589 37.9133 33.2922 37.5156C33.3721 37.33 33.3988 37.1444 33.3455 36.9588C33.5321 37.0384 33.692 37.171 33.6387 37.3831C33.7986 37.4626 33.9586 37.5156 34.1185 37.5156C34.4917 37.5156 34.7049 37.33 34.7049 37.0914C34.7049 36.9588 34.6516 36.8528 34.5716 36.7733C34.5983 36.7733 34.6249 36.7733 34.6516 36.7733C34.8915 36.7998 35.0514 36.9854 35.0514 37.224C35.0248 37.4626 34.8648 37.6747 34.6516 37.7807ZM28.7075 36.5081C28.7608 36.6142 28.8674 36.6937 28.9741 36.6937C29.3206 36.6937 29.8537 35.9779 29.7204 36.0044C29.5871 36.0309 29.5338 36.2165 29.2939 36.2165C29.054 36.2165 29.0274 36.0309 29.054 35.8983C29.7737 35.8983 29.5871 35.4211 30.4667 35.4211C30.8666 35.4211 30.9998 34.8643 31.4796 34.8643C31.9594 34.8643 32.066 35.4211 32.4659 35.4211C33.3455 35.4211 33.1589 35.8983 33.8786 35.8983C33.9052 36.0309 33.7986 36.2165 33.6387 36.2165C33.4788 36.2165 33.3455 36.0309 33.2122 36.0044C33.4788 36.3756 33.612 36.6937 33.9586 36.6937C34.0652 36.6937 34.1718 36.6142 34.2251 36.5081C34.4383 36.7733 34.2784 36.9854 34.0119 36.9854C33.7453 36.9854 33.2922 36.5346 33.0523 36.243C32.8124 35.9514 32.8924 35.7393 32.3326 35.7393C31.7728 35.7393 31.8528 35.1825 31.4796 35.1825C31.1065 35.1825 30.9998 35.7393 30.6 35.7393C30.2002 35.7393 30.2802 35.6332 29.907 36.243C29.5338 36.8528 29.214 36.9854 28.9474 36.9854C28.6809 36.9854 28.4943 36.7733 28.7075 36.5081ZM31.4796 38.9473C31.3464 38.9473 31.2131 38.9208 31.0798 38.8943C30.9998 38.8943 30.8932 38.8943 30.8666 38.9473L30.8133 38.7352C30.8932 38.6822 30.9998 38.6557 31.1065 38.6557H31.8262C31.9328 38.6557 32.0394 38.6822 32.1194 38.7352L32.066 38.9473C32.0394 38.8943 31.9861 38.8943 31.8528 38.8943C31.7195 38.8943 31.6929 38.9473 31.4796 38.9473ZM31.7728 39.292C31.7195 39.398 31.6129 39.4776 31.4796 39.4776C31.3464 39.4776 31.2131 39.398 31.1598 39.292C31.1598 39.2655 31.1864 39.1064 31.2131 39.1329C31.2397 39.1594 31.293 39.2124 31.4796 39.2124C31.5596 39.2124 31.6662 39.1859 31.7195 39.1329C31.7728 39.1594 31.7728 39.2655 31.7728 39.292ZM31.0798 36.9588C31.0265 36.9588 30.9465 36.8263 30.8666 36.7733C30.8399 36.9058 30.7333 36.9854 30.6 36.9854C30.4134 36.9854 30.4667 36.7202 30.3335 36.7468C30.2002 36.7733 30.1469 36.9058 30.0669 36.9058C29.987 36.9058 29.9336 36.8263 29.9336 36.7468C29.9336 36.4816 30.1469 36.3756 30.5201 36.3756C30.7599 36.3756 30.9998 36.5081 31.1598 36.6937C31.1598 36.8528 31.1331 36.9588 31.0798 36.9588ZM31.4796 38.1254C31.5596 38.1254 31.5596 37.9929 31.9061 37.9929C31.9594 38.0724 31.9861 38.1519 31.9861 38.258C31.7195 38.258 31.7195 38.3375 31.4796 38.3375C31.2397 38.3375 31.2131 38.258 30.9465 38.258C30.9732 38.1784 30.9998 38.0724 31.0265 37.9929C31.373 37.9929 31.3997 38.1254 31.4796 38.1254ZM32.066 36.7733C31.9861 36.8263 31.8795 36.9588 31.8528 36.9588C31.8262 36.9588 31.7728 36.8528 31.7728 36.6937C31.9328 36.4816 32.1727 36.3756 32.4392 36.3756C32.7857 36.3756 32.999 36.4816 32.999 36.7468C32.999 36.8263 32.9457 36.9058 32.8657 36.9058C32.7857 36.9058 32.5991 36.5877 32.5991 36.7468C32.5991 36.9058 32.5192 36.9854 32.3326 36.9854C32.1993 36.9854 32.066 36.9058 32.066 36.7733ZM35.2647 36.6407C34.545 36.6672 33.9319 36.1104 33.9052 35.3946C33.9319 35.1825 33.9852 34.9969 34.0918 34.8113C33.6387 34.9704 33.1322 35.0499 32.6525 35.0499C32.3593 35.0764 32.0927 34.9439 31.9061 34.7318C33.5587 34.7053 34.2251 34.3076 34.9714 34.3076H34.9981C35.4779 34.2811 35.8511 34.6522 35.8777 35.1295C35.8777 35.156 35.8777 35.156 35.8777 35.1825C35.8777 35.5537 35.5579 35.8718 35.1847 35.8718H35.158C34.8915 35.8718 34.6782 35.6862 34.6516 35.4211C34.6516 35.3946 34.6516 35.3946 34.6516 35.3681C34.6782 35.262 34.7582 35.209 34.8648 35.209C34.8648 35.3416 34.9714 35.4211 35.1314 35.4211H35.158C35.318 35.4211 35.4512 35.2885 35.4512 35.1295V35.103C35.4246 34.8643 35.2113 34.7053 34.9714 34.7318C34.9448 34.7318 34.8915 34.7318 34.8648 34.7318C34.5183 34.7583 34.2784 35.0499 34.3051 35.3946C34.3051 35.8983 34.6516 36.243 35.318 36.243C35.3446 36.243 35.3713 36.243 35.3979 36.243C35.9843 36.2165 36.4375 35.7128 36.4108 35.1295C36.4108 34.175 35.6645 33.8569 35.0514 33.8569C34.0385 33.8569 33.4255 34.122 31.4796 34.122C29.5338 34.122 28.8941 33.8569 27.8812 33.8569C27.2681 33.8569 26.5218 34.175 26.5218 35.1295C26.5218 35.156 26.5218 35.1825 26.5218 35.209C26.5484 35.7923 27.0282 36.2695 27.6147 36.243C28.281 36.243 28.6275 35.8983 28.6275 35.3946C28.6275 35.3681 28.6275 35.3151 28.6275 35.2885C28.6009 34.9439 28.3077 34.7053 27.9612 34.7318H27.9345C27.6946 34.7318 27.508 34.8909 27.4814 35.1295V35.156C27.508 35.3151 27.6413 35.4476 27.8012 35.4211C27.9612 35.4211 28.0678 35.3416 28.0678 35.209C28.0944 35.209 28.0944 35.209 28.1211 35.209C28.2277 35.2355 28.281 35.3151 28.281 35.4211V35.4476C28.2544 35.7127 28.0145 35.8983 27.7479 35.8718C27.3481 35.8453 27.0282 35.5272 27.0549 35.1295V35.103C27.0816 34.6257 27.4814 34.2811 27.9612 34.3076C28.7075 34.3076 29.3739 34.7053 31.0265 34.7318C30.8399 34.9439 30.5734 35.0764 30.2802 35.0499C29.8004 35.0499 29.2939 34.9704 28.8408 34.8113C28.9741 34.9704 29.0274 35.1825 29.0274 35.3946C29.0007 36.1104 28.3876 36.6672 27.668 36.6407C27.0016 36.6407 26.042 36.2165 26.042 35.1295C26.042 34.175 26.815 33.4857 27.8812 33.4857C28.9474 33.4857 29.6671 33.7773 31.4796 33.7773C33.2922 33.7773 33.8253 33.4857 35.0514 33.4857C36.2775 33.4857 36.8906 34.0424 36.8906 35.1295C36.8906 36.2165 35.931 36.6407 35.2647 36.6407Z" fill="#7C7C7C"/>
<path d="M25.3223 53.662C25.5622 53.662 25.6955 53.821 25.6955 53.4233C25.6955 53.0256 25.0558 52.3363 24.496 52.3363C24.2828 52.3363 24.1761 52.4424 24.1761 52.6014C24.2561 53.1847 24.7359 53.6354 25.3223 53.662Z" fill="#A5A5A5"/>
<path d="M25.3756 55.1997C25.5622 55.1997 25.6955 55.3587 25.6955 54.961C25.6955 54.5634 25.1091 53.927 24.3627 53.927C24.2295 53.927 24.1495 53.6354 24.1495 54.1392C24.1495 54.6429 24.7093 55.1997 25.3756 55.1997Z" fill="#A5A5A5"/>
<path d="M25.9887 53.5558C25.962 53.927 25.7221 53.9801 25.4556 53.9801C25.7221 54.1391 25.9354 54.3777 25.9887 54.6959C26.0687 54.4043 26.2552 54.1391 26.5218 53.9801C26.2552 53.9801 26.042 53.927 25.9887 53.5558Z" fill="#A5A5A5"/>
<path d="M26.5751 53.6619C27.1615 53.6354 27.668 53.1847 27.7213 52.6014C27.7213 52.5749 27.7213 52.5749 27.7213 52.5484C27.6946 52.4158 27.588 52.3363 27.4547 52.3363C26.8683 52.3363 26.3086 53.2643 26.3086 53.4233C26.3086 53.5824 26.3885 53.6619 26.5751 53.6619Z" fill="#A5A5A5"/>
<path d="M24.4427 55.4648C24.3094 55.4648 24.1761 55.5178 24.1761 55.6769C24.2295 56.2867 24.7092 56.7639 25.3223 56.7904C25.5622 56.7904 25.6955 56.976 25.6955 56.4988C25.6955 56.0216 25.1091 55.4648 24.4427 55.4648Z" fill="#A5A5A5"/>
<path d="M25.9887 52.8135C26.2286 52.8135 26.5218 52.2833 26.5218 51.7795C26.5218 51.2758 26.1753 50.772 25.9887 50.772C25.8288 50.772 25.4556 51.1697 25.4556 51.7795C25.4556 52.3893 25.7488 52.8135 25.9887 52.8135Z" fill="#A5A5A5"/>
<path d="M26.4952 55.5443C26.2286 55.5443 26.042 55.4648 25.9887 55.1732C25.962 55.4648 25.7755 55.5443 25.5089 55.5443C25.7488 55.7299 25.9354 55.995 25.9887 56.2867C26.042 55.995 26.2286 55.7299 26.4952 55.5443Z" fill="#A5A5A5"/>
<path d="M26.3086 54.961C26.3086 55.0936 26.3619 55.1996 26.5751 55.1996H26.6018C27.1882 55.2261 27.6413 54.7489 27.668 54.1921C27.668 54.0066 27.588 53.98 27.3748 53.98C26.815 54.0066 26.3619 54.4308 26.3086 54.961Z" fill="#A5A5A5"/>
<path d="M31.7195 48.5184H18.0721C18.2321 59.1501 26.895 68.0584 37.7169 68.1909V57.904C34.3584 57.0555 31.7995 53.6354 31.7195 48.5184ZM23.7497 59.7864L23.4298 59.4417C24.3094 59.1501 24.6293 58.2221 25.7221 57.9835V57.0025C25.5889 57.0821 25.4556 57.1351 25.2957 57.1351C24.576 57.1351 23.7763 56.3662 23.7763 55.5443L22.4169 54.1922L22.6835 53.9801L23.9629 55.1997C24.0695 55.1466 24.1761 55.0936 24.3094 55.0936C23.9629 54.8285 23.7763 54.4308 23.7497 54.0066L22.4169 52.6279L22.6835 52.4158L23.9096 53.6619C24.0162 53.5824 24.1495 53.5559 24.2828 53.5559C23.9629 53.2907 23.7763 52.893 23.7763 52.4688L22.4436 51.0902L22.7101 50.8516L24.0162 52.1242C24.1228 52.0181 24.2561 51.9651 24.416 51.9651C24.6826 51.9916 24.9491 52.0711 25.189 52.2302C25.1357 52.0446 25.1091 51.8856 25.1091 51.7C25.1091 51.1962 25.3756 50.7455 25.7755 50.4539L25.8288 48.9161H26.1753L26.2286 50.4539C26.6284 50.7455 26.8683 51.1962 26.8683 51.7C26.895 51.8856 26.8417 52.0977 26.7617 52.2567C26.9749 52.0711 27.2415 51.9651 27.5347 51.9651C27.7213 51.9386 27.8812 52.0181 27.9878 52.1772L29.2673 50.8516L29.5338 51.0902L28.1744 52.5219C28.1211 52.9461 27.9079 53.3438 27.5347 53.5824C27.668 53.5824 27.8279 53.6089 27.9345 53.7149L29.2673 52.4158L29.5338 52.6279L28.1211 54.0066C28.1478 54.4573 27.9079 54.8815 27.508 55.1201C27.668 55.0936 27.8279 55.1466 27.9345 55.2527L29.2673 53.9801L29.5338 54.1922L28.1744 55.5973C28.1478 56.4192 27.4814 57.0821 26.6551 57.1351C26.5218 57.1351 26.3619 57.1086 26.2552 57.0025V57.9305H26.2819C27.8545 57.9305 27.9878 59.4682 29.5605 59.4682C31.1331 59.4682 31.1331 57.957 32.839 57.957C34.545 57.957 34.545 59.4682 36.1176 59.4682V59.972C34.4117 60.025 34.2784 58.4607 32.839 58.4607C31.3997 58.4607 31.2664 59.972 29.5605 59.972C27.8545 59.972 27.4281 58.4607 26.2552 58.4607C25.0824 58.4607 24.7359 59.5212 23.7497 59.7864ZM24.5227 60.6878C24.9491 60.2901 25.4289 59.8924 26.2819 59.8924C27.8545 59.8924 27.9878 61.4302 29.5605 61.4302C31.1331 61.4302 31.1864 59.9189 32.839 59.9189C34.545 59.9189 34.545 61.4302 36.1176 61.4302V61.9074C34.4117 61.9869 34.2784 60.4227 32.839 60.4227C31.3997 60.4227 31.2664 61.9074 29.5605 61.9074C27.8545 61.9074 27.6147 60.4227 26.2552 60.4227C25.6155 60.4227 25.2424 60.7408 24.8692 61.059L24.5227 60.6878ZM26.3619 62.4376L25.8021 61.9604L26.2819 61.9074C27.8545 61.9074 27.9878 63.4451 29.5605 63.4451C31.1331 63.4451 31.1864 61.9339 32.839 61.9339C34.545 61.9339 34.545 63.4451 36.1176 63.4451V63.9489C34.4117 64.0019 34.2784 62.4376 32.839 62.4376C31.3997 62.4376 31.2664 63.9489 29.5605 63.9489C27.8545 63.9489 27.6413 62.4907 26.3619 62.4376ZM36.1443 65.9638C34.465 66.0434 34.3317 64.4791 32.8657 64.4791C32.066 64.4791 31.6929 64.9298 31.2131 65.3541C31.0532 65.301 30.8932 65.2215 30.7333 65.1154C31.3464 64.6647 31.7195 63.9754 32.8657 63.9754C34.5716 63.9754 34.5716 65.4601 36.1443 65.4601V65.9638Z" fill="#A5A5A5"/>
<path d="M26.3086 56.4988C26.3086 56.6579 26.3885 56.7904 26.6284 56.7904C27.2415 56.7639 27.7213 56.2867 27.7746 55.6769C27.7746 55.5178 27.588 55.4648 27.3748 55.4648C26.815 55.5178 26.3619 55.942 26.3086 56.4988Z" fill="#A5A5A5"/>
<path d="M47.1261 61.2976C47.0195 61.2446 46.9129 61.2446 46.8063 61.2446H46.7263C46.4597 61.3241 46.3265 61.6157 46.4064 61.8809C46.4597 62.0134 46.5397 62.1195 46.673 62.1725C46.7796 62.252 46.9129 62.252 47.0462 62.2255C47.1794 62.1725 47.2861 62.093 47.3394 61.9604V61.9869C47.4193 61.8544 47.4193 61.7218 47.3927 61.5892C47.366 61.4567 47.2594 61.3506 47.1261 61.2976Z" fill="#7C7C7C"/>
<path d="M45.3402 62.0134H44.9937L45.1803 62.5967V62.5702L45.4469 62.3581L45.3402 62.0134Z" fill="#7C7C7C"/>
<path d="M44.0341 62.4641L43.8742 62.5702L43.1279 61.7218L43.2611 61.5892C43.4477 61.4301 43.5543 61.2445 43.6076 61.0059L43.2078 60.7938C43.0479 60.9529 42.9413 61.165 42.9146 61.4036V61.6157L41.7418 61.5097V61.2976C41.7684 61.0855 41.7151 60.8468 41.5819 60.6613L41.1021 60.8203C41.1287 61.0589 41.2087 61.271 41.3686 61.4301L41.5019 61.5627L40.6223 62.3581L40.489 62.199C40.3291 62.0134 40.1425 61.9074 39.9026 61.8543L39.6894 62.252C39.8759 62.4111 40.0892 62.5172 40.3291 62.5437H40.5157L40.409 63.6837H40.2491C40.0092 63.6572 39.7693 63.7102 39.5827 63.8428L39.7427 64.2935C39.9559 64.267 40.1691 64.161 40.3557 64.0284L40.5157 63.9223L41.2887 64.7707L41.1287 64.9033C40.9688 65.0624 40.8355 65.2745 40.7556 65.4866L41.182 65.6987C41.4486 65.5396 41.4752 65.0889 41.4752 65.0889V64.8768L42.6214 64.9829V65.195C42.5948 65.4336 42.6747 65.6457 42.808 65.8313L43.2345 65.6987C43.2345 65.4601 43.1545 65.248 42.9946 65.0624L42.8613 64.9033L43.7409 64.1344L43.8742 64.32C43.8742 64.32 44.1674 64.6647 44.4606 64.6382L44.6739 64.214C44.5139 64.0549 44.3007 63.9754 44.0608 63.9754H43.8475L43.9542 62.8353H44.1407L44.1674 62.8088C44.4073 62.8088 44.6205 62.7558 44.8338 62.6232L44.7005 62.2255C44.4606 62.252 44.2207 62.3316 44.0341 62.4641ZM43.1279 63.8163C42.9946 64.0814 42.7547 64.267 42.4881 64.3465H42.3549C42.115 64.3996 41.8751 64.3731 41.6618 64.267C41.4219 64.1079 41.2353 63.8958 41.1287 63.6307C41.0488 63.3656 41.0754 63.0739 41.2087 62.8088C41.342 62.5437 41.5552 62.3581 41.8218 62.2785C42.0883 62.199 42.3815 62.199 42.6481 62.3316V62.3581C42.9146 62.4906 43.1012 62.7293 43.1812 62.9944C43.2878 63.2595 43.2878 63.5777 43.1279 63.8163Z" fill="#7C7C7C"/>
<path d="M42.4882 62.7028C42.3282 62.6232 42.115 62.5967 41.9551 62.6763C41.7685 62.7293 41.6085 62.8618 41.5286 63.0209C41.3686 63.3656 41.5019 63.7898 41.8484 63.9489C42.1949 64.1079 42.6214 63.9754 42.7814 63.6307C42.8613 63.4716 42.888 63.2861 42.8347 63.1005C42.7814 62.9414 42.6481 62.8088 42.4882 62.7028Z" fill="#7C7C7C"/>
<path d="M44.354 48.5184C44.274 53.6354 41.6618 57.0555 38.33 57.904V68.1909C48.992 68.0584 57.9214 59.1501 58.0547 48.5184H44.354ZM49.4984 61.9074L49.3385 62.7558H49.2052C48.8587 62.8884 48.4589 62.8353 48.139 62.6498L47.8991 62.9149C48.1923 63.2065 48.2723 63.6307 48.139 64.0019L48.0857 64.0814L47.2594 64.3731L47.1794 64.3201C46.8596 64.0814 46.673 63.7103 46.6996 63.3126L46.3531 63.233C46.1932 63.5777 45.9 63.8428 45.5535 63.9489L45.4469 64.0019L44.8071 63.3921V63.3126C44.8071 63.233 44.8071 63.18 44.8338 63.1005C44.6472 63.2065 44.4606 63.2595 44.2474 63.2861V63.6572C44.5139 63.7368 44.9404 63.8693 45.047 64.2405V64.3201L44.6739 65.0624H44.5939C44.2474 65.142 43.8742 65.0359 43.6077 64.7708L43.3411 65.0094C43.5543 65.301 43.6077 65.6457 43.5277 65.9904L42.6747 66.2555L42.5948 66.2025C42.3282 65.9904 42.1683 65.6722 42.1683 65.3275H41.7951C41.7418 65.6722 41.5019 65.9904 41.182 66.1229H41.1021L40.3557 65.7517V65.6722C40.3024 65.3275 40.4091 64.9564 40.6756 64.7177L40.4357 64.4526C40.1958 64.5852 39.7693 64.7708 39.4495 64.6117L39.3695 64.5587L39.103 63.7633L39.1563 63.6837C39.3162 63.3391 39.7693 63.2595 40.0359 63.2595L40.0892 62.8884C39.7427 62.8353 39.4228 62.6232 39.2629 62.3051V62.2255L39.6361 61.4832H39.716C40.0625 61.4036 40.4357 61.5097 40.6756 61.7748L40.9688 61.5362C40.7289 61.2711 40.6756 60.8999 40.7822 60.5552L40.8355 60.4757L41.6618 60.2106L41.7418 60.2636C42.035 60.4492 42.1949 60.7939 42.1683 61.1385H42.5415C42.5948 60.7939 42.8347 60.4757 43.1545 60.3431H43.2345L43.9808 60.7143V60.7939C44.0341 61.1385 43.9275 61.5097 43.661 61.7483L43.9009 62.04C44.0874 61.9074 44.3273 61.8279 44.5672 61.8279L44.354 61.6688L44.274 61.5892L44.4606 60.6613H44.5939C44.9404 60.5552 45.3136 60.6083 45.6334 60.7939L45.8467 60.5287C45.6068 60.2106 45.5268 59.8129 45.6601 59.4417V59.3622L46.4598 59.097L46.5397 59.1501C46.8862 59.3622 47.0728 59.7333 47.0462 60.131L47.3927 60.2106C47.526 59.8924 47.7925 59.6273 48.139 59.4947H48.2723L48.9653 60.1045V60.2106C48.8854 60.5552 48.6721 60.8734 48.3523 61.059L48.4855 61.4037C48.7521 61.4037 49.2585 61.4036 49.4984 61.7748V61.9074ZM55.0693 55.5973L54.1098 54.5633L48.3256 59.1235V56.8169L45.0737 58.8849V57.5328L42.4881 59.1766V58.5668L45.5002 56.6844V58.0365L48.7521 55.9685V58.1691L54.1098 54.0331L54.6162 54.5633V53.0521H53.2834L53.6833 53.5293L49.3652 56.6844V54.5368L45.98 56.6844V55.1466L43.0746 56.8965V56.2867L46.4064 54.2717V55.836L49.7916 53.6884V55.836L52.9902 53.4498L52.3505 52.6279H55.0693V55.5973ZM54.5629 50.9841L50.2448 54.1126V52.2037L46.8329 54.3512V52.8135L44.0608 54.4308V53.821L47.2594 51.9651V53.4763L50.6979 51.3288V53.2377L54.5629 50.4274L55.096 50.9841V49.5524H53.7632L54.1364 50.0297L51.2577 52.0181V50.1887L48.139 52.0181V50.2948L44.9404 52.0181V51.3818L48.5655 49.4464V51.1697L51.6841 49.3403V51.1697L53.47 49.8971L52.857 49.1282H55.5225V52.0181L54.5629 50.9841Z" fill="#7C7C7C"/>
<path d="M48.4056 61.7483H48.2456L47.8725 60.7674L48.0324 60.6878C48.2456 60.5553 48.4322 60.3697 48.5655 60.1576L48.2456 59.8659C48.0057 59.972 47.8458 60.1576 47.7925 60.3962L47.7392 60.6083H47.526L46.6463 60.3962V60.2106C46.6463 60.2106 46.6996 59.7069 46.4331 59.4948L46.0066 59.6273C45.9266 59.972 46.2732 60.3167 46.2732 60.3432L46.4064 60.4757L45.6601 61.3241L45.5002 61.1651C45.3136 61.006 45.0737 60.9264 44.8338 60.9795L44.7272 61.4037C44.9671 61.5097 45.207 61.5628 45.4735 61.5362H45.6334L45.9533 62.5437L45.7934 62.6233C45.6601 62.6763 45.3136 62.8884 45.2869 63.1535L45.5801 63.4452C45.82 63.3391 45.98 63.127 46.0599 62.8884L46.1132 62.6763L46.2998 62.7293L47.2061 62.9149V63.1005C47.2061 63.1005 47.1261 63.6042 47.3927 63.8428L47.8458 63.6838C47.8725 63.4186 47.7658 63.18 47.5793 62.9944L47.4193 62.8354L48.1923 62.0135L48.3523 62.146C48.5388 62.3316 48.8054 62.3846 49.0453 62.3316L49.1253 61.8809C48.912 61.7483 48.6721 61.6953 48.4056 61.7483ZM47.6592 62.1195C47.5526 62.3316 47.366 62.4907 47.1528 62.5437H47.0462C46.8596 62.5702 46.673 62.5437 46.5131 62.4642C46.2998 62.3581 46.1399 62.1725 46.0599 61.9604C45.9266 61.5097 46.1665 61.0325 46.6197 60.8734C46.8329 60.8204 47.0728 60.8204 47.2861 60.9264V60.953C47.4993 61.059 47.6326 61.2446 47.7125 61.4567C47.7925 61.6953 47.7925 61.9339 47.6592 62.1195Z" fill="#7C7C7C"/>
<path d="M42.1416 52.3627C42.0617 52.3362 42.0083 52.3627 41.955 52.4688L41.7951 52.8134L42.035 52.893L42.1683 52.5483C42.2216 52.4423 42.2216 52.3892 42.1416 52.3627Z" fill="#898888"/>
<path d="M41.6885 52.2567C41.6085 52.2037 41.5552 52.2567 41.5019 52.3628L41.3953 52.6279L41.6085 52.7074L41.7418 52.4423C41.7685 52.3628 41.7685 52.3097 41.6885 52.2567Z" fill="#898888"/>
<path d="M34.4916 52.0446L34.385 51.8325L33.7986 52.0711L33.8785 52.2832C33.9585 52.4953 34.0918 52.5748 34.305 52.4953C34.5183 52.4157 34.5716 52.2832 34.4916 52.0446Z" fill="#898888"/>
<path d="M41.342 46.3708H38.5165V43.8521H37.477V46.3708H34.6516V47.4579H37.477V52.8665C37.6103 52.999 37.8235 53.0786 38.0101 53.1051C38.1967 53.0786 38.3833 52.999 38.5165 52.8665V47.4579H41.342V46.3708Z" fill="#898888"/>
<path d="M41.3153 53.5823L40.8622 53.5028L41.1021 53.874L41.3153 53.5823Z" fill="#898888"/>
<path d="M38.0367 42.1818C36.8106 42.5795 35.2646 42.8446 32.1726 42.6591V48.2002C32.1726 53.1581 34.6249 56.6578 38.0367 57.4267C41.4219 56.6578 43.8742 53.1581 43.8742 48.2002V42.6591C40.7822 42.8446 39.2362 42.5795 38.0367 42.1818ZM33.1322 49.8705L34.2784 49.7645L34.3584 50.6659L34.1185 50.6924L34.0651 50.0561L33.7986 50.0826L33.8519 50.6129L33.6387 50.6394L33.5854 50.1091L33.1589 50.1357L33.1322 49.8705ZM33.2388 51.1431L34.3584 50.9045L34.4117 51.1697L33.2922 51.4083L33.2388 51.1431ZM33.6387 52.3362L33.4521 51.912L34.5449 51.5143L34.7049 51.9385C34.8648 52.3627 34.7582 52.6279 34.4117 52.7604C34.0651 52.893 33.7986 52.7604 33.6387 52.3362ZM34.6516 53.4232L34.465 53.5293L34.8115 54.0861L34.6249 54.2186L34.1185 53.4498L35.1047 52.8134L35.5845 53.5823L35.3712 53.6884L35.0247 53.1846L34.8381 53.2907L35.1047 53.7679L34.9448 53.874L34.6516 53.4232ZM36.1442 54.6693L36.011 54.7224L35.851 54.5103H35.931C35.9843 54.4572 36.011 54.3777 35.8777 54.2451C35.7444 54.1126 35.6911 54.1126 35.6111 54.1656C35.5312 54.2186 36.0643 54.7489 35.7444 55.0405C35.4246 55.3322 35.3979 55.1466 35.158 54.908C34.9181 54.6693 34.9181 54.4307 35.078 54.2982C35.158 54.3247 35.2113 54.3777 35.2646 54.4307C35.1847 54.5368 35.1847 54.6163 35.3179 54.7754C35.4512 54.9345 35.5045 54.908 35.5845 54.8549C35.6645 54.8019 35.1047 54.2716 35.4512 53.98C35.7977 53.6884 35.7977 53.8474 36.0376 54.1126C36.2775 54.3777 36.2509 54.5633 36.1442 54.6693ZM37.9301 55.8889H36.9972V54.7489H37.9035V54.9875H37.2638V55.2261H37.7969V55.4382H37.2638V55.6503H37.9301V55.8889ZM38.0367 53.6353C37.6902 53.5558 37.3704 53.3967 37.0772 53.2111V47.9086H34.1984V45.9466H37.0772V43.3749H38.9963V45.9466H41.8484V47.9086H38.9963V53.2111C38.6765 53.3967 38.3566 53.5293 38.0367 53.6353ZM39.103 55.014H38.7031V55.8889H38.4632V55.014H38.0634V54.7489H39.103V55.014ZM40.4357 55.3322L39.6361 54.5103L39.8226 54.3247L40.4624 54.9875L40.8888 54.5633L41.0488 54.7489L40.4357 55.3322ZM41.8484 53.7149L41.5286 53.6353L41.2354 54.0861C41.262 54.1656 41.342 54.2451 41.3953 54.3512L41.2354 54.5633C40.8089 53.9005 40.5956 53.4763 40.5956 53.4763L40.7556 53.2376L42.0084 53.4763L41.8484 53.7149ZM42.4082 52.6544L42.1416 53.2376L41.0754 52.7604L41.3153 52.2302C41.4219 51.9915 41.5819 51.9385 41.7418 52.0181C41.8484 52.0446 41.9017 52.1241 41.9017 52.2302C41.9817 52.0976 42.1416 52.0446 42.2482 52.1241C42.2482 52.1241 42.2482 52.1241 42.2749 52.1241C42.4881 52.2302 42.5148 52.3892 42.4082 52.6544ZM42.8613 51.3022C42.8613 51.3287 42.8613 51.3287 42.8613 51.3552C42.8347 51.6734 42.5681 51.8855 42.2482 51.859C42.2216 51.859 42.1683 51.859 42.1416 51.8325C41.8484 51.7794 41.6352 51.4878 41.6885 51.1962C41.6885 51.1697 41.7151 51.1431 41.7151 51.0901C41.7418 50.772 42.0084 50.5599 42.3282 50.5864C42.3549 50.5864 42.4082 50.5864 42.4348 50.6129C42.728 50.6924 42.9413 51.0106 42.8613 51.3022ZM43.0479 49.6584L42.7014 49.8175V50.1091H43.0479V50.3743L41.9017 50.2947V49.738C41.9284 49.4463 42.0883 49.2872 42.3549 49.3138C42.4881 49.3138 42.6214 49.3933 42.6747 49.5259L43.1012 49.3138L43.0479 49.6584Z" fill="#898888"/>
<path d="M42.2749 49.6319C42.1683 49.6319 42.0883 49.6584 42.0883 49.8175V50.1091L42.4348 50.1356V49.844C42.4348 49.6849 42.3815 49.6319 42.2749 49.6319Z" fill="#898888"/>
<path d="M42.4082 50.9045C42.3815 50.9045 42.3549 50.878 42.3282 50.878C42.1683 50.825 42.0084 50.9045 41.9551 51.0371C41.9551 51.0636 41.9284 51.0901 41.9284 51.1431C41.8751 51.3552 41.9284 51.5143 42.1683 51.5673C42.3282 51.6204 42.5148 51.5408 42.5681 51.3817C42.5681 51.3552 42.5948 51.3287 42.5948 51.3022C42.6747 51.1431 42.5681 50.9575 42.4082 50.9045Z" fill="#898888"/>
</svg>
