<?xml version="1.0" encoding="UTF-8"?>
<svg width="193px" height="38px" viewBox="0 0 193 38" version="1.1" xmlns="http://www.w3.org/2000/svg" xmlns:xlink="http://www.w3.org/1999/xlink">
    <!-- Generator: Sketch 59.1 (86144) - https://sketch.com -->
    <title>logo-pictos</title>
    <desc>Created with Sketch.</desc>
    <g id="Page-1" stroke="none" stroke-width="1" fill="none" fill-rule="evenodd">
        <path d="M41.7570578,0 L41.7570578,37.9609287 L34.16486,37.9609287 L34.16486,0 L41.7570578,0 Z M117.678734,0 L117.678734,7.59219781 L106.290528,7.59219781 L106.290528,37.9609287 L98.6983906,37.9609287 L98.6983906,7.59219781 L87.3101844,7.59219781 L87.3101844,0 L117.678734,0 Z M0,0 L13.2863613,0 C20.6241609,0 26.5727828,5.94849522 26.5727828,13.2863613 C26.5727828,20.5208116 20.7905477,26.4048232 13.5955697,26.5691349 L13.2863613,26.5726622 L7.59219781,26.5726622 L7.59219781,37.9609287 L0,37.9609287 L0,0 L13.2863613,0 L0,0 Z M68.3298406,0 C75.0323688,0 80.9236938,3.47446441 84.3011938,8.72064469 L76.9098969,11.4922453 C74.8224813,9.10212125 71.752575,7.59219781 68.3298406,7.59219781 C62.0404531,7.59219781 56.9414534,12.6908959 56.9414534,18.9804644 C56.9414534,25.2700328 62.0404531,30.3687309 68.3298406,30.3687309 C71.752575,30.3687309 74.8224813,28.8588075 76.9098969,26.4687437 L84.3011938,29.2402841 C80.9236938,34.4865066 75.0323688,37.9609287 68.3298406,37.9609287 C57.8471059,37.9609287 49.3493159,29.4630784 49.3493159,18.9804644 C49.3493159,8.49785031 57.8471059,0 68.3298406,0 Z M140.45575,0 C150.938063,0 159.436094,8.49785031 159.436094,18.9804644 C159.436094,29.4630784 150.938063,37.9609287 140.45575,37.9609287 C129.972834,37.9609287 121.474803,29.4630784 121.474803,18.9804644 C121.474803,8.49785031 129.972834,0 140.45575,0 Z M175.233144,0.98285247 L175.622061,0.858018233 C179.087644,-0.212345385 185.000869,-0.930092522 191.68018,2.81973656 L192.066363,3.04105875 L189.417438,9.25061059 L188.991858,8.9898565 C187.90521,8.34718001 184.934651,6.73515716 182.395253,6.68184091 C179.221006,6.61519559 177.316338,7.35673778 176.539513,9.83509903 C175.581034,12.8945536 179.199456,15.2642638 182.204336,15.8044497 L182.395253,15.836434 C185.435003,16.3080175 192.734022,19.4626628 192.984922,25.5706906 C193.141734,29.3768918 192.072997,31.5580934 189.338428,34.210215 C183.551404,39.8223129 172.462302,39.0719173 167.234203,32.3928805 L167.028231,32.1225581 L170.789922,27.2140856 L171.073859,27.4714855 C172.069686,28.3487169 175.509898,31.1647567 178.587122,31.1180534 L179.052228,31.1080036 C182.128096,31.0196841 184.680149,30.4707337 185.083381,27.4083522 C185.62047,23.324527 180.236656,22.520221 176.73222,21.3453142 L176.539513,21.2796372 C173.044403,20.0677781 168.037259,17.1776031 168.745931,10.5581253 C169.190434,6.40180997 171.769397,2.13721563 175.233144,0.98285247 Z" id="logo-pictos" fill="#1D1D1B" fill-rule="nonzero"></path>
    </g>
</svg>