<?xml version="1.0" encoding="UTF-8"?>
<svg width="36px" height="36px" viewBox="0 0 36 36" version="1.1" xmlns="http://www.w3.org/2000/svg" xmlns:xlink="http://www.w3.org/1999/xlink">
    <!-- Generator: Sketch 59.1 (86144) - https://sketch.com -->
    <title>no-information</title>
    <desc>Created with Sketch.</desc>
    <g id="Page-1" stroke="none" stroke-width="1" fill="none" fill-rule="evenodd">
        <path d="M17.9,0 C27.7602,0 35.8,8.03983 35.8,17.9 C35.8,27.7602 27.7602,35.8 17.9,35.8 C8.03983,35.8 0,27.7602 0,17.9 C0,8.03983 8.03983,0 17.9,0 Z M17.9,2.52825 C9.45565,2.52825 2.52825,9.40509 2.52825,17.9 C2.52825,26.3949 9.45565,33.2718 17.9,33.2718 C26.3444,33.2718 33.2718,26.3444 33.2718,17.9 C33.2718,9.45565 26.3444,2.52825 17.9,2.52825 Z M18,21 C19.6569,21 21,22.567 21,24.5 C21,26.433 19.6569,28 18,28 C16.3431,28 15,26.433 15,24.5 C15,22.567 16.3431,21 18,21 Z M11.6805,11.7312 C12.8534,11.7312 13.8042,12.682 13.8042,13.8549 C13.8042,15.0278 12.8534,15.9787 11.6805,15.9787 C10.5076,15.9787 9.55676,15.0278 9.55676,13.8549 C9.55676,12.682 10.5076,11.7312 11.6805,11.7312 Z M24.1193,11.7305 C25.2922,11.7305 26.2431,12.6813 26.2431,13.8542 C26.2431,15.0271 25.2922,15.9779 24.1193,15.9779 C22.9464,15.9779 21.9956,15.0271 21.9956,13.8542 C21.9956,12.6813 22.9464,11.7305 24.1193,11.7305 Z" id="no-information" fill="#000000" fill-rule="nonzero"></path>
    </g>
</svg>