<svg width="36" height="36" viewBox="0 0 36 36" fill="none" xmlns="http://www.w3.org/2000/svg">
<path d="M17.9 35.8C8.03983 35.8 0 27.7602 0 17.9C0 8.03983 8.03983 0 17.9 0C27.7602 0 35.8 8.03983 35.8 17.9C35.8 27.7602 27.7602 35.8 17.9 35.8ZM17.9 2.52825C9.45565 2.52825 2.52825 9.40509 2.52825 17.9C2.52825 26.3949 9.45565 33.2718 17.9 33.2718C26.3444 33.2718 33.2718 26.3444 33.2718 17.9C33.2718 9.45565 26.3444 2.52825 17.9 2.52825Z" fill="#5B7FA1"/>
<path d="M26 24.0003C21.5 20.5 14 21.0001 10 24.0003L11 25.0006C15.4 22.2006 21.5 23 25 25.0006L26 24.0003Z" fill="#5B7FA1"/>
<path d="M11.6804 15.9784C12.8533 15.9784 13.8041 15.0276 13.8041 13.8547C13.8041 12.6818 12.8533 11.731 11.6804 11.731C10.5075 11.731 9.55664 12.6818 9.55664 13.8547C9.55664 15.0276 10.5075 15.9784 11.6804 15.9784Z" fill="#5B7FA1"/>
<path d="M24.1193 15.9779C25.2922 15.9779 26.2431 15.0271 26.2431 13.8542C26.2431 12.6813 25.2922 11.7305 24.1193 11.7305C22.9464 11.7305 21.9956 12.6813 21.9956 13.8542C21.9956 15.0271 22.9464 15.9779 24.1193 15.9779Z" fill="#5B7FA1"/>
</svg>
