<?xml version="1.0" encoding="UTF-8"?>
<svg width="175px" height="150px" viewBox="0 0 175 150" version="1.1" xmlns="http://www.w3.org/2000/svg" xmlns:xlink="http://www.w3.org/1999/xlink">
    <!-- Generator: Sketch 59.1 (86144) - https://sketch.com -->
    <title>permissions</title>
    <desc>Created with Sketch.</desc>
    <g id="Page-1" stroke="none" stroke-width="1" fill="none" fill-rule="evenodd">
        <g id="permissions">
            <path d="M55,110 C85.3757,110 110,85.3757 110,55 C110,24.6243 85.3757,0 55,0 C24.6243,0 0,24.6243 0,55 C0,85.3757 24.6243,110 55,110 Z" id="Path" fill="#F7F7F7" fill-rule="nonzero"></path>
            <path d="M72,51 C72,65 55,77 55,77 C55,77 38,65 38,51 C38,41.0589 45.6112,33 55,33 C64.3888,33 72,41.0589 72,51 Z" id="Path" stroke="#F6C254" stroke-width="2" fill="#F6C254" stroke-linecap="round" stroke-linejoin="round"></path>
            <path d="M55.1667,56.3333 C58.5724,56.3333 61.3333,53.5724 61.3333,50.1667 C61.3333,46.7609 58.5724,44 55.1667,44 C51.7609,44 49,46.7609 49,50.1667 C49,53.5724 51.7609,56.3333 55.1667,56.3333 Z" id="Path" fill="#F7F7F7"></path>
            <path d="M120,150 C150.376,150 175,125.376 175,95 C175,64.6243 150.376,40 120,40 C89.6243,40 65,64.6243 65,95 C65,125.376 89.6243,150 120,150 Z" id="Path" fill="#F6C254" fill-rule="nonzero"></path>
            <path d="M120,102 C122.761,102 125,99.761 125,97 C125,94.2386 122.761,92 120,92 C117.239,92 115,94.2386 115,97 C115,99.761 117.239,102 120,102 Z" id="Path" fill="#F6F6F6"></path>
            <path d="M127.286,82.5 L133.964,82.5 C135.641,82.5 137,83.8991 137,85.625 L137,106.875 C137,108.601 135.641,110 133.964,110 L106.036,110 C104.359,110 103,108.601 103,106.875 L103,85.625 C103,83.8991 104.359,82.5 106.036,82.5 L112.714,82.5 L115.143,80 L124.857,80 L127.286,82.5 Z M111.5,96.875 C111.5,101.707 115.306,105.625 120,105.625 C124.694,105.625 128.5,101.707 128.5,96.875 C128.5,92.0426 124.694,88.125 120,88.125 C115.306,88.125 111.5,92.0426 111.5,96.875 Z" id="Shape" fill="#F6F6F6"></path>
        </g>
    </g>
</svg>