<?xml version="1.0" encoding="UTF-8"?>
<svg width="13px" height="13px" viewBox="0 0 13 13" version="1.1" xmlns="http://www.w3.org/2000/svg" xmlns:xlink="http://www.w3.org/1999/xlink">
    <!-- Generator: Sketch 59.1 (86144) - https://sketch.com -->
    <title>plus</title>
    <desc>Created with Sketch.</desc>
    <g id="Page-1" stroke="none" stroke-width="1" fill="none" fill-rule="evenodd">
        <path d="M6.5,0 C6.1119,0 5.7973,0.314618 5.7973,0.7027 L5.7973,5.79732 L0.702703,5.79732 C0.314618,5.79732 0,6.11192 0,6.50002 C0,6.88812 0.314618,7.20272 0.702703,7.20272 L5.7973,7.20272 L5.7973,12.2973 C5.7973,12.6854 6.1119,13 6.5,13 C6.8881,13 7.2027,12.6854 7.2027,12.2973 L7.2027,7.20272 L12.2973,7.20272 C12.6854,7.20272 13,6.88812 13,6.50002 C13,6.11192 12.6854,5.79732 12.2973,5.79732 L7.2027,5.79732 L7.2027,0.7027 C7.2027,0.314618 6.8881,0 6.5,0 Z" id="plus" fill="#000000" fill-rule="nonzero"></path>
    </g>
</svg>