<?xml version="1.0" encoding="UTF-8"?>
<svg width="67px" height="97px" viewBox="0 0 67 97" version="1.1" xmlns="http://www.w3.org/2000/svg" xmlns:xlink="http://www.w3.org/1999/xlink">
    <!-- Generator: Sketch 59.1 (86144) - https://sketch.com -->
    <title>ser-walk</title>
    <desc>Created with Sketch.</desc>
    <g id="Page-1" stroke="none" stroke-width="1" fill="none" fill-rule="evenodd">
        <path d="M29.8404427,77.1178981 L48.082642,84.6302981 C48.84267,84.9432886 49.209248,85.8096467 48.904687,86.5730916 C45.5361847,95.0169364 39.785046,98.998935 32.6371467,96.0557132 C25.5546001,93.1394442 24.4389958,86.564536 27.8760348,77.9490799 C28.1854038,77.1735997 29.068431,76.7999726 29.8404427,77.1178981 Z M30.1317771,80.4823029 L30.0165418,80.821768 C27.9221167,87.1208694 29.0023116,91.3146938 33.7793786,93.2816718 C38.721528,95.316653 42.7251231,92.9092856 45.5333991,86.8249123 L30.1317771,80.4823029 Z M57.7679201,32.0400479 C66.6548219,35.6109228 67.9275884,44.5498757 63.7295521,56.7270833 C62.3947511,60.5989291 60.5410755,64.6908732 58.2999281,68.8900536 C56.6311833,72.0167378 54.8448659,75.0229463 53.0582081,77.8025052 L52.5329789,78.6128734 C52.1905028,79.1368242 51.8638364,79.6277687 51.5557176,80.0832041 L50.9499244,80.9673842 L50.6614025,81.3780862 C50.2588698,81.9403276 49.5241474,82.1545456 48.8825199,81.8967429 L29.9522199,74.2906429 C29.356162,74.0511498 28.9836033,73.4617387 29.0129964,72.82988 L29.0255123,72.693944 L29.2112882,71.4783131 L29.3940922,70.3837824 L29.5902134,69.2773914 C29.7623174,68.3324554 29.9561871,67.3314353 30.1725105,66.2838941 C31.162016,61.4922356 32.415101,56.6989591 33.9569923,52.2141768 C36.3471874,45.2619973 39.2115998,39.6905999 42.6417254,35.9808507 C46.9626477,31.3076872 52.0818345,29.7553148 57.7679201,32.0400479 Z M37.1054179,52.2991722 L36.794004,53.189556 C35.2979798,57.5409283 34.0760683,62.2149601 33.1105193,66.8906101 C32.7723676,68.528102 32.4906035,70.0480056 32.2626729,71.4105955 L32.173946,71.9502186 L48.8910712,78.6670761 L49.4060297,77.9036448 L49.9548775,77.0738069 L50.5345894,76.1803619 C52.2798911,73.4651419 54.0255332,70.5273863 55.653284,67.4775114 C57.8251261,63.4081867 59.6155308,59.4559116 60.8933613,55.7493196 C64.6374768,44.8887961 63.6021502,37.617442 56.6494005,34.8237351 C48.5634524,31.5747102 42.0683841,38.351954 37.1054179,52.2991722 Z M3.84039133,46.1178976 L22.0826416,53.6302976 C22.8426704,53.9432875 23.2092491,54.8096463 22.9046878,55.5730917 C19.536183,64.0169403 13.7850415,67.9989322 6.63710346,65.0557119 C-0.44538274,62.1394484 -1.56097473,55.5645872 1.87597919,46.9490938 C2.18534247,46.1736056 3.0683744,45.7999708 3.84039133,46.1178976 Z M4.1317415,49.4823071 L4.01650916,49.8217737 C1.92213862,56.1209009 3.00232463,60.3147026 7.77933577,62.2816706 C12.7215195,64.316654 16.7251203,61.90929 19.5333992,55.8249135 L4.1317415,49.4823071 Z M32.7679207,1.04003819 C41.6548206,4.61091668 42.9275879,13.5498698 38.7295539,25.7270762 C37.3947528,29.598924 35.5410766,33.6908704 33.2999281,37.8900531 C31.6311833,41.0167375 29.8448659,44.0229461 28.0582081,46.8025051 L27.5329789,47.6128733 C27.1905028,48.1368242 26.8638364,48.6277687 26.5557176,49.0832041 L25.9499244,49.9673842 L25.6614025,50.3780862 C25.2588698,50.9403276 24.5241474,51.1545456 23.8825199,50.8967429 L4.95221995,43.2906429 C4.356162,43.0511498 3.98360329,42.4617387 4.01299644,41.82988 L4.02551233,41.6939441 L4.21128817,40.4783128 L4.39409221,39.3837819 L4.59021344,38.2773907 C4.76231739,37.3324544 4.95618707,36.3314341 5.17251049,35.2838926 C6.16201605,30.492233 7.41510114,25.6989553 8.95699242,21.214172 C11.3471875,14.2619911 14.2115998,8.6905925 17.6417254,4.98084242 C21.9626476,0.307677852 27.0818345,-1.2446952 32.7679207,1.04003819 Z M12.1054181,21.2991671 L11.7940042,22.189551 C10.2979799,26.5409243 9.07606844,31.2149574 8.11051931,35.8906085 C7.77236763,37.5281008 7.4906035,39.0480048 7.26267287,40.410595 L7.173946,40.9502186 L23.8910712,47.6670761 L24.4060297,46.9036448 L24.9548775,46.0738069 L25.5345894,45.1803618 C27.2798911,42.4651418 29.0255332,39.5273861 30.653284,36.477511 C32.8251271,32.408184 34.6155324,28.4559068 35.893363,24.7493128 C39.6374766,13.8887902 38.6021491,6.617435 31.6494005,3.82372506 C23.5634527,0.574700274 17.0683843,7.35194591 12.1054181,21.2991671 Z" id="ser-walk" fill="#000000" fill-rule="nonzero"></path>
    </g>
</svg>