<?xml version="1.0" encoding="UTF-8"?>
<svg width="88px" height="88px" viewBox="0 0 88 88" version="1.1" xmlns="http://www.w3.org/2000/svg" xmlns:xlink="http://www.w3.org/1999/xlink">
    <!-- Generator: Sketch 59.1 (86144) - https://sketch.com -->
    <title>ser-observe</title>
    <desc>Created with Sketch.</desc>
    <g id="Page-1" stroke="none" stroke-width="1" fill="none" fill-rule="evenodd">
        <path d="M52.9202648,9.07971943 L53.2798124,9.44513737 C62.3410678,18.8049851 64.3405551,32.4647463 59.2782764,43.7223067 L62.8100062,47.2536608 C64.3814246,48.8249192 64.3629594,51.3771944 62.7841656,52.9558298 L62.818,52.918 L86.8041231,76.9045779 C88.337295,78.4385102 88.4268078,80.879057 87.0130598,82.4585034 L86.8614452,82.6187502 L83.3258602,86.1542352 C81.7556344,87.7244609 79.1982554,87.6835507 77.6114398,86.0967352 L77.6114398,86.0967352 L53.627,62.112 L52.9979602,62.7421352 C51.4834029,64.2566925 49.0702592,64.3372317 47.4872706,62.9476163 L47.3265454,62.7986172 L43.7265427,59.2763835 C32.3208232,64.4073429 18.4480453,62.2886593 9.07963522,52.9203306 C-3.02654584,40.8140444 -3.02654584,21.1859005 9.07963983,9.07971483 C21.185927,-3.02657238 40.8140781,-3.02657238 52.9202648,9.07971943 Z M60.698,55.041 L55.748,59.991 L79.7327602,83.9754148 C80.1298334,84.372488 80.7213995,84.4120067 81.1114654,84.1143317 L81.2045548,84.0328998 L84.7399769,80.4975778 C85.1229831,80.1144539 85.1123944,79.4557031 84.6825398,79.0256352 L84.6825398,79.0256352 L60.698,55.041 Z M52.9202602,52.9203352 C50.9682088,54.8723866 48.820589,56.5096811 46.5404688,57.8322188 L49.4248177,60.6544966 C49.8188261,61.0400666 50.4656155,61.0318391 50.8766344,60.6208202 L50.8766344,60.6208202 L60.6628931,50.8344616 C61.0768469,50.4205493 61.0815692,49.7678246 60.6887262,49.3750215 L60.6887262,49.3750215 L57.8408904,46.5254839 C56.5168233,48.8112036 54.8766132,50.9639822 52.9202602,52.9203352 Z M11.2009602,11.2010352 C0.266345842,22.1356495 0.266345842,39.8643056 11.2009556,50.7990102 C22.1356694,61.7336292 39.8643255,61.7336292 50.7989398,50.7990148 C61.7336526,39.864302 61.7336526,22.1356531 50.7989444,11.2010398 L50.4688722,10.8762697 C39.5104284,0.267415848 22.0263258,0.375669505 11.2009602,11.2010352 Z M48.0294271,14.0931148 L48.3241602,14.3830148 L48.6140686,14.6777595 C57.8909494,24.2668703 57.7943152,39.5610802 48.3241602,49.0312352 C38.7562737,58.5991216 23.2437263,58.5991216 13.6758398,49.0312352 C4.10805437,39.4634497 4.10805437,23.9509068 13.6758398,14.3830148 C23.1460948,4.91275988 38.4403101,4.81612463 48.0294271,14.0931148 Z M15.7971661,16.5043293 C7.40094563,24.9006432 7.40094563,38.5137003 15.7971602,46.9099148 C24.1934737,55.3062284 37.8065263,55.3062284 46.2028398,46.9099148 C54.5057631,38.6069916 54.5980178,25.2025115 46.4796039,16.7861299 L46.2028339,16.5043293 L45.9210449,16.2275678 C37.504658,8.10905819 24.1001814,8.20131392 15.7971661,16.5043293 Z M19.3327308,20.0399239 C25.7767193,13.5958254 36.2232807,13.5958254 42.6672692,20.0399239 C43.2530507,20.6257153 43.2530426,21.5754628 42.6672511,22.1612442 C42.0814597,22.7470257 41.1317122,22.7470176 40.5459308,22.1612261 C35.2735193,16.8887246 26.7264807,16.8887246 21.4540692,22.1612261 C20.8682878,22.7470176 19.9185403,22.7470257 19.3327489,22.1612442 C18.7469574,21.5754628 18.7469493,20.6257153 19.3327308,20.0399239 Z" id="ser-observe" fill="#000000" fill-rule="nonzero"></path>
    </g>
</svg>