<svg width="14" height="14" viewBox="0 0 14 14" fill="none" xmlns="http://www.w3.org/2000/svg">
<path d="M8 0C6.24591 1.38697 4.49242 2.77359 2.73829 4.16045H0V9.83954H2.73829L8 14V8.71424C8 8.07692 8 8.61538 8 8.07692C8 7.53846 7.99938 7.2323 8 6.85486C7.99972 6.47707 8 6.46154 8 5.92307C8 5.38461 8 5.38461 8 4.98918V0ZM11.6934 1.07692L11.0019 1.85096C12.2783 3.17041 12.9993 4.99364 13 6.89903C12.9987 8.80357 12.2778 10.6261 11.0019 11.945L11.6934 12.7211C13.1657 11.199 13.9991 9.09693 14 6.89903C13.9991 4.70114 13.1657 2.59904 11.6934 1.07692ZM9.60156 2.17909L9 3.03726C10.1262 3.95157 10.7887 5.38014 10.791 6.89903C10.7881 8.41706 10.1257 9.84483 9 10.7587L9.60156 11.619C10.9773 10.5022 11.7882 8.75436 11.791 6.89903C11.7881 5.04371 10.9773 3.29596 9.60156 2.17909Z" fill="#5B7FA1"/>
</svg>